<?xml version="1.0" encoding="utf-8"?>
<!-- Generator: Adobe Illustrator 22.1.0, SVG Export Plug-In . SVG Version: 6.00 Build 0)  -->
<svg version="1.1" id="Layer_1" xmlns="http://www.w3.org/2000/svg" xmlns:xlink="http://www.w3.org/1999/xlink" x="0px" y="0px"
	 viewBox="0 0 1000 1000" style="enable-background:new 0 0 1000 1000;" xml:space="preserve">
<style type="text/css">
	.st0{fill:#0000FF;}
	.st1{fill:#F3F7DE;}
	.st2{fill:#C4E5DC;}
	.st3{fill:#DDEEDB;}
	.st4{fill:#AADCD9;}
	.st5{fill:#9ED3D7;}
	.st6{fill:#D6EBD4;}
	.st7{fill:#B8E0D5;}
	.st8{fill:#F1F5D7;}
	.st9{fill:#313177;}
	.st10{fill:#232360;}
	.st11{fill:#444484;}
	.st12{fill:#1E1E5E;}
	.st13{fill:#1C1C51;}
	.st14{opacity:0.4;fill:#FFFFFF;}
</style>
<g>
	<path class="st0" d="M569.6914673,327.5145874h-0.5200806v-0.0726318
		C569.3481445,327.4521179,569.5142212,327.4729309,569.6914673,327.5145874z"/>
	<g>
		<path class="st1" d="M650.9488525,310.8909912c0.010376,4.4726257-1.7268066,8.6852417-4.878479,11.84729
			c-3.1513672,3.1619263-7.3535767,4.9093933-11.8261719,4.9197998H363.6113892
			c-9.1948853,0-14.5205078-7.104187-14.5410767-16.3093567l-0.083313-53.7749634
			c-0.0104065-4.472641,1.7265625-8.6746979,4.8781738-11.8367615c3.1516418-3.1620483,7.3434448-5.2735443,11.8160706-5.2839661
			H634.90979c8.9452515,0.3953857,15.9453125,7.7178497,15.9557495,16.6629944L650.9488525,310.8909912z"/>
		<path class="st2" d="M650.9488525,310.8909912c0.010376,4.4726257-1.7268066,8.6852417-4.878479,11.84729
			c-3.1513672,3.1619263-7.3535767,4.9093933-11.8261719,4.9197998H514.1918335
			c4.4726563-0.0104065,8.6745605-1.7578735,11.8261719-4.9197998c3.1516724-3.1620483,4.8886108-7.3746643,4.8782349-11.84729
			l-0.0101929-8.9139099l-0.062439-35.3229675l-0.010437-9.5380859c-0.010437-8.9451447-7.010498-16.2676086-15.9557495-16.6629944
			H634.90979c8.9452515,0.3953857,15.9453125,7.7178497,15.9557495,16.6629944L650.9488525,310.8909912z"/>
		<path class="st3" d="M575.7758179,310.8925476c0.0106812,4.4726257-1.7262573,8.6748352-4.8781738,11.8368835
			c-3.1513672,3.1724548-7.3535767,4.9093933-11.8259277,4.9197998H441.8583984
			c-4.4723816-0.0104065-8.6745911-1.747345-11.8264771-4.9197998c-3.1513977-3.1620483-4.8883362-7.3642578-4.877655-11.8368835
			l0.0827637-53.7749634c0.0106812-8.9450073,7.0107727-16.2780151,15.9560242-16.6734009h118.5439453
			c8.9453125,0.3953857,15.9453735,7.7283936,15.9555664,16.6734009L575.7758179,310.8925476z"/>
		<path class="st4" d="M624.9751587,294.8031616c0,0.4784241-0.0518188,0.9466858-0.145752,1.4042969
			c-0.6445313,3.1620483-3.432251,5.5541687-6.802063,5.5648193h-0.4474487l-41.8654175,0.0624695l-70.8018494,0.1036072h-2.9645081
			l-76.7308044,0.1147766l-43.2595825,0.0624695c-3.8482056,0.0101624-6.9579468-3.0995789-6.9685974-6.9482727
			l-0.0309753-21.4162292c-0.0106812-3.838562,3.0990601-7.3017883,6.9376221-7.312439h236.0792542
			c2.340332-0.0101624,4.4104614,1.1442566,5.6689453,2.9126892c0,0,0.0101929,0.0101318,0.0101929,0.020813
			c0.1873779,0.2600403,0.3433228,0.52005,0.4890747,0.800415c0.104126,0.1874084,0.1975708,0.3849792,0.2808228,0.5932007
			c0.083313,0.1767273,0.1452637,0.3534851,0.208252,0.5510559c0.1036377,0.3331604,0.1767578,0.6658325,0.2285767,1.0091553
			c0.0517578,0.3433228,0.083252,0.6968079,0.083252,1.0609436L624.9751587,294.8031616z"/>
		<path class="st5" d="M624.9745483,294.8016663c0,0.4786987-0.0523071,0.9464417-0.145752,1.4042969
			c-0.6759644,3.1620483-3.5780029,5.5544128-7.083374,5.5645752h-0.1660767l-41.8654785,0.0624695v-35.333374l42.2606201-0.0624695
			c2.340271-0.0104065,4.4099121,1.1442566,5.668396,2.9124146c0,0,0.0106812,0.010437,0.0106812,0.0208435
			c0.1665649,0.2808533,0.3225098,0.5513,0.4575806,0.8009033c0.104126,0.1871643,0.2077637,0.3849792,0.2910156,0.5929565
			c0.083313,0.1767578,0.1564331,0.3534851,0.2183838,0.5513c0.104126,0.3326721,0.187439,0.6655884,0.2397461,1.0089111
			c0.0518188,0.3430786,0.0827637,0.6968079,0.0827637,1.0606995L624.9745483,294.8016663z"/>
		<path class="st2" d="M425.2173157,266.4386597v35.6144714l-43.2595825,0.0624695
			c-3.8482056,0.0101624-6.9579468-3.0995789-6.9685974-6.9482727l-0.0309753-21.4162292
			c-0.0106812-3.838562,3.0990601-7.3017883,6.9376221-7.312439H425.2173157z"/>
	</g>
	<polygon class="st6" points="564.3381348,327.6651917 564.3381348,374.2112427 435.0146179,374.2164612 435.0146179,327.6704102 
		504.3300781,327.5559998 	"/>
	<path class="st7" d="M605.4234619,386.5839233l-47.284729-0.0140381c-2.7996216-0.000824-5.0687256-2.2706299-5.0687256-5.0702515
		v-48.5574951c0-2.9256897,2.3668213-5.2999878,5.2924805-5.3092041l25.2732544-0.0665588l21.7531128,0.0988159v0.1664429
		L605.4234619,386.5839233z"/>
	<path class="st8" d="M442.4875183,388.1193848h-48.2115479v-60.4728699h48.2115479
		c2.9543457,0,5.3493042,2.3949585,5.3493042,5.3493042v49.7742615
		C447.8368225,385.7244263,445.441864,388.1193848,442.4875183,388.1193848z"/>
	<path class="st3" d="M750.9350586,454.6191101l-65.8616943,285.1221008
		c-2.6836548,11.5869751-13.001709,19.7937622-24.8901367,19.7937622H339.7590332
		c-11.8991089,0-22.2176819-8.2067871-24.890625-19.7937622l-65.8612061-285.1221008
		c-2.891861-12.4920349,3.7963867-25.2128906,15.7264709-29.9143066l214.1226501-74.0055542
		c11.8676147-4.680603,24.9109497-5.2631531,37.0700684-1.757782l0.1148071,0.0310059
		c1.7054443,0.4994812,3.3804321,1.0716248,5.0442505,1.7267761l214.1119995,74.0055542
		C747.1279907,429.4062195,753.8157349,442.1270752,750.9350586,454.6191101z"/>
	<path class="st2" d="M586.7805786,734.4364014l-1.2270508,5.3048096c-0.187439,0.7904663-0.3956299,1.5601807-0.6557007,2.309021
		L586.7805786,734.4364014z"/>
	<path class="st1" d="M439.7781067,759.5349731l-34.8653564,0.020813v-0.020813h-65.153717
		c-11.8889465,0-22.2070007-8.2067871-24.890625-19.7937622l-65.8612061-285.1221008
		c-2.8812103-12.4920349,3.8065491-25.2128906,15.7371216-29.9143066l150.1538391-51.8922729l32.6083374-11.2751465
		c-10.2764282,3.7029419-16.995636,13.521759-16.8813782,24.2976685c0,0.8009338,0.0518188,1.5914307,0.1351013,2.4025269
		l0.5718689,5.408905l0.0731201,0.8113403l-8.0925293,2.7770691l-142.1344299,48.8967896
		c-3.9832764,1.5706177-6.2093201,5.814209-5.2524719,9.9747314l6.1991577,26.8563843l0.2183838,0.9362793l3.3179932,14.3226624
		l0.2082214,0.9152222l16.9230347,73.256897l2.4962158,10.8069458l1.1026001,4.795105l2.4337463,10.505249l29.6438904,128.3421631
		c0.9050293,3.9111938,4.3895874,6.6882935,8.4150391,6.6882935h66.5580139l0.2183838,0.9047852l1.2275391,5.3048096
		c0.1868896,0.7800903,0.3849792,1.5393677,0.644989,2.277832c0,0.010376,0.0101624,0.020813,0.0101624,0.031189
		C418.9754028,752.3995361,428.7007751,759.5349731,439.7781067,759.5349731z"/>
	<path class="st2" d="M750.9970093,454.6191101l-65.8612061,285.1221008
		c-2.6835938,11.5869751-13.0016479,19.7937622-24.890625,19.7937622h-64.7169189v0.020813l-34.8653564-0.020813
		c11.0773315,0,20.8026733-7.135437,24.2349243-17.4847412c0.2600708-0.7488403,0.4682617-1.5185547,0.6557007-2.309021
		l1.2270508-5.3048096l0.2183838-0.9047852h66.1217041c4.0249634,0,7.5095215-2.7770996,8.4145508-6.6882935l29.6438599-128.3421631
		l2.4337769-10.505249l1.1026001-4.795105l2.4962158-10.8069458l16.9230347-73.256897l0.2081909-0.9152222l3.3179932-14.3226624
		l0.2183838-0.9362793l6.1991577-26.8563843c0.9568481-4.1605225-1.2686768-8.4041138-5.2524414-9.9747314l-141.5209351-48.6784058
		l-0.3123169-0.1038513l-7.7903442-2.6836243l0.0725708-0.7592773l0.5723877-5.408905
		c0.0828247-0.8110962,0.1351318-1.601593,0.1351318-2.4025269c0.0726318-6.7713013-2.5587158-13.1680298-7.0732422-17.9006958
		c-0.3220215-0.3537292-0.6653442-0.6866455-1.0187988-1.0195618c-1.9558716-1.8928528-4.2230225-3.484314-6.7507324-4.680603
		l23.5696411,8.1026917l6.7085571,2.3194885l0.3123779,0.1040955l149.5296021,51.6842957
		C747.1904907,429.4062195,753.8782349,442.1270752,750.9970093,454.6191101z"/>
	<path class="st1" d="M415.5329895,742.019043c-0.2600098-0.7384644-0.4580994-1.4977417-0.644989-2.277832l-1.2275391-5.3048096
		L415.5329895,742.019043z"/>
	<path class="st4" d="M723.9017334,456.1064148l-6.1992188,26.8563843l-0.2183838,0.9362793l-3.3179321,14.3226624
		l-0.208252,0.9152222l-16.9230347,73.256897l-2.4962158,10.8069458l-1.1026001,4.795105l-2.4337769,10.505249
		l-29.6438599,128.3421631c-0.9050293,3.9111938-4.3895874,6.6882935-8.4144897,6.6882935H346.9876709
		c-4.014801,0-7.509491-2.7770996-8.4145508-6.6882935L308.523468,596.7641602l-1.8827209-8.1442871l-1.6328125-7.0834351
		l-1.9345093-8.3833008l-18.327301-79.3103027l-0.1457825-0.6242065l-3.3697815-14.5827026l-0.145752-0.624176
		l-5.0549011-21.9053345c-0.9568481-4.1605225,1.2793274-8.4041138,5.2524719-9.9747314l207.111908-71.2388611
		c3.7029419-1.4563599,7.592804-2.1948242,11.5765991-2.1948242c3.9736328,0,7.8741455,0.7384644,11.5765686,2.1948242
		l207.1017761,71.2388611C722.6329956,447.702301,724.8585205,451.9458923,723.9017334,456.1064148z"/>
	<path class="st5" d="M723.9017334,456.1064148l-6.1992188,26.8563843l-0.2183838,0.9362793l-3.3179321,14.3226624
		l-0.208252,0.9152222l-16.9230347,73.256897l-2.4962158,10.8069458l-1.1026001,4.795105l-2.4337769,10.505249
		l-29.6438599,128.3421631c-0.9050293,3.9111938-4.3895874,6.6882935-8.4144897,6.6882935h-65.9450073l71.4260254-308.1193542
		l60.2242432,20.7194214C722.6329956,447.702301,724.8585205,451.9458923,723.9017334,456.1064148z"/>
	<path class="st5" d="M723.9017334,456.1064148l-6.1992188,26.8563843l-0.2183838,0.9362793l-3.3179321,14.3226624
		l-0.208252,0.9152222l-16.9230347,73.256897l-2.4962158,10.8069458l-1.1026001,4.795105l-2.4337769,10.505249
		l-29.6438599,128.3421631c-0.3951416,1.7164307-1.2793579,3.2037354-2.4967041,4.3479614
		c-1.5602417,1.4664917-3.6506348,2.340332-5.9076538,2.340332h-65.9551392l34.9277954-150.6741333l3.5262451-15.2171021
		l18.2749634-78.8215027l3.6196899-15.6020203l11.0773315-47.8045959l60.2242432,20.7194214
		C722.6329956,447.702301,724.8585205,451.9458923,723.9017334,456.1064148z"/>
	<path class="st2" d="M276.0234985,456.1064148l6.1991577,26.8563843l0.2183838,0.9362793l3.3179626,14.3226624l0.208252,0.9152222
		l16.9230042,73.256897l2.4962463,10.8069458l1.1026001,4.795105l2.4337463,10.505249l29.6438599,128.3421631
		c0.9050598,3.9111938,4.3896179,6.6882935,8.4145508,6.6882935h65.9449768L341.5002136,425.412262l-60.2242432,20.7194214
		C277.2921753,447.702301,275.0666504,451.9458923,276.0234985,456.1064148z"/>
	<path class="st9" d="M717.7025146,482.9627991l-0.2183838,0.9362793l-3.3179321,14.3226624l-0.208252,0.9152222
		l-16.9230347,73.256897l-2.4962158,10.8069458l-1.1026001,4.795105l-2.4337769,10.505249l-29.6438599,128.3421631
		c-0.9050293,3.9111938-4.3895874,6.6882935-8.4144897,6.6882935H346.9876709c-4.014801,0-7.509491-2.7770996-8.4145508-6.6882935
		L308.523468,596.7641602l-1.8827209-8.1442871l-1.6328125-7.0834351l-1.9345093-8.3833008
		c92.4572754-3.5053711,140.7301331-29.3528442,187.4112854-54.3577271
		c3.9944763-2.1424561,7.9574585-4.2644043,11.9097595-6.3551025l3.4220886-1.8098145h0.020813
		c0.9675293-0.4992371,1.9345093-1.0088806,2.8913574-1.5081482c6.0331116-3.1307983,11.452179-5.8456726,16.5796814-8.2692566
		c28.5727539-13.6152344,65.144104-27.552948,119.5531616-27.646637h0.6033325
		C673.4967651,473.2064514,697.1598511,476.3997192,717.7025146,482.9627991z"/>
	<path class="st10" d="M714.1661987,498.2217407l-0.208252,0.9152222l-16.9230347,73.256897l-2.4962158,10.8069458
		l-1.1026001,4.795105l-2.4337769,10.505249l-29.6438599,128.3421631c-0.9050293,3.9111938-4.3895874,6.6882935-8.4144897,6.6882935
		H346.9876709c-4.014801,0-7.509491-2.7770996-8.4145508-6.6882935L308.523468,596.7641602l-1.8827209-8.1442871
		c102.1831665-4.4310303,153.0248718-35.9575806,203.0448303-62.3873291h0.0106812
		c2.0802612-1.0922241,4.1498718-2.1843872,6.2200012-3.2557373c5.3256226-2.7667236,10.6715088-5.4607544,16.0804443-8.0402832
		c31.2355347-14.8737183,64.9667969-26.0450134,112.8963623-26.1280518
		C673.9437256,488.7668457,696.3482666,492.3656616,714.1661987,498.2217407z"/>
	<path class="st11" d="M697.0349121,572.3938599l-2.4962158,10.8069458l-1.1026001,4.795105l-2.4337769,10.505249
		l-29.6438599,128.3421631c-0.9050293,3.9111938-4.3895874,6.6882935-8.4144897,6.6882935H346.9876709
		c-4.014801,0-7.509491-2.7770996-8.4145508-6.6882935L308.523468,596.7641602l-3.5155334-15.2277222l-20.2618103-87.6936035
		l-0.1457825-0.6242065l-3.3697815-14.5827026l-0.145752-0.624176c15.6330261-3.1513977,33.3676453-4.7636719,52.7452393-4.8052979
		h0.4682617c54.4923401,0,91.2820435,13.9897766,120.0731812,27.6781006
		c3.1828918,1.5185547,6.5008545,3.1409912,10.1514893,4.9716492c2.1325684,1.0817566,4.2336731,2.1531372,6.3449402,3.2349243
		c5.855835,3.0266724,11.7741394,6.1679077,17.4847412,9.2050171
		c49.8848267,26.5133057,101.454834,53.9207153,206.1444092,54.0977173H697.0349121z"/>
	<path class="st9" d="M693.4360962,587.9959106l-2.4337769,10.505249l-25.8474731,111.9082642l-3.7963867,16.4338989
		c-0.9050293,3.9111938-4.3895874,6.6882935-8.4144897,6.6882935H346.9876709c-4.014801,0-7.509491-2.7770996-8.4145508-6.6882935
		l-3.7963867-16.4338989L308.523468,596.7641602l-3.5155334-15.2277222l-20.2618103-87.6936035l-0.1457825-0.6242065
		c13.9377136-2.7770691,30.1639404-4.3684998,49.2606812-4.4101563
		c48.3561401-0.0624695,82.3063049,11.191864,113.8120728,26.1593018c3.2971497,1.5810547,6.5734558,3.1828613,9.8396301,4.826355
		c2.0802612,1.0505981,4.1397095,2.1115112,6.2200012,3.1826782
		C519.005127,551.4870605,573.0195923,587.5901489,693.4360962,587.9959106z"/>
	<path class="st12" d="M717.7127075,482.9627991l-0.2183838,0.9362793l-3.3179932,14.3226624l-0.2077026,0.9152222
		l-16.9230347,73.256897l-2.4962158,10.8069458l-1.1031494,4.795105l-2.4337158,10.505249l-29.6438599,128.3421631
		c-0.4053345,1.7164307-1.2895508,3.2141113-2.506897,4.3479614c-1.5602417,1.4664917-3.6506348,2.340332-5.9076538,2.340332
		h-65.9551392l34.9277954-150.6741333l3.5262451-15.2171021l18.2749634-78.8215027l3.6196899-15.6020203
		c27.210083,0.1351013,50.2697754,3.3283691,70.3548584,9.7459412H717.7127075z"/>
	<path class="st13" d="M714.1763306,498.2217407l-0.2077026,0.9152222l-16.9230347,73.256897l-2.4962158,10.8069458
		l-1.1031494,4.795105l-2.4337158,10.505249l-29.6438599,128.3421631c-0.4053345,1.7164307-1.2895508,3.2141113-2.506897,4.3479614
		c-1.5602417,1.4664917-3.6506348,2.340332-5.9076538,2.340332h-65.9551392l34.9277954-150.6741333l3.5262451-15.2171021
		l18.2749634-78.8215027c0.3951416-0.0104065,0.7800903-0.0104065,1.1752319-0.0104065
		c29.0405273-0.041626,51.4450684,3.5571899,69.2630005,9.413269H714.1763306z"/>
	<path class="st9" d="M697.0455933,572.3938599l-2.4962158,10.8069458l-1.1031494,4.795105l-2.4337158,10.505249
		l-29.6438599,128.3421631c-0.4053345,1.7164307-1.2895508,3.2141113-2.506897,4.3479614
		c-1.5602417,1.4664917-3.6506348,2.340332-5.9076538,2.340332h-65.9551392l34.9277954-150.6741333l3.5262451-15.2171021
		c20.2617798,2.9850464,43.0097046,4.711853,69.0546875,4.753479H697.0455933z"/>
	<path class="st10" d="M693.446228,587.9959106l-2.4337158,10.505249l-25.8469849,111.9082642l-3.796875,16.4338989
		c-0.4053345,1.7164307-1.2895508,3.2141113-2.506897,4.3479614c-1.5602417,1.4664917-3.6506348,2.340332-5.9076538,2.340332
		h-65.9551392l5.3570557-23.1221924l29.5707397-127.5519409c21.0211182,3.1724243,44.6115723,5.0447388,71.5093384,5.1384277
		H693.446228z"/>
	<circle class="st10" cx="364.014801" cy="547.8049316" r="26.3501015"/>
	<circle class="st10" cx="408.9139709" cy="583.6896362" r="13.695118"/>
	<circle class="st10" cx="401.5546265" cy="675.144165" r="13.695118"/>
	<circle class="st10" cx="605.921814" cy="652.0545654" r="26.3501015"/>
	<circle class="st10" cx="558.3584595" cy="619.7842407" r="13.695118"/>
	<circle class="st10" cx="525.4760742" cy="657.3101196" r="7.6276608"/>
	<circle class="st10" cx="371.2180786" cy="687.5412598" r="7.6276608"/>
	<path class="st10" d="M665.1548462,710.4094238l-3.7963867,16.4338989
		c-0.9050293,3.9111938-4.3895874,6.6882935-8.4144897,6.6882935H346.9876709c-4.014801,0-7.509491-2.7770996-8.4145508-6.6882935
		l-3.7963867-16.4338989H665.1548462z"/>
	<path class="st13" d="M665.1655273,710.4094238l-3.796875,16.4338989c-0.4053345,1.7164307-1.2895508,3.2141113-2.506897,4.3479614
		c-1.5602417,1.4664917-3.6506348,2.340332-5.9076538,2.340332h-65.9551392l5.3570557-23.1221924H665.1655273z"/>
	<path class="st14" d="M436.460144,446.7871094c0,6.334259-3.9629822,12.2525635-10.2972412,14.4265442l-77.11203,26.4697571
		c-1.4623413,0.50354-2.3084412,2.0299988-1.9604797,3.5369568l25.2454834,106.4069519
		c1.8933716,8.2068481-3.2245178,16.4029541-11.4414673,18.3065186c-8.21698,1.8930664-16.4131165-3.2245483-18.306488-11.4415283
		l-26.9244995-113.7027283c-2.9055176-12.5845337,4.1601563-25.3315735,16.3720703-29.536499l84.1836548-28.9031982
		c7.9777527-2.7458496,16.6629944,1.4873352,19.4090881,9.4650879
		C436.2001038,443.4584656,436.460144,445.1332092,436.460144,446.7871094z"/>
	<path class="st14" d="M355.6848145,655.2099609l-1.9755249-8.6537476
		c-1.1791992-5.2807617,0.5462952-10.8497925,4.5288391-14.5247803c1.9569397-1.8057861,4.362854-3.0635986,6.962738-3.651062
		c8.1782837-1.8428955,16.3329468,3.3133545,18.1758728,11.4915771l1.9608459,8.652771
		c1.1939087,5.2813721-0.5384827,10.8429565-4.5210266,14.5179443c-1.9569397,1.8057861-4.3628845,3.0635986-6.962738,3.651062
		c-3.959259,0.8936768-8.0311279,0.192627-11.4623108-1.9765625
		C358.9601746,662.5477295,356.5783691,659.1690063,355.6848145,655.2099609z"/>
	<path class="st2" d="M578.7093506,370.5969238l-23.5696411-8.1026917
		c-0.1142578-0.0518188-0.2391968-0.1142883-0.3534546-0.1663513L578.7093506,370.5969238z"/>
	<polygon class="st1" points="447.5065002,361.537384 414.8981628,372.8125305 414.8773193,372.750061 	"/>
	<path class="st2" d="M555.1397095,362.4942322c2.52771,1.1962891,4.7948608,2.7877502,6.7507324,4.680603
		c-1.9868164-1.8616333-4.2854614-3.4218445-6.8441772-4.5869141c-0.6348267-0.2912598-1.2793579-0.5513-1.9451904-0.7904968
		L555.1397095,362.4942322z"/>
	<polygon class="st2" points="585.7302856,373.0101013 585.7302856,373.0205078 585.4179077,372.9164124 578.7093506,370.5969238 	
		"/>
</g>
</svg>
