<?xml version="1.0" encoding="utf-8"?>
<!-- Generator: Adobe Illustrator 22.1.0, SVG Export Plug-In . SVG Version: 6.00 Build 0)  -->
<svg version="1.1" id="Layer_1" xmlns="http://www.w3.org/2000/svg" xmlns:xlink="http://www.w3.org/1999/xlink" x="0px" y="0px"
	 viewBox="0 0 1000 1000" style="enable-background:new 0 0 1000 1000;" xml:space="preserve">
<style type="text/css">
	.st0{fill:#F1F5D7;}
	.st1{fill:#D6EBD4;}
	.st2{fill:#B8E0D5;}
	.st3{fill:#F3F7DE;}
	.st4{fill:#DDEEDB;}
	.st5{fill:#C4E5DC;}
	.st6{fill:#AADCD9;}
	.st7{fill:#9ED3D7;}
	.st8{fill:#FFB957;}
	.st9{fill:#F7914F;}
	.st10{fill:#FFD889;}
	.st11{fill:#F26F51;}
	.st12{fill:#FEC763;}
	.st13{opacity:0.5;fill:#FFFFFF;}
	.st14{fill:#F99D5C;}
</style>
<g>
	<polygon class="st0" points="574.7155762,308.3023987 472.3852844,308.5213318 386.6027222,308.6965332 386.5467834,281.0134888 
		574.6484375,280.6192932 574.6484375,280.7945557 	"/>
	<path class="st1" d="M574.2501831,308.4182434l-90.2305298,0.1890259c-3.9588623,0.0084839-7.1735535-4.1888123-7.180481-9.3753357
		l-0.0419617-8.9260864c-0.006958-5.1873779,3.1974792-9.3997803,7.1569824-9.4082947l90.2304993-0.1889954
		c3.9588623-0.0085144,7.173584,4.1887817,7.180542,9.3753052l0.0419312,8.9260864
		C581.4141235,304.1973267,578.2097168,308.409729,574.2501831,308.4182434z"/>
	<path class="st2" d="M613.4857788,308.5719604h-72.7767944c-3.9473877,0-7.1490479-4.1714478-7.1547852-9.3221436
		l-0.0351563-9.0270691c-0.0057373-5.1552429,3.1919556-9.3407898,7.1428833-9.3493958l72.7936401-0.1295166
		c0,0.953186-0.0153809,8.117981-0.0153809,9.3221741L613.4857788,308.5719604z"/>
	<path class="st3" d="M715.1001587,812.781189H284.9121399c-27.7588501,0-49.1626434-24.4467773-45.5039825-51.9595337
		l54.9582367-412.5324402c3.0320435-22.8022461,22.4890442-39.8312988,45.4924927-39.8312988h318.2914429
		c23.3842163,0,43.031311,17.5884705,45.6156616,40.8269653l56.9498291,412.5326233
		C763.7254639,789.0055542,742.4448853,812.781189,715.1001587,812.781189z"/>
	<path class="st4" d="M714.6748657,812.781189H531.1828613c19.1436768,0,35.3110962-11.6583862,42.2590942-27.9713745
		c2.9760742-6.9927979,4.2629395-14.8359985,3.3565674-22.9923096l-45.7609863-412.5326233
		c-0.503418-4.5312805-1.6558838-8.8500366-3.3677979-12.8556213c-7.0151978-16.5701599-23.4177856-27.971344-42.2478943-27.971344
		h172.3034363c23.3839722,0,43.0310669,17.5884705,45.6157227,40.8269653l56.9495239,412.5326233
		C763.300415,789.0055542,742.0198364,812.781189,714.6748657,812.781189z"/>
	<path class="st5" d="M715.1001587,812.781189H586.9354248c19.1436768,0,35.3110962-11.6583862,42.2590942-27.9713745
		c2.9760742-6.9927979,4.2629395-14.8359985,3.3565674-22.9923096l-45.7612915-412.5326233
		c-0.503418-4.5312805-1.6558838-8.8500366-3.3674927-12.8556213c-7.0151978-16.5701599-23.4177856-27.971344-42.2481689-27.971344
		h116.9761963c23.3842163,0,43.031311,17.5884705,45.6156616,40.8269653l56.9498291,412.5326233
		C763.7254639,789.0055542,742.4448853,812.781189,715.1001587,812.781189z"/>
	<path class="st6" d="M283.6473389,784.8065796c-7.0736694,0-11.4857178-3.8318481-13.4863281-6.1165771
		c-1.9995117-2.284668-5.216217-7.1643677-4.2820129-14.1757813l54.9538574-412.5313721
		c1.1811218-8.8688965,8.8197021-15.5568848,17.7672424-15.5568848l318.2876587-0.0010681
		c9.1474609,0,16.8068237,6.8562317,17.8153076,15.9480286l45.760498,412.5313721
		c0.7680664,6.9283447-2.4650269,11.703186-4.460144,13.9321289c-1.9962158,2.2289429-6.3842163,5.9690552-13.3552246,5.9690552
		L283.6473389,784.8065796z"/>
	<path class="st6" d="M727.1835327,778.8352051c-1.991333,2.2266235-6.3773804,5.9746094-13.3478394,5.9746094H283.6476746
		c-7.082428,0-11.4906311-3.8375854-13.4934387-6.1200562c-1.9913025-2.2825317-5.2137451-7.1605835-4.2738342-14.1757813
		l27.4007263-205.7349854l2.2713013-17.0289307l1.5102844-11.3674316l8.6151428-64.6362l2.4057007-18.0246887l1.5774841-11.8710327
		l1.0964355-8.2460938l1.1300659-8.5143127l1.4209595-10.6403198l7.5186768-56.4685059
		c1.1860352-8.8725586,8.8166809-15.5522156,17.7675171-15.5522156h318.2914734
		c9.1409302,0,16.8051758,6.8475037,17.8120728,15.9436646l56.9497681,412.5325928
		C732.4199829,771.8312988,729.1863403,776.6087036,727.1835327,778.8352051z"/>
	<path class="st7" d="M727.1835327,778.8352051c-1.991333,2.2266235-6.3773804,5.9746094-13.3478394,5.9746094H573.4419556
		c2.9760742-6.9927979,4.2629395-14.8359985,3.3565674-22.9923096l-45.7609863-412.5326233
		c-0.503418-4.5312805-1.6558838-8.8500366-3.3677979-12.8556213h129.2164307
		c9.1409302,0,16.8051758,6.8475037,17.8120728,15.9436646l13.1577148,95.3152161l2.4949951,18.0470886l10.4949951,76.0372314
		l2.3494263,17.0401611l28.4526367,206.0928955C732.4199829,771.8312988,729.1863403,776.6087036,727.1835327,778.8352051z"/>
	<path class="st7" d="M727.3291626,778.8352051c-1.8684082,2.0922241-5.8403931,5.5159912-12.0725098,5.9299927
		c-0.3690186,0.0334473-0.7495117,0.0446167-1.1412354,0.0446167h-140.527832
		c2.9760132-6.9927979,4.2628784-14.8359985,3.3565063-22.9923096l-27.3446655-246.4611206l-2.2155762-20.005127
		l-2.8864746-26.0021362l-1.8798828-16.9841309l-11.4346313-103.0801086
		c-0.503418-4.5312805-1.6558838-8.8500366-3.3677979-12.8556213h129.2164307
		c9.1411743,0,16.8051758,6.8475037,17.8123169,15.9436646l13.1577148,95.2816162l2.4838257,18.0470886l10.5059204,76.0596619
		l2.3497314,17.0401001l28.4523315,206.104126C732.5653076,771.8312988,729.3319092,776.6087036,727.3291626,778.8352051z"/>
	<path class="st5" d="M381.6745911,336.4292603c-8.9508362,0-16.5814819,6.679657-17.7675476,15.5522156l-54.9467468,412.5325012
		c-0.9399109,7.0151978,2.2825012,11.8932495,4.2738342,14.1757813c2.0028076,2.2824707,6.4110107,6.1200562,13.4934387,6.1200562
		h-43.0758667c-7.082428,0-11.4906311-3.8375854-13.4934387-6.1200562
		c-1.9913025-2.2825317-5.2137451-7.1605835-4.2738342-14.1757813l54.9467468-412.5325012
		c1.1860657-8.8725586,8.8167114-15.5522156,17.7675476-15.5522156H381.6745911z"/>
	<path class="st3" d="M662.6184692,262.991394c0.0111694,4.8111267-1.8574829,9.3425598-5.2476196,12.7438965
		c-3.3898926,3.4012451-7.9100952,5.2809753-12.7212524,5.2921753H353.5351563
		c-9.8907776,0-15.6194458-7.6418762-15.641571-17.5437012l-0.0895691-57.8446655
		c-0.0112-4.8111267,1.8571777-9.3312073,5.247345-12.7325592c3.3901672-3.4013672,7.8991699-5.6726685,12.7102966-5.6838684
		h289.6038818c9.6222534,0.4253082,17.1520996,8.3019409,17.1633301,17.924057L662.6184692,262.991394z"/>
	<path class="st5" d="M662.6184692,262.991394c0.0111694,4.8111267-1.8574829,9.3425598-5.2476196,12.7438965
		c-3.3898926,3.4012451-7.9100952,5.2809753-12.7212524,5.2921753H515.5115967
		c4.8111572-0.0112,9.3310547-1.8909302,12.7212524-5.2921753c3.3901367-3.4013367,5.2585449-7.9327698,5.2473145-12.7438965
		l-0.0109253-9.588501l-0.0671997-37.9962311l-0.0111694-10.2599335
		c-0.0112305-9.6221161-7.5410767-17.4987488-17.1633301-17.924057h129.1380005
		c9.6222534,0.4253082,17.1520996,8.3019409,17.1633301,17.924057L662.6184692,262.991394z"/>
	<path class="st4" d="M574.2757568,262.9877014c0.0111694,4.8109741-1.8571777,9.3422546-5.2473755,12.7436218
		c-3.3901367,3.4013367-7.9100952,5.2809448-12.7211914,5.2921448h-68.7223816
		c4.8110962-0.0112,9.3313293-1.8908081,12.7214966-5.2921448c3.3901367-3.4013672,5.2585449-7.9326477,5.247345-12.7436218
		l-0.0895996-57.8448181c-0.0109253-9.6221161-7.540802-17.4989014-17.1630249-17.924057h68.7221069
		c9.6222534,0.4251556,17.1520996,8.3019409,17.1633301,17.924057L574.2757568,262.9877014z"/>
	<path class="st6" d="M634.6807251,245.6827698c0,4.1286469-3.3341675,7.4852142-7.4741211,7.4964142l-121.675354,0.1790466
		h-3.1885681l-129.0710754,0.1901245c-4.1397095,0.0112-7.4850769-3.3341675-7.4962769-7.473877l-0.0335999-23.0372925
		c-0.0112-4.1284943,3.3341675-7.4850616,7.462677-7.4962616l115.7680359-0.1678467l16.5588074-0.0222626l121.6196289-0.1791992
		c2.8864136-0.0112,5.3926392,1.6224213,6.6347046,4.0167847c0.1116943,0.2013092,0.2125244,0.4139709,0.302124,0.6378174
		c0.0892944,0.1901245,0.1564941,0.3802338,0.2236938,0.5928955c0.2125244,0.7048798,0.3356934,1.454422,0.3356934,2.2265015
		L634.6807251,245.6827698z"/>
	<path class="st8" d="M727.3291626,778.8352051c-1.9921265,2.2266235-6.3799438,5.9746094-13.3531494,5.9746094h-430.36026
		c-7.0852661,0-11.4952393-3.8375854-13.4988403-6.1200562c-1.9920959-2.2825317-5.2158508-7.1605835-4.2755127-14.1757813
		l27.4116821-205.7349854l2.2721863-17.0289307c79.1905823-6.9031982,124.4102783-30.9249573,168.1526489-54.1747742
		c4.980835-2.640625,10.0513-5.3369446,15.1663208-7.9998169c3.917572-2.0362549,7.8465881-4.0502625,11.7865601-6.0082397
		c2.5629578-1.2755127,5.0477905-2.4838257,7.4768372-3.6474915c9.6034241-4.5872803,18.2780457-8.3129883,26.8408508-11.5578308
		c9.4692383-3.5914917,18.9048462-6.6123352,28.4413452-9.073761c22.4084473-5.7957153,45.3652954-8.5481873,70.4711914-8.5481873
		h0.5039063c24.0874023,0.0447998,44.9846191,2.3161011,63.6209106,6.9481812l2.4960327,18.0470886l10.4991455,76.0372314
		l2.3504028,17.0401611l28.4640503,206.0928955C732.567688,771.8312988,729.3327637,776.6087036,727.3291626,778.8352051z"/>
	<path class="st9" d="M727.3291626,778.8352051c-1.9921265,2.2266235-6.3799438,5.9746094-13.3531494,5.9746094h-430.36026
		c-7.0852661,0-11.4952393-3.8375854-13.4988403-6.1200562c-1.9920959-2.2825317-5.2158508-7.1605835-4.2755127-14.1757813
		l27.4116821-205.7349854c101.7443848-8.0892944,151.2286682-43.5008545,204.8545532-70.1856384
		c6.3351746-3.1439209,12.7151184-6.1761169,19.2631531-9.0066833c4.432373-1.9468079,8.9320068-3.7929382,13.5324707-5.5384216
		c7.7902832-2.9536438,15.871582-5.6166687,24.3671875-7.8990479c20.0578003-5.3927917,42.4550171-8.6711121,69.0720825-8.6264343
		c27.109436,0.0447998,48.6447754,3.1216431,66.1393433,8.2124634l41.3135986,299.1702881
		C732.567688,771.8312988,729.3327637,776.6087036,727.3291626,778.8352051z"/>
	<path class="st9" d="M731.2342529,771.9095459c-0.1791992,0.5817261-0.3693237,1.1411133-0.5817871,1.6671143
		c-0.1119995,0.2573242-0.2237549,0.5145874-0.3357544,0.7608643c-0.2349243,0.503418-0.4697876,0.9732666-0.7271118,1.40979
		c-0.7498169,1.30896-1.5665894,2.3381958-2.2377319,3.0878906c-1.8798828,2.1034546-5.9075928,5.560791-12.2180786,5.9299927
		c-0.3690186,0.0334473-0.7495117,0.0446167-1.1412354,0.0446167h-140.527832
		c2.9760132-6.9927979,4.2628784-14.8359985,3.3565674-22.9923096l-27.3447266-246.4611206l-2.2155762-20.005127
		l-2.8864746-26.0021362l-1.8798828-16.9841309c3.6253662-1.1076355,7.2616577-2.1370544,10.9088135-3.0768433
		c22.4107056-5.7957153,45.3695679-8.5481873,70.4768677-8.5481873h0.503418
		c24.032959,0.0447998,44.8883057,2.3049011,63.4949341,6.9145813c0.0445557,0.0112,0.078125,0.0223999,0.1229248,0.0335999
		l2.4950562,18.0470886l10.5061646,76.0372314l2.3494263,17.0401611l28.463562,206.0928955
		C732.1069946,767.5571899,731.8157959,769.9067993,731.2342529,771.9095459z"/>
	<path class="st10" d="M727.3396606,778.8352051c-1.9921265,2.2266235-6.3799438,5.9746094-13.3532104,5.9746094h-430.360199
		c-7.0852661,0-11.4952393-3.8375854-13.4988403-6.1200562c-1.9921265-2.2825317-5.2158508-7.1605835-4.2755432-14.1757813
		l27.4116821-205.7349854l2.2722168-17.0289307l1.5108948-11.3674316l8.6185608-64.6362l2.4066772-18.0246887
		c18.6698608-4.65448,39.6231689-6.9369812,63.777771-6.981781h0.5036316c35.8064575,0,67.2365112,5.5942688,98.9240112,17.6219482
		c8.562561,3.2448425,17.2371216,6.9705505,26.8408203,11.5578308c2.4288025,1.1636658,4.9136353,2.3719788,7.4768677,3.6474915
		c3.9399719,1.9579773,7.8799133,3.9831848,11.7862854,6.0194397c5.1152954,2.6516724,10.1854858,5.3479919,15.1553955,7.9886169
		c8.7415161,4.6543274,17.5505371,9.3312073,26.6618042,13.8960876
		c36.5675049,18.3045654,78.2614746,34.7964478,141.7930298,40.3010864l30.8144531,223.1330566
		C732.578186,771.8312988,729.3432617,776.6087036,727.3396606,778.8352051z"/>
	<path class="st8" d="M727.3291626,778.8352051c-1.9916382,2.2266235-6.3774414,5.9746094-13.3479004,5.9746094H283.6140747
		c-7.0821533,0-11.4903564-3.8375854-13.4931641-6.1200562c-1.9915771-2.2825317-5.2140198-7.1605835-4.2740784-14.1757813
		l1.2753601-9.5438843l38.5332642-289.2236633c17.5102234-5.0908203,39.0593567-8.1788635,66.2027283-8.2236633
		c37.8954468-0.0558777,67.2653503,6.5901794,93.4578857,16.5254822c4.5983276,1.7454834,9.0961609,3.5916138,13.5267639,5.5272217
		c6.5566101,2.8417664,12.934021,5.8739624,19.2669067,9.0178833c20.6428223,10.2711182,40.6477661,21.8288269,63.2709351,32.625824
		c36.2398682,17.2975464,79.1477051,32.6369629,141.9490967,37.5934448l25.5435181,184.9689331l0.2012939,1.4321899
		l1.3425903,9.7563477l1.3761597,9.9354248C732.5653076,771.8312988,729.3319092,776.6087036,727.3291626,778.8352051z"/>
	<circle class="st9" cx="415.2445068" cy="531.1150513" r="34.7134056"/>
	<circle class="st9" cx="350.6390076" cy="581.3638306" r="22.2851486"/>
	<circle class="st9" cx="392.0803833" cy="632.0629272" r="12.6425362"/>
	<path class="st11" d="M731.2167358,771.9095459c-0.1791992,0.5817261-0.3693237,1.1411133-0.5818481,1.6671143
		c-0.1119995,0.2573242-0.2236938,0.5145874-0.3356934,0.7608643c-0.2349243,0.503418-0.4698486,0.9732666-0.7271729,1.40979
		c-0.7498169,1.30896-1.5665283,2.3381958-2.2376709,3.0878906c-1.8798828,2.1034546-5.9075928,5.560791-12.2180786,5.9299927
		c-0.3690796,0.0334473-0.7495728,0.0446167-1.1412964,0.0446167h-140.527832
		c2.9760742-6.9927979,4.2629395-14.8359985,3.3565674-22.9923096l-27.3447266-246.4611206l-2.2155762-20.005127
		l-2.8864746-26.0021362c3.5579224-1.1300659,7.1941528-2.2041016,10.9088745-3.1999207
		c20.0609741-5.3927917,42.4603882-8.6711121,69.0780029-8.6264343c27.0426025,0.0447998,48.5357056,3.1104431,66.0011597,8.1788635
		c0.0447998,0.0112,0.0895996,0.0223999,0.1340942,0.0335999l10.5062256,76.0372314l2.3494263,17.0401611l28.463562,206.0928955
		C732.0894775,767.5571899,731.7982788,769.9067993,731.2167358,771.9095459z"/>
	<circle class="st9" cx="511.9957275" cy="643.1987305" r="22.7247658"/>
	<circle class="st9" cx="465.7247314" cy="691.5629883" r="12.8919353"/>
	<path class="st12" d="M731.1903687,771.9095459c-0.1679688,0.5817261-0.3692627,1.1411133-0.5817871,1.6671143
		c-0.1119995,0.2573242-0.2237549,0.5145874-0.3357544,0.7608643c-0.2236938,0.503418-0.4697876,0.9732666-0.7271118,1.40979
		c-0.7498169,1.30896-1.5665894,2.3381958-2.2377319,3.0878906c-1.8798828,2.1034546-5.9075928,5.560791-12.2180786,5.9299927
		c-0.3690186,0.0334473-0.7495117,0.0446167-1.1412354,0.0446167h-140.527832
		c2.9760742-6.9927979,4.2628784-14.8359985,3.3565674-22.9923096l-27.3447266-246.4611206l-2.2155762-20.005127
		c3.9383545,2.0476074,7.9103394,4.0950623,11.9495239,6.1201172c36.541687,18.293335,78.1965942,34.7740479,141.6578979,40.289917
		c0.0447998,0,0.0895996,0.0111694,0.1343994,0.0111694h0.0112305l30.8132324,223.1330566
		C732.0740356,767.5571899,731.7833862,769.9067993,731.1903687,771.9095459z"/>
	<circle class="st9" cx="569.7216187" cy="693.8826294" r="35.3981934"/>
	<path class="st9" d="M731.9053345,766.9978027c0,0.3580933-0.0111694,0.7160645-0.0335693,1.0516357
		c-0.0112305,0.302124-0.0447998,0.5930176-0.0784302,0.8727417c-0.0335693,0.4363403-0.1005249,0.8615112-0.178894,1.2642822
		c-0.0560303,0.2797241-0.1119995,0.5594482-0.1679688,0.8167725c-0.078125,0.3132935-0.1565552,0.6154175-0.2349243,0.906311
		c-0.4362793,1.4544678-1.0180664,2.7411499-1.6447144,3.8377686c-0.1231689,0.2124634-0.2460938,0.4249878-0.3804932,0.6264648
		c-0.1564941,0.2573242-0.3245239,0.503418-0.4922485,0.7384644c-0.1901245,0.2685547-0.3693237,0.5258179-0.5593872,0.7607422
		c-0.2797241,0.3581543-0.5482788,0.6824951-0.805542,0.9622192c-0.5818481,0.6600952-1.3762207,1.4433594-2.3942261,2.2266235
		c-0.2015991,0.1565552-0.4141235,0.3244019-0.6378784,0.4698486c-0.2124634,0.1566772-0.4476929,0.3132935-0.6826172,0.4698486
		c-0.2348633,0.1455688-0.4810181,0.302063-0.7383423,0.4476929c-0.2572632,0.1453247-0.5145874,0.2908936-0.7831421,0.4250488
		c-0.2684937,0.1455688-0.5482178,0.2796631-0.8391113,0.4028931c-0.2908936,0.1340942-0.5818481,0.2573242-0.8951416,0.3691406
		c-0.604248,0.2349243-1.2529907,0.4364014-1.9356079,0.6152954c-0.6826172,0.1678467-1.3985596,0.302124-2.1483765,0.4029541
		c-0.0220947,0.0111694-0.0444946,0.0111694-0.078125,0.0111694c-0.3469238,0.0334473-0.7161865,0.0670776-1.0852661,0.0894775
		c-0.0671997,0.0111694-0.1343994,0.0222168-0.2012939,0.0111694c-0.302124,0.0222778-0.604248,0.0334473-0.9175415,0.0334473
		H573.4419556c2.9760742-6.9927979,4.2629395-14.8359985,3.3565674-22.9923096l-2.0028076-18.0359497l-25.3419189-228.4251709
		c3.9047852,1.9691772,7.87677,3.9271851,11.9268799,5.862793c36.2062378,17.286377,79.0917358,32.614563,141.8146973,37.5822144
		c0.0447998,0,0.0895996,0.0112305,0.1343994,0.0112305l25.5435181,184.9689331l0.2012939,1.4321899l2.71875,19.6917725
		C731.8717651,765.621582,731.9053345,766.326355,731.9053345,766.9978027z"/>
	<path class="st13" d="M362.1455688,372.8682556h0.0000305c8.9808044,1.2621765,15.2380066,9.5657349,13.9758301,18.5465393
		L345.1610413,611.710022c-1.2621765,8.980835-9.5657654,15.2379761-18.5465698,13.9758301h-0.0000305
		c-8.9808044-1.262146-15.2380066-9.5657349-13.9758301-18.5465698l30.9603882-220.2951965
		C344.8611755,377.8632813,353.1647644,371.6060791,362.1455688,372.8682556z"/>
	<path class="st13" d="M338.2768555,660.5565186l-5.9421082,42.3071899
		c-1.2644958,8.9749146-9.5647583,15.230835-18.5508728,13.9661255c-8.3051758-1.163147-14.2784119-8.3621216-14.1356506-16.5397949
		c0.0054626-0.3131104,0.0221252-0.6261597,0.0499878-0.9390259l0.0009766-0.0558472l5.9789429-42.5081787
		c1.2649536-8.986145,9.5652161-15.2420044,18.5513306-13.977356
		C332.9364929,644.0360107,339.088501,651.887085,338.2768555,660.5565186z"/>
	<path class="st7" d="M634.6807251,245.6827698c0,4.1286469-3.3341675,7.4852142-7.4741211,7.4964142l-121.7404175,0.1790466
		v-38.0074158l121.6846924-0.1791992c2.8864136-0.0112,5.3926392,1.6224213,6.6347046,4.0167847
		c0.1116943,0.2013092,0.2125244,0.4139709,0.302124,0.6378174c0.0892944,0.1901245,0.1564941,0.3802338,0.2236938,0.5928955
		c0.2125244,0.7048798,0.3356934,1.454422,0.3356934,2.2265015L634.6807251,245.6827698z"/>
	<path class="st9" d="M727.3598633,778.8352051c-1.9915771,2.2266235-6.3774414,5.9746094-13.3478394,5.9746094h-430.367218
		c-7.0821533,0-11.490387-3.8375854-13.4931641-6.1200562c-1.9916077-2.2825317-5.2140503-7.1605835-4.2741089-14.1757813
		l1.2753601-9.5438843H730.447876l1.3762207,9.9354248C732.5960083,771.8312988,729.3626709,776.6087036,727.3598633,778.8352051z"
		/>
	<path class="st14" d="M576.5524292,759.3895264l-0.503418-4.3634033
		C576.093811,755.3392944,576.3510742,756.9616699,576.5524292,759.3895264z"/>
	<path class="st11" d="M727.3627319,778.8352051c-1.9915771,2.2266235-6.3773804,5.9746094-13.3478394,5.9746094H573.5427856
		c3.7703857-8.3129883,3.524231-19.3560791,3.0096436-25.3978882c0-0.0112305,0-0.0223999,0-0.0223999
		c-0.201355-2.4278564-0.4586182-4.0502319-0.503418-4.3634033c-0.0112305-0.0336304-0.0112305-0.0560303-0.0112305-0.0560303
		h154.4130249l1.3761597,9.9354248C732.598877,771.8312988,729.3655396,776.6087036,727.3627319,778.8352051z"/>
</g>
</svg>
