<?xml version="1.0" encoding="utf-8"?>
<!-- Generator: Adobe Illustrator 22.1.0, SVG Export Plug-In . SVG Version: 6.00 Build 0)  -->
<svg version="1.1" id="Layer_1" xmlns="http://www.w3.org/2000/svg" xmlns:xlink="http://www.w3.org/1999/xlink" x="0px" y="0px"
	 viewBox="0 0 1000 1000" style="enable-background:new 0 0 1000 1000;" xml:space="preserve">
<style type="text/css">
	.st0{fill:#C4E5DC;}
	.st1{fill:#DDEEDB;}
	.st2{fill:#F3F7DE;}
	.st3{fill:#9ED3D7;}
	.st4{fill:#AADCD9;}
	.st5{fill:#F1F5D7;}
	.st6{fill:#D6EBD4;}
	.st7{fill:#B8E0D5;}
	.st8{fill:#EA5C7A;}
	.st9{fill:#D64165;}
	.st10{fill:#F96783;}
	.st11{fill:#C1305A;}
	.st12{opacity:0.3;fill:#FFFFFF;}
</style>
<g>
	<path class="st0" d="M761.4750366,486.225647v135.7202148c0,12.5898438-4.9100342,24.4199219-13.8199463,33.3100586
		l-78.2700195,78.2897949c-8.8901367,8.880127-20.7199707,13.7800293-33.2900391,13.7800293H363.9050903
		c-12.5600586,0-24.380127-4.8898926-33.2800293-13.7600098l-78.3200684-78.329834
		c-8.8898926-8.8901367-13.7800293-20.7099609-13.7800293-33.2900391V486.225647
		c0-12.5998535,4.9000244-24.4199219,13.8000488-33.2998047l78.2800293-78.3000488
		c8.9499512-8.9001465,20.7600098-13.7800293,33.3000488-13.7800293h272.1899414c12.3699951,0,24.5,5.0100098,33.2600098,13.7600098
		l78.3299561,78.3400879C756.5549927,461.7857056,761.4750366,473.6157837,761.4750366,486.225647z"/>
	<path class="st1" d="M667.1350708,486.225647v135.7202148c0,12.5898438-4.9001465,24.4199219-13.8100586,33.3100586
		l-78.2800293,78.2897949c-8.8898926,8.880127-20.7099609,13.7800293-33.2900391,13.7800293H363.9050903
		c-12.5600586,0-24.380127-4.8898926-33.2800293-13.7600098l-78.3200684-78.329834
		c-8.8898926-8.8901367-13.7800293-20.7099609-13.7800293-33.2900391V486.225647
		c0-12.5998535,4.9000244-24.4199219,13.8000488-33.2998047l78.2800293-78.3000488
		c8.9499512-8.9001465,20.7600098-13.7800293,33.3000488-13.7800293h177.8498535c12.380127,0,24.5,5.0100098,33.2700195,13.7600098
		l78.3200684,78.3400879C662.2250366,461.7857056,667.1350708,473.6157837,667.1350708,486.225647z"/>
	<path class="st2" d="M621.2399902,486.225647v135.7202148c0,12.5898438-4.8999023,24.4199219-13.8100586,33.3100586
		l-78.2799072,78.2897949c-8.8900146,8.880127-20.7101135,13.7800293-33.2900696,13.7800293H363.9050903
		c-12.5600586,0-24.380127-4.8898926-33.2800293-13.7600098l-78.3200684-78.329834
		c-8.8898926-8.8901367-13.7800293-20.7099609-13.7800293-33.2900391V486.225647
		c0-12.5998535,4.9000244-24.4199219,13.8000488-33.2998047l78.2800293-78.3000488
		c8.9499512-8.9001465,20.7600098-13.7800293,33.3000488-13.7800293h131.9548645
		c12.3800049,0,24.5000305,5.0100098,33.27005,13.7600098l78.3199463,78.3400879
		C616.3300781,461.7857056,621.2399902,473.6157837,621.2399902,486.225647z"/>
	<path class="st3" d="M736.4750366,486.2559204v135.7099609c0,5.8598633-2.3299561,11.4799805-6.4700928,15.6098633
		l-78.3099365,78.3100586c-4.1300049,4.1401367-9.75,6.4699707-15.5999756,6.4699707H363.9050903
		c-5.8601074,0-11.4801025-2.329834-15.6201172-6.4699707l-78.3000488-78.3100586
		c-4.1398926-4.1298828-6.4699707-9.75-6.4699707-15.6098633V486.2559204c0-0.3601074,0.0100098-0.7299805,0.0300293-1.0900879
		c0.1800537-3.7600098,1.3300781-7.380127,3.2900391-10.5500488c0.8800049-1.4299316,1.9399414-2.7700195,3.1499023-3.9699707
		l78.3000488-78.3100586c4.1400146-4.1398926,9.7600098-6.4699707,15.6201172-6.4699707h272.1899414
		c5.8499756,0,11.4699707,2.3300781,15.5999756,6.4699707l78.3099365,78.3100586
		c1.1101074,1.1101074,2.0900879,2.3200684,2.9200439,3.619873c2.0400391,3.1401367,3.2600098,6.7700195,3.5,10.5500488
		C736.4550171,485.2857056,736.4750366,485.7759399,736.4750366,486.2559204z"/>
	<path class="st0" d="M626.8250122,486.250885v135.7197571c0,5.8565063-2.3269653,11.4707642-6.4619751,15.605835
		l-78.31427,78.314209c-4.1349487,4.1350708-9.7492065,6.4620361-15.6057129,6.4620361H363.9006348
		c-5.8565063,0-11.4707336-2.3269653-15.6144409-6.4620361l-78.305603-78.314209
		c-4.1349182-4.1350708-6.4619751-9.7493286-6.4619751-15.605835V486.250885c0-5.8565063,2.3270569-11.4707336,6.4619751-15.6057739
		l78.305603-78.31427c4.1437073-4.1350098,9.7579346-6.4619751,15.6144409-6.4619751h162.5424194
		c5.8565063,0,11.4707642,2.3269653,15.6057129,6.4619751l78.31427,78.31427
		C624.4980469,474.7801514,626.8250122,480.3943787,626.8250122,486.250885z"/>
	<path class="st4" d="M631.6333008,486.2504883V621.970459c0,4.7600098-1.539978,9.3601074-4.3299561,13.130127
		c-0.4400024,0.579834-86.9100342,87.25-86.9100342,87.25h-80.9825439l-84.7800293-84.7700195
		c-0.7799683-0.7802734-1.4899902-1.6000977-2.1299438-2.4799805c-0.4300537-0.5800781-0.8300171-1.1801758-1.2000122-1.800293
		c-0.1900024-0.2998047-0.3699951-0.619873-0.5300293-0.9299316c-0.3399658-0.6398926-0.6499634-1.2897949-0.9199829-1.9499512
		c-1.0999756-2.6599121-1.6799927-5.5200195-1.6799927-8.4499512V486.2504883c0-2.9301758,0.5800171-5.7900391,1.6799927-8.4501953
		c0.2700195-0.6599121,0.5800171-1.3098145,0.9199829-1.949707c0.1600342-0.3100586,0.3400269-0.630127,0.5300293-0.9301758
		c0.3699951-0.6201172,0.7699585-1.2199707,1.2000122-1.8000488c0.6399536-0.8798828,86.9099731-87.25,86.9099731-87.25h80.9825439
		c0,0,86.4700317,86.670166,86.9100342,87.25C630.0933228,476.8903809,631.6333008,481.4904785,631.6333008,486.2504883z"/>
	<path class="st4" d="M372.5007935,635.1005859c-0.4400024-0.5800781-0.8400269-1.1801758-1.2000122-1.800293
		C371.6707764,633.9204102,372.0707397,634.5205078,372.5007935,635.1005859z"/>
	<path class="st4" d="M372.5007935,473.1203613c-0.4300537,0.5800781-0.8300171,1.1799316-1.2000122,1.8000488
		C371.6607666,474.300293,372.060791,473.7004395,372.5007935,473.1203613z"/>
	<path class="st4" d="M626.1207886,636.7905273c-0.2400513,0.2700195-0.4900513,0.5297852-0.75,0.7900391l-78.3099976,78.3098145
		l78.2999878-78.3098145C625.6207886,637.3203125,625.8707886,637.0605469,626.1207886,636.7905273z"/>
	<path class="st4" d="M626.1207886,471.4304199c-0.25-0.2700195-0.5-0.5300293-0.7600098-0.7900391h0.0100098
		C625.6307373,470.9003906,625.8807373,471.1604004,626.1207886,471.4304199z"/>
	<g>
		<path class="st5" d="M583.7607422,360.6936035v0.1699219H395.6307373l-0.0499878-24.3898926c0,0,42.4299927,0,87,0
			c0,0,51.8500366,0,101.1199951,0L583.7607422,360.6936035z"/>
		<path class="st6" d="M583.7607422,360.6936035v0.1699219h-95.3143311c-3.2138367,0-5.8210144-2.6018372-5.8276062-5.8156433
			l-0.0260925-12.7347107c-0.0066223-3.2231445,2.6044312-5.8395386,5.8275757-5.8395386h89.4672852
			c3.2128296,0,5.8195801,2.6003113,5.8275757,5.8131714L583.7607422,360.6936035z"/>
		<path class="st7" d="M603.7607422,360.8635254h-65.3800049c-0.3099976,0-0.6199951-0.0200195-0.9099731-0.079834
			c-2.7800293-0.4301758-4.9099731-2.8300781-4.9099731-5.7402344l-0.0200195-6.4099121v-4.1699219l-0.0100098-2.1501465
			c-0.0100098-2.6499023,1.7600098-4.8898926,4.1900024-5.5998535l10.0100098-0.0100098
			c0.5100098-0.1499023-8.9400024-0.2299805-8.3699951-0.2299805h65.3399658L603.7607422,360.8635254z"/>
		<g>
			<path class="st2" d="M645.085022,320.3986206c0.0100098,4.2998047-1.6600342,8.3498535-4.6899414,11.3898926
				c-3.0300293,3.0400391-7.0700684,4.7199707-11.3701172,4.7299805H368.835022
				c-8.8400879,0-13.9599609-6.8300781-13.9799805-15.6799316l-0.0800781-51.7001953
				c-0.0100098-4.2998047,1.6600342-8.3398438,4.6900635-11.3798828c3.0299072-3.0400543,7.0599365-5.0700836,11.3599854-5.0800934
				h258.8400879c8.5998535,0.380127,15.329834,7.4199371,15.3398438,16.0200348L645.085022,320.3986206z"/>
			<path class="st0" d="M645.085022,320.3986206c0.0100098,4.2998047-1.6600342,8.3498535-4.6899414,11.3898926
				c-3.0300293,3.0400391-7.0700684,4.7199707-11.3701172,4.7299805H513.6050415
				c0.3100586,0,0.6199951-0.0100098,0.9299316-0.0300293h0.0400391c0.3100586-0.0200195,0.6099854-0.0400391,0.9099121-0.0898438
				c0.0100098,0.0097656,0.0300293,0.0097656,0.0400391,0c3.5700684-0.4301758,6.880127-2.0302734,9.4500732-4.6101074
				c3.0299072-3.0400391,4.6999512-7.0900879,4.6900635-11.3898926l-0.0100098-8.5700684v-0.0800781l-0.0600586-33.880127
				v-0.0898438l-0.0100098-9.0800781c-0.0100098-8.6000977-6.7399902-15.6399078-15.3400879-16.0200348h115.420166
				c8.5998535,0.380127,15.329834,7.4199371,15.3398438,16.0200348L645.085022,320.3986206z"/>
			<path class="st1" d="M566.1235962,320.3943481c0.0100098,4.2999268-1.6599121,8.3498535-4.6899414,11.3898926
				s-7.0698242,4.7199707-11.369873,4.7299805h-61.4221191c4.3000488-0.0100098,8.3400879-1.6899414,11.3701172-4.7299805
				s4.6999512-7.0899658,4.6899414-11.3898926l-0.0800781-51.7000732
				c-0.0097656-8.5999756-6.7397461-15.6400146-15.3398438-16.0200195h61.421875
				c8.6000977,0.3800049,15.3300781,7.4200439,15.3400879,16.0200195L566.1235962,320.3943481z"/>
			<path class="st4" d="M620.1118774,304.9277039c0,3.6900635-2.9799805,6.6900635-6.6801758,6.7000732l-108.75,0.1600342
				h-2.8498535l-115.3601074,0.1699219c-3.6999512,0.0100098-6.6899414-2.9799805-6.6999512-6.6799316l-0.0300293-20.5900879
				c-0.0100098-3.6899414,2.9799805-6.6899414,6.6699219-6.6999512l103.4702148-0.1500244l14.7998047-0.0198975
				l108.7001953-0.1601563c2.579834-0.0100098,4.8198242,1.4500732,5.9299316,3.5900879
				c0.0998535,0.1799316,0.1899414,0.3699951,0.2700195,0.5700684c0.079834,0.1699219,0.1398926,0.3398438,0.1999512,0.5299072
				c0.1899414,0.6300049,0.3000488,1.2999268,0.3000488,1.9899902L620.1118774,304.9277039z"/>
			<path class="st3" d="M620.1118774,304.9277039c0,3.6900635-2.9799805,6.6900635-6.6801758,6.7000732l-108.8081665,0.1600342
				v-33.9699707l108.7583618-0.1601563c2.579834-0.0100098,4.8198242,1.4500732,5.9299316,3.5900879
				c0.0998535,0.1799316,0.1899414,0.3699951,0.2700195,0.5700684c0.079834,0.1699219,0.1398926,0.3398438,0.1999512,0.5299072
				c0.1899414,0.6300049,0.3000488,1.2999268,0.3000488,1.9899902L620.1118774,304.9277039z"/>
		</g>
	</g>
	<path class="st8" d="M736.4750366,486.2559204v135.7099609c0,5.8598633-2.3299561,11.4799805-6.4700928,15.6098633
		l-78.3099365,78.3100586c-4.1300049,4.1401367-9.75,6.4699707-15.5999756,6.4699707H363.9050903
		c-5.8601074,0-11.4801025-2.329834-15.6201172-6.4699707l-78.3000488-78.3100586
		c-4.1398926-4.1298828-6.4699707-9.75-6.4699707-15.6098633v-54.880127
		c90.2199707-7.9199219,145.0300293-27.5100098,198.0400391-46.4599609
		c11.4000244-4.0800781,23.1799316-8.2900391,34.9000244-12.2099609l2.3199463-0.7800293h0.0200195
		c0.8200684-0.2700195,1.6300049-0.5400391,2.4300537-0.8000488c7.6800537-2.5200195,14.4200439-4.619873,20.9000244-6.5
		c6-1.7800293,12.119873-3.4599609,18.1098633-4.9899902c11-2.8100586,21.7200928-5.1499023,32.7800293-7.1599121
		c29.0800781-5.25,59.1501465-7.8000488,91.9699707-7.8000488h0.7301025
		c26.039917,0.0300293,49.8199463,1.5100098,70.7099609,4.4299316
		C736.4550171,485.2857056,736.4750366,485.7759399,736.4750366,486.2559204z"/>
	<path class="st9" d="M736.4750366,499.9658813v122c0,5.8598633-2.3299561,11.4799805-6.4700928,15.6098633l-78.3099365,78.3100586
		c-4.1300049,4.1401367-9.75,6.4699707-15.5999756,6.4699707H363.9050903c-5.8601074,0-11.4801025-2.329834-15.6201172-6.4699707
		l-78.3000488-78.3100586c-4.1398926-4.1298828-6.4699707-9.75-6.4699707-15.6098633V582.145813
		c113.2299805-9.7600098,173.1600342-37.9001465,237.7000732-59.5100098h0.0100098
		c8.2598877-2.7600098,16.5599365-5.4199219,25.0899658-7.8999023c5.7800293-1.7099609,11.6400146-3.3300781,17.6300049-4.8601074
		c10.1500244-2.5900879,20.6800537-4.9199219,31.75-6.9299316c26.1400146-4.7202148,55.3199463-7.6000977,90-7.5600586
		C693.4550171,495.4158325,716.7250366,497.0957642,736.4750366,499.9658813z"/>
	<path class="st10" d="M736.4750366,566.8757935v55.0900879c0,5.8598633-2.3299561,11.4799805-6.4700928,15.6098633
		l-78.3099365,78.3100586c-4.1300049,4.1401367-9.75,6.4699707-15.5999756,6.4699707H363.9050903
		c-5.8601074,0-11.4801025-2.329834-15.6201172-6.4699707l-78.3000488-78.3100586
		c-4.1398926-4.1298828-6.4699707-9.75-6.4699707-15.6098633V486.2559204c0-0.3601074,0.0100098-0.7299805,0.0300293-1.0900879
		c21.4899902-3.1501465,46.0900879-4.75,73.1600342-4.7800293h0.6500244c45.1899414,0,84.8599854,4.75,124.8499756,14.9599609
		c5.9200439,1.5100098,12.0200195,3.1899414,18.1500244,4.9899902c6.4299316,1.880127,13.1699219,3.9699707,20.8699951,6.5
		c0.7999268,0.2600098,1.5999756,0.5300293,2.4200439,0.8000488h0.0100098l2.329834,0.7800293
		c11.75,3.9299316,23.5700684,8.1599121,34.9901123,12.2399902c15.1199951,5.4099121,30.75,11,47.2698975,16.3100586
		C621.5349731,547.6558228,668.4249878,560.6958618,736.4750366,566.8757935z"/>
	<path class="st8" d="M736.4750366,581.9358521v40.0300293c0,5.8598633-2.3299561,11.4799805-6.4700928,15.6098633
		l-78.3099365,78.3100586c-4.1300049,4.1401367-9.75,6.4699707-15.5999756,6.4699707H363.9050903
		c-5.8601074,0-11.4801025-2.329834-15.6201172-6.4699707l-10.3299561-10.3300781l-67.9700928-67.9799805
		c-4.1398926-4.1298828-6.4699707-9.75-6.4699707-15.6098633v-121.630127
		c20.2700195-3.0998535,44.3100586-4.9199219,73.210083-4.9499512
		c49.3800049-0.0500488,87.6400146,5.7800293,121.7698975,14.4899902
		c5.9899902,1.5300293,11.8500977,3.1501465,17.6201172,4.8498535c8.5500488,2.4902344,16.8399658,5.1501465,25.0999756,7.9101563
		h0.0100098c26.8900146,9,52.9599609,19.1401367,82.4300537,28.6098633
		C624.4249878,564.3357544,671.6651001,576.1558228,736.4750366,581.9358521z"/>
	<path class="st9" d="M736.4849243,486.2559204v135.7099609c0,5.8598633-2.329834,11.4799805-6.4699707,15.6098633
		l-78.3099365,78.3100586c-4.1300049,4.1401367-9.75,6.4699707-15.5999756,6.4699707H531.2349243
		c5.8601074,0,11.4700928-2.329834,15.6101074-6.4699707l78.3100586-78.3100586
		c4.1298828-4.1298828,6.4599609-9.75,6.4599609-15.6098633V486.2559204c0-1.6601563-0.1900635-3.3100586-0.5600586-4.9001465
		c11.0200195-0.6499023,22.3100586-0.9699707,33.9399414-0.9699707h0.7301025
		c26.039917,0.0300293,49.8199463,1.5100098,70.7099609,4.4299316
		C736.4650269,485.2857056,736.4849243,485.7759399,736.4849243,486.2559204z"/>
	<path class="st11" d="M736.4849243,499.9658813v122c0,5.8598633-2.329834,11.4799805-6.4699707,15.6098633l-78.3099365,78.3100586
		c-4.1300049,4.1401367-9.75,6.4699707-15.5999756,6.4699707H531.2349243c5.8601074,0,11.4700928-2.329834,15.6101074-6.4699707
		l78.3100586-78.3100586c4.1298828-4.1298828,6.4599609-9.75,6.4599609-15.6098633V496.3457642
		c10.7700195-0.6398926,22.0999756-0.9699707,34.0899658-0.9599609
		C693.4650269,495.4158325,716.7349243,497.0957642,736.4849243,499.9658813z"/>
	<path class="st8" d="M736.4849243,566.8757935v55.0900879c0,5.8598633-2.329834,11.4799805-6.4699707,15.6098633
		l-78.3099365,78.3100586c-4.1300049,4.1401367-9.75,6.4699707-15.5999756,6.4699707H531.2349243
		c5.8601074,0,11.4700928-2.329834,15.6101074-6.4699707l78.3100586-78.3100586
		c4.1298828-4.1298828,6.4599609-9.75,6.4599609-15.6098633v-72.5300293
		C659.4949341,556.4358521,693.835022,563.0059204,736.4849243,566.8757935z"/>
	<path class="st9" d="M736.4849243,581.9358521v40.0300293c0,5.8598633-2.329834,11.4799805-6.4699707,15.6098633
		l-78.3099365,78.3100586c-4.1300049,4.1401367-9.75,6.4699707-15.5999756,6.4699707H531.2349243
		c5.8601074,0,11.4700928-2.329834,15.6101074-6.4699707l10.3299561-10.3300781l67.9801025-67.9799805
		c4.1298828-4.1298828,6.4599609-9.75,6.4599609-15.6098633v-57.0900879
		C661.3950806,572.1858521,695.4151001,578.2759399,736.4849243,581.9358521z"/>
	<path class="st12" d="M335.0109253,643.5742188c0,3.1201172-1.2199707,6.0600586-3.4300537,8.2700195
		c-2.1999512,2.2001953-5.1298828,3.4101563-8.25,3.4101563c-3.1098633,0-6.039917-1.2099609-8.25-3.4199219l-27.4599609-27.4599609
		c-2.1099854-2.1103516-3.3199463-4.9199219-3.4099121-7.9101563v-85.0800781
		c0-6.449707,5.2399902-11.6899414,11.6699219-11.6899414c3.1201172,0,6.0500488,1.2202148,8.25,3.4199219
		c2.2099609,2.2099609,3.4300537,5.1401367,3.4300537,8.2700195v79.9101563l24.0198975,24.0297852
		C333.7909546,637.5244141,335.0109253,640.4545898,335.0109253,643.5742188z"/>
	<path class="st12" d="M367.0908813,675.6542969c0,3.1298828-1.2099609,6.0698242-3.4199219,8.2700195
		s-5.1400146,3.4101563-8.25,3.4101563s-6.0500488-1.2099609-8.2600098-3.4101563l-8.2600098-8.2700195
		c-4.5500488-4.5498047-4.5500488-11.9599609-0.0100098-16.5200195c2.2199707-2.199707,5.1500244-3.4199219,8.2600098-3.4199219
		c3.1199951,0,6.0500488,1.2202148,8.2600098,3.4199219l8.2600098,8.2700195
		C365.8809204,669.6044922,367.0908813,672.5341797,367.0908813,675.6542969z"/>
	<path class="st9" d="M662.0249634,705.5557251l-10.3299561,10.3300781c-4.1300049,4.1401367-9.75,6.4699707-15.5999756,6.4699707
		H363.9050903c-5.8601074,0-11.4801025-2.329834-15.6201172-6.4699707l-10.3299561-10.3300781H662.0249634z"/>
	<path class="st11" d="M662.0307617,705.5605469l-10.3300171,10.329834c-4.1300049,4.1401367-9.75,6.4699707-15.5999756,6.4699707
		h-95.75l16.8200073-16.7998047H662.0307617z"/>
	<circle class="st9" cx="551.8250122" cy="638.8858032" r="25"/>
	<circle class="st9" cx="582.0750122" cy="592.1358032" r="12.25"/>
	<circle class="st9" cx="529.5750122" cy="592.3024902" r="7.75"/>
	<circle class="st9" cx="349.5569458" cy="555.4455566" r="25"/>
	<circle class="st9" cx="361.2242126" cy="609.8927612" r="12.25"/>
	<circle class="st9" cx="398.2294617" cy="572.6518555" r="7.75"/>
	<circle class="st9" cx="437.385498" cy="672.0645142" r="13.0097713"/>
	<circle class="st9" cx="465.0362244" cy="682.62323" r="6.7401896"/>
</g>
</svg>
