<?xml version="1.0" encoding="utf-8"?>
<!-- Generator: Adobe Illustrator 22.1.0, SVG Export Plug-In . SVG Version: 6.00 Build 0)  -->
<svg version="1.1" id="Layer_1" xmlns="http://www.w3.org/2000/svg" xmlns:xlink="http://www.w3.org/1999/xlink" x="0px" y="0px"
	 viewBox="0 0 1000 1000" style="enable-background:new 0 0 1000 1000;" xml:space="preserve">
<style type="text/css">
	.st0{fill:#C4E5DC;}
	.st1{fill:#DDEEDB;}
	.st2{fill:#F3F7DE;}
	.st3{fill:#AADCD9;}
	.st4{fill:#9ED3D7;}
	.st5{opacity:0.2;fill:#FFFFFF;}
	.st6{fill:#2D2D2D;}
	.st7{fill:#1E1E1E;}
	.st8{fill:#373737;}
	.st9{fill:#141414;}
	.st10{fill:#F1F5D7;}
	.st11{fill:#D6EBD4;}
	.st12{fill:#B8E0D5;}
	.st13{opacity:0.25;fill:#FFFFFF;}
</style>
<g>
	<path class="st0" d="M723.2730713,476.8681946l-95.2007446,328.5596008
		c-4.7046509,16.213501-19.7671509,27.5305176-36.6470947,27.5305176H408.574646
		c-16.8794556,0-31.941925-11.3170166-36.6466064-27.5305176l-95.2012329-328.5596008
		c-3.6039429-12.4577637-1.9077148-26.0162354,4.6642456-37.2019348l69.6695862-118.5922852
		c7.4203186-12.6295471,21.1400146-20.4838867,35.7883911-20.4838867h226.3018494
		c14.6483765,0,28.3685303,7.8442383,35.7888794,20.4838867l69.6690674,118.5922852
		C725.1812744,450.8519592,726.8770142,464.4104309,723.2730713,476.8681946z"/>
	<path class="st1" d="M659.6712036,476.8681946l-95.2008057,328.5596008
		c-4.7046509,16.213501-19.7671509,27.5305176-36.6470947,27.5305176H408.574646
		c-16.8794556,0-31.941925-11.3170166-36.6466064-27.5305176l-95.2012329-328.5596008
		c-3.6039429-12.4577637-1.9077148-26.0162354,4.6642456-37.2019348l69.6695862-118.5922852
		c7.4203186-12.6295471,21.1400146-20.4838867,35.7883911-20.4838867h162.6999207
		c14.6483765,0,28.3685303,7.8442383,35.7888794,20.4838867l69.6690674,118.5922852
		C661.5794067,450.8519592,663.2750854,464.4104309,659.6712036,476.8681946z"/>
	<path class="st2" d="M613.5649414,476.8681946l-95.2012939,328.5596008
		c-4.6942749,16.213501-19.7666321,27.5305176-36.6466064,27.5305176h-73.142395
		c-16.8794556,0-31.941925-11.3170166-36.6466064-27.5305176l-95.2012329-328.5596008
		c-3.6039429-12.4577637-1.9077148-26.0162354,4.6642456-37.2019348l69.6695862-118.5922852
		c7.4203186-12.6295471,21.1400146-20.4838867,35.7883911-20.4838867H503.442688
		c14.6587524,0,28.3685913,7.8442383,35.7888794,20.4838867l69.6789551,118.5922852
		C615.4726563,450.8519592,617.1791992,464.4104309,613.5649414,476.8681946z"/>
	<path class="st3" d="M699.0235596,469.8417358l-12.2156982,42.1589966l-4.5123901,15.5773315l-78.4731445,270.8232422
		c-1.5946655,5.5219727-6.652771,9.3181763-12.3970947,9.3181763H408.574646
		c-5.7442932,0-10.8019104-3.7962036-12.3970947-9.3181763l-76.5846252-264.331604l-7.2389221-24.9864807l-11.3771973-39.2414856
		c-1.696228-5.8453674-0.9089966-12.1348572,2.1704407-17.384491l3.6137695-6.1482849l11.4082642-19.4136963l54.6574097-93.0404358
		c2.9172363-4.9669189,8.257843-8.0259094,14.0223389-8.0259094h226.3018494c5.7644653,0,11.1050415,3.0589905,14.0228271,8.0259094
		l49.7609253,84.7017517l10.6806641,18.1818237l9.237854,15.7188416
		C699.9320679,457.7068787,700.7197876,463.9963684,699.0235596,469.8417358z"/>
	<path class="st4" d="M699.0379639,469.8417358l-95.2007446,328.5595703
		c-0.0404053,0.1513672-0.0911865,0.3026733-0.1513062,0.4441528c-0.010376,0.050293-0.0305786,0.0906982-0.0507813,0.1414795
		c-0.0704956,0.2622681-0.1715698,0.5146484-0.2824707,0.7571411c-0.0404053,0.1109619-0.0911865,0.2218628-0.1315918,0.322876
		c-0.0803833,0.2021484-0.1813965,0.3938599-0.2824707,0.5856323c-0.2223511,0.4441528-0.4747314,0.878418-0.7572021,1.2920532
		c-0.0906982,0.1616821-0.2119141,0.3233643-0.3331909,0.4845581c-0.2425537,0.3331909-0.5047607,0.6565552-0.7872314,0.9691162
		c-0.1114502,0.1315918-0.2223511,0.2523804-0.3436279,0.3839722c-0.2321777,0.2420654-0.4845581,0.4742432-0.7369385,0.7064209
		c-0.1917725,0.1715698-0.4036865,0.3534546-0.6156616,0.5047607c-2.2108765,1.7263184-4.9772949,2.7260132-7.9349976,2.7260132
		h-73.8083496c0.2720947-0.7571411,0.5244751-1.5143433,0.7468262-2.291687l82.9145508-286.1381226l4.2097778-14.5172729
		l8.086792-27.9042053c3.6142578-12.4577637,1.8978271-26.0162354-4.6642456-37.2019348l-5.5930176-9.5200195l-8.4396973-14.3659363
		l-52.8403931-89.9513855h71.1134033c5.774353,0,11.1051025,3.0589905,14.0327148,8.0259094l49.7506104,84.7017517
		l10.6811523,18.1818237l9.2373047,15.7188416c0.3736572,0.6462402,0.7172852,1.3023376,1.0297852,1.9789124
		c0.5151367,1.1204834,0.9390869,2.2715149,1.2520752,3.4526062
		C700.1988525,461.7753906,700.1786499,465.9045715,699.0379639,469.8417358z"/>
	<path class="st5" d="M300.9338684,469.8417358l95.2012329,328.5595703
		c1.6050415,5.5219727,6.6528015,9.3181763,12.4074707,9.3181763h73.8083496
		c-0.272583-0.7571411-0.5249634-1.5143433-0.7467957-2.291687l-95.2111206-328.5596008
		c-3.6142883-12.4577637-1.8978271-26.0162354,4.6642761-37.2019348l66.8725891-113.8373413h-71.112915
		c-5.7748718,0-11.1051025,3.0589905-14.0327148,8.0259094l-69.6695862,118.602417
		C300.0253601,457.7068787,299.2381287,463.9963684,300.9338684,469.8417358z"/>
	<path class="st6" d="M699.0235596,469.8417358l-12.2156982,42.1589966l-4.5123901,15.5773315l-78.4731445,270.8232422
		c-1.5946655,5.5219727-6.652771,9.3181763-12.3970947,9.3181763H408.574646
		c-5.7442932,0-10.8019104-3.7962036-12.3970947-9.3181763l-76.5846252-264.331604l-7.2389221-24.9864807l4.4222107-0.3433533
		c76.9178772-5.8756714,119.7736511-28.8326721,161.2052917-51.0428772
		c3.8164063-2.0393066,7.5918579-4.0584106,11.3678284-6.057312c2.4026184-1.2722778,4.6943359-2.463501,6.8849792-3.5940552
		c7.7939758-4.0281372,14.3861694-7.2586365,20.7663574-10.1662903
		c24.2293091-11.0545654,58.5038452-23.7548523,108.9110718-23.8455505h0.4342651
		c18.7877197,0,35.4857788,1.4837646,50.588623,4.5227966l10.6806641,18.1818237l9.237854,15.7188416
		C699.9320679,457.7068787,700.7197876,463.9963684,699.0235596,469.8417358z"/>
	<path class="st7" d="M699.0235596,469.8417358l-16.7280884,57.7363281l-78.4731445,270.8232422
		c-1.5946655,5.5219727-6.652771,9.3181763-12.3970947,9.3181763H408.574646
		c-5.7442932,0-10.8019104-3.7962036-12.3970947-9.3181763l-76.5846252-264.331604l-1.6656799-10.2266846
		c87.3461609-6.6732788,133.2709961-34.9104614,178.4988403-58.8168945
		c8.8843689-4.6943054,17.7381592-9.2070007,26.864563-13.3765869
		c28.3986816-12.9524231,59.5331421-22.3918457,102.6511841-22.4724426
		c25.3399048-0.0305481,45.3998413,2.8265686,61.6734619,7.5613098l9.237854,15.7188416
		C699.9320679,457.7068787,700.7197876,463.9963684,699.0235596,469.8417358z"/>
	<path class="st8" d="M686.8078613,512.0007324l-4.5123901,15.5773315l-78.4731445,270.8232422
		c-1.5946655,5.5219727-6.652771,9.3181763-12.3970947,9.3181763H408.574646
		c-5.7442932,0-10.8019104-3.7962036-12.3970947-9.3181763l-76.5846252-264.331604l-7.2389221-24.9864807l-11.3771973-39.2414856
		c-1.696228-5.8453674-0.9089966-12.1348572,2.1704407-17.384491l3.6137695-6.1482849l11.4082642-19.4136963
		c17.4350281-4.4520569,37.1716003-6.6528015,59.8161011-6.683136h0.5451965
		c37.1819458,0,68.6999512,6.4006653,102.2173462,20.7565002c4.8860779,2.0794983,10.0043335,4.4217224,15.4863892,7.0769958
		c2.2715149,1.0903931,4.6036377,2.2512817,7.0062561,3.462677c11.2362366,5.6434937,21.9577942,12.1651917,33.3054504,19.0703735
		c34.5368042,20.988678,70.244812,42.7042236,125.7801514,42.7042236c6.0775757,0,12.3773804-0.2625122,18.7073364-0.7973633
		L686.8078613,512.0007324z"/>
	<path class="st6" d="M682.2994995,527.578064l-74.4950562,257.0932007l-3.9775391,13.7300415
		c-1.5952148,5.5219727-6.652832,9.3181763-12.3971558,9.3181763H408.5792236
		c-5.7443237,0-10.8024292-3.7962036-12.3971252-9.3181763l-3.9780579-13.7300415l-72.6070557-250.6015625l-18.6161194-64.2279663
		c-1.696228-5.8453674-0.9085083-12.1348572,2.1704407-17.384491l3.6142578-6.1482849
		c17.7983398-6.6730042,40.684845-10.9130859,71.2445679-10.9535217
		c40.1396179-0.0707397,69.9116211,8.0259094,96.7757263,19.534729c7.3798828,3.1398315,14.5374756,6.5522461,21.6447754,10.1359558
		C544.8892212,489.3969116,590.7026978,535.220459,682.2994995,527.578064z"/>
	<circle class="st7" cx="439.3504028" cy="729.9029541" r="21.5371552"/>
	<circle class="st7" cx="483.8549194" cy="752.2814331" r="10.600318"/>
	<path class="st7" d="M699.0276489,469.8417358l-12.21521,42.1589966l-4.5129395,15.5773315l-78.4725952,270.8232422
		c-0.0404663,0.1513672-0.0906982,0.2928467-0.1409912,0.4441528c-0.010376,0.050293-0.0305786,0.0906982-0.0507813,0.1414795
		c-0.0808716,0.2523804-0.1715698,0.5146484-0.2824707,0.7571411c-0.0404053,0.1109619-0.0911865,0.2218628-0.1315918,0.322876
		c-0.0906982,0.2021484-0.1813965,0.3938599-0.2824707,0.5856323c-0.2223511,0.4441528-0.4747314,0.878418-0.7572021,1.2920532
		c-0.1010132,0.1715088-0.2119141,0.3233643-0.3331909,0.4845581c-0.2425537,0.3331909-0.5047607,0.6565552-0.7872314,0.9691162
		c-0.1114502,0.1315918-0.2223511,0.2523804-0.3436279,0.3839722c-0.2321777,0.2420654-0.4845581,0.4742432-0.7369385,0.7064209
		c-0.1917725,0.1715698-0.4036865,0.3534546-0.6156616,0.5047607c-2.2108765,1.7263184-4.9772949,2.7260132-7.9349976,2.7260132
		h-73.8083496c0.2720947-0.7571411,0.5244751-1.5143433,0.7468262-2.291687l82.9145508-286.1381226l4.2097778-14.5172729
		l8.086792-27.9042053c3.6142578-12.4577637,1.8978271-26.0162354-4.6642456-37.2019348l-5.5930176-9.5200195l-8.4396973-14.3659363
		c9.6005859-1.0903931,19.9283447-1.7263184,31.0334473-1.746521h0.4342651c18.7876587,0,35.4857178,1.4837646,50.588623,4.5227966
		l10.6811523,18.1818237l9.2373047,15.7188416c0.3736572,0.6462402,0.7172852,1.3023376,1.0297852,1.9789124
		c0.5151367,1.1204834,0.9287109,2.2715149,1.2520752,3.4526062
		C700.1890259,461.7753906,700.1688232,465.9045715,699.0276489,469.8417358z"/>
	<circle class="st7" cx="366.598175" cy="531.9669189" r="32.3057327"/>
	<circle class="st7" cx="416.6875305" cy="478.1893005" r="16.4893837"/>
	<path class="st9" d="M699.0276489,469.8417358l-12.21521,42.1589966l-4.5129395,15.5773315l-78.4725952,270.8232422
		c-0.0404663,0.1513672-0.0906982,0.2928467-0.1409912,0.4441528c-0.010376,0.050293-0.0305786,0.0906982-0.0507813,0.1414795
		c-0.0808716,0.2523804-0.1715698,0.5146484-0.2824707,0.7571411c-0.0404053,0.1109619-0.0911865,0.2218628-0.1315918,0.322876
		c-0.0906982,0.2021484-0.1813965,0.3938599-0.2824707,0.5856323c-0.2223511,0.4441528-0.4747314,0.878418-0.7572021,1.2920532
		c-0.1010132,0.1715088-0.2119141,0.3233643-0.3331909,0.4845581c-0.2425537,0.3331909-0.5047607,0.6565552-0.7872314,0.9691162
		c-0.1114502,0.1315918-0.2223511,0.2523804-0.3436279,0.3839722c-0.2321777,0.2420654-0.4845581,0.4742432-0.7369385,0.7064209
		c-0.1917725,0.1715698-0.4036865,0.3534546-0.6156616,0.5047607c-2.2108765,1.7263184-4.9772949,2.7260132-7.9349976,2.7260132
		h-73.8083496c0.2720947-0.7571411,0.5244751-1.5143433,0.7468262-2.291687l82.9145508-286.1381226l4.2097778-14.5172729
		l8.086792-27.9042053c3.6142578-12.4577637,1.8978271-26.0162354-4.6642456-37.2019348l-5.5930176-9.5200195
		c7.1782837-0.6260376,14.6992188-0.9592896,22.6242676-0.9691467c25.3399048-0.0305481,45.3994141,2.8265686,61.6735229,7.5613098
		l9.2373047,15.7188416c0.3736572,0.6462402,0.7172852,1.3023376,1.0297852,1.9789124
		c0.5151367,1.1204834,0.9287109,2.2715149,1.2520752,3.4526062
		C700.1890259,461.7753906,700.1688232,465.9045715,699.0276489,469.8417358z"/>
	<path class="st6" d="M686.812439,512.0007324l-4.5129395,15.5773315l-78.4725952,270.8232422
		c-0.0404663,0.1513672-0.0906982,0.2928467-0.1409912,0.4441528c-0.010376,0.050293-0.0305786,0.0906982-0.0507813,0.1414795
		c-0.0808716,0.2523804-0.1715698,0.5146484-0.2824707,0.7571411c-0.0404053,0.1109619-0.0911865,0.2218628-0.1315918,0.322876
		c-0.0906982,0.2021484-0.1813965,0.3938599-0.2824707,0.5856323c-0.2223511,0.4441528-0.4747314,0.878418-0.7572021,1.2920532
		c-0.1010132,0.1715088-0.2119141,0.3233643-0.3331909,0.4845581c-0.2425537,0.3331909-0.5047607,0.6565552-0.7872314,0.9691162
		c-0.1114502,0.1315918-0.2223511,0.2523804-0.3436279,0.3839722c-0.2321777,0.2420654-0.4845581,0.4742432-0.7369385,0.7064209
		c-0.1917725,0.1715698-0.4036865,0.3534546-0.6156616,0.5047607c-2.2108765,1.7263184-4.9772949,2.7260132-7.9349976,2.7260132
		h-73.8083496c0.2720947-0.7571411,0.5244751-1.5143433,0.7468262-2.291687l82.9145508-286.1381226l4.2097778-14.5172729
		c16.6881714,5.2294312,35.2737427,8.510498,56.8381958,8.510498c6.0775146,0,12.3768921-0.2625122,18.7067871-0.7973633
		L686.812439,512.0007324z"/>
	<path class="st7" d="M682.2994995,527.578064l-74.4950562,257.0932007l-3.9775391,13.7300415
		c-0.0404663,0.1513672-0.0906982,0.2928467-0.1409912,0.4441528c-0.010376,0.050293-0.0305786,0.0906982-0.0507813,0.1414795
		c-0.0808716,0.2523804-0.1715698,0.5146484-0.2824707,0.7571411c-0.0404053,0.1109619-0.0911865,0.2218628-0.1315918,0.322876
		c-0.0906982,0.2021484-0.1813965,0.3938599-0.2824707,0.5856323c-0.2223511,0.4441528-0.4747314,0.878418-0.7572021,1.2920532
		c-0.1010132,0.1715088-0.2119141,0.3233643-0.3331909,0.4845581c-0.2425537,0.3331909-0.5047607,0.6565552-0.7872314,0.9691162
		c-0.1114502,0.1315918-0.2223511,0.2523804-0.3436279,0.3839722c-0.2321777,0.2420654-0.4845581,0.4742432-0.7369385,0.7064209
		c-0.1917725,0.1715698-0.4036865,0.3534546-0.6156616,0.5047607c-2.2108765,1.7263184-4.9772949,2.7260132-7.9349976,2.7260132
		h-73.8083496c0.2720947-0.7571411,0.5244751-1.5143433,0.7468262-2.291687l6.0169067-20.7565308l76.897644-265.3815918
		C624.0988159,526.4273071,650.4280396,530.2333374,682.2994995,527.578064z"/>
	<g>
		<polygon class="st10" points="584.6334229,300.594696 552.6508179,300.6651917 501.8499451,300.7763367 492.2996216,300.7965393 
			399.7538757,300.9481201 399.8109741,271.03302 589.6206665,271.0443726 		"/>
		<path class="st11" d="M582.553772,271.1913757l0.0605469,29.6845398l-9.7724609,0.0709839l-63.9250183,0.1119385
			c-3.1279297,0-5.5222473-4.1374207-5.5323486-8.4272461l-0.030304-13.1496582
			c-0.0101013-4.7167053,2.8773193-8.4410095,6.4512024-8.4410095c0,0,54.4466858-0.0079041,54.5764465-0.0079041
			C564.3818359,271.0976868,582.553772,271.1913757,582.553772,271.1913757z"/>
		<path class="st12" d="M599.7767334,300.8872986l-45.1068115,0.0704956c-2.9883423,0-5.1488647-4.1794434-5.1588135-8.2378845
			l-0.0303345-13.1949463c0-4.5124207,2.6635132-8.480072,6.1178589-8.480072
			c0.1115723,0,44.1175537-0.0101929,44.1175537-0.0101929L599.7767334,300.8872986z"/>
	</g>
	<g>
		<path class="st10" d="M588.7052002,175.4647217v21.8669739c0,4.6237183-4.5429688,8.4095459-10.09552,8.4095459H421.7857056
			c-5.5525513,0-10.0955505-3.7858276-10.0955505-8.4095459v-21.8669739c0-4.6338196,4.5429993-8.4196472,10.0955505-8.4196472
			h156.8239746C584.1622314,167.0450745,588.7052002,170.8309021,588.7052002,175.4647217z"/>
		<path class="st12" d="M588.7052002,175.4647217v21.8669739c0,4.6237183-4.5429688,8.4095459-10.09552,8.4095459H541.123291
			c-5.5525513,0-10.09552-3.7858276-10.09552-8.4095459v-21.8669739c0-4.6338196,4.5429688-8.4196472,10.09552-8.4196472h37.4863892
			C584.1622314,167.0450745,588.7052002,170.8309021,588.7052002,175.4647217z"/>
		<path class="st11" d="M556.4012451,175.461441v21.8668518c0,4.6238403-4.5429688,8.409668-10.09552,8.409668h-45.2684937
			c5.5525513,0,10.0955505-3.7858276,10.0955505-8.409668V175.461441c0-4.6339417-4.5429993-8.4197693-10.0955505-8.4197693
			h45.2684937C551.8582764,167.0416718,556.4012451,170.8274994,556.4012451,175.461441z"/>
		<path class="st2" d="M626.3533325,254.7769012c0.0100708,4.3408661-1.6760254,8.4296112-4.7350464,11.498703
			c-3.0587158,3.0690918-7.1373291,4.7650757-11.4784546,4.775177H377.7506104
			c-2.9983521,0-5.5828552-0.7773743-7.6828308-2.1603394c-1.4536743-0.9489136-2.6752014-2.1807861-3.6443481-3.6445923
			c-1.8172302-2.7055359-2.7762756-6.1783447-2.7866211-10.0248108l-0.0805969-52.1938934
			c-0.0101013-4.2198792,1.5749817-8.1875916,4.4823608-11.2162628c0.0808411-0.0906982,0.161438-0.1816559,0.2523804-0.2725983
			c0.1313782-0.1311188,0.2625122-0.2624969,0.4039917-0.3835144l0.1816406-0.1819
			c2.9781494-2.7560577,6.8144836-4.5528412,10.8830261-4.5632019h231.0262146
			c8.682251,0.3837585,15.4664307,7.4910583,15.4765625,16.1730804L626.3533325,254.7769012z"/>
		<path class="st0" d="M636.4437866,254.7810822c0.0101318,4.3408966-1.6759033,8.4296417-4.7347412,11.4987335
			c-3.05896,3.0690613-7.1376343,4.7650452-11.4787598,4.7751465h-106.427124c0.3130493,0,0.6259155-0.0101013,0.9388428-0.030304
			h0.0404053c0.3130493-0.0202026,0.6157837-0.0404358,0.9185791-0.0906982c0.0101318,0.0098572,0.0303345,0.0098572,0.0404663,0
			c3.604187-0.4342957,6.9458618-2.0496826,9.5403442-4.6541443c3.0588379-3.0690918,4.744873-7.1578369,4.7348633-11.4987335
			l-0.0100708-8.651947v-0.0808411l-0.0606689-34.2038269v-0.0906982l-0.0100708-9.1668243
			c-0.0101318-8.6822662-6.8043823-15.7893219-15.4866943-16.1730804h106.4273682
			c8.6820068,0.3837585,15.4763184,7.4908142,15.4863892,16.1730804L636.4437866,254.7810822z"/>
		<path class="st1" d="M571.3665161,254.7767944c0.0100708,4.3410034-1.6757813,8.4296265-4.7347412,11.4987183
			c-3.059021,3.0690613-7.1373901,4.7650452-11.4785156,4.7751465h-44.8465576
			c4.3411255-0.0101013,8.4197388-1.7060852,11.4787598-4.7751465c3.05896-3.0690918,4.6640015-7.1577148,4.6538696-11.4987183
			v-52.1940308c-0.0098267-8.6821442-6.8041382-15.789444-15.4863892-16.1730804h44.8463135
			c8.682251,0.3836365,15.4765625,7.4909363,15.4866333,16.1730804L571.3665161,254.7767944z"/>
		<path class="st3" d="M601.1343994,239.1588745c0,3.7254486-3.0084229,6.7541046-6.7437134,6.7642059l-67.9430542,0.131134
			l-21.6548767,0.030304h-2.8771057l-106.3667297,0.1717987c-3.7352905,0.0098572-6.7538452-3.0086975-6.7639465-6.7440033
			l-0.0303345-20.7865601c-0.0101013-3.7254333,3.0084534-6.7541046,6.7336426-6.7642059l94.3630066-0.1513367l14.9414673-0.0202179
			l21.6548767-0.030304l67.8925171-0.1313782c2.6047363-0.0098572,4.8660889,1.4640503,5.9868164,3.6243896
			c0.1008301,0.1816559,0.1917725,0.3736572,0.272583,0.5755157c0.0806274,0.1715393,0.1412354,0.3430939,0.2019043,0.5350952
			c0.1917114,0.6358948,0.3029175,1.3124695,0.3029175,2.0090027L601.1343994,239.1588745z"/>
		<path class="st4" d="M601.1343994,239.1588745c0,3.7254486-3.0084229,6.7541046-6.7437134,6.7642059l-67.9494629,0.131134
			l-0.0029907-34.2945251l67.9019165-0.1313782c2.6047363-0.0098572,4.8660889,1.4640503,5.9868164,3.6243896
			c0.1008301,0.1816559,0.1917725,0.3736572,0.272583,0.5755157c0.0806274,0.1715393,0.1412354,0.3430939,0.2019043,0.5350952
			c0.1917114,0.6358948,0.3029175,1.3124695,0.3029175,2.0090027L601.1343994,239.1588745z"/>
	</g>
	<path class="st7" d="M607.8044434,784.6712646l-3.9775391,13.7300415
		c-1.5952148,5.5219727-6.652832,9.3181763-12.3971558,9.3181763H408.5792236
		c-5.7443237,0-10.8024292-3.7962036-12.3971252-9.3181763l-3.9780579-13.7300415H607.8044434z"/>
	<path class="st9" d="M607.8044434,784.6712646l-3.9775391,13.7300415
		c-0.0404663,0.1513672-0.0906982,0.2928467-0.1409912,0.4441528c-0.010376,0.050293-0.0305786,0.0906982-0.0507813,0.1414795
		c-0.0808716,0.2523804-0.1715698,0.5146484-0.2824707,0.7571411c-0.0404053,0.1109619-0.0911865,0.2218628-0.1315918,0.322876
		c-0.0906982,0.2021484-0.1813965,0.3938599-0.2824707,0.5856323c-0.2223511,0.4441528-0.4747314,0.878418-0.7572021,1.2920532
		c-0.1010132,0.1715088-0.2119141,0.3233643-0.3331909,0.4845581c-0.2425537,0.3331909-0.5047607,0.6565552-0.7872314,0.9691162
		c-0.1114502,0.1315918-0.2223511,0.2523804-0.3436279,0.3839722c-0.2321777,0.2420654-0.4845581,0.4742432-0.7369385,0.7064209
		c-0.1917725,0.1715698-0.4036865,0.3534546-0.6156616,0.5047607c-2.2108765,1.7263184-4.9772949,2.7260132-7.9349976,2.7260132
		h-73.8083496c0.2720947-0.7571411,0.5244751-1.5143433,0.7468262-2.291687l6.0169067-20.7565308H607.8044434z"/>
	<path class="st13" d="M347.136322,464.9008789h0.0000305c7.862915-2.2668152,16.074646,2.2697449,18.3414307,10.1326294
		l55.603241,192.8733521c2.2667847,7.862915-2.2697449,16.074646-10.1326599,18.3414307h-0.0000305
		c-7.8628845,2.2667847-16.0746155-2.2697754-18.3414001-10.1326294l-55.6032715-192.8733826
		C334.7368774,475.3793945,339.2734375,467.1676636,347.136322,464.9008789z"/>
	<path class="st13" d="M433.3941956,710.6801758l10.6815796,37.0394897
		c2.2626953,7.8588867-2.2715759,16.0683594-10.139801,18.335022c-7.2698669,2.0995483-14.8410034-1.6315918-17.7342224-8.4207153
		c-0.1107788-0.2599487-0.2123108-0.5239868-0.3045654-0.7919922l-0.0197449-0.0463257l-10.7252197-37.2186279
		c-2.266449-7.8682861,2.2678223-16.0777588,10.1360474-18.3444214
		C422.9124451,699.0371094,430.8709106,703.239624,433.3941956,710.6801758z"/>
	<circle class="st7" cx="538.62323" cy="569.2156372" r="32.3057327"/>
	<circle class="st7" cx="567.5637817" cy="639.8843994" r="21.5371552"/>
	<circle class="st7" cx="519.4417114" cy="678.5839844" r="12.7876854"/>
</g>
</svg>
