<?xml version="1.0" encoding="utf-8"?>
<!-- Generator: Adobe Illustrator 22.1.0, SVG Export Plug-In . SVG Version: 6.00 Build 0)  -->
<svg version="1.1" id="Layer_1" xmlns="http://www.w3.org/2000/svg" xmlns:xlink="http://www.w3.org/1999/xlink" x="0px" y="0px"
	 viewBox="0 0 1000 1000" style="enable-background:new 0 0 1000 1000;" xml:space="preserve">
<style type="text/css">
	.st0{fill:#AADCD9;}
	.st1{fill:#F3F7DE;}
	.st2{fill:#9ED3D7;}
	.st3{fill:#FFDD9D;}
	.st4{fill:#FFC98F;}
	.st5{fill:#C4E5DC;}
	.st6{fill:#DA1A48;}
	.st7{fill:#CB1749;}
	.st8{fill:#E63B66;}
	.st9{fill:#E22955;}
	.st10{fill:#D83232;}
	.st11{fill:#D81A48;}
	.st12{fill:#EB526F;}
	.st13{fill:none;}
	.st14{fill:#DDEEDB;}
	.st15{fill:#B71547;}
	.st16{fill:#E7EAD0;}
	.st17{fill:#81C6CB;}
</style>
<g>
	<path class="st0" d="M500,735.3980713c-79.6468506,0-147.539917-59.4910278-157.9253235-138.381958
		c-0.6824951-5.168396-1.1102905-10.4602661-1.2731323-15.7337036c-0.0622253-1.6916504-0.0923462-3.4008179-0.0923462-5.1751709
		c0-10.2561035,0.9824219-20.500061,2.920105-30.4464722c1.5380554-7.8882446,3.6905823-15.7142334,6.3972778-23.2587891
		C372.716095,459.2505493,432.9863586,416.8164368,500,416.8164368c67.6499634,0,128.1025391,42.9518127,150.428894,106.8800964
		c2.1321411,6.0881348,3.9064331,12.381897,5.2763062,18.7199097c2.3790894,11.0109863,3.5856323,22.3467407,3.5856323,33.6907959
		c0,1.7694702-0.0223999,3.2200317-0.0700073,4.5656128l-0.0097656,0.3256836
		c-0.1953735,6.5995483-0.8079224,13.2340698-1.8219604,19.7236938
		c-4.8416748,31.092041-18.7456055,59.8458862-40.2096558,83.1619873
		c-21.1995239,23.0302734-48.2966919,39.1810303-78.3960571,46.7372437l-0.6630859,0.1623535
		C525.7009888,733.8453979,512.8753052,735.3980713,500,735.3980713z"/>
	<rect x="431.9598389" y="328.2104797" class="st1" width="136.0619202" height="96.9057388"/>
	<circle class="st1" cx="500" cy="576.1072388" r="204.0913544"/>
	<path class="st2" d="M674.2247314,576.1072388c0,1.7123413-0.0199585,3.4048462-0.0796509,5.09729v0.0199585
		c-0.2090454,7.2974243-0.8661499,14.4655762-1.9612427,21.5141602c-0.0099487,0.0995483-0.0199585,0.189209-0.0397949,0.2886963
		c-10.7919922,69.2915649-62.5714722,125.2026367-129.6826782,142.0675049h-0.0099487
		c-0.2489014,0.0597534-0.4978027,0.1294556-0.7466431,0.189209h-0.0100098
		c-13.3704224,3.2952881-27.3283081,5.0474854-41.6943665,5.0474854c-88.3267212,0-161.500946-66.0559082-172.730957-151.3660889
		c-0.0099792-0.0597534-0.019928-0.1294556-0.019928-0.189209c-0.7367249-5.585083-1.1946411-11.2598267-1.3738403-17.0042114
		v-0.0299072c-0.0697021-1.8717041-0.0995789-3.7532349-0.0995789-5.6348877
		c0-10.3140869,0.8960266-20.4091187,2.6183472-30.2254028c0.1891479-1.0254517,0.3782959-2.0509644,0.5774231-3.076355
		c1.4833984-7.6160889,3.4645691-15.0529785,5.903717-22.2808228c0.3484192-1.0652466,0.7167664-2.1205444,1.0950928-3.1658936
		c24.1624451-67.2505493,88.5657349-115.4758606,164.0297241-115.4758606
		c76.0016785,0,140.7832336,48.9022827,164.5274963,116.8895569c0.189209,0.5376587,0.3783569,1.0852051,0.5575562,1.6228027
		c2.0807495,6.1426392,3.822998,12.4346313,5.2167358,18.8660278c0.0996094,0.4579468,0.1991577,0.9059448,0.2887573,1.3638916
		C672.9703369,552.0941772,674.2247314,563.9613037,674.2247314,576.1072388z"/>
	<path class="st0" d="M500,735.3980713c-79.6468506,0-147.539917-59.4910278-157.9253235-138.381958
		c-0.6824951-5.168396-1.1102905-10.4602661-1.2731323-15.7337036c-0.0622253-1.6916504-0.0923462-3.4008179-0.0923462-5.1751709
		c0-10.2561035,0.9824219-20.500061,2.920105-30.4464722c1.5380554-7.8882446,3.6905823-15.7142334,6.3972778-23.2587891
		C372.716095,459.2505493,432.9863586,416.8164368,500,416.8164368c67.6499634,0,128.1025391,42.9518127,150.428894,106.8800964
		c2.1321411,6.0881348,3.9064331,12.381897,5.2763062,18.7199097c2.3790894,11.0109863,3.5856323,22.3467407,3.5856323,33.6907959
		c0,1.7694702-0.0223999,3.2200317-0.0700073,4.5656128l-0.0097656,0.3256836
		c-0.1953735,6.5995483-0.8079224,13.2340698-1.8219604,19.7236938
		c-4.8416748,31.092041-18.7456055,59.8458862-40.2096558,83.1619873
		c-21.1995239,23.0302734-48.2966919,39.1810303-78.3960571,46.7372437l-0.6630859,0.1623535
		C525.7009888,733.8453979,512.8753052,735.3980713,500,735.3980713z"/>
	<g>
		<path class="st3" d="M570.2303467,243.5512543l-8.5076904,47.2248077
			c0.0100708,6.2322083-1.9605713,11.8701782-5.1287842,15.8700562c-3.4498291,3.6839294-8.3545532,5.9996948-13.7667236,6.0084534
			l-86.3136597,0.1397095c-10.4142761,0.0168457-18.9446411-8.4859314-18.9614868-18.9002991l-8.5116272-51.8270721
			c-1.1917114-7.2562256,1.7414551-14.7035065,7.8239746-18.8357544c3.0193176-2.0512085,6.6559448-3.254776,10.5613708-3.2610931
			l104.1887207-0.1686249c2.7059937-0.0043793,5.2869873,0.5683441,7.6242065,1.6012268
			c4.5641479,2.0170135,7.9400024,5.9879608,9.6703491,10.6682892c0.7529297,2.0365295,1.2736206,4.2498474,1.5163574,6.5787354
			C570.5955811,240.2831726,570.5215454,241.9349518,570.2303467,243.5512543z"/>
		<path class="st4" d="M570.2393188,243.5015564l-8.5166626,47.2745056
			c0.0100708,6.2322083-1.9605713,11.8701782-5.1287842,15.8700562c-3.098999,3.3085022-7.3596191,5.506012-12.1151123,5.9237671
			c-0.5388184,0.0594482-1.0892944,0.0838013-1.6516113,0.0846863l-23.2418823,0.0376282
			c9.0202637-0.0145874,16.3845825-9.8668823,16.3651733-21.8744202l8.8579102-49.1691284
			c-0.0194092-12.0075226-7.4155273-21.8242035-16.4358521-21.8096008l23.2419434-0.0376129
			c2.7059937-0.0043793,5.2869873,0.5683441,7.6242065,1.6012268c4.5643311,2.0171204,7.9402466,5.988327,9.6705933,10.6688843
			c0.8225708,2.2250671,1.3679199,4.6611633,1.576355,7.2284546
			C570.5995483,240.7033386,570.4889526,242.1159058,570.2393188,243.5015564z"/>
		<circle class="st4" cx="482.6941223" cy="277.6358337" r="12.466732"/>
		<circle class="st4" cx="482.9584045" cy="236.1068878" r="6.9765162"/>
		<circle class="st4" cx="455.8092041" cy="250.1121674" r="13.6497059"/>
		<circle class="st4" cx="525.0283813" cy="250.1121674" r="9.2312756"/>
	</g>
	<circle class="st5" cx="500.010376" cy="575.9919434" r="104.5022659"/>
	<path class="st6" d="M674.2247314,576.1072388c0,1.7123413-0.0199585,3.4048462-0.0796509,5.09729v0.0199585
		c-0.2090454,7.2974243-0.8661499,14.4655762-1.9612427,21.5141602c-0.0099487,0.0995483-0.0199585,0.189209-0.0397949,0.2886963
		c-10.7919922,69.2915649-62.5714722,125.2026367-129.6826782,142.0675049h-0.0099487
		c-0.2489014,0.0597534-0.4978027,0.1294556-0.7466431,0.189209h-0.0100098
		c-13.3704224,3.2952881-27.3283081,5.0474854-41.6943665,5.0474854c-88.3267212,0-161.500946-66.0559082-172.730957-151.3660889
		c-0.0099792-0.0597534-0.019928-0.1294556-0.019928-0.189209c-0.7367249-5.585083-1.1946411-11.2598267-1.3738403-17.0042114
		c150.9379883-0.6471558,163.4024658-75.1952515,270.9138184-75.3744507
		c31.7287598-0.0497742,52.9044189,5.6846924,68.2959595,13.9976807c2.0807495,6.1426392,3.822998,12.4346313,5.2167358,18.8660278
		c0.0996094,0.4579468,0.1991577,0.9059448,0.2887573,1.3638916
		C672.9703369,552.0941772,674.2247314,563.9613037,674.2247314,576.1072388z"/>
	<path class="st7" d="M674.2247314,576.1072388c0,1.7123413-0.0199585,3.4048462-0.0796509,5.09729v0.0199585
		c-0.2090454,7.2974243-0.8661499,14.4655762-1.9612427,21.5141602c-0.0099487,0.0995483-0.0199585,0.189209-0.0397949,0.2886963
		c-10.7919922,69.2915649-62.5714722,125.2026367-129.6826782,142.0675049
		c-0.2488403,0.0597534-0.5077515,0.1294556-0.7565918,0.189209h-0.0100098
		c-13.3704224,3.2952881-27.3283081,5.0474854-41.6943665,5.0474854c-88.3267212,0-161.500946-66.0559082-172.730957-151.3660889
		c-0.0099792-0.0597534-0.019928-0.1294556-0.019928-0.189209c87.2615051-0.6271362,127.9902039-26.1036987,168.0119934-47.2595215
		c28.6125793-15.1127319,56.8767395-28.0252686,101.5578308-28.1048584
		c35.6712036-0.0597534,58.0117798,7.2078857,73.7716064,17.2133179
		C672.9703369,552.0941772,674.2247314,563.9613037,674.2247314,576.1072388z"/>
	<path class="st8" d="M674.1450806,581.2244873c-0.2090454,7.2974243-0.8661499,14.4655762-1.9612427,21.5141602
		c-0.0099487,0.0995483-0.0199585,0.189209-0.0397949,0.2886963
		c-10.7919922,69.2915649-62.5714722,125.2026367-129.6826782,142.0675049
		c-0.2488403,0.0597534-0.5077515,0.1294556-0.7565918,0.189209h-0.0100098
		c-13.3704224,3.2952881-27.3283081,5.0474854-41.6943665,5.0474854c-88.3267212,0-161.500946-66.0559082-172.730957-151.3660889
		c-0.7466736-5.6548462-1.2145691-11.399231-1.3937683-17.2233276c-0.0697021-1.8717041-0.0995789-3.7532349-0.0995789-5.6348877
		c0-10.3140869,0.8960266-20.4091187,2.6183472-30.2254028c0.1891479-1.0254517,0.3782959-2.0509644,0.5774231-3.076355
		c1.4833984-7.6160889,3.4645691-15.0529785,5.903717-22.2808228c8.621582-4.5895386,19.0452271-8.3726807,32.0871277-10.8018494
		c0.019928,0,0.0597229-0.019928,0.0796509-0.019928c10.0851135-1.8816528,21.7332764-2.9667969,35.3127747-2.9867249
		C510.0158081,506.546936,522.6097412,581.2642822,674.1450806,581.2244873z"/>
	<path class="st9" d="M672.1838379,602.7386475c-0.0099487,0.0995483-0.0199585,0.189209-0.0397949,0.2886963
		c-10.7919922,69.2915649-62.5714722,125.2026367-129.6826782,142.0675049
		c-0.2488403,0.0597534-0.5077515,0.1294556-0.7565918,0.189209h-0.0100098
		c-13.3704224,3.2952881-27.3283081,5.0474854-41.6943665,5.0474854c-88.3267212,0-161.500946-66.0559082-172.730957-151.3660889
		c-0.7466736-5.6548462-1.2145691-11.399231-1.3937683-17.2233276c-0.0697021-1.8717041-0.0995789-3.7532349-0.0995789-5.6348877
		c0-10.3140869,0.8960266-20.4091187,2.6183472-30.2254028c15.7398987-10.1548462,38.1103516-17.5718384,73.9905701-17.6315308
		C509.5777588,528.071106,522.5201416,602.1412964,672.1838379,602.7386475z"/>
	<circle class="st10" cx="485.2941284" cy="603.3791504" r="12.7661495"/>
	<circle class="st11" cx="409.2389832" cy="606.1955566" r="35.4140129"/>
	<circle class="st11" cx="461.225708" cy="669.8824463" r="22.3378029"/>
	<path class="st8" d="M604.5150757,576.1072388c0,6.7996826-0.6470947,13.4401855-1.8915405,19.87146
		c-9.2786865,48.2352905-51.7097778,84.663147-102.6430664,84.663147c-6.262085,0-12.3847961-0.5475464-18.3482971-1.6028442
		c-15.1226807-2.6781006-29.130249-8.6116943-41.2563171-17.0441895
		c-8.5817871-5.9634399-16.2277527-13.1912842-22.6790161-21.3947144
		c-10.871582-13.8583374-18.3184509-30.5340576-21.0761414-48.7529297
		c-0.7765808-5.1271973-1.1748047-10.3837891-1.1748047-15.7399292c0-0.3485107,0-0.6968994,0.0099487-1.0354614
		c6.0032959-1.2444458,11.7078857-2.6282349,17.1536865-4.1315308
		c26.3924255-7.2875977,46.8015747-17.3627319,65.7173462-27.3781128c7.2477722-3.8428955,14.26651-7.6758423,21.315155-11.3395386
		c23.0672607-11.9766235,46.453125-22.1812134,78.9385376-25.0285645
		c4.4302979,5.0375366,8.3727417,10.5032349,11.7576294,16.3273315
		c8.8208008,15.1126709,13.947937,32.6247559,14.1669922,51.3314209
		C604.5150757,575.2709351,604.5150757,575.6890259,604.5150757,576.1072388z"/>
	<path class="st9" d="M604.5150757,576.1072388c0,6.7996826-0.6470947,13.4401855-1.8915405,19.87146
		c-9.2786865,48.2352905-51.7097778,84.663147-102.6430664,84.663147c-6.262085,0-12.3847961-0.5475464-18.3482971-1.6028442
		c-15.1226807-2.6781006-29.130249-8.6116943-41.2563171-17.0441895
		c-8.5817871-5.9634399-16.2277527-13.1912842-22.6790161-21.3947144
		c-10.871582-13.8583374-18.3184509-30.5340576-21.0761414-48.7529297
		c13.9379578-2.9468994,26.282959-6.6703491,37.5428162-10.8616943c23.6347656-8.7808838,42.4609985-19.6027222,61.1378479-29.46875
		c6.9590149-3.673645,13.8980713-7.2278442,21.0661926-10.4833984
		c20.8173218-9.4877319,43.4963379-16.5761108,73.9706421-17.5119629
		c8.8208008,15.1126709,13.947937,32.6247559,14.1669922,51.3314209
		C604.5150757,575.2709351,604.5150757,575.6890259,604.5150757,576.1072388z"/>
	<path class="st12" d="M604.5150757,576.1072388c0,6.7996826-0.6470947,13.4401855-1.8915405,19.87146
		c-9.2786865,48.2352905-51.7097778,84.663147-102.6430664,84.663147c-6.262085,0-12.3847961-0.5475464-18.3482971-1.6028442
		c-15.1226807-2.6781006-29.130249-8.6116943-41.2563171-17.0441895
		c-8.5817871-5.9634399-16.2277527-13.1912842-22.6790161-21.3947144
		c-10.871582-13.8583374-18.3184509-30.5340576-21.0761414-48.7529297
		c-0.7765808-5.1271973-1.1748047-10.3837891-1.1748047-15.7399292c0-0.3485107,0-0.6968994,0.0099487-1.0354614
		c0-0.4977417,0.0099792-0.9955444,0.019928-1.4833374c0.3883057-16.2974854,4.5-31.6690063,11.5286865-45.2983398
		c3.8628235-7.5065308,8.6116333-14.4854736,14.1071777-20.7974243c32.24646,2.7976074,55.5426941,12.8727417,78.5303955,24.7299194
		c5.5552673,2.8572998,11.0906372,5.8141479,16.7255249,8.81073c24.2420654,12.862793,50.3956299,26.2033691,88.1376343,33.819458
		C604.5150757,575.2709351,604.5150757,575.6890259,604.5150757,576.1072388z"/>
	<path class="st8" d="M602.6235352,595.9786987c-9.2786865,48.2352905-51.7097778,84.663147-102.6430664,84.663147
		c-6.262085,0-12.3847961-0.5475464-18.3482971-1.6028442c-15.1226807-2.6781006-29.130249-8.6116943-41.2563171-17.0441895
		c-8.5817871-5.9634399-16.2277527-13.1912842-22.6790161-21.3947144
		c-10.871582-13.8583374-18.3184509-30.5340576-21.0761414-48.7529297
		c-0.7765808-5.1271973-1.1748047-10.3837891-1.1748047-15.7399292c0-0.3485107,0-0.6968994,0.0099487-1.0354614
		c0-0.4977417,0.0099792-0.9955444,0.019928-1.4833374c0.3883057-16.2974854,4.5-31.6690063,11.5286865-45.2983398
		c29.1900635,0.5376587,51.2817078,6.7001953,71.3224182,15.2720337c5.79422,2.4789429,11.4092407,5.1570435,16.9744873,7.9545898
		C525.8951416,566.9082031,554.9557495,586.0230713,602.6235352,595.9786987z"/>
	<circle class="st9" cx="485.3356018" cy="603.3791504" r="12.7661495"/>
	<path class="st9" d="M442.327179,618.916626c-4.3306885,11.249939-13.7587585,19.0153198-24.6303406,21.6834717
		c-10.871582-13.8583374-18.3184509-30.5340576-21.0761414-48.7529297
		c-0.7765808-5.1271973-1.1748047-10.3837891-1.1748047-15.7399292c0-0.3485107,0-0.6968994,0.0099487-1.0354614
		c0-0.4977417,0.0099792-0.9955444,0.019928-1.4833374c5.3262634-2.2598877,11.2101135-3.2156982,17.1337585-2.6481934
		c3.1459656,0.2886963,6.3118591,1.0154419,9.3981323,2.210144c4.6990662,1.8019409,8.7908325,4.5099487,12.1558533,7.835083
		C443.8703003,590.5728149,447.5439453,605.3670044,442.327179,618.916626z"/>
	<path class="st9" d="M482.1100769,677.9039917c-0.149353,0.3883057-0.3086243,0.7666016-0.4779053,1.1350098
		c-15.1226807-2.6781006-29.130249-8.6116943-41.2563171-17.0441895c0.0099487-0.0497437,0.0298767-0.0895386,0.0498352-0.1393433
		c4.4302063-11.508728,17.3527222-17.2531738,28.87146-12.822937
		C480.8059082,653.4727783,486.5502625,666.3952637,482.1100769,677.9039917z"/>
	<path class="st13" d="M500,401.3851318"/>
	<rect x="461.8239136" y="328.2104797" class="st2" width="76.3250275" height="83.9611359"/>
	<path class="st1" d="M594.5892944,290.0507813v30.0263062c0,6.391571-5.2267456,11.6183167-11.6182861,11.6183167H419.0408325
		c-6.39151,0-11.6182556-5.2267456-11.6182556-11.6183167v-30.0263062c0-6.39151,5.2267456-11.6182556,11.6182556-11.6182556
		h163.9301758C589.3625488,278.4325256,594.5892944,283.6592712,594.5892944,290.0507813z"/>
	<path class="st14" d="M594.5892944,290.0507813v30.0263062c0,6.391571-5.2267456,11.6183167-11.6182861,11.6183167h-71.9994202
		c-6.3915405,0-11.6282349-5.2267456-11.6282349-11.6183167v-30.0263062c0-6.39151,5.2366943-11.6182556,11.6282349-11.6182556
		h71.9994202C589.3625488,278.4325256,594.5892944,283.6592712,594.5892944,290.0507813z"/>
	<line class="st13" x1="500.5081482" y1="382.4693298" x2="500.5081482" y2="597.0141602"/>
	<polyline class="st13" points="659.3708496,576.435791 604.0073853,576.435791 500.010376,576.435791 395.9536438,576.435791 	"/>
	<g>
		<path class="st7" d="M674.2232666,576.0973511c0,1.7124023-0.0199585,3.4049072-0.0797119,5.09729v0.0199585
			c-0.2090454,7.2975464-0.8660278,14.4656372-1.9612427,21.5142212c-0.0099487,0.0995483-0.0199585,0.1891479-0.0396118,0.2886963
			C661.350647,672.309021,609.571167,728.2200928,542.4597778,745.0849609
			c-0.2489014,0.0597534-0.5075073,0.1294556-0.7564087,0.189209h-0.0101929
			c-13.3704224,3.2952881-27.3282471,5.0474854-41.6942444,5.0474854c-88.3267212,0-161.500946-66.0558472-172.730957-151.3660278
			c-0.0099792-0.0597534-0.0199585-0.1294556-0.0199585-0.1891479c-0.1791077-1.3540039-0.3383179-2.7080078-0.487793-4.0718994
			c0-0.039856-0.0099792-0.0796509-0.0099792-0.1294556c-0.129303-1.2245483-0.2489014-2.4490356-0.3485413-3.673584
			c-0.258606-3.0166016-0.4280396-6.0630493-0.5274353-9.1293945c5.1370239-0.0198975,10.1049194-0.1294556,14.9335022-0.3186035
			c0.1691895,5.2068481,0.5971985,10.4534912,1.2644043,15.56073c0.0595398,0.4679565,0.129303,0.9358521,0.1890869,1.3937988
			c11.0010681,78.1918945,78.5601501,136.9901123,157.7376709,136.9901123c12.8726501,0,25.7055969-1.5531006,38.1203308-4.6193848
			l0.6669312-0.1593628c30.0960083-7.5562744,57.1955566-23.7044678,78.3909912-46.7319336
			c21.076355-22.8880615,34.8648071-51.0327759,39.932312-81.4772339c0.0996704-0.5574951,0.1890869-1.124939,0.2788086-1.6924438
			c1.0155029-6.4911499,1.6226807-13.121582,1.8217163-19.722168v-0.0199585l0.0099487-0.3085938
			c0.0498657-1.3439941,0.0697632-2.7875977,0.0697632-4.5597534c0-11.3494263-1.2045898-22.6790161-3.5841064-33.6899414
			c-0.7564087-3.5144043-1.6426392-7.0088501-2.6481323-10.4634399c-0.7965088-2.7875977-1.6724854-5.5453491-2.6281738-8.2631836
			c-1.31427-3.7633057-2.7677612-7.4667969-4.350769-11.0806885c7.2278442,2.1603394,13.4899902,4.8085327,19.0054932,7.7853394
			c2.0808105,6.1426392,3.8230591,12.4346313,5.2167358,18.8659668c0.0996704,0.4579468,0.1990967,0.9060059,0.2887573,1.3639526
			C672.968811,552.0842896,674.2232666,563.951416,674.2232666,576.0973511z"/>
		<path class="st15" d="M674.2232666,576.0973511c0,1.7124023-0.0199585,3.4049072-0.0797119,5.09729v0.0199585
			c-0.2090454,7.2975464-0.8660278,14.4656372-1.9612427,21.5142212c-0.0099487,0.0995483-0.0199585,0.1891479-0.0396118,0.2886963
			C661.350647,672.309021,609.571167,728.2200928,542.4597778,745.0849609
			c-0.2489014,0.0597534-0.5075073,0.1294556-0.7564087,0.189209h-0.0101929
			c-13.3704224,3.2952881-27.3282471,5.0474854-41.6942444,5.0474854c-88.3267212,0-161.500946-66.0558472-172.730957-151.3660278
			c-0.0099792-0.0597534-0.0199585-0.1294556-0.0199585-0.1891479c5.1669617-0.039856,10.1647339-0.1593018,15.0132446-0.3684082
			c11.0010681,78.1918945,78.5601501,136.9901123,157.7376709,136.9901123c12.8726501,0,25.7055969-1.5531006,38.1203308-4.6193848
			l0.6669312-0.1593628c30.0960083-7.5562744,57.1955566-23.7044678,78.3909912-46.7319336
			c21.076355-22.8880615,34.8648071-51.0327759,39.932312-81.4772339c0.0996704-0.5574951,0.1890869-1.124939,0.2788086-1.6924438
			c1.0155029-6.4911499,1.6226807-13.121582,1.8217163-19.722168v-0.0199585l0.0099487-0.3085938
			c0.0498657-1.3439941,0.0697632-2.7875977,0.0697632-4.5597534c0-11.3494263-1.2045898-22.6790161-3.5841064-33.6899414
			c-0.7564087-3.5144043-1.6426392-7.0088501-2.6481323-10.4634399c6.6802368,2.4989014,12.4445801,5.4457397,17.5320435,8.6713867
			C672.968811,552.0842896,674.2232666,563.951416,674.2232666,576.0973511z"/>
		<path class="st9" d="M674.1435547,581.2145996c-0.2090454,7.2975464-0.8660278,14.4656372-1.9612427,21.5142212
			c-0.0099487,0.0995483-0.0199585,0.1891479-0.0396118,0.2886963
			C661.350647,672.309021,609.571167,728.2200928,542.4597778,745.0849609
			c-0.2489014,0.0597534-0.5075073,0.1294556-0.7564087,0.189209h-0.0101929
			c-13.3704224,3.2952881-27.3282471,5.0474854-41.6942444,5.0474854c-88.3267212,0-161.500946-66.0558472-172.730957-151.3660278
			c-0.0099792-0.0597534-0.0199585-0.1294556-0.0199585-0.1891479c-0.1791077-1.3540039-0.3383179-2.7080078-0.487793-4.0718994
			c0-0.039856-0.0099792-0.0796509-0.0099792-0.1294556c-0.129303-1.2245483-0.2489014-2.4490356-0.3485413-3.673584
			c-0.258606-3.0166016-0.4280396-6.0630493-0.5274353-9.1293945v-0.0298462
			c-0.0697632-1.8716431-0.0996704-3.7532959-0.0996704-5.6349487c0-10.3140869,0.8959351-20.4091187,2.6182251-30.2254028
			c0.1893616-1.0253906,0.3784485-2.0509033,0.5775146-3.076355c1.4833984-7.6160278,3.4645691-15.0529785,5.9039001-22.2807007
			c5.5052795-2.927002,11.7474976-5.5354004,18.9356995-7.6559448c-1.3640442,3.1161499-2.6184692,6.2919312-3.7832031,9.5275269
			c-1.7422485,4.8484497-3.2455444,9.8063965-4.5099487,14.8339844c-0.7068176,2.7975464-1.3441162,5.6050415-1.8917236,8.4324951
			c-1.9313354,9.9456787-2.9169312,20.1900635-2.9169312,30.444397c0,1.7721558,0.0298767,3.4844971,0.0896912,5.1769409
			c0,0.0597534,0,0.1095581,0.0099487,0.1692505c0.1691895,5.2068481,0.5971985,10.4534912,1.2644043,15.56073
			c0.0595398,0.4679565,0.129303,0.9358521,0.1890869,1.3937988
			c11.0010681,78.1918945,78.5601501,136.9901123,157.7376709,136.9901123c12.8726501,0,25.7055969-1.5531006,38.1203308-4.6193848
			l0.6669312-0.1593628c30.0960083-7.5562744,57.1955566-23.7044678,78.3909912-46.7319336
			c21.076355-22.8880615,34.8648071-51.0327759,39.932312-81.4772339c0.0996704-0.5574951,0.1890869-1.124939,0.2788086-1.6924438
			c1.0155029-6.4911499,1.6226807-13.121582,1.8217163-19.722168v-0.0199585
			C664.0286865,581.1349487,669.0064697,581.2145996,674.1435547,581.2145996z"/>
		<path class="st11" d="M672.182312,602.7288208c-0.0099487,0.0995483-0.0199585,0.1891479-0.0396118,0.2886963
			C661.350647,672.309021,609.571167,728.2200928,542.4597778,745.0849609
			c-0.2489014,0.0597534-0.5075073,0.1294556-0.7564087,0.189209h-0.0101929
			c-13.3704224,3.2952881-27.3282471,5.0474854-41.6942444,5.0474854c-88.3267212,0-161.500946-66.0558472-172.730957-151.3660278
			c-0.0099792-0.0597534-0.0199585-0.1294556-0.0199585-0.1891479c-0.1791077-1.3540039-0.3383179-2.7080078-0.487793-4.0718994
			c0-0.039856-0.0099792-0.0796509-0.0099792-0.1294556c-0.129303-1.2245483-0.2489014-2.4490356-0.3485413-3.673584
			c-0.258606-3.0166016-0.4280396-6.0630493-0.5274353-9.1293945v-0.0298462
			c-0.0697632-1.8716431-0.0996704-3.7532959-0.0996704-5.6349487c0-10.3140869,0.8959351-20.4091187,2.6182251-30.2254028
			c4.9778442-3.2056885,10.612915-6.1426392,17.1239624-8.6514893c-0.7068176,2.7975464-1.3441162,5.6050415-1.8917236,8.4324951
			c-1.9313354,9.9456787-2.9169312,20.1900635-2.9169312,30.444397c0,1.7721558,0.0298767,3.4844971,0.0896912,5.1769409
			c0,0.0597534,0,0.1095581,0.0099487,0.1692505c0.1691895,5.2068481,0.5971985,10.4534912,1.2644043,15.56073
			c0.0595398,0.4679565,0.129303,0.9358521,0.1890869,1.3937988
			c11.0010681,78.1918945,78.5601501,136.9901123,157.7376709,136.9901123c12.8726501,0,25.7055969-1.5531006,38.1203308-4.6193848
			l0.6669312-0.1593628c30.0960083-7.5562744,57.1955566-23.7044678,78.3909912-46.7319336
			c21.076355-22.8880615,34.8648071-51.0327759,39.932312-81.4772339
			C661.9777222,602.5993652,666.9954224,602.7089233,672.182312,602.7288208z"/>
	</g>
	<rect x="431.9598389" y="331.6928406" class="st16" width="136.0619202" height="27.4648266"/>
	<rect x="461.8239136" y="331.683197" class="st17" width="76.3250275" height="27.4648266"/>
	<path class="st2" d="M473.3360901,399.8446655v17.7429199h-18.0203247v-9.408783
		c0-0.2960815,0.2073975-0.5424194,0.4941711-0.6160889c3.4351501-0.8822632,6.0124817-4.0001831,6.0124817-7.7180481H473.3360901z"
		/>
	<path class="st2" d="M526.6346436,399.8446655v17.7429199h18.0203247v-9.408783
		c0-0.2960815-0.2073975-0.5424194-0.4941406-0.6160889c-3.4351807-0.8822632-6.0125122-4.0001831-6.0125122-7.7180481H526.6346436z
		"/>
</g>
</svg>
