<?xml version="1.0" encoding="utf-8"?>
<!-- Generator: Adobe Illustrator 22.1.0, SVG Export Plug-In . SVG Version: 6.00 Build 0)  -->
<svg version="1.1" id="Layer_1" xmlns="http://www.w3.org/2000/svg" xmlns:xlink="http://www.w3.org/1999/xlink" x="0px" y="0px"
	 viewBox="0 0 1000 1000" style="enable-background:new 0 0 1000 1000;" xml:space="preserve">
<style type="text/css">
	.st0{fill:#F3F7DE;}
	.st1{fill:#9ED3D7;}
	.st2{fill:#AADCD9;}
	.st3{fill:#AF45B6;}
	.st4{fill:#C4E5DC;}
	.st5{fill:#9735A5;}
	.st6{fill:#BD4EC6;}
	.st7{fill:#842E93;}
	.st8{fill:#FFDD9D;}
	.st9{fill:#FFC98F;}
	.st10{fill:#DDEEDB;}
	.st11{fill:#CC60D8;}
	.st12{fill:#E7EAD0;}
	.st13{fill:#81C6CB;}
</style>
<g>
	<path class="st0" d="M690.4699707,767.4703979H309.5300293c-38.0700684,0-61.8701172-41.2202148-42.8300781-74.1899414
		L425.1098633,418.920105c4.0800781-7.0698242,6.2199707-15.079834,6.2199707-23.2397461v-74.8200684h137.3400879v74.8200684
		c0,8.1599121,2.1501465,16.1699219,6.2299805,23.2397461l158.4001465,274.3603516
		C752.3400879,726.2501831,728.5400391,767.4703979,690.4699707,767.4703979z"/>
	<path class="st1" d="M711.6499023,730.2404175c-2.119873,3.6796875-8.4399414,12.2299805-21.1799316,12.2299805H309.5300293
		c-12.7399902,0-19.0600586-8.550293-21.1801758-12.2299805c-2.119873-3.6801758-6.369873-13.4204102,0-24.4599609
		l67.9101563-117.6303711l8.3198242-14.3999023l0.5700684-0.9799805l0.8100586-1.4099121l4.8898926-8.4899902l23.2001953-40.1801758
		l9.0297852-15.6298828l0.0800781-0.1499023l43.5900879-75.5c6.2700195-10.8500977,9.579834-23.2001953,9.579834-35.7299805
		v-49.8200684h87.3400879v49.8200684c0,12.5297852,3.3100586,24.8798828,9.5800781,35.7299805l43.5900879,75.5l0.079834,0.1499023
		l9.0300293,15.6298828l23.1999512,40.1801758l4.8901367,8.4899902l0.8098145,1.4099121l0.5700684,0.9799805l8.3200684,14.3999023
		l67.9099121,117.6303711C718.0200195,716.8200073,713.7700195,726.5602417,711.6499023,730.2404175z"/>
	<path class="st2" d="M309.5335693,727.47229c-3.6259766,0-6.3789063-1.5869141-8.1816406-4.7167969
		c-1.8154297-3.1494141-1.8164063-6.3378906-0.0058594-9.4765625l77.6074219-134.4130859l4.8984375-8.5068359
		l75.8916016-131.4462585c7.5810547-13.1171875,11.5898438-28.0673828,11.5898438-43.2294922v-34.8203125h57.3398438v34.8203125
		c0,15.1601563,4.0087891,30.1103516,11.5927734,43.234375l75.8974609,131.4550476l6.2685547,10.8789063l76.2314453,132.03125
		c1.8085938,3.1347656,1.8076172,6.3232422-0.0068359,9.4716797c-1.8037109,3.1308594-4.5566406,4.7177734-8.1826172,4.7177734
		H309.5335693z"/>
	<path class="st3" d="M711.6536865,730.2427979c-2.1201172,3.6801758-8.4399414,12.2299805-21.1801758,12.2299805H309.5335693
		c-12.7399902,0-19.0600586-8.5498047-21.1799316-12.2299805c-2.1201172-3.6799316-6.3701172-13.4199219,0-24.4599609
		l67.9099121-117.6298828l8.3200684-14.3999023l0.5700684-0.9802246
		c25.4199219-1.3999023,45.6098633-5.4599609,62.8398438-10.9499512c4.6501465-1.4799805,9.0800781-3.0698242,13.3400879-4.7299805
		c15.0700684-5.8798828,27.9899902-12.75,40.7299805-19.5200195c3.6101074-1.9199219,7.3400879-3.9099121,11.0400391-5.8198242
		c2.2700195-1.1801758,4.5700684-2.3500977,6.8999023-3.5102539c10.6501465-5.2998047,22.0300293-10.329834,35.1201172-14.1999512
		c3.0300293-0.8898926,6.1398926-1.7099609,9.3598633-2.4499207c12.4899902-2.9299316,26.5300293-4.7299805,42.8000488-4.7299805
		h0.4101563c3.1298828,0,6.2099609,0.0700684,9.2299805,0.1999512l9.0297852,15.6300964l23.2001953,40.1799316l4.8898926,8.4899902
		l0.8100586,1.4099121l0.5700684,0.9802246l8.3198242,14.3999023l67.9101563,117.6298828
		C718.0235596,716.822876,713.7735596,726.5628662,711.6536865,730.2427979z"/>
	<path class="st4" d="M475.7540894,479.103302l-99.7984619,172.8560486
		c-11.1046448,19.2337646,2.7761536,43.276001,24.9854431,43.276001h199.5969543
		c22.2092285,0,36.0900269-24.0422363,24.9854126-43.276001L525.7249756,479.103302
		C514.6203613,459.8695068,486.8587341,459.8695068,475.7540894,479.103302z"/>
	<path class="st5" d="M711.6536865,730.2427979c-2.1201172,3.6801758-8.4399414,12.2299805-21.1801758,12.2299805H309.5335693
		c-12.7399902,0-19.0600586-8.5498047-21.1799316-12.2299805c-2.1201172-3.6799316-6.3701172-13.4199219,0-24.4599609
		l67.9099121-117.6298828c23.9199219-0.6699219,43.7399902-3.5200195,60.8100586-7.7001953
		c4.4099121-1.0698242,8.6298828-2.2299805,12.6899414-3.4697266c28.6601563-8.7299805,49.3601074-21.1000977,70.2399902-31.9101563
		c13.4602051-6.9799805,27.0100098-13.3000488,42.8100586-17.5800781c3.0400391-0.8198242,6.1699219-1.5698242,9.4001465-2.2299805
		c10.5698242-2.1699219,22.1999512-3.4199219,35.4499512-3.3999023c6.5898438,0.0100098,12.6699219,0.3000488,18.2897949,0.8300781
		l23.2001953,40.1799316l4.8898926,8.4899902l1.380127,2.3901367l8.3198242,14.3999023l67.9101563,117.6298828
		C718.0235596,716.822876,713.7735596,726.5628662,711.6536865,730.2427979z"/>
	<path class="st6" d="M600.5435791,695.2330322H400.9437256c-22.2102051,0-36.0900879-24.0400391-24.9902344-43.2700195
		l52.0400391-90.1401367c4.6501465-1.4799805,9.0800781-3.0698242,13.3400879-4.7299805
		c15.0700684-5.8798828,27.9899902-12.75,40.7299805-19.5200195c3.6101074-1.9199219,7.3400879-3.9099121,11.0400391-5.8198242
		c2.2700195-1.1801758,4.5700684-2.3500977,6.8999023-3.5102539c10.6501465-5.2998047,22.0300293-10.329834,35.1201172-14.1999512
		c3.0300293-0.8898926,6.1398926-1.7099609,9.3598633-2.4499207l81.0400391,140.3700867
		C636.633667,671.1929932,622.7435303,695.2330322,600.5435791,695.2330322z"/>
	<path class="st3" d="M600.5383301,695.2330322H400.9382629c-22.2099609,0-36.0900879-24.0400391-24.9799805-43.2700195
		l41.2800293-71.5102539c4.4099121-1.0698242,8.6298828-2.2299805,12.6899414-3.4697266
		c28.6601563-8.7299805,49.3601074-21.1000977,70.2399902-31.9101563
		c13.4601746-6.9799805,27.0099792-13.3000488,42.8100281-17.5800781c3.0400391-0.8198242,6.1699219-1.5698242,9.4001465-2.2299805
		l73.1398926,126.7001953C636.628418,671.1929932,622.748291,695.2330322,600.5383301,695.2330322z"/>
	<path class="st6" d="M711.6536865,730.2427979c-2.1201172,3.6801758-8.4399414,12.2299805-21.1801758,12.2299805H309.5335693
		c-12.7399902,0-19.0600586-8.5498047-21.1799316-12.2299805c-2.1201172-3.6799316-6.3701172-13.4199219,0-24.4599609
		l67.9099121-117.6298828l8.3200684-14.3999023l0.5700684-0.9802246l0.8100586-1.4099121l4.8898926-8.4899902l23.1999512-40.1799316
		l9.0300293-15.6300964c3.0200195-0.1298828,6.0998535-0.1999512,9.2399902-0.1999512h0.3999023
		c16.8400879,0,31.2800293,1.9199219,44.1000977,5.0200195c2.9499512,0.7199402,5.8200684,1.4999695,8.6098633,2.3300476
		c12.8601074,3.8398438,24.0700684,8.7998047,34.5700684,14.0297852c2.3300781,1.1601563,4.630127,2.3300781,6.9001465,3.5102539
		c3.6899414,1.9099121,7.4299316,3.8999023,11.0400391,5.8198242c12.9799805,6.8999023,26.1499023,13.8999023,41.579834,19.8500977
		c4.5500488,1.7600098,9.2900391,3.4199219,14.2800293,4.9599609c16.8300781,5.1999512,36.5,9.0400391,61.0500488,10.3898926
		l0.5700684,0.9802246l8.3198242,14.3999023l67.9101563,117.6298828
		C718.0235596,716.822876,713.7735596,726.5628662,711.6536865,730.2427979z"/>
	<path class="st3" d="M711.6536865,730.2427979c-2.1201172,3.6801758-8.4399414,12.2299805-21.1801758,12.2299805H309.5335693
		c-12.7399902,0-19.0600586-8.5498047-21.1799316-12.2299805c-2.1201172-3.6799316-6.3701172-13.4199219,0-24.4599609
		l67.9099121-117.6298828l8.3200684-14.3999023l1.380127-2.3901367l4.8898926-8.4899902l23.1999512-40.1799316
		c5.6201172-0.5300293,11.6999512-0.8200684,18.2900391-0.8300781c13.7199707-0.0200195,25.7099609,1.3200684,36.5800781,3.6298828
		c3,0.6401367,5.9199219,1.3601074,8.7597656,2.1401367c15.5900879,4.2700195,29,10.5400391,42.3200684,17.4399414
		c21.0500488,10.8999023,41.920166,23.3798828,70.9299316,32.1201172c4.3000488,1.2998047,8.7802734,2.5097656,13.4702148,3.6298828
		c0,0,0,0,0.0100098,0c16.7299805,3.9799805,36.0998535,6.6801758,59.329834,7.3300781l67.9101563,117.6298828
		C718.0235596,716.822876,713.7735596,726.5628662,711.6536865,730.2427979z"/>
	<path class="st5" d="M711.6536865,730.2427979c-2.1201172,3.6801758-8.4399414,12.2299805-21.1801758,12.2299805H309.5335693
		c-12.7399902,0-19.0600586-8.5498047-21.1799316-12.2299805c-2.1201172-3.6799316-6.3701172-13.4199219,0-24.4599609
		l67.9099121-117.6298828l8.3200684-14.3999023l0.5700684-0.9802246c6.3999023-0.3498535,12.4699707-0.869873,18.2399902-1.5500488
		l-4.4001465,7.6401367l-4.8100586,8.3398438L301.383667,713.2828369c-1.8100586,3.130127-1.8100586,6.3200684,0.0100098,9.4702148
		c1.8000488,3.1298828,4.5598145,4.7197266,8.1799316,4.7197266h380.9399414c3.630127,0,6.380127-1.5898438,8.1801758-4.7197266
		c1.8198242-3.1501465,1.8198242-6.3400879,0.0097656-9.4702148l-72.7897949-126.0800781l-3.4401855-5.949707l-5.7700195-10.0102539
		l-0.5-0.869873l-28.0097656-48.5100098l-8.5800781-14.8598328c2.5-0.0900879,5.0600586-0.1401367,7.6699219-0.1401367h0.4101563
		c3.1298828,0,6.2099609,0.0700684,9.2299805,0.1999512l9.0297852,15.6300964l23.2001953,40.1799316l4.8898926,8.4899902
		l0.8100586,1.4099121l0.5700684,0.9802246l8.3198242,14.3999023l67.9101563,117.6298828
		C718.0235596,716.822876,713.7735596,726.5628662,711.6536865,730.2427979z"/>
	<path class="st7" d="M711.6536865,730.2427979c-2.1201172,3.6801758-8.4399414,12.2299805-21.1801758,12.2299805H309.5335693
		c-12.7399902,0-19.0600586-8.5498047-21.1799316-12.2299805c-2.1201172-3.6799316-6.3701172-13.4199219,0-24.4599609
		l67.9099121-117.6298828c6.25-0.1699219,12.2099609-0.5,17.9199219-0.9501953L301.383667,713.2828369
		c-1.8100586,3.130127-1.8100586,6.3200684,0.0100098,9.4702148c1.8000488,3.1298828,4.5598145,4.7197266,8.1799316,4.7197266
		h380.9399414c3.630127,0,6.380127-1.5898438,8.1801758-4.7197266c1.8198242-3.1501465,1.8198242-6.3400879,0.0097656-9.4702148
		l-72.7897949-126.0800781l-3.4401855-5.949707l-5.7700195-10.0102539l-0.5-0.869873l-28.0097656-48.5100098
		c6.3898926,0.0300293,12.2897949,0.3100586,17.7597656,0.8300781l23.2001953,40.1799316l4.8898926,8.4899902l0.8100586,1.4099121
		l0.5700684,0.9802246l8.3198242,14.3999023l67.9101563,117.6298828
		C718.0235596,716.822876,713.7735596,726.5628662,711.6536865,730.2427979z"/>
	<path class="st3" d="M711.6536865,730.2427979c-2.1201172,3.6801758-8.4399414,12.2299805-21.1801758,12.2299805H309.5335693
		c-12.7399902,0-19.0600586-8.5498047-21.1799316-12.2299805c-2.1201172-3.6799316-6.3701172-13.4199219,0-24.4599609
		l67.9099121-117.6298828l8.3200684-14.3999023l0.5700684-0.9802246l0.8100586-1.4099121l4.8898926-8.4899902l23.1999512-40.1799316
		l9.0300293-15.6300964c3.0200195-0.1298828,6.0998535-0.1999512,9.2399902-0.1999512h0.3999023
		c2.6401367,0,5.2299805,0.0500488,7.75,0.1401367l-8.579834,14.8598328l-28,48.5l-0.5,0.8598633l-4.4001465,7.6401367
		l-4.8100586,8.3398438L301.383667,713.2828369c-1.8100586,3.130127-1.8100586,6.3200684,0.0100098,9.4702148
		c1.8000488,3.1298828,4.5598145,4.7197266,8.1799316,4.7197266h380.9399414c3.630127,0,6.380127-1.5898438,8.1801758-4.7197266
		c1.8198242-3.1501465,1.8198242-6.3400879,0.0097656-9.4702148l-72.7897949-126.0800781l-3.4401855-5.949707l-5.7700195-10.0102539
		c5.7402344,0.670166,11.7800293,1.1801758,18.1501465,1.5300293l0.5700684,0.9802246l8.3198242,14.3999023l67.9101563,117.6298828
		C718.0235596,716.822876,713.7735596,726.5628662,711.6536865,730.2427979z"/>
	<path class="st5" d="M711.6536865,730.2427979c-2.1201172,3.6801758-8.4399414,12.2299805-21.1801758,12.2299805H309.5335693
		c-12.7399902,0-19.0600586-8.5498047-21.1799316-12.2299805c-2.1201172-3.6799316-6.3701172-13.4199219,0-24.4599609
		l67.9099121-117.6298828l37.7900391-65.4599609c5.4899902-0.5200195,11.4199219-0.8100586,17.8400879-0.8300781
		L301.383667,713.2828369c-1.8100586,3.130127-1.8100586,6.3200684,0.0100098,9.4702148
		c1.8000488,3.1298828,4.5598145,4.7197266,8.1799316,4.7197266h380.9399414c3.630127,0,6.380127-1.5898438,8.1801758-4.7197266
		c1.8198242-3.1501465,1.8198242-6.3400879,0.0097656-9.4702148l-72.7897949-126.0800781
		c5.6799316,0.4602051,11.619873,0.7802734,17.829834,0.9501953l67.9101563,117.6298828
		C718.0235596,716.822876,713.7735596,726.5628662,711.6536865,730.2427979z"/>
	<path class="st1" d="M536.5153809,354.8629456l-0.2306519,76.75l-1.4793091-2.9599609
		c-15.4099121-26.6801758-53.9299011-26.6801758-69.3300476,0l-3.2998047,5.7199707v-79.5100098H536.5153809z"/>
	<g>
		<g>
			<path class="st8" d="M572.5847168,257.4310608l-8.9202271,49.5147095
				c0.0105591,6.5343933-2.0556641,12.4457397-5.3775024,16.6395569c-3.6171265,3.8625793-8.7596436,6.2906189-14.4342651,6.2998047
				l-90.4989319,0.1464844c-10.9192505,0.0176697-19.8632507-8.8974304-19.8809204-19.8167419l-8.9243469-54.3401337
				c-1.2494812-7.608078,1.8258972-15.4164734,8.2033691-19.7490845c3.1657104-2.1506653,6.9786682-3.4125977,11.0734558-3.41922
				l109.2407532-0.1768036c2.8371582-0.0045929,5.543335,0.5959015,7.9938965,1.6788635
				c4.7854614,2.1148224,8.3250122,6.2783051,10.1392822,11.1855927c0.7894287,2.1352692,1.3353882,4.4559174,1.5898438,6.8977203
				C572.9675903,254.0045013,572.8900146,255.7363739,572.5847168,257.4310608z"/>
			<path class="st9" d="M572.5940552,257.3789368l-8.9295654,49.5668335
				c0.0105591,6.5343933-2.0556641,12.4457397-5.3775024,16.6395569c-3.2492676,3.4689331-7.7164917,5.7730103-12.7025757,6.2110291
				c-0.5649414,0.0623169-1.1421509,0.0878296-1.7316895,0.0887756l-24.3688965,0.0394592
				c9.4577026-0.0153198,17.1790771-10.3453369,17.1586914-22.9350891l9.2874756-51.553299
				c-0.0203247-12.5897675-7.7750854-22.882431-17.2327881-22.8671265l24.3688965-0.039444
				c2.8371582-0.0045929,5.543335,0.5959015,7.9938965,1.6788788c4.7856445,2.1149139,8.3252563,6.2786865,10.1395264,11.186203
				c0.8624268,2.332962,1.4342041,4.8871765,1.652771,7.578949
				C572.9718018,254.4450531,572.8557739,255.9261017,572.5940552,257.3789368z"/>
			<circle class="st9" cx="480.803894" cy="293.1683655" r="13.0712318"/>
			<circle class="st9" cx="481.0809937" cy="249.6257172" r="7.3148012"/>
			<circle class="st9" cx="452.6153564" cy="264.3101196" r="14.3115673"/>
			<circle class="st9" cx="525.190918" cy="264.3101196" r="9.6788912"/>
		</g>
		<path class="st0" d="M598.1247559,306.1853027v31.4822388c0,6.7015076-5.4801636,12.1816711-12.1815796,12.1816711H414.0641479
			c-6.7014465,0-12.1816406-5.4801636-12.1816406-12.1816711v-31.4822388c0-6.7014465,5.4801941-12.1816101,12.1816406-12.1816101
			h171.8790283C592.6445923,294.0036926,598.1247559,299.4838562,598.1247559,306.1853027z"/>
		<path class="st10" d="M598.1247559,306.1853027v31.4822388c0,6.7015076-5.4801636,12.1816711-12.1815796,12.1816711h-75.4906616
			c-6.7014465,0-12.1920776-5.4801636-12.1920776-12.1816711v-31.4822388c0-6.7014465,5.4906311-12.1816101,12.1920776-12.1816101
			h75.4906616C592.6445923,294.0036926,598.1247559,299.4838562,598.1247559,306.1853027z"/>
	</g>
	<path class="st11" d="M600.5335693,695.2330322H400.9437256c-22.2102051,0-36.0900879-24.0400391-24.9902344-43.2700195
		l80.8701172-140.0800476c2.9499512,0.7199402,5.8200684,1.4999695,8.6098633,2.3300476
		c12.8601074,3.8398438,24.0700684,8.7998047,34.5700684,14.0297852c2.3300781,1.1601563,4.630127,2.3300781,6.9001465,3.5102539
		c3.6899414,1.9099121,7.4299316,3.8999023,11.0400391,5.8198242c12.9799805,6.8999023,26.1499023,13.8999023,41.579834,19.8500977
		c4.5500488,1.7600098,9.2900391,3.4199219,14.2800293,4.9599609l51.7199707,89.5800781
		C636.6236572,671.1929932,622.7435303,695.2330322,600.5335693,695.2330322z"/>
	<path class="st6" d="M603.7835693,695.0528564c-1.0698242,0.1201172-2.1699219,0.1801758-3.2900391,0.1801758H400.9036865
		c-22.2099609,0-36.0900879-24.0400391-24.9899902-43.2700195l31.5898438-54.7299805l23.6201172-40.9001465l17.8000488-30.8400879
		c3,0.6401367,5.9199219,1.3601074,8.7597656,2.1401367c15.5900879,4.2700195,29,10.5400391,42.3200684,17.4399414
		c21.0500488,10.8999023,41.920166,23.3798828,70.9299316,32.1201172c4.3000488,1.2998047,8.7802734,2.5097656,13.4702148,3.6298828
		c0,0,0,0,0.0100098,0l17.3198242,30.0100098l10.3601074,17.9399414v0.0100098l13.3898926,23.1801758
		c1.4301758,2.4799805,2.4401855,5.0297852,3.0800781,7.5998535
		C632.6236572,675.9727783,621.2935791,693.1229248,603.7835693,695.0528564z"/>
	<circle class="st5" cx="419.4486084" cy="576.862915" r="23.625"/>
	<circle class="st3" cx="467.6986084" cy="601.112915" r="16.625"/>
	<circle class="st3" cx="438.9486084" cy="638.362915" r="10.75"/>
	<circle class="st5" cx="623.9486084" cy="682.737915" r="23.625"/>
	<circle class="st3" cx="575.6986084" cy="658.487915" r="16.625"/>
	<circle class="st5" cx="604.4486084" cy="621.237915" r="10.75"/>
	<path class="st3" d="M443.0736084,576.862915c0,13.0500488-10.5800781,23.6201172-23.6201172,23.6201172
		c-4.3598633,0-8.4499512-1.1801758-11.9499512-3.25l23.6201172-40.9001465
		C438.2635498,560.3829346,443.0736084,568.0628662,443.0736084,576.862915z"/>
	<path class="st3" d="M603.7835693,695.0528564c-2.1899414-3.5800781-3.4599609-7.7998047-3.4599609-12.3100586
		c0-13.0498047,10.5800781-23.6298828,23.6298828-23.6298828c1.5800781,0,3.1201172,0.1599121,4.6101074,0.4499512
		C632.6236572,675.9727783,621.2935791,693.1229248,603.7835693,695.0528564z"/>
	<path class="st3" d="M612.0936279,628.7728271v0.0100098c-1.9399414,1.9799805-4.6499023,3.2001953-7.6401367,3.2001953
		c-5.9399414,0-10.7597656-4.8100586-10.7597656-10.7402344c0-5,3.4199219-9.2099609,8.0397949-10.4099121L612.0936279,628.7728271z
		"/>
	<rect x="431.329834" y="349.8502808" class="st12" width="137.3400879" height="29.5800781"/>
	<rect x="456.329834" y="349.8502808" class="st13" width="87.3400879" height="29.5800781"/>
</g>
</svg>
