<?xml version="1.0" encoding="utf-8"?>
<!-- Generator: Adobe Illustrator 22.1.0, SVG Export Plug-In . SVG Version: 6.00 Build 0)  -->
<svg version="1.1" id="Layer_1" xmlns="http://www.w3.org/2000/svg" xmlns:xlink="http://www.w3.org/1999/xlink" x="0px" y="0px"
	 viewBox="0 0 1000 1000" style="enable-background:new 0 0 1000 1000;" xml:space="preserve">
<style type="text/css">
	.st0{fill:#F3F7DE;}
	.st1{fill:#9ED3D7;}
	.st2{fill:#AADCD9;}
	.st3{fill:#FFDD9D;}
	.st4{fill:#FFC98F;}
	.st5{fill:#DDEEDB;}
	.st6{fill:#C4E5DC;}
	.st7{fill:#F487AE;}
	.st8{fill:#EA6E95;}
	.st9{fill:#ED759D;}
	.st10{fill:#DD5E8E;}
	.st11{fill:#FF99C3;}
	.st12{fill:#FFBDDB;}
	.st13{fill:#E7EAD0;}
	.st14{fill:#81C6CB;}
</style>
<g>
	<rect x="431.673584" y="299.6963806" class="st0" width="136.6700439" height="97.3300781"/>
	<path class="st0" d="M763.2600098,503.9876709c0,44.0400391-18.6799927,86.2998047-51.25,115.9599609l-0.3099976,0.2700195
		c0,0-114.0999756,114.1000977-145.8699951,145.8598633c-3,3-0.8699951,8.1201172,3.3699951,8.1201172h3.75
		c8.3200073,0,15.0599976,6.7397461,15.0599976,15.0600586v14.3398438c0,3.0898438-2.5,5.6000977-5.5999756,5.6000977H417.6199951
		c-3.0999756,0-5.6099854-2.5102539-5.6099854-5.6000977v-14.3300781c0-8.3198242,6.75-15.0698242,15.0700073-15.0698242h3.9699707
		c4.1500244,0,6.2300415-5.0102539,3.3000488-7.9399414c-31.5200195-31.5102539-146.0500488-146.0400391-146.0500488-146.0400391
		l-0.3099976-0.2700195c-32.5699463-29.6601563-51.25-71.9199219-51.25-115.9599609
		c0-86.4501953,70.3400269-156.7900391,156.8099976-156.7900391c12.9500122,0,25.7200317,1.5898438,38.0599976,4.6601563
		c0.0200195,0.0097656,0.0400391,0.0097656,0.0600586,0.0195313c10.3199463,2.5800781,20.3499756,6.2099609,29.9199829,10.8300781
		c13.6599731,6.590332,26.3900146,15.1801758,37.7999878,25.6298828c0.1500244,0.1303711,0.289978,0.2705078,0.4400024,0.4003906
		L500,388.8973389l0.1900024-0.1796875c19.4800415-17.9799805,42.9000244-30.5400391,68.1500244-36.840332
		c12.3499756-3.0898438,25.1400146-4.6796875,38.1099854-4.6796875
		C692.9200439,347.1976318,763.2600098,417.5374756,763.2600098,503.9876709z"/>
	<path class="st1" d="M738.2536011,503.9864197c0,4.5600586-0.2399902,9.1001282-0.710022,13.6001282
		c-0.6699829,6.4299316-1.8099976,12.7797852-3.4099731,19c-0.2600098,1.0297852-0.539978,2.0498047-0.8200073,3.0698242
		c-1.1300049,4.0100098-2.4400024,7.9599609-3.9400024,11.8300781c-4.25,11-9.9699707,21.4199219-17.0200195,30.9399414
		c-4.6300049,6.2700195-9.8399658,12.1499023-15.5799561,17.550293c-0.5300293,0.5-1.0599976,0.9897461-1.6000366,1.4794922
		l-0.6599731,0.590332L540.8735962,755.6866455c-10.8699951,10.8696289-25.3200073,16.8598633-40.7000122,16.8598633h-0.3499756
		c-15.3800049,0-29.8400269-5.9902344-40.710022-16.8598633L305.4735718,602.0465088l-0.6599731-0.590332
		c-3.8200073-3.4697266-7.4000244-7.1496582-10.75-11.0097656c-11.3400269-13.0600586-19.9500122-28.1899414-25.4299927-44.4399414
		c-1.3800049-4.1201172-2.5700073-8.3000488-3.5499878-12.5500488c-0.1799927-0.7900391-0.3500366-1.579834-0.5200195-2.369873
		c-0.4799805-2.2602539-0.8900146-4.5400391-1.25-6.8400879c-1.0499878-6.6599121-1.5800171-13.4399719-1.5800171-20.2600403
		c0-11.7399902,1.5400391-23.1201172,4.4299927-33.9499512c1.9100342-7.1401367,4.4000244-14.0400391,7.4200439-20.6501465
		c20.7999878-45.5,66.75-77.1899414,119.9599609-77.1899414c15.2700195,0,30.2300415,2.6201172,44.3000488,7.6499023
		c0.9899902-8.8198242,9.8899536-15.7099609,20.7199707-15.7099609c1.039978,0,2.0700073,0.0600586,3.0700073,0.1899414v-64.6298828
		h76.6699829v64.6298828c1.0100098-0.1298828,2.0400391-0.1899414,3.0900269-0.1899414
		c10.8299561,0,19.7299805,6.9001465,20.7199707,15.7202148c14.0800171-5.0302734,29.0499878-7.6601563,44.3300171-7.6601563
		c49.5299683,0,92.7700195,27.4499512,115.289978,67.9399414v0.0100098
		c3.6900024,6.630127,6.8200073,13.6101074,9.3300171,20.8701172
		C735.7235718,474.4864197,738.2536011,488.9463806,738.2536011,503.9864197z"/>
	<path class="st1" d="M738.2610474,503.9876709c0,4.5600586-0.2399902,9.0996094-0.710022,13.5996094
		c-0.6699829,6.4301758-1.8099976,12.7802734-3.4099731,19c-0.2600098,1.0302734-0.539978,2.050293-0.8200073,3.0703125
		c-1.1300049,4.0097656-2.4400024,7.9599609-3.9400024,11.8300781c-4.25,11-9.9699707,21.4199219-17.0200195,30.9399414
		c-4.6299438,6.2700195-9.8399658,12.1499023-15.5799561,17.5498047c-0.5300293,0.5-1.0599976,0.9902344-1.6000366,1.4799805
		l-0.6599731,0.590332L540.8810425,755.6873779c-10.8699951,10.8701172-25.3200073,16.8603516-40.7000122,16.8603516h-0.3499756
		c-15.3800049,0-29.8400269-5.9902344-40.710022-16.8603516L318.4910278,615.0574951l-13.0099487-13.0097656l-0.6600342-0.590332
		c-3.8200073-3.4697266-7.3999634-7.1499023-10.75-11.0097656c-11.3399658-13.0600586-19.9500122-28.1899414-25.4299927-44.4399414
		c-1.3800049-4.1201172-2.5700073-8.300293-3.5499878-12.550293c-0.1799927-0.7900391-0.3500366-1.5800781-0.5200195-2.3701172
		c-0.4799805-2.2597656-0.8900146-4.5395508-1.25-6.8398438c-1.0499878-6.6601563-1.5800171-13.4399414-1.5800171-20.2597656
		c0-11.7402344,1.5400391-23.1201172,4.4300537-33.9501953c1.9099731-7.1401367,4.3999634-14.0400391,7.4199829-20.6499023
		c20.7999878-45.5,66.75-77.1899414,119.9599609-77.1899414c33.2000122,0,64.9300537,12.3999023,89.3200073,34.9101563
		l17.1300049,15.7797852l17.1300049-15.7797852c24.3900146-22.5102539,56.1199951-34.9101563,89.3200073-34.9101563
		c49.5300293,0,92.7700195,27.449707,115.289978,67.9399414v0.0097656
		c3.6900024,6.6303711,6.8200073,13.6103516,9.3300171,20.8701172
		C735.7310791,474.4876709,738.2610474,488.9476318,738.2610474,503.9876709z"/>
	<path class="st2" d="M499.8311157,757.5472412c-11.3730469,0-22.0639648-4.4277344-30.1040039-12.4667969l-153.9375-153.9375
		l-0.9208984-0.8232422c-24.2324219-22.0888672-38.1274414-53.5507813-38.1274414-86.3320313
		c0-64.3984375,52.4003906-116.7900391,116.8095703-116.7900391c29.4248047,0,57.5332031,10.9853516,79.1469727,30.9335938
		l27.3032227,25.1503906l27.2924805-25.1416016c21.6245117-19.9570313,49.7329102-30.9423828,79.1577148-30.9423828
		c64.4091797,0,116.8095703,52.3916016,116.8095703,116.7900391c0,32.78125-13.8950195,64.2431641-38.1274414,86.3320313
		l-0.9208984,0.8232422L530.2744751,745.0814209c-8.0395508,8.0380859-18.7304688,12.4658203-30.1035156,12.4658203H499.8311157z"/>
	<path class="st2" d="M499.8154907,757.5472412c-11.3730469,0-22.0639648-4.4277344-30.1040039-12.4667969l-153.9375-153.9375
		l-0.9208984-0.8232422c-24.2324219-22.0888672-38.1274414-53.5507813-38.1274414-86.3320313
		c0-64.3984375,52.4003906-116.7900391,116.8095703-116.7900391c29.4248047,0,57.5332031,10.9853516,79.1469727,30.9335938
		l27.3032227,25.1503906l27.2924805-25.1416016c21.6245117-19.9570313,49.7329102-30.9423828,79.1577148-30.9423828
		c64.4091797,0,116.8095703,52.3916016,116.8095703,116.7900391c0,32.78125-13.8950195,64.2431641-38.1274414,86.3320313
		l-0.9208984,0.8232422L530.2588501,745.0814209c-8.0395508,8.0380859-18.7304688,12.4658203-30.1035156,12.4658203H499.8154907z"/>
	<g>
		<path class="st3" d="M570.9560547,214.6579437l-8.5455933,47.4350739
			c0.0101318,6.2599487-1.9692993,11.9230042-5.1516113,15.9407043c-3.46521,3.7003174-8.3917236,6.0263977-13.8280029,6.0352173
			l-86.6979675,0.1403198c-10.4606323,0.0169373-19.0289917-8.5237427-19.045929-18.984436l-8.5494995-52.0578308
			c-1.1970215-7.2885284,1.7492065-14.7689667,7.8588257-18.9196167c3.0327454-2.0603333,6.6855469-3.2692566,10.6083679-3.2756042
			l104.6525574-0.1693878c2.7180786-0.0043945,5.3105469,0.5708771,7.6581421,1.6083527
			c4.5844727,2.026001,7.9754028,6.0146179,9.713501,10.7158051c0.7562256,2.045578,1.2792358,4.2687531,1.5230713,6.608017
			C571.322876,211.3753052,571.2485352,213.0344391,570.9560547,214.6579437z"/>
		<path class="st4" d="M570.9650269,214.6080322l-8.5545654,47.4849854
			c0.0101318,6.2599487-1.9692993,11.9230042-5.1516113,15.9407043c-3.112793,3.3232117-7.392395,5.5305481-12.1690674,5.9501343
			c-0.5411987,0.0597229-1.0941772,0.0841675-1.6589355,0.085083l-23.3453979,0.0377808
			c9.0604858-0.014679,16.4575195-9.9108276,16.4380493-21.9718018l8.8973999-49.3880463
			c-0.0195313-12.0609894-7.4486084-21.9213715-16.5090942-21.9067078l23.3453979-0.0377808
			c2.7180786-0.0043945,5.3105469,0.5708771,7.6582031,1.6083679c4.5845947,2.0260925,7.9755859,6.0149841,9.713623,10.7163849
			c0.8262329,2.2349701,1.3740234,4.6819153,1.583374,7.2606354
			C571.3269043,211.797348,571.2157593,213.2162018,570.9650269,214.6080322z"/>
		<circle class="st4" cx="483.0300598" cy="248.8942719" r="12.5222359"/>
		<circle class="st4" cx="483.2955322" cy="207.1804352" r="7.0075769"/>
		<circle class="st4" cx="456.0254822" cy="221.2480774" r="13.7104769"/>
		<circle class="st4" cx="525.5527954" cy="221.2480774" r="9.2723751"/>
	</g>
	<path class="st0" d="M594.1734009,261.364502v30.1599731c0,6.4200439-5.25,11.6700439-11.6699829,11.6700439H417.8434143
		c-6.4199829,0-11.6699829-5.25-11.6699829-11.6700439V261.364502c0-6.4199829,5.25-11.6699829,11.6699829-11.6699829H582.503418
		C588.9234009,249.694519,594.1734009,254.944519,594.1734009,261.364502z"/>
	<path class="st5" d="M594.1734009,261.364502v30.1599731c0,6.4200439-5.25,11.6700439-11.6699829,11.6700439h-72.3199768
		c-6.4199829,0-11.6799927-5.25-11.6799927-11.6700439V261.364502c0-6.4199829,5.2600098-11.6699829,11.6799927-11.6699829
		h72.3199768C588.9234009,249.694519,594.1734009,254.944519,594.1734009,261.364502z"/>
	<circle class="st0" cx="555.6885376" cy="363.7353516" r="17.3509502"/>
	<path class="st0" d="M461.6210327,363.7376709c0,9.5898438-7.7699585,17.3598633-17.3599854,17.3598633
		c-4.960022,0-9.4299927-2.0800781-12.5899658-5.4101563c-2.960022-3.1196289-4.7700195-7.3198242-4.7700195-11.949707
		c0-4.6000977,1.789978-8.7802734,4.7099609-11.8798828c0.0200195,0.0097656,0.0400391,0.0097656,0.0600586,0.0195313v-0.0795898
		c3.1599731-3.3300781,7.6299438-5.4101563,12.5899658-5.4101563c9.2399902,0,16.789978,7.2202148,17.3300171,16.3198242
		C461.6110229,363.0477295,461.6210327,363.3875732,461.6210327,363.7376709z"/>
	<path class="st6" d="M650.0010376,517.6776123c0,17.4301758-7.3900146,34.1699219-20.2799683,45.9199219l-0.4899902,0.4399414
		l-113.210022,113.2099609c-4.2800293,4.2700195-9.960022,6.6298828-16.0100098,6.6298828h-0.1799927
		c-6.0499878,0-11.7399902-2.3598633-16.0200195-6.6298828l-82.0499878-82.0498047l-12.5800171-12.5800781l-18.3999634-18.3999023
		l-0.4899902-0.4399414c-12.8900146-11.75-20.2800293-28.4902344-20.2800293-45.9301758
		c0-5.1499023,0.6300049-10.1601563,1.8200073-14.9501953c6.710022-27.0600586,31.210022-47.1699219,60.3099976-47.1699219
		c15.6599731,0,30.6099854,5.840332,42.1099854,16.4501953l45.6700439,44.5200195l45.8399658-44.6899414
		c11.5-10.6201172,26.4500122-16.4599609,42.1099854-16.4599609c27.1100464,0,50.2200317,17.449707,58.6799927,41.7099609
		c1.6700439,4.7797852,2.7700195,9.8100586,3.2200317,15.0400391
		C649.9210815,514.067749,650.0010376,515.8675537,650.0010376,517.6776123z"/>
	<path class="st6" d="M650.0410767,517.6776123c0,17.4301758-7.3900146,34.1699219-20.2800293,45.9199219l-0.4899902,0.4399414
		l-113.210022,113.2099609c-4.2799683,4.2700195-9.9599609,6.6298828-16.0100098,6.6298828h-0.1799927
		c-6.0499878,0-11.7399902-2.3598633-16.0199585-6.6298828l-82.0599976-82.0600586
		c41.0999756-9.5698242,70.8399658-24.5795898,98.4099731-39.2099609
		c5.7299805-3.0400391,11.3599854-6.0600586,16.9799805-9.0200195
		c35.5500488-18.6699219,70.6600342-34.6201172,126.1700439-34.7197266c2.1900024,0,4.3499756,0.0200195,6.4599609,0.0600586
		C649.9610596,514.067749,650.0410767,515.8675537,650.0410767,517.6776123z"/>
	<path class="st7" d="M737.5510254,517.5872803c-0.6699829,6.4301758-1.8099976,12.7802734-3.4099731,19
		c-0.2600098,1.0302734-0.539978,2.050293-0.8200073,3.0703125c-1.1300049,4.0097656-2.4400024,7.9599609-3.9400024,11.8300781
		c-4.25,11-9.9699707,21.4199219-17.0200195,30.9399414c-4.6299438,6.2700195-9.8399658,12.1499023-15.5799561,17.5498047
		c-0.5300293,0.5-1.0599976,0.9902344-1.6000366,1.4799805l-0.6599731,0.590332L540.8810425,755.6873779
		c-10.8699951,10.8701172-25.3200073,16.8603516-40.7000122,16.8603516h-0.3499756
		c-15.3800049,0-29.8400269-5.9902344-40.710022-16.8603516L318.4910278,615.0574951l-13.0099487-13.0097656l-0.6600342-0.590332
		c-3.8200073-3.4697266-7.3999634-7.1499023-10.75-11.0097656l14.5900269-0.1103516
		c88.9499512-0.699707,136.1799927-21.9697266,184.4899902-47.6098633c2.2099609-1.1699219,4.3999634-2.3398438,6.5800171-3.5
		c3.5-1.8598633,6.9699707-3.7099609,10.4400024-5.5400391c36.4699707-19.1499023,74.0799561-36.3398438,133.1399536-36.449707
		h0.5400391C682.4810791,497.2376709,713.2110596,503.9075928,737.5510254,517.5872803z"/>
	<path class="st8" d="M308.7747803,605.3372803l150.3500366,150.3500977
		c10.8699951,10.8701172,25.3300171,16.8603516,40.7099609,16.8603516h0.3400269
		c15.3800049,0,29.8400269-5.9902344,40.710022-16.8603516l140.6300049-140.6298828l13.0099487-13.0097656l0.6600342-0.590332
		c16.7199707-15.2197266,29.0800171-34.3896484,36.1799927-55.449707c1.3800049-4.1201172,2.5700073-8.300293,3.5499878-12.550293
		c-19.5800171-12.3300781-47.3200073-21.2900391-91.5800171-21.2197266
		c-55.5099487,0.0996094-90.6199951,16.0498047-126.1699829,34.7197266c-5.6199951,2.9599609-11.25,5.9799805-16.9799805,9.0200195
		C455.3148193,579.7874756,404.704834,604.5872803,308.7747803,605.3372803z"/>
	<path class="st9" d="M737.5510254,517.5872803c-0.6699829,6.4301758-1.8099976,12.7802734-3.4099731,19
		c-0.2600098,1.0302734-0.539978,2.050293-0.8200073,3.0703125c-1.1300049,4.0097656-2.4400024,7.9599609-3.9400024,11.8300781
		c-4.25,11-9.9699707,21.4199219-17.0200195,30.9399414c-4.6299438,6.2700195-9.8399658,12.1499023-15.5799561,17.5498047
		c-0.5300293,0.5-1.0599976,0.9902344-1.6000366,1.4799805l-0.6599731,0.590332L540.8810425,755.6873779
		c-10.8699951,10.8701172-25.3200073,16.8603516-40.7000122,16.8603516h-0.3499756
		c-15.3800049,0-29.8400269-5.9902344-40.710022-16.8603516L318.4910278,615.0574951l-13.0099487-13.0097656l-0.6600342-0.590332
		c-3.8200073-3.4697266-7.3999634-7.1499023-10.75-11.0097656l14.5900269-0.1103516
		c2.0599976-0.0195313,4.0999756-0.0395508,6.1199951-0.0898438c0.0199585,0.0302734,0.0499878,0.050293,0.0700073,0.0703125
		l0.9199829,0.8295898l13.6400146,13.6401367c82.7799683-3.8798828,129.2299805-26.7700195,170.7699585-48.8100586
		c5.7300415-3.0400391,11.3600464-6.0600586,16.9800415-9.0200195
		c35.5499878-18.6699219,70.6599731-34.6201172,126.1699829-34.7197266
		c34.7799683-0.0600586,59.3599854,5.4697266,77.789978,13.8198242c0.9899902-5.0898438,1.6400146-10.2597656,1.9299927-15.4799805
		C728.1210327,512.6673584,732.9510498,514.9974365,737.5510254,517.5872803z"/>
	<path class="st10" d="M734.9110718,533.4573975c-0.9800415,4.25-2.1700439,8.4301758-3.5500488,12.550293
		c-7.0999756,21.0600586-19.4599609,40.2299805-36.1799927,55.449707l-0.6599731,0.590332L540.8810425,755.6873779
		c-10.8699951,10.8701172-25.3300171,16.8603516-40.7099609,16.8603516h-0.3400269
		c-15.3800049,0-29.8400269-5.9902344-40.710022-16.8603516L308.7710571,605.3372803
		c7.1199951-0.0498047,14-0.2397461,20.6400146-0.5498047l140.2999878,140.2900391
		c8.039978,8.0400391,18.7299805,12.4702148,30.0999756,12.4702148h0.3400269
		c11.3800049,0,22.0700073-4.4301758,30.1099854-12.4702148l153.9400024-153.9301758l0.9199829-0.8295898
		c18.7200317-17.0703125,31.2700195-39.7202148,36-64.2602539
		C726.151062,528.3275146,730.7210693,530.817749,734.9110718,533.4573975z"/>
	<path class="st11" d="M650.0010376,517.6776123c0,17.4301758-7.3900146,34.1699219-20.2799683,45.9199219l-0.4899902,0.4399414
		l-113.210022,113.2099609c-4.2800293,4.2700195-9.960022,6.6298828-16.0100098,6.6298828h-0.1799927
		c-6.0499878,0-11.7399902-2.3598633-16.0200195-6.6298828l-82.0499878-82.0498047l-12.5800171-12.5800781
		c0.0100098-0.0097656,0.0200195-0.0097656,0.0300293-0.0097656c41.9199829-8.5400391,72.7199707-23.300293,103.960022-39.8803711
		c2.2099609-1.1699219,4.3999634-2.3398438,6.5799561-3.5c3.5-1.8598633,6.9700317-3.7099609,10.4400024-5.5400391
		c36.4700317-19.1499023,74.0800171-36.3398438,133.1400146-36.449707h0.539978c0.9000244,0,1.7900391,0,2.6799927,0.0200195
		c1.6700439,4.7797852,2.7700195,9.8100586,3.2200317,15.0400391
		C649.9210815,514.067749,650.0010376,515.8675537,650.0010376,517.6776123z"/>
	<path class="st7" d="M649.7710571,512.2977295c0.1500244,1.7700195,0.2299805,3.5698242,0.2299805,5.3798828
		c0,17.4301758-7.3900146,34.1699219-20.2799683,45.9199219l-0.4899902,0.4399414l-113.210022,113.2099609
		c-4.2800293,4.2700195-9.960022,6.6298828-16.0100098,6.6298828h-0.1799927
		c-6.0499878,0-11.7399902-2.3598633-16.0200195-6.6298828l-82.0499878-82.0498047
		c0.0100098-0.0102539,0.0200195-0.0102539,0.0300293-0.0102539c41.0999756-9.5698242,70.8399658-24.5795898,98.4099731-39.2099609
		c5.7299805-3.0400391,11.3599854-6.0600586,16.9799805-9.0200195
		c35.5500488-18.6699219,70.6600342-34.6201172,126.1700439-34.7197266
		C645.5310669,512.2376709,647.6710815,512.2576904,649.7710571,512.2977295z"/>
	<path class="st11" d="M712.3610229,582.4276123c-4.6299438,6.2700195-9.8399658,12.1499023-15.5799561,17.5498047
		c-0.5300293,0.5-1.0599976,0.9902344-1.6000366,1.4799805l-0.6599731,0.590332L540.8810425,755.6873779
		c-10.8699951,10.8701172-25.3200073,16.8603516-40.7000122,16.8603516h-0.3499756
		c-15.3800049,0-29.8400269-5.9902344-40.710022-16.8603516L318.4910278,615.0574951l-13.0099487-13.0097656l-0.6600342-0.590332
		c-16.7199707-15.2197266-29.0800171-34.3896484-36.1799927-55.449707c-1.3800049-4.1201172-2.5700073-8.300293-3.5499878-12.550293
		c-0.1799927-0.7900391-0.3500366-1.5800781-0.5200195-2.3701172c-0.4799805-2.2597656-0.8900146-4.5395508-1.25-6.8398438
		c25.7399902-14.4199219,58.2700195-21.4599609,99.25-21.5400391h0.5300293c63.1099854,0,102.5899658,18.1201172,144.0799561,40
		l4.0200195,2.1201172c36.7000122,19.3901367,92.1699829,48.6899414,143.4500122,48.6899414
		C687.6260376,593.5174561,695.1610718,586.8973389,712.3610229,582.4276123z"/>
	<path class="st7" d="M266.6848145,539.6575928c1.1300049,4.0097656,2.4400024,7.9599609,3.9400024,11.8300781
		c7.3099976,18.8999023,18.9400024,36.0800781,34.2000122,49.9697266l0.6599731,0.590332l153.6400146,153.6396484
		c10.8699951,10.8701172,25.3300171,16.8603516,40.7099609,16.8603516h0.3400269
		c15.3800049,0,29.8400269-5.9902344,40.710022-16.8603516l153.3543701-153.3198242
		c-66.75,22.5-148.0744019-22.1499023-194.0543823-46.3901367c-38.960022-20.5498047-76.9000244-38.3696289-137.5900269-38.2700195
		C316.704834,517.7874756,287.454834,526.9276123,266.6848145,539.6575928z"/>
	<path class="st7" d="M694.1810303,602.3875732l-12.6699829,12.6699219L540.8810425,755.6873779
		c-10.8699951,10.8701172-25.3300171,16.8603516-40.7099609,16.8603516h-0.3400269
		c-15.3800049,0-29.8400269-5.9902344-40.710022-16.8603516L308.7710571,605.3372803l-3.289978-3.2895508l-0.6600342-0.590332
		c-0.5200195-0.4697266-1.039978-0.949707-1.5499878-1.4399414c-0.5200195-0.4799805-1.0300293-0.9697266-1.5300293-1.4599609
		c-1.6599731-1.6098633-3.2699585-3.2597656-4.8299561-4.949707c-0.1300049-0.1303711-0.2600098-0.2705078-0.3800049-0.4101563
		c-0.2900391-0.3100586-0.5800171-0.6298828-0.8699951-0.9501953c-0.1100464-0.1201172-0.2200317-0.2397461-0.3200073-0.3598633
		c-0.4299927-0.4799805-0.8500366-0.9599609-1.2700195-1.4399414l14.5900269-0.1103516
		c31.4299927-0.25,57.6499634-3.0595703,80.539978-7.7294922c37.7700195-7.7001953,66.5-20.4404297,94.6799927-35.0205078
		c5.460022,2.7202148,10.8699951,5.5302734,16.2999878,8.3901367
		c24.2000122,12.7602539,58.1799927,31.1601563,94.6799927,42.4599609
		C627.7010498,608.6077881,662.5710449,613.0174561,694.1810303,602.3875732z"/>
	<path class="st7" d="M729.2210693,551.8773193c0.1499634-0.3598633,0.2799683-0.7197266,0.4199829-1.0795898
		c-0.0800171,0.2299805-0.1699829,0.4599609-0.2600098,0.6899414
		C729.3310547,551.6175537,729.2810669,551.7474365,729.2210693,551.8773193z"/>
	<path class="st7" d="M733.2810669,539.77771c0.2299805-0.7900391,0.4400024-1.5800781,0.6499634-2.3701172
		c-0.1999512,0.75-0.3999634,1.5-0.6099854,2.25C733.3110352,539.6976318,733.3010254,539.7376709,733.2810669,539.77771z"/>
	<path class="st8" d="M694.1810303,602.3875732l-12.6699829,12.6699219L540.8810425,755.6873779
		c-10.8699951,10.8701172-25.3300171,16.8603516-40.7099609,16.8603516h-0.3400269
		c-15.3800049,0-29.8400269-5.9902344-40.710022-16.8603516L308.7710571,605.3372803
		c36.9899902-0.2895508,67.2399902-4.1499023,93.0100098-10.1499023
		c41.0899658-9.5795898,70.8299561-24.5795898,98.3999634-39.2099609
		c24.2000122,12.7602539,58.1799927,31.1601563,94.6799927,42.4599609
		C627.7010498,608.6077881,662.5710449,613.0174561,694.1810303,602.3875732z"/>
	<path class="st7" d="M712.3610229,582.4276123c-4.6299438,6.2700195-9.8399658,12.1499023-15.5799561,17.5498047
		c-0.5300293,0.5-1.0599976,0.9902344-1.6000366,1.4799805l-0.6599731,0.590332L540.8810425,755.6873779
		c-10.8699951,10.8701172-25.3200073,16.8603516-40.7000122,16.8603516h-0.3499756
		c-15.3800049,0-29.8400269-5.9902344-40.710022-16.8603516L318.4910278,615.0574951l-13.0099487-13.0097656l-0.6600342-0.590332
		c-16.7199707-15.2197266-29.0800171-34.3896484-36.1799927-55.449707c-1.3800049-4.1201172-2.5700073-8.300293-3.5499878-12.550293
		c-0.1799927-0.7900391-0.3500366-1.5800781-0.5200195-2.3701172c-0.4799805-2.2597656-0.8900146-4.5395508-1.25-6.8398438
		c4.5100098-2.5297852,9.2399902-4.8300781,14.1799927-6.8999023c0.5800171,5.1201172,1.5100098,10.1699219,2.7700195,15.1298828
		c17.2799683-7.8100586,39.5800171-13.2797852,69.7700195-14.5097656c4.039978-0.1601563,8.2199707-0.25,12.5499878-0.2602539
		c52.2299805-0.0898438,87.6099854,13.1000977,121.289978,29.8798828c5.460022,2.7202148,10.8699951,5.5302734,16.2999878,8.3901367
		c24.2000122,12.7602539,58.1799927,31.1601563,94.6799927,42.4599609c23.7900391,7.3701172,48.6400146,11.7099609,72.5400391,9.5
		l16.789978-16.7900391l0.3400269-0.3100586C695.3210449,588.5076904,702.1310425,585.0872803,712.3610229,582.4276123z"/>
	<path class="st7" d="M694.2410278,602.3675537L540.8810425,755.6873779
		c-10.8699951,10.8701172-25.3300171,16.8603516-40.7099609,16.8603516h-0.3400269
		c-15.3800049,0-29.8400269-5.9902344-40.710022-16.8603516L308.7710571,605.3372803l-3.289978-3.2895508l-0.6600342-0.590332
		c-0.5200195-0.4697266-1.039978-0.949707-1.5499878-1.4399414c-0.5200195-0.4799805-1.0300293-0.9697266-1.5300293-1.4599609
		c-1.6599731-1.6098633-3.2699585-3.2597656-4.8299561-4.949707c-0.1300049-0.1303711-0.2600098-0.2705078-0.3800049-0.4101563
		c-0.2900391-0.3100586-0.5800171-0.6298828-0.8699951-0.9501953c-0.1100464-0.1201172-0.2200317-0.2397461-0.3200073-0.3598633
		c-0.4299927-0.4799805-0.8500366-0.9599609-1.2700195-1.4399414
		c-10.0499878-11.5800781-17.9699707-24.7802734-23.4500122-38.9599609c-1.5-3.8701172-2.8099976-7.8203125-3.9400024-11.8300781
		c18.8099976-11.5302734,44.5800171-20.1098633,83.3600464-21.6899414c4.039978-0.1601563,8.2199707-0.25,12.5499878-0.2602539
		c52.2299805-0.0898438,87.6099854,13.1000977,121.289978,29.8798828c5.460022,2.7202148,10.8699951,5.5302734,16.2999878,8.3901367
		c24.2000122,12.7602539,58.1799927,31.1601563,94.6799927,42.4599609
		c32.8400269,10.1704102,67.710022,14.5800781,99.3200073,3.9501953
		C694.2010498,602.3773193,694.2210693,602.3773193,694.2410278,602.3675537z"/>
	<path class="st9" d="M694.2410278,602.3675537L540.8810425,755.6873779
		c-10.8699951,10.8701172-25.3300171,16.8603516-40.7099609,16.8603516h-0.3400269
		c-15.3800049,0-29.8400269-5.9902344-40.710022-16.8603516L308.7710571,605.3372803l-3.289978-3.2895508l-0.6600342-0.590332
		c-0.5200195-0.4697266-1.039978-0.949707-1.5499878-1.4399414c-0.5200195-0.4799805-1.0300293-0.9697266-1.5300293-1.4599609
		c-1.6599731-1.6098633-3.2699585-3.2597656-4.8299561-4.949707c-0.1300049-0.1303711-0.2600098-0.2705078-0.3800049-0.4101563
		c-0.2900391-0.3100586-0.5800171-0.6298828-0.8699951-0.9501953c-0.1100464-0.1201172-0.2200317-0.2397461-0.3200073-0.3598633
		c-0.4299927-0.4799805-0.8500366-0.9599609-1.2700195-1.4399414
		c-10.0499878-11.5800781-17.9699707-24.7802734-23.4500122-38.9599609c-1.5-3.8701172-2.8099976-7.8203125-3.9400024-11.8300781
		c4.1700439-2.5600586,8.6700439-4.9702148,13.5900269-7.1801758c5.5599976,22.0600586,17.5,42.2700195,34.5800171,57.840332
		l0.9199829,0.8295898l153.9299927,153.9301758c8.039978,8.0400391,18.7399902,12.4702148,30.1099854,12.4702148h0.3400269
		c11.3699951,0,22.0599976-4.4301758,30.0999756-12.4702148L667.401062,607.9373779
		c9.0999756-0.8295898,18.0599976-2.6196289,26.7799683-5.5498047
		C694.2010498,602.3773193,694.2210693,602.3773193,694.2410278,602.3675537z"/>
	<path class="st8" d="M733.9710693,537.2376709c0.1799927-0.6699219,0.3599854-1.340332,0.5100098-2.0200195
		c-0.1100464,0.4599609-0.2200317,0.9199219-0.3400269,1.3696289
		C734.0810547,536.7977295,734.0310669,537.0174561,733.9710693,537.2376709z"/>
	<path class="st8" d="M734.9110718,533.4573975c-0.0500488,0.2299805-0.1100464,0.4599609-0.1700439,0.6801758
		c0.0599976-0.2299805,0.1100464-0.4599609,0.1600342-0.6899414
		C734.901062,533.4573975,734.9110718,533.4573975,734.9110718,533.4573975z"/>
	<path class="st12" d="M606.901062,586.3675537l-90.8800049,90.8798828
		c-4.2800293,4.2700195-9.960022,6.6298828-16.0100098,6.6298828h-0.1799927
		c-6.0499878,0-11.7399902-2.3598633-16.0200195-6.6298828L370.7810669,564.2176514l-0.4899902-0.4399414
		c-12.8900146-11.75-20.2800293-28.4902344-20.2800293-45.9301758c0-5.1499023,0.6300049-10.1601563,1.8200073-14.9501953h0.0299683
		c3.5-0.1196289,7.0700073-0.1796875,10.710022-0.1899414h0.5300293c59.5199585,0,98.0199585,16.1201172,137.0199585,36.3100586
		c2.3500366,1.2099609,4.7000122,2.4501953,7.0599976,3.6899414l4.0200195,2.1201172
		c1.6300049,0.8598633,3.289978,1.7402344,4.9899902,2.6401367
		C541.0510254,560.567749,573.3710327,577.0975342,606.901062,586.3675537z"/>
	<path class="st11" d="M594.8610229,598.4373779l-78.8099976,78.8100586
		c-4.2699585,4.2700195-9.9599609,6.6298828-16.0099487,6.6298828h-0.1800537
		c-6.0499878,0-11.7399902-2.3598633-16.0199585-6.6298828l-8.2600098-8.2597656l-75.3499756-75.3500977l-29.4200439-29.4199219
		l-0.4899902-0.4399414c-1.9099731-1.7402344-3.710022-3.6000977-5.3599854-5.550293
		c-9.539978-11.1499023-14.8900146-25.449707-14.9199829-40.2597656c4.039978-0.1601563,8.2199707-0.25,12.5499878-0.2602539
		c52.2299805-0.0898438,87.6099854,13.1000977,121.289978,29.8798828c5.460022,2.7202148,10.8699951,5.5302734,16.2999878,8.3901367
		C524.3810425,568.7376709,558.3610229,587.1375732,594.8610229,598.4373779z"/>
	<circle class="st8" cx="382.1543884" cy="576.3675537" r="25"/>
	<circle class="st8" cx="393.8216553" cy="630.8147583" r="12.25"/>
	<circle class="st7" cx="430.8269043" cy="593.5738525" r="7.75"/>
	<path class="st7" d="M400.2310791,593.6375732l-29.4200439-29.4199219l-0.4899902-0.4399414
		c-1.9099731-1.7402344-3.710022-3.6000977-5.3599854-5.550293c9.789978-9.2998047,25.2700195-9.1401367,34.8699951,0.4599609
		C409.4610596,568.3275146,409.5910645,583.8475342,400.2310791,593.6375732z"/>
	<circle class="st8" cx="393.8216553" cy="630.8147583" r="12.25"/>
	<circle class="st8" cx="547.8344116" cy="645.4509277" r="17.6559906"/>
	<path class="st7" d="M560.3335571,632.9650269l-24.9700317,24.9702148c-4.8200073-4.800293-6.6199951-12.1704102-4-18.9101563
		c3.5400391-9.0898438,13.7700195-13.5898438,22.8599854-10.0600586
		C556.5935669,629.8849487,558.6435547,631.2648315,560.3335571,632.9650269z"/>
	<circle class="st8" cx="500.1677551" cy="682.9979248" r="28.2029724"/>
	<path class="st7" d="M524.4610596,668.8372803l-8.4100342,8.4101563
		c-4.2699585,4.2700195-9.9599609,6.6298828-16.0099487,6.6298828h-0.1800537
		c-6.0499878,0-11.7399902-2.3598633-16.0199585-6.6298828l-8.2600098-8.2597656
		c6.8099976-11.9399414,21.5100098-17.4003906,34.7000122-12.2802734
		C516.4910278,659.1175537,521.3510742,663.4876709,524.4610596,668.8372803z"/>
	<circle class="st7" cx="522.6935425" cy="608.7805176" r="9.1473341"/>
	<rect x="431.673584" y="303.1963806" class="st13" width="136.6700439" height="29.5800781"/>
	<rect x="461.633606" y="303.1963806" class="st14" width="76.6699829" height="29.5800781"/>
</g>
</svg>
