<?xml version="1.0" encoding="utf-8"?>
<!-- Generator: Adobe Illustrator 22.1.0, SVG Export Plug-In . SVG Version: 6.00 Build 0)  -->
<svg version="1.1" id="Layer_1" xmlns="http://www.w3.org/2000/svg" xmlns:xlink="http://www.w3.org/1999/xlink" x="0px" y="0px"
	 viewBox="0 0 1000 1000" style="enable-background:new 0 0 1000 1000;" xml:space="preserve">
<style type="text/css">
	.st0{fill:#F1F5D7;}
	.st1{fill:#B8E0D5;}
	.st2{fill:#D6EBD4;}
	.st3{fill:#F3F7DE;}
	.st4{fill:#C4E5DC;}
	.st5{fill:#DDEEDB;}
	.st6{fill:#AADCD9;}
	.st7{fill:#9ED3D7;}
	.st8{fill:#B4E548;}
	.st9{fill:#9FC634;}
	.st10{fill:#D1EF62;}
	.st11{fill:#8EAB22;}
	.st12{opacity:0.5;fill:#FFFFFF;}
</style>
<g>
	<path class="st0" d="M591.756897,177.5597687v22.6637726c0,4.7921906-4.7084961,8.7159576-10.4633789,8.7159576H418.755188
		c-5.7548523,0-10.4634094-3.9237671-10.4634094-8.7159576v-22.6637726c0-4.8026581,4.7085571-8.7264404,10.4634094-8.7264404
		h162.5383301C587.0484009,168.8333282,591.756897,172.7571106,591.756897,177.5597687z"/>
	<path class="st1" d="M591.756897,177.5597687v22.6637726c0,4.7921906-4.7084961,8.7159576-10.4633789,8.7159576H472.819519
		c-5.7548828,0-10.4634094-3.9237671-10.4634094-8.7159576v-22.6637726c0-4.8026581,4.7085266-8.7264404,10.4634094-8.7264404
		h108.473999C587.0484009,168.8333282,591.756897,172.7571106,591.756897,177.5597687z"/>
	<path class="st2" d="M551.9959717,177.5597687v22.6637726c0,4.7921906-4.7084961,8.7159576-10.4633789,8.7159576h-83.3618469
		c-5.7548828,0-10.4634094-3.9237671-10.4634094-8.7159576v-22.6637726c0-4.8026581,4.7085266-8.7264404,10.4634094-8.7264404
		h83.3618469C547.2874756,168.8333282,551.9959717,172.7571106,551.9959717,177.5597687z"/>
	<path class="st3" d="M669.8734131,361.4017639L596.1064453,816.026062
		c-1.4234009,8.7265625-8.9567261,15.140625-17.7985229,15.140625H421.691803c-0.7952271,0-1.569519-0.0523071-2.3437805-0.1569824
		c-7.7951965-1.0149536-14.1570129-7.0418701-15.4544678-14.9836426l-73.7669983-454.6242981
		c-3.9237671-24.1599731,14.7325745-46.0808105,39.2063599-46.0808105h261.3338928
		C655.1408691,315.3209534,673.7971802,337.2417908,669.8734131,361.4017639z"/>
	<path class="st4" d="M669.8734131,361.4017639L596.1064453,816.026062
		c-1.4234009,8.7265625-8.9567261,15.140625-17.7985229,15.140625h-81.980835c-0.7949829,0-1.569519-0.0523071-2.3435364-0.1569824
		c-7.7954407-1.0149536-14.1570129-7.0418701-15.4544678-14.9836426L404.762085,361.4017639
		c-3.9237671-24.1599731,14.7325745-46.0808105,39.2063599-46.0808105h186.6983643
		C655.1408691,315.3209534,673.7971802,337.2417908,669.8734131,361.4017639z"/>
	<path class="st5" d="M594.5369263,361.4017639L520.7699585,816.026062
		c-1.4234009,8.7265625-8.9567261,15.140625-17.7985229,15.140625h-6.6443481c-0.7949829,0-1.569519-0.0523071-2.3435364-0.1569824
		c-7.7954407-1.0149536-14.1570129-7.0418701-15.4544678-14.9836426L404.762085,361.4017639
		c-3.9237671-24.1599731,14.7325745-46.0808105,39.2063599-46.0808105h111.3618774
		C579.8043823,315.3209534,598.4606934,337.2417908,594.5369263,361.4017639z"/>
	<path class="st6" d="M644.0704956,357.2164001l-71.6742554,441.6706238
		c-0.5441284,3.3378296-3.2958984,5.838623-6.633667,6.0897217c-0.1885376,0.0209351-0.3770142,0.0314331-0.5650635,0.0314331
		H434.8234253c-0.219696,0-0.4498596-0.010498-0.6590576-0.0314331c-3.285675-0.2929688-5.9957886-2.7832642-6.5396423-6.0897217
		l-71.6742859-441.6706238c-0.8685608-5.3886108,1.5485535-9.1764221,3.0657043-10.9656372
		c1.5171204-1.7787781,4.8758545-4.7713013,10.32724-4.7713013h261.3341675c5.451416,0,8.8101196,2.9925232,10.3270264,4.7713013
		C642.5219727,348.039978,644.9390869,351.8277893,644.0704956,357.2164001z"/>
	<path class="st4" d="M476.7398682,805.0081787h-41.9164429c-0.219696,0-0.4498596-0.010498-0.6590576-0.0314331
		c-3.285675-0.2929688-5.9957886-2.7832642-6.5396423-6.0897217l-50.8627014-313.3892822l-2.5215759-15.5486755
		l-6.4770508-39.9283142l-2.5634766-15.7683411l-9.2494812-57.0360107
		c-0.8685608-5.3886108,1.5485535-9.1764221,3.0657043-10.9656372c1.5171204-1.7787781,4.8758545-4.7713013,10.32724-4.7713013
		h37.270752c-2.2288208,6.1419983-2.9821777,12.9327393-1.8520508,19.9223022L476.7398682,805.0081787z"/>
	<path class="st7" d="M644.0704956,357.2164001l-9.2601929,57.0569458l-9.0405273,55.6862183l-2.5213013,15.548584
		l-50.8522339,313.3788757c-0.5441284,3.3378296-3.2958984,5.838623-6.633667,6.0897217
		c-0.1885376,0.0209351-0.3770142,0.0314331-0.5650635,0.0314331h-42.6491089l71.9777832-443.6064148
		c1.130127-6.989563,0.3765869-13.780304-1.8519897-19.9223022h38.0033569c5.451416,0,8.8101196,2.9925232,10.3270264,4.7713013
		C642.5219727,348.039978,644.9390869,351.8277893,644.0704956,357.2164001z"/>
	<path class="st4" d="M630.7715454,251.721756c0.0102539,4.4992523-1.7370605,8.7369843-4.9072266,11.9178314
		c-3.0761719,3.0762329-7.1358643,4.8236084-11.4785767,4.9387512c-0.1359253,0.0104065-0.2825317,0.0104065-0.418457,0.0104065
		H383.5737c-9.2497253,0-14.6068726-7.1464539-14.6278076-16.406601l-0.0838013-43.6324005
		c-0.0104675-4.4992523,1.7370911-8.7264404,4.9072876-11.9072876c3.1704407-3.1809235,7.387207-5.3049469,11.8865356-5.3154297
		H614.637085c8.9981079,0.3976135,16.0404663,7.7638245,16.0507202,16.7623291L630.7715454,251.721756z"/>
	<path class="st3" d="M572.1765137,251.7243652c0.0102539,4.4992676-1.7370605,8.7369995-4.9072876,11.9178467
		c-3.0761719,3.0762329-7.1358032,4.8236084-11.4785767,4.9386902c-0.1358643,0.0104675-0.2825317,0.0104675-0.418396,0.0104675
		H383.5737c-9.2497253,0-14.6068726-7.1464539-14.6278076-16.406601l-0.0838013-43.6324005
		c-0.0104675-4.4992523,1.7370911-8.7264404,4.9072876-11.9073639c3.1704407-3.1808472,7.387207-5.3048859,11.8865356-5.3153534
		h170.3861389c8.9981079,0.3976135,16.0404663,7.7638245,16.0506592,16.7623291L572.1765137,251.7243652z"/>
	<path class="st5" d="M572.1765137,251.7243652c0.0102539,4.4992676-1.7370605,8.7369995-4.9072876,11.9178467
		c-3.0761719,3.0762329-7.1358032,4.8236084-11.4785767,4.9386902c-0.1358643,0.0104675-0.2825317,0.0104675-0.418396,0.0104675
		H442.1687622c-9.2497559,0-14.6068726-7.1464539-14.6278076-16.406601l-0.0838013-43.6324005
		c-0.0104675-4.4992523,1.7370911-8.7264404,4.9072876-11.9073639c3.1704407-3.1808472,7.387207-5.3048859,11.8865356-5.3153534
		h111.7910767c8.9981079,0.3976135,16.0404663,7.7638245,16.0506592,16.7623291L572.1765137,251.7243652z"/>
	<path class="st6" d="M604.6442261,235.5270386c0,3.8610077-3.118042,7.0000305-6.9891968,7.010498l-25.5203857,0.0418396
		l-88.2691345,0.1255493h-2.9821777l-53.1436462,0.1150818l-25.7086487,0.0627747
		c-3.8713989,0.0104828-6.9999695-3.1180725-7.010437-6.9895477l-0.0314026-11.0807037
		c-0.010498-3.8609924,3.1180725-7.0000153,6.979248-7.0104828l25.7712402-0.0627899l40.6399536-0.0941925l15.4858704-0.0208893
		l88.2691345-0.1255493l25.4677734-0.0419006c2.699585-0.0104675,5.0436401,1.5172119,6.2049561,3.7563934
		c0.1047363,0.1883392,0.1987305,0.387146,0.2825317,0.5964203c0.0838013,0.1778564,0.1466064,0.3557281,0.2094727,0.5545349
		c0.1987305,0.6591949,0.3137207,1.3602295,0.3137207,2.0821991L604.6442261,235.5270386z"/>
	<g>
		<polygon class="st2" points="551.2078247,268.5323792 551.2078247,315.3560791 448.3177185,315.3613586 448.3177185,268.5376282 
			504.4442139,268.4225464 		"/>
		<path class="st1" d="M586.6090088,315.3560791l-41.2887573-0.0140991c-2.8163452-0.0008545-5.098999-2.2841797-5.098999-5.1005249
			v-36.4006653c0-2.9431152,2.3809814-5.3315735,5.3240356-5.3408508l19.1459961-0.0669556l21.8828735,0.0993958v0.16745
			L586.6090088,315.3560791z"/>
		<path class="st0" d="M455.6607971,315.3427429h-42.2210999v-46.8291626h42.2210999
			c2.9719849,0,5.3812256,2.4092712,5.3812256,5.3812256v36.0667419
			C461.0420227,312.9335022,458.632782,315.3427429,455.6607971,315.3427429z"/>
	</g>
	<path class="st4" d="M427.4750366,217.7392578v25.0807495l-25.4440002,0.0627747
		c-3.8713989,0.0104828-6.9999695-3.1180725-7.010437-6.9895477l-0.0314026-11.0807037
		c-0.010498-3.8609924,3.1180725-7.0000153,6.979248-7.0104828L427.4750366,217.7392578z"/>
	<path class="st7" d="M604.6442261,235.5270386c0,3.8610077-3.118042,7.0000305-6.9891968,7.010498l-25.4957886,0.0418396
		v-25.0807495l25.4431763-0.0419006c2.699585-0.0104675,5.0436401,1.5172119,6.2049561,3.7563934
		c0.1047363,0.1883392,0.1987305,0.387146,0.2825317,0.5964203c0.0838013,0.1778564,0.1466064,0.3557281,0.2094727,0.5545349
		c0.1987305,0.6591949,0.3137207,1.3602295,0.3137207,2.0821991L604.6442261,235.5270386z"/>
	<path class="st8" d="M635.8883057,407.6395264l-1.0780029,6.6338196l-1.151062,7.0628052l-6.6438599,40.9328308
		l-1.2456055,7.6905823l-1.7263794,10.6308289l-0.7949219,4.9177551l-50.8522339,313.3788757
		c-0.5441284,3.3378296-3.2958984,5.838623-6.633667,6.0897217c-0.1885376,0.0209351-0.3770142,0.0314331-0.5650635,0.0314331
		H434.8234253c-0.219696,0-0.4498596-0.010498-0.6590576-0.0314331c-3.285675-0.2929688-5.9957886-2.7832642-6.5396423-6.0897217
		l-50.8627014-313.3892822l-1.3602905-8.3916626l-1.1612854-7.1570129l-1.1824951-7.3243713
		c51.0509644-3.515686,81.3843689-17.8505554,108.2019348-32.0598145c6.236145-3.3169556,12.2842712-6.6128845,18.3528442-9.7623596
		c23.3756104-12.1480103,47.1481323-22.161499,83.6443481-22.2242737
		C606.5698242,398.5468445,623.2694092,402.1357727,635.8883057,407.6395264z"/>
	<path class="st9" d="M583.2780762,413.2165527c21.9521484-0.0314331,38.0345459,3.1494751,50.3811646,8.1195984
		l-6.6438599,40.9328308l-1.2456055,7.6905823l-1.7263794,10.6308289l-0.7949219,4.9177551l-50.8522339,313.3788757
		c-0.5441284,3.3378296-3.2958984,5.838623-6.633667,6.0897217c-0.1885376,0.0209351-0.3770142,0.0314331-0.5650635,0.0314331
		H434.8234253c-0.219696,0-0.4498596-0.010498-0.6590576-0.0314331c-3.285675-0.2929688-5.9957886-2.7832642-6.5396423-6.0897217
		l-50.8627014-313.3892822l-1.3602905-8.3916626c58.9508972-4.5097351,89.9433594-23.5635986,120.4650269-39.6981506
		c5.9955139-3.1704407,11.9700623-6.215271,18.1331787-9.0299377
		C533.1687012,419.6410828,554.1792603,413.2688599,583.2780762,413.2165527z"/>
	<path class="st10" d="M365.1999207,414.2524109l-1.0568237-6.5291443
		c6.0793152-2.5949707,13.0897217-4.7608337,21.3140869-6.2885132c0.0206909,0,0.0523682-0.010498,0.0730591-0.010498
		c8.6741943-1.6217957,18.6982117-2.5530701,30.3857422-2.5740051c36.4860229-0.0627747,60.2902527,9.8774414,83.6967468,21.9522705
		c4.7713623,2.4588623,9.5320129,5.0014648,14.387207,7.57547c28.010498,14.8685303,58.9715576,30.4589539,113.0154419,33.8909912
		l-1.2456055,7.6905823l-1.7263794,10.6308289l-0.7949219,4.9177551l-50.8522339,313.3788757
		c-0.5441284,3.3378296-3.2958984,5.838623-6.633667,6.0897217c-0.1885376,0.0209351-0.3770142,0.0314331-0.5650635,0.0314331
		H434.8234253c-0.219696,0-0.4498596-0.010498-0.6590576-0.0314331c-3.285675-0.2929688-5.9957886-2.7832642-6.5396423-6.0897217
		l-50.8627014-313.3892822l-1.3602905-8.3916626l-1.1612854-7.1570129l-1.1824951-7.3243713l-5.2945557-32.6039429
		l-0.7952271-4.9073181L365.1999207,414.2524109z"/>
	<path class="st8" d="M624.0463257,480.5903931l-0.7949829,4.9177551l-47.5144653,292.8183289l-3.3377686,20.5605469
		c-0.5124512,3.1390381-2.9821777,5.5352173-6.0476074,6.0164795c-0.1987915,0.0314331-0.4082642,0.0627441-0.6171875,0.0732422
		c-0.1885376,0.0209351-0.3770752,0.0314331-0.5650635,0.0314331h-130.342926c-0.219696,0-0.4496155-0.010498-0.6590881-0.0314331
		c-3.2856445-0.2929688-5.9955139-2.7832642-6.5396118-6.0897217l-3.3377686-20.5605469l-47.5246887-292.8287354
		l-1.3605652-8.3916626l-1.1612854-7.1570129l-1.182251-7.3243713l-5.2945251-32.6039429l-0.7949829-4.9073181
		c12.137146-4.6980591,27.8322449-7.7010498,48.9787292-7.7324829c27.0899048-0.0418396,47.1798401,5.4200439,65.3124695,13.1839294
		c4.9808655,2.1240234,9.8150635,4.4259949,14.6068726,6.8430481c23.7000122,11.9178162,46.3322144,26.44104,80.5477905,35.4813538
		c0.3765259,0.0942078,0.7530518,0.198822,1.130127,0.2929993c0.6273804,0.1569214,1.2659912,0.3243713,1.9041138,0.4812927
		c3.4634399,0.8684692,7.052063,1.6846619,10.7770996,2.4171143c0.8164673,0.1673889,1.6323853,0.3243408,2.4692383,0.4812622
		c0.5650635,0.1150818,1.130127,0.2197571,1.7161255,0.3139038c0.6596069,0.1255493,1.3079224,0.2406921,1.9777222,0.3557739
		c0.9206543,0.1673889,1.8413086,0.3243713,2.7834473,0.4708557c1.3497925,0.219696,2.7200928,0.4289856,4.1117554,0.6382751
		c1.2037354,0.1778564,2.4171143,0.3453064,3.6412964,0.5021973c0.7637939,0.1046753,1.5383301,0.198822,2.3230591,0.3034973
		c1.569519,0.188324,3.149231,0.3766479,4.7606812,0.5440369c0.7009277,0.0732727,1.4126587,0.1465149,2.1243286,0.2197571
		c0.6693115,0.0627747,1.3391113,0.1255493,2.019104,0.1883545c0.8164673,0.0837097,1.6430664,0.1569519,2.4697266,0.2197266
		c0.8266602,0.0732727,1.6635132,0.1360474,2.5111084,0.198822c0.2927856,0.0313721,0.5860596,0.0523071,0.8787842,0.0732422
		H624.0463257z"/>
	<path class="st9" d="M635.8566284,407.6395264l-1.0775146,6.6338196l-1.151062,7.0628052l-6.6443481,40.9328308
		l-1.2450562,7.6905823l-1.7263794,10.6308289l-0.7954712,4.9177551L572.364563,798.8870239
		c-0.5436401,3.3378296-3.2958984,5.838623-6.633667,6.0897217c-0.1879883,0.0209351-0.3765259,0.0314331-0.5650635,0.0314331
		h-42.6383667l53.8865356-332.1188965l2.8881836-17.7773132l6.7904663-41.8745422l2.3751831-14.596405
		C609.0702515,399.1118469,624.2002563,402.5543213,635.8566284,407.6395264z"/>
	<path class="st11" d="M633.6280518,421.3361511l-6.6443481,40.9328308l-1.2450562,7.6905823l-1.7263794,10.6308289
		l-0.7954712,4.9177551L572.364563,798.8870239c-0.5436401,3.3378296-3.2958984,5.838623-6.633667,6.0897217
		c-0.1879883,0.0209351-0.3765259,0.0314331-0.5650635,0.0314331h-42.6383667l53.8865356-332.1188965l2.8881836-17.7773132
		l6.7904663-41.8745422C606.6010132,413.4676514,621.8255615,416.5752563,633.6280518,421.3361511z"/>
	<path class="st8" d="M626.9837036,462.2689819l-1.2450562,7.6905823l-1.7263794,10.6308289l-0.7954712,4.9177551
		L572.364563,798.8870239c-0.5436401,3.3378296-3.2958984,5.838623-6.633667,6.0897217
		c-0.1879883,0.0209351-0.3765259,0.0314331-0.5650635,0.0314331h-42.6383667l53.8865356-332.1188965l2.8881836-17.7773132
		C593.0716553,458.5648804,608.7146606,461.1074829,626.9837036,462.2689819z"/>
	<path class="st9" d="M624.0151367,480.5903931l-0.7949829,4.9177551l-47.5144653,292.8183289l-3.3377686,20.5605469
		c-0.4500732,2.741394-2.3751831,4.9178467-4.8970337,5.7444458c-0.366333,0.1256104-0.7428589,0.2092285-1.1193848,0.2720337
		c-0.1987915,0.0314331-0.4082642,0.0627441-0.6171875,0.0732422c-0.1885376,0.0209351-0.3770752,0.0314331-0.5650635,0.0314331
		h-42.6383667l4.3314819-26.6817017l49.5550537-305.4371948c0.3765259,0.0942078,0.7530518,0.198822,1.130127,0.2929993
		c0.6273804,0.1673889,1.2659912,0.3243713,1.9041138,0.4812927c3.4634399,0.8684692,7.052063,1.6846619,10.7770996,2.4171143
		c0.8164673,0.1673889,1.6323853,0.3243408,2.4692383,0.4812622c0.5650635,0.1150818,1.130127,0.2197571,1.7161255,0.3139038
		c0.6488647,0.1255493,1.3079224,0.2406921,1.9777222,0.3557739c0.9206543,0.1673889,1.8413086,0.3243713,2.7834473,0.4708557
		c1.3497925,0.219696,2.7200928,0.4394531,4.1117554,0.6382751c1.2037354,0.1778564,2.4171143,0.3453064,3.6412964,0.5021973
		c0.7745361,0.1046753,1.5485229,0.2092896,2.3230591,0.3034973c1.569519,0.188324,3.149231,0.3766479,4.7606812,0.5440369
		c0.7009277,0.0732727,1.4126587,0.1465149,2.1243286,0.2197571c0.6693115,0.0732727,1.3391113,0.1360474,2.019104,0.1883545
		c0.8164673,0.0837097,1.6430664,0.1569519,2.4697266,0.2197266c0.8266602,0.0732727,1.6635132,0.1464539,2.5111084,0.198822
		C623.4291382,480.5485229,623.7224121,480.569458,624.0151367,480.5903931z"/>
	<circle class="st9" cx="439.2494202" cy="476.4573364" r="32.4365463"/>
	<circle class="st9" cx="499.9371643" cy="510.4634094" r="16.7414436"/>
	<circle class="st9" cx="457.0808105" cy="546.5185547" r="10.506999"/>
	<circle class="st9" cx="548.9407349" cy="681.7144165" r="32.4365463"/>
	<circle class="st9" cx="469.9700317" cy="716.8843384" r="16.7414436"/>
	<circle class="st9" cx="492.2588501" cy="673.5852661" r="10.506999"/>
	<path class="st9" d="M575.7368774,778.3264771l-3.3377686,20.5605469
		c-0.5124512,3.1390381-2.9821777,5.5352173-6.0476074,6.0164795c-0.1987915,0.0314331-0.4082642,0.0627441-0.6171875,0.0732422
		c-0.1885376,0.0209351-0.3770752,0.0314331-0.5650635,0.0314331h-130.342926c-0.219696,0-0.4496155-0.010498-0.6590881-0.0314331
		c-3.2856445-0.2929688-5.9955139-2.7832642-6.5396118-6.0897217l-3.3377686-20.5605469H575.7368774z"/>
	<path class="st11" d="M575.7368774,778.3264771l-3.3377686,20.5605469
		c-0.449585,2.7518921-2.3961792,4.9282837-4.9282227,5.7444458c-0.366333,0.1256104-0.7428589,0.2092285-1.1193848,0.2720337
		c-0.1987915,0.0314331-0.4082642,0.0627441-0.6171875,0.0732422c-0.1885376,0.0209351-0.3770752,0.0314331-0.5650635,0.0314331
		h-42.6383667l4.3314819-26.6817017H575.7368774z"/>
	<path class="st12" d="M442.4614258,632.2634277h-0.0234985c-8.0456238,0-14.1768799,7.2062378-12.8883362,15.1480103
		l4.6045837,28.3796387c1.0256348,6.3212891,6.484375,10.9656982,12.8883362,10.9656982h0.039856
		c8.048584,0,14.1806335-7.2112427,12.887146-15.1552124l-4.6209412-28.3796387
		C454.3198242,636.9039917,448.8626099,632.2634277,442.4614258,632.2634277z M412.2756348,378.557373
		c-1.0253906-6.2989807-6.4663696-10.9238586-12.838562-10.9238586c-8.0254517,0-14.1360474,7.177887-12.8490906,15.0987549
		l34.4759827,212.4076843c1.0259705,6.3209839,6.4845581,10.9649658,12.8882141,10.9649658h0.0000305
		c8.0480957,0,14.1800232-7.2104492,12.8873291-15.1540527L412.2756348,378.557373z"/>
</g>
</svg>
