<?xml version="1.0" encoding="utf-8"?>
<!-- Generator: Adobe Illustrator 22.1.0, SVG Export Plug-In . SVG Version: 6.00 Build 0)  -->
<svg version="1.1" id="Layer_1" xmlns="http://www.w3.org/2000/svg" xmlns:xlink="http://www.w3.org/1999/xlink" x="0px" y="0px"
	 viewBox="0 0 1000 1000" style="enable-background:new 0 0 1000 1000;" xml:space="preserve">
<style type="text/css">
	.st0{fill:#FFDD9D;}
	.st1{fill:#FFC98F;}
	.st2{fill:#F3F7DE;}
	.st3{fill:#AADCD9;}
	.st4{fill:#0E8AC0;}
	.st5{fill:#139BCD;}
	.st6{fill:#59C9E1;}
	.st7{fill:#13B2DA;}
	.st8{fill:#C4E5DC;}
	.st9{fill:#E7EAD0;}
	.st10{fill:#6ADBEA;}
	.st11{fill:#90D1CE;}
	.st12{fill:#B2DDD1;}
	.st13{fill:#9ED3D7;}
	.st14{fill:#0B77AD;}
	.st15{fill:#81C6CB;}
	.st16{fill:#DDEEDB;}
</style>
<g>
	<g>
		<path class="st0" d="M583.4203491,176.3155823l-10.0560913,55.8197632
			c0.0119019,7.3664703-2.3173828,14.0305328-6.0622559,18.7583923c-4.0776978,4.3544159-9.875061,7.0916748-16.2722168,7.1020203
			l-102.0228577,0.1651306c-12.3096924,0.0198975-22.3925781-10.0303955-22.4125061-22.3401642l-10.06073-61.2596436
			c-1.4085999-8.5768585,2.0583801-17.3795624,9.2479553-22.2638855c3.5688171-2.4245148,7.8673096-3.8471375,12.4835205-3.854599
			l123.1511536-0.1993256c3.1984863-0.0051727,6.2492065,0.6717834,9.0117798,1.8926392
			c5.3948364,2.3841248,9.3850708,7.0777893,11.4304199,12.6099396c0.8899536,2.4071808,1.5054321,5.0233154,1.7922974,7.776062
			C583.8520508,172.4526978,583.7645264,174.4050903,583.4203491,176.3155823z"/>
		<path class="st1" d="M583.4309082,176.2568359l-10.0666504,55.8785095
			c0.0119019,7.3664703-2.3173828,14.0305328-6.0622559,18.7583923c-3.6630249,3.9106445-8.6990356,6.5081482-14.3200684,7.0019226
			c-0.6368408,0.0702515-1.2875366,0.0990295-1.9521484,0.1000977l-27.4719849,0.0444641
			c10.6619873-0.0172729,19.3665771-11.662674,19.3436279-25.8555756l10.4700928-58.1179504
			c-0.0229492-14.1929016-8.7651978-25.7962189-19.4271851-25.7789612l27.4719849-0.0444641
			c3.1984863-0.0051727,6.2492065,0.6717834,9.0117798,1.8926544c5.3950806,2.3842316,9.385437,7.0782013,11.4306641,12.6106262
			c0.97229,2.6300354,1.6168823,5.5095062,1.8632813,8.5440369
			C583.8567505,172.9493408,583.7260132,174.618988,583.4309082,176.2568359z"/>
		<circle class="st1" cx="479.9524536" cy="216.6035767" r="14.7356853"/>
		<circle class="st1" cx="480.2648315" cy="167.5163269" r="8.2462473"/>
		<circle class="st1" cx="448.174469" cy="184.0705872" r="16.1339607"/>
		<circle class="st1" cx="529.9915771" cy="184.0705872" r="10.9113741"/>
	</g>
	<path class="st2" d="M594.1418457,299.7613525v457.8544922c0,51.9069214-42.2340088,94.1409302-94.1409302,94.1409302
		c-51.907074,0-94.1408997-42.2340088-94.1408997-94.1409302V299.7613525c0-1.9533081,1.5768127-3.5302734,3.5302734-3.5302734
		h181.221283C592.5648804,296.2310791,594.1418457,297.8080444,594.1418457,299.7613525z"/>
	<path class="st3" d="M567.076355,299.7260132v457.8780518c0,36.9855347-30.0899048,67.0753784-67.0754395,67.0753784
		c-36.9856567,0-67.0754089-30.0898438-67.0754089-67.0753784V299.7260132H567.076355z"/>
	<path class="st4" d="M567.0793457,392.7757874v159.7336121c-3.7891235,2.3417969-8.2137451,3.6832886-12.885498,3.6950684
		l-108.2385559,0.1765137c-4.7776489,0-9.2375488-1.3532715-13.0267639-3.7185669V415.8050232
		c28.5835876-0.0823669,42.6576233-7.6136169,56.2845459-14.9095459c1.164978-0.6237183,2.3182373-1.247345,3.4596863-1.8475037
		c1.7298584-0.9179077,3.4949951-1.8357544,5.3189697-2.7183228c10.2966614-5.0718384,22.2172546-9.4023132,39.1155701-9.4258728
		h0.1765137C549.133728,386.9037781,558.947937,388.8218994,567.0793457,392.7757874z"/>
	<path class="st5" d="M567.182373,531.3746338c0,0.2720947-0.0118408,0.5560913-0.0236816,0.828186
		c-0.0236816,0.3903809-0.0591431,0.7926025-0.130127,1.1712036c-0.9464722,6.246521-6.3529663,11.0497437-12.8598022,11.0614624
		l-108.1900635,0.1774902c-7.1811218,0.0118408-13.0372314-5.8323975-13.0491028-13.0135498l-0.1182556-69.7409058
		L432.7521973,427.5737h0.0118408c34.1428528-0.0591125,49.9129639-9.9376526,65.4108887-18.1243591
		c10.9787598-5.8087463,21.8154907-10.7538757,38.9460449-10.7775574
		c14.9064941-0.0237122,23.7438354,3.2770691,29.8602295,7.6542969l0.0355225,22.7619019L567.182373,531.3746338z"/>
	<path class="st6" d="M566.7380981,417.3230896h0.3412476v340.2841492c0,36.9855957-30.0897217,67.0753784-67.0754089,67.0753784
		c-36.9855957,0-67.0754089-30.0897827-67.0754089-67.0753784V394.5527344
		c8.0961304-3.8833008,17.851532-5.7778931,29.6073608-5.8014526h0.1647644c15.0037231,0,25.9710693,3.3773193,35.2910767,7.5783691
		c1.8945618,0.8355103,3.7067566,1.7180786,5.4836731,2.6123657c2.3652954,1.1885376,4.7070618,2.4359131,6.9781799,3.6362305
		C524.0805054,409.8270569,538.1781006,417.3230896,566.7380981,417.3230896z"/>
	<path class="st7" d="M567.0793457,594.3433228v163.263916c0,36.9855957-30.0897217,67.0753784-67.0754089,67.0753784
		c-36.9855957,0-67.0754089-30.0897827-67.0754089-67.0753784V408.1325378
		c6.0839233-4.3186951,14.8860779-7.5900574,29.6309204-7.6136169c15.3802185-0.0235596,25.7122192,3.9421082,35.6205444,8.9316406
		c16.6982422,8.4020386,32.2197266,19.6989746,68.8405151,19.6401672L567.0793457,594.3433228z"/>
	<path class="st5" d="M464.4540405,491.4590759c-5.1895752,13.473877-17.9103699,21.8523865-31.5255127,22.1348572v-69.0994568
		c3.8950806,0.0706177,7.8490601,0.8355408,11.6970215,2.306488
		C462.4299622,453.661438,471.3027954,473.6428833,464.4540405,491.4590759z"/>
	<circle class="st5" cx="494.3592529" cy="541.6564331" r="21.6205425"/>
	<circle class="st5" cx="535.9381714" cy="496.5472412" r="12.2934399"/>
	<circle class="st5" cx="514.9076538" cy="720.8071899" r="22.6082554"/>
	<circle class="st5" cx="476.3740234" cy="674.6140747" r="14.3923864"/>
	<path class="st5" d="M567.0793457,639.2603149v56.8963623c-3.6008911,0.0823975-7.2723389-0.5177612-10.8378906-1.8945313
		c-14.6624756-5.6484375-21.9702148-22.1113281-16.3334961-36.7738037
		C544.3325806,645.991333,555.4176636,639.0014038,567.0793457,639.2603149z"/>
	<path class="st8" d="M531.7734985,299.7260132v457.8780518c0,17.5218506-14.2507324,31.772522-31.772583,31.772522
		c-17.5220032,0-31.7725525-14.2506714-31.7725525-31.772522V299.7260132H531.7734985z"/>
	<path class="st5" d="M531.7764893,387.0685425v169.1712646l-21.3817139,0.0352173l-31.8313904,0.0471191l-10.3320007,0.0234985
		V410.5684204c5.9779663-2.012207,11.1086426-4.4481201,15.9686584-6.9664001
		c1.7298889-0.8943481,3.4244385-1.800415,5.1071777-2.706543c1.164978-0.6237183,2.3182068-1.247345,3.4596863-1.8475037
		c1.7297974-0.9179077,3.4949341-1.8357544,5.3189087-2.7183228
		C507.2410583,391.8226318,517.6907349,387.8922729,531.7764893,387.0685425z"/>
	<path class="st6" d="M531.7764893,398.8597107V544.472168l-15.8862305,0.0234985l-42.857666,0.0706177l-4.8012085,0.0117798
		V422.9362183c12.3207397-3.6244507,21.2288208-8.8257141,30.0427551-13.4856567
		c4.3658142-2.306488,8.7080688-4.4834595,13.4385986-6.260376
		C517.5494995,400.9778748,523.9863281,399.3775024,531.7764893,398.8597107z"/>
	<rect x="405.8600159" y="305.5628662" class="st9" width="188.2818451" height="34.3144073"/>
	<path class="st10" d="M531.7764893,412.2394714v345.3677673c0,17.5219727-14.2505493,31.772522-31.7725525,31.772522
		c-17.5219116,0-31.7725525-14.2505493-31.7725525-31.772522V388.9042664
		c12.2854004,0.7060547,21.6994934,3.7538757,29.8544312,7.4253845c1.8946533,0.8355103,3.7068481,1.7180786,5.4837646,2.6123657
		c2.3652954,1.1885376,4.7070313,2.4359131,6.9781799,3.6362305c0.3883362,0.2000122,0.7766418,0.4118347,1.164978,0.6119385
		C517.8083496,406.4380493,524.0805054,409.6741638,531.7764893,412.2394714z"/>
	<path class="st6" d="M531.7764893,424.5954895v333.0117493c0,17.5219727-14.2505493,31.772522-31.7725525,31.772522
		c-17.5219116,0-31.7725525-14.2505493-31.7725525-31.772522V400.6954651
		c6.0133057,0.3882751,11.2145691,1.4356079,15.9686584,2.9065552c5.0600586,1.5533447,9.602417,3.6008911,14.0740967,5.8485413
		C508.2648315,414.4752808,517.843689,420.5474243,531.7764893,424.5954895z"/>
	<circle class="st7" cx="494.4573059" cy="541.6564331" r="21.6205425"/>
	<path class="st7" d="M531.7764893,485.0221558v23.0527954c-0.0469971-0.0235596-0.105835-0.0353394-0.1529541-0.0588989
		c-6.3427124-2.4358215-9.4963989-9.5435181-7.0606079-15.8862915
		C525.8809814,488.7054138,528.5757446,486.1989136,531.7764893,485.0221558z"/>
	<rect x="432.9255066" y="305.5628662" class="st11" width="134.1508179" height="34.3144073"/>
	<rect x="468.228363" y="305.5628662" class="st12" width="63.5451241" height="34.3144073"/>
	<path class="st7" d="M531.7764893,705.6413574v30.3369751c-6.0955811,6.7310181-15.909729,9.3787842-24.8884277,5.9308472
		c-11.6617737-4.4834595-17.4631958-17.5690308-12.9797363-29.2189331
		c4.4834595-11.6617432,17.5690613-17.4631958,29.2189941-12.9797363
		C526.5516968,701.0285034,529.4700928,703.0878296,531.7764893,705.6413574z"/>
	<path class="st7" d="M489.9073792,679.7879639c-2.8595276,7.4135742-11.1910095,11.1086426-18.6045837,8.2608643
		c-1.1061707-0.423645-2.1417236-0.9766846-3.0714111-1.6356812v-23.5940552
		c3.7892151-2.6477051,8.778656-3.4244385,13.4151001-1.6357422
		C489.0600891,664.0429077,492.755127,672.3626099,489.9073792,679.7879639z"/>
	<path class="st13" d="M567.0527954,299.7260132v457.8780518c0,32.3609619-23.0410767,59.4500122-53.5780029,65.7103271
		c-4.3539734,0.8943481-8.8728333,1.3650513-13.4974365,1.3650513c-4.612793,0-9.1199036-0.4707031-13.4620667-1.3650513
		c-30.5606079-6.2485352-53.6133423-33.3375854-53.6133423-65.7103271V299.7260132h11.7676392v457.8780518
		c0,30.5015869,24.8062134,55.3078003,55.3077698,55.3078003c30.5015869,0,55.3078003-24.8062134,55.3078003-55.3078003V299.7260132
		H567.0527954z"/>
	<path class="st14" d="M567.0930786,392.7757874v364.8314514c0,32.3726807-23.0527954,59.4616699-53.6133423,65.7103271
		c-4.3539429,0.8943481-8.8727417,1.3650513-13.497406,1.3650513c-4.6128845,0-9.1199036-0.4707031-13.4621582-1.3650513
		c-30.5369568-6.260437-53.5779114-33.3494263-53.5779114-65.7103271V415.8050232
		c4.2127686-0.0117798,8.1078186-0.1882324,11.7322693-0.5059814v342.308197
		c0,30.5015869,24.8061523,55.3077393,55.3078003,55.3077393c30.5016174,0,55.3077698-24.8061523,55.3077698-55.3077393V388.7159729
		c4.2598877,0.9532166,8.1903076,2.3064575,11.7676392,4.0480347
		C567.069519,392.7640076,567.0812988,392.7757874,567.0930786,392.7757874z"/>
	<path class="st4" d="M567.0930786,594.3433228v163.263916c0,32.3726807-23.0527954,59.4616699-53.6133423,65.7103271
		c-4.3539429,0.8943481-8.8727417,1.3650513-13.497406,1.3650513c-4.6128845,0-9.1199036-0.4707031-13.4621582-1.3650513
		c-30.5369568-6.260437-53.5779114-33.3494263-53.5779114-65.7103271V427.5726624
		c4.1774902-0.0117798,8.0725708-0.1647644,11.7322693-0.4589539v330.4935303
		c0,30.5015869,24.8061523,55.3077393,55.3078003,55.3077393c30.5016174,0,55.3077698-24.8061523,55.3077698-55.3077393V400.8248901
		c4.8718262,1.37677,8.6375122,3.2949219,11.7088013,5.4954529l0.0117798,11.0027466l0.0234985,11.7676392l0.0235596,66.0986633
		L567.0930786,594.3433228z"/>
	<rect x="432.901947" y="305.5628662" class="st15" width="11.7676153" height="34.3144073"/>
	<rect x="555.2851563" y="305.5628662" class="st15" width="11.7676153" height="34.3144073"/>
	<path class="st7" d="M567.0930786,417.3230896v340.2841492c0,32.3726807-23.0527954,59.4616699-53.6133423,65.7103271
		c-4.3539429,0.8943481-8.8727417,1.3650513-13.497406,1.3650513c-4.6128845,0-9.1199036-0.4707031-13.4621582-1.3650513
		c-30.5369568-6.260437-53.5779114-33.3494263-53.5779114-65.7103271V394.5527344
		c3.5773315-1.7181091,7.4724121-3.0477905,11.7322693-3.9892578v367.0437622
		c0,30.5015869,24.8061523,55.3077393,55.3078003,55.3077393c30.5016174,0,55.3077698-24.8061523,55.3077698-55.3077393V416.8759155
		c3.553894,0.2941895,7.3547974,0.4471741,11.4616699,0.4471741H567.0930786z"/>
	<path class="st5" d="M567.098938,594.3433228v163.263916c0,32.3726807-23.0645142,59.4616699-53.625,65.7103271
		c-4.3422546,0.8943481-8.8728333,1.3650513-13.4974976,1.3650513c-4.6011047,0-9.1199036-0.4707031-13.4621582-1.3650513
		c-30.5368958-6.260437-53.5661316-33.3494263-53.5661316-65.7103271V408.1325378
		c3.0595398-2.1887817,6.8369751-4.0951233,11.7204895-5.460144v354.934845
		c0,30.5015869,24.8179321,55.3077393,55.3078003,55.3077393c30.501709,0,55.3078003-24.8061523,55.3078003-55.3077393V428.6788025
		c3.65979,0.2824097,7.5665894,0.4236145,11.7441406,0.4119263l0.0234985,66.0986633L567.098938,594.3433228z"/>
	<path class="st4" d="M444.6686401,446.9186096v64.4394836c-3.7067566,1.4356079-7.6724243,2.2475586-11.7204895,2.3299561
		c-0.0117798,0-0.0117798,0-0.0235596,0v-69.0993958c0.0117798,0,0.0117798,0,0.0235596,0
		c3.8833008,0.0705872,7.8371887,0.8354492,11.6734619,2.3063965
		C444.6333923,446.9068298,444.6568604,446.9068298,444.6686401,446.9186096z"/>
	<path class="st4" d="M567.0753784,639.2249756v56.8964233c-3.6008301,0.0823975-7.2723389-0.5177612-10.8379517-1.8945313
		c-0.317688-0.1295166-0.635437-0.2471313-0.953186-0.3883667v-52.3306274
		C558.9675293,639.9310913,562.9920654,639.1308594,567.0753784,639.2249756z"/>
	<path class="st2" d="M601.5186768,214.8493652H398.4807739c-9.8823853,0-17.9220581,7.7443237-17.9220581,17.2630005v56.2024231
		c0,9.5186768,8.0396729,17.2630005,17.9220581,17.2630005h203.0379028c9.8829346,0,17.9226074-7.7443237,17.9226074-17.2630005
		v-56.2024231C619.4412842,222.593689,611.4016113,214.8493652,601.5186768,214.8493652z"/>
	<path class="st16" d="M601.5186768,214.8493652h-95.6463623c-10.2650452,0-18.6167297,7.7443237-18.6167297,17.2630005v56.2024231
		c0,9.5186768,8.3516846,17.2630005,18.6167297,17.2630005h95.6463623c9.8829346,0,17.9226074-7.7443237,17.9226074-17.2630005
		v-56.2024231C619.4412842,222.593689,611.4016113,214.8493652,601.5186768,214.8493652z"/>
</g>
</svg>
