<?xml version="1.0" encoding="utf-8"?>
<!-- Generator: Adobe Illustrator 22.1.0, SVG Export Plug-In . SVG Version: 6.00 Build 0)  -->
<svg version="1.1" id="Layer_1" xmlns="http://www.w3.org/2000/svg" xmlns:xlink="http://www.w3.org/1999/xlink" x="0px" y="0px"
	 viewBox="0 0 1000 1000" style="enable-background:new 0 0 1000 1000;" xml:space="preserve">
<style type="text/css">
	.st0{fill:#F3F7DE;}
	.st1{fill:#DDEEDB;}
	.st2{fill:#C4E5DC;}
	.st3{fill:#AADCD9;}
	.st4{fill:#9ED3D7;}
	.st5{fill:#F1F5D7;}
	.st6{fill:#D6EBD4;}
	.st7{fill:#B8E0D5;}
	.st8{fill:#4EE88E;}
	.st9{fill:#3CD67B;}
	.st10{fill:#24BC61;}
	.st11{fill:#79F7AC;}
	.st12{opacity:0.5;fill:#FFFFFF;}
</style>
<g>
	<path class="st0" d="M691.2461548,752.1069336c0.0338745,15.887207-6.1921387,30.8929443-17.5029297,42.2376099
		c-11.3108521,11.355896-26.2940063,17.6158447-42.1810913,17.6384888l-27.9776001,0.0452271l-29.6159668,0.0452881
		l-67.8083801,0.112793l-136.9049072,0.2260742c-32.9154663,0-59.740509-26.7686157-59.785675-59.68396l-0.7118835-382.8613586
		c-0.045166-32.9492798,26.7346191-59.8195496,59.695343-59.8760986l137.3229065-0.2146301l67.7857361-0.1130981l29.152771-0.045105
		l27.9550171-0.0452576c0.5649414,0,1.1412354,0.011322,1.7174683,0.022644h0.1582031
		c31.9550781,0.9490967,57.9552612,27.6837769,58.0004272,59.6613159L691.2461548,752.1069336z"/>
	<path class="st0" d="M691.2421875,752.1062622c0.0342407,15.887085-6.1920776,30.8928223-17.5026245,42.2375488
		c-11.3110962,11.3560181-26.2940063,17.6159058-42.1811523,17.6385498l-27.9776001,0.045166l-29.6160278,0.0452271
		l-15.4802246,0.022522l-6.1245728,0.0113525l-46.1472778,0.0791016h-0.0562744l-136.9050293,0.2260132
		c-32.9153442,0-59.7403564-26.7685547-59.785614-59.684021l-0.7120056-382.8613281
		c-0.0449829-32.9493408,26.7348022-59.8196106,59.6954041-59.8760986l116.0572205-0.1807556l21.2657471-0.0339355
		l49.4692993-0.0791016l18.3164673-0.0338745h0.0565186l29.152832-0.0452271l12.1016846-0.0225525h0.2146606l15.5820313-0.022644
		c0.5650024,0,1.1412964,0.011322,1.7175903,0.022644h0.1580811c31.9550171,0.9490967,57.9552002,27.6837769,58.0004272,59.661377
		L691.2421875,752.1062622z"/>
	<path class="st0" d="M604.0252075,772.0957031c1.8644409-6.3615112,2.8700562-13.0734863,2.8588257-20.0113525
		l-0.711853-382.8499756c-0.0113525-6.5650635-0.9152832-12.9266968-2.621521-18.9719238
		c2.0565186,5.988678,3.1751709,12.3730469,3.1864624,18.9944153l0.7005615,382.8500671
		C607.4489746,759.0109253,606.2850952,765.7455444,604.0252075,772.0957031z"/>
	<path class="st1" d="M636.3154297,752.1853638c0.0339355,25.0170288-13.0283813,47.1414795-32.6781006,59.8421631
		l-29.6159668,0.0452271l-67.8086548,0.1129761c0.0452576-0.0339355,0.0904846-0.0565186,0.1357422-0.0904541l-52.6784668,0.0904541
		c0.0791931-0.0565186,0.1583557-0.1017456,0.2375488-0.1582031l26.2939758-0.045166
		c15.8869019-0.022644,30.8700562-6.2825317,42.1808777-17.6385498c4.6555176-4.666687,8.4520264-9.954834,11.2994995-15.6724854
		c4.0792236-8.1694946,6.2260742-17.220459,6.2034302-26.5650635l-0.7004395-382.8500366
		c-0.0112915-9.4125061-2.2711792-18.3730164-6.2713013-26.3504639c0-0.0112915-0.0112915-0.0112915-0.0112915-0.0226135
		c-9.1300659-18.1696167-27.265564-31.2657166-48.395874-33.0736084l21.2657471-0.0339355l67.7857666-0.1129761h0.0565186
		l29.152832-0.0452271c19.6836548,12.6441345,32.8024902,34.7121277,32.8364258,59.717926L636.3154297,752.1853638z"/>
	<path class="st1" d="M533.9795532,778.6721191c3.2994385-8.1921387,5.1186523-17.1412964,5.1074219-26.4860229
		l-0.711853-382.8500671c-0.0113525-9.3334045-1.8418579-18.2598877-5.1639404-26.4295654
		c4,7.9773865,6.2599487,16.9379578,6.2712402,26.3504028l0.7005615,382.8500671
		C540.2056274,761.4516602,538.0586548,770.5025635,533.9795532,778.6721191z"/>
	<path class="st2" d="M604.0252075,772.0957031c1.8644409-6.3615112,2.8700562-13.0734863,2.8588257-20.0113525
		l-0.711853-382.8499756c-0.0113525-6.5650635-0.9152832-12.9266968-2.621521-18.9719238
		c2.0565186,5.988678,3.1751709,12.3730469,3.1864624,18.9944153l0.7005615,382.8500671
		C607.4489746,759.0109253,606.2850952,765.7455444,604.0252075,772.0957031z"/>
	<path class="st2" d="M691.2421875,752.1062622c0.0342407,15.887085-6.1920776,30.8928223-17.5026245,42.2375488
		c-11.3110962,11.3560181-26.2940063,17.6159058-42.1811523,17.6385498l-27.9776001,0.045166l-29.6160278,0.0452271
		c0.0113525-0.0112915,0.0339355-0.022644,0.0449829-0.022644l-15.5252075,0.045166l-6.1810913,0.022644
		c0.022644,0,0.0339355,0,0.0565186-0.0112915c0.2485962-0.0338745,0.5310669-0.0791016,0.8361816-0.1356201
		c15.5594482-0.2373047,30.2035522-6.4746094,41.3110962-17.6271973
		c11.310791-11.3447266,17.5255127-26.3504639,17.5029297-42.2375488l-0.7004395-382.8500366
		c-0.0452271-31.3335876-25.0059814-57.6275024-56.0682983-59.5597229l18.3164673-0.0338745h0.0565186l29.152832-0.0452271
		l12.1016846-0.0225525h0.2146606l15.5820313-0.022644c0.5650024,0,1.1412964,0.011322,1.7175903,0.022644h0.1580811
		c31.9550171,0.9490967,57.9552002,27.6837769,58.0004272,59.661377L691.2421875,752.1062622z"/>
	<path class="st2" d="M604.0252075,772.0957031c1.8644409-6.3615112,2.8700562-13.0734863,2.8588257-20.0113525
		l-0.711853-382.8499756c-0.0113525-6.5650635-0.9152832-12.9266968-2.621521-18.9719238
		c2.0565186,5.988678,3.1751709,12.3730469,3.1864624,18.9944153l0.7005615,382.8500671
		C607.4489746,759.0109253,606.2850952,765.7455444,604.0252075,772.0957031z"/>
	<g>
		<g>
			<path class="st0" d="M652.5791626,263.690155v0.4179382c0.0113525,4.8701782-1.8643799,9.4352112-5.288147,12.8700256
				c-3.2090454,3.220459-7.4237671,5.0847778-11.9436035,5.3222961c-0.2937012,0.011322-0.5988159,0.0223389-0.9039307,0.0223389
				H367.9332581c-10.0000305,0-18.1357117-7.7060547-18.1583252-17.7175293l-0.0904236-58.4071045
				c0-4.8588562,1.8757629-9.4349365,5.299469-12.8700256c3.4237976-3.4351044,7.9887695-5.7289276,12.8363037-5.7402344
				c0,0,59.2207031,0,121.9103699,0h145.4473267c0.1355591,0.0113068,0.2598877,0.0113068,0.3954468,0.0339203
				c9.5029297,0.6102142,16.9041138,8.4859467,16.9154053,18.0792236L652.5791626,263.690155z"/>
			<path class="st1" d="M623.7654419,263.7687988c0.0112915,6.9944458-2.3164063,13.4465637-6.2260132,18.5539551H488.9962158
				c0.3050537,0,0.6101685-0.0112915,0.9039612-0.0226135c4.5198059-0.2373657,8.7344971-2.1018372,11.943573-5.3221436
				c3.4237366-3.434967,5.299469-8.0000305,5.2881775-12.8701782l-0.0904236-58.4070892
				c-0.011322-9.593277-7.4124756-17.4690094-16.9153442-18.0792236c-0.1355896-0.0226135-0.2599182-0.0226135-0.3955078-0.0339355
				h129.1308594c3.0282593,4.7231293,4.7909546,10.372879,4.8022461,16.4408417L623.7654419,263.7687988z"/>
			<path class="st2" d="M652.5791626,263.690155v0.4179382c0.0113525,4.8701782-1.8643799,9.4352112-5.288147,12.8700256
				c-3.2090454,3.220459-7.4237671,5.0847778-11.9436035,5.3222961c-0.2937012,0.011322-0.5988159,0.0223389-0.9039307,0.0223389
				h-77.9213867c0.9830322,0,1.9434814-0.0788879,2.8927002-0.2482605c3.7401123-0.6667786,7.2203369-2.3956299,9.9096069-5.0963745
				c5.909668-5.9432678,5.288147-14.2145996,5.2769165-21.9435577c-0.0112915-6.6213531-0.022644-13.2429962-0.0339355-19.864624
				c-0.0112915-9.8192139-0.0338745-19.6384125-0.045166-29.4689331
				c-0.0112915-9.593277-7.4124756-17.4690094-16.9154053-18.0792236c-0.1355591-0.0226135-0.2598877-0.0226135-0.3954468-0.0339203
				h77.9666138c0.1355591,0.0113068,0.2598877,0.0113068,0.3954468,0.0339203
				c9.5029297,0.6102142,16.9041138,8.4859467,16.9154053,18.0792236L652.5791626,263.690155z"/>
			<path class="st3" d="M624.3643799,246.5905304c0,1.5705109-0.4745483,3.0281982-1.2880859,4.2373199
				c-0.2712402,0.3953094-0.5762939,0.7682953-0.9265747,1.1186371c-1.355957,1.3672028-3.242981,2.2146606-5.3220825,2.2146606
				l-109.7182312,0.1809692l-121.6053162,0.1920013c-4.1695251,0.0113068-7.5593872-3.3672333-7.5593872-7.5482635
				l-0.0452271-23.2655182c0-4.1694489,3.37854-7.5593109,7.5480652-7.5706177l121.6166382-0.192276l109.5600891-0.1806946
				h0.1355591c0.7909546,0,1.5593262,0.1128235,2.2712402,0.3503571c0.4745483,0.146759,0.9265137,0.339035,1.355957,0.5762787
				c0.3276367,0.1693878,0.6439819,0.3729706,0.9378052,0.6212463c1.8192749,1.3561707,2.9943848,3.5368958,3.0056763,6.0001068
				L624.3643799,246.5905304z"/>
			<path class="st2" d="M413.4463806,254.5053101l-27.9421692,0.0269318
				c-4.1701965,0.0067444-7.5560913-3.3682404-7.5628662-7.5384979l-0.0376892-23.2725372
				c-0.0067444-4.1702728,3.3682251-7.5560913,7.5383911-7.562851l27.9421692-0.0269165
				c-4.1702576,0.0067444-7.5452271,3.3925781-7.5384827,7.5628357l0.0377197,23.2725372
				C405.8901978,251.137085,409.276123,254.5120697,413.4463806,254.5053101z"/>
			<path class="st4" d="M624.3643799,246.5905304c0,1.5705109-0.4745483,3.0281982-1.2880859,4.2373199
				c-0.2712402,0.4069061-0.5762939,0.7796021-0.9265747,1.1186371c-1.355957,1.3672028-3.242981,2.2146606-5.3220825,2.2146606
				l-109.7182312,0.1809692l-0.0452271-38.3846741l109.5600891-0.1806946l0.1468506,0.0113068
				c0.7910156,0,1.5480347,0.1131134,2.2599487,0.3390503c0.4745483,0.146759,0.9265137,0.339035,1.355957,0.5762787
				c0.3276367,0.1693878,0.6439819,0.3729706,0.9378052,0.6212463c1.8192749,1.3561707,2.9943848,3.5368958,3.0056763,6.0001068
				L624.3643799,246.5905304z"/>
		</g>
		<polygon class="st5" points="596.081604,310.2243958 561.6407471,310.2243958 559.7085571,310.2243958 506.521759,310.2243958 
			406.1142883,310.2243958 406.0578003,282.3207092 488.0357361,282.3207092 553.7988892,282.3207092 596.013855,282.3207092 
			596.013855,282.3207092 		"/>
		<path class="st6" d="M584.770874,304.8970032c0.0112305,2.8911133-3.2203979,5.3192749-7.2203979,5.3273926h-17.0509644
			h-0.8474731H506.521759h-18.3391418c-3.7626953-0.1786194-6.7457581-2.4362793-6.7570801-5.1974182l-0.0339355-17.4194946
			c-0.0112305-2.6798706,2.7910156-4.9863892,6.3842468-5.2867737c0.0904236-0.0162354,0.1695251,0.0081482,0.2598877,0h65.7631531
			h24.6555176c0.0678101,0.0081482,0.1242676-0.0081177,0.1920776,0c0.0678101,0,0.1356201-0.0162354,0.2033691,0
			c3.3447266,0.4467163,5.8757935,2.6231689,5.887085,5.1650391L584.770874,304.8970032z"/>
		<path class="st7" d="M596.081604,310.2243958L596.081604,310.2243958h-34.4408569h-1.6610107
			c-0.067749,0-0.1243286,0.0081482-0.1807861,0c-0.0113525,0-0.022583,0-0.022583,0c-0.022644,0-0.0452271,0.0081482-0.0678101,0
			c-0.022583,0-0.0339355,0.0081482-0.0565186,0c-3.5367432-0.3328857-6.2485962-2.582489-6.2485962-5.2055664
			l-0.0452271-17.4681702c0-2.744873,2.9717407-5.0513,6.7344971-5.22995h35.9211426L596.081604,310.2243958z"/>
	</g>
	<path class="st3" d="M662.3624268,369.305603l0.6928711,382.8477173
		c0.0281982,17.4233398-14.1181641,31.6156616-31.541626,31.6438599l-262.2198792,0.4243774
		c-17.4234619,0.0282593-31.6156921-14.1182251-31.6438904-31.541626l-0.6928711-382.8476563
		c-0.0281982-17.4234619,14.1181641-31.6156921,31.541626-31.6438904l262.2199097-0.424408
		C648.1420288,337.7357788,662.3342285,351.8821411,662.3624268,369.305603z"/>
	<path class="st4" d="M662.3624268,369.305603l0.6928711,382.8477173
		c0.0281982,17.4233398-14.1181641,31.6156616-31.541626,31.6438599l-99.0748291,0.1603394
		c4.7550049-9.532959,7.4230347-20.2630005,7.4047241-31.6047974l-0.6928711-382.8476868
		c-0.0183716-11.3417969-2.7211304-22.0632629-7.506958-31.580719l99.0748291-0.1603394
		C648.1420288,337.7357788,662.3342285,351.8821411,662.3624268,369.305603z"/>
	<path class="st2" d="M408.784729,784.1576538l-39.4909363,0.0639038
		c-17.4234619,0.0282593-31.6156921-14.1182251-31.6438904-31.541626l-0.6928711-382.8476563
		c-0.0281982-17.4234619,14.1181641-31.6156921,31.541626-31.6438904l39.4909668-0.0639038
		c-17.4234619,0.0281982-31.5698242,14.2204285-31.541626,31.6438904l0.6928406,382.8476563
		C377.1690369,770.0394287,391.3612671,784.1858521,408.784729,784.1576538z"/>
	<path class="st8" d="M337.2136536,484.7417908l0.4336548,267.9382019
		c0.0281982,17.4233398,14.220459,31.5698242,31.6438904,31.541626l262.2199097-0.4244385
		c17.4234619-0.0281982,31.5698242-14.22052,31.541626-31.6438599l-0.5161133-318.8973389
		c-14.8184204-10.6069946-36.2355347-18.62854-72.3776855-18.5700378
		C489.9625244,414.8480835,478.5912476,484.51297,337.2136536,484.7417908z"/>
	<path class="st9" d="M662.5366211,433.2559814l0.5161133,318.8973389
		c0.0281982,17.4233398-14.1181641,31.6156616-31.541626,31.6438599l-99.0748291,0.1603394
		c3.0546875-6.1339111,5.2554321-12.7720337,6.428894-19.7559204c0.3127441-1.8960571,0.5625-3.8078613,0.7172852-5.7352295
		c0.1704712-2.0064697,0.2618408-4.0443115,0.2585449-6.1136475l-0.5348511-330.4444885
		c14.5887451-4.4150391,30.9811401-7.190155,50.8529053-7.22229
		C626.3011475,414.6274414,647.7183838,422.6489868,662.5366211,433.2559814z"/>
	<path class="st9" d="M662.5621948,449.0681763l0.4905396,303.085144
		c0.0281982,17.4233398-14.1181641,31.6156616-31.541626,31.6438599l-262.2199097,0.4244385
		c-17.4234314,0.0281982-31.6156921-14.1182861-31.6438904-31.541626l-0.4080505-252.1260071
		c82.7730713-0.1339722,120.9931946-24.0801086,158.5565186-43.9337769
		c26.5942993-14.0544739,52.8600464-26.0548706,94.3887939-26.1221008
		C626.3266602,430.4396362,647.7437744,438.4610901,662.5621948,449.0681763z"/>
	<path class="st10" d="M662.5621948,449.0681763l0.4905396,303.085144
		c0.0281982,17.4233398-14.1181641,31.6156616-31.541626,31.6438599l-99.0748291,0.1603394
		c3.0546875-6.1339111,5.2554321-12.7720337,6.428894-19.7559204c0.3127441-1.8960571,0.5625-3.8078613,0.7172852-5.7352295
		c0.1704712-2.0064697,0.2618408-4.0443115,0.2585449-6.1136475l-0.5092773-314.6481018
		c14.5887451-4.4150696,30.965332-7.1743164,50.8529053-7.2065125
		C626.3267822,430.4396362,647.7439575,438.4610901,662.5621948,449.0681763z"/>
	<path class="st11" d="M663.0549927,752.1553345c0.022522,17.4238281-14.1243896,31.6160889-31.5482788,31.6499634
		l-222.6229248,0.3502808h-0.2146912l-39.2770996,0.067749h-0.1469116c-0.5084839,0-1.0169678-0.0112915-1.5253906-0.045166
		c-0.5311279-0.022583-1.0621643-0.067749-1.5932617-0.1130371c-0.5762939-0.045166-1.1412659-0.1129761-1.7062378-0.2033691
		c-15.1187439-2.3164063-26.7459412-15.4012451-26.7685547-31.175293l-0.5197144-318.9061279
		c0.0112915-0.0112305,0.0225525-0.0112305,0.033844-0.0225525c9.6045837-6.9152832,21.9888611-12.7458801,39.3900757-15.9888306
		c0.0226135,0,0.0565491-0.011322,0.0791016-0.011322c9.3673401-1.7514038,20.1922302-2.7570801,32.8138428-2.7796326
		c100.1927185-0.1582031,111.7973633,69.4693604,253.1654663,69.2433777L663.0549927,752.1553345z"/>
	<path class="st8" d="M662.6242065,484.2151184l0.4336548,267.9381409
		c0.0281982,17.4234009-14.1181641,31.6157227-31.541626,31.6439209l-99.0748291,0.1603394
		c3.0546875-6.1339722,5.2554932-12.7720337,6.428894-19.7559204c0.3128052-1.8961182,0.5625-3.8079224,0.7172852-5.7352905
		c0.1704712-2.0064087,0.2619019-4.0442505,0.2585449-6.1135864l-0.4747925-293.3388062
		C568.711792,472.7251587,604.8255005,484.3086548,662.6242065,484.2151184z"/>
	<path class="st9" d="M663.0499878,751.3378906v0.8926392c0,0.5423584-0.0113525,1.0734863-0.0449829,1.6044922
		c-0.0115967,0.3842163-0.0452271,0.7683716-0.0791626,1.1412964c-0.0565796,0.6779175-0.1357422,1.3446045-0.2372437,2
		c-0.0339355,0.2372437-0.0678711,0.4632568-0.1130981,0.68927c-0.0452881,0.3051147-0.1018066,0.5988159-0.1693726,0.9039307
		c-0.1357422,0.644104-0.2825317,1.288147-0.463501,1.9209595c-0.09021,0.3502808-0.1920166,0.7005615-0.3051147,1.0394897
		c-0.0223389,0.0904541-0.0449219,0.1695557-0.0788574,0.2486572c-0.1018066,0.3615723-0.2259521,0.7230835-0.3616943,1.0733643
		c-0.1243896,0.3616333-0.2711792,0.7232056-0.4069214,1.0734863c-0.0112915,0.022644-0.0223389,0.0565186-0.0338745,0.0791016
		c-4.6665649,11.5706787-16.0113525,19.7741699-29.243042,19.7967529l-262.2164917,0.4180908
		c-13.2316589,0.022644-24.6103516-8.1356812-29.3108521-19.6950073c-1.4916077-3.6159058-2.3164673-7.5706787-2.3390808-11.7175903
		l-0.4858093-299.0076599c14.7911682-10.655426,36.1810608-18.7459106,72.316864-18.8023987
		c1.0507813,0,2.0905457,0,3.1186829,0.022644c0.4069214,0,0.8135376,0.0112305,1.209137,0.0112305
		c0.9715881,0.0226135,1.9321594,0.0452576,2.881134,0.0791016c1.1978149,0.0339355,2.3843384,0.0904236,3.5482178,0.1469116
		c1.0055237,0.0452271,2.0113525,0.1130371,2.9942627,0.1808167h0.0791626
		c0.9492493,0.0678101,1.8869324,0.1355896,2.8135681,0.2146912c0.621521,0.045166,1.2317505,0.1016541,1.8417053,0.1581421
		c1.0397339,0.1017456,2.0678711,0.2033997,3.085022,0.3164368c2.2712097,0.2485352,4.4971619,0.5423279,6.677887,0.8700867
		c0.6554565,0.1016541,1.3106384,0.2033691,1.9548035,0.3050232c1.1186523,0.1808472,2.2259827,0.3728943,3.321991,0.5762939
		c0.2488403,0.045166,0.4971008,0.0904236,0.7459412,0.1355896c0.5649719,0.1017151,1.1186523,0.2146912,1.6723022,0.3277283
		c0.5536804,0.1016541,1.0960083,0.2146301,1.6270752,0.3276672c0.7006836,0.1468811,1.401123,0.2937927,2.0905151,0.4519348
		c0.3161316,0.0678711,0.6212463,0.1356506,0.9263611,0.2146912c0.8138123,0.1808167,1.6270447,0.3728943,2.4295654,0.5762939
		c1.0507813,0.2486267,2.0789185,0.5197754,3.0960388,0.7909546c0.711731,0.1920776,1.4124451,0.3842163,2.1128845,0.5762939
		c5.3672485,1.5028687,10.4972839,3.2429504,15.4465942,5.1525879c0.6665039,0.2598572,1.3219604,0.5198059,1.977417,0.7796631
		c0.7909241,0.3163452,1.5818176,0.6327515,2.3614197,0.9604187c0.7911987,0.3164368,1.5708008,0.644104,2.3504028,0.9830627
		c0.7796021,0.3277283,1.5481567,0.666687,2.3164368,1.0056763c2.757019,1.2090454,5.468811,2.4632874,8.1582336,3.7627563
		c0.5084229,0.2373047,1.0168457,0.4858704,1.5255432,0.734436c1.0055237,0.4971619,2.0110474,0.9943542,3.0168762,1.4915161
		c0.3164063,0.1582336,0.6212463,0.3051147,0.9379578,0.4746399c0.6325378,0.3163452,1.2653809,0.632782,1.8869019,0.9604187
		c3.1526184,1.5819702,6.2825928,3.2316589,9.4349365,4.9040222c1.4237671,0.7570496,2.8588257,1.5140991,4.2938843,2.2711487
		c1.7401428,0.9152527,3.4690247,1.8418274,5.2204895,2.7796936c0.6438599,0.3389893,1.2880249,0.677948,1.9208374,1.0169983
		c8.8815918,4.6667175,18.0905762,9.3785706,28.1583252,13.7627869c1.0733643,0.4745789,2.1696777,0.9378967,3.265686,1.401123
		c0.5537109,0.2373352,1.1073608,0.4632568,1.6610107,0.68927c0.7230225,0.3051147,1.4577026,0.6102295,2.2033691,0.9039307
		c1.2203979,0.4859619,2.4405518,0.9718323,3.6836548,1.4463806c0.621521,0.2373047,1.243042,0.4745483,1.8756104,0.7118835
		c3.1978149,1.1977539,6.4859009,2.3615417,9.887085,3.4689636c1.265625,0.4180603,2.5536499,0.8248291,3.8532715,1.2315979
		c2.0563354,0.632782,4.1468506,1.242981,6.2713013,1.8418274c0.711731,0.2033691,1.4234619,0.3955078,2.1467896,0.5875854
		c2.1580811,0.587616,4.3614502,1.1412659,6.6103516,1.6836243c0.7456665,0.1807556,1.5026245,0.3616028,2.2598877,0.5310974
		c0.756958,0.1807861,1.5252686,0.3503113,2.2935181,0.5197449c0.2373047,0.056488,0.4747925,0.1017151,0.7120361,0.1582031
		c0.6325684,0.1355896,1.2767334,0.2711792,1.9208984,0.4067688c0.8927002,0.1920776,1.7966919,0.3729248,2.7006836,0.5536804
		c3.8643799,0.7683411,7.8754883,1.4802246,12.022583,2.1130066c0.7230225,0.1130371,1.4577026,0.2146912,2.1920166,0.3164063
		c0.5876465,0.0904236,1.1865234,0.1807556,1.7854004,0.2598572c0.8248901,0.1130371,1.6497192,0.2260132,2.4971924,0.3277283
		c2.0792236,0.2711792,4.1920776,0.5310669,6.3501587,0.7570496c0.6893921,0.0791016,1.3898315,0.1582336,2.0905151,0.2260132
		c0.7007446,0.0678101,1.4124756,0.1355896,2.1242065,0.2033691c3.2543945,0.3050537,6.5877075,0.5762939,10.0114746,0.7909851
		c0.8135376,0.056488,1.6270752,0.1129761,2.4406128,0.1581421c0.8813477,0.0452576,1.7627563,0.0904236,2.6554565,0.1355896
		c2.2712402,0.1130371,4.5877075,0.2146912,6.9380493,0.2825012c1.5931396,0.0565491,3.2089233,0.1017151,4.8359375,0.1243286
		c1.265686,0.0225525,2.5537109,0.0451965,3.842041,0.056488c1.3445435,0.011322,2.7004395,0.022644,4.067627,0.022644h0.7459717
		l0.2372437,149.0178528l0.0112915,3.5820313L663.0499878,751.3378906z"/>
	<path class="st8" d="M663.0499878,751.3378906v1.1525269c0,0.4519653-0.0223389,0.9039307-0.0449829,1.3446045
		c-0.0115967,0.3842163-0.0452271,0.7683716-0.0791626,1.1412964c-0.0565796,0.6779175-0.1357422,1.3446045-0.2372437,2
		c-0.0339355,0.2372437-0.0678711,0.4632568-0.1130981,0.68927c-0.0452881,0.3051147-0.1018066,0.5988159-0.1693726,0.9039307
		c-0.1357422,0.644104-0.2825317,1.288147-0.463501,1.9209595c-0.09021,0.3502808-0.1920166,0.7005615-0.3051147,1.0394897
		c-0.0223389,0.0904541-0.0449219,0.1695557-0.0788574,0.2486572c-0.1018066,0.3615723-0.2259521,0.7230835-0.3616943,1.0733643
		c-0.1243896,0.3616333-0.2711792,0.7232056-0.4069214,1.0734863c-0.0112915,0.022644-0.0223389,0.0565186-0.0338745,0.0791016
		l-33.0510864,0.0565186l-287.7192993,0.4633179c-1.4916077-3.6159058-2.3164673-7.5706787-2.3390808-11.7175903
		l-0.4858093-299.0076599c14.7911682-10.655426,36.1810608-18.7459106,72.3169861-18.8023987
		c9.4446106,0,18.9054565,0.5959167,28.2486572,2.000061c0.6554565,0.1016541,1.3106384,0.2033691,1.9548035,0.3050232
		c1.1186523,0.1808472,2.2259827,0.3728943,3.321991,0.5762939c0.2488403,0.045166,0.4971008,0.0904236,0.7459412,0.1355896
		c0.5649719,0.1017151,1.1186523,0.2146912,1.6723022,0.3277283c0.5536804,0.1016541,1.0960083,0.2146301,1.6270752,0.3276672
		c0.7006836,0.1468811,1.401123,0.2937927,2.0905151,0.4519348c0.3161316,0.0678711,0.6212463,0.1356506,0.9263611,0.2146912
		c0.8138123,0.1808167,1.6270447,0.3728943,2.4295654,0.5762939c1.0507813,0.2486267,2.0789185,0.5197754,3.0960388,0.7909546
		c0.711731,0.1920776,1.4124451,0.3842163,2.1128845,0.5762939c5.3672485,1.5028687,10.4972839,3.2429504,15.4465942,5.1525879
		c0.6665039,0.2598572,1.3219604,0.5198059,1.977417,0.7796631c0.7909241,0.3163452,1.5818176,0.6327515,2.3614197,0.9604187
		c0.7911987,0.3164368,1.5708008,0.644104,2.3504028,0.9830627c0.7796021,0.3277283,1.5481567,0.666687,2.3164368,1.0056763
		c2.757019,1.2090454,5.468811,2.4632874,8.1582336,3.7627563c0.5084229,0.2373047,1.0168457,0.4858704,1.5255432,0.734436
		c1.0055237,0.4971619,2.0110474,0.9943542,3.0168762,1.4915161c0.3164063,0.1582336,0.6212463,0.3051147,0.9379578,0.4746399
		c0.6325378,0.3163452,1.2653809,0.632782,1.8869019,0.9604187c3.1526184,1.5819702,6.2825928,3.2316589,9.4349365,4.9040222
		c1.4237671,0.7570496,2.8588257,1.5140991,4.2938843,2.2711487c1.7401428,0.9152527,3.4690247,1.8418274,5.2204895,2.7796936
		c0.6438599,0.3389893,1.2880249,0.677948,1.9208374,1.0169983c8.8815918,4.6667175,18.0905762,9.3785706,28.1583252,13.7627869
		c1.0847168,0.4745789,2.1696777,0.9378967,3.265686,1.401123c0.5537109,0.2373352,1.1073608,0.4632568,1.6610107,0.68927
		c0.734375,0.3051147,1.46875,0.5989075,2.2033691,0.9039307c1.2203979,0.4859619,2.4405518,0.9718323,3.6836548,1.4463806
		c0.621521,0.2373047,1.243042,0.4745483,1.8756104,0.7118835c3.1978149,1.1977539,6.4859009,2.3615417,9.887085,3.4689636
		c1.265625,0.4180603,2.5536499,0.8248291,3.8532715,1.2315979c2.0563354,0.632782,4.1468506,1.242981,6.2713013,1.8418274
		c0.711731,0.1920776,1.4234619,0.3955078,2.1467896,0.5875854c2.1580811,0.587616,4.3614502,1.1412659,6.6103516,1.6836243
		c0.7456665,0.1807556,1.5026245,0.3616028,2.2598877,0.5310974c0.756958,0.1807861,1.5252686,0.3503113,2.2935181,0.5197449
		c0.2373047,0.056488,0.4747925,0.1017151,0.7120361,0.1582031c0.6325684,0.1355896,1.2767334,0.2711792,1.9208984,0.4067688
		c0.8927002,0.1920776,1.7854004,0.3729248,2.7006836,0.5536804c3.8643799,0.7683411,7.8754883,1.4802246,12.022583,2.1130066
		c0.7230225,0.1017151,1.4577026,0.2146912,2.1920166,0.3164063c0.5876465,0.0904236,1.1865234,0.1807556,1.7854004,0.2598572
		c0.8248901,0.1130371,1.6610107,0.2260132,2.4971924,0.3277283c2.0792236,0.2711792,4.1920776,0.5310669,6.3501587,0.7570496
		c0.6893921,0.0791016,1.3898315,0.1469116,2.0905151,0.2260132c0.7007446,0.0678101,1.4124756,0.1355896,2.1242065,0.2033691
		c3.2543945,0.3050537,6.5877075,0.5762939,10.0114746,0.7909851c0.8021851,0.056488,1.6157227,0.1129761,2.4406128,0.1581421
		c0.8813477,0.0452576,1.7627563,0.0904236,2.6554565,0.1355896c2.2712402,0.1130371,4.5877075,0.2146912,6.9380493,0.2825012
		c1.5931396,0.0565491,3.2089233,0.1017151,4.8359375,0.1243286c1.265686,0.0225525,2.5537109,0.0451965,3.842041,0.056488
		c1.3445435,0.011322,2.7004395,0.022644,4.067627,0.022644h0.7459717l0.2372437,149.0178528l0.0112915,3.5820313
		l0.1244507,75.5823975v0.045166L663.0499878,751.3378906z"/>
	<path class="st10" d="M663.0612793,752.1514282c0,4.2146606-0.8135376,8.2260742-2.3277588,11.909668
		c-4.6778564,11.5480957-16,19.7176514-29.2203979,19.7402344l-100.814209,0.1582642
		c3.0621338-6.1357422,5.2655029-12.7685547,6.4293823-19.7629395c0.0791626-0.4632568,0.1580811-0.9378052,0.2259521-1.4124146
		c0.2145996-1.4349976,0.3729858-2.8700562,0.4970703-4.3163452c0.1696777-2.000061,0.2601929-4.0452881,0.2601929-6.1130981
		l1.2880249-273.346405c29.3447876,13.7288513,65.4579468,25.3108521,123.255127,25.22052l0.2485352,149.0178528
		l0.1244507,79.1644287v0.045166L663.0612793,752.1514282z"/>
	<path class="st9" d="M663.0499878,752.4904175c-0.0339355,4.0678101-0.8361816,7.9435425-2.2938232,11.5141602
		c-0.0110474,0.022644-0.0110474,0.0339355-0.022644,0.0565186l-123.5939331,0.1468506
		c0.0792236-0.4745483,0.1467896-0.9490967,0.2146606-1.4237061c0.2145996-1.4349976,0.3729858-2.8700562,0.4970703-4.3163452
		c0.1696777-2.000061,0.2601929-4.0452881,0.2601929-6.1130981l1.2880249-273.346405
		c29.3447876,13.7288513,65.4579468,25.3108521,123.255127,25.22052l0.2485352,149.0178528
		C662.9031982,653.2467651,663.0612793,752.3774414,663.0499878,752.4904175z"/>
	<circle class="st9" cx="470.551178" cy="520.9225464" r="11.9581013"/>
	<circle class="st9" cx="399.3100586" cy="523.5606689" r="33.1724396"/>
	<circle class="st9" cx="447.4963989" cy="582.3657837" r="20.7604961"/>
	<circle class="st9" cx="538.116272" cy="717.8042603" r="23.5809803"/>
	<circle class="st9" cx="500.5587158" cy="673.2070923" r="17.0901279"/>
	<circle class="st9" cx="465.1577454" cy="705.137146" r="10.4504728"/>
	<path class="st12" d="M376.407196,373.2031555h0.0000305c9.1590271,0,16.5838928,7.4248352,16.5838928,16.5838623v224.6666565
		c0,9.1589966-7.4248657,16.5838623-16.5838928,16.5838623h-0.0000305c-9.1589966,0-16.5838623-7.4248657-16.5838623-16.5838623
		V389.7870178C359.8233337,380.6279907,367.2481995,373.2031555,376.407196,373.2031555z"/>
	<path class="st12" d="M377.0763855,647.9868164h0.0000305c9.1590271,0,16.5838623,7.4248657,16.5838623,16.5838623v32.5680542
		c0,9.1589966-7.4248352,16.5838623-16.5838623,16.5838623h-0.0000305c-9.1590271,0-16.5838928-7.4248657-16.5838928-16.5838623
		v-32.5680542C360.4924927,655.4116821,367.9173584,647.9868164,377.0763855,647.9868164z"/>
</g>
</svg>
