<?xml version="1.0" encoding="utf-8"?>
<!-- Generator: Adobe Illustrator 22.1.0, SVG Export Plug-In . SVG Version: 6.00 Build 0)  -->
<svg version="1.1" id="Layer_1" xmlns="http://www.w3.org/2000/svg" xmlns:xlink="http://www.w3.org/1999/xlink" x="0px" y="0px"
	 viewBox="0 0 1000 1000" style="enable-background:new 0 0 1000 1000;" xml:space="preserve">
<style type="text/css">
	.st0{fill:#F1F5D7;}
	.st1{fill:#D6EBD4;}
	.st2{fill:#B8E0D5;}
	.st3{fill:#F3F7DE;}
	.st4{fill:#C4E5DC;}
	.st5{fill:#DDEEDB;}
	.st6{fill:#AADCD9;}
	.st7{fill:#9ED3D7;}
	.st8{opacity:0.81;fill:#F3F7DE;}
	.st9{opacity:0.81;fill:#AADCD9;}
	.st10{fill:#FFDC00;}
	.st11{fill:#FFBE00;}
	.st12{fill:#FFF000;}
	.st13{fill:#EDA80F;}
	.st14{opacity:0.7;fill:#FFFFFF;}
	.st15{opacity:0.5;fill:#FFFFFF;}
</style>
<g>
	<g>
		<polygon class="st0" points="583.8349609,333.1896973 552.1550293,333.2595215 501.8349609,333.3696289 492.375,333.3896484 
			400.7050781,333.5397949 400.7616272,303.9077759 588.7750244,303.9190063 		"/>
		<path class="st1" d="M581.7750244,304.0646362l0.0599365,29.4036255l-9.6799316,0.0703125l-62.3200684,0.1108704
			c-3.0983276,0-5.4699707-4.0982666-5.4799805-8.3475037l-0.0300293-13.0252075
			c-0.0100098-4.6720581,2.8500977-8.3611145,6.3901367-8.3611145c0,0,52.9314575-0.007843,53.0599365-0.007843
			C563.7750244,303.9718323,581.7750244,304.0646362,581.7750244,304.0646362z"/>
		<path class="st2" d="M598.8349609,333.4795227l-44.6799316,0.0698242c-2.960083,0-5.1000977-4.1398926-5.1099854-8.1599121
			l-0.0300293-13.0700684c0-4.4697266,2.6383057-8.3998108,6.0599365-8.3998108
			c0.1105347,0,43.7000732-0.0101013,43.7000732-0.0101013L598.8349609,333.4795227z"/>
	</g>
	<g>
		<path class="st0" d="M587.8682251,209.2439117v21.6600342c0,4.5799561-4.5,8.3299561-10,8.3299561H422.5284119
			c-5.5,0-10-3.75-10-8.3299561v-21.6600342c0-4.5899658,4.5-8.3399658,10-8.3399658h155.3398132
			C583.3682251,200.9039459,587.8682251,204.6539459,587.8682251,209.2439117z"/>
		<path class="st2" d="M587.8682251,209.2439117v21.6600342c0,4.5799561-4.5,8.3299561-10,8.3299561h-37.1315918
			c-5.5,0-10-3.75-10-8.3299561v-21.6600342c0-4.5899658,4.5-8.3399658,10-8.3399658h37.1315918
			C583.3682251,200.9039459,587.8682251,204.6539459,587.8682251,209.2439117z"/>
		<path class="st1" d="M555.8699951,209.2406616v21.6599121c0,4.5800781-4.5,8.3300781-10,8.3300781h-44.8400879
			c5.5,0,10-3.75,10-8.3300781v-21.6599121c0-4.5900879-4.5-8.3400879-10-8.3400879h44.8400879
			C551.3699951,200.9005737,555.8699951,204.6505737,555.8699951,209.2406616z"/>
		<path class="st3" d="M625.1600342,287.8055115c0.0100098,4.2998047-1.6601563,8.3498535-4.6901855,11.3898926
			c-3.0297852,3.0400391-7.0698242,4.7199707-11.369873,4.7299805H378.9100342
			c-2.9699707,0-5.5300293-0.7700195-7.6101074-2.1398926c-1.4399414-0.9399414-2.6499023-2.1601563-3.6098633-3.6101074
			c-1.8000488-2.6799316-2.75-6.119873-2.7602539-9.9299316l-0.079834-51.6999664
			c-0.0100098-4.1799316,1.5600586-8.1101074,4.4399414-11.1101074c0.0800781-0.0898438,0.1599121-0.1799316,0.25-0.2700195
			c0.130127-0.1298828,0.2600098-0.2600098,0.4001465-0.3798828l0.1799316-0.1801758
			c2.9499512-2.7299805,6.75-4.5097656,10.7800293-4.5200195h228.8398438
			c8.6000977,0.380127,15.3200684,7.420166,15.3300781,16.0200195L625.1600342,287.8055115z"/>
		<path class="st4" d="M635.1550293,287.8096619c0.0100098,4.2998047-1.6600342,8.3498535-4.6899414,11.3898926
			c-3.0300293,3.0400391-7.0700684,4.7199707-11.3701172,4.7299805H513.6750488
			c0.3100586,0,0.6199951-0.0100098,0.9299316-0.0300293h0.0400391c0.3100586-0.0200195,0.6099854-0.0400391,0.9099121-0.0898438
			c0.0100098,0.0097656,0.0300293,0.0097656,0.0400391,0c3.5700684-0.4301758,6.880127-2.0302734,9.4500732-4.6101074
			c3.0299072-3.0400391,4.6999512-7.0900879,4.6900635-11.3898926l-0.0100098-8.5700684v-0.0800781l-0.0600586-33.880127v-0.0898438
			l-0.0100098-9.0800781c-0.0100098-8.6000977-6.7399902-15.6398926-15.3400879-16.0200195h105.420166
			c8.5998535,0.380127,15.329834,7.4199219,15.3398438,16.0200195L635.1550293,287.8096619z"/>
		<path class="st5" d="M570.6936035,287.8053894c0.0100098,4.2999268-1.6599121,8.3498535-4.6899414,11.3898926
			s-7.0698242,4.7199707-11.369873,4.7299805h-44.4221191c4.3000488-0.0100098,8.3400879-1.6899414,11.3701172-4.7299805
			s4.619873-7.0899658,4.6098633-11.3898926v-51.7000732c-0.0097656-8.5999756-6.7397461-15.6400146-15.3398438-16.0200195
			h44.421875c8.6000977,0.3800049,15.3300781,7.4200439,15.3400879,16.0200195L570.6936035,287.8053894z"/>
		<path class="st6" d="M600.1798096,272.3352966c0,3.6901855-2.9799805,6.6901855-6.6799316,6.7001953l-67.3000488,0.1298828
			l-21.4499512,0.0300293h-2.8498535l-105.3601074,0.170166c-3.6999512,0.0097656-6.6899414-2.9802246-6.6999512-6.6801758
			l-0.0300293-20.589859c-0.0100098-3.6901855,2.9799805-6.6901855,6.6699219-6.7001953l93.4699707-0.1499023l14.8000488-0.0200195
			l21.4499512-0.0300293l67.25-0.130127c2.5800781-0.0097656,4.8200684,1.4501953,5.9301758,3.5900879
			c0.0998535,0.1799316,0.1899414,0.3701172,0.2700195,0.5700684c0.079834,0.1699219,0.1398926,0.3398438,0.1999512,0.5300293
			c0.1899414,0.6298828,0.3000488,1.3000488,0.3000488,1.9899902L600.1798096,272.3352966z"/>
		<path class="st7" d="M600.1798096,272.3352966c0,3.6901855-2.9799805,6.6901855-6.6799316,6.7001953l-67.3063965,0.1298828
			l-0.0029297-33.969986l67.2592773-0.130127c2.5800781-0.0097656,4.8200684,1.4501953,5.9301758,3.5900879
			c0.0998535,0.1799316,0.1899414,0.3701172,0.2700195,0.5700684c0.079834,0.1699219,0.1398926,0.3398438,0.1999512,0.5300293
			c0.1899414,0.6298828,0.3000488,1.3000488,0.3000488,1.9899902L600.1798096,272.3352966z"/>
	</g>
	<path class="st4" d="M764.2150879,574.3196411L639.1149902,791.0095825c-2.8898926,5-8.2299805,8.0898438-14.0100098,8.0898438
		H374.8950195c-5.7800293,0-11.119873-3.0898438-14.0100098-8.0898438L235.7849121,574.3196411
		c-2.8898926-5.0102539-2.8898926-11.170166,0-16.1801758l125.1000977-216.6799316
		c2.8901367-5.0100098,8.2299805-8.0900879,14.0100098-8.0900879h250.2099609
		c5.7800293,0,11.1201172,3.0800781,14.0100098,8.0900879l125.1000977,216.6799316
		C767.1049805,563.1494751,767.1049805,569.3093872,764.2150879,574.3196411z"/>
	<path class="st5" d="M692.8850098,574.3196411L567.7751465,791.0095825c-2.8901367,5-8.2299805,8.0898438-14.0100098,8.0898438
		H374.8950195c-5.7800293,0-11.119873-3.0898438-14.0100098-8.0898438L235.7849121,574.3196411
		c-2.8898926-5.0102539-2.8898926-11.170166,0-16.1801758l125.1000977-216.6799316
		c2.8901367-5.0100098,8.2299805-8.0900879,14.0100098-8.0900879h178.8701172c5.7800293,0,11.119873,3.0800781,14.0100098,8.0900879
		l125.1098633,216.6799316C695.7751465,563.1494751,695.7751465,569.3093872,692.8850098,574.3196411z"/>
	<path class="st8" d="M646.5549316,574.3196411L521.4450684,791.0095825c-2.8901367,5-8.2299805,8.0898438-14.0100098,8.0898438
		H374.8950195c-5.7800293,0-11.119873-3.0898438-14.0100098-8.0898438L235.7849121,574.3196411
		c-2.8898926-5.0102539-2.8898926-11.170166,0-16.1801758l125.1000977-216.6799316
		c2.8901367-5.0100098,8.2299805-8.0900879,14.0100098-8.0900879h132.5400391c5.7800293,0,11.119873,3.0800781,14.0100098,8.0900879
		l125.1098633,216.6799316C649.4450684,563.1494751,649.4450684,569.3093872,646.5549316,574.3196411z"/>
	<path class="st7" d="M737.0195923,569.1032104c-0.3300781,2.0898438-1.050293,4.1401367-2.1401367,6.0297852l-3.1098633,5.3701172
		v0.0102539l-2.0698242,3.5996094l-6.9599609,12.050293l-7.9902344,13.8398438l-92.8100586,160.75
		c-1.1999512,2.0698242-3.4099121,3.3500977-5.8000488,3.3500977H383.8497009c-2.3901367,0-4.6000977-1.2802734-5.8000488-3.3500977
		l-93.9001465-162.6499023l-7.9299316-13.75l-5.4099121-9.3701172l-5.8200684-10.0800781
		c-0.8601074-1.4897461-1.4799805-3.0898438-1.8601074-4.7197266c-1-4.2299805-0.3898926-8.75,1.8500977-12.6298828
		l40.8100586-70.6801758l3.4699707-6l6.3498535-11.0102539l2.4301758-4.199707l60.0100098-103.9501953
		c1.1999512-2.0698242,3.4099121-3.3398438,5.8000488-3.3398438h232.2897644c2.3901367,0,4.6000977,1.2700195,5.8000488,3.3500977
		l60.1899414,104.25l4.2001953,7.2797852l4.7397461,8.2001953l6.0600586,10.5l34.6000977,59.9199219l3.1499023,5.4599609
		C736.9692993,560.9430542,737.6792603,565.1032104,737.0195923,569.1032104z"/>
	<path class="st4" d="M651.0151367,566.2295532L531.005127,774.0994263H384.4354858
		c-2.7539063,0-5.298584-1.4691772-6.6755066-3.854187L265.4153137,575.6525879
		c-3.3664246-5.8309937-3.366333-13.0150146,0.0002136-18.8459473L378.0453186,361.729187
		c1.2003479-2.07901,3.4186401-3.3597412,5.8193054-3.3597412H531.005127L651.0151367,566.2295532z"/>
	<polygon class="st9" points="651.0151367,566.2295532 644.8349609,576.9295044 637.1950684,590.1694946 531.005127,774.0994263 
		469.3151855,774.0994263 361.125,586.7095337 353.5151367,573.5296021 349.3049316,566.2295532 395.0251465,487.0396118 
		402.9350586,473.3396606 469.3151855,358.3694458 531.005127,358.3694458 596.2050781,471.2996216 604.2050781,485.1494751 	"/>
	<path class="st10" d="M737.0195923,569.1032104c-0.3300781,2.0898438-1.050293,4.1401367-2.1401367,6.0297852l-3.1098633,5.3701172
		v0.0102539l-2.0698242,3.5996094l-6.9599609,12.050293l-7.9902344,13.8398438l-92.8100586,160.75
		c-1.1999512,2.0698242-3.4099121,3.3500977-5.8000488,3.3500977H383.8497009c-2.3901367,0-4.6000977-1.2802734-5.8000488-3.3500977
		l-93.9001465-162.6499023l-7.9299316-13.75l-5.4099121-9.3701172l-5.8200684-10.0800781
		c-0.8601074-1.4897461-1.4799805-3.0898438-1.8601074-4.7197266
		c101.8400879-2.0600586,153.380127-29.6699219,203.2900391-56.4101563
		c3.0500488-1.6298828,6.0900879-3.2597656,9.1201172-4.8598633c1.0400391-0.5600586,2.079834-1.1098633,3.1098633-1.6601563
		l3.2900391-1.7397461h0.0200195c1.0700684-0.5600586,2.1401367-1.1201172,3.2199707-1.6704102
		c2.2700195-1.1796875,4.5600586-2.3598633,6.880127-3.5297852c34.1598816-17.2998047,73.2900085-33.25,132.8197937-33.3398438
		h0.6201172c22.8898926,0,42.9899902,2.0498047,60.8300781,6.2797852l4.7397461,8.2001953l6.0600586,10.5l34.6000977,59.9199219
		l3.1499023,5.4599609C736.9692993,560.9430542,737.6792603,565.1032104,737.0195923,569.1032104z"/>
	<path class="st11" d="M737.0195923,569.1032104c-0.3300781,2.0898438-1.050293,4.1401367-2.1401367,6.0297852l-3.1098633,5.3701172
		v0.0102539l-2.0698242,3.5996094l-6.9599609,12.050293l-7.9902344,13.8398438l-92.8100586,160.75
		c-1.1999512,2.0698242-3.4099121,3.3500977-5.8000488,3.3500977H383.8497009c-2.3901367,0-4.6000977-1.2802734-5.8000488-3.3500977
		l-93.9001465-162.6499023l-7.9299316-13.75l-5.4099121-9.3701172
		c109.0898438-3.6201172,162.3999023-36.7597656,214.8498535-64.4697266h0.0100098
		c2.1401367-1.1303711,4.2700195-2.25,6.4101563-3.3603516c5.4799805-2.8496094,10.9799805-5.6201172,16.5598145-8.2700195
		c32.1601257-15.3198242,66.900116-26.8295898,116.2599792-26.909668
		c30.4001465-0.050293,53.7399902,3.7797852,72.2299805,9.9799805l34.6000977,59.9199219l3.1499023,5.4599609
		C736.9692993,560.9430542,737.6792603,565.1032104,737.0195923,569.1032104z"/>
	<path class="st12" d="M737.0195923,569.1032104c-0.3300781,2.0898438-1.050293,4.1401367-2.1401367,6.0297852l-3.1098633,5.3701172
		v0.0102539l-2.0698242,3.5996094l-6.9599609,12.050293l-7.9902344,13.8398438l-92.8100586,160.75
		c-1.1999512,2.0698242-3.4099121,3.3500977-5.8000488,3.3500977H383.8497009c-2.3901367,0-4.6000977-1.2802734-5.8000488-3.3500977
		l-93.9001465-162.6499023l-7.9299316-13.75l-5.4099121-9.3701172l-5.8200684-10.0800781
		c-0.8601074-1.4897461-1.4799805-3.0898438-1.8601074-4.7197266c-1-4.2299805-0.3898926-8.75,1.8500977-12.6298828
		l40.8100586-70.6801758l3.4699707-6l6.3498535-11.0102539c13.0700684-1.909668,27.2402344-2.8598633,42.6901855-2.8896484
		h0.4899902c58.75,0,98.7797852,16,133.2700195,33.3398438c0.119873,0.0600586,0.2399902,0.1201172,0.3598633,0.1801758
		c2.1801758,1.0996094,4.3500977,2.2099609,6.5200195,3.3198242c3.2299805,1.6699219,6.4799805,3.3701172,9.6999512,5.0698242
		c2.7900391,1.4799805,5.5700378,2.9599609,8.3000183,4.4101563
		c51.6499023,27.4399414,105.0600586,55.8198242,213.7900391,55.8198242h1.0297852L737.0195923,569.1032104z"/>
	<path class="st10" d="M729.6997681,584.1129761l-6.9599609,12.050293l-7.9902344,13.8398438L632.109436,753.1432495
		l-10.1699219,17.6098633c-1.1999512,2.0698242-3.4099121,3.3500977-5.8000488,3.3500977H383.8497009
		c-2.3901367,0-4.6000977-1.2802734-5.8000488-3.3500977l-10.170166-17.6098633l-83.7299805-145.0400391l-7.9299316-13.75
		l-5.4099121-9.3701172l-5.8200684-10.0800781c-0.8601074-1.4897461-1.4799805-3.0898438-1.8601074-4.7197266
		c-1-4.2299805-0.3898926-8.75,1.8500977-12.6298828l40.8100586-70.6801758
		c14.75-3.0800781,32.0400391-4.8598633,52.5400391-4.8999023c49.7998047-0.0703125,84.7597656,11.5200195,117.2099609,26.9399414
		c3.3999023,1.6196289,6.7700195,3.2797852,10.1298828,4.9697266c2.1401367,1.0800781,4.2700195,2.1704102,6.4101563,3.2700195
		C549.1594849,546.6032104,604.9495239,583.913269,729.6997681,584.1129761z"/>
	<path class="st11" d="M737.0996704,569.1032104c-0.3300781,2.0898438-1.050293,4.1401367-2.1401367,6.0297852l-3.1098633,5.3701172
		v0.0102539l-2.0703125,3.5996094l-6.9599609,12.050293l-7.9897461,13.8398438l-92.8100586,160.75
		c-1.2001953,2.0698242-3.4101563,3.3500977-5.8000488,3.3500977h-85.130127l106.1901855-183.9301758l7.5200195-13.0297852
		l0.119873-0.2099609l6.1801758-10.7001953l-2.0302734-3.5200195l-44.7797852-77.5600586l-1.3500977-2.3398438
		l-6.6499023-11.5097656l-1.630127-2.8100586c9.5-0.9702148,19.5700684-1.5,30.3000488-1.5200195h0.6201172
		c22.8898926,0,42.9897461,2.0498047,60.829834,6.2797852l4.7399902,8.2001953l6.0600586,10.5l34.6000977,59.9199219
		l3.1499023,5.4599609C737.0493774,560.9430542,737.7593384,565.1032104,737.0996704,569.1032104z"/>
	<path class="st13" d="M737.0996704,569.1032104c-0.3300781,2.0898438-1.050293,4.1401367-2.1401367,6.0297852l-3.1098633,5.3701172
		v0.0102539l-2.0703125,3.5996094l-6.9599609,12.050293l-7.9897461,13.8398438l-92.8100586,160.75
		c-1.2001953,2.0698242-3.4101563,3.3500977-5.8000488,3.3500977h-85.130127l106.1901855-183.9301758l7.5200195-13.0297852
		l0.119873-0.2099609l6.1801758-10.7001953l-2.0302734-3.5200195l-44.7797852-77.5600586l-1.3500977-2.3398438
		c7.0200195-0.5400391,14.3500977-0.8300781,22.0400391-0.8398438c30.3999023-0.050293,53.7399902,3.7797852,72.2299805,9.9799805
		l34.6000977,59.9199219l3.1499023,5.4599609C737.0493774,560.9430542,737.7593384,565.1032104,737.0996704,569.1032104z"/>
	<path class="st10" d="M737.0996704,569.1032104c-0.3300781,2.0898438-1.050293,4.1401367-2.1401367,6.0297852l-3.1098633,5.3701172
		v0.0102539l-2.0703125,3.5996094l-6.9599609,12.050293l-7.9897461,13.8398438l-92.8100586,160.75
		c-1.2001953,2.0698242-3.4101563,3.3500977-5.8000488,3.3500977h-85.130127l106.1901855-183.9301758l7.5200195-13.0297852
		l0.119873-0.2099609l6.1801758-10.7001953l-2.0302734-3.5200195c23.4902344,4.0302734,50.300293,6.3999023,81.7402344,6.3999023
		h1.0297852L737.0996704,569.1032104z"/>
	<path class="st11" d="M729.7793579,584.1129761l-6.9599609,12.050293l-7.9897461,13.8398438l-82.6401367,143.1401367
		l-10.1699219,17.6098633c-1.2001953,2.0698242-3.4101563,3.3500977-5.8000488,3.3500977h-85.130127l12.1000977-20.9599609
		l94.0900879-162.9702148l7.5200195-13.0297852C669.239563,581.4733276,697.1494751,584.0631714,729.7793579,584.1129761z"/>
	<circle class="st11" cx="403.1280212" cy="722.4505615" r="15.13449"/>
	<circle class="st11" cx="435.2946167" cy="734.7336426" r="7.8409781"/>
	<circle class="st11" cx="398.8487854" cy="629.5401001" r="8.9113703"/>
	<circle class="st11" cx="423.0724792" cy="566.5543823" r="36.2204094"/>
	<circle class="st11" cx="348.0679932" cy="598.2026367" r="21.3441696"/>
	<path class="st14" d="M388.5699463,699.1723633c-7.0200195,4.0598145-15.9899902,1.6499023-20.0498047-5.3701172
		l-63.4072571-108.5493774c-6.6632996-11.5429688-6.6630249-25.7637939,0.0007629-37.3064575l38.558136-66.9070435
		c4.0500488-7.0097656,13.0300293-9.4199219,20.0400391-5.369873l-0.004425,0.0029907
		c7.0200195,4.0498047,9.4343567,13.0270386,5.3843079,20.0470581l-38.1841736,66.2511597
		c-1.653717,2.8642578-1.6538086,6.3931885-0.0002441,9.2575684l63.0327759,107.894043
		C398.0001221,686.142334,395.5899658,695.1223145,388.5699463,699.1723633z"/>
	<path class="st15" d="M406.0992737,429.6286316l-13.380127,23.1901855c-2.6098633,4.5-7.4599609,7.3098145-12.6699219,7.3098145
		c-2.5600586,0-5.0800781-0.6799316-7.3000488-1.9599609c-6.9799805-4.0300293-9.3798828-12.9899902-5.3498535-19.9699707
		l13.3898926-23.1799316c2.5998535-4.5100098,7.4499512-7.3100586,12.6599121-7.3100586
		c2.5600586,0,5.0800781,0.6799316,7.3000488,1.9599609c3.380127,1.9499512,5.8000488,5.1000977,6.8100586,8.869873
		C408.5692444,422.3085632,408.0492249,426.2487488,406.0992737,429.6286316z"/>
	<circle class="st11" cx="566.6002808" cy="614.2012329" r="21.8636742"/>
	<circle class="st11" cx="528.4291382" cy="648.8233032" r="10.9741716"/>
	<circle class="st11" cx="536.4499512" cy="681.3024902" r="6.4533386"/>
	<path class="st11" d="M632.109436,753.1432495l-10.1699219,17.6098633
		c-1.1999512,2.0698242-3.4099121,3.3500977-5.8000488,3.3500977H383.8497009c-2.3901367,0-4.6000977-1.2802734-5.8000488-3.3500977
		l-10.170166-17.6098633H632.109436z"/>
	<path class="st13" d="M632.1895142,753.1432495l-10.1699219,17.6098633
		c-1.2001953,2.0698242-3.4101563,3.3500977-5.8000488,3.3500977h-85.130127l12.1000977-20.9599609H632.1895142z"/>
</g>
</svg>
