<?xml version="1.0" encoding="utf-8"?>
<!-- Generator: Adobe Illustrator 22.1.0, SVG Export Plug-In . SVG Version: 6.00 Build 0)  -->
<svg version="1.1" id="Layer_1" xmlns="http://www.w3.org/2000/svg" xmlns:xlink="http://www.w3.org/1999/xlink" x="0px" y="0px"
	 viewBox="0 0 1000 1000" style="enable-background:new 0 0 1000 1000;" xml:space="preserve">
<style type="text/css">
	.st0{fill:#0E121E;}
	.st1{fill:#DDEEDB;}
	.st2{fill:#F3F7DE;}
	.st3{fill:#C4E5DC;}
	.st4{fill:#E7EAD0;}
	.st5{fill:#AADCD9;}
	.st6{fill:#9ED3D7;}
	.st7{fill:#5E5EE5;}
	.st8{fill:#4F3DD3;}
	.st9{fill:#7979F2;}
	.st10{fill:#3131AF;}
	.st11{opacity:0.5;fill:#FFFFFF;}
	.st12{fill:#FFDD9D;}
	.st13{fill:#FFC98F;}
	.st14{fill:#81C6CB;}
</style>
<g>
	<path class="st0" d="M647.7212524,434.0613098l-0.0324097,0.2278442c-0.0325928,0.2386475-0.0759277,0.4882202-0.130188,0.7268372
		l-3.3306274,16.8045349l-14.0923462,71.3189392l-52.9088135,267.6033936H406.8164978l-42.8847046-216.9727783h33.1751099
		l36.4515076,184.4268188h116.9266357l47.7231445-241.3604736l14.0924072-71.3406067l1.9852295-9.9807434l-44.6638794-26.1560669
		l-1.6923218-0.9981079c-24.5396118-14.3635864-45.6077271-33.1968079-62.6400146-55.9898071
		c-2.614563-3.5040894-5.1315308-7.0949707-7.5290222-10.7618408h-11.4778137
		c-2.41922,3.6885071-4.9577637,7.3119812-7.5940552,10.8377991c-4.599823,6.1511536-9.503418,12.0094299-14.6889648,17.5747986
		l-32.9474487-13.0726013c7.8544006-7.2903137,15.0796509-15.3074646,21.5888367-24.0080261
		c5.6630859-7.5723877,10.7075806-15.5569763,15.0796204-23.8778687h48.6019287
		c4.3612061,8.2991638,9.3948364,16.2729492,15.046936,23.8452759
		c14.4070435,19.2780457,32.2422485,35.2038574,53.0065918,47.3759766l1.7681885,1.0306396l49.8928833,29.2262268
		C644.4775391,415.4884644,649.1750488,424.9376526,647.7212524,434.0613098z"/>
	<path class="st1" d="M708.1038818,450.4523315c-0.1300659,0.7919922-0.2817993,1.5947876-0.4338379,2.3867188
		l-74.1505127,375.0916138c-2.6904907,13.6150513-14.6345825,23.4222412-28.5100098,23.4222412H394.9906616
		c-13.8754578,0-25.8198242-9.8071899-28.5102539-23.4222412l-74.1505432-375.0916138
		c-0.1626282-0.7919312-0.3035278-1.5947266-0.4338379-2.3867188
		c-5.2288513-31.2765808,10.0675659-62.4338989,37.4386597-78.4573059l51.4332886-30.1266785
		c14.6673889-8.6029663,27.2953491-19.9723816,37.2868958-33.3270569
		c9.9806824-13.3546448,17.3143921-28.6729126,21.4043274-45.1845093h121.0815125
		c4.0899658,16.5115967,11.4238892,31.8298645,21.4046021,45.1845093
		c7.0730591,9.4600525,15.4701538,17.9219971,24.984436,25.1037903c3.9161987,2.9725037,8.0170288,5.7063904,12.3021851,8.2232666
		l35.9742432,21.0680237l13.8860474,8.1365051l1.5732422,0.9221497
		C698.0365601,388.0184326,713.3330078,419.1757507,708.1038818,450.4523315z"/>
	<path class="st2" d="M607.1154785,367.8846436c-0.1520386,0.9546814-0.3255005,1.9093628-0.5206909,2.8640442
		l-89.8702393,452.778717c-2.9942017,15.1013184-15.4918823,26.2861938-30.5279236,27.8267822h-91.2045593
		c-13.8754578,0-25.8198242-9.807251-28.5102539-23.4221802l-74.1505432-375.0916443
		c-0.1626282-0.7919312-0.3035278-1.594696-0.4338379-2.3867798c-5.229126-31.2765503,10.0675659-62.4338074,37.4386597-78.4572754
		l51.4332886-30.1266785c8.9066772-5.229126,17.0759888-11.4779358,24.3336792-18.572876
		c0.0974731-0.086731,0.1843262-0.1844788,0.282074-0.2712097c4.5889587-4.5021973,8.8198242-9.351532,12.6711426-14.4829102
		c4.3285828-5.7932739,8.1581726-11.9552002,11.445343-18.4209595c0.0217285-0.0325623,0.0325928-0.0760193,0.0543213-0.1085815
		c4.2634277-8.4185486,7.6046143-17.3469543,9.9046631-26.6550598h121.0815125
		c2.2999878,9.3081055,5.6414795,18.2365112,9.9049072,26.6550598c0.0217285,0.0325623,0.0325928,0.0760193,0.0543213,0.1085815
		c3.2871704,6.4657593,7.1167603,12.6276855,11.4453735,18.4209595c3.8401489,5.1422424,8.0712891,9.9807129,12.6602783,14.4829102
		c0.0977173,0.086731,0.1843262,0.1844788,0.2820435,0.2712097c3.7753296,3.6994324,7.8001099,7.1383667,12.0421143,10.3495178
		C608.6993408,345.8076782,608.8296509,357.6327209,607.1154785,367.8846436z"/>
	<path class="st3" d="M708.1038818,450.4523315c-0.1300659,0.7919922-0.2817993,1.5947876-0.4338379,2.3867188
		l-74.1505127,375.0916138c-2.6904907,13.6150513-14.6345825,23.4222412-28.5100098,23.4222412h-56.4780884
		c7.4746094-0.7702637,14.3201904-3.9163208,19.6901855-8.7548828c5.2508545-4.7191772,9.0913086-11.0656128,10.6860352-18.3666992
		h26.2861938c0.9222412,0,1.7247925-0.651001,1.8984985-1.5622559l38.3717651-194.0820923l8.7872314-44.4468384l9.590332-48.4934082
		l2.7444458-13.8754272l11.3479004-57.4326782l3.2763062-16.522522l0.0431519-0.2386169
		c0.1303101-0.6509705,0.2495117-1.3127136,0.347229-1.963623c0.998291-6.2814026-12.0200806-27.8267822-26.8503418-44.9567566
		l0.1194458-0.6183777c0.1951904-0.9546814,0.3686523-1.9093628,0.5206909-2.8640442
		c1.7141724-10.2519836,1.5838623-22.0769653-0.1843262-34.2383118l13.8860474,8.1365051l1.5732422,0.9221497
		C698.0365601,388.0184326,713.3330078,419.1757507,708.1038818,450.4523315z"/>
	<path class="st4" d="M594.8890381,323.2967529H405.1030579c0.0974731-0.086731,0.1843262-0.1844788,0.282074-0.2712097
		c4.5889587-4.5021973,8.8198242-9.351532,12.6711426-14.4829102c4.3285828-5.7932739,8.1581726-11.9552002,11.445343-18.4209595
		c0.0217285-0.0325623,0.0325928-0.0760193,0.0543213-0.1085815h140.8910828
		c0.0217285,0.0325623,0.0325928,0.0760193,0.0543213,0.1085815c3.2871704,6.4657593,7.1167603,12.6276855,11.4453735,18.4209595
		c3.8401489,5.1422424,8.0712891,9.9807129,12.6602783,14.4829102
		C594.7047119,323.1122742,594.7913208,323.210022,594.8890381,323.2967529z"/>
	<path class="st5" d="M681.4177856,445.6151428c-0.0977173,0.6508789-0.2169189,1.3126526-0.347229,1.9635315l-0.043457,0.2386475
		l-3.2763062,16.522583l-11.3475952,57.4327393l-2.744751,13.8753052l-9.5900269,48.4935303l-8.7875366,44.4468384
		l-38.37146,194.0819702c-0.1737671,0.911377-0.9765625,1.5622559-1.8984985,1.5622559H394.9920654
		c-0.7485046,0-1.4212646-0.43396-1.7250366-1.0848389c-0.0866089-0.1410522-0.1408997-0.303772-0.1734924-0.477417
		l-37.9593811-192.020874l-19.6578369-99.4602051l-2.7556152-13.951355l-9.6660156-48.8731384l-3.2437439-16.4140015
		l-0.8679504-4.3720398c-0.1300354-0.6508789-0.2494812-1.3126526-0.3469543-1.9635315
		c-3.2002869-20.0049438,6.736969-39.8470154,24.2139587-50.0881958l46.3347473-27.1324463l5.3265991-3.1242981
		c17.7590637-10.4147949,32.9906006-24.0298767,45.3039246-40.4763184c0.3686829-0.4989929,0.7484741-0.9981384,1.1065674-1.5079956
		c7.4637451-10.2303162,13.5499268-21.2089844,18.2366333-32.8062439h81.7660522
		c4.6866455,11.6081238,10.7834473,22.5759277,18.2365723,32.8062439c0.3578491,0.4991455,0.7268066,0.9981384,1.0957642,1.4971313
		c12.3021851,16.4573059,27.5445557,30.083252,45.303894,40.4871826l1.8225098,1.0740051l49.8276978,29.1827393
		C674.6591187,405.7681274,684.6072388,425.5993347,681.4177856,445.6151428z"/>
	<path class="st3" d="M479.5991516,823.1464233H393.265625c-0.0866089-0.1409912-0.1408997-0.303772-0.1734924-0.477356
		l-37.9593506-192.020874l-19.6578674-99.4602661l-2.7555847-13.951416l-9.6660461-48.8730774l-3.2437439-16.4140015
		l-0.8676758-4.3719482c-0.1303101-0.6509705-0.2497559-1.3127136-0.347229-1.963623
		c-3.2002869-20.0048828,6.736969-39.8470764,24.2142334-50.0881958l46.3345032-27.1323853L479.5991516,823.1464233z"/>
	<path class="st6" d="M681.4171753,445.6151428c-0.0975952,0.6508789-0.2169189,1.3126526-0.347229,1.9635925l-0.0432739,0.2386475
		l-3.2763062,16.522522L666.40271,521.772583l-2.744751,13.8753662l-9.5901489,48.4934692l-1.3017578,6.5959473
		l-0.9439697,4.7516479l-6.541748,33.0991821l-32.177002,162.7404175l-1.7141113,8.6789551l-4.4804077,22.6627808
		c-0.173584,0.9112549-0.9765015,1.5621948-1.8984985,1.5621948h-88.4163818l6.5200195-32.9039307l53.8525391-271.7041016
		l30.3852539-153.2718811l49.8187866,29.1743774C674.6585083,405.7681274,684.6066284,425.5993958,681.4171753,445.6151428z"/>
	<path class="st7" d="M681.0256958,447.8161011l-3.2763062,16.522522l-11.3475952,57.4326782l-2.7445068,13.8754272
		l-18.3777466,92.9402466L606.90802,822.6690674c-0.1737671,0.9112549-0.9765015,1.5622559-1.8984985,1.5622559H394.9906616
		c-0.9219666,0-1.7250366-0.651001-1.8985291-1.5622559l-37.9593506-192.020874l-19.6578674-99.4602661l-2.7555847-13.951416
		l1.7684631-2.2890015c68.0860596-4.1550598,105.4378357-23.8561707,141.2926331-43.0691223
		c0.3580933-0.195282,0.7267761-0.3905334,1.0848694-0.5858154c3.2545776-1.7357483,6.4874573-3.4715576,9.7094727-5.1748047
		c2.4518127-1.3017883,4.9144592-2.5820007,7.38797-3.8512573c27.8486633-14.2984924,57.443512-26.5791626,100.0895691-28.4234619
		c3.4932251-0.151825,7.0841675-0.2277527,10.7617188-0.2386169h0.4990234
		C635.819519,433.6044312,660.6522217,438.2584534,681.0256958,447.8161011z"/>
	<path class="st8" d="M677.7493896,464.338623l-11.3475952,57.4326782l-2.7445068,13.8754272l-18.3777466,92.9402466
		L606.90802,822.6690674c-0.1737671,0.9112549-0.9765015,1.5622559-1.8984985,1.5622559H394.9906616
		c-0.9219666,0-1.7250366-0.651001-1.8985291-1.5622559l-37.9593506-192.020874l-19.6578674-99.4602661
		c78.6637573-4.8059692,118.9989014-29.6927185,158.7047424-50.6848755
		c5.9450378-3.1352539,11.8683472-6.194519,17.9111023-9.0694275c22.5109253-10.7509766,46.5731201-19.1803894,78.7503662-21.122345
		c4.5020752-0.2820129,9.1670532-0.4230347,14.0054932-0.4338989
		C638.3908081,449.8231506,661.1186523,455.7139587,677.7493896,464.338623z"/>
	<path class="st9" d="M666.4017944,521.7713013l-2.7445068,13.8754272l-18.3777466,92.9402466L606.90802,822.6690674
		c-0.1737671,0.9112549-0.9765015,1.5622559-1.8984985,1.5622559H394.9906616c-0.9219666,0-1.7250366-0.651001-1.8985291-1.5622559
		l-37.9593506-192.020874l-19.6578674-99.4602661l-2.7555847-13.951416l-9.6660461-48.8730774l-3.2437439-16.4140015
		c19.8747864-8.743988,43.8501282-13.0183716,73.1308289-13.0726013h0.4772949
		c43.4485779,0,74.2588501,10.8161316,100.5450745,23.389679c2.5495605,1.2258911,5.0553894,2.4517822,7.5289001,3.6994019
		c3.5366821,1.7791443,7.084198,3.6234131,10.5991211,5.4677124c3.0159912,1.5839233,6.0101929,3.1786194,8.9609985,4.7408447
		c18.1497803,9.655304,36.6141357,19.4624634,59.1467896,27.3494263
		c22.6952515,7.9519958,49.5350342,13.9404602,84.3590088,15.8715515L666.4017944,521.7713013z"/>
	<path class="st7" d="M663.657959,535.6479492l-9.5901489,48.4934692l-1.3017578,6.5959473l-0.9439697,4.7516479
		l-6.541748,33.0991821l-32.177002,162.7404175l-1.7141113,8.6789551l-4.4804077,22.6627808
		c-0.173584,0.9112549-0.9765015,1.5621948-1.8984985,1.5621948H394.9914551c-0.9220886,0-1.724884-0.6509399-1.8984985-1.5621948
		l-4.4804993-22.6627808l-1.7140503-8.6789551l-31.7648315-160.6791382l-19.6577148-99.4602661l-2.7554626-13.951355
		l-9.6663208-48.8731384c16.3272705-7.8652649,38.3066101-13.1594238,69.9195557-13.2136536
		c34.357666-0.0542297,59.819397,6.8889465,82.8075867,16.7285767c6.2814026,2.679657,12.3674927,5.5870972,18.3993835,8.6246948
		c25.3424072,12.7471313,49.7192383,27.8484802,82.7858887,39.1201782
		C600.3779297,527.6199341,628.1287231,533.6735229,663.657959,535.6479492z"/>
	<path class="st8" d="M681.0256958,447.8161011l-3.2763062,16.522522l-11.3475952,57.4326782l-2.7445068,13.8754272
		l-18.3777466,92.9402466L606.90802,822.6690674c-0.1737671,0.9112549-0.9765015,1.5622559-1.8984985,1.5622559h-88.3297729
		l6.5200195-32.9039307l70.8525391-357.4843445c3.4932251-0.151825,7.0841675-0.2277527,10.7617188-0.2386169h0.4990234
		C635.819519,433.6044312,660.6522217,438.2584534,681.0256958,447.8161011z"/>
	<path class="st10" d="M677.7493896,464.338623l-10.8920288,55.1219482l-0.4555664,2.31073l-2.7445068,13.8754272
		l-18.3777466,92.9402466L606.90802,822.6690674c-0.1737671,0.9112549-0.9765015,1.5622559-1.8984985,1.5622559h-88.2755127
		l6.5092163-32.9039307l57.0421753-287.7709656l10.5557251-53.2451477
		c4.5020752-0.2820129,9.1670532-0.4230347,14.0054932-0.4338989
		C638.3908081,449.8231506,661.1186523,455.7139587,677.7493896,464.338623z"/>
	<path class="st7" d="M666.8573608,519.4605713l-0.4555664,2.31073l-2.7445068,13.8754272l-18.3777466,92.9402466
		L606.90802,822.6690674c-0.1737671,0.9112549-0.9765015,1.5622559-1.8984985,1.5622559h-88.3729858l6.5197754-32.9039307
		l57.0422363-287.8034973c0.0325928,0.0108643,0.0543213,0.0216675,0.086853,0.0325317
		C602.9481201,511.4867554,632.1202393,517.52948,666.8573608,519.4605713z"/>
	<path class="st8" d="M663.657959,535.6479492l-9.5901489,48.4934692l-1.3017578,6.5959473l-7.4857178,37.8508301
		l-32.177002,162.7404175l-1.7141113,8.6789551l-4.4804077,22.6627808c-0.173584,0.9112549-0.9765015,1.5621948-1.8984985,1.5621948
		h-88.4163818l4.7949829-24.2249756l1.7250366-8.6789551l53.8525391-271.7041016
		C600.3779297,527.6199341,628.1287231,533.6735229,663.657959,535.6479492z"/>
	<path class="st8" d="M611.3883667,800.0062866l-4.4803467,22.6627808
		c-0.1737671,0.9112549-0.9765015,1.5622559-1.8984985,1.5622559H394.9906616c-0.9219666,0-1.7250366-0.651001-1.8985291-1.5622559
		l-4.4806213-22.6627808H611.3883667z"/>
	<path class="st10" d="M611.3883667,800.0062866l-4.4803467,22.6627808
		c-0.1737671,0.9112549-0.9765015,1.5622559-1.8984985,1.5622559h-88.4163818l4.7949829-24.2250366H611.3883667z"/>
	<circle class="st8" cx="410.0371399" cy="534.4616699" r="33.6307755"/>
	<circle class="st8" cx="469.7876282" cy="574.7485962" r="17.3578186"/>
	<path class="st11" d="M452.8197327,395.6341858c-21.9698792,18.333374-48.0693665,31.63974-72.7578125,45.9722595
		c-1.3875732,0.8055725-2.1057129,2.4067078-1.7945251,3.9807129l38.7626953,196.0723877
		c1.7250366,8.6246948-3.8620605,17.0107422-12.4867859,18.7355957c-1.0523071,0.2061768-2.1045837,0.3146362-3.1459961,0.3146362
		c-7.431427,0-14.0706482-5.2290039-15.5895081-12.8013916c0,0-42.0303345-206.0988159-41.7081604-211.0248718
		c0.3045044-4.6562805,2.1200562-9.1549683,4.9999695-12.8126831c3.6759949-4.6688538,8.8816223-7.2791748,13.9397888-10.166687
		c11.668457-6.6610718,23.4985962-13.0395508,35.0475159-19.9092102
		c11.4954529-6.8378296,22.7444153-14.1714783,33.0725098-22.6950378c0.2050476-0.1692505,0.4097595-0.3389587,0.6140442-0.5090942
		c4.6215515-3.8403931,10.9353943-4.9252625,16.5224609-2.7121582
		C459.719574,372.6133423,462.2581177,387.7580566,452.8197327,395.6341858z"/>
	<circle class="st8" cx="441.5671997" cy="611.7182007" r="10.8938398"/>
	<circle class="st8" cx="478.5332336" cy="695.5249634" r="29.7583313"/>
	<circle class="st8" cx="541.8094482" cy="709.5215454" r="15.3591385"/>
	<circle class="st8" cx="507.8674316" cy="744.1798096" r="9.6394596"/>
	<path class="st11" d="M426.1035461,688.9092407l7.8206787,40.6795654
		c1.6554565,8.6309204-3.9971924,16.9744263-12.6384277,18.6331787c-7.9846497,1.538269-15.7233276-3.192627-18.1578064-10.7401733
		c-0.0932007-0.2889404-0.1761475-0.5814209-0.2487183-0.8771973l-0.0166321-0.0515747l-7.8499451-40.8755493
		c-1.6585388-8.6412964,3.9941101-16.9848022,12.6353455-18.6436157
		C416.0211792,675.4274902,424.1284485,680.7006226,426.1035461,688.9092407z"/>
	<g>
		<g>
			<path class="st12" d="M576.9057007,174.5258942l-9.270752,51.4605865
				c0.0109863,6.7911987-2.1364136,12.9348297-5.5888062,17.2934723c-3.7592773,4.0143738-9.1038818,6.5378571-15.0015259,6.5473938
				l-94.0554504,0.1522369c-11.3483582,0.0183563-20.6438599-9.2470856-20.6622314-20.5955353l-9.2750549-56.475647
				c-1.298584-7.9070587,1.897644-16.0223083,8.5257568-20.5251923c3.2901306-2.2351837,7.2529297-3.5467072,11.5086365-3.5535889
				l113.533783-0.1837616c2.9487305-0.004776,5.7611694,0.6193237,8.3080444,1.7448425
				c4.9735107,2.197937,8.6521606,6.5250397,10.5377808,11.6251831c0.8204346,2.2191772,1.3878784,4.631012,1.6523438,7.1687927
				C577.3037109,170.9646759,577.2230225,172.7646027,576.9057007,174.5258942z"/>
			<path class="st13" d="M576.9154663,174.4717407l-9.2805176,51.51474
				c0.0109863,6.7911987-2.1364136,12.9348297-5.5888062,17.2934723c-3.3769531,3.6052551-8.0197144,5.9998932-13.2017822,6.4551086
				c-0.5870972,0.0647736-1.1870117,0.0912933-1.7997437,0.0922852l-25.3265381,0.0410004
				c9.8293457-0.0159149,17.854187-10.7518921,17.8330078-23.8364105l9.6524658-53.5792999
				c-0.0211792-13.0845337-8.0806885-23.7816925-17.9100342-23.7657776l25.3265381-0.0410004
				c2.9487305-0.004776,5.7612305,0.6193237,8.3080444,1.7448578c4.9737549,2.1980286,8.6524658,6.5254364,10.5380249,11.6258087
				c0.8963623,2.4246521,1.4906006,5.0792542,1.7177734,7.8768005
				C577.3080444,171.4225311,577.1875,172.961792,576.9154663,174.4717407z"/>
			<circle class="st13" cx="481.5180359" cy="211.6676483" r="13.584919"/>
			<circle class="st13" cx="481.8060303" cy="166.4138031" r="7.6022658"/>
			<circle class="st13" cx="452.2217407" cy="181.6752777" r="14.8739986"/>
			<circle class="st13" cx="527.6494141" cy="181.6752777" r="10.0592632"/>
		</g>
		<path class="st2" d="M606.8590698,225.9654999v51.8130951c0,6.9648132-5.9667358,12.6603394-13.2678833,12.6603394H406.408783
			c-7.3011169,0-13.2678528-5.6955261-13.2678528-12.6603394v-51.8130951c0-6.9648743,5.9667358-12.6604156,13.2678528-12.6604156
			h187.1824036C600.892334,213.3050842,606.8590698,219.0006256,606.8590698,225.9654999z"/>
		<path class="st1" d="M606.8590698,225.9654999v51.8130951c0,6.9648132-5.9667358,12.6603394-13.2678833,12.6603394h-88.1777344
			c-7.6591187,0-13.907959-5.6955261-13.907959-12.6603394v-51.8130951c0-6.9648743,6.2488403-12.6604156,13.907959-12.6604156
			h88.1777344C600.892334,213.3050842,606.8590698,219.0006256,606.8590698,225.9654999z"/>
	</g>
	<path class="st14" d="M559.1210938,323.2858887H440.8818359c7.4637451-10.2303162,13.5499268-21.2089844,18.2366333-32.8062439
		h81.7660522C545.571167,302.0877686,551.6679688,313.0555725,559.1210938,323.2858887z"/>
</g>
</svg>
