<?xml version="1.0" encoding="utf-8"?>
<!-- Generator: Adobe Illustrator 22.1.0, SVG Export Plug-In . SVG Version: 6.00 Build 0)  -->
<svg version="1.1" id="Layer_1" xmlns="http://www.w3.org/2000/svg" xmlns:xlink="http://www.w3.org/1999/xlink" x="0px" y="0px"
	 viewBox="0 0 1000 1000" style="enable-background:new 0 0 1000 1000;" xml:space="preserve">
<style type="text/css">
	.st0{fill:#FFC98F;}
	.st1{fill:#FFDD9D;}
	.st2{fill:#1E1E1E;}
	.st3{fill:#333333;}
	.st4{fill:#282828;}
	.st5{fill:#FFFFFF;}
	.st6{fill:#232323;}
	.st7{fill:#383838;}
</style>
<path class="st0" d="M588.4941406,1350.8792725l-7.3930664,32.4185791
	c-1.8181763,4.4360352-6.133606,7.3331299-10.9242554,7.3331299h-166.549469c-4.7906494,0-9.1060486-2.8970947-10.9242249-7.3331299
	l-7.3930969-32.4187012c-0.3951111-1.732666-0.8774109-3.4429932-1.3371277-5.159668
	c-1.9651489-7.3377686,3.5463867-14.8172607,11.418457-14.8172607h183.0214844
	c7.8720703,0,13.3835449,7.4794922,11.418457,14.8172607
	C589.371582,1347.4361572,588.8892822,1349.1466064,588.4941406,1350.8792725z"/>
<path class="st1" d="M553.7900391,1350.8792725l-7.3930664,32.4185791
	c-1.8181763,4.4360352-6.133606,7.3331299-10.9242554,7.3331299H403.6273499c-4.7906494,0-9.1060486-2.8970947-10.9242249-7.3331299
	l-8.2359924-36.1148682c-3.1837463-7.770752,2.5273438-16.2807617,10.9242249-16.2807617h148.3173828
	c7.8720703,0,13.3835449,7.4794922,11.418457,14.8172607
	C554.6674805,1347.4361572,554.1851807,1349.1466064,553.7900391,1350.8792725z"/>
<g>
	<path class="st2" d="M428.1610107,1576.7327881l-7.0821838-2.5999756c-4.284729-1.572998-6.503418-6.3657227-4.9304199-10.6503906
		l8.4499817-23.0172119c1.572998-4.284668,6.3656921-6.503418,10.6504211-4.9304199l7.0821838,2.5999756
		c4.284729,1.572998,6.503418,6.3657227,4.9304199,10.6505127l-8.4499817,23.0170898
		C437.2384338,1576.0871582,432.4457397,1578.3057861,428.1610107,1576.7327881z"/>
	<path class="st2" d="M545.7738037,1576.7327881l7.0821533-2.5999756c4.284729-1.572998,6.503418-6.3657227,4.9304199-10.6503906
		l-8.4499512-23.0172119c-1.572998-4.284668-6.3657227-6.503418-10.6504517-4.9304199l-7.0821533,2.5999756
		c-4.284729,1.572998-6.503418,6.3657227-4.9304199,10.6505127l8.4499512,23.0170898
		C536.6963501,1576.0871582,541.4890747,1578.3057861,545.7738037,1576.7327881z"/>
</g>
<circle class="st0" cx="441.8066711" cy="1374.5743408" r="16.0040836"/>
<circle class="st0" cx="412.9743958" cy="1355.2115479" r="7.337007"/>
<circle class="st0" cx="506.5432739" cy="1353.9261475" r="12.4148207"/>
<circle class="st0" cx="532.9794312" cy="1348.7320557" r="5.6915236"/>
<path class="st3" d="M604.6621094,1448.121582c0,65.0021973-52.6973877,117.6921387-117.6921387,117.6921387
	c-6.156189,0-12.2067871-0.4753418-18.1064758-1.3881836c-56.4016724-8.7061768-99.5856628-57.4578857-99.5856628-116.3039551
	c0-11.067627,1.5315247-21.7806396,4.3833313-31.9353027h226.6026306
	C603.1306152,1426.3409424,604.6621094,1437.0539551,604.6621094,1448.121582z"/>
<path class="st4" d="M612.2064819,1388.9737549v13.1800537c0,7.7177734-6.3146362,14.0324707-14.0400391,14.0324707H375.7660217
	c-7.717865,0-14.0325623-6.3146973-14.0325623-14.0324707v-13.1800537c0-7.7178955,6.3146973-14.0325928,14.0325623-14.0325928
	h222.4004211C605.8918457,1374.9411621,612.2064819,1381.2558594,612.2064819,1388.9737549z"/>
<g>
	<path class="st5" d="M661.3110352,851.3640747c-26.8529663,0-51.1038818-16.9115601-60.3449097-42.092041l-10.5739746-28.7971191
		H409.6078186l-10.5697021,28.7971191c-9.2495422,25.180481-33.5004272,42.092041-60.3491821,42.092041
		c-7.5600891,0-14.9928284-1.3244019-22.0987244-3.9307861l-17.7095642-6.4946289
		c-33.2584839-12.2251587-50.3695068-49.2064209-38.1612854-82.4436646l9.5084839-25.9020996
		C201.0960388,668.7416992,162.039093,580.1005249,162.039093,484.8034058c0-18.4481812,1.4984283-36.9472656,4.4486084-54.987915
		c0.1867676-1.1121521,0.3735504-2.2158203,0.5688171-3.3279724
		c-14.7848511-14.4155579-23.9113007-34.4597778-23.9113007-56.1000671v-32.9825745
		c0-37.7283325,26.7383728-69.3270569,62.2636108-76.8659363l-2.0035858-8.78685
		c-0.6409607-2.8185883-1.4008026-5.5862427-2.1521301-8.362381l-0.8065338-2.9968719
		c-1.2734528-4.7457581-2.0587463-9.7716675-2.3304291-14.9334106l-0.1018677-2.1563873
		c-0.1018829-5.2551422,0.3438263-10.3150177,1.3116608-15.3748932l0.2037506-1.214035l0.2037506-0.8404694
		c0.9678345-4.4231567,2.4832458-9.0415649,4.4486084-13.5156403c0.2759247-0.6537018,0.636734-1.4432526,1.0230255-2.2497711
		c1.8125458-3.8373566,4.2363586-7.8869629,7.025238-11.6903534c0.2079926-0.2971344,0.7088928-0.9593353,1.23526-1.6385193
		c3.1029816-3.9392242,6.350296-7.3520966,9.8480682-10.3744354l1.9865875-1.6385193
		c3.4510803-2.8270721,7.5388794-5.5352936,11.7879791-7.7680817l1.1885681-0.6282501l1.1461029-0.517868
		c4.4868317-2.1648712,9.1307068-3.8458405,13.8127747-5.0174255l1.5196686-0.3820343l0.8871765-0.1528168
		c5.1405182-1.1036682,10.3065033-1.6639862,15.3706512-1.6639862h457.9737244
		c22.8840332,0,43.9937134,10.3999023,57.9083862,28.5339508c13.9443359,18.1764984,18.5542603,41.2345734,12.6496582,63.2653961
		l-0.7428589,2.7591553c-0.772522,2.8525543-1.5535889,5.6966095-2.2115479,8.5746155l-1.9993286,8.7698822
		c35.5252075,7.5388794,62.2636108,39.1376038,62.2636108,76.8659363v32.9825745
		c0,21.6487732-9.1264648,41.6929932-23.9070435,56.1000671c0.190979,1.078186,0.3735352,2.1563721,0.5518188,3.2430725
		c2.9671631,18.1595154,4.4655762,36.6585999,4.4655762,55.0728149c0,95.2971191-39.0612183,183.9298096-108.1972046,247.7724609
		l9.5169678,25.9276123c5.9046021,16.062561,5.1871948,33.5089722-2.0290527,49.0960693
		c-7.2120361,15.5871582-20.039978,27.421814-36.1237793,33.3306274l-17.7350464,6.5116577
		C676.303894,850.0396729,668.8711548,851.3640747,661.3110352,851.3640747z"/>
	<path class="st4" d="M765.9458008,336.7919006v32.9802551c0,19.3178101-15.8145142,35.1323242-35.1323242,35.1323242H269.3901672
		c-19.3178101,0-35.1323395-15.8145142-35.1323395-35.1323242v-32.9802551
		c0-19.2926025,15.8145294-35.1071167,35.1323395-35.1071167h461.4233093
		C750.1312866,301.6847839,765.9458008,317.4992981,765.9458008,336.7919006z"/>
	<g>
		<g>
			<path class="st6" d="M331.6813049,806.6329956l-17.7217407-6.5059814
				c-10.7216492-3.9360962-16.273468-15.928772-12.3373718-26.6504517l21.1443787-57.5957031
				c3.9360962-10.7216797,15.9288025-16.2734985,26.6504822-12.3373413l17.7217407,6.5059204
				c10.7216797,3.9360962,16.273468,15.928833,12.3373718,26.6505127l-21.1443787,57.5957031
				C354.3956909,805.0172729,342.4029846,810.5690918,331.6813049,806.6329956z"/>
			<path class="st6" d="M668.5223389,806.6329956l17.7217407-6.5059814
				c10.7216797-3.9360962,16.2734985-15.928772,12.3373413-26.6504517l-21.1443481-57.5957031
				c-3.9360962-10.7216797-15.928833-16.2734985-26.6505127-12.3373413l-17.7217407,6.5059204
				c-10.7216187,3.9360962-16.2734375,15.928833-12.3373413,26.6505127l21.1443481,57.5957031
				C645.8079224,805.0172729,657.8006592,810.5690918,668.5223389,806.6329956z"/>
		</g>
		<path class="st4" d="M794.5969849,484.8027954c0,100.446228-50.2791138,189.1385498-127.0508423,242.2697754
			c-9.3486328,6.4699097-20.4520874,9.9365845-31.821167,9.9365845H364.4186401
			c-11.3776855,0-22.4894409-3.4713135-31.8417969-9.9508667
			c-76.7194672-53.1530762-126.9701843-141.8391113-126.9701843-242.2554932c0-16.315033,1.3261414-32.3546753,3.87854-47.9689941
			c1.8015747-10.8600159,4.1787872-21.5198364,7.0813751-31.9293213h567.0203857
			c2.9526978,10.4094849,5.329895,21.0693054,7.1314697,31.9293213
			C793.270813,452.4481201,794.5969849,468.4877625,794.5969849,484.8027954z"/>
		<path class="st2" d="M790.7184448,436.8338013c-3.8534546,1.4762878-8.0073853,2.2770386-12.3613281,2.2770386H221.8465424
			c-4.3539734,0-8.5078735-0.8007507-12.3613434-2.2770386c1.8015747-10.8600159,4.1787872-21.5198364,7.0813751-31.9293213
			h567.0203857C786.5396729,415.3139648,788.9168701,425.9737854,790.7184448,436.8338013z"/>
		<g>
			<path class="st0" d="M754.3151855,242.0942078l-18.4996338,81.1209106
				c-4.5496216,11.1004028-15.3480225,18.3497009-27.3356934,18.3497009h-416.756073
				c-11.9876099,0-22.7860413-7.2492981-27.3356323-18.3497009l-18.4997406-81.1212616
				c-0.9886932-4.3354187-2.1955719-8.6154175-3.3459167-12.9107513
				c-4.9173584-18.3613434,8.8740997-37.0773926,28.5723724-37.0773926h457.973938
				c19.6983032,0,33.489624,18.7160492,28.5723877,37.0773926
				C756.5108032,233.4785614,755.303894,237.7586823,754.3151855,242.0942078z"/>
			<path class="st1" d="M667.4752808,242.0942078l-18.4996338,81.1209106
				c-4.5496216,11.1004028-15.3480225,18.3497009-27.3356934,18.3497009H291.7237854
				c-11.9876099,0-22.7860413-7.2492981-27.3356323-18.3497009l-20.6089478-90.3701324
				c-7.9666748-19.4445648,6.324173-40.7392731,27.3356628-40.7392731h371.1340332
				c19.6983032,0,33.489624,18.7160492,28.5723267,37.0773926
				C669.6708984,233.4785614,668.4639893,237.7586823,667.4752808,242.0942078z"/>
			<circle class="st0" cx="387.2597351" cy="301.3864746" r="40.0469589"/>
			<circle class="st0" cx="315.112854" cy="252.9348602" r="18.3593636"/>
			<circle class="st0" cx="549.249939" cy="249.7185974" r="31.0655575"/>
			<circle class="st0" cx="615.4009399" cy="236.7212067" r="14.2418776"/>
		</g>
		<path class="st7" d="M813.4894409,337.4055786v32.9802246c0,19.3178101-15.8145142,35.1323547-35.1323242,35.1323547H221.8465424
			c-19.3178101,0-35.1323395-15.8145447-35.1323395-35.1323547v-32.9802246
			c0-19.2926025,15.8145294-35.1071472,35.1323395-35.1071472h556.5105591
			C797.6749268,302.2984314,813.4894409,318.1129761,813.4894409,337.4055786z"/>
	</g>
</g>
</svg>
