<?xml version="1.0" encoding="utf-8"?>
<!-- Generator: Adobe Illustrator 22.1.0, SVG Export Plug-In . SVG Version: 6.00 Build 0)  -->
<svg version="1.1" id="Layer_1" xmlns="http://www.w3.org/2000/svg" xmlns:xlink="http://www.w3.org/1999/xlink" x="0px" y="0px"
	 viewBox="0 0 1209 978.0516357" style="enable-background:new 0 0 1209 978.0516357;" xml:space="preserve">
<style type="text/css">
	.st0{fill:#002337;}
	.st1{fill:#0B3544;}
	.st2{fill:#F2AC8C;}
	.st3{fill:#ED927D;}
	.st4{fill:#EFE2C2;}
	.st5{fill:#DDCCA6;}
	.st6{fill:#FFF4D4;}
	.st7{fill:#F6C09C;}
	.st8{fill:#F4B596;}
	.st9{fill:#E6E6E6;}
	.st10{fill:#012438;}
	.st11{fill:#F2F2F2;}
	.st12{fill:#CCCCCC;}
	.st13{fill:#F6E5AF;}
	.st14{fill:#BC7D20;}
	.st15{fill:#EDA11B;}
	.st16{fill:#C23253;}
	.st17{fill:#3A2444;}
	.st18{fill:#32163D;}
	.st19{fill:#492020;}
	.st20{fill:#562929;}
</style>
<g>
	<g>
		<rect x="475.0069275" y="589.7877197" class="st0" width="129.9676666" height="185.5817871"/>
		<path class="st1" d="M785.4609985,390.1534729v130.6465149c0,7.0988159-0.5623169,14.0696411-1.6539307,20.8635864
			c-10.0872803,63.2033691-65.1779785,111.902771-131.1124878,111.902771h-97.463501
			c-65.7087097,0-120.5749512-48.7641602-130.2121887-111.902771c-0.9794006-6.4573975-1.4942627-13.0744629-1.4942627-19.8036499
			V390.1534729H785.4609985z"/>
		<rect x="604.9746094" y="589.3289185" class="st1" width="129.9676666" height="186.0420685"/>
	</g>
	<g>
		<rect x="263.5667419" y="466.4039612" class="st2" width="124.2164307" height="284.2634888"/>
		<rect x="263.5667419" y="456.3122864" class="st3" width="124.2164307" height="33.9221916"/>
		<path class="st4" d="M440.211731,359.5563354v21.9724121h-52.4257202v83.0012817H263.6616211
			c0,0.0690613,0-18.1482849,0-27.877533V359.556366c0-48.5555725,39.7194824-88.2750549,88.2750549-88.2750549
			c24.2849731,0,46.3494263,9.9305725,62.3390503,25.9345703
			C430.2826233,313.2069092,440.211731,335.2713623,440.211731,359.5563354z"/>
		<path class="st2" d="M415.6679077,750.7926025c0,8.6002197-1.4237671,16.8696899-4.0556641,24.5783691H267.5935974
			c-2.6318359-7.7085571-4.0556335-15.9780884-4.0556335-24.5783691c0-0.661499,0.0143738-1.3087158,0.0287476-1.9702759
			c0.2301025-9.1323853,2.0709534-17.8764648,5.2492981-25.9446411
			c8.1832275-20.7528076,25.2399292-37.032959,46.4673767-44.1950684c0.2588501-0.0863037,0.5177002-0.1726074,0.7766113-0.2445068
			c4.6740723-1.5244751,9.5350952-2.6030884,14.5543213-3.192749c1.2799988-0.1582031,2.5599365-0.2732544,3.8542786-0.3595581
			c1.6970215-0.1150513,3.4084778-0.1725464,5.1342773-0.1725464c18.2935791,0,35.0626831,6.4573975,48.1788025,17.2149048
			c9.952179,8.15448,17.8045959,18.7825317,22.6080933,30.9494629
			C413.7982788,731.5210571,415.6679077,740.9411011,415.6679077,750.7926025z"/>
		<path class="st5" d="M353.6179199,465.0909119h-96.1058655c-5.1357422,0-9.3366394-4.2008972-9.3366394-9.3366394l0,0
			c0-5.1357422,4.2008972-9.3366089,9.3366394-9.3366089h96.1058655c5.1357422,0,9.3366089,4.2008667,9.3366089,9.3366089l0,0
			C362.9545288,460.8885803,358.7536621,465.0909119,353.6179199,465.0909119z"/>
		<path class="st3" d="M415.7398071,750.7926025c0,8.6002197-1.4237671,16.8696899-4.0700073,24.5783691h-23.888092v-83.5147095
			c9.9953308,8.1688232,17.8621521,18.8256836,22.6656189,31.0214233
			C413.8702087,731.5210571,415.7398071,740.9411011,415.7398071,750.7926025z"/>
	</g>
	<g>
		<rect x="821.2168579" y="466.4039612" class="st2" width="124.2164764" height="284.2634888"/>
		<rect x="821.2168579" y="456.3122864" class="st3" width="124.2164764" height="33.9221916"/>
		<path class="st4" d="M768.788269,359.5563354v21.9724121h52.4257202v83.0012817h124.1243896c0,0.0690613,0-18.1482849,0-27.877533
			V359.556366c0-48.5555725-39.7194824-88.2750549-88.2750854-88.2750549c-24.2849731,0-46.3494873,9.9305725-62.3390503,25.9345703
			C778.7174072,313.2069092,768.788269,335.2713623,768.788269,359.5563354z"/>
		<path class="st2" d="M945.4620361,750.7926025c0,8.6002197-1.4237671,16.8696899-4.0556641,24.5783691H797.3877563
			c-2.631897-7.7085571-4.0556641-15.9780884-4.0556641-24.5783691c0-9.8515015,1.8695679-19.2714844,5.2780762-27.914917
			c4.8035278-12.1669312,12.6558838-22.7950439,22.6080322-30.9494629
			c13.1160889-10.7575684,29.8852539-17.2149658,48.178772-17.2149658h0.100647c3.0921631,0,6.1266479,0.1870117,9.118103,0.5465698
			c28.116272,3.4084473,51.5153198,22.1478271,61.5681763,47.6178589c3.1783447,8.0681152,5.019165,16.8122559,5.2493286,25.9446411
			C945.4476318,749.4838257,945.4620361,750.1310425,945.4620361,750.7926025z"/>
		<path class="st5" d="M855.3820801,465.0909119h96.105896c5.1356812,0,9.3366089-4.2008972,9.3366089-9.3366394l0,0
			c0-5.1357422-4.2009277-9.3366089-9.3366089-9.3366089h-96.105896c-5.1356812,0-9.3366089,4.2008667-9.3366089,9.3366089l0,0
			C846.0454712,460.8885803,850.2463989,465.0909119,855.3820801,465.0909119z"/>
		<path class="st3" d="M821.2182617,691.8562622v83.5146484h-23.8880005
			c-2.6463013-7.7086182-4.0700684-15.9780884-4.0700684-24.5783691c0-9.8515015,1.8695679-19.2715454,5.2924805-27.914978
			C803.3562012,710.680542,811.2229614,700.0250854,821.2182617,691.8562622z"/>
	</g>
	<path class="st6" d="M887.236145,332.5345154v123.6914978c0,50.1936646-41.0814209,91.2750854-91.2750854,91.2750854H418.3270874
		c-50.2094727,0-91.2894592-41.0814209-91.2894592-91.2750854V332.5345154
		c0-50.1936646,41.0813904-91.2750854,91.2894592-91.2750854h97.7727661
		c1.0757446,46.7579041,38.0482788,84.6724243,84.4480591,87.2409973c1.6726074,0.1049805,3.3466797,0.1495667,5.0336304,0.1495667
		c1.3288574,0,2.6447754-0.0301819,3.9592285-0.0891418c46.9075317-2.0465393,84.4480591-40.1854248,85.538208-87.3014221
		h100.8806763C846.1547241,241.2594452,887.236145,282.3408508,887.236145,332.5345154z"/>
	<path class="st1" d="M495.6575928,238.6362152v338.7486572h-29.8765869V238.6362152
		c0-4.3317719,3.5105896-7.8279572,7.8279724-7.8279572h14.2220459
		C492.161438,230.8082581,495.6575928,234.303009,495.6575928,238.6362152z"/>
	<path class="st1" d="M742.147522,572.8977661h-29.8765869V238.5801086c0-4.2958221,3.4818726-7.7776489,7.77771-7.7776489
		h14.3227539c4.2957764,0,7.7776489,3.4818268,7.7776489,7.7776489v334.3176575H742.147522z"/>
	<path class="st7" d="M694.6345825,241.2594452c0,0.2991333-0.0144043,0.5968323-0.0302124,0.8959961
		c-0.5968018,18.4790802-6.8126221,35.538681-16.9848022,49.5507965
		c-16.28302,22.3779602-42.6792603,36.9437866-72.4680786,36.9437866c-29.5343628,0-55.7205811-14.296875-72.0194092-36.34552
		c-10.576355-14.2968445-17.0006104-31.8641663-17.4637451-50.8954773v-0.1495819H694.6345825z"/>
	<path class="st2" d="M673.0648804,241.2594452c0,0.2272491-0.0115356,0.4544678-0.0230103,0.6817017
		c-0.4544067,14.0567017-5.1817627,27.0333405-12.9205322,37.6930695
		c-12.3855591,17.0222168-32.465332,28.1018982-55.1252441,28.1018982c-22.4656372,0-42.3858032-10.8754578-54.7843018-27.6474304
		c-8.045166-10.8754578-12.9320679-24.2389832-13.2844238-38.7156219v-0.1136169H673.0648804z"/>
	<path class="st4" d="M703.5599365,238.4219208v0.3581085c0,2.4506378-0.0891724,4.8696442-0.2689209,7.2757111
		c-1.105957,15.1324615-5.6463623,29.3401642-12.847229,41.8134613
		c-17.0293579,29.5630798-48.9683228,49.5062256-85.479187,49.5062256c-36.1513672,0-67.8357544-19.5692139-84.9859619-48.6706543
		c-7.6481934-12.9363403-12.3984375-27.7711182-13.3994751-43.6053772c-0.1351929-2.091095-0.2085571-4.1980438-0.2085571-6.3193359
		v-0.3437195c0.0143738-3.0474854,2.5397949-5.5124969,5.631897-5.5124969h0.6715698
		c1.4785156,0,2.8835449,0.5824585,3.9290771,1.628006c1.0901489,1.0901337,1.6884766,2.5541992,1.6884766,4.1376343
		c0,0.5824585,0,1.1505432,0.0301514,1.7330017c0,0.2833252,0,0.5522614,0.0144043,0.8370056
		c0.5681152,19.7331543,7.7531738,37.8397827,19.4052734,52.1352234
		c15.8946533,19.5404663,40.1106567,32.0281067,67.1942749,32.0281067c27.3223877,0,51.7469482-12.7134399,67.6271973-32.5516052
		c11.4133301-14.2364807,18.4345093-32.1187134,18.9724121-51.6131439c0.0144043-0.0604095,0.0144043-0.1193542,0.0144043-0.1797791
		c0.0144043-0.7622223,0.0302124-1.5244598,0.0302124-2.3010864c0-1.6725769,0.5968018-3.1366425,1.6884155-4.2282257
		c1.0455322-1.0455627,2.4492188-1.6280212,3.9290771-1.6280212h0.7319946
		C701.0215454,232.9237976,703.5455322,235.3888245,703.5599365,238.4219208z"/>
	<path class="st4" d="M611.7383423,333.5067444v213.9958191h-13.4454956V333.5067444
		c0-1.9875793,0.8815918-3.779541,2.2550659-5.0048523c1.1951294-1.0599365,2.7641602-1.7171631,4.46698-1.7171631h0.0144043
		c1.7474365,0,3.3308105,0.6716003,4.5115967,1.7775574C610.885498,329.7717896,611.7383423,331.5493774,611.7383423,333.5067444z"
		/>
	<circle class="st4" cx="635.5846558" cy="380.687439" r="7.9674654"/>
	<circle class="st4" cx="635.5846558" cy="439.1965942" r="7.9674678"/>
	<circle class="st4" cx="635.5846558" cy="497.7072449" r="7.9674678"/>
	<circle class="st2" cx="526.5524902" cy="123.8556442" r="16.3462906"/>
	<circle class="st2" cx="682.5783691" cy="123.8556442" r="16.3462906"/>
	<path class="st3" d="M689.5981445,120.2256927l-10.4037476,10.4037476c-1.0470581,1.0469818-2.7584839,1.0469818-3.8054199,0l0,0
		c-1.0469971-1.0469818-1.0469971-2.7584152,0-3.8054123l10.4037476-10.4037476
		c1.0470581-1.0469818,2.7584839-1.0469818,3.8054199,0l0,0
		C690.6436768,117.4672775,690.6436768,119.1787109,689.5981445,120.2256927z"/>
	<path class="st3" d="M685.8373413,131.0953979l-10.4483643-10.4483185c-1.0469971-1.0469894-1.0469971-2.7584152,0-3.8054047l0,0
		c1.0470581-1.0469818,2.7584839-1.0469818,3.8054199,0l10.4483643,10.4483261c1.0469971,1.0469894,1.0469971,2.7584152,0,3.805397
		l0,0C688.5957031,132.142395,686.8828735,132.142395,685.8373413,131.0953979z"/>
	<path class="st3" d="M534.071228,120.2256927l-10.4037476,10.4037476c-1.0470581,1.0469818-2.7584839,1.0469818-3.8054199,0l0,0
		c-1.0469971-1.0469818-1.0469971-2.7584152,0-3.8054123l10.4037476-10.4037476
		c1.0470581-1.0469818,2.7584839-1.0469818,3.8054199,0l0,0
		C535.1182251,117.4672775,535.1182251,119.1787109,534.071228,120.2256927z"/>
	<path class="st3" d="M530.3104248,131.0953979l-10.4483643-10.4483185c-1.0469971-1.0469894-1.0469971-2.7584152,0-3.8054047l0,0
		c1.0470581-1.0469818,2.7584839-1.0469818,3.8054199,0l10.4483032,10.4483261c1.0470581,1.0469894,1.0470581,2.7584152,0,3.805397
		l0,0C533.0687866,132.142395,531.355957,132.142395,530.3104248,131.0953979z"/>
	<path class="st7" d="M604.6409912,255.1464386L604.6409912,255.1464386c-42.7036743,0-77.644043-34.9389801-77.644043-77.6440735
		v-69.7312469c0-42.7036667,34.9389648-77.6440735,77.644043-77.6440735l0,0
		c42.7036133,0,77.644043,34.9389725,77.644043,77.6440735v69.7312469
		C682.2850342,220.2060242,647.3460083,255.1464386,604.6409912,255.1464386z"/>
	<path class="st2" d="M582.1550903,121.24823h-25.8884888c-3.335083,0-6.0647583-2.7296524-6.0647583-6.0647736l0,0
		c0-3.3351288,2.7296753-6.0647736,6.0647583-6.0647736h25.8884888c3.335083,0,6.0647583,2.7296448,6.0647583,6.0647736l0,0
		C588.2198486,118.5185852,585.4901733,121.24823,582.1550903,121.24823z"/>
	<path class="st2" d="M584.7969971,61.004612h40.2113647c1.4223633,0,2.5758057,1.1534157,2.5758057,2.5757713l0,0
		c0,1.4223557-1.1534424,2.5757675-2.5758057,2.5757675h-40.2113647c-1.4223633,0-2.5758057-1.1534119-2.5758057-2.5757713l0,0
		C582.2211914,62.1580276,583.37323,61.004612,584.7969971,61.004612z"/>
	<path class="st2" d="M572.3410034,73.774147h65.0139771c1.4224243,0,2.5758057,1.1534119,2.5758057,2.5757675l0,0
		c0,1.4223557-1.1533813,2.5757751-2.5758057,2.5757751h-65.0139771c-1.4224243,0-2.5758057-1.1534119-2.5758057-2.5757751l0,0
		C569.7652588,74.9275589,570.9187012,73.774147,572.3410034,73.774147z"/>
	<path class="st8" d="M582.4369507,113.6834412v13.7359924c0,7.3346863-5.9684448,13.3031006-13.3031006,13.3031006
		c-7.3345947,0-13.3030396-5.9684143-13.3030396-13.3031006v-13.7359924c0-7.3346786,5.9684448-13.3031006,13.3030396-13.3031006
		C576.4685059,100.3803482,582.4369507,106.3487701,582.4369507,113.6834412z"/>
	<path class="st2" d="M565.8706665,146.7024689c-5.7670898-0.9635773-10.7000122-4.4727325-13.576355-9.3337402
		c-0.5609131-0.9492035-1.5819092-1.5100861-2.6749268-1.5100861c-2.4449463,0-3.9262085,2.646225-2.6749878,4.7459717
		c3.8111572,6.3854828,10.3116455,11.0164032,17.9196167,12.2819977c1.8984375,0.316391,3.595459-1.179306,3.595459-3.0920715
		v-0.014389C568.4594116,148.2700653,567.3807373,146.961319,565.8706665,146.7024689z"/>
	<path class="st9" d="M648.9639893,184.9779968v61.9953003c0,7.4598083,6.1036377,13.5634155,13.5634155,13.5634155
		c7.4598389,0,13.5634766-6.1036072,13.5634766-13.5634155v-80.7390137c0,10.3088226-8.4363403,18.7436981-18.7494507,18.7436981
		C657.3414307,184.9779816,648.9639893,184.9779816,648.9639893,184.9779968z"/>
	<path class="st2" d="M659.8984375,135.8586426c-1.0930176,0-2.1140747,0.5608826-2.6749878,1.5100861
		c-2.8763428,4.8610077-7.8092651,8.370163-13.5907593,9.3337402c-1.4813232,0.2588654-2.5742798,1.5675964-2.5742798,3.0776825
		v0.014389c0,1.9127655,1.6970215,3.4084625,3.5810547,3.0920715c7.6222534-1.2655945,14.1228638-5.8965149,17.9483643-12.2819977
		C663.824646,138.5048676,662.3289795,135.8586426,659.8984375,135.8586426z"/>
	<path class="st8" d="M582.4369507,113.6834412v13.7359924c0,7.3346863-5.9684448,13.3031006-13.3031006,13.3031006
		c-7.3345947,0-13.3030396-5.9684143-13.3030396-13.3031006v-13.7359924c0-7.3346786,5.9684448-13.3031006,13.3030396-13.3031006
		C576.4685059,100.3803482,582.4369507,106.3487701,582.4369507,113.6834412z"/>
	<path class="st2" d="M582.4369507,113.6834412v13.7359924c0,7.3346863-5.9684448,13.3031006-13.3031006,13.3031006
		c-7.3345947,0-13.3030396-5.9684143-13.3030396-13.3031006v-13.7359924c0-7.3346786,5.9684448-13.3031006,13.3030396-13.3031006
		C576.4685059,100.3803482,582.4369507,106.3487701,582.4369507,113.6834412z"/>
	<path class="st9" d="M560.8010864,184.9779968v61.9953003c0,7.4598083-6.1036377,13.5634155-13.5634155,13.5634155
		c-7.4598389,0-13.5634766-6.1036072-13.5634766-13.5634155v-80.7390137c0,10.3088226,8.4348755,18.7436981,18.7494507,18.7436981
		C552.423645,184.9779816,560.8010864,184.9779816,560.8010864,184.9779968z"/>
	<path class="st2" d="M653.2296143,121.24823h-25.8885498c-3.335083,0-6.0647583-2.7296524-6.0647583-6.0647736l0,0
		c0-3.3351288,2.7296753-6.0647736,6.0647583-6.0647736h25.8885498c3.335083,0,6.0647583,2.7296448,6.0647583,6.0647736l0,0
		C659.2943726,118.5185852,656.5647583,121.24823,653.2296143,121.24823z"/>
	<path class="st2" d="M640.2098389,140.7239685c-7.3346558,0-13.3031006-5.9684143-13.3031006-13.3031006v-13.7374268
		c0-7.3346786,5.9684448-13.3031006,13.3031006-13.3031006s13.3031006,5.9684219,13.3031006,13.3031006v13.7374268
		C653.5129395,134.7555542,647.5444946,140.7239685,640.2098389,140.7239685z"/>
	<path class="st10" d="M569.1338501,134.4636078L569.1338501,134.4636078c-3.8729858,0-7.0426636-3.1697388-7.0426636-7.0427399
		v-13.7374268c0-3.8730011,3.1696777-7.0427322,7.0426636-7.0427322l0,0c3.8730469,0,7.0427246,3.1697311,7.0427246,7.0427322
		v13.7374268C576.1766357,131.293869,573.0083618,134.4636078,569.1338501,134.4636078z"/>
	<path class="st10" d="M640.3651123,134.4636078L640.3651123,134.4636078c-3.8729858,0-7.0426636-3.1697388-7.0426636-7.0427399
		v-13.7374268c0-3.8730011,3.1696777-7.0427322,7.0426636-7.0427322l0,0c3.8729858,0,7.0427246,3.1697311,7.0427246,7.0427322
		v13.7374268C647.4078979,131.293869,644.239624,134.4636078,640.3651123,134.4636078z"/>
	<path class="st11" d="M584.6992188,117.3651733l-31.3377686-5.5254669
		c-4.4266968-0.7809296-7.4108887-5.0422363-6.6299438-9.4689255l0,0c0.7810059-4.4266968,5.0422363-7.4109116,9.4689331-6.629982
		l31.3377075,5.5254593c4.4266968,0.7809296,7.4109497,5.0422363,6.6300049,9.4689331l0,0
		C593.3872681,115.1618805,589.1259155,118.1460953,584.6992188,117.3651733z"/>
	<path class="st11" d="M655.7694092,111.8397064l-31.3377686,5.5254669
		c-4.4266968,0.7809219-8.6880493-2.2032776-9.4689331-6.629982l0,0c-0.7809448-4.4266891,2.2033081-8.6880035,6.6300049-9.4689255
		l31.3377075-5.5254593c4.4266968-0.7809296,8.6880493,2.2032852,9.4689331,6.6299744l0,0
		C663.1802979,106.7974701,660.196106,111.0587769,655.7694092,111.8397064z"/>
	<path class="st11" d="M651.5800781,174.459198v75.1229401c0,25.8238373-21.1281738,46.9520416-46.9520264,46.9520416
		c-25.8237915,0-46.9519653-21.1282043-46.9519653-46.9520416v-75.1229553c0-7.1735992,5.8691406-13.0413513,13.0413208-13.0413513
		h67.8184814C645.7108765,161.4178467,651.5800781,167.2855835,651.5800781,174.459198z"/>
	<path class="st3" d="M603.2832642,163.0688629v-6.2603607c0-4.6381073,3.7953491-8.4334412,8.4334717-8.4334412h6.000061
		c6.3596191,0,11.5643921,5.2033081,11.5643921,11.5643463l0,0c0,6.3596039-5.2033081,11.5643463-11.5643921,11.5643463h-6.000061
		C607.0786743,171.5037537,603.2832642,167.7084045,603.2832642,163.0688629z"/>
	<path class="st3" d="M606.0215454,156.8084869v6.2603607c0,4.6381073-3.7952881,8.4334564-8.4334717,8.4334564h-6.000061
		c-6.3595581,0-11.5643311-5.2033081-11.5643311-11.5643616l0,0c0-6.3595886,5.2032471-11.5643463,11.5643311-11.5643463h6.000061
		C602.2262573,148.3750458,606.0215454,152.1703796,606.0215454,156.8084869z"/>
	<path class="st2" d="M607.6740112,175.5032959h-6.260437c-4.6380615,0-8.4334717-3.7953339-8.4334717-8.4334412v-33.2145996
		c0-6.3595963,5.2033081-11.5643463,11.5643921-11.5643463l0,0c6.3596191,0,11.5643921,5.2033157,11.5643921,11.5643463v33.2131653
		C616.1074829,171.707962,612.3121338,175.5032959,607.6740112,175.5032959z"/>
	<path class="st12" d="M621.6717529,204.0208282h-34.6052856c-1.9128418,0-3.4775391-1.5647278-3.4775391-3.4774933l0,0
		c0-1.9127808,1.5646973-3.4775085,3.4775391-3.4775085h34.6052856c1.9128418,0,3.4776001,1.5647278,3.4776001,3.4775085l0,0
		C625.1507568,202.4561005,623.5845947,204.0208282,621.6717529,204.0208282z"/>
	<path class="st9" d="M533.6757813,224.8887177L533.6757813,224.8887177c-10.2757568,0-18.6070557-8.3299103-18.6070557-18.6070862
		v-70.5136108c0-5.1385956,4.164917-9.3035431,9.3035278-9.3035431l0,0c5.1385498,0,9.3035278,4.1649475,9.3035278,9.3035431
		V224.8887177z"/>
	<path class="st9" d="M676.0893555,224.8887177L676.0893555,224.8887177c10.2758179,0,18.6071167-8.3299103,18.6071167-18.6070862
		v-70.5136108c0-5.1385956-4.164978-9.3035431-9.3035278-9.3035431l0,0c-5.1386108,0-9.3035889,4.1649475-9.3035889,9.3035431
		V224.8887177z"/>
	<path class="st13" d="M744.2803345,680.4544067v24.914917h-65.6784668v0.2028198H530.1723633v-0.2028198H464.493866v-24.914917
		c0-3.4976196,1.927124-6.8183594,5.1155701-8.2449951c3.4746094-1.5460815,7.1865234-0.5824585,9.6372375,1.8681641
		c8.3528748,8.4003906,19.9057617,13.5993652,32.6839294,13.5993652c11.1012573,0,21.2979126-3.9262085,29.2581787-10.4699097
		c0.9161377-0.7492676,2.1299438-1.927124,3.2243652-3.0216064c3.1410522-3.1409302,6.6630859-5.925293,10.6137695-7.9718018
		c7.2584229-3.7722778,15.6459351-5.6635132,24.5222778-5.045105c8.2911377,0.5738525,16.0026245,3.3912354,22.5304565,7.8366089
		c1.3994141,0.9534912,3.2286987,0.9534912,4.6280518,0c6.5250244-4.4453735,14.2278442-7.2627563,22.5174561-7.8366089
		c8.8764038-0.6184082,17.263855,1.2728271,24.5223389,5.045105c3.9506836,2.0465088,7.4713135,4.8308716,10.6137085,7.9718018
		c1.0944214,1.0944214,2.3082275,2.2722778,3.2244263,3.0216064c7.9602051,6.5437012,18.1569214,10.4699097,29.2581787,10.4699097
		c12.7781372,0,24.3324585-5.1989746,32.6838989-13.5993652c2.4506226-2.4506226,6.1625366-3.4141846,9.637207-1.8681641
		C742.3532104,673.6360474,744.2803345,676.9567871,744.2803345,680.4544067z"/>
	<path class="st14" d="M874.053833,689.2200928L874.053833,689.2200928c-2.5081787,0-4.5604858-2.0522461-4.5604858-4.5604248
		v-19.2355347c0-2.5081787,2.0523071-4.5604858,4.5604858-4.5604858l0,0c2.5081787,0,4.5604858,2.0523071,4.5604858,4.5604858
		v19.2355347C878.6157227,687.1678467,876.5634155,689.2200928,874.053833,689.2200928z"/>
	<path class="st15" d="M856.5037842,664.9768066L856.5037842,664.9768066c0-2.5081177,2.0523071-4.5604248,4.5604858-4.5604248
		h25.979187c2.5081787,0,4.5604858,2.0523071,4.5604858,4.5604248l0,0c0,2.5081787-2.0523071,4.5604248-4.5604858,4.5604248
		H861.06427C858.5560913,669.5386963,856.5037842,667.4864502,856.5037842,664.9768066z"/>
	<path class="st16" d="M756.4515991,722.881958H452.5484009c-2.4089355,0-4.3605652-1.9530029-4.3605652-4.3605347v-9.5221558
		c0-2.4089355,1.9530334-4.3605347,4.3605652-4.3605347h303.9031982c2.4089355,0,4.3605347,1.9530029,4.3605347,4.3605347v9.5221558
		C760.8135986,720.9289551,758.8605347,722.881958,756.4515991,722.881958z"/>
	<rect x="850.010498" y="701.7623901" class="st14" width="48.0882034" height="13.9804907"/>
	<path class="st13" d="M362.5418091,632.8149414l-12.5869141,32.079895
		c-2.2507324,5.7382813-9.3323059,8.3730469-15.7293091,5.8634033c-1.7430725-0.6845703-3.2703857-1.6884155-4.5115356-2.9064941
		c-3.3149719-3.2172241-4.6568298-7.9214478-3.0230408-12.0864258l12.5869141-32.079895
		c1.6337585-4.164917,5.8174438-6.7004395,10.4396973-6.8140259c1.7330017-0.0402832,3.536499,0.2617188,5.2809753,0.9462891
		c3.192749,1.2526245,5.6534729,3.5666504,7.0153809,6.2905273
		C363.3773804,626.826416,363.6664429,629.9501343,362.5418091,632.8149414z"/>
	<path class="st17" d="M350.0368958,635.2181396l-26.4336243,67.3654785
		c-0.348053,0.8873291-1.3605347,1.3216553-2.2478638,0.9736328c-0.8872986-0.3480835-1.3245239-1.3519287-0.9765015-2.2392578
		l26.4336243-67.3654785c0.348053-0.8873291,1.3518982-1.3259888,2.2392578-0.9765015
		S350.3849182,634.3307495,350.0368958,635.2181396z"/>
	<g>
		<path class="st17" d="M340.4758911,659.5548706l-1.7890625,4.5604248l-1.9588013-4.4899902l-3.6831665-8.4420166
			c-0.3839722-0.880188,0.0158081-1.8999023,0.8959656-2.2838745c0.431427-0.1955566,0.9118042-0.1797485,1.3159485-0.0216064
			c0.4213867,0.1654053,0.7679749,0.4732056,0.959259,0.913269l2.3010559,5.2723389L340.4758911,659.5548706z"/>
		<path class="st17" d="M337.271637,658.2965088l-1.7890625,4.5604248l4.4899902-1.9588013l8.4420776-3.6846313
			c0.8801575-0.3839722,1.2814026-1.4036865,0.8959656-2.2838135c-0.1826782-0.4371948-0.5465088-0.7521973-0.9506531-0.9103394
			c-0.4213867-0.1654053-0.8844604-0.1754761-1.3245544,0.0172119l-5.2723083,2.3010864L337.271637,658.2965088z"/>
		<path class="st17" d="M346.5377808,644.1046143l-1.7890625,4.5604248l-1.9588013-4.4899902l-3.6831665-8.4420776
			c-0.3839722-0.880127,0.0158081-1.8998413,0.8959656-2.2838135c0.431427-0.1955566,0.9118042-0.1797485,1.3159485-0.0216064
			c0.4213867,0.1654053,0.7679749,0.4732056,0.959259,0.913269l2.3010864,5.2723389L346.5377808,644.1046143z"/>
		<path class="st17" d="M343.3335571,642.8476563l-1.789093,4.5604248l4.4899902-1.9588013l8.4420776-3.6846313
			c0.8801575-0.3839722,1.2814026-1.4036865,0.8959656-2.2838135c-0.184082-0.4371948-0.5465088-0.7521973-0.9506531-0.9104004
			c-0.4213867-0.1653442-0.8844604-0.175415-1.3245544,0.0172729l-5.2723083,2.3010864L343.3335571,642.8476563z"/>
	</g>
	<path class="st15" d="M903.4141846,707.6071167h-58.7191162c-1.2339478,0-2.2320557-1.0426636-2.137207-2.2737427
		c0-0.0071411,0.0014038-0.0157471,0.0014038-0.0229492c1.2972412-16.2528076,14.8966064-29.0439453,31.4945679-29.0439453
		s30.1973267,12.7911377,31.4945068,29.0439453c0,0.0072021,0.0014038,0.0158081,0.0014038,0.0229492
		C905.6462402,706.5644531,904.6480713,707.6071167,903.4141846,707.6071167z"/>
	<path class="st15" d="M902.9165649,722.8359375h-57.723999c-2.513916,0-4.5517578-2.0379028-4.5517578-4.5518188l0,0
		c0-2.513916,2.0378418-4.5518188,4.5517578-4.5518188h57.723999c2.513916,0,4.5517578,2.0378418,4.5517578,4.5518188l0,0
		C907.4683228,720.7980347,905.430481,722.8359375,902.9165649,722.8359375z"/>
	<path class="st18" d="M340.5708313,722.848877h-19.9560852c-2.7512207,0-5.3730164-1.1721191-7.2095642-3.2214966l0,0
		c-3.6486511-4.0743408-4.6582642-9.8716431-2.6016541-14.9382935l8.4061279-20.7139893
		c0.3739319-0.9232788,1.2713318-1.5273438,2.2679749-1.5273438h18.23172c0.9966431,0,1.8926697,0.6040649,2.2680054,1.5273438
		l8.4061279,20.7140503c2.0565796,5.0681152,1.0469666,10.8639526-2.6016541,14.9382935l0,0
		C345.945282,721.6767578,343.3234863,722.848877,340.5708313,722.848877z"/>
	<path class="st17" d="M345.0147705,687.4237671h-28.8439941c-0.9477539,0-1.7243652-0.7751465-1.7243652-1.7243652v-5.5469971
		c0-0.9477539,0.775177-1.7243652,1.7243652-1.7243652h28.8439941c0.9477539,0,1.7243958,0.7751465,1.7243958,1.7243652v5.5469971
		C346.7391663,686.6472168,345.9625244,687.4237671,345.0147705,687.4237671z"/>
</g>
<rect x="1" y="722.8849487" class="st19" width="1208" height="255.1546783"/>
<rect x="1" y="722.8849487" class="st20" width="1208" height="36.4999695"/>
</svg>
