<?xml version="1.0" encoding="utf-8"?>
<!-- Generator: Adobe Illustrator 22.1.0, SVG Export Plug-In . SVG Version: 6.00 Build 0)  -->
<svg version="1.1" id="Layer_1" xmlns="http://www.w3.org/2000/svg" xmlns:xlink="http://www.w3.org/1999/xlink" x="0px" y="0px"
	 viewBox="0 0 1920 713" style="enable-background:new 0 0 1920 713;" xml:space="preserve">
<style type="text/css">
	.st0{fill:#002337;}
	.st1{fill:#0B3544;}
	.st2{fill:#F2AC8C;}
	.st3{fill:#ED927D;}
	.st4{fill:#EFE2C2;}
	.st5{fill:#DDCCA6;}
	.st6{fill:#FFF4D4;}
	.st7{fill:#F6C09C;}
	.st8{fill:#F4B596;}
	.st9{fill:#E6E6E6;}
	.st10{fill:#012438;}
	.st11{fill:#F2F2F2;}
	.st12{fill:#CCCCCC;}
	.st13{fill:#F6E5AF;}
	.st14{fill:#BC7D20;}
	.st15{fill:#EDA11B;}
	.st16{fill:#C23253;}
	.st17{fill:#3A2444;}
	.st18{fill:#32163D;}
	.st19{fill:#562929;}
</style>
<g>
	<g>
		<rect x="376.03" y="546.16" class="st0" width="122.42" height="166.49"/>
		<path class="st1" d="M668.452,358.119v123.06c0,6.687-0.529,13.253-1.558,19.653c-9.501,59.533-61.394,105.404-123.498,105.404
			h-91.803c-61.893,0-113.574-45.932-122.651-105.404c-0.923-6.082-1.407-12.315-1.407-18.654V358.119H668.452z"/>
		<rect x="498.45" y="545.73" class="st1" width="122.42" height="166.92"/>
	</g>
	<g>
		<rect x="176.864" y="429.942" class="st2" width="117.004" height="267.757"/>
		<rect x="176.865" y="420.436" class="st3" width="117.004" height="31.952"/>
		<path class="st4" d="M343.253,329.299v20.696h-49.381v78.181H176.955c0,0.065,0-17.094,0-26.259v-72.619
			c0-45.735,37.413-83.149,83.149-83.149c22.875,0,43.658,9.353,58.72,24.429C333.899,285.641,343.253,306.425,343.253,329.299z"/>
		<path class="st2" d="M320.14,697.81c0,5.09-0.53,10.05-1.55,14.84H178.38c-1.02-4.79-1.55-9.75-1.55-14.84
			c0-0.71,0.01-1.41,0.03-2.11c0.25-8.53,1.98-16.68,4.96-24.2c7.7-19.51,23.72-34.82,43.68-41.57c0,0,0.01,0,0.02-0.01
			c0.27-0.09,0.54-0.18,0.81-0.26c4.39-1.44,8.97-2.45,13.69-3c1.2-0.15,2.41-0.26,3.63-0.33c1.6-0.12,3.21-0.17,4.83-0.17
			c17.23,0,33.03,6.08,45.39,16.21c9.37,7.67,16.76,17.68,21.28,29.13C318.37,679.64,320.14,688.52,320.14,697.81z"/>
		<path class="st5" d="M261.687,428.705h-90.524c-4.837,0-8.794-3.958-8.794-8.794v0c0-4.837,3.958-8.794,8.794-8.794h90.524
			c4.837,0,8.794,3.958,8.794,8.794v0C270.481,424.747,266.524,428.705,261.687,428.705z"/>
		<path class="st3" d="M320.2,697.82c0,5.08-0.53,10.04-1.54,14.83h-24.79v-70.34c9.4,7.69,16.82,17.71,21.34,29.19
			C318.44,679.64,320.2,688.52,320.2,697.82z"/>
	</g>
	<g>
		<rect x="702.132" y="429.942" class="st2" width="117.004" height="267.757"/>
		<rect x="702.132" y="420.436" class="st3" width="117.004" height="31.952"/>
		<path class="st4" d="M652.747,329.299v20.696h49.381v78.181h116.916c0,0.065,0-17.094,0-26.259v-72.619
			c0-45.735-37.413-83.149-83.149-83.149c-22.875,0-43.659,9.353-58.72,24.429C662.101,285.641,652.747,306.425,652.747,329.299z"/>
		<path class="st2" d="M819.17,697.81c0,5.09-0.53,10.05-1.55,14.84H677.41c-1.02-4.79-1.55-9.75-1.55-14.84
			c0-9.29,1.77-18.17,4.99-26.31c4.52-11.45,11.91-21.46,21.28-29.13c12.36-10.13,28.16-16.21,45.39-16.21h0.09
			c2.91,0,5.77,0.18,8.59,0.53c26.48,3.19,48.51,20.83,57.98,44.81c2.98,7.52,4.71,15.67,4.96,24.2
			C819.16,696.4,819.17,697.1,819.17,697.81z"/>
		<path class="st5" d="M734.313,428.705h90.524c4.837,0,8.794-3.958,8.794-8.794v0c0-4.837-3.958-8.794-8.794-8.794h-90.524
			c-4.837,0-8.794,3.958-8.794,8.794v0C725.519,424.747,729.476,428.705,734.313,428.705z"/>
		<path class="st3" d="M702.13,642.31v70.34h-24.79c-1.01-4.79-1.54-9.75-1.54-14.83c0-9.3,1.76-18.18,4.99-26.32
			C685.31,660.02,692.73,650,702.13,642.31z"/>
	</g>
	<path class="st6" d="M764.318,303.847v116.509c0,47.279-38.696,85.975-85.975,85.975H322.638
		c-47.293,0-85.989-38.696-85.989-85.975V303.847c0-47.279,38.696-85.975,85.989-85.975h92.096
		c1.013,44.043,35.839,79.755,79.544,82.175c1.576,0.099,3.152,0.141,4.742,0.141c1.252,0,2.491-0.028,3.729-0.084
		c44.183-1.928,79.544-37.851,80.571-82.232h95.023C725.622,217.872,764.318,256.568,764.318,303.847z"/>
	<path class="st1" d="M395.478,215.4v319.077h-28.142V215.4c0-4.081,3.307-7.373,7.373-7.373h13.396
		C392.185,208.027,395.478,211.32,395.478,215.4z"/>
	<path class="st1" d="M627.654,530.252h-28.142V215.348c0-4.046,3.28-7.325,7.325-7.325h13.491c4.046,0,7.325,3.28,7.325,7.325
		V530.252z"/>
	<path class="st7" d="M582.901,217.872c0,0.281-0.014,0.563-0.028,0.844c-0.563,17.406-6.416,33.475-15.999,46.674
		c-15.338,21.079-40.201,34.798-68.259,34.798c-27.819,0-52.485-13.466-67.837-34.235c-9.962-13.466-16.013-30.014-16.449-47.94
		v-0.141H582.901z"/>
	<path class="st2" d="M562.583,217.872c0,0.214-0.011,0.428-0.021,0.642c-0.428,13.24-4.881,25.464-12.17,35.504
		c-11.667,16.034-30.58,26.47-51.924,26.47c-21.161,0-39.925-10.243-51.602-26.042c-7.578-10.243-12.181-22.831-12.513-36.467
		v-0.107H562.583z"/>
	<path class="st4" d="M591.308,215.199v0.338c0,2.308-0.084,4.587-0.253,6.853c-1.041,14.254-5.319,27.636-12.101,39.385
		c-16.041,27.847-46.125,46.632-80.515,46.632c-34.052,0-63.897-18.433-80.051-45.844c-7.205-12.186-11.679-26.158-12.622-41.074
		c-0.127-1.97-0.197-3.954-0.197-5.952v-0.324c0.014-2.87,2.392-5.192,5.305-5.192h0.633c1.393,0,2.716,0.549,3.701,1.534
		c1.027,1.027,1.59,2.406,1.59,3.898c0,0.549,0,1.084,0.028,1.632c0,0.267,0,0.521,0.014,0.788
		c0.535,18.588,7.303,35.642,18.278,49.108c14.972,18.405,37.781,30.169,63.292,30.169c25.736,0,48.742-11.975,63.7-30.661
		c10.75-13.41,17.364-30.253,17.87-48.616c0.014-0.056,0.014-0.113,0.014-0.169c0.014-0.718,0.028-1.435,0.028-2.167
		c0-1.576,0.563-2.955,1.59-3.982c0.985-0.985,2.308-1.534,3.701-1.534h0.69C588.916,210.021,591.294,212.342,591.308,215.199z"/>
	<path class="st4" d="M504.817,304.762v201.569h-12.664V304.762c0-1.871,0.83-3.56,2.125-4.714c1.126-0.999,2.603-1.618,4.207-1.618
		h0.014c1.646,0,3.138,0.633,4.25,1.674C504.015,301.244,504.817,302.918,504.817,304.762z"/>
	<circle class="st4" cx="527.28" cy="349.203" r="7.505"/>
	<circle class="st4" cx="527.28" cy="404.315" r="7.505"/>
	<circle class="st4" cx="527.28" cy="459.427" r="7.505"/>
	<circle class="st2" cx="424.579" cy="107.286" r="15.397"/>
	<circle class="st2" cx="571.545" cy="107.286" r="15.397"/>
	<path class="st3" d="M578.156,103.866l-9.8,9.8c-0.986,0.986-2.599,0.986-3.584,0v0c-0.986-0.986-0.986-2.598,0-3.584l9.8-9.8
		c0.986-0.986,2.598-0.986,3.584,0v0C579.142,101.268,579.142,102.881,578.156,103.866z"/>
	<path class="st3" d="M574.614,114.105l-9.841-9.841c-0.986-0.986-0.986-2.598,0-3.584l0,0c0.986-0.986,2.599-0.986,3.584,0
		l9.841,9.841c0.986,0.986,0.986,2.598,0,3.584l0,0C577.212,115.091,575.599,115.091,574.614,114.105z"/>
	<path class="st3" d="M431.661,103.866l-9.8,9.8c-0.986,0.986-2.598,0.986-3.584,0v0c-0.986-0.986-0.986-2.598,0-3.584l9.8-9.8
		c0.986-0.986,2.599-0.986,3.584,0v0C432.647,101.268,432.647,102.881,431.661,103.866z"/>
	<path class="st3" d="M428.118,114.105l-9.841-9.841c-0.986-0.986-0.986-2.598,0-3.584l0,0c0.986-0.986,2.599-0.986,3.584,0
		l9.841,9.841c0.986,0.986,0.986,2.598,0,3.584l0,0C430.717,115.091,429.104,115.091,428.118,114.105z"/>
	<path class="st7" d="M498.133,230.952L498.133,230.952c-40.224,0-73.135-32.911-73.135-73.135V92.135
		c0-40.224,32.911-73.135,73.135-73.135h0c40.224,0,73.135,32.911,73.135,73.135v65.682
		C571.268,198.041,538.357,230.952,498.133,230.952z"/>
	<path class="st2" d="M476.952,104.829h-24.385c-3.142,0-5.712-2.571-5.712-5.712v0c0-3.142,2.571-5.712,5.712-5.712h24.385
		c3.142,0,5.712,2.571,5.712,5.712v0C482.665,102.259,480.094,104.829,476.952,104.829z"/>
	<path class="st2" d="M479.441,48.085h37.876c1.34,0,2.426,1.086,2.426,2.426v0c0,1.34-1.086,2.426-2.426,2.426h-37.876
		c-1.34,0-2.426-1.086-2.426-2.426v0C477.014,49.171,478.101,48.085,479.441,48.085z"/>
	<path class="st2" d="M467.708,60.113h61.239c1.34,0,2.426,1.086,2.426,2.426v0c0,1.34-1.086,2.426-2.426,2.426h-61.239
		c-1.34,0-2.426-1.086-2.426-2.426v0C465.282,61.199,466.368,60.113,467.708,60.113z"/>
	<path class="st8" d="M477.218,97.704v12.938c0,6.909-5.621,12.53-12.53,12.53c-6.909,0-12.53-5.621-12.53-12.53V97.704
		c0-6.909,5.621-12.53,12.53-12.53C471.596,85.174,477.218,90.795,477.218,97.704z"/>
	<path class="st2" d="M461.62,128.81c-5.44-0.91-10.08-4.22-12.8-8.8c-0.52-0.89-1.48-1.42-2.51-1.42c-2.3,0-3.7,2.5-2.53,4.47
		c3.59,6.02,9.72,10.38,16.89,11.57c1.78,0.3,3.38-1.11,3.38-2.91v-0.01C464.05,130.28,463.03,129.05,461.62,128.81z"/>
	<path class="st9" d="M539.882,164.859v58.395c0,7.027,5.749,12.776,12.776,12.776c7.027,0,12.776-5.749,12.776-12.776v-76.05
		c0,9.71-7.946,17.656-17.66,17.656H539.882z"/>
	<path class="st2" d="M550.18,118.59c-1.03,0-1.99,0.53-2.52,1.42c-2.71,4.58-7.35,7.89-12.8,8.8c-1.4,0.24-2.43,1.47-2.43,2.9v0.01
		c0,1.8,1.61,3.21,3.38,2.91c7.18-1.19,13.3-5.55,16.9-11.57C553.88,121.09,552.47,118.59,550.18,118.59z"/>
	<path class="st8" d="M477.218,97.704v12.938c0,6.909-5.621,12.53-12.53,12.53c-6.909,0-12.53-5.621-12.53-12.53V97.704
		c0-6.909,5.621-12.53,12.53-12.53C471.596,85.174,477.218,90.795,477.218,97.704z"/>
	<path class="st2" d="M477.218,97.704v12.938c0,6.909-5.621,12.53-12.53,12.53c-6.909,0-12.53-5.621-12.53-12.53V97.704
		c0-6.909,5.621-12.53,12.53-12.53C471.596,85.174,477.218,90.795,477.218,97.704z"/>
	<path class="st9" d="M456.839,164.859v58.395c0,7.027-5.749,12.776-12.776,12.776c-7.027,0-12.776-5.749-12.776-12.776v-76.05
		c0,9.71,7.946,17.656,17.66,17.656H456.839z"/>
	<path class="st2" d="M543.9,104.829h-24.385c-3.142,0-5.712-2.571-5.712-5.712v0c0-3.142,2.571-5.712,5.712-5.712H543.9
		c3.142,0,5.712,2.571,5.712,5.712v0C549.612,102.259,547.042,104.829,543.9,104.829z"/>
	<path class="st2" d="M531.636,123.174c-6.909,0-12.53-5.621-12.53-12.53v-12.94c0-6.909,5.621-12.53,12.53-12.53
		s12.53,5.621,12.53,12.53v12.94C544.166,117.553,538.545,123.174,531.636,123.174z"/>
	<path class="st10" d="M464.688,117.278L464.688,117.278c-3.649,0-6.634-2.985-6.634-6.634v-12.94c0-3.649,2.985-6.634,6.634-6.634
		h0c3.649,0,6.634,2.985,6.634,6.634v12.94C471.322,114.292,468.337,117.278,464.688,117.278z"/>
	<path class="st10" d="M531.783,117.278L531.783,117.278c-3.649,0-6.634-2.985-6.634-6.634v-12.94c0-3.649,2.985-6.634,6.634-6.634
		l0,0c3.649,0,6.634,2.985,6.634,6.634v12.94C538.417,114.292,535.432,117.278,531.783,117.278z"/>
	<path class="st11" d="M479.349,101.172l-29.518-5.205c-4.17-0.735-6.98-4.749-6.245-8.919l0,0c0.735-4.17,4.749-6.98,8.919-6.245
		l29.518,5.205c4.17,0.735,6.98,4.749,6.245,8.919v0C487.533,99.097,483.519,101.908,479.349,101.172z"/>
	<path class="st11" d="M546.292,95.967l-29.518,5.205c-4.17,0.735-8.184-2.075-8.919-6.245v0c-0.735-4.17,2.075-8.184,6.245-8.919
		l29.518-5.205c4.17-0.735,8.184,2.075,8.919,6.245l0,0C553.273,91.219,550.462,95.232,546.292,95.967z"/>
	<path class="st11" d="M542.346,154.951v70.76c0,24.324-19.901,44.225-44.225,44.225c-24.324,0-44.225-19.901-44.225-44.225v-70.76
		c0-6.757,5.528-12.285,12.285-12.285h63.88C536.818,142.666,542.346,148.194,542.346,154.951z"/>
	<path class="st3" d="M496.854,144.222v-5.897c0-4.369,3.575-7.944,7.944-7.944h5.651c5.991,0,10.892,4.902,10.892,10.892v0
		c0,5.991-4.902,10.892-10.892,10.892h-5.651C500.428,152.166,496.854,148.591,496.854,144.222z"/>
	<path class="st3" d="M499.433,138.325v5.897c0,4.369-3.575,7.944-7.944,7.944h-5.651c-5.991,0-10.892-4.902-10.892-10.892v0
		c0-5.991,4.902-10.892,10.892-10.892h5.651C495.859,130.381,499.433,133.956,499.433,138.325z"/>
	<path class="st2" d="M500.989,155.933h-5.897c-4.369,0-7.944-3.575-7.944-7.944v-31.285c0-5.991,4.902-10.892,10.892-10.892h0
		c5.991,0,10.892,4.902,10.892,10.892v31.285C508.934,152.359,505.359,155.933,500.989,155.933z"/>
	<path class="st12" d="M514.175,182.796H481.58c-1.802,0-3.276-1.474-3.276-3.276v0c0-1.802,1.474-3.276,3.276-3.276h32.595
		c1.802,0,3.276,1.474,3.276,3.276v0C517.451,181.322,515.977,182.796,514.175,182.796z"/>
	<path class="st9" d="M431.289,202.452L431.289,202.452c-9.679,0-17.526-7.847-17.526-17.526v-66.419
		c0-4.84,3.923-8.763,8.763-8.763h0c4.84,0,8.763,3.923,8.763,8.763V202.452z"/>
	<path class="st9" d="M565.432,202.452L565.432,202.452c9.679,0,17.526-7.847,17.526-17.526v-66.419c0-4.84-3.923-8.763-8.763-8.763
		l0,0c-4.84,0-8.763,3.923-8.763,8.763V202.452z"/>
	<path class="st13" d="M629.663,631.562v23.468h-61.864v0.19H427.988v-0.19h-61.864v-23.468c0-3.295,1.816-6.422,4.819-7.767
		c3.273-1.457,6.769-0.549,9.078,1.76c7.868,7.912,18.75,12.81,30.786,12.81c10.456,0,20.061-3.698,27.559-9.862
		c0.863-0.706,2.006-1.816,3.037-2.847c2.959-2.959,6.276-5.581,9.997-7.509c6.836-3.553,14.738-5.334,23.098-4.752
		c7.809,0.54,15.074,3.194,21.221,7.381c1.318,0.898,3.041,0.898,4.359,0c6.146-4.187,13.401-6.841,21.21-7.381
		c8.361-0.583,16.262,1.199,23.098,4.752c3.721,1.928,7.038,4.55,9.997,7.509c1.031,1.031,2.174,2.141,3.037,2.847
		c7.498,6.164,17.102,9.862,27.559,9.862c12.037,0,22.919-4.897,30.787-12.81c2.309-2.308,5.805-3.216,9.078-1.76
		C627.848,625.141,629.663,628.268,629.663,631.562z"/>
	<path class="st14" d="M751.901,639.819L751.901,639.819c-2.363,0-4.296-1.933-4.296-4.296v-18.118c0-2.363,1.933-4.296,4.296-4.296
		l0,0c2.363,0,4.296,1.933,4.296,4.296v18.118C756.197,637.886,754.264,639.819,751.901,639.819z"/>
	<path class="st15" d="M735.37,616.984L735.37,616.984c0-2.363,1.933-4.296,4.296-4.296h24.471c2.363,0,4.296,1.933,4.296,4.296l0,0
		c0,2.363-1.933,4.296-4.296,4.296h-24.471C737.303,621.28,735.37,619.347,735.37,616.984z"/>
	<path class="st16" d="M641.128,671.526H354.872c-2.269,0-4.108-1.839-4.108-4.108v-8.969c0-2.269,1.839-4.108,4.108-4.108h286.256
		c2.269,0,4.108,1.839,4.108,4.108v8.969C645.236,669.687,643.397,671.526,641.128,671.526z"/>
	<rect x="729.253" y="651.633" class="st14" width="45.296" height="13.169"/>
	<path class="st13" d="M270.093,586.689l-11.856,30.216c-2.121,5.404-8.791,7.887-14.816,5.523
		c-1.642-0.644-3.081-1.591-4.249-2.737c-3.123-3.03-4.387-7.461-2.848-11.384l11.856-30.216c1.539-3.923,5.479-6.312,9.833-6.418
		c1.633-0.037,3.331,0.247,4.974,0.892c3.008,1.18,5.325,3.36,6.608,5.926C270.879,581.048,271.151,583.991,270.093,586.689z"/>
	<path class="st17" d="M258.314,588.953l-24.898,63.454c-0.328,0.836-1.281,1.245-2.117,0.917s-1.248-1.273-0.92-2.109
		l24.898-63.454c0.328-0.836,1.273-1.248,2.109-0.92S258.642,588.117,258.314,588.953z"/>
	<g>
		<path class="st17" d="M249.308,611.876l-1.685,4.295l-1.846-4.229l-3.47-7.951c-0.362-0.829,0.015-1.79,0.844-2.152
			c0.407-0.184,0.859-0.169,1.24-0.02c0.397,0.156,0.723,0.446,0.904,0.861l2.167,4.967L249.308,611.876z"/>
		<path class="st17" d="M246.29,610.692l-1.685,4.295l4.229-1.846l7.951-3.47c0.83-0.362,1.206-1.322,0.844-2.152
			c-0.173-0.412-0.515-0.708-0.895-0.858c-0.397-0.156-0.833-0.165-1.248,0.016l-4.967,2.167L246.29,610.692z"/>
		<path class="st17" d="M255.018,597.324l-1.685,4.295l-1.846-4.229l-3.47-7.951c-0.362-0.829,0.015-1.79,0.844-2.152
			c0.407-0.184,0.859-0.169,1.24-0.02c0.397,0.156,0.723,0.446,0.904,0.861l2.167,4.967L255.018,597.324z"/>
		<path class="st17" d="M252,596.139l-1.685,4.295l4.229-1.845l7.951-3.47c0.83-0.362,1.206-1.322,0.844-2.152
			c-0.173-0.412-0.515-0.708-0.895-0.858c-0.397-0.156-0.833-0.165-1.248,0.016l-4.967,2.167L252,596.139z"/>
	</g>
	<path class="st15" d="M779.556,657.138h-55.31c-1.163,0-2.102-0.982-2.012-2.142c0.001-0.007,0.001-0.014,0.002-0.021
		c1.222-15.309,14.032-27.357,29.666-27.357s28.444,12.048,29.666,27.357c0.001,0.007,0.001,0.014,0.002,0.021
		C781.658,656.156,780.719,657.138,779.556,657.138z"/>
	<path class="st15" d="M779.087,671.483h-54.372c-2.368,0-4.288-1.92-4.288-4.288l0,0c0-2.368,1.92-4.288,4.288-4.288h54.372
		c2.368,0,4.288,1.92,4.288,4.288l0,0C783.375,669.564,781.455,671.483,779.087,671.483z"/>
	<path class="st18" d="M249.398,671.495H230.6c-2.592,0-5.062-1.104-6.791-3.035l0,0c-3.437-3.838-4.388-9.298-2.451-14.071
		l7.918-19.512c0.353-0.869,1.197-1.438,2.136-1.438h17.174c0.938,0,1.783,0.569,2.136,1.438l7.918,19.512
		c1.937,4.774,0.986,10.234-2.451,14.071l0,0C254.459,670.392,251.99,671.495,249.398,671.495z"/>
	<path class="st17" d="M253.583,638.127h-27.169c-0.893,0-1.624-0.731-1.624-1.624v-5.224c0-0.893,0.731-1.624,1.624-1.624h27.169
		c0.893,0,1.624,0.731,1.624,1.624v5.224C255.207,637.396,254.477,638.127,253.583,638.127z"/>
</g>
<rect y="671.917" class="st19" width="1920" height="41.15"/>
</svg>
