<?xml version="1.0" encoding="utf-8"?>
<!-- Generator: Adobe Illustrator 22.1.0, SVG Export Plug-In . SVG Version: 6.00 Build 0)  -->
<svg version="1.1" id="Layer_1" xmlns="http://www.w3.org/2000/svg" xmlns:xlink="http://www.w3.org/1999/xlink" x="0px" y="0px"
	 viewBox="0 0 1920 1080" style="enable-background:new 0 0 1920 1080;" xml:space="preserve">
<style type="text/css">
	.st0{fill:#002337;}
	.st1{fill:#0B3544;}
	.st2{fill:#F2AC8C;}
	.st3{fill:#ED927D;}
	.st4{fill:#EFE2C2;}
	.st5{fill:#DDCCA6;}
	.st6{fill:#FFF4D4;}
	.st7{fill:#F6C09C;}
	.st8{fill:#F4B596;}
	.st9{fill:#E6E6E6;}
	.st10{fill:#012438;}
	.st11{fill:#F2F2F2;}
	.st12{fill:#CCCCCC;}
	.st13{fill:#F6E5AF;}
	.st14{fill:#BC7D20;}
	.st15{fill:#EDA11B;}
	.st16{fill:#C23253;}
	.st17{fill:#3A2444;}
	.st18{fill:#32163D;}
	.st19{fill:#492020;}
	.st20{fill:#562929;}
</style>
<g>
	<g>
		<g>
			<g>
				<rect x="854.9" y="656.4" class="st0" width="105.5" height="256.8"/>
				<path class="st1" d="M1106.9,494.3v106.1c0,5.8-0.5,11.4-1.3,16.9c-8.2,51.3-52.9,90.9-106.5,90.9H920
					c-53.4,0-97.9-39.6-105.7-90.9c-0.8-5.2-1.2-10.6-1.2-16.1V494.3H1106.9z"/>
				<rect x="960.4" y="656" class="st1" width="105.5" height="256.8"/>
			</g>
			<g>
				<g>
					<rect x="683.2" y="556.2" class="st2" width="100.9" height="230.8"/>
					<rect x="683.2" y="548" class="st3" width="100.9" height="27.5"/>
					<path class="st4" d="M826.6,469.5v17.8H784v67.4H683.3c0,0.1,0-14.7,0-22.6v-62.6c0-39.4,32.3-71.7,71.7-71.7
						c19.7,0,37.6,8.1,50.6,21.1C818.5,431.8,826.6,449.8,826.6,469.5z"/>
					<circle class="st2" cx="744.9" cy="787.1" r="61.8"/>
					<path class="st5" d="M756.3,555.2h-78c-4.2,0-7.6-3.4-7.6-7.6l0,0c0-4.2,3.4-7.6,7.6-7.6h78c4.2,0,7.6,3.4,7.6,7.6l0,0
						C763.9,551.8,760.5,555.2,756.3,555.2z"/>
					<path class="st3" d="M784,739.3V835c13.9-11.3,22.7-28.6,22.7-47.8C806.7,767.8,797.9,750.6,784,739.3z"/>
				</g>
				<g>
					<rect x="1136" y="556.2" class="st2" width="100.9" height="230.8"/>
					<rect x="1136" y="548" class="st3" width="100.9" height="27.5"/>
					<path class="st4" d="M1093.4,469.5v17.8h42.6v67.4h100.8c0,0.1,0-14.7,0-22.6v-62.6c0-39.4-32.3-71.7-71.7-71.7
						c-19.7,0-37.6,8.1-50.6,21.1C1101.5,431.8,1093.4,449.8,1093.4,469.5z"/>
					<circle class="st2" cx="1175.1" cy="787.1" r="61.8"/>
					<path class="st5" d="M1163.7,555.2h78c4.2,0,7.6-3.4,7.6-7.6l0,0c0-4.2-3.4-7.6-7.6-7.6h-78c-4.2,0-7.6,3.4-7.6,7.6l0,0
						C1156.1,551.8,1159.5,555.2,1163.7,555.2z"/>
					<path class="st3" d="M1136,739.3V835c-13.9-11.3-22.7-28.6-22.7-47.8C1113.3,767.8,1122.1,750.6,1136,739.3z"/>
				</g>
				<path class="st6" d="M1189.6,447.5V548c0,40.8-33.4,74.1-74.1,74.1H808.8c-40.8,0-74.1-33.4-74.1-74.1V447.5
					c0-40.8,33.4-74.1,74.1-74.1h79.4c0.9,38,30.9,68.7,68.6,70.8c1.4,0.1,2.7,0.1,4.1,0.1c1.1,0,2.1,0,3.2-0.1
					c38.1-1.7,68.6-32.6,69.5-70.9h81.9C1156.2,373.4,1189.6,406.8,1189.6,447.5z"/>
				<path class="st1" d="M871.6,371.3v275h-24.3v-275c0-3.5,2.9-6.4,6.4-6.4h11.5C868.8,364.9,871.6,367.8,871.6,371.3z"/>
				<path class="st1" d="M1071.8,642.7h-24.3V371.3c0-3.5,2.8-6.3,6.3-6.3h11.6c3.5,0,6.3,2.8,6.3,6.3V642.7z"/>
				<path class="st7" d="M1033.2,373.4c0,0.2,0,0.5,0,0.7c-0.5,15-5.5,28.9-13.8,40.2c-13.2,18.2-34.7,30-58.8,30
					c-24,0-45.2-11.6-58.5-29.5c-8.6-11.6-13.8-25.9-14.2-41.3v-0.1H1033.2z"/>
				<path class="st2" d="M1015.7,373.4c0,0.2,0,0.4,0,0.6c-0.4,11.4-4.2,21.9-10.5,30.6c-10.1,13.8-26.4,22.8-44.8,22.8
					c-18.2,0-34.4-8.8-44.5-22.4c-6.5-8.8-10.5-19.7-10.8-31.4v-0.1H1015.7z"/>
				<path class="st4" d="M1040.4,371.1v0.3c0,2-0.1,4-0.2,5.9c-0.9,12.3-4.6,23.8-10.4,33.9c-13.8,24-39.8,40.2-69.4,40.2
					c-29.4,0-55.1-15.9-69-39.5c-6.2-10.5-10.1-22.5-10.9-35.4c-0.1-1.7-0.2-3.4-0.2-5.1v-0.3c0-2.5,2.1-4.5,4.6-4.5h0.5
					c1.2,0,2.3,0.5,3.2,1.3c0.9,0.9,1.4,2.1,1.4,3.4c0,0.5,0,0.9,0,1.4c0,0.2,0,0.4,0,0.7c0.5,16,6.3,30.7,15.8,42.3
					c12.9,15.9,32.6,26,54.6,26c22.2,0,42-10.3,54.9-26.4c9.3-11.6,15-26.1,15.4-41.9c0,0,0-0.1,0-0.1c0-0.6,0-1.2,0-1.9
					c0-1.4,0.5-2.5,1.4-3.4c0.8-0.8,2-1.3,3.2-1.3h0.6C1038.4,366.7,1040.4,368.7,1040.4,371.1z"/>
				<path class="st4" d="M965.9,448.3v173.8H955V448.3c0-1.6,0.7-3.1,1.8-4.1c1-0.9,2.2-1.4,3.6-1.4h0c1.4,0,2.7,0.5,3.7,1.4
					C965.2,445.3,965.9,446.7,965.9,448.3z"/>
				<circle class="st4" cx="985.2" cy="486.6" r="6.5"/>
				<circle class="st4" cx="985.2" cy="534.1" r="6.5"/>
				<circle class="st4" cx="985.2" cy="581.6" r="6.5"/>
				<circle class="st2" cx="896.7" cy="278.1" r="13.3"/>
				<circle class="st2" cx="1023.4" cy="278.1" r="13.3"/>
				<path class="st3" d="M1029.1,275.2l-8.4,8.4c-0.8,0.8-2.2,0.8-3.1,0l0,0c-0.8-0.8-0.8-2.2,0-3.1l8.4-8.4c0.8-0.8,2.2-0.8,3.1,0
					l0,0C1029.9,272.9,1029.9,274.3,1029.1,275.2z"/>
				<path class="st3" d="M1026,284l-8.5-8.5c-0.8-0.8-0.8-2.2,0-3.1l0,0c0.8-0.8,2.2-0.8,3.1,0l8.5,8.5c0.8,0.8,0.8,2.2,0,3.1l0,0
					C1028.3,284.8,1026.9,284.8,1026,284z"/>
				<path class="st3" d="M902.8,275.2l-8.4,8.4c-0.8,0.8-2.2,0.8-3.1,0l0,0c-0.8-0.8-0.8-2.2,0-3.1l8.4-8.4c0.8-0.8,2.2-0.8,3.1,0
					l0,0C903.7,272.9,903.7,274.3,902.8,275.2z"/>
				<path class="st3" d="M899.8,284l-8.5-8.5c-0.8-0.8-0.8-2.2,0-3.1l0,0c0.8-0.8,2.2-0.8,3.1,0l8.5,8.5c0.8,0.8,0.8,2.2,0,3.1l0,0
					C902,284.8,900.6,284.8,899.8,284z"/>
				<path class="st7" d="M960.1,384.7L960.1,384.7c-34.7,0-63-28.4-63-63V265c0-34.7,28.4-63,63-63h0c34.7,0,63,28.4,63,63v56.6
					C1023.2,356.3,994.8,384.7,960.1,384.7z"/>
				<path class="st2" d="M941.9,276h-21c-2.7,0-4.9-2.2-4.9-4.9l0,0c0-2.7,2.2-4.9,4.9-4.9h21c2.7,0,4.9,2.2,4.9,4.9l0,0
					C946.8,273.8,944.6,276,941.9,276z"/>
				<path class="st2" d="M944,227.1h32.6c1.2,0,2.1,0.9,2.1,2.1v0c0,1.2-0.9,2.1-2.1,2.1H944c-1.2,0-2.1-0.9-2.1-2.1v0
					C941.9,228,942.8,227.1,944,227.1z"/>
				<path class="st2" d="M933.9,237.4h52.8c1.2,0,2.1,0.9,2.1,2.1v0c0,1.2-0.9,2.1-2.1,2.1h-52.8c-1.2,0-2.1-0.9-2.1-2.1v0
					C931.8,238.4,932.7,237.4,933.9,237.4z"/>
				<path class="st8" d="M942.1,269.8V281c0,6-4.8,10.8-10.8,10.8s-10.8-4.8-10.8-10.8v-11.2c0-6,4.8-10.8,10.8-10.8
					S942.1,263.9,942.1,269.8z"/>
				<path class="st2" d="M915.4,287.8L915.4,287.8c-2,0-3.2,2.2-2.2,3.9c3.1,5.2,8.4,8.9,14.6,10c1.5,0.3,2.9-1,2.9-2.5v0
					c0-1.2-0.9-2.3-2.1-2.5c-4.7-0.8-8.7-3.6-11-7.6C917.2,288.3,916.3,287.8,915.4,287.8z"/>
				<path class="st9" d="M996.1,327.7v50.3c0,6.1,5,11,11,11c6.1,0,11-5,11-11v-65.6c0,8.4-6.8,15.2-15.2,15.2H996.1z"/>
				<path class="st2" d="M1002.8,289.1c-2.3,3.9-6.3,6.8-11,7.6c-1.2,0.2-2.1,1.3-2.1,2.5v0c0,1.6,1.4,2.8,2.9,2.5
					c6.2-1,11.5-4.8,14.6-10c1-1.7-0.2-3.9-2.2-3.9l0,0C1004.1,287.8,1003.3,288.3,1002.8,289.1z"/>
				<path class="st8" d="M942.1,269.8V281c0,6-4.8,10.8-10.8,10.8s-10.8-4.8-10.8-10.8v-11.2c0-6,4.8-10.8,10.8-10.8
					S942.1,263.9,942.1,269.8z"/>
				<path class="st2" d="M942.1,269.8V281c0,6-4.8,10.8-10.8,10.8s-10.8-4.8-10.8-10.8v-11.2c0-6,4.8-10.8,10.8-10.8
					S942.1,263.9,942.1,269.8z"/>
				<path class="st9" d="M924.5,327.7v50.3c0,6.1-5,11-11,11c-6.1,0-11-5-11-11v-65.6c0,8.4,6.8,15.2,15.2,15.2H924.5z"/>
				<path class="st2" d="M999.6,276h-21c-2.7,0-4.9-2.2-4.9-4.9l0,0c0-2.7,2.2-4.9,4.9-4.9h21c2.7,0,4.9,2.2,4.9,4.9l0,0
					C1004.5,273.8,1002.3,276,999.6,276z"/>
				<path class="st2" d="M989,291.8c-6,0-10.8-4.8-10.8-10.8v-11.2c0-6,4.8-10.8,10.8-10.8s10.8,4.8,10.8,10.8V281
					C999.8,287,994.9,291.8,989,291.8z"/>
				<path class="st10" d="M931.3,286.7L931.3,286.7c-3.1,0-5.7-2.6-5.7-5.7v-11.2c0-3.1,2.6-5.7,5.7-5.7l0,0c3.1,0,5.7,2.6,5.7,5.7
					V281C937,284.1,934.4,286.7,931.3,286.7z"/>
				<path class="st10" d="M989.1,286.7L989.1,286.7c-3.1,0-5.7-2.6-5.7-5.7v-11.2c0-3.1,2.6-5.7,5.7-5.7h0c3.1,0,5.7,2.6,5.7,5.7
					V281C994.8,284.1,992.3,286.7,989.1,286.7z"/>
				<path class="st11" d="M943.9,272.8l-25.4-4.5c-3.6-0.6-6-4.1-5.4-7.7v0c0.6-3.6,4.1-6,7.7-5.4l25.4,4.5c3.6,0.6,6,4.1,5.4,7.7v0
					C951,271,947.5,273.5,943.9,272.8z"/>
				<path class="st11" d="M1001.6,268.3l-25.4,4.5c-3.6,0.6-7.1-1.8-7.7-5.4v0c-0.6-3.6,1.8-7.1,5.4-7.7l25.4-4.5
					c3.6-0.6,7.1,1.8,7.7,5.4v0C1007.6,264.3,1005.2,267.7,1001.6,268.3z"/>
				<path class="st11" d="M998.2,319.2v61c0,21-17.2,38.1-38.1,38.1S922,401.2,922,380.2v-61c0-5.8,4.8-10.6,10.6-10.6h55.1
					C993.5,308.6,998.2,313.4,998.2,319.2z"/>
				<path class="st3" d="M959,309.9v-5.1c0-3.8,3.1-6.8,6.8-6.8h4.9c5.2,0,9.4,4.2,9.4,9.4v0c0,5.2-4.2,9.4-9.4,9.4h-4.9
					C962.1,316.8,959,313.7,959,309.9z"/>
				<path class="st3" d="M961.2,304.9v5.1c0,3.8-3.1,6.8-6.8,6.8h-4.9c-5.2,0-9.4-4.2-9.4-9.4v0c0-5.2,4.2-9.4,9.4-9.4h4.9
					C958.2,298,961.2,301.1,961.2,304.9z"/>
				<path class="st2" d="M962.6,320h-5.1c-3.8,0-6.8-3.1-6.8-6.8v-27c0-5.2,4.2-9.4,9.4-9.4l0,0c5.2,0,9.4,4.2,9.4,9.4v27
					C969.4,317,966.3,320,962.6,320z"/>
				<path class="st12" d="M973.9,343.2h-28.1c-1.6,0-2.8-1.3-2.8-2.8l0,0c0-1.6,1.3-2.8,2.8-2.8h28.1c1.6,0,2.8,1.3,2.8,2.8l0,0
					C976.8,341.9,975.5,343.2,973.9,343.2z"/>
				<path class="st9" d="M902.5,360.1L902.5,360.1c-8.3,0-15.1-6.8-15.1-15.1v-57.3c0-4.2,3.4-7.6,7.6-7.6h0c4.2,0,7.6,3.4,7.6,7.6
					V360.1z"/>
				<path class="st9" d="M1018.1,360.1L1018.1,360.1c8.3,0,15.1-6.8,15.1-15.1v-57.3c0-4.2-3.4-7.6-7.6-7.6h0
					c-4.2,0-7.6,3.4-7.6,7.6V360.1z"/>
			</g>
		</g>
		<path class="st13" d="M1077.5,723.6v20.9h-55.2v0.2H897.5v-0.2h-55.2v-20.9c0-2.9,1.6-5.7,4.3-6.9c2.9-1.3,6-0.5,8.1,1.6
			c7,7.1,16.7,11.4,27.5,11.4c9.3,0,17.9-3.3,24.6-8.8c0.8-0.6,1.8-1.6,2.7-2.5c2.6-2.6,5.6-5,8.9-6.7c6.1-3.2,13.2-4.8,20.6-4.2
			c7,0.5,13.4,2.8,18.9,6.6c1.2,0.8,2.7,0.8,3.9,0c5.5-3.7,12-6.1,18.9-6.6c7.5-0.5,14.5,1.1,20.6,4.2c3.3,1.7,6.3,4.1,8.9,6.7
			c0.9,0.9,1.9,1.9,2.7,2.5c6.7,5.5,15.3,8.8,24.6,8.8c10.7,0,20.5-4.4,27.5-11.4c2.1-2.1,5.2-2.9,8.1-1.6
			C1075.9,717.9,1077.5,720.7,1077.5,723.6z"/>
		<path class="st14" d="M1186.6,731L1186.6,731c-2.1,0-3.8-1.7-3.8-3.8V711c0-2.1,1.7-3.8,3.8-3.8l0,0c2.1,0,3.8,1.7,3.8,3.8v16.2
			C1190.4,729.2,1188.7,731,1186.6,731z"/>
		<path class="st15" d="M1171.8,710.6L1171.8,710.6c0-2.1,1.7-3.8,3.8-3.8h21.8c2.1,0,3.8,1.7,3.8,3.8l0,0c0,2.1-1.7,3.8-3.8,3.8
			h-21.8C1173.5,714.4,1171.8,712.7,1171.8,710.6z"/>
		<path class="st16" d="M1087.7,759.3H832.3c-2,0-3.7-1.6-3.7-3.7v-8c0-2,1.6-3.7,3.7-3.7h255.4c2,0,3.7,1.6,3.7,3.7v8
			C1091.4,757.6,1089.7,759.3,1087.7,759.3z"/>
		<rect x="1166.3" y="741.5" class="st14" width="40.4" height="11.8"/>
		<path class="st13" d="M756.6,683.6l-10.6,27c-1.9,4.8-7.8,7-13.2,4.9c-1.5-0.6-2.7-1.4-3.8-2.4c-2.8-2.7-3.9-6.7-2.5-10.2l10.6-27
			c1.4-3.5,4.9-5.6,8.8-5.7c1.5,0,3,0.2,4.4,0.8c2.7,1.1,4.8,3,5.9,5.3C757.3,678.5,757.6,681.1,756.6,683.6z"/>
		<path class="st17" d="M746.1,685.6l-22.2,56.6c-0.3,0.7-1.1,1.1-1.9,0.8s-1.1-1.1-0.8-1.9l22.2-56.6c0.3-0.7,1.1-1.1,1.9-0.8
			S746.4,684.8,746.1,685.6z"/>
		<g>
			<path class="st17" d="M738.1,706l-1.5,3.8l-1.6-3.8l-3.1-7.1c-0.3-0.7,0-1.6,0.8-1.9c0.4-0.2,0.8-0.2,1.1,0
				c0.4,0.1,0.6,0.4,0.8,0.8l1.9,4.4L738.1,706z"/>
			<path class="st17" d="M735.4,705l-1.5,3.8l3.8-1.6l7.1-3.1c0.7-0.3,1.1-1.2,0.8-1.9c-0.2-0.4-0.5-0.6-0.8-0.8
				c-0.4-0.1-0.7-0.1-1.1,0l-4.4,1.9L735.4,705z"/>
			<path class="st17" d="M743.2,693l-1.5,3.8l-1.6-3.8l-3.1-7.1c-0.3-0.7,0-1.6,0.8-1.9c0.4-0.2,0.8-0.2,1.1,0
				c0.4,0.1,0.6,0.4,0.8,0.8l1.9,4.4L743.2,693z"/>
			<path class="st17" d="M740.5,692l-1.5,3.8l3.8-1.6l7.1-3.1c0.7-0.3,1.1-1.2,0.8-1.9c-0.2-0.4-0.5-0.6-0.8-0.8
				c-0.4-0.1-0.7-0.1-1.1,0l-4.4,1.9L740.5,692z"/>
		</g>
		<path class="st15" d="M1211.2,746.4h-49.4c-1,0-1.9-0.9-1.8-1.9c0,0,0,0,0,0c1.1-13.7,12.5-24.4,26.5-24.4s25.4,10.8,26.5,24.4
			c0,0,0,0,0,0C1213.1,745.5,1212.3,746.4,1211.2,746.4z"/>
		<path class="st15" d="M1210.8,759.2h-48.5c-2.1,0-3.8-1.7-3.8-3.8l0,0c0-2.1,1.7-3.8,3.8-3.8h48.5c2.1,0,3.8,1.7,3.8,3.8l0,0
			C1214.6,757.5,1212.9,759.2,1210.8,759.2z"/>
		<path class="st18" d="M738.2,759.2h-16.8c-2.3,0-4.5-1-6.1-2.7l0,0c-3.1-3.4-3.9-8.3-2.2-12.6l7.1-17.4c0.3-0.8,1.1-1.3,1.9-1.3
			h15.3c0.8,0,1.6,0.5,1.9,1.3l7.1,17.4c1.7,4.3,0.9,9.1-2.2,12.6l0,0C742.7,758.2,740.5,759.2,738.2,759.2z"/>
		<path class="st17" d="M741.9,729.4h-24.2c-0.8,0-1.4-0.7-1.4-1.4v-4.7c0-0.8,0.7-1.4,1.4-1.4h24.2c0.8,0,1.4,0.7,1.4,1.4v4.7
			C743.4,728.8,742.7,729.4,741.9,729.4z"/>
	</g>
	<rect x="411.4" y="759.2" class="st19" width="1097.2" height="320.8"/>
	<path class="st20" d="M1561.5,777.6c0,10.1-8.2,18.4-18.4,18.4H376.9c-5.1,0-9.7-2.1-13-5.4c-3.3-3.3-5.4-7.9-5.4-13
		c0-10.1,8.2-18.4,18.4-18.4h1166.2c5.1,0,9.7,2.1,13,5.4C1559.4,767.9,1561.5,772.5,1561.5,777.6z"/>
</g>
</svg>
