<?xml version="1.0" encoding="utf-8"?>
<!-- Generator: Adobe Illustrator 22.1.0, SVG Export Plug-In . SVG Version: 6.00 Build 0)  -->
<svg version="1.1" id="Layer_1" xmlns="http://www.w3.org/2000/svg" xmlns:xlink="http://www.w3.org/1999/xlink" x="0px" y="0px"
	 viewBox="0 0 600 657" style="enable-background:new 0 0 600 657;" xml:space="preserve">
<style type="text/css">
	.st0{fill:#C4E5DC;}
	.st1{fill:#DDEEDB;}
	.st2{fill:#F3F7DE;}
	.st3{fill:#9ED3D7;}
	.st4{fill:#AADCD9;}
	.st5{fill:#F1F5D7;}
	.st6{fill:#D6EBD4;}
	.st7{fill:#B8E0D5;}
	.st8{fill:#EA5C7A;}
	.st9{fill:#D64165;}
	.st10{fill:#F96783;}
	.st11{fill:#C1305A;}
	.st12{opacity:0.3;fill:#FFFFFF;mix-blend-mode:soft-light;}
</style>
<g>
	<path class="st0" d="M561.4750366,395.8999023v135.7202148c0,12.5898438-4.9100342,24.4199219-13.8199463,33.3100586
		l-78.2700195,78.2897949C460.4949341,652.1000977,448.6651001,657,436.0950317,657H163.9050903
		c-12.5600586,0-24.380127-4.8898926-33.2800293-13.7600098l-78.3200684-78.329834
		c-8.8898926-8.8901367-13.7800293-20.7099609-13.7800293-33.2900391V395.8999023
		c0-12.5998535,4.9000244-24.4199219,13.8000488-33.2998047l78.2800293-78.3000488
		c8.9499512-8.9001465,20.7600098-13.7800293,33.3000488-13.7800293h272.1899414c12.3699951,0,24.5,5.0100098,33.2600098,13.7600098
		l78.3299561,78.3400879C556.5549927,371.4599609,561.4750366,383.2900391,561.4750366,395.8999023z"/>
	<path class="st1" d="M467.1350708,395.8999023v135.7202148c0,12.5898438-4.9001465,24.4199219-13.8100586,33.3100586
		l-78.2800293,78.2897949C366.1550903,652.1000977,354.335022,657,341.7549438,657H163.9050903
		c-12.5600586,0-24.380127-4.8898926-33.2800293-13.7600098l-78.3200684-78.329834
		c-8.8898926-8.8901367-13.7800293-20.7099609-13.7800293-33.2900391V395.8999023
		c0-12.5998535,4.9000244-24.4199219,13.8000488-33.2998047l78.2800293-78.3000488
		c8.9499512-8.9001465,20.7600098-13.7800293,33.3000488-13.7800293h177.8498535c12.380127,0,24.5,5.0100098,33.2700195,13.7600098
		l78.3200684,78.3400879C462.2250366,371.4599609,467.1350708,383.2900391,467.1350708,395.8999023z"/>
	<path class="st2" d="M421.2399597,395.8999023v135.7202148c0,12.5898438-4.8999023,24.4199219-13.8100586,33.3100586
		l-78.2799072,78.2897949C320.2599792,652.1000977,308.4399109,657,295.8599548,657H163.9050903
		c-12.5600586,0-24.380127-4.8898926-33.2800293-13.7600098l-78.3200684-78.329834
		c-8.8898926-8.8901367-13.7800293-20.7099609-13.7800293-33.2900391V395.8999023
		c0-12.5998535,4.9000244-24.4199219,13.8000488-33.2998047l78.2800293-78.3000488
		c8.9499512-8.9001465,20.7600098-13.7800293,33.3000488-13.7800293h131.9548645c12.3800049,0,24.5,5.0100098,33.2700195,13.7600098
		l78.3199463,78.3400879C416.3300476,371.4599609,421.2399597,383.2900391,421.2399597,395.8999023z"/>
	<path class="st3" d="M536.4750366,395.9301758v135.7099609c0,5.8598633-2.3299561,11.4799805-6.4700928,15.6098633
		l-78.3099365,78.3100586c-4.1300049,4.1401367-9.75,6.4699707-15.5999756,6.4699707H163.9050903
		c-5.8601074,0-11.4801025-2.329834-15.6201172-6.4699707L69.9849243,547.25
		c-4.1398926-4.1298828-6.4699707-9.75-6.4699707-15.6098633V395.9301758c0-0.3601074,0.0100098-0.7299805,0.0300293-1.0900879
		c0.1800537-3.7600098,1.3300781-7.380127,3.2900391-10.5500488c0.8800049-1.4299316,1.9399414-2.7700195,3.1499023-3.9699707
		l78.3000488-78.3100586c4.1400146-4.1398926,9.7600098-6.4699707,15.6201172-6.4699707h272.1899414
		c5.8499756,0,11.4699707,2.3300781,15.5999756,6.4699707l78.3099365,78.3100586
		c1.1101074,1.1101074,2.0900879,2.3200684,2.9200439,3.619873c2.0400391,3.1401367,3.2600098,6.7700195,3.5,10.5500488
		C536.4550171,394.9599609,536.4750366,395.4501953,536.4750366,395.9301758z"/>
	<path class="st0" d="M426.8250122,395.9251404v135.7197571c0,5.8565063-2.3269653,11.4707642-6.4620056,15.605835
		l-78.3142395,78.314209c-4.1349487,4.1350708-9.749176,6.4620361-15.6056824,6.4620361h-162.54245
		c-5.8564911,0-11.4707489-2.3269653-15.6144409-6.4620361l-78.3055878-78.314209
		c-4.1349258-4.1350708-6.4620056-9.7493286-6.4620056-15.605835V395.9251404
		c0-5.8564758,2.3270798-11.4707336,6.4620056-15.6057739l78.3055878-78.31427
		c4.143692-4.1350098,9.7579498-6.4619751,15.6144409-6.4619751h162.54245c5.8565063,0,11.4707336,2.3269653,15.6056824,6.4619751
		l78.3142395,78.31427C424.4980469,384.4544067,426.8250122,390.0686646,426.8250122,395.9251404z"/>
	<path class="st4" d="M431.6333008,395.9247437v135.7199707c0,4.7600098-1.539978,9.3601074-4.3299561,13.130127
		c-0.4400024,0.579834-86.9100342,87.25-86.9100342,87.25h-80.9825439l-84.7800446-84.7700195
		c-0.7799683-0.7802734-1.4899902-1.6000977-2.1299438-2.4799805c-0.4300537-0.5800781-0.8300171-1.1801758-1.2000122-1.800293
		c-0.1900024-0.2998047-0.3699951-0.619873-0.5300293-0.9299316c-0.3399658-0.6398926-0.6499634-1.2897949-0.9199829-1.9499512
		c-1.0999756-2.6599121-1.6799927-5.5200195-1.6799927-8.4499512V395.9247437c0-2.9301758,0.5800171-5.7900391,1.6799927-8.4501953
		c0.2700195-0.6599121,0.5800171-1.3098145,0.9199829-1.949707c0.1600342-0.3100586,0.3400269-0.630127,0.5300293-0.9301758
		c0.3699951-0.6201172,0.7699585-1.2199707,1.2000122-1.8000488c0.6399536-0.8798828,86.9099884-87.25,86.9099884-87.25h80.9825439
		c0,0,86.4700317,86.670166,86.9100342,87.25C430.0933228,386.5646362,431.6333008,391.1647339,431.6333008,395.9247437z"/>
	<path class="st4" d="M172.5007782,544.7748413c-0.4400024-0.5800781-0.8400269-1.1801758-1.2000122-1.800293
		C171.6707611,543.5946655,172.0707245,544.1947632,172.5007782,544.7748413z"/>
	<path class="st4" d="M172.5007782,382.7946167c-0.4300537,0.5800781-0.8300171,1.1799316-1.2000122,1.8000488
		C171.6607513,383.9745483,172.0607758,383.3746948,172.5007782,382.7946167z"/>
	<path class="st4" d="M426.1207886,546.4647827c-0.2400513,0.2700195-0.4900513,0.5297852-0.75,0.7900391l-78.3099976,78.3098145
		l78.2999878-78.3098145C425.6207886,546.9945679,425.8707886,546.7348022,426.1207886,546.4647827z"/>
	<path class="st4" d="M426.1207886,381.1046753c-0.25-0.2700195-0.5-0.5300293-0.7600098-0.7900391h0.0100098
		C425.6307373,380.574646,425.8807373,380.8346558,426.1207886,381.1046753z"/>
	<g>
		<path class="st5" d="M383.7607422,270.3678589v0.1699219H195.630722l-0.0499878-24.3898926c0,0,42.4299927,0,87.0000153,0
			c0,0,51.8500366,0,101.1199951,0L383.7607422,270.3678589z"/>
		<path class="st6" d="M383.7607422,270.3678589v0.1699219h-95.3143311c-3.2138367,0-5.8210144-2.6018372-5.8276062-5.8156433
			l-0.0260925-12.7347107c-0.0066223-3.2231445,2.6044312-5.8395386,5.8275757-5.8395386h89.4672546
			c3.2128601,0,5.8196411,2.6003113,5.8276062,5.8131561L383.7607422,270.3678589z"/>
		<path class="st7" d="M403.7607422,270.5377808h-65.3800049c-0.3099976,0-0.6199951-0.0200195-0.9099731-0.079834
			c-2.7800293-0.4301758-4.9099731-2.8300781-4.9099731-5.7402344l-0.0200195-6.4099121v-4.1699219l-0.0100098-2.1501465
			c-0.0100098-2.6499023,1.7600098-4.8898926,4.1900024-5.5998535l10.0100098-0.0100098
			c0.5100098-0.1499023-8.9400024-0.2299805-8.3699951-0.2299805h65.3399658L403.7607422,270.5377808z"/>
		<g>
			<path class="st2" d="M445.085022,230.0728607c0.0100098,4.2998047-1.6600342,8.3498535-4.6899414,11.3898926
				c-3.0300293,3.0400391-7.0700684,4.7199707-11.3701172,4.7299805H168.835022
				c-8.8400879,0-13.9599609-6.8300781-13.9799805-15.6799316l-0.0800781-51.7001953
				c-0.0100098-4.2998047,1.6600342-8.3398438,4.6900635-11.3798828c3.0299072-3.0400391,7.0599365-5.0700684,11.3599854-5.0800781
				h258.8400879c8.5998535,0.380127,15.329834,7.4199219,15.3398438,16.0200195L445.085022,230.0728607z"/>
			<path class="st0" d="M445.085022,230.0728607c0.0100098,4.2998047-1.6600342,8.3498535-4.6899414,11.3898926
				c-3.0300293,3.0400391-7.0700684,4.7199707-11.3701172,4.7299805H313.6050415
				c0.3100586,0,0.6199951-0.0100098,0.9299316-0.0300293h0.0400391c0.3100586-0.0200195,0.6099854-0.0400391,0.9099121-0.0898438
				c0.0100098,0.0097656,0.0300293,0.0097656,0.0400391,0c3.5700684-0.4301758,6.880127-2.0302734,9.4500732-4.6101074
				c3.0299072-3.0400391,4.6999512-7.0900879,4.6900635-11.3898926l-0.0100098-8.5700684v-0.0800781l-0.0600586-33.880127
				v-0.0898438l-0.0100098-9.0800781c-0.0100098-8.6000977-6.7399902-15.6398926-15.3400879-16.0200195h115.420166
				c8.5998535,0.380127,15.329834,7.4199219,15.3398438,16.0200195L445.085022,230.0728607z"/>
			<path class="st1" d="M366.1235962,230.0686035c0.0100098,4.2999268-1.6599121,8.3498535-4.6899414,11.3898926
				s-7.0698242,4.7199707-11.369873,4.7299805h-61.4221191c4.3000488-0.0100098,8.3400879-1.6899414,11.3701172-4.7299805
				s4.6999512-7.0899658,4.6899414-11.3898926l-0.0800781-51.7000732
				c-0.0097656-8.5999756-6.7397461-15.6400146-15.3398438-16.0200195h61.421875
				c8.6000977,0.3800049,15.3300781,7.4200439,15.3400879,16.0200195L366.1235962,230.0686035z"/>
			<path class="st4" d="M420.1118774,214.6019592c0,3.6900635-2.9799805,6.6900635-6.6801758,6.7000732l-108.75,0.1600342
				h-2.8498535l-115.3601074,0.1699219c-3.6999512,0.0100098-6.6899414-2.9799805-6.6999512-6.6799316l-0.0300293-20.5900879
				c-0.0100098-3.6899414,2.9799805-6.6899414,6.6699219-6.6999512l103.4702148-0.1500244l14.7998047-0.0198975
				l108.7001953-0.1601563c2.579834-0.0100098,4.8198242,1.4500732,5.9299316,3.5900879
				c0.0998535,0.1799316,0.1899414,0.3699951,0.2700195,0.5700684c0.079834,0.1699219,0.1398926,0.3398438,0.1999512,0.5299072
				c0.1899414,0.6300049,0.3000488,1.2999268,0.3000488,1.9899902L420.1118774,214.6019592z"/>
			<path class="st3" d="M420.1118774,214.6019592c0,3.6900635-2.9799805,6.6900635-6.6801758,6.7000732l-108.8081665,0.1600342
				v-33.9699707l108.7583618-0.1601563c2.579834-0.0100098,4.8198242,1.4500732,5.9299316,3.5900879
				c0.0998535,0.1799316,0.1899414,0.3699951,0.2700195,0.5700684c0.079834,0.1699219,0.1398926,0.3398438,0.1999512,0.5299072
				c0.1899414,0.6300049,0.3000488,1.2999268,0.3000488,1.9899902L420.1118774,214.6019592z"/>
		</g>
	</g>
	<path class="st8" d="M536.4750366,395.9301758v135.7099609c0,5.8598633-2.3299561,11.4799805-6.4700928,15.6098633
		l-78.3099365,78.3100586c-4.1300049,4.1401367-9.75,6.4699707-15.5999756,6.4699707H163.9050903
		c-5.8601074,0-11.4801025-2.329834-15.6201172-6.4699707L69.9849243,547.25
		c-4.1398926-4.1298828-6.4699707-9.75-6.4699707-15.6098633v-54.880127
		c90.2199707-7.9199219,145.0300293-27.5100098,198.0400391-46.4599609
		c11.4000244-4.0800781,23.1799316-8.2900391,34.9000244-12.2099609l2.3199463-0.7800293h0.0200195
		c0.8200684-0.2700195,1.6300049-0.5400391,2.4300537-0.8000488c7.6800537-2.5200195,14.4200439-4.619873,20.9000244-6.5
		c6-1.7800293,12.119873-3.4599609,18.1098633-4.9899902c11-2.8100586,21.7200928-5.1499023,32.7800293-7.1599121
		c29.0800781-5.25,59.1501465-7.8000488,91.9699707-7.8000488h0.7301025
		c26.039917,0.0300293,49.8199463,1.5100098,70.7099609,4.4299316
		C536.4550171,394.9599609,536.4750366,395.4501953,536.4750366,395.9301758z"/>
	<path class="st9" d="M536.4750366,409.6401367v122c0,5.8598633-2.3299561,11.4799805-6.4700928,15.6098633l-78.3099365,78.3100586
		c-4.1300049,4.1401367-9.75,6.4699707-15.5999756,6.4699707H163.9050903c-5.8601074,0-11.4801025-2.329834-15.6201172-6.4699707
		L69.9849243,547.25c-4.1398926-4.1298828-6.4699707-9.75-6.4699707-15.6098633v-39.8200684
		c113.2299805-9.7600098,173.1600342-37.9001465,237.7000732-59.5100098h0.0100098
		c8.2598877-2.7600098,16.5599365-5.4199219,25.0899658-7.8999023c5.7800293-1.7099609,11.6400146-3.3300781,17.6300049-4.8601074
		c10.1500244-2.5900879,20.6800537-4.9199219,31.75-6.9299316c26.1400146-4.7202148,55.3199463-7.6000977,90-7.5600586
		C493.4550171,405.0900879,516.7250366,406.7700195,536.4750366,409.6401367z"/>
	<path class="st10" d="M536.4750366,476.5500488v55.0900879c0,5.8598633-2.3299561,11.4799805-6.4700928,15.6098633
		l-78.3099365,78.3100586c-4.1300049,4.1401367-9.75,6.4699707-15.5999756,6.4699707H163.9050903
		c-5.8601074,0-11.4801025-2.329834-15.6201172-6.4699707L69.9849243,547.25
		c-4.1398926-4.1298828-6.4699707-9.75-6.4699707-15.6098633V395.9301758c0-0.3601074,0.0100098-0.7299805,0.0300293-1.0900879
		c21.4899902-3.1501465,46.0900879-4.75,73.1600342-4.7800293h0.6500244c45.1899414,0,84.8599854,4.75,124.8499756,14.9599609
		c5.9200439,1.5100098,12.0200195,3.1899414,18.1500244,4.9899902c6.4299316,1.880127,13.1699219,3.9699707,20.8699951,6.5
		c0.7999268,0.2600098,1.5999756,0.5300293,2.4200439,0.8000488h0.0100098l2.329834,0.7800293
		c11.75,3.9299316,23.5700684,8.1599121,34.9901123,12.2399902c15.1199951,5.4099121,30.75,11,47.2698975,16.3100586
		C421.5349731,457.3300781,468.4249878,470.3701172,536.4750366,476.5500488z"/>
	<path class="st8" d="M536.4750366,491.6101074v40.0300293c0,5.8598633-2.3299561,11.4799805-6.4700928,15.6098633
		l-78.3099365,78.3100586c-4.1300049,4.1401367-9.75,6.4699707-15.5999756,6.4699707H163.9050903
		c-5.8601074,0-11.4801025-2.329834-15.6201172-6.4699707l-10.3299561-10.3300781L69.9849243,547.25
		c-4.1398926-4.1298828-6.4699707-9.75-6.4699707-15.6098633v-121.630127
		c20.2700195-3.0998535,44.3100586-4.9199219,73.210083-4.9499512
		c49.3800049-0.0500488,87.6400146,5.7800293,121.7698975,14.4899902
		c5.9899902,1.5300293,11.8500977,3.1501465,17.6201172,4.8498535c8.5500488,2.4902344,16.8399658,5.1501465,25.0999756,7.9101563
		h0.0100098c26.8900146,9,52.9599609,19.1401367,82.4300537,28.6098633
		C424.4249878,474.0100098,471.6651001,485.8300781,536.4750366,491.6101074z"/>
	<path class="st9" d="M536.4849243,395.9301758v135.7099609c0,5.8598633-2.329834,11.4799805-6.4699707,15.6098633
		l-78.3099365,78.3100586c-4.1300049,4.1401367-9.75,6.4699707-15.5999756,6.4699707H331.2349243
		c5.8601074,0,11.4700928-2.329834,15.6101074-6.4699707L425.1550903,547.25
		c4.1298828-4.1298828,6.4599609-9.75,6.4599609-15.6098633V395.9301758c0-1.6601563-0.1900635-3.3100586-0.5600586-4.9001465
		c11.0200195-0.6499023,22.3100586-0.9699707,33.9399414-0.9699707h0.7301025
		c26.039917,0.0300293,49.8199463,1.5100098,70.7099609,4.4299316
		C536.4650269,394.9599609,536.4849243,395.4501953,536.4849243,395.9301758z"/>
	<path class="st11" d="M536.4849243,409.6401367v122c0,5.8598633-2.329834,11.4799805-6.4699707,15.6098633l-78.3099365,78.3100586
		c-4.1300049,4.1401367-9.75,6.4699707-15.5999756,6.4699707H331.2349243c5.8601074,0,11.4700928-2.329834,15.6101074-6.4699707
		L425.1550903,547.25c4.1298828-4.1298828,6.4599609-9.75,6.4599609-15.6098633V406.0200195
		c10.7700195-0.6398926,22.0999756-0.9699707,34.0899658-0.9599609
		C493.4650269,405.0900879,516.7349243,406.7700195,536.4849243,409.6401367z"/>
	<path class="st8" d="M536.4849243,476.5500488v55.0900879c0,5.8598633-2.329834,11.4799805-6.4699707,15.6098633
		l-78.3099365,78.3100586c-4.1300049,4.1401367-9.75,6.4699707-15.5999756,6.4699707H331.2349243
		c5.8601074,0,11.4700928-2.329834,15.6101074-6.4699707L425.1550903,547.25
		c4.1298828-4.1298828,6.4599609-9.75,6.4599609-15.6098633v-72.5300293
		C459.4949341,466.1101074,493.835022,472.6801758,536.4849243,476.5500488z"/>
	<path class="st9" d="M536.4849243,491.6101074v40.0300293c0,5.8598633-2.329834,11.4799805-6.4699707,15.6098633
		l-78.3099365,78.3100586c-4.1300049,4.1401367-9.75,6.4699707-15.5999756,6.4699707H331.2349243
		c5.8601074,0,11.4700928-2.329834,15.6101074-6.4699707l10.3299561-10.3300781L425.1550903,547.25
		c4.1298828-4.1298828,6.4599609-9.75,6.4599609-15.6098633v-57.0900879
		C461.3950806,481.8601074,495.4151001,487.9501953,536.4849243,491.6101074z"/>
	<path class="st12" d="M135.0109253,553.2484741c0,3.1201172-1.2199707,6.0600586-3.4300537,8.2700195
		c-2.1999512,2.2001953-5.1298904,3.4101563-8.2500076,3.4101563c-3.1098633,0-6.039917-1.2099609-8.25-3.4199219
		L87.620903,534.0487671c-2.1099854-2.1103516-3.3199463-4.9199219-3.4099121-7.9101563v-85.0800781
		c0-6.449707,5.2399902-11.6899414,11.6699219-11.6899414c3.1201172,0,6.0500488,1.2202148,8.25,3.4199219
		c2.2099609,2.2099609,3.4300537,5.1401367,3.4300537,8.2700195v79.9101563l24.0199051,24.0297852
		C133.7909546,547.1986694,135.0109253,550.1288452,135.0109253,553.2484741z"/>
	<path class="st12" d="M167.0908813,585.3285522c0,3.1298828-1.2099609,6.0698242-3.4199219,8.2700195
		s-5.1400146,3.4101563-8.25,3.4101563s-6.0500488-1.2099609-8.2600098-3.4101563l-8.2600098-8.2700195
		c-4.5500488-4.5498047-4.5500488-11.9599609-0.0100098-16.5200195c2.2199707-2.199707,5.1500244-3.4199219,8.2600098-3.4199219
		c3.1199951,0,6.0500488,1.2202148,8.2600098,3.4199219l8.2600098,8.2700195
		C165.8809204,579.2787476,167.0908813,582.2084351,167.0908813,585.3285522z"/>
	<path class="st9" d="M462.0249634,615.2299805l-10.3299561,10.3300781c-4.1300049,4.1401367-9.75,6.4699707-15.5999756,6.4699707
		H163.9050903c-5.8601074,0-11.4801025-2.329834-15.6201172-6.4699707l-10.3299561-10.3300781H462.0249634z"/>
	<path class="st11" d="M462.0307617,615.2348022l-10.3300171,10.329834c-4.1300049,4.1401367-9.75,6.4699707-15.5999756,6.4699707
		h-95.75l16.8200073-16.7998047H462.0307617z"/>
	<circle class="st9" cx="351.8250122" cy="548.5600586" r="25"/>
	<circle class="st9" cx="382.0750122" cy="501.8100586" r="12.25"/>
	<circle class="st9" cx="329.5750122" cy="501.9767151" r="7.75"/>
	<circle class="st9" cx="149.5569458" cy="465.119812" r="25"/>
	<circle class="st9" cx="161.2242126" cy="519.5670776" r="12.25"/>
	<circle class="st9" cx="198.2294617" cy="482.3260803" r="7.75"/>
	<circle class="st9" cx="237.3854828" cy="581.7387695" r="13.0097713"/>
	<circle class="st9" cx="265.0362244" cy="592.2974854" r="6.7401896"/>
</g>
</svg>
