<?xml version="1.0" encoding="utf-8"?>
<!-- Generator: Adobe Illustrator 22.1.0, SVG Export Plug-In . SVG Version: 6.00 Build 0)  -->
<svg version="1.1" id="Layer_1" xmlns="http://www.w3.org/2000/svg" xmlns:xlink="http://www.w3.org/1999/xlink" x="0px" y="0px"
	 viewBox="0 0 600 667" style="enable-background:new 0 0 600 667;" xml:space="preserve">
<style type="text/css">
	.st0{fill:#C4E5DC;}
	.st1{fill:#DDEEDB;}
	.st2{fill:#F3F7DE;}
	.st3{fill:#AADCD9;}
	.st4{fill:#9ED3D7;}
	.st5{opacity:0.2;fill:#FFFFFF;}
	.st6{fill:#2D2D2D;}
	.st7{fill:#1E1E1E;}
	.st8{fill:#373737;}
	.st9{fill:#141414;}
	.st10{fill:#F1F5D7;}
	.st11{fill:#D6EBD4;}
	.st12{fill:#B8E0D5;}
	.st13{opacity:0.15;fill:#FFFFFF;}
</style>
<g>
	<path class="st0" d="M521.1600952,314.2797852l-94.2998047,325.4501953C422.2001343,655.7900391,407.2802124,667,390.5599976,667
		H209.4398804c-16.7197266,0-31.6396484-11.2099609-36.2998047-27.2700195L78.8397903,314.2797852
		c-3.5698242-12.3398438-1.8896484-25.7700195,4.6201172-36.8498535l69.0102463-117.4699707
		c7.3500977-12.5100098,20.9399414-20.2900391,35.449707-20.2900391h224.1601563
		c14.5097656,0,28.1000977,7.7700195,35.4501953,20.2900391l69.0097656,117.4699707
		C523.0502319,288.5097656,524.7299194,301.9399414,521.1600952,314.2797852z"/>
	<path class="st1" d="M458.1600952,314.2797852l-94.2998047,325.4501953C359.2001343,655.7900391,344.2802124,667,327.5599976,667
		H209.4398804c-16.7197266,0-31.6396484-11.2099609-36.2998047-27.2700195L78.8397903,314.2797852
		c-3.5698242-12.3398438-1.8896484-25.7700195,4.6201172-36.8498535l69.0102463-117.4699707
		c7.3500977-12.5100098,20.9399414-20.2900391,35.449707-20.2900391h161.1601563
		c14.5097656,0,28.1000977,7.7700195,35.4501953,20.2900391l69.0097656,117.4699707
		C460.0502319,288.5097656,461.7299194,301.9399414,458.1600952,314.2797852z"/>
	<path class="st2" d="M412.4901733,314.2797852l-94.300293,325.4501953C313.539978,655.7900391,298.6102905,667,281.8900757,667
		h-72.4501953c-16.7197266,0-31.6396484-11.2099609-36.2998047-27.2700195L78.8397903,314.2797852
		c-3.5698242-12.3398438-1.8896484-25.7700195,4.6201172-36.8498535l69.0102463-117.4699707
		c7.3500977-12.5100098,20.9399414-20.2900391,35.449707-20.2900391h115.4902344
		c14.5200195,0,28.1000977,7.7700195,35.4501953,20.2900391l69.0195313,117.4699707
		C414.3798218,288.5097656,416.0702515,301.9399414,412.4901733,314.2797852z"/>
	<path class="st3" d="M497.1400757,307.3198242L485.039978,349.079834l-4.4697266,15.4299316l-77.7304688,268.2602539
		C401.2601929,638.2397461,396.249939,642,390.5599976,642H209.4398804c-5.6899414,0-10.699707-3.7602539-12.2797852-9.2299805
		l-75.8598557-261.8300781l-7.1704102-24.75l-11.2695313-38.8701172
		c-1.6801758-5.7900391-0.9003906-12.0200195,2.1499023-17.2199707l3.5795898-6.0900879l11.300293-19.2299805l54.1401291-92.1599121
		c2.8896484-4.9199219,8.1796875-7.9499512,13.8896484-7.9499512h224.1601563c5.7099609,0,11,3.0300293,13.8901367,7.9499512
		l49.2900391,83.9001465l10.5795898,18.0097656l9.1503906,15.5700684
		C498.039978,295.2998047,498.8202515,301.5297852,497.1400757,307.3198242z"/>
	<path class="st4" d="M497.1543579,307.3198242l-94.2998047,325.4501953
		c-0.0400391,0.1499023-0.090332,0.2998047-0.1499023,0.4399414c-0.0102539,0.0498047-0.0302734,0.0898438-0.050293,0.1401367
		c-0.0698242,0.2597656-0.1699219,0.5097656-0.2797852,0.75c-0.0400391,0.1098633-0.090332,0.2197266-0.1303711,0.3198242
		c-0.0795898,0.2001953-0.1796875,0.3901367-0.2797852,0.5800781c-0.2202148,0.4399414-0.4702148,0.8701172-0.75,1.2797852
		c-0.0898438,0.1601563-0.2099609,0.3203125-0.3300781,0.4799805c-0.2402344,0.3300781-0.5,0.6503906-0.7797852,0.9599609
		c-0.1103516,0.1303711-0.2202148,0.25-0.340332,0.3803711c-0.2299805,0.2397461-0.4799805,0.4697266-0.7299805,0.699707
		c-0.1899414,0.1699219-0.3999023,0.3500977-0.6098633,0.5C396.234436,641.0097656,393.4942017,642,390.5645142,642h-73.1098633
		c0.2695313-0.75,0.5195313-1.5,0.7397461-2.2700195l82.1298828-283.4301758l4.1699219-14.3798828l8.0102539-27.6401367
		c3.5800781-12.3398438,1.8798828-25.7700195-4.6201172-36.8498535L402.3442993,268l-8.3598633-14.2299805l-52.340332-89.1000977
		h70.4404297c5.7197266,0,11,3.0300293,13.8999023,7.9499512l49.2797852,83.9001465l10.5800781,18.0097656l9.1499023,15.5700684
		c0.3701172,0.6401367,0.7104492,1.2900391,1.0200195,1.9602051c0.5102539,1.1098633,0.9301758,2.25,1.2402344,3.4199219
		C498.3042603,299.329834,498.2842407,303.4199219,497.1543579,307.3198242z"/>
	<path class="st5" d="M102.8177643,307.3198242l94.300293,325.4501953C198.707901,638.2397461,203.707901,642,209.4080963,642
		h73.109848c-0.2700195-0.75-0.5200195-1.5-0.7397461-2.2700195l-94.3100433-325.4501953
		c-3.5800781-12.3398438-1.8798828-25.7700195,4.6201172-36.8498535l66.2397308-112.7600098h-70.4399261
		c-5.7202148,0-11,3.0300293-13.8999023,7.9499512l-69.0102539,117.4799805
		C101.9178619,295.2998047,101.1380768,301.5297852,102.8177643,307.3198242z"/>
	<path class="st6" d="M497.1400757,307.3198242L485.039978,349.079834l-4.4697266,15.4299316l-77.7304688,268.2602539
		C401.2601929,638.2397461,396.249939,642,390.5599976,642H209.4398804c-5.6899414,0-10.699707-3.7602539-12.2797852-9.2299805
		l-75.8598557-261.8300781l-7.1704102-24.75l4.3803711-0.3400879
		c76.1899338-5.8200684,118.6401291-28.5598145,159.6796875-50.5598145c3.7802734-2.0200195,7.5200195-4.0200195,11.2602539-6
		c2.3798828-1.2602539,4.6499023-2.4401855,6.8198242-3.5600586c7.7202148-3.9899902,14.25-7.1899414,20.5698242-10.0700684
		c24-10.9499512,57.9501953-23.5300293,107.8803711-23.619873h0.4301758c18.6098633,0,35.1499023,1.4697266,50.1098633,4.4799805
		l10.5795898,18.0097656l9.1503906,15.5700684C498.039978,295.2998047,498.8202515,301.5297852,497.1400757,307.3198242z"/>
	<path class="st7" d="M497.1400757,307.3198242l-16.5698242,57.1899414l-77.7304688,268.2602539
		C401.2601929,638.2397461,396.249939,642,390.5599976,642H209.4398804c-5.6899414,0-10.699707-3.7602539-12.2797852-9.2299805
		l-75.8598557-261.8300781l-1.6499023-10.1298828c86.5195236-6.6101074,132.0097656-34.5800781,176.8095703-58.2602539
		c8.800293-4.6499023,17.5703125-9.119873,26.6103516-13.25c28.1298828-12.829834,58.9697266-22.1799316,101.6796875-22.2597656
		c25.1000977-0.0302734,44.9702148,2.7998047,61.0898438,7.4897461l9.1503906,15.5700684
		C498.039978,295.2998047,498.8202515,301.5297852,497.1400757,307.3198242z"/>
	<path class="st8" d="M485.039978,349.079834l-4.4697266,15.4299316l-77.7304688,268.2602539
		C401.2601929,638.2397461,396.249939,642,390.5599976,642H209.4398804c-5.6899414,0-10.699707-3.7602539-12.2797852-9.2299805
		l-75.8598557-261.8300781l-7.1704102-24.75l-11.2695313-38.8701172
		c-1.6801758-5.7900391-0.9003906-12.0200195,2.1499023-17.2199707l3.5795898-6.0900879l11.300293-19.2299805
		c17.2700119-4.4099121,36.8198166-6.5898438,59.2499924-6.619873h0.5400391c36.8300781,0,68.0498047,6.3400879,101.25,20.5600586
		c4.8398438,2.0598145,9.909668,4.3798828,15.3398438,7.0100098c2.25,1.0800781,4.5600586,2.2299805,6.9399414,3.4299316
		c11.1298828,5.5900879,21.75,12.0500488,32.9902344,18.8898926
		c34.2099609,20.7900391,69.5800781,42.3000488,124.5898438,42.3000488c6.0200195,0,12.2602539-0.2600098,18.5302734-0.7897949
		L485.039978,349.079834z"/>
	<path class="st6" d="M480.5742798,364.5097656l-73.7900391,254.6601563l-3.9399414,13.6000977
		C401.2642212,638.2397461,396.2544556,642,390.5645142,642H209.444397c-5.6899414,0-10.7001953-3.7602539-12.2797852-9.2299805
		l-3.9404297-13.6000977l-71.9199295-248.2299805l-18.4399414-63.6201172
		c-1.6801758-5.7900391-0.8999023-12.0200195,2.1499023-17.2199707l3.5800781-6.0900879
		c17.6298828-6.6098633,40.2998123-10.8098145,70.5703201-10.8498535c39.7597656-0.0700684,69.25,7.9499512,95.8598633,19.3498535
		c7.3100586,3.1101074,14.3999023,6.4902344,21.4399414,10.0400391
		C344.4644165,326.6899414,389.8442993,372.079834,480.5742798,364.5097656z"/>
	<circle class="st7" cx="239.9243774" cy="563.9199219" r="21.333334"/>
	<circle class="st7" cx="287.5076904" cy="589.5866089" r="10.5"/>
	<path class="st7" d="M497.144104,307.3198242l-12.0996094,41.7600098l-4.4702148,15.4299316l-77.7299805,268.2602539
		c-0.0400391,0.1499023-0.0898438,0.2900391-0.1396484,0.4399414c-0.0102539,0.0498047-0.0302734,0.0898438-0.050293,0.1401367
		c-0.0800781,0.25-0.1699219,0.5097656-0.2797852,0.75c-0.0400391,0.1098633-0.090332,0.2197266-0.1303711,0.3198242
		c-0.0898438,0.2001953-0.1796875,0.3901367-0.2797852,0.5800781c-0.2202148,0.4399414-0.4702148,0.8701172-0.75,1.2797852
		c-0.1000977,0.1699219-0.2099609,0.3203125-0.3300781,0.4799805c-0.2402344,0.3300781-0.5,0.6503906-0.7797852,0.9599609
		c-0.1103516,0.1303711-0.2202148,0.25-0.340332,0.3803711c-0.2299805,0.2397461-0.4799805,0.4697266-0.7299805,0.699707
		c-0.1899414,0.1699219-0.3999023,0.3500977-0.6098633,0.5C396.234436,641.0097656,393.4942017,642,390.5645142,642h-73.1098633
		c0.2695313-0.75,0.5195313-1.5,0.7397461-2.2700195l82.1298828-283.4301758l4.1699219-14.3798828l8.0102539-27.6401367
		c3.5800781-12.3398438,1.8798828-25.7700195-4.6201172-36.8498535L402.3442993,268l-8.3598633-14.2299805
		c9.5097656-1.0800781,19.7397461-1.7099609,30.7397461-1.7299805h0.4301758
		c18.6098633,0,35.1499023,1.4697266,50.1098633,4.4799805l10.5800781,18.0097656l9.1499023,15.5700684
		c0.3701172,0.6401367,0.7104492,1.2900391,1.0200195,1.9602051c0.5102539,1.1098633,0.9199219,2.25,1.2402344,3.4199219
		C498.2944946,299.329834,498.2744751,303.4199219,497.144104,307.3198242z"/>
	<circle class="st7" cx="169.3606415" cy="368.8571167" r="32"/>
	<circle class="st7" cx="218.9759674" cy="315.5884094" r="16.333334"/>
	<path class="st9" d="M497.144104,307.3198242l-12.0996094,41.7600098l-4.4702148,15.4299316l-77.7299805,268.2602539
		c-0.0400391,0.1499023-0.0898438,0.2900391-0.1396484,0.4399414c-0.0102539,0.0498047-0.0302734,0.0898438-0.050293,0.1401367
		c-0.0800781,0.25-0.1699219,0.5097656-0.2797852,0.75c-0.0400391,0.1098633-0.090332,0.2197266-0.1303711,0.3198242
		c-0.0898438,0.2001953-0.1796875,0.3901367-0.2797852,0.5800781c-0.2202148,0.4399414-0.4702148,0.8701172-0.75,1.2797852
		c-0.1000977,0.1699219-0.2099609,0.3203125-0.3300781,0.4799805c-0.2402344,0.3300781-0.5,0.6503906-0.7797852,0.9599609
		c-0.1103516,0.1303711-0.2202148,0.25-0.340332,0.3803711c-0.2299805,0.2397461-0.4799805,0.4697266-0.7299805,0.699707
		c-0.1899414,0.1699219-0.3999023,0.3500977-0.6098633,0.5C396.234436,641.0097656,393.4942017,642,390.5645142,642h-73.1098633
		c0.2695313-0.75,0.5195313-1.5,0.7397461-2.2700195l82.1298828-283.4301758l4.1699219-14.3798828l8.0102539-27.6401367
		c3.5800781-12.3398438,1.8798828-25.7700195-4.6201172-36.8498535L402.3442993,268
		c7.1103516-0.6201172,14.5600586-0.9501953,22.4101563-0.9599609c25.1000977-0.0302734,44.9697266,2.7998047,61.0898438,7.4897461
		l9.1499023,15.5700684c0.3701172,0.6401367,0.7104492,1.2900391,1.0200195,1.9602051
		c0.5102539,1.1098633,0.9199219,2.25,1.2402344,3.4199219C498.2944946,299.329834,498.2744751,303.4199219,497.144104,307.3198242z
		"/>
	<path class="st6" d="M485.0444946,349.079834l-4.4702148,15.4299316l-77.7299805,268.2602539
		c-0.0400391,0.1499023-0.0898438,0.2900391-0.1396484,0.4399414c-0.0102539,0.0498047-0.0302734,0.0898438-0.050293,0.1401367
		c-0.0800781,0.25-0.1699219,0.5097656-0.2797852,0.75c-0.0400391,0.1098633-0.090332,0.2197266-0.1303711,0.3198242
		c-0.0898438,0.2001953-0.1796875,0.3901367-0.2797852,0.5800781c-0.2202148,0.4399414-0.4702148,0.8701172-0.75,1.2797852
		c-0.1000977,0.1699219-0.2099609,0.3203125-0.3300781,0.4799805c-0.2402344,0.3300781-0.5,0.6503906-0.7797852,0.9599609
		c-0.1103516,0.1303711-0.2202148,0.25-0.340332,0.3803711c-0.2299805,0.2397461-0.4799805,0.4697266-0.7299805,0.699707
		c-0.1899414,0.1699219-0.3999023,0.3500977-0.6098633,0.5C396.234436,641.0097656,393.4942017,642,390.5645142,642h-73.1098633
		c0.2695313-0.75,0.5195313-1.5,0.7397461-2.2700195l82.1298828-283.4301758l4.1699219-14.3798828
		c16.5302734,5.1799316,34.9399414,8.4299316,56.300293,8.4299316c6.0200195,0,12.2597656-0.2600098,18.5297852-0.7897949
		L485.0444946,349.079834z"/>
	<path class="st7" d="M480.5742798,364.5097656l-73.7900391,254.6601563l-3.9399414,13.6000977
		c-0.0400391,0.1499023-0.0898438,0.2900391-0.1396484,0.4399414c-0.0102539,0.0498047-0.0302734,0.0898438-0.050293,0.1401367
		c-0.0800781,0.25-0.1699219,0.5097656-0.2797852,0.75c-0.0400391,0.1098633-0.090332,0.2197266-0.1303711,0.3198242
		c-0.0898438,0.2001953-0.1796875,0.3901367-0.2797852,0.5800781c-0.2202148,0.4399414-0.4702148,0.8701172-0.75,1.2797852
		c-0.1000977,0.1699219-0.2099609,0.3203125-0.3300781,0.4799805c-0.2402344,0.3300781-0.5,0.6503906-0.7797852,0.9599609
		c-0.1103516,0.1303711-0.2202148,0.25-0.340332,0.3803711c-0.2299805,0.2397461-0.4799805,0.4697266-0.7299805,0.699707
		c-0.1899414,0.1699219-0.3999023,0.3500977-0.6098633,0.5C396.234436,641.0097656,393.4942017,642,390.5645142,642h-73.1098633
		c0.2695313-0.75,0.5195313-1.5,0.7397461-2.2700195l5.9599609-20.5600586l76.1699219-262.8701172
		C422.9243774,363.369873,449.0044556,367.1398926,480.5742798,364.5097656z"/>
	<g>
		<polygon class="st10" points="383.8324585,139.6744843 352.1525269,139.7443085 301.8324585,139.8544159 292.3724976,139.8744354 
			200.7025757,140.0245819 200.75914,110.3925781 388.772522,110.4038162 		"/>
		<path class="st11" d="M381.772522,110.5494461l0.0599365,29.4036179l-9.6799316,0.0703125l-63.3200684,0.1108704
			c-3.0983276,0-5.4699707-4.0982819-5.4799805-8.3475037l-0.0300293-13.0252075
			c-0.0100098-4.6720505,2.8500977-8.3611145,6.3901367-8.3611145c0,0,53.931427-0.007843,54.0599365-0.007843
			C363.772522,110.4566422,381.772522,110.5494461,381.772522,110.5494461z"/>
		<path class="st12" d="M398.8324585,139.964325l-44.6799316,0.0698242c-2.960083,0-5.1000977-4.1398926-5.1099854-8.1599121
			l-0.0300293-13.0700684c0-4.4697266,2.6382751-8.399826,6.0599365-8.399826
			c0.1105652,0,43.7000732-0.0100861,43.7000732-0.0100861L398.8324585,139.964325z"/>
	</g>
	<g>
		<path class="st10" d="M387.8657532,15.7287188V37.388752c0,4.5799561-4.5,8.3299561-10,8.3299561h-155.339859
			c-5.5,0-10-3.75-10-8.3299561V15.7287188c0-4.5899658,4.5-8.3399658,10-8.3399658h155.339859
			C383.3657532,7.3887529,387.8657532,11.1387529,387.8657532,15.7287188z"/>
		<path class="st12" d="M387.8657532,15.7287188V37.388752c0,4.5799561-4.5,8.3299561-10,8.3299561h-37.1316223
			c-5.5,0-10-3.75-10-8.3299561V15.7287188c0-4.5899658,4.5-8.3399658,10-8.3399658h37.1316223
			C383.3657532,7.3887529,387.8657532,11.1387529,387.8657532,15.7287188z"/>
		<path class="st11" d="M355.8674927,15.7254667v21.6599121c0,4.5800781-4.5,8.3300781-10,8.3300781h-44.8400879
			c5.5,0,10-3.75,10-8.3300781V15.7254667c0-4.5900879-4.5-8.3400879-10-8.3400879h44.8400879
			C351.3674927,7.3853793,355.8674927,11.1353788,355.8674927,15.7254667z"/>
		<path class="st2" d="M425.1575317,94.2903061c0.0100098,4.2998047-1.6601563,8.3498535-4.6901855,11.3898926
			c-3.0297852,3.0400391-7.0698242,4.7199707-11.369873,4.7299805H178.907547c-2.9699707,0-5.5300293-0.7700195-7.6101074-2.1398926
			c-1.4399414-0.9399414-2.6499023-2.1601563-3.6098633-3.6101074c-1.8000488-2.6799316-2.75-6.119873-2.7602539-9.9299316
			l-0.079834-51.6999512c-0.0100098-4.1799316,1.5600586-8.1101074,4.4399414-11.1101093
			c0.0800781-0.0898438,0.1599121-0.1799316,0.25-0.2700195c0.130127-0.1298828,0.2600098-0.2600098,0.4001465-0.3798828
			l0.1799316-0.1801758c2.9499512-2.7299805,6.75-4.5097656,10.7800293-4.5200195h228.8398285
			c8.6000977,0.380127,15.3200684,7.4201679,15.3300781,16.0200214L425.1575317,94.2903061z"/>
		<path class="st0" d="M435.1525269,94.2944565c0.0100098,4.2998047-1.6600342,8.3498535-4.6899414,11.3898926
			c-3.0300293,3.0400391-7.0700684,4.7199707-11.3701172,4.7299805H313.6725464
			c0.3100586,0,0.6199951-0.0100098,0.9299316-0.0300293h0.0400391c0.3100586-0.0200195,0.6099854-0.0400391,0.9099121-0.0898438
			c0.0100098,0.0097656,0.0300293,0.0097656,0.0400391,0c3.5700684-0.4301758,6.880127-2.0302734,9.4500732-4.6101074
			c3.0299072-3.0400391,4.6999512-7.0900879,4.6900635-11.3898926l-0.0100098-8.5700684V85.64431l-0.0600586-33.8801231v-0.0898438
			l-0.0100098-9.0800781c-0.0100098-8.6000977-6.7399902-15.6398926-15.3400879-16.0200195h105.420166
			c8.5998535,0.380127,15.329834,7.4199219,15.3398438,16.0200195L435.1525269,94.2944565z"/>
		<path class="st1" d="M370.6911011,94.2901993c0.0100098,4.2999268-1.6599121,8.3498535-4.6899414,11.3898926
			s-7.0698242,4.7199707-11.369873,4.7299805h-44.4221191c4.3000488-0.0100098,8.3400879-1.6899414,11.3701172-4.7299805
			s4.619873-7.0899658,4.6098633-11.3898926V42.590126c-0.0097656-8.5999756-6.7397461-15.6400146-15.3398438-16.0200195h44.421875
			c8.6000977,0.3800049,15.3300781,7.4200439,15.3400879,16.0200195L370.6911011,94.2901993z"/>
		<path class="st3" d="M400.1773071,78.8200912c0,3.6901855-2.9799805,6.6901855-6.6799316,6.7001953l-67.3000488,0.1298828
			l-21.4499512,0.0300293h-2.8498535l-105.3600922,0.170166c-3.6999512,0.0097656-6.6899414-2.9802246-6.6999512-6.6801758
			l-0.0300293-20.5898438c-0.0100098-3.6901855,2.9799805-6.6901855,6.6699219-6.7001953l93.4699554-0.1499023l14.8000488-0.0200195
			l21.4499512-0.0300293l67.25-0.130127c2.5800781-0.0097656,4.8200684,1.4501953,5.9301758,3.5900879
			c0.0998535,0.1799316,0.1899414,0.3701172,0.2700195,0.5700684c0.079834,0.1699219,0.1398926,0.3398438,0.1999512,0.5300293
			c0.1899414,0.6298828,0.3000488,1.3000488,0.3000488,1.9899902L400.1773071,78.8200912z"/>
		<path class="st4" d="M400.1773071,78.8200912c0,3.6901855-2.9799805,6.6901855-6.6799316,6.7001953l-67.3063965,0.1298828
			l-0.0029297-33.9699707l67.2592773-0.130127c2.5800781-0.0097656,4.8200684,1.4501953,5.9301758,3.5900879
			c0.0998535,0.1799316,0.1899414,0.3701172,0.2700195,0.5700684c0.079834,0.1699219,0.1398926,0.3398438,0.1999512,0.5300293
			c0.1899414,0.6298828,0.3000488,1.3000488,0.3000488,1.9899902L400.1773071,78.8200912z"/>
	</g>
	<path class="st7" d="M406.7842407,619.1699219l-3.9399414,13.6000977C401.2642212,638.2397461,396.2544556,642,390.5645142,642
		H209.444397c-5.6899414,0-10.7001953-3.7602539-12.2797852-9.2299805l-3.9404297-13.6000977H406.7842407z"/>
	<path class="st9" d="M406.7842407,619.1699219l-3.9399414,13.6000977
		c-0.0400391,0.1499023-0.0898438,0.2900391-0.1396484,0.4399414c-0.0102539,0.0498047-0.0302734,0.0898438-0.050293,0.1401367
		c-0.0800781,0.25-0.1699219,0.5097656-0.2797852,0.75c-0.0400391,0.1098633-0.090332,0.2197266-0.1303711,0.3198242
		c-0.0898438,0.2001953-0.1796875,0.3901367-0.2797852,0.5800781c-0.2202148,0.4399414-0.4702148,0.8701172-0.75,1.2797852
		c-0.1000977,0.1699219-0.2099609,0.3203125-0.3300781,0.4799805c-0.2402344,0.3300781-0.5,0.6503906-0.7797852,0.9599609
		c-0.1103516,0.1303711-0.2202148,0.25-0.340332,0.3803711c-0.2299805,0.2397461-0.4799805,0.4697266-0.7299805,0.699707
		c-0.1899414,0.1699219-0.3999023,0.3500977-0.6098633,0.5C396.234436,641.0097656,393.4942017,642,390.5645142,642h-73.1098633
		c0.2695313-0.75,0.5195313-1.5,0.7397461-2.2700195l5.9599609-20.5600586H406.7842407z"/>
	<path class="st13" d="M148.5829926,302.4257202h0.0000305c7.7884827-2.2453308,15.9225006,2.248291,18.1678314,10.0367737
		l55.0770416,191.0480347c2.2453461,7.7884827-2.2482758,15.9225159-10.0367584,18.1678162l-0.0000305,0.000061
		c-7.7884827,2.2453003-15.9225006-2.248291-18.1678467-10.0367737l-55.0770416-191.0480652
		C136.3008881,312.8050842,140.7945099,304.671051,148.5829926,302.4257202z"/>
	<path class="st13" d="M234.0245361,545.8790283l10.5804749,36.6889648
		c2.2413025,7.7845459-2.2500763,15.9163208-10.043808,18.161499c-7.2010803,2.0797119-14.7005615-1.6161499-17.5664063-8.3410034
		c-0.1097412-0.2575073-0.2103119-0.519043-0.3016815-0.7844849l-0.019577-0.0458984l-10.6237183-36.866394
		c-2.2449951-7.7938843,2.2463837-15.9255981,10.0401306-18.1708374
		C223.6419678,534.3461304,231.5251312,538.5089111,234.0245361,545.8790283z"/>
	<circle class="st7" cx="334.7576904" cy="405.7532654" r="32"/>
	<circle class="st7" cx="363.4243774" cy="475.7532654" r="21.333334"/>
	<circle class="st7" cx="315.7576904" cy="514.0866089" r="12.666667"/>
</g>
</svg>
