<?xml version="1.0" encoding="utf-8"?>
<!-- Generator: Adobe Illustrator 22.1.0, SVG Export Plug-In . SVG Version: 6.00 Build 0)  -->
<svg version="1.1" id="Layer_1" xmlns="http://www.w3.org/2000/svg" xmlns:xlink="http://www.w3.org/1999/xlink" x="0px" y="0px"
	 viewBox="0 0 600 633" style="enable-background:new 0 0 600 633;" xml:space="preserve">
<style type="text/css">
	.st0{fill:#F3F7DE;}
	.st1{fill:#9ED3D7;}
	.st2{fill:#AADCD9;}
	.st3{fill:#FFDD9D;}
	.st4{fill:#FFC98F;}
	.st5{fill:#DDEEDB;}
	.st6{opacity:0.3;}
	.st7{fill:#C4E5DC;}
	.st8{fill:#F487AE;}
	.st9{fill:#EA6E95;}
	.st10{fill:#ED759D;}
	.st11{fill:#DD5E8E;}
	.st12{fill:#FF99C3;}
	.st13{fill:#FFBDDB;}
</style>
<g>
	<rect x="231.6710663" y="123.5" class="st0" width="136.6699829" height="97.3300781"/>
	<path class="st0" d="M563.2600098,327.7900391c0,44.0400391-18.6799927,86.2998047-51.25,115.9599609l-0.3099976,0.2700195
		c0,0-114.0999756,114.1000977-145.8699951,145.8598633c-3,3-0.8699951,8.1201172,3.3699951,8.1201172h3.75
		c8.3200073,0,15.0599976,6.7397461,15.0599976,15.0600586v14.3398438c0,3.0898438-2.5,5.6000977-5.5999756,5.6000977H217.6199951
		c-3.0999756,0-5.6099854-2.5102539-5.6099854-5.6000977v-14.3300781c0-8.3198242,6.75-15.0698242,15.0700073-15.0698242h3.9699707
		c4.1500244,0,6.2300415-5.0102539,3.3000488-7.9399414C202.8300171,558.5498047,88.2999878,444.0200195,88.2999878,444.0200195
		L87.9899902,443.75c-32.5699463-29.6601563-51.25-71.9199219-51.25-115.9599609
		C36.7399902,241.3398438,107.0800171,171,193.5499878,171c12.9500122,0,25.7200317,1.5898438,38.0599976,4.6601563
		c0.0200195,0.0097656,0.0400391,0.0097656,0.0600586,0.0195313c10.3199463,2.5800781,20.3499756,6.2099609,29.9199829,10.8300781
		c13.6599731,6.590332,26.3900146,15.1801758,37.7999878,25.6298828c0.1500244,0.1303711,0.289978,0.2705078,0.4400024,0.4003906
		L300,212.699707l0.1900024-0.1796875c19.4800415-17.9799805,42.9000244-30.5400391,68.1500244-36.840332
		C380.6900024,172.5898438,393.4800415,171,406.4500122,171C492.9200439,171,563.2600098,241.3398438,563.2600098,327.7900391z"/>
	<path class="st1" d="M538.25,327.7911377c0,4.5600586-0.2399902,9.1000977-0.7099609,13.6000977
		c-0.6700439,6.4296875-1.8099976,12.7797852-3.4100342,19c-0.2600098,1.0297852-0.539978,2.0498047-0.8200073,3.0698242
		c-1.1300049,4.0102539-2.4400024,7.9599609-3.9400024,11.8300781c-4.25,11-9.9699707,21.4199219-17.0199585,30.9399414
		c-4.6300049,6.2700195-9.8400269,12.1499023-15.5800171,17.550293c-0.5300293,0.5-1.0599976,0.9897461-1.5999756,1.4794922
		l-0.6600342,0.590332L340.8699951,579.491333C330,590.3609619,315.5499878,596.3511963,300.1700439,596.3511963h-0.3500366
		c-15.3800049,0-29.8399658-5.9902344-40.710022-16.8598633L118.4800415,438.8609619l-13.0100098-13.0097656l-0.6600342-0.590332
		c-3.8200073-3.4697266-7.3999634-7.1499023-10.75-11.0097656c-11.3399658-13.0600586-19.9500122-28.1899414-25.4299927-44.4399414
		c-1.3800049-4.1201172-2.5700073-8.300293-3.5499878-12.550293c-0.1799927-0.7895508-0.3499756-1.5795898-0.5200195-2.3696289
		c-0.4799805-2.2602539-0.8899536-4.5400391-1.25-6.840332c-1.0499878-6.659668-1.5799561-13.4399414-1.5799561-20.2597656
		c0-11.7402344,1.539978-23.1201172,4.4299927-33.9501953c1.9099731-7.1396484,4.3999634-14.0400391,7.4199829-20.6499023
		c20.7999878-45.5,66.75-77.1899414,119.960022-77.1899414c15.2699585,0,30.2299805,2.6201172,44.2999878,7.6499023
		c0.9899902-8.8198242,9.8900146-15.7099609,20.7199707-15.7099609c1.0400391,0,2.0700073,0.0600586,3.0700073,0.1899414
		v-64.6298828h76.6699829v64.6298828c1.0100098-0.1298828,2.0400391-0.1899414,3.0900269-0.1899414
		c10.8300171,0,19.7299805,6.8999023,20.7199707,15.7202148c14.0800171-5.0302734,29.0500488-7.6601563,44.3300171-7.6601563
		c49.5300293,0,92.7700195,27.4501953,115.2900391,67.9399414v0.0102539
		c3.6900024,6.6298828,6.8199463,13.6098633,9.3299561,20.8696289C535.7200317,298.2911377,538.25,312.7510986,538.25,327.7911377z"
		/>
	<path class="st1" d="M538.2610474,327.7900391c0,4.5600586-0.2399902,9.0996094-0.710022,13.5996094
		c-0.6699829,6.4301758-1.8099976,12.7802734-3.4099731,19c-0.2600098,1.0302734-0.539978,2.050293-0.8200073,3.0703125
		c-1.1300049,4.0097656-2.4400024,7.9599609-3.9400024,11.8300781c-4.25,11-9.9699707,21.4199219-17.0200195,30.9399414
		c-4.6299438,6.2700195-9.8399658,12.1499023-15.5799561,17.5498047c-0.5300293,0.5-1.0599976,0.9902344-1.6000366,1.4799805
		l-0.6599731,0.590332L340.8810425,579.4897461c-10.8699951,10.8701172-25.3200073,16.8603516-40.7000122,16.8603516h-0.3499756
		c-15.3800049,0-29.8400269-5.9902344-40.710022-16.8603516L118.4910126,438.8598633l-13.0099487-13.0097656l-0.6600342-0.590332
		c-3.8200073-3.4697266-7.3999634-7.1499023-10.75-11.0097656c-11.3399658-13.0600586-19.9500122-28.1899414-25.4299927-44.4399414
		c-1.3800049-4.1201172-2.5700073-8.300293-3.5499878-12.550293c-0.1799927-0.7900391-0.3500366-1.5800781-0.5200195-2.3701172
		c-0.4799805-2.2597656-0.8900108-4.5395508-1.2499962-6.8398438c-1.0499878-6.6601563-1.5800171-13.4399414-1.5800171-20.2597656
		c0-11.7402344,1.5400391-23.1201172,4.4300499-33.9501953c1.9099731-7.1401367,4.3999634-14.0400391,7.4199829-20.6499023
		C94.391037,227.6899414,140.3410492,196,193.5510101,196c33.2000122,0,64.930069,12.3999023,89.3200226,34.9101563
		l17.1300049,15.7797852l17.1300049-15.7797852C341.5210571,208.3999023,373.2510376,196,406.4510498,196
		c49.5300293,0,92.7700195,27.449707,115.289978,67.9399414v0.0097656
		c3.6900024,6.6303711,6.8200073,13.6103516,9.3300171,20.8701172
		C535.7310791,298.2900391,538.2610474,312.75,538.2610474,327.7900391z"/>
	<path class="st2" d="M299.8311157,581.3496094c-11.3730469,0-22.0639648-4.4277344-30.1040039-12.4667969l-153.9375153-153.9375
		l-0.9208984-0.8232422c-24.2324219-22.0888672-38.1274414-53.5507813-38.1274414-86.3320313
		C76.7412567,263.3916016,129.1416473,211,193.550827,211c29.4248047,0,57.5332031,10.9853516,79.1469879,30.9335938
		l27.3032227,25.1503906l27.2924805-25.1416016C348.9180298,221.9853516,377.0264282,211,406.4512329,211
		c64.4091797,0,116.8095703,52.3916016,116.8095703,116.7900391c0,32.78125-13.8950195,64.2431641-38.1274414,86.3320313
		l-0.9208984,0.8232422L330.2744751,568.8837891c-8.0395508,8.0380859-18.7304688,12.4658203-30.1035156,12.4658203H299.8311157z"/>
	<path class="st2" d="M299.8154907,581.3496094c-11.3730469,0-22.0639648-4.4277344-30.1040039-12.4667969l-153.9375153-153.9375
		l-0.9208984-0.8232422c-24.2324219-22.0888672-38.1274414-53.5507813-38.1274414-86.3320313
		C76.7256317,263.3916016,129.1260223,211,193.535202,211c29.4248047,0,57.5332031,10.9853516,79.1469879,30.9335938
		l27.3032227,25.1503906l27.2924805-25.1416016C348.9024048,221.9853516,377.0108032,211,406.4356079,211
		c64.4091797,0,116.8095703,52.3916016,116.8095703,116.7900391c0,32.78125-13.8950195,64.2431641-38.1274414,86.3320313
		l-0.9208984,0.8232422L330.2588501,568.8837891c-8.0395508,8.0380859-18.7304688,12.4658203-30.1035156,12.4658203H299.8154907z"/>
	<g>
		<path class="st3" d="M370.9560242,38.4603081l-8.5455627,47.43507c0.0101318,6.2599564-1.9692993,11.9230042-5.1516418,15.9406967
			c-3.4651794,3.7003403-8.3917236,6.0264206-13.8279724,6.0352173l-86.6979675,0.1403198
			c-10.4606476,0.0169296-19.0289917-8.5237198-19.0459137-18.984436l-8.54953-52.057827
			c-1.1970062-7.2885265,1.7492065-14.7689648,7.8588409-18.9196129c3.0327454-2.0603313,6.6855469-3.2692575,10.6083679-3.2756062
			l104.6525879-0.1693802c2.7180176-0.0043993,5.3105164,0.5708704,7.6581421,1.6083508
			c4.5844421,2.0260029,7.9753418,6.0146217,9.7134399,10.7157955c0.7562866,2.0455894,1.2792969,4.2687588,1.5230713,6.6080151
			C371.322876,35.1776695,371.2485046,36.8367996,370.9560242,38.4603081z"/>
		<path class="st4" d="M370.9650269,38.4103889l-8.5545654,47.4849892
			c0.0101318,6.2599564-1.9692993,11.9230042-5.1516418,15.9406967c-3.112793,3.3232193-7.3923645,5.5305405-12.1690369,5.9501572
			c-0.5411987,0.0596924-1.0941467,0.0841446-1.6589355,0.0850601l-23.3453979,0.0377884
			c9.0604553-0.0146637,16.45755-9.91082,16.4380188-21.9718018l8.8973999-49.3880463
			c-0.0195313-12.0609856-7.4485779-21.9213638-16.5090332-21.9066982l23.3453979-0.0377846
			c2.7180176-0.0043993,5.3105164,0.5708733,7.6581421,1.6083622c4.5846558,2.0260963,7.9756165,6.0149784,9.7136536,10.716383
			c0.8262634,2.2349739,1.3740234,4.6819172,1.5834045,7.2606335
			C371.3268738,35.5997162,371.2157593,37.0185661,370.9650269,38.4103889z"/>
		<circle class="st4" cx="283.0300598" cy="72.69664" r="12.5222359"/>
		<circle class="st4" cx="283.2955322" cy="30.9827938" r="7.0075769"/>
		<circle class="st4" cx="256.0254822" cy="45.0504379" r="13.7104769"/>
		<circle class="st4" cx="325.5528259" cy="45.0504379" r="9.2723751"/>
	</g>
	<path class="st0" d="M394.1734314,85.1668625v30.1599731c0,6.4200439-5.25,11.6700439-11.6699829,11.6700439H217.843399
		c-6.4199829,0-11.6699829-5.25-11.6699829-11.6700439V85.1668625c0-6.4199829,5.25-11.6699829,11.6699829-11.6699829h164.6600494
		C388.9234314,73.4968796,394.1734314,78.7468796,394.1734314,85.1668625z"/>
	<path class="st5" d="M394.1734314,85.1668625v30.1599731c0,6.4200439-5.25,11.6700439-11.6699829,11.6700439h-72.3200073
		c-6.4199829,0-11.6799927-5.25-11.6799927-11.6700439V85.1668625c0-6.4199829,5.2600098-11.6699829,11.6799927-11.6699829
		h72.3200073C388.9234314,73.4968796,394.1734314,78.7468796,394.1734314,85.1668625z"/>
	<rect x="231.6710663" y="127" class="st6" width="136.6699829" height="34.5297852"/>
	<circle class="st0" cx="355.6885376" cy="187.5377197" r="17.3509502"/>
	<path class="st0" d="M261.6210327,187.5400391c0,9.5898438-7.7699738,17.3598633-17.3600006,17.3598633
		c-4.960022,0-9.4299927-2.0800781-12.5899658-5.4101563c-2.960022-3.1196289-4.7700195-7.3198242-4.7700195-11.949707
		c0-4.6000977,1.789978-8.7802734,4.7099609-11.8798828c0.0200195,0.0097656,0.0400391,0.0097656,0.0600586,0.0195313v-0.0795898
		c3.1599731-3.3300781,7.6299438-5.4101563,12.5899658-5.4101563c9.2399902,0,16.7899933,7.2202148,17.3300323,16.3198242
		C261.6110229,186.8500977,261.6210327,187.1899414,261.6210327,187.5400391z"/>
	<path class="st7" d="M450.0010376,341.4799805c0,17.4301758-7.3900146,34.1699219-20.2799683,45.9199219l-0.4899902,0.4399414
		l-113.210022,113.2099609c-4.2800293,4.2700195-9.960022,6.6298828-16.0100098,6.6298828h-0.1799927
		c-6.0499878,0-11.7399902-2.3598633-16.0200195-6.6298828L201.7610321,419l-12.5800171-12.5800781l-18.3999634-18.3999023
		l-0.4899902-0.4399414c-12.8900146-11.75-20.2800293-28.4902344-20.2800293-45.9301758
		c0-5.1499023,0.6300049-10.1601563,1.8200073-14.9501953c6.710022-27.0600586,31.210022-47.1699219,60.3099976-47.1699219
		c15.6599731,0,30.6099854,5.840332,42.1099854,16.4501953L299.9210815,340.5l45.8399658-44.6899414
		c11.5-10.6201172,26.4500122-16.4599609,42.1099854-16.4599609c27.1100464,0,50.2200317,17.449707,58.6799927,41.7099609
		c1.6700439,4.7797852,2.7700195,9.8100586,3.2200317,15.0400391
		C449.9210815,337.8701172,450.0010376,339.6699219,450.0010376,341.4799805z"/>
	<path class="st7" d="M450.0410767,341.4799805c0,17.4301758-7.3900146,34.1699219-20.2800293,45.9199219l-0.4899902,0.4399414
		l-113.210022,113.2099609c-4.2799683,4.2700195-9.9599609,6.6298828-16.0100098,6.6298828h-0.1799927
		c-6.0499878,0-11.7399902-2.3598633-16.0199585-6.6298828l-82.0600128-82.0600586
		c41.0999756-9.5698242,70.8399811-24.5795898,98.4099884-39.2099609
		c5.7299805-3.0400391,11.3599854-6.0600586,16.9799805-9.0200195
		c35.5500488-18.6699219,70.6600342-34.6201172,126.1700439-34.7197266c2.1900024,0,4.3499756,0.0200195,6.4599609,0.0600586
		C449.9610596,337.8701172,450.0410767,339.6699219,450.0410767,341.4799805z"/>
	<path class="st8" d="M537.5510254,341.3896484c-0.6699829,6.4301758-1.8099976,12.7802734-3.4099731,19
		c-0.2600098,1.0302734-0.539978,2.050293-0.8200073,3.0703125c-1.1300049,4.0097656-2.4400024,7.9599609-3.9400024,11.8300781
		c-4.25,11-9.9699707,21.4199219-17.0200195,30.9399414c-4.6299438,6.2700195-9.8399658,12.1499023-15.5799561,17.5498047
		c-0.5300293,0.5-1.0599976,0.9902344-1.6000366,1.4799805l-0.6599731,0.590332L340.8810425,579.4897461
		c-10.8699951,10.8701172-25.3200073,16.8603516-40.7000122,16.8603516h-0.3499756
		c-15.3800049,0-29.8400269-5.9902344-40.710022-16.8603516L118.4910126,438.8598633l-13.0099487-13.0097656l-0.6600342-0.590332
		c-3.8200073-3.4697266-7.3999634-7.1499023-10.75-11.0097656l14.5900269-0.1103516
		c88.9499512-0.699707,136.1799927-21.9697266,184.4900055-47.6098633c2.2099609-1.1699219,4.3999634-2.3398438,6.5800171-3.5
		c3.5-1.8598633,6.9699707-3.7099609,10.4400024-5.5400391c36.4699707-19.1499023,74.0799561-36.3398438,133.1399536-36.449707
		h0.5400391C482.4810791,321.0400391,513.2110596,327.7099609,537.5510254,341.3896484z"/>
	<path class="st9" d="M108.774765,429.1396484l150.3500519,150.3500977
		c10.8699951,10.8701172,25.3300171,16.8603516,40.7099609,16.8603516h0.3400269
		c15.3800049,0,29.8400269-5.9902344,40.710022-16.8603516l140.6300049-140.6298828l13.0099487-13.0097656l0.6600342-0.590332
		c16.7199707-15.2197266,29.0800171-34.3896484,36.1799927-55.449707c1.3800049-4.1201172,2.5700073-8.300293,3.5499878-12.550293
		c-19.5800171-12.3300781-47.3200073-21.2900391-91.5800171-21.2197266
		c-55.5099487,0.0996094-90.6199951,16.0498047-126.1699829,34.7197266c-5.6199951,2.9599609-11.25,5.9799805-16.9799805,9.0200195
		C255.3148041,403.5898438,204.7048187,428.3896484,108.774765,429.1396484z"/>
	<path class="st10" d="M537.5510254,341.3896484c-0.6699829,6.4301758-1.8099976,12.7802734-3.4099731,19
		c-0.2600098,1.0302734-0.539978,2.050293-0.8200073,3.0703125c-1.1300049,4.0097656-2.4400024,7.9599609-3.9400024,11.8300781
		c-4.25,11-9.9699707,21.4199219-17.0200195,30.9399414c-4.6299438,6.2700195-9.8399658,12.1499023-15.5799561,17.5498047
		c-0.5300293,0.5-1.0599976,0.9902344-1.6000366,1.4799805l-0.6599731,0.590332L340.8810425,579.4897461
		c-10.8699951,10.8701172-25.3200073,16.8603516-40.7000122,16.8603516h-0.3499756
		c-15.3800049,0-29.8400269-5.9902344-40.710022-16.8603516L118.4910126,438.8598633l-13.0099487-13.0097656l-0.6600342-0.590332
		c-3.8200073-3.4697266-7.3999634-7.1499023-10.75-11.0097656l14.5900269-0.1103516
		c2.0599976-0.0195313,4.0999756-0.0395508,6.1199951-0.0898438c0.0199585,0.0302734,0.0499878,0.050293,0.0700073,0.0703125
		l0.9199829,0.8295898l13.6400146,13.6401367c82.7799683-3.8798828,129.2299957-26.7700195,170.7699738-48.8100586
		c5.7300415-3.0400391,11.3600464-6.0600586,16.9800415-9.0200195
		c35.5499878-18.6699219,70.6599731-34.6201172,126.1699829-34.7197266
		c34.7799683-0.0600586,59.3599854,5.4697266,77.789978,13.8198242c0.9899902-5.0898438,1.6400146-10.2597656,1.9299927-15.4799805
		C528.1210327,336.4697266,532.9510498,338.7998047,537.5510254,341.3896484z"/>
	<path class="st11" d="M534.9110718,357.2597656c-0.9800415,4.25-2.1700439,8.4301758-3.5500488,12.550293
		c-7.0999756,21.0600586-19.4599609,40.2299805-36.1799927,55.449707l-0.6599731,0.590332L340.8810425,579.4897461
		c-10.8699951,10.8701172-25.3300171,16.8603516-40.7099609,16.8603516h-0.3400269
		c-15.3800049,0-29.8400269-5.9902344-40.710022-16.8603516L108.7710419,429.1396484
		c7.1199951-0.0498047,14-0.2397461,20.6400146-0.5498047l140.3000031,140.2900391
		c8.039978,8.0400391,18.7299805,12.4702148,30.0999756,12.4702148h0.3400269
		c11.3800049,0,22.0700073-4.4301758,30.1099854-12.4702148L484.2010498,414.949707l0.9199829-0.8295898
		c18.7200317-17.0703125,31.2700195-39.7202148,36-64.2602539
		C526.151062,352.1298828,530.7210693,354.6201172,534.9110718,357.2597656z"/>
	<path class="st12" d="M450.0010376,341.4799805c0,17.4301758-7.3900146,34.1699219-20.2799683,45.9199219l-0.4899902,0.4399414
		l-113.210022,113.2099609c-4.2800293,4.2700195-9.960022,6.6298828-16.0100098,6.6298828h-0.1799927
		c-6.0499878,0-11.7399902-2.3598633-16.0200195-6.6298828L201.7610321,419l-12.5800171-12.5800781
		c0.0100098-0.0097656,0.0200195-0.0097656,0.0300293-0.0097656c41.9199829-8.5400391,72.719986-23.300293,103.9600372-39.8803711
		c2.2099609-1.1699219,4.3999634-2.3398438,6.5799561-3.5c3.5-1.8598633,6.9700317-3.7099609,10.4400024-5.5400391
		c36.4700317-19.1499023,74.0800171-36.3398438,133.1400146-36.449707h0.539978c0.9000244,0,1.7900391,0,2.6799927,0.0200195
		c1.6700439,4.7797852,2.7700195,9.8100586,3.2200317,15.0400391
		C449.9210815,337.8701172,450.0010376,339.6699219,450.0010376,341.4799805z"/>
	<path class="st8" d="M449.7710571,336.1000977c0.1500244,1.7700195,0.2299805,3.5698242,0.2299805,5.3798828
		c0,17.4301758-7.3900146,34.1699219-20.2799683,45.9199219l-0.4899902,0.4399414l-113.210022,113.2099609
		c-4.2800293,4.2700195-9.960022,6.6298828-16.0100098,6.6298828h-0.1799927
		c-6.0499878,0-11.7399902-2.3598633-16.0200195-6.6298828L201.7610321,419
		c0.0100098-0.0102539,0.0200195-0.0102539,0.0300293-0.0102539c41.0999756-9.5698242,70.8399811-24.5795898,98.4099884-39.2099609
		c5.7299805-3.0400391,11.3599854-6.0600586,16.9799805-9.0200195
		c35.5500488-18.6699219,70.6600342-34.6201172,126.1700439-34.7197266
		C445.5310669,336.0400391,447.6710815,336.0600586,449.7710571,336.1000977z"/>
	<path class="st12" d="M512.3610229,406.2299805c-4.6299438,6.2700195-9.8399658,12.1499023-15.5799561,17.5498047
		c-0.5300293,0.5-1.0599976,0.9902344-1.6000366,1.4799805l-0.6599731,0.590332L340.8810425,579.4897461
		c-10.8699951,10.8701172-25.3200073,16.8603516-40.7000122,16.8603516h-0.3499756
		c-15.3800049,0-29.8400269-5.9902344-40.710022-16.8603516L118.4910126,438.8598633l-13.0099487-13.0097656l-0.6600342-0.590332
		c-16.7199707-15.2197266-29.0800171-34.3896484-36.1799927-55.449707c-1.3800049-4.1201172-2.5700073-8.300293-3.5499878-12.550293
		c-0.1799927-0.7900391-0.3500366-1.5800781-0.5200195-2.3701172c-0.4799805-2.2597656-0.8900108-4.5395508-1.2499962-6.8398438
		c25.7399864-14.4199219,58.2700157-21.4599609,99.25-21.5400391h0.5300293c63.1099854,0,102.5899811,18.1201172,144.0799713,40
		l4.0200195,2.1201172c36.7000122,19.3901367,92.1699829,48.6899414,143.4500122,48.6899414
		C487.6260376,417.3198242,495.1610718,410.699707,512.3610229,406.2299805z"/>
	<path class="st8" d="M66.6847992,363.4599609c1.1300049,4.0097656,2.4400024,7.9599609,3.9400024,11.8300781
		c7.3099976,18.8999023,18.9400024,36.0800781,34.2000122,49.9697266l0.6599731,0.590332l153.6400299,153.6396484
		c10.8699951,10.8701172,25.3300171,16.8603516,40.7099609,16.8603516h0.3400269
		c15.3800049,0,29.8400269-5.9902344,40.710022-16.8603516l153.3543701-153.3198242
		c-66.75,22.5-148.0744019-22.1499023-194.0543823-46.3901367c-38.960022-20.5498047-76.9000397-38.3696289-137.5900421-38.2700195
		C116.7048187,341.5898438,87.4548187,350.7299805,66.6847992,363.4599609z"/>
	<path class="st8" d="M494.1810303,426.1899414l-12.6699829,12.6699219L340.8810425,579.4897461
		c-10.8699951,10.8701172-25.3300171,16.8603516-40.7099609,16.8603516h-0.3400269
		c-15.3800049,0-29.8400269-5.9902344-40.710022-16.8603516L108.7710419,429.1396484l-3.289978-3.2895508l-0.6600342-0.590332
		c-0.5200195-0.4697266-1.039978-0.949707-1.5499878-1.4399414c-0.5200195-0.4799805-1.0300293-0.9697266-1.5300293-1.4599609
		c-1.6599731-1.6098633-3.2699585-3.2597656-4.8299561-4.949707c-0.1300049-0.1303711-0.2600098-0.2705078-0.3800049-0.4101563
		c-0.2900391-0.3100586-0.5800171-0.6298828-0.8699951-0.9501953c-0.1100464-0.1201172-0.2200317-0.2397461-0.3200073-0.3598633
		c-0.4299927-0.4799805-0.8500366-0.9599609-1.2700195-1.4399414l14.5900269-0.1103516
		c31.4299927-0.25,57.6499634-3.0595703,80.539978-7.7294922c37.7700195-7.7001953,66.5-20.4404297,94.6800079-35.0205078
		c5.460022,2.7202148,10.8699951,5.5302734,16.2999878,8.3901367
		c24.2000122,12.7602539,58.1799927,31.1601563,94.6799927,42.4599609
		C427.7010498,432.4101563,462.5710449,436.8198242,494.1810303,426.1899414z"/>
	<path class="st8" d="M529.2210693,375.6796875c0.1499634-0.3598633,0.2799683-0.7197266,0.4199829-1.0795898
		c-0.0800171,0.2299805-0.1699829,0.4599609-0.2600098,0.6899414
		C529.3310547,375.4199219,529.2810669,375.5498047,529.2210693,375.6796875z"/>
	<path class="st8" d="M533.2810669,363.5800781c0.2299805-0.7900391,0.4400024-1.5800781,0.6499634-2.3701172
		c-0.1999512,0.75-0.3999634,1.5-0.6099854,2.25C533.3110352,363.5,533.3010254,363.5400391,533.2810669,363.5800781z"/>
	<path class="st9" d="M494.1810303,426.1899414l-12.6699829,12.6699219L340.8810425,579.4897461
		c-10.8699951,10.8701172-25.3300171,16.8603516-40.7099609,16.8603516h-0.3400269
		c-15.3800049,0-29.8400269-5.9902344-40.710022-16.8603516L108.7710419,429.1396484
		c36.9899902-0.2895508,67.2399902-4.1499023,93.0100098-10.1499023
		c41.0899658-9.5795898,70.8299713-24.5795898,98.3999786-39.2099609
		c24.2000122,12.7602539,58.1799927,31.1601563,94.6799927,42.4599609
		C427.7010498,432.4101563,462.5710449,436.8198242,494.1810303,426.1899414z"/>
	<path class="st8" d="M512.3610229,406.2299805c-4.6299438,6.2700195-9.8399658,12.1499023-15.5799561,17.5498047
		c-0.5300293,0.5-1.0599976,0.9902344-1.6000366,1.4799805l-0.6599731,0.590332L340.8810425,579.4897461
		c-10.8699951,10.8701172-25.3200073,16.8603516-40.7000122,16.8603516h-0.3499756
		c-15.3800049,0-29.8400269-5.9902344-40.710022-16.8603516L118.4910126,438.8598633l-13.0099487-13.0097656l-0.6600342-0.590332
		c-16.7199707-15.2197266-29.0800171-34.3896484-36.1799927-55.449707c-1.3800049-4.1201172-2.5700073-8.300293-3.5499878-12.550293
		c-0.1799927-0.7900391-0.3500366-1.5800781-0.5200195-2.3701172c-0.4799805-2.2597656-0.8900108-4.5395508-1.2499962-6.8398438
		c4.510006-2.5297852,9.2399864-4.8300781,14.1799889-6.8999023c0.5800171,5.1201172,1.5100098,10.1699219,2.7700195,15.1298828
		C97.5510101,348.4697266,119.851059,343,150.0410614,341.7700195c4.039978-0.1601563,8.2199707-0.25,12.5499878-0.2602539
		c52.2299805-0.0898438,87.6099854,13.1000977,121.2899933,29.8798828
		c5.460022,2.7202148,10.8699951,5.5302734,16.2999878,8.3901367
		c24.2000122,12.7602539,58.1799927,31.1601563,94.6799927,42.4599609c23.7900391,7.3701172,48.6400146,11.7099609,72.5400391,9.5
		l16.789978-16.7900391l0.3400269-0.3100586C495.3210449,412.3100586,502.1310425,408.8896484,512.3610229,406.2299805z"/>
	<path class="st8" d="M494.2410278,426.1699219L340.8810425,579.4897461
		c-10.8699951,10.8701172-25.3300171,16.8603516-40.7099609,16.8603516h-0.3400269
		c-15.3800049,0-29.8400269-5.9902344-40.710022-16.8603516L108.7710419,429.1396484l-3.289978-3.2895508l-0.6600342-0.590332
		c-0.5200195-0.4697266-1.039978-0.949707-1.5499878-1.4399414c-0.5200195-0.4799805-1.0300293-0.9697266-1.5300293-1.4599609
		c-1.6599731-1.6098633-3.2699585-3.2597656-4.8299561-4.949707c-0.1300049-0.1303711-0.2600098-0.2705078-0.3800049-0.4101563
		c-0.2900391-0.3100586-0.5800171-0.6298828-0.8699951-0.9501953c-0.1100464-0.1201172-0.2200317-0.2397461-0.3200073-0.3598633
		c-0.4299927-0.4799805-0.8500366-0.9599609-1.2700195-1.4399414
		c-10.0499878-11.5800781-17.9699707-24.7802734-23.4500122-38.9599609c-1.5-3.8701172-2.8099976-7.8203125-3.9400024-11.8300781
		c18.8099976-11.5302734,44.5800171-20.1098633,83.3600464-21.6899414c4.039978-0.1601563,8.2199707-0.25,12.5499878-0.2602539
		c52.2299805-0.0898438,87.6099854,13.1000977,121.2899933,29.8798828
		c5.460022,2.7202148,10.8699951,5.5302734,16.2999878,8.3901367
		c24.2000122,12.7602539,58.1799927,31.1601563,94.6799927,42.4599609
		c32.8400269,10.1704102,67.710022,14.5800781,99.3200073,3.9501953
		C494.2010498,426.1796875,494.2210693,426.1796875,494.2410278,426.1699219z"/>
	<path class="st10" d="M494.2410278,426.1699219L340.8810425,579.4897461
		c-10.8699951,10.8701172-25.3300171,16.8603516-40.7099609,16.8603516h-0.3400269
		c-15.3800049,0-29.8400269-5.9902344-40.710022-16.8603516L108.7710419,429.1396484l-3.289978-3.2895508l-0.6600342-0.590332
		c-0.5200195-0.4697266-1.039978-0.949707-1.5499878-1.4399414c-0.5200195-0.4799805-1.0300293-0.9697266-1.5300293-1.4599609
		c-1.6599731-1.6098633-3.2699585-3.2597656-4.8299561-4.949707c-0.1300049-0.1303711-0.2600098-0.2705078-0.3800049-0.4101563
		c-0.2900391-0.3100586-0.5800171-0.6298828-0.8699951-0.9501953c-0.1100464-0.1201172-0.2200317-0.2397461-0.3200073-0.3598633
		c-0.4299927-0.4799805-0.8500366-0.9599609-1.2700195-1.4399414
		c-10.0499878-11.5800781-17.9699707-24.7802734-23.4500122-38.9599609c-1.5-3.8701172-2.8099976-7.8203125-3.9400024-11.8300781
		c4.1700439-2.5600586,8.6700439-4.9702148,13.5900269-7.1801758c5.5599976,22.0600586,17.5,42.2700195,34.5800171,57.840332
		l0.9199829,0.8295898l153.9300079,153.9301758c8.039978,8.0400391,18.7399902,12.4702148,30.1099854,12.4702148h0.3400269
		c11.3699951,0,22.0599976-4.4301758,30.0999756-12.4702148L467.401062,431.7397461
		c9.0999756-0.8295898,18.0599976-2.6196289,26.7799683-5.5498047
		C494.2010498,426.1796875,494.2210693,426.1796875,494.2410278,426.1699219z"/>
	<path class="st9" d="M533.9710693,361.0400391c0.1799927-0.6699219,0.3599854-1.340332,0.5100098-2.0200195
		c-0.1100464,0.4599609-0.2200317,0.9199219-0.3400269,1.3696289
		C534.0810547,360.6000977,534.0310669,360.8198242,533.9710693,361.0400391z"/>
	<path class="st9" d="M534.9110718,357.2597656c-0.0500488,0.2299805-0.1100464,0.4599609-0.1700439,0.6801758
		c0.0599976-0.2299805,0.1100464-0.4599609,0.1600342-0.6899414
		C534.901062,357.2597656,534.9110718,357.2597656,534.9110718,357.2597656z"/>
	<path class="st13" d="M406.901062,410.1699219l-90.8800049,90.8798828
		c-4.2800293,4.2700195-9.960022,6.6298828-16.0100098,6.6298828h-0.1799927
		c-6.0499878,0-11.7399902-2.3598633-16.0200195-6.6298828L170.7810516,388.0200195l-0.4899902-0.4399414
		c-12.8900146-11.75-20.2800293-28.4902344-20.2800293-45.9301758c0-5.1499023,0.6300049-10.1601563,1.8200073-14.9501953h0.0299683
		c3.5-0.1196289,7.0700073-0.1796875,10.710022-0.1899414h0.5300293c59.5199585,0,98.0199738,16.1201172,137.0199738,36.3100586
		c2.3500366,1.2099609,4.7000122,2.4501953,7.0599976,3.6899414l4.0200195,2.1201172
		c1.6300049,0.8598633,3.289978,1.7402344,4.9899902,2.6401367
		C341.0510254,384.3701172,373.3710327,400.8999023,406.901062,410.1699219z"/>
	<path class="st12" d="M394.8610229,422.2397461l-78.8099976,78.8100586
		c-4.2699585,4.2700195-9.9599609,6.6298828-16.0099487,6.6298828h-0.1800537
		c-6.0499878,0-11.7399902-2.3598633-16.0199585-6.6298828l-8.2600098-8.2597656l-75.3499908-75.3500977l-29.4200439-29.4199219
		l-0.4899902-0.4399414c-1.9099731-1.7402344-3.710022-3.6000977-5.3599854-5.550293
		c-9.539978-11.1499023-14.8900146-25.449707-14.9199829-40.2597656c4.039978-0.1601563,8.2199707-0.25,12.5499878-0.2602539
		c52.2299805-0.0898438,87.6099854,13.1000977,121.2899933,29.8798828
		c5.460022,2.7202148,10.8699951,5.5302734,16.2999878,8.3901367
		C324.3810425,392.5400391,358.3610229,410.9399414,394.8610229,422.2397461z"/>
	<circle class="st9" cx="182.1543884" cy="400.1699219" r="25"/>
	<circle class="st9" cx="193.8216553" cy="454.617157" r="12.25"/>
	<circle class="st8" cx="230.8269043" cy="417.3761902" r="7.75"/>
	<path class="st8" d="M200.2310638,417.4399414l-29.4200439-29.4199219l-0.4899902-0.4399414
		c-1.9099731-1.7402344-3.710022-3.6000977-5.3599854-5.550293c9.789978-9.2998047,25.2700195-9.1401367,34.8699951,0.4599609
		C209.4610443,392.1298828,209.5910492,407.6499023,200.2310638,417.4399414z"/>
	<circle class="st9" cx="193.8216553" cy="454.617157" r="12.25"/>
	<circle class="st9" cx="347.8344421" cy="469.2532959" r="17.6559906"/>
	<path class="st8" d="M360.3335571,456.767395l-24.9700317,24.9702148c-4.8200073-4.800293-6.6199951-12.1704102-4-18.9101563
		c3.5400391-9.0898438,13.7700195-13.5898438,22.8599854-10.0600586
		C356.5935669,453.6873169,358.6435547,455.0671997,360.3335571,456.767395z"/>
	<circle class="st9" cx="300.1677551" cy="506.800293" r="28.2029724"/>
	<path class="st8" d="M324.4610596,492.6396484l-8.4100342,8.4101563
		c-4.2699585,4.2700195-9.9599609,6.6298828-16.0099487,6.6298828h-0.1800537
		c-6.0499878,0-11.7399902-2.3598633-16.0199585-6.6298828l-8.2600098-8.2597656
		c6.8099976-11.9399414,21.5100098-17.4003906,34.7000122-12.2802734
		C316.4910278,482.9199219,321.3510742,487.2900391,324.4610596,492.6396484z"/>
	<circle class="st8" cx="322.693512" cy="432.5828552" r="9.1473341"/>
</g>
</svg>
