<?xml version="1.0" encoding="utf-8"?>
<!-- Generator: Adobe Illustrator 22.1.0, SVG Export Plug-In . SVG Version: 6.00 Build 0)  -->
<svg version="1.1" id="Layer_1" xmlns="http://www.w3.org/2000/svg" xmlns:xlink="http://www.w3.org/1999/xlink" x="0px" y="0px"
	 viewBox="0 0 600 656.9986572" style="enable-background:new 0 0 600 656.9986572;" xml:space="preserve">
<style type="text/css">
	.st0{fill:#0E121E;}
	.st1{fill:#DDEEDB;}
	.st2{fill:#F3F7DE;}
	.st3{fill:#C4E5DC;}
	.st4{fill:#E7EAD0;}
	.st5{fill:#AADCD9;}
	.st6{fill:#9ED3D7;}
	.st7{fill:#5E5EE5;}
	.st8{fill:#4F3DD3;}
	.st9{fill:#7979F2;}
	.st10{fill:#3131AF;}
	.st11{opacity:0.5;fill:#FFFFFF;mix-blend-mode:soft-light;}
	.st12{fill:#FFDD9D;}
	.st13{fill:#FFC98F;}
	.st14{fill:#81C6CB;}
</style>
<g>
	<path class="st0" d="M436.1634216,272.3551636l-0.0299072,0.210022c-0.0300293,0.2199707-0.0699463,0.4500122-0.1199951,0.6699524
		l-3.0700073,15.4897461l-12.9897766,65.7388611l-48.7691956,246.6658936H214.107254l-39.5293579-199.9966431h30.5794373
		l33.5995331,169.9971313h107.7781982l43.9892578-222.4762573l12.9897461-65.7588501l1.8299255-9.1998596l-41.169342-24.1095734
		l-1.559906-0.9200287c-22.6195984-13.2397614-42.0393372-30.5994568-57.7390137-51.6091003
		c-2.4099731-3.2299347-4.730011-6.5398712-6.9399414-9.9198151h-10.5797729
		c-2.22995,3.3999023-4.5698853,6.7398682-6.9998779,9.9898224c-4.2399292,5.6698761-8.7598572,11.069809-13.5397034,16.1997375
		l-30.3695984-12.0497894c7.2398682-6.7199249,13.8997955-14.1098022,19.8996887-22.1296234
		c5.2200012-6.9799347,9.8698425-14.3397827,13.8997803-22.0096436h44.7993164
		c4.019928,7.6498413,8.6597595,14.9997406,13.8696289,21.9796143
		c13.2797852,17.7697144,29.719574,32.4494629,48.8592834,43.6692352l1.6298523,0.9499969l45.9891968,26.9395447
		C433.1734924,255.2354584,437.503479,263.945343,436.1634216,272.3551636z"/>
	<path class="st1" d="M491.8216553,287.4637146c-0.119873,0.7300415-0.2597656,1.4700012-0.3999023,2.1999817
		l-68.348938,345.7441406c-2.4799194,12.5497437-13.489502,21.5896606-26.2793274,21.5896606H203.2066803
		c-12.7898254,0-23.7996521-9.039917-26.2795868-21.5896606l-68.348938-345.7441406
		c-0.1498947-0.7299805-0.2797775-1.4699402-0.3998947-2.1999817c-4.8197403-28.8294678,9.2798767-57.5490112,34.5094223-72.3187103
		l47.4091187-27.7695465c13.5197754-7.9298553,25.159729-18.409729,34.3695221-30.7195129
		c9.1997986-12.3097839,15.9597015-26.4295502,19.7296448-41.6492615h111.6079865
		c3.769928,15.2197113,10.5300903,29.3394775,19.7298889,41.6492615
		c6.5196533,8.7198792,14.2597656,16.5197449,23.0296326,23.1396179c3.6098022,2.7399445,7.3897705,5.2599182,11.3396301,7.579895
		l33.1596069,19.4196472l12.7995911,7.4998779l1.4501648,0.8500214
		C482.5420227,229.9147034,496.6416321,258.6342468,491.8216553,287.4637146z"/>
	<path class="st2" d="M398.7346802,211.3562012c-0.1401367,0.8799896-0.3000488,1.7599792-0.4799805,2.6399689
		l-82.8386841,417.3529053c-2.7599487,13.9197998-14.2797852,24.2295532-28.1394043,25.6495972H203.207962
		c-12.7898254,0-23.7996368-9.039856-26.2795868-21.5895996L108.5794449,289.664917
		c-0.1499023-0.72995-0.2797852-1.4699402-0.3998947-2.2000122c-4.8199921-28.8294678,9.2798691-57.5489655,34.5094147-72.3187256
		l47.4091187-27.7695618c8.2098236-4.8199768,15.7399597-10.579895,22.4297943-17.1196899
		c0.0898438-0.0799561,0.1699219-0.1700439,0.2599945-0.25c4.2299194-4.1499634,8.1297455-8.6198578,11.6797333-13.3497467
		c3.9899292-5.3399963,7.5198975-11.0198364,10.549881-16.9796906c0.0200195-0.0300293,0.0300293-0.0700684,0.0500488-0.1000977
		c3.9298553-7.7598877,7.0096436-15.9897232,9.1297302-24.5695343h111.6079712
		c2.1200562,8.5798111,5.2001038,16.8096466,9.1299744,24.5695343c0.0200195,0.0300293,0.0300293,0.0700684,0.0500488,0.1000977
		c3.0299683,5.9598541,6.5599365,11.6396942,10.5498657,16.9796906c3.5397339,4.7398987,7.4398193,9.1997833,11.6697083,13.3497467
		c0.0900879,0.0799561,0.1699219,0.1700439,0.2600098,0.25c3.4799194,3.4099731,7.1898193,6.579834,11.0999146,9.5397491
		C400.1946106,191.0065613,400.3147278,201.9064026,398.7346802,211.3562012z"/>
	<path class="st3" d="M491.8216553,287.4637146c-0.119873,0.7300415-0.2597656,1.4700012-0.3999023,2.1999817
		l-68.348938,345.7441406c-2.4799194,12.5497437-13.489502,21.5896606-26.2793274,21.5896606H344.734314
		c6.8897705-0.710022,13.199707-3.6099243,18.1495972-8.0698853c4.8399963-4.3499756,8.3799744-10.1998291,9.8499146-16.9296875
		h24.2295837c0.8500671,0,1.5898132-0.6000366,1.7499695-1.4400024l35.3695068-178.8969727l8.0997314-40.9692688
		l8.8399353-44.6992493l2.5297241-12.7897644l10.460022-52.9391174l3.019989-15.2297668l0.0397949-0.2199707
		c0.1201172-0.6000366,0.2299805-1.210022,0.3200684-1.809967c0.9201355-5.7899475-11.0796509-25.6495972-24.7496033-41.4393158
		l0.1101074-0.5699921c0.1799316-0.8799896,0.3398438-1.7599792,0.4799805-2.6399689
		c1.5800476-9.4498444,1.4599304-20.3496246-0.1699219-31.5594635l12.7995911,7.4998779l1.4501648,0.8500214
		C482.5420227,229.9147034,496.6416321,258.6342468,491.8216553,287.4637146z"/>
	<path class="st4" d="M387.4648438,170.2569275H212.5278778c0.0898438-0.0799561,0.1699219-0.1700439,0.2599945-0.25
		c4.2299194-4.1499634,8.1297455-8.6198578,11.6797333-13.3497467c3.9899292-5.3399963,7.5198975-11.0198364,10.549881-16.9796906
		c0.0200195-0.0300293,0.0300293-0.0700684,0.0500488-0.1000977h129.8676758
		c0.0200195,0.0300293,0.0300293,0.0700684,0.0500488,0.1000977c3.0299683,5.9598541,6.5599365,11.6396942,10.5498657,16.9796906
		c3.5397339,4.7398987,7.4398193,9.1997833,11.6697083,13.3497467
		C387.2949219,170.0868835,387.3747559,170.1769714,387.4648438,170.2569275z"/>
	<path class="st5" d="M467.2235107,283.0050049c-0.0900879,0.5999756-0.1999512,1.2099304-0.3200684,1.809906l-0.0400391,0.2199707
		l-3.0199585,15.2298279l-10.4598083,52.9391785l-2.5299683,12.7897034l-8.8396912,44.6993103l-8.0999756,40.9692688
		L398.5447388,630.559021c-0.1601563,0.8400879-0.9001465,1.4400635-1.7499695,1.4400635H203.207962
		c-0.6899261,0-1.3100281-0.4000244-1.5900574-1c-0.079834-0.1300049-0.1298828-0.2800293-0.1599121-0.4400635
		l-34.9893951-176.9969788l-18.119812-91.6783752l-2.5399933-12.8597717l-8.9097595-45.0492859l-2.9899445-15.1297302
		l-0.8000336-4.0299683c-0.119873-0.5999756-0.2299805-1.2099304-0.3198242-1.809906
		c-2.9498901-18.4397583,6.2098694-36.7293549,22.319458-46.1692657l42.7094727-25.0095825l4.9098358-2.879837
		c16.3695831-9.5999298,30.4093933-22.149765,41.7592926-37.3094177c0.3398438-0.4599609,0.6899261-0.9200287,1.0200043-1.3899841
		c6.8797607-9.4299011,12.4897766-19.5496063,16.8097839-30.2394867h75.3685913
		c4.3199768,10.6998901,9.9397583,20.8095856,16.8097534,30.2394867c0.329834,0.4600677,0.6699219,0.9200134,1.0100098,1.3799744
		c11.3396606,15.1696625,25.3894653,27.7295074,41.7593079,37.3194275l1.6799011,0.989975l45.9291382,26.8994446
		C460.9936218,246.27565,470.1633911,264.5552368,467.2235107,283.0050049z"/>
	<path class="st3" d="M281.195343,630.9979248h-79.5787201c-0.079834-0.1300049-0.1298828-0.2800293-0.1599121-0.4400024
		l-34.9893951-176.9969788l-18.119812-91.6784363l-2.5399933-12.8598328l-8.9097595-45.0492249l-2.9899445-15.1297607
		l-0.7997894-4.0298767c-0.1201172-0.6000366-0.2302246-1.210022-0.3200684-1.809967
		c-2.9498901-18.4396973,6.2098541-36.7294312,22.3196869-46.1692657l42.7092438-25.0095215L281.195343,630.9979248z"/>
	<path class="st6" d="M467.2229614,283.0050049c-0.0899658,0.5999756-0.1999512,1.2099304-0.3200684,1.809967l-0.039917,0.2199707
		l-3.0199585,15.2297668l-10.4597778,52.9391174l-2.5299988,12.7897644l-8.8398132,44.6992493l-1.1999207,6.0799255
		l-0.8701172,4.3798523l-6.0299377,30.509491l-29.6593933,150.0074463l-1.5800476,7.9998779l-4.1298218,20.8896484
		c-0.1600342,0.8399658-0.900116,1.4400024-1.7499695,1.4400024h-81.4986267l6.0099182-30.3295288l49.6390381-250.4457397
		l28.0079041-141.2797546l45.9208984,26.8917389C460.9930725,246.27565,470.1628418,264.5552979,467.2229614,283.0050049z"/>
	<path class="st7" d="M466.8621216,285.033783l-3.019989,15.2297668l-10.4597778,52.9391174l-2.5297241,12.7897644
		l-16.9399109,85.6685181L398.543457,630.5579224c-0.1601563,0.8399658-0.9001465,1.4400024-1.7499695,1.4400024H203.2066803
		c-0.8498383,0-1.5900574-0.6000366-1.7499695-1.4400024l-34.9893951-176.9969788l-18.119812-91.6784363l-2.5399933-12.8598328
		l1.6300964-2.1099548c62.7589417-3.8299561,97.1882935-21.989624,130.2377777-39.6993408
		c0.3300781-0.1799927,0.6699219-0.3599854,0.9999695-0.5399475c2.9999695-1.5999756,5.9798889-3.1999817,8.9498291-4.7699585
		c2.2599487-1.1999207,4.5299377-2.3799744,6.8099365-3.5499268c25.6697083-13.1797791,52.9490356-24.4995728,92.2584229-26.1995544
		c3.2199402-0.1399536,6.5299377-0.2099609,9.9197693-0.2199707h0.4599609
		C425.1929016,271.934021,448.0826416,276.2239075,466.8621216,285.033783z"/>
	<path class="st8" d="M463.8421326,300.2635498l-10.4597778,52.9391174l-2.5297241,12.7897644l-16.9399109,85.6685181
		L398.543457,630.5579224c-0.1601563,0.8399658-0.9001465,1.4400024-1.7499695,1.4400024H203.2066803
		c-0.8498383,0-1.5900574-0.6000366-1.7499695-1.4400024l-34.9893951-176.9969788l-18.119812-91.6784363
		c72.5090179-4.4299316,109.688324-27.3695374,146.2875671-46.7192383
		c5.4798889-2.8899841,10.9397583-5.7098694,16.5097046-8.3598633c20.7496643-9.90979,42.9292297-17.6796875,72.5888672-19.469696
		c4.1498413-0.2599487,8.4497986-0.3899536,12.9096985-0.3999634
		C427.5629883,286.8837891,448.5125732,292.3136597,463.8421326,300.2635498z"/>
	<path class="st9" d="M453.3823547,353.2026672l-2.5297241,12.7897644l-16.9399109,85.6685181L398.543457,630.5579224
		c-0.1601563,0.8399658-0.9001465,1.4400024-1.7499695,1.4400024H203.2066803c-0.8498383,0-1.5900574-0.6000366-1.7499695-1.4400024
		l-34.9893951-176.9969788l-18.119812-91.6784363l-2.5399933-12.8598328l-8.9097595-45.0492249l-2.9899445-15.1297607
		c18.3197632-8.059845,40.4192352-11.9997864,67.4090118-12.0497742h0.4399414
		c40.049118,0,68.4487762,9.9698792,92.67836,21.5596313c2.3500366,1.1300049,4.6598206,2.2599792,6.9398193,3.4099731
		c3.2599487,1.6399231,6.5299072,3.3399048,9.7698364,5.0398865c2.7799988,1.460022,5.5399475,2.9299622,8.2598877,4.3699341
		c16.7297058,8.8998718,33.7494202,17.9396973,54.519104,25.2095947c20.9195557,7.329834,45.6593628,12.849762,77.758667,14.6297607
		L453.3823547,353.2026672z"/>
	<path class="st7" d="M450.853241,365.9935913l-8.8398132,44.6992493l-1.1999207,6.0799255l-0.8701172,4.3798523
		l-6.0299377,30.509491l-29.6593933,150.0074463l-1.5800476,7.9998779l-4.1298218,20.8896484
		c-0.1600342,0.8399658-0.900116,1.4400024-1.7499695,1.4400024H203.2074127c-0.8499603,0-1.5899353-0.6000366-1.7499695-1.4400024
		l-4.1299286-20.8896484l-1.5799255-7.9998779l-29.279541-148.1074524l-18.1196899-91.6784363l-2.5398712-12.8597717
		l-8.9100037-45.0492859c15.0497894-7.2498779,35.3094635-12.1297913,64.4489899-12.1797791
		c31.6694946-0.0499878,55.1390686,6.3499451,76.3286438,15.4197388c5.7899475,2.4699707,11.3998413,5.1499329,16.9598083,7.9498596
		c23.3595886,11.7498169,45.8291626,25.6696167,76.3086243,36.0593872
		C392.5242615,358.593689,418.1037903,364.1736145,450.853241,365.9935913z"/>
	<path class="st8" d="M466.8621216,285.033783l-3.019989,15.2297668l-10.4597778,52.9391174l-2.5297241,12.7897644
		l-16.9399109,85.6685181L398.543457,630.5579224c-0.1601563,0.8399658-0.9001465,1.4400024-1.7499695,1.4400024h-81.4187927
		l6.0099182-30.3295288l65.3089294-329.5144043c3.2199402-0.1399536,6.5299377-0.2099609,9.9197693-0.2199707h0.4599609
		C425.1929016,271.934021,448.0826416,276.2239075,466.8621216,285.033783z"/>
	<path class="st10" d="M463.8421326,300.2635498l-10.039856,50.8091431l-0.4199219,2.1299744l-2.5297241,12.7897644
		l-16.9399109,85.6685181L398.543457,630.5579224c-0.1601563,0.8399658-0.9001465,1.4400024-1.7499695,1.4400024h-81.3687439
		l5.9999084-30.3295288l52.5791626-265.2554932l9.7298279-49.0791931c4.1498413-0.2599487,8.4497986-0.3899536,12.9096985-0.3999634
		C427.5629883,286.8837891,448.5125732,292.3136597,463.8421326,300.2635498z"/>
	<path class="st7" d="M453.8022766,351.0726929l-0.4199219,2.1299744l-2.5297241,12.7897644l-16.9399109,85.6685181
		L398.543457,630.5579224c-0.1601563,0.8399658-0.9001465,1.4400024-1.7499695,1.4400024h-81.4585876l6.0096741-30.3295288
		l52.5791931-265.2854614c0.0299988,0.0100098,0.0500183,0.0199585,0.0800476,0.0299683
		C394.8933716,343.7227783,421.7830505,349.2926941,453.8022766,351.0726929z"/>
	<path class="st8" d="M450.853241,365.9935913l-8.8398132,44.6992493l-1.1999207,6.0799255l-6.9000549,34.8893433
		l-29.6593933,150.0074463l-1.5800476,7.9998779l-4.1298218,20.8896484
		c-0.1600342,0.8399658-0.900116,1.4400024-1.7499695,1.4400024h-81.4986267l4.4198608-22.3296509l1.5900574-7.9998779
		l49.6390381-250.4457397C392.5242615,358.593689,418.1037903,364.1736145,450.853241,365.9935913z"/>
	<path class="st8" d="M402.6732788,609.6682739l-4.1298218,20.8896484
		c-0.1601563,0.8399658-0.9001465,1.4400024-1.7499695,1.4400024H203.2066803c-0.8498383,0-1.5900574-0.6000366-1.7499695-1.4400024
		l-4.1300659-20.8896484H402.6732788z"/>
	<path class="st10" d="M402.6732788,609.6682739l-4.1298218,20.8896484
		c-0.1601563,0.8399658-0.9001465,1.4400024-1.7499695,1.4400024h-81.4986267l4.4198608-22.3296509H402.6732788z"/>
	<circle class="st8" cx="217.0758972" cy="364.900116" r="30.9994736"/>
	<circle class="st8" cx="272.1514587" cy="402.0349426" r="15.9997282"/>
	<path class="st11" d="M256.5111694,236.9346161c-20.250946,16.898941-44.3083954,29.1641998-67.0651855,42.375351
		c-1.2790222,0.7425232-1.9409485,2.2183838-1.654129,3.6692505l35.7298737,180.7315063
		c1.5900574,7.9498901-3.5598755,15.6797791-11.5098114,17.2697449c-0.9699554,0.1899719-1.9399109,0.2899475-2.8998566,0.2899475
		c-6.8499908,0-12.9697571-4.8198547-14.369751-11.7997742c0,0-38.7418518-189.9734497-38.4449005-194.5140686
		c0.2807007-4.2919922,1.9541931-8.4386902,4.6087646-11.8102417c3.388382-4.3035278,8.1867218-6.7096252,12.8491364-9.3712311
		c10.7555237-6.1399078,21.6600647-12.0193329,32.3053894-18.3514862
		c10.5960388-6.3028412,20.964859-13.0626984,30.4848633-20.9193726c0.1890259-0.1560059,0.3777008-0.3124237,0.5660248-0.4692688
		c4.2599335-3.539917,10.0797882-4.5399017,15.2297211-2.4999542
		C262.8711548,215.7149353,265.2110901,229.6747131,256.5111694,236.9346161z"/>
	<circle class="st8" cx="246.1390381" cy="436.1119995" r="10.0414963"/>
	<circle class="st8" cx="280.2128296" cy="513.3616333" r="27.4300137"/>
	<circle class="st8" cx="338.5382385" cy="526.2631226" r="14.1574259"/>
	<circle class="st8" cx="307.2518616" cy="558.2097168" r="8.8852596"/>
	<path class="st11" d="M231.8852539,507.2635498l7.2088013,37.4968262
		c1.5259247,7.9555664-3.6844635,15.6463013-11.6495972,17.175293c-7.3599091,1.4179077-14.493103-2.9428711-16.7371216-9.8998413
		c-0.0859222-0.2664185-0.1623535-0.5360107-0.2292633-0.8086548l-0.0153198-0.0474854l-7.2357635-37.6774292
		c-1.5287628-7.96521,3.6816254-15.6559143,11.646759-17.184906
		C222.5917664,494.8366394,230.0647125,499.6972046,231.8852539,507.2635498z"/>
	<g>
		<g>
			<path class="st12" d="M370.8885498,33.1260147l-8.5454102,47.4342651
				c0.0101318,6.2598419-1.9692688,11.9228058-5.1515503,15.9404221c-3.4651184,3.7002792-8.3916016,6.0263214-13.8277588,6.0351181
				l-86.6965027,0.1403198c-10.4604492,0.0169296-19.028656-8.5235825-19.045578-18.9841156l-8.5493774-52.0569458
				c-1.196991-7.2884045,1.749176-14.7687149,7.8587036-18.9192924c3.0326843-2.0602961,6.6854401-3.2692022,10.6081848-3.2755508
				l104.6508026-0.1693773c2.7179871-0.0043993,5.3104248,0.5708609,7.65802,1.6083231
				c4.5843811,2.0259686,7.9752197,6.0145197,9.7132874,10.7156153c0.7562561,2.0455532,1.2792664,4.2686863,1.5230408,6.6079025
				C371.2554016,29.8434296,371.1810303,31.502533,370.8885498,33.1260147z"/>
			<path class="st13" d="M370.8975525,33.0760918l-8.5544128,47.4841881
				c0.0101318,6.2598419-1.9692688,11.9228058-5.1515503,15.9404221c-3.1127625,3.3231659-7.3922424,5.5304489-12.1688232,5.950058
				c-0.5411987,0.0596924-1.0941467,0.0841446-1.6589355,0.0850601l-23.3450012,0.0377808
				c9.0603027-0.0146637,16.4572754-9.9106445,16.4377441-21.9714279l8.8972473-49.3872032
				c-0.0195007-12.0607815-7.4484558-21.9209919-16.5087585-21.9063263l23.3450012-0.0377836
				c2.7179871-0.0043993,5.3104553,0.5708637,7.65802,1.6083345c4.5845642,2.0260611,7.9754944,6.0148764,9.713501,10.7162008
				c0.8262329,2.2349377,1.3739929,4.681839,1.583374,7.2605095
				C371.2593994,30.2654686,371.1482849,31.6842957,370.8975525,33.0760918z"/>
			<circle class="st13" cx="282.9640808" cy="67.361763" r="12.5220232"/>
			<circle class="st13" cx="283.2295532" cy="25.6486244" r="7.0074582"/>
			<circle class="st13" cx="255.9599457" cy="39.7160301" r="13.7102442"/>
			<circle class="st13" cx="325.4861145" cy="39.7160301" r="9.2722178"/>
		</g>
		<path class="st2" d="M398.4983215,80.5409393v47.759201c0,6.4198761-5.4999084,11.6697845-12.2297668,11.6697845H213.7314453
			c-6.7298737,0-12.2297668-5.2499084-12.2297668-11.6697845v-47.759201c0-6.4199371,5.4998932-11.6698456,12.2297668-11.6698456
			h172.5371094C392.9984131,68.8710938,398.4983215,74.1210022,398.4983215,80.5409393z"/>
		<path class="st1" d="M398.4983215,80.5409393v47.759201c0,6.4198761-5.4999084,11.6697845-12.2297668,11.6697845h-81.278656
			c-7.0598755,0-12.8197937-5.2499084-12.8197937-11.6697845v-47.759201c0-6.4199371,5.7599182-11.6698456,12.8197937-11.6698456
			h81.278656C392.9984131,68.8710938,398.4983215,74.1210022,398.4983215,80.5409393z"/>
	</g>
	<path class="st14" d="M354.4954224,170.2469177H245.5072937c6.8797607-9.4299011,12.4897766-19.5496063,16.8097839-30.2394867
		h75.3685913C342.0056458,150.7073212,347.6254272,160.8170166,354.4954224,170.2469177z"/>
</g>
</svg>
