<?xml version="1.0" encoding="utf-8"?>
<!-- Generator: Adobe Illustrator 22.1.0, SVG Export Plug-In . SVG Version: 6.00 Build 0)  -->
<svg version="1.1" id="Layer_1" xmlns="http://www.w3.org/2000/svg" xmlns:xlink="http://www.w3.org/1999/xlink" x="0px" y="0px"
	 viewBox="0 0 600 656.9986572" style="enable-background:new 0 0 600 656.9986572;" xml:space="preserve">
<style type="text/css">
	.st0{fill:#FFDD9D;}
	.st1{fill:#FFC98F;}
	.st2{fill:#F3F7DE;}
	.st3{fill:#AADCD9;}
	.st4{fill:#0E8AC0;}
	.st5{fill:#139BCD;}
	.st6{fill:#59C9E1;}
	.st7{fill:#13B2DA;}
	.st8{fill:#C4E5DC;}
	.st9{fill:#63D7E0;}
	.st10{fill:#44C2DF;}
	.st11{fill:#9ED3D7;}
	.st12{fill:#0B77AD;}
	.st13{fill:#DDEEDB;}
</style>
<g>
	<path class="st0" d="M370.8897705,83.0185928l-8.5455627,47.4350662c0.0101013,6.259964-1.9693298,11.9230194-5.1516418,15.9407043
		c-3.4651794,3.7003326-8.3917236,6.026413-13.8280029,6.0352173l-86.6979675,0.1403198
		c-10.4606323,0.0169373-19.0289764-8.5237274-19.0459137-18.984436l-8.5495148-52.0578308
		c-1.1970062-7.2885208,1.7492065-14.768959,7.8588409-18.9196091c3.0327454-2.0603333,6.6855469-3.2692604,10.6083679-3.2756081
		l104.6525726-0.1693802c2.7180176-0.0043983,5.3105164,0.5708694,7.6581421,1.6083488
		c4.5844727,2.0260048,7.9753418,6.0146255,9.7134399,10.7157974c0.7562866,2.0455856,1.2792969,4.2687607,1.5231018,6.608017
		C371.2566223,79.7359543,371.182251,81.3950882,370.8897705,83.0185928z"/>
	<path class="st1" d="M370.8987427,82.9686737l-8.5545349,47.4849854c0.0101013,6.259964-1.9693298,11.9230194-5.1516418,15.9407043
		c-3.112793,3.3232269-7.392395,5.5305481-12.1690369,5.9501495c-0.5411987,0.0597076-1.0941772,0.0841522-1.6589661,0.0850677
		l-23.3453979,0.0377808c9.0604858-0.0146637,16.45755-9.9108124,16.4380188-21.9718018l8.8973999-49.3880386
		c-0.0195007-12.0609894-7.4485779-21.9213638-16.5090332-21.9067001l23.3453979-0.0377846
		c2.7180481-0.0043983,5.3105469,0.5708733,7.6581726,1.6083603c4.5846252,2.0260963,7.9755859,6.0149803,9.7136536,10.7163811
		c0.8262329,2.2349777,1.3739929,4.6819229,1.583374,7.2606354
		C371.2606201,80.1580048,371.1495056,81.5768509,370.8987427,82.9686737z"/>
	<circle class="st1" cx="282.9637756" cy="117.254921" r="12.5222435"/>
	<circle class="st1" cx="283.229248" cy="75.5410767" r="7.0075722"/>
	<circle class="st1" cx="255.959198" cy="89.6087265" r="13.7104797"/>
	<circle class="st1" cx="325.4865417" cy="89.6087265" r="9.2723732"/>
</g>
<path class="st2" d="M380,187.9186401v389.0800171c0,44.1099854-35.8900146,80-80,80s-80-35.8900146-80-80V187.9186401
	c0-1.6599731,1.3400269-3,3-3h154C378.6599731,184.9186401,380,186.258667,380,187.9186401z"/>
<path class="st3" d="M357.0033569,187.8942871v389.1000366c0,31.4299927-25.5699463,57-57,57c-31.4299927,0-57-25.5700073-57-57
	V187.8942871H357.0033569z"/>
<path class="st4" d="M357.0033569,266.9642944v135.7399902c-3.2199707,1.9900513-6.9799805,3.1300049-10.9499512,3.1400146
	l-91.9800415,0.1500244c-4.0599976,0-7.8499756-1.1500244-11.0700073-3.1600342V286.5343018
	c24.2900391-0.0700073,36.25-6.4699707,47.8300171-12.6699829c0.9899902-0.5300293,1.9700317-1.0599976,2.9400024-1.5700073
	c1.4700317-0.7800293,2.9700317-1.5599976,4.5200195-2.3099976c8.75-4.3099976,18.8800049-7.9899902,33.2399902-8.0100098h0.1500244
	C341.7533569,261.9743042,350.0933838,263.6043091,357.0033569,266.9642944z"/>
<path class="st5" d="M357.0908813,384.7441711c0,0.2312317-0.0100708,0.4725647-0.0201416,0.7037659
	c-0.0201111,0.3317871-0.0502319,0.6735535-0.1105652,0.9952698c-0.8042603,5.3082581-5.3986816,9.3899536-10.9281006,9.3999634
	l-91.9388275,0.1508179c-6.1024475,0.0100708-11.0789185-4.9563293-11.0889893-11.0587769l-0.1005096-59.2651367
	l-0.0502472-29.1348572h0.0100555c29.0142517-0.0502625,42.4155273-8.4449463,55.5855103-15.4019165
	c9.3296509-4.9362183,18.5385742-9.1385498,33.0959473-9.1586609c12.6673889-0.0201416,20.1773071,2.7848206,25.3749084,6.5045471
	l0.0301819,19.3428345L357.0908813,384.7441711z"/>
<path class="st6" d="M356.7133789,287.8243408h0.289978v289.1699829c0,31.4299927-25.5699463,57-57,57
	c-31.4299927,0-57-25.5700073-57-57V268.4743042c6.8800049-3.2999878,15.1700439-4.9099731,25.1600342-4.9299927h0.1400146
	c12.75,0,22.0699463,2.8699951,29.9899902,6.4400024c1.6099854,0.710022,3.1499634,1.460022,4.6599731,2.2199707
	c2.0100098,1.0100098,4,2.0700073,5.9299927,3.0900269C320.4633789,281.4542847,332.4433594,287.8243408,356.7133789,287.8243408z"
	/>
<path class="st7" d="M357.0033569,438.2543335v138.7399902c0,31.4299927-25.5699463,57-57,57c-31.4299927,0-57-25.5700073-57-57
	V280.0142822c5.1700439-3.6699829,12.6500244-6.4499512,25.1800537-6.4699707
	c13.0699463-0.0200195,21.8499756,3.3499756,30.2699585,7.5900269c14.1900024,7.1399536,27.3800049,16.7399902,58.5,16.6900024
	L357.0033569,438.2543335z"/>
<path class="st5" d="M269.793396,350.8243408c-4.4100342,11.4499512-15.2200317,18.5699463-26.7900391,18.8099976v-58.7200317
	c3.3099976,0.0599976,6.6700439,0.710022,9.9400024,1.960022
	C268.0733643,318.7042847,275.6134033,335.6843262,269.793396,350.8243408z"/>
<circle class="st5" cx="295.206543" cy="393.4815369" r="18.3729248"/>
<circle class="st5" cx="330.5398865" cy="355.1481934" r="10.4468384"/>
<circle class="st5" cx="312.668396" cy="545.7220459" r="19.2122803"/>
<circle class="st5" cx="279.9228821" cy="506.4675903" r="12.2305107"/>
<path class="st5" d="M357.0033569,476.4243164v48.3499756c-3.0599976,0.0700073-6.1799927-0.4400024-9.2099609-1.6099854
	c-12.460022-4.7999878-18.6700439-18.789978-13.8800049-31.25
	C337.6734009,482.1442871,347.0933838,476.2042847,357.0033569,476.4243164z"/>
<path class="st8" d="M327.0033569,187.8942871v389.1000366c0,14.8900146-12.1099854,27-27,27c-14.8899536,0-27-12.1099854-27-27
	V187.8942871H327.0033569z"/>
<path class="st5" d="M327.0033569,262.1143188v143.7600098l-18.1699829,0.0299683l-27.0499878,0.0400391l-8.7800293,0.0199585
	V282.0842896c5.0800171-1.7099609,9.4400024-3.7799683,13.5700073-5.9199829
	c1.4700317-0.7600098,2.9100342-1.5299683,4.3400269-2.2999878c0.9899902-0.5300293,1.9699707-1.0599976,2.9400024-1.5700073
	c1.4699707-0.7800293,2.9699707-1.5599976,4.5199585-2.3099976
	C306.1533813,266.1542969,315.0333862,262.8143311,327.0033569,262.1143188z"/>
<path class="st6" d="M327.0033569,272.1343384v123.7399902l-13.5,0.0199585l-36.4199829,0.0599976l-4.0800171,0.0100098V292.5942993
	c10.4700317-3.0800171,18.0400391-7.5,25.5300293-11.4599609c3.710022-1.960022,7.4000244-3.8099976,11.4199829-5.3200073
	C314.9133911,273.9343262,320.3833618,272.5743408,327.0033569,272.1343384z"/>
<path class="st9" d="M327.0033569,283.5043335v293.4899902c0,14.8900146-12.1099854,27-27,27c-14.8899536,0-27-12.1099854-27-27
	V263.6743164c10.4400024,0.5999756,18.4400024,3.1900024,25.3699951,6.3099976
	c1.6100464,0.710022,3.1500244,1.460022,4.6600342,2.2199707c2.0100098,1.0100098,4,2.0700073,5.9299927,3.0900269
	c0.3300171,0.1699829,0.6599731,0.3499756,0.9899902,0.5200195
	C315.1333618,278.5743408,320.4633789,281.3243408,327.0033569,283.5043335z"/>
<path class="st10" d="M327.0033569,294.0043335v282.9899902c0,14.8900146-12.1099854,27-27,27c-14.8899536,0-27-12.1099854-27-27
	V273.6943359c5.1100464,0.3299561,9.5300293,1.2199707,13.5700073,2.4699707
	c4.2999878,1.3200073,8.1600342,3.0599976,11.960022,4.9700317
	C307.0233765,285.4042969,315.1633911,290.5643311,327.0033569,294.0043335z"/>
<circle class="st7" cx="295.2898865" cy="393.4815369" r="18.3729248"/>
<path class="st7" d="M327.0033569,345.3543091v19.5900269c-0.039978-0.0200195-0.0899658-0.0300293-0.1300049-0.0500488
	c-5.3899536-2.0699463-8.0699463-8.1099854-6-13.5C321.9934082,348.484314,324.2833862,346.3543091,327.0033569,345.3543091z"/>
<path class="st7" d="M327.0033569,532.8342896v25.7800293c-5.1799927,5.7199707-13.5199585,7.9699707-21.1499634,5.039978
	c-9.9100342-3.8099976-14.8400269-14.9299927-11.0300293-24.8299561
	c3.8099976-9.9100342,14.9299927-14.8400269,24.8300171-11.0300293
	C322.5633545,528.9143066,325.043396,530.6643066,327.0033569,532.8342896z"/>
<path class="st7" d="M291.4234009,510.8643188c-2.4299927,6.2999878-9.5100098,9.4400024-15.8099976,7.0200195
	c-0.9400024-0.3600464-1.8200073-0.8300171-2.6100464-1.3900146v-20.0499878
	c3.2200317-2.25,7.460022-2.9100342,11.4000244-1.3900146C290.7033691,497.484314,293.8433838,504.5543213,291.4234009,510.8643188z
	"/>
<path class="st11" d="M356.9849854,187.8942871v389.1000366c0,27.5-19.5800171,50.5199585-45.5300293,55.8399658
	c-3.6999512,0.7600098-7.539978,1.1600342-11.4699707,1.1600342c-3.9199829,0-7.75-0.4000244-11.4400024-1.1600342
	c-25.9699707-5.3099976-45.5599976-28.3299561-45.5599976-55.8399658V187.8942871h10v389.1000366c0,25.9199829,21.0800171,47,47,47
	s47-21.0800171,47-47V187.8942871H356.9849854z"/>
<path class="st12" d="M357.0150146,266.9642944v310.0300293c0,27.5100098-19.5900269,50.5299683-45.5600586,55.8399658
	c-3.6999512,0.7600098-7.539978,1.1600342-11.4699707,1.1600342c-3.9199829,0-7.75-0.4000244-11.4400024-1.1600342
	c-25.9500122-5.3200073-45.5299683-28.3399658-45.5299683-55.8399658v-290.460022
	c3.5799561-0.0100098,6.8899536-0.1599731,9.9699707-0.4299927v290.8900146c0,25.9199829,21.0800171,47,47,47s47-21.0800171,47-47
	V263.5142822c3.6199951,0.8100586,6.960022,1.960022,10,3.4400024
	C356.9949951,266.9542847,357.0050049,266.9642944,357.0150146,266.9642944z"/>
<path class="st4" d="M357.0150146,438.2543335v138.7399902c0,27.5100098-19.5900269,50.5299683-45.5600586,55.8399658
	c-3.6999512,0.7600098-7.539978,1.1600342-11.4699707,1.1600342c-3.9199829,0-7.75-0.4000244-11.4400024-1.1600342
	c-25.9500122-5.3200073-45.5299683-28.3399658-45.5299683-55.8399658v-280.460022
	c3.5499878-0.0100098,6.8599854-0.1400146,9.9699707-0.3900146v280.8500366c0,25.9199829,21.0800171,47,47,47s47-21.0800171,47-47
	V273.8043213c4.1400146,1.1699829,7.3400269,2.7999878,9.9500122,4.6699829l0.0100098,9.3500366l0.0199585,10l0.0200195,56.1699829
	L357.0150146,438.2543335z"/>
<path class="st7" d="M357.0150146,287.8243408v289.1699829c0,27.5100098-19.5900269,50.5299683-45.5600586,55.8399658
	c-3.6999512,0.7600098-7.539978,1.1600342-11.4699707,1.1600342c-3.9199829,0-7.75-0.4000244-11.4400024-1.1600342
	c-25.9500122-5.3200073-45.5299683-28.3399658-45.5299683-55.8399658V268.4743042
	c3.039978-1.460022,6.3499756-2.5899658,9.9699707-3.3900146v311.9100342c0,25.9199829,21.0800171,47,47,47s47-21.0800171,47-47
	V287.4443359c3.0200195,0.25,6.25,0.3800049,9.7399902,0.3800049H357.0150146z"/>
<path class="st5" d="M357.0200195,438.2543335v138.7399902c0,27.5100098-19.6000366,50.5299683-45.5700073,55.8399658
	c-3.6900024,0.7600098-7.5400391,1.1600342-11.4700317,1.1600342c-3.9099731,0-7.75-0.4000244-11.4400024-1.1600342
	c-25.9499512-5.3200073-45.5199585-28.3399658-45.5199585-55.8399658V280.0142822
	c2.5999756-1.8599854,5.8099976-3.4799805,9.9599609-4.6399536v301.6199951c0,25.9199829,21.0900269,47,47,47
	c25.9200439,0,47-21.0800171,47-47V297.4743042c3.1100464,0.2399902,6.4299927,0.3599854,9.9800415,0.3500366l0.0199585,56.1699829
	L357.0200195,438.2543335z"/>
<path class="st4" d="M252.9799805,312.9743042v54.7600098c-3.1499634,1.2199707-6.5199585,1.9099731-9.9599609,1.9799805
	c-0.0100098,0-0.0100098,0-0.0200195,0v-58.7199707c0.0100098,0,0.0100098,0,0.0200195,0
	c3.2999878,0.0599976,6.6599731,0.7099609,9.9199829,1.9599609
	C252.9500122,312.9642944,252.9699707,312.9642944,252.9799805,312.9743042z"/>
<path class="st4" d="M357,476.3942871v48.3500366c-3.0599976,0.0700073-6.1799927-0.4400024-9.210022-1.6099854
	c-0.2699585-0.1100464-0.539978-0.210022-0.8099976-0.3300171v-44.4700317
	C350.1099854,476.9943237,353.5300293,476.3143311,357,476.3942871z"/>
<path class="st2" d="M386.2695313,115.7642136H213.7299805c-8.3979492,0-15.2299805,6.5810547-15.2299805,14.6699295v47.7602539
	c0,8.0888672,6.8320313,14.6699219,15.2299805,14.6699219h172.5395508c8.3984375,0,15.2304688-6.5810547,15.2304688-14.6699219
	v-47.7602539C401.5,122.3452682,394.6679688,115.7642136,386.2695313,115.7642136z"/>
<path class="st13" d="M386.2695313,115.7642136h-81.2792969c-8.7231445,0-15.8203125,6.5810547-15.8203125,14.6699295v47.7602539
	c0,8.0888672,7.097168,14.6699219,15.8203125,14.6699219h81.2792969c8.3984375,0,15.2304688-6.5810547,15.2304688-14.6699219
	v-47.7602539C401.5,122.3452682,394.6679688,115.7642136,386.2695313,115.7642136z"/>
</svg>
