<?xml version="1.0" encoding="utf-8"?>
<!-- Generator: Adobe Illustrator 22.1.0, SVG Export Plug-In . SVG Version: 6.00 Build 0)  -->
<svg version="1.1" id="Layer_1" xmlns="http://www.w3.org/2000/svg" xmlns:xlink="http://www.w3.org/1999/xlink" x="0px" y="0px"
	 viewBox="0 0 600 657" style="enable-background:new 0 0 600 657;" xml:space="preserve">
<style type="text/css">
	.st0{fill:#F3F7DE;}
	.st1{fill:#9ED3D7;}
	.st2{fill:#AADCD9;}
	.st3{fill:#AF45B6;}
	.st4{fill:#C4E5DC;}
	.st5{fill:#9735A5;}
	.st6{fill:#BD4EC6;}
	.st7{fill:#842E93;}
	.st8{opacity:0.2;enable-background:new    ;}
	.st9{fill:#FFDD9D;}
	.st10{fill:#FFC98F;}
	.st11{fill:#DDEEDB;}
	.st12{fill:#CC60D8;}
</style>
<g>
	<path class="st0" d="M490.4699097,657H109.5299606c-38.0698242,0-61.869873-41.2197266-42.8300781-74.1899414
		l158.4036865-274.3653259c4.07901-7.065094,6.2264404-15.0794373,6.2264404-23.2375183v-74.8170776H368.670105v74.8171082
		c0,8.1580505,2.1473999,16.1723938,6.2264099,23.2374573l158.4034729,274.3653564
		C552.3400269,615.7802734,528.539978,657,490.4699097,657z"/>
	<path class="st1" d="M511.6500244,619.7700195C509.5299072,623.4501953,503.210083,632,490.4698486,632H109.5299225
		c-12.7399902,0-19.0600586-8.5498047-21.1799316-12.2299805c-2.1201172-3.6799316-6.3701172-13.4199219,0-24.4599609
		l67.9099121-117.6298828l8.3200684-14.3999023l0.5700684-0.9802246l0.8100586-1.4099121l4.8898926-8.4899902l23.1999512-40.1799316
		l9.0300293-15.630127l0.0800781-0.1499023l43.5898438-75.5c6.2700195-10.8500977,9.5800629-23.1999512,9.5800629-35.7299805
		v-49.8200684h87.3400879v49.8200684c0,12.5300293,3.3098145,24.8798828,9.579834,35.7299805l43.5900879,75.5l0.0800781,0.1499023
		l9.0297852,15.630127l23.2001953,40.1799316l4.8898926,8.4899902l0.8100586,1.4099121l0.5700684,0.9802246l8.3198242,14.3999023
		l67.9101563,117.6298828C518.0198975,606.3500977,513.7698975,616.0900879,511.6500244,619.7700195z"/>
	<path class="st2" d="M109.5299225,616.9995117c-3.6259766,0-6.3789063-1.5869141-8.1816406-4.7167969
		c-1.8154297-3.1494141-1.8164063-6.3378906-0.0058594-9.4765625l77.6074219-134.4130859l4.8984375-8.5068359
		l75.8915863-131.4462891c7.5810547-13.1171875,11.5898438-28.0673828,11.5898438-43.2294922v-34.8203125h57.3398438v34.8203125
		c0,15.1601563,4.0087891,30.1103516,11.5927734,43.234375L416.15979,459.8999023l6.2685547,10.8789063l76.2314453,132.03125
		c1.8085938,3.1347656,1.8076172,6.3232422-0.0068359,9.4716797c-1.8037109,3.1308594-4.5566406,4.7177734-8.1826172,4.7177734
		H109.5299225z"/>
	<path class="st3" d="M511.6500244,619.7700195C509.5299072,623.4501953,503.210083,632,490.4698486,632H109.5299225
		c-12.7399902,0-19.0600586-8.5498047-21.1799316-12.2299805c-2.1201172-3.6799316-6.3701172-13.4199219,0-24.4599609
		l67.9099121-117.6298828l8.3200684-14.3999023l0.5700684-0.9802246
		c25.4199219-1.3999023,45.6098633-5.4599609,62.8398438-10.9499512c4.6501465-1.4799805,9.0800781-3.0698242,13.3400879-4.7299805
		c15.0700531-5.8798828,27.989975-12.75,40.7299652-19.5200195c3.6101074-1.9199219,7.3400879-3.9099121,11.0400391-5.8198242
		c2.2700195-1.1801758,4.5700684-2.3500977,6.8999023-3.5102539c10.6501465-5.2998047,22.0300293-10.329834,35.1201172-14.1999512
		c3.0300293-0.8898926,6.1398926-1.7099609,9.3598633-2.4499512c12.4899902-2.9299316,26.5300293-4.7299805,42.8000488-4.7299805
		h0.4101563c3.1298828,0,6.2099609,0.0700684,9.2299805,0.1999512l9.0297852,15.630127l23.2001953,40.1799316l4.8898926,8.4899902
		l0.8100586,1.4099121l0.5700684,0.9802246l8.3198242,14.3999023l67.9101563,117.6298828
		C518.0198975,606.3500977,513.7698975,616.0900879,511.6500244,619.7700195z"/>
	<path class="st4" d="M275.7504578,368.6304932l-99.7984772,172.8560181
		c-11.1046295,19.2338257,2.7761688,43.276062,24.9854431,43.276062h199.5969391
		c22.2092896,0,36.0900879-24.0422363,24.9854431-43.276062L325.721344,368.6304932
		C314.6166992,349.396698,286.8551025,349.396698,275.7504578,368.6304932z"/>
	<path class="st5" d="M511.6500244,619.7700195C509.5299072,623.4501953,503.210083,632,490.4698486,632H109.5299225
		c-12.7399902,0-19.0600586-8.5498047-21.1799316-12.2299805c-2.1201172-3.6799316-6.3701172-13.4199219,0-24.4599609
		l67.9099121-117.6298828c23.9199219-0.6699219,43.7399902-3.5200195,60.8100586-7.7001953
		c4.4099121-1.0698242,8.6298828-2.2299805,12.6899414-3.4697266c28.660141-8.7299805,49.3600922-21.1000977,70.239975-31.9101563
		c13.4602051-6.9799805,27.0100098-13.3000488,42.8100586-17.5800781c3.0400391-0.8198242,6.1699219-1.5698242,9.4001465-2.2299805
		c10.5698242-2.1699219,22.1999512-3.4199219,35.4499512-3.3999023c6.5898438,0.0100098,12.6699219,0.3000488,18.2897949,0.8300781
		l23.2001953,40.1799316l4.8898926,8.4899902l1.380127,2.3901367l8.3198242,14.3999023l67.9101563,117.6298828
		C518.0198975,606.3500977,513.7698975,616.0900879,511.6500244,619.7700195z"/>
	<path class="st6" d="M400.539917,584.7602539H200.9400787c-22.2102051,0-36.0900879-24.0400391-24.9902344-43.2700195
		l52.0400391-90.1401367c4.6501465-1.4799805,9.0800781-3.0698242,13.3400879-4.7299805
		c15.0700531-5.8798828,27.989975-12.75,40.7299652-19.5200195c3.6101074-1.9199219,7.3400879-3.9099121,11.0400391-5.8198242
		c2.2700195-1.1801758,4.5700684-2.3500977,6.8999023-3.5102539c10.6501465-5.2998047,22.0300293-10.329834,35.1201172-14.1999512
		c3.0300293-0.8898926,6.1398926-1.7099609,9.3598633-2.4499512l81.0400391,140.3701172
		C436.6300049,560.7202148,422.7398682,584.7602539,400.539917,584.7602539z"/>
	<path class="st3" d="M400.534729,584.7602539H200.9346161c-22.2099609,0-36.0900879-24.0400391-24.9799805-43.2700195
		l41.2800293-71.5102539c4.4099121-1.0698242,8.6298828-2.2299805,12.6899414-3.4697266
		c28.6601715-8.7299805,49.3601227-21.1000977,70.2400055-31.9101563
		c13.4602051-6.9799805,27.0100098-13.3000488,42.8100586-17.5800781c3.0400391-0.8198242,6.1699219-1.5698242,9.4001465-2.2299805
		l73.1398926,126.7001953C436.6248169,560.7202148,422.7446899,584.7602539,400.534729,584.7602539z"/>
	<path class="st6" d="M511.6500244,619.7700195C509.5299072,623.4501953,503.210083,632,490.4698486,632H109.5299225
		c-12.7399902,0-19.0600586-8.5498047-21.1799316-12.2299805c-2.1201172-3.6799316-6.3701172-13.4199219,0-24.4599609
		l67.9099121-117.6298828l8.3200684-14.3999023l0.5700684-0.9802246l0.8100586-1.4099121l4.8898926-8.4899902l23.1999512-40.1799316
		l9.0300293-15.630127c3.0200195-0.1298828,6.0998535-0.1999512,9.2399902-0.1999512h0.3999023
		c16.8400879,0,31.2800293,1.9199219,44.1000824,5.0200195c2.9499512,0.7199707,5.8200684,1.5,8.6098633,2.3300781
		c12.8601074,3.8398438,24.0700684,8.7998047,34.5700684,14.0297852c2.3300781,1.1601563,4.630127,2.3300781,6.9001465,3.5102539
		c3.6899414,1.9099121,7.4299316,3.8999023,11.0400391,5.8198242C330.9200439,434,344.0899658,441,359.5198975,446.9501953
		c4.5500488,1.7600098,9.2900391,3.4199219,14.2800293,4.9599609c16.8300781,5.1999512,36.5,9.0400391,61.0500488,10.3898926
		l0.5700684,0.9802246l8.3198242,14.3999023l67.9101563,117.6298828
		C518.0198975,606.3500977,513.7698975,616.0900879,511.6500244,619.7700195z"/>
	<path class="st3" d="M511.6500244,619.7700195C509.5299072,623.4501953,503.210083,632,490.4698486,632H109.5299225
		c-12.7399902,0-19.0600586-8.5498047-21.1799316-12.2299805c-2.1201172-3.6799316-6.3701172-13.4199219,0-24.4599609
		l67.9099121-117.6298828l8.3200684-14.3999023l1.380127-2.3901367l4.8898926-8.4899902l23.1999512-40.1799316
		c5.6201172-0.5300293,11.6999512-0.8200684,18.2900391-0.8300781c13.7199707-0.0200195,25.7099609,1.3200684,36.5800781,3.6298828
		c3,0.6401367,5.9199219,1.3601074,8.7597504,2.1401367c15.5900879,4.2700195,29,10.5400391,42.3200684,17.4399414
		c21.0500488,10.8999023,41.920166,23.3798828,70.9299316,32.1201172c4.3000488,1.2998047,8.7802734,2.5097656,13.4702148,3.6298828
		c0,0,0,0,0.0100098,0c16.7299805,3.9799805,36.0998535,6.6801758,59.329834,7.3300781l67.9101563,117.6298828
		C518.0198975,606.3500977,513.7698975,616.0900879,511.6500244,619.7700195z"/>
	<path class="st5" d="M511.6500244,619.7700195C509.5299072,623.4501953,503.210083,632,490.4698486,632H109.5299225
		c-12.7399902,0-19.0600586-8.5498047-21.1799316-12.2299805c-2.1201172-3.6799316-6.3701172-13.4199219,0-24.4599609
		l67.9099121-117.6298828l8.3200684-14.3999023l0.5700684-0.9802246c6.3999023-0.3498535,12.4699707-0.869873,18.2399902-1.5500488
		l-4.4001465,7.6401367l-4.8100586,8.3398438l-72.7998047,126.0800781c-1.8100586,3.130127-1.8100586,6.3200684,0.0100098,9.4702148
		C103.1900787,615.4101563,105.9498444,617,109.5699615,617h380.9399414c3.630127,0,6.380127-1.5898438,8.1801758-4.7197266
		c1.8198242-3.1501465,1.8198242-6.3400879,0.0097656-9.4702148l-72.7897949-126.0800781l-3.4401855-5.949707l-5.7700195-10.0102539
		l-0.5-0.869873l-28.0097656-48.5100098l-8.5800781-14.8598633c2.5-0.0900879,5.0600586-0.1401367,7.6699219-0.1401367h0.4101563
		c3.1298828,0,6.2099609,0.0700684,9.2299805,0.1999512l9.0297852,15.630127l23.2001953,40.1799316l4.8898926,8.4899902
		l0.8100586,1.4099121l0.5700684,0.9802246l8.3198242,14.3999023l67.9101563,117.6298828
		C518.0198975,606.3500977,513.7698975,616.0900879,511.6500244,619.7700195z"/>
	<path class="st7" d="M511.6500244,619.7700195C509.5299072,623.4501953,503.210083,632,490.4698486,632H109.5299225
		c-12.7399902,0-19.0600586-8.5498047-21.1799316-12.2299805c-2.1201172-3.6799316-6.3701172-13.4199219,0-24.4599609
		l67.9099121-117.6298828c6.25-0.1699219,12.2099609-0.5,17.9199219-0.9501953l-72.7998047,126.0800781
		c-1.8100586,3.130127-1.8100586,6.3200684,0.0100098,9.4702148C103.1900787,615.4101563,105.9498444,617,109.5699615,617
		h380.9399414c3.630127,0,6.380127-1.5898438,8.1801758-4.7197266c1.8198242-3.1501465,1.8198242-6.3400879,0.0097656-9.4702148
		l-72.7897949-126.0800781l-3.4401855-5.949707l-5.7700195-10.0102539l-0.5-0.869873l-28.0097656-48.5100098
		c6.3898926,0.0300293,12.2897949,0.3100586,17.7597656,0.8300781l23.2001953,40.1799316l4.8898926,8.4899902l0.8100586,1.4099121
		l0.5700684,0.9802246l8.3198242,14.3999023l67.9101563,117.6298828
		C518.0198975,606.3500977,513.7698975,616.0900879,511.6500244,619.7700195z"/>
	<path class="st3" d="M511.6500244,619.7700195C509.5299072,623.4501953,503.210083,632,490.4698486,632H109.5299225
		c-12.7399902,0-19.0600586-8.5498047-21.1799316-12.2299805c-2.1201172-3.6799316-6.3701172-13.4199219,0-24.4599609
		l67.9099121-117.6298828l8.3200684-14.3999023l0.5700684-0.9802246l0.8100586-1.4099121l4.8898926-8.4899902l23.1999512-40.1799316
		l9.0300293-15.630127c3.0200195-0.1298828,6.0998535-0.1999512,9.2399902-0.1999512h0.3999023
		c2.6401367,0,5.2299805,0.0500488,7.75,0.1401367l-8.579834,14.8598633l-28,48.5l-0.5,0.8598633l-4.4001465,7.6401367
		l-4.8100586,8.3398438l-72.7998047,126.0800781c-1.8100586,3.130127-1.8100586,6.3200684,0.0100098,9.4702148
		C103.1900787,615.4101563,105.9498444,617,109.5699615,617h380.9399414c3.630127,0,6.380127-1.5898438,8.1801758-4.7197266
		c1.8198242-3.1501465,1.8198242-6.3400879,0.0097656-9.4702148l-72.7897949-126.0800781l-3.4401855-5.949707l-5.7700195-10.0102539
		c5.7402344,0.670166,11.7800293,1.1801758,18.1501465,1.5300293l0.5700684,0.9802246l8.3198242,14.3999023l67.9101563,117.6298828
		C518.0198975,606.3500977,513.7698975,616.0900879,511.6500244,619.7700195z"/>
	<path class="st5" d="M511.6500244,619.7700195C509.5299072,623.4501953,503.210083,632,490.4698486,632H109.5299225
		c-12.7399902,0-19.0600586-8.5498047-21.1799316-12.2299805c-2.1201172-3.6799316-6.3701172-13.4199219,0-24.4599609
		l67.9099121-117.6298828l37.7900391-65.4599609c5.4899902-0.5200195,11.4199219-0.8100586,17.8400879-0.8300781
		L101.3800201,602.8100586c-1.8100586,3.130127-1.8100586,6.3200684,0.0100098,9.4702148
		C103.1900787,615.4101563,105.9498444,617,109.5699615,617h380.9399414c3.630127,0,6.380127-1.5898438,8.1801758-4.7197266
		c1.8198242-3.1501465,1.8198242-6.3400879,0.0097656-9.4702148l-72.7897949-126.0800781
		c5.6799316,0.4602051,11.619873,0.7802734,17.829834,0.9501953l67.9101563,117.6298828
		C518.0198975,606.3500977,513.7698975,616.0900879,511.6500244,619.7700195z"/>
	<path class="st1" d="M336.5117798,244.3901367l-0.2307129,76.75l-1.479248-2.9599609
		c-15.4099121-26.6801758-53.9299316-26.6801758-69.3300781,0l-3.2998047,5.7199707v-79.5100098H336.5117798z"/>
	<rect x="231.2143707" y="235.3979492" class="st8" width="136.8333282" height="34.5354462"/>
	<g>
		<g>
			<path class="st9" d="M372.5810547,146.958252l-8.9202271,49.5147095
				c0.0105591,6.5343933-2.0556335,12.4457397-5.3775024,16.6395569c-3.6170959,3.8625793-8.759613,6.2906342-14.4342346,6.2998199
				l-90.4989319,0.1464691c-10.9192657,0.0176697-19.8632507-8.8974152-19.8809357-19.8167419l-8.9243469-54.3401337
				c-1.2494812-7.6080627,1.8258972-15.4164581,8.2033844-19.7490845c3.1657104-2.1506577,6.978653-3.4125824,11.0734558-3.4192123
				l109.2407227-0.1768036c2.8371887-0.0045929,5.543335,0.5958939,7.9938965,1.6788635
				c4.7854614,2.1148224,8.3250122,6.2783127,10.1393127,11.1856003c0.7894287,2.1352692,1.3353577,4.4559021,1.5898438,6.8977203
				C372.9639893,143.5317078,372.8863525,145.2635803,372.5810547,146.958252z"/>
			<path class="st10" d="M372.5904236,146.9061432l-8.9295959,49.5668182
				c0.0105591,6.5343933-2.0556335,12.4457397-5.3775024,16.6395569c-3.2492676,3.4689331-7.7164612,5.7730103-12.7025452,6.2110291
				c-0.5649109,0.0623169-1.1421204,0.0878296-1.7316895,0.0887909l-24.3688965,0.039444
				c9.4577026-0.0153198,17.1790771-10.3453369,17.1586914-22.9350891l9.2874756-51.553299
				c-0.0203552-12.5897522-7.775116-22.882431-17.2328186-22.8671265l24.3688965-0.0394363
				c2.8372192-0.0045929,5.5433655,0.5959015,7.9938965,1.6788712c4.7856445,2.1149292,8.3252869,6.2786865,10.1395264,11.186203
				c0.8624878,2.332962,1.4342651,4.8871918,1.652832,7.5789642
				C372.9681702,143.9722443,372.8521729,145.4533081,372.5904236,146.9061432z"/>
			<circle class="st10" cx="280.8002625" cy="182.6955719" r="13.0712318"/>
			<circle class="st10" cx="281.0773621" cy="139.1529236" r="7.3147945"/>
			
				<ellipse transform="matrix(0.2181528 -0.9759146 0.9759146 0.2181528 47.371685 366.8047485)" class="st10" cx="252.6117249" cy="153.8373108" rx="14.3115664" ry="14.3115578"/>
			<circle class="st10" cx="325.1872864" cy="153.8373108" r="9.6788921"/>
		</g>
		<path class="st0" d="M398.1211243,195.7125092v31.4822388c0,6.7015076-5.4801636,12.1816711-12.1816101,12.1816711H214.0605011
			c-6.7014465,0-12.1816254-5.4801636-12.1816254-12.1816711v-31.4822388c0-6.7014465,5.4801788-12.1816254,12.1816254-12.1816254
			h171.8790131C392.6409607,183.5308838,398.1211243,189.0110626,398.1211243,195.7125092z"/>
		<path class="st11" d="M398.1211243,195.7125092v31.4822388c0,6.7015076-5.4801636,12.1816711-12.1816101,12.1816711h-75.4906616
			c-6.7014465,0-12.1920471-5.4801636-12.1920471-12.1816711v-31.4822388c0-6.7014465,5.4906006-12.1816254,12.1920471-12.1816254
			h75.4906616C392.6409607,183.5308838,398.1211243,189.0110626,398.1211243,195.7125092z"/>
	</g>
	<path class="st12" d="M400.5299072,584.7602539H200.9400787c-22.2102051,0-36.0900879-24.0400391-24.9902344-43.2700195
		l80.8701019-140.0800781c2.9499512,0.7199707,5.8200684,1.5,8.6098633,2.3300781
		c12.8601074,3.8398438,24.0700684,8.7998047,34.5700684,14.0297852c2.3300781,1.1601563,4.630127,2.3300781,6.9001465,3.5102539
		c3.6899414,1.9099121,7.4299316,3.8999023,11.0400391,5.8198242C330.9200439,434,344.0899658,441,359.5198975,446.9501953
		c4.5500488,1.7600098,9.2900391,3.4199219,14.2800293,4.9599609l51.7199707,89.5800781
		C436.6199951,560.7202148,422.7398682,584.7602539,400.5299072,584.7602539z"/>
	<path class="st6" d="M403.7799072,584.5800781c-1.0698242,0.1201172-2.1699219,0.1801758-3.2900391,0.1801758H200.9000397
		c-22.2099609,0-36.0900879-24.0400391-24.9899902-43.2700195l31.5898438-54.7299805l23.6201172-40.9001465l17.8000488-30.8400879
		c3,0.6401367,5.9199219,1.3601074,8.7597504,2.1401367c15.5900879,4.2700195,29,10.5400391,42.3200684,17.4399414
		c21.0500488,10.8999023,41.920166,23.3798828,70.9299316,32.1201172c4.3000488,1.2998047,8.7802734,2.5097656,13.4702148,3.6298828
		c0,0,0,0,0.0100098,0l17.3198242,30.0100098l10.3601074,17.9399414v0.0100098l13.3898926,23.1801758
		c1.4301758,2.4799805,2.4401855,5.0297852,3.0800781,7.5998535C432.6199951,565.5,421.289917,582.6501465,403.7799072,584.5800781z
		"/>
	<circle class="st5" cx="219.4449615" cy="466.3901367" r="23.625"/>
	<circle class="st3" cx="267.6949463" cy="490.6401367" r="16.625"/>
	<circle class="st3" cx="238.9449615" cy="527.8901367" r="10.75"/>
	<circle class="st5" cx="423.9449463" cy="572.2651367" r="23.625"/>
	<circle class="st3" cx="375.6949463" cy="548.0151367" r="16.625"/>
	<circle class="st5" cx="404.4449463" cy="510.7651367" r="10.75"/>
	<path class="st3" d="M243.0699615,466.3901367c0,13.0500488-10.5800781,23.6201172-23.6201172,23.6201172
		c-4.3598633,0-8.4499512-1.1801758-11.9499512-3.25l23.6201172-40.9001465
		C238.259903,449.9101563,243.0699615,457.5900879,243.0699615,466.3901367z"/>
	<path class="st3" d="M403.7799072,584.5800781c-2.1899414-3.5800781-3.4599609-7.7998047-3.4599609-12.3100586
		c0-13.0498047,10.5800781-23.6298828,23.6298828-23.6298828c1.5800781,0,3.1201172,0.1599121,4.6101074,0.4499512
		C432.6199951,565.5,421.289917,582.6501465,403.7799072,584.5800781z"/>
	<path class="st3" d="M412.0899658,518.3000488v0.0100098c-1.9399414,1.9799805-4.6499023,3.2001953-7.6401367,3.2001953
		c-5.9399414,0-10.7597656-4.8100586-10.7597656-10.7402344c0-5,3.4199219-9.2099609,8.0397949-10.4099121L412.0899658,518.3000488z
		"/>
</g>
</svg>
