<?xml version="1.0" encoding="utf-8"?>
<!-- Generator: Adobe Illustrator 22.1.0, SVG Export Plug-In . SVG Version: 6.00 Build 0)  -->
<svg version="1.1" id="Layer_1" xmlns="http://www.w3.org/2000/svg" xmlns:xlink="http://www.w3.org/1999/xlink" x="0px" y="0px"
	 viewBox="0 0 600 667" style="enable-background:new 0 0 600 667;" xml:space="preserve">
<style type="text/css">
	.st0{fill:#C4E5DC;}
	.st1{fill:#DDEEDB;}
	.st2{fill:#F3F7DE;}
	.st3{fill:#AADCD9;}
	.st4{fill:#9ED3D7;}
	.st5{opacity:0.2;fill:#FFFFFF;mix-blend-mode:soft-light;}
	.st6{fill:#2D2D2D;}
	.st7{fill:#1E1E1E;}
	.st8{fill:#373737;}
	.st9{fill:#141414;}
	.st10{fill:#F1F5D7;}
	.st11{fill:#D6EBD4;}
	.st12{fill:#B8E0D5;}
	.st13{opacity:0.25;fill:#FFFFFF;mix-blend-mode:soft-light;}
</style>
<g>
	<path class="st0" d="M521.100708,314.3745117l-94.2744751,325.362793C422.1673279,655.7930298,407.2514038,667,390.535675,667
		H209.4642029c-16.7152405,0-31.6311493-11.2069702-36.2900543-27.2626953l-94.2749786-325.362793
		c-3.5688629-12.3365479-1.8891373-25.7631226,4.6188812-36.8399658l68.9917145-117.4384308
		c7.3481293-12.5066528,20.9343262-20.2845917,35.4402008-20.2845917h224.0999603
		c14.5058594,0,28.0925598,7.7679291,35.4406738,20.2845917l68.9912109,117.4384308
		C522.9903564,288.6113892,524.6695557,302.0379639,521.100708,314.3745117z"/>
	<path class="st1" d="M458.1176147,314.3745117l-94.2744751,325.362793C359.1842346,655.7930298,344.2683411,667,327.5526123,667
		H209.4642029c-16.7152405,0-31.6311493-11.2069702-36.2900543-27.2626953l-94.2749786-325.362793
		c-3.5688629-12.3365479-1.8891373-25.7631226,4.6188812-36.8399658l68.9917145-117.4384308
		c7.3481293-12.5066528,20.9343262-20.2845917,35.4402008-20.2845917h161.1168671
		c14.5058899,0,28.0925598,7.7679291,35.4406738,20.2845917l68.9912415,117.4384308
		C460.0072632,288.6113892,461.6864929,302.0379639,458.1176147,314.3745117z"/>
	<path class="st2" d="M412.4599609,314.3745117l-94.2749634,325.362793C313.5363464,655.7930298,298.6106567,667,281.894928,667
		h-72.4307251c-16.7152405,0-31.6311493-11.2069702-36.2900543-27.2626953l-94.2749786-325.362793
		c-3.5688629-12.3365479-1.8891373-25.7631226,4.6188812-36.8399658l68.9917145-117.4384308
		c7.3481293-12.5066528,20.9343262-20.2845917,35.4402008-20.2845917h115.4592133
		c14.5161133,0,28.0925598,7.7679291,35.4406738,20.2845917l69.0010071,117.4384308
		C414.3491211,288.6113892,416.039093,302.0379639,412.4599609,314.3745117z"/>
	<path class="st3" d="M497.0871582,307.4164124l-12.0968628,41.7487793l-4.4685364,15.4258118l-77.7095947,268.1882324
		c-1.5791626,5.4682617-6.5880737,9.227478-12.2764893,9.227478H209.4642029c-5.6884155,0-10.6968384-3.7592163-12.2764893-9.227478
		l-75.8394928-261.7597961l-7.1684875-24.7433472l-11.2665024-38.8596802
		c-1.6797256-5.7884827-0.9001465-12.0167847,2.1493225-17.2153625l3.5786285-6.0884399l11.2972641-19.224823l54.1255951-92.1351624
		c2.8888702-4.9185944,8.1774902-7.9478149,13.8859253-7.9478149h224.0999603
		c5.7084351,0,10.9970398,3.0292206,13.8864136,7.9478149l49.2767944,83.8776245l10.5767517,18.0049133l9.1479187,15.5658875
		C497.9868164,295.3996277,498.7668762,301.6279297,497.0871582,307.4164124z"/>
	<path class="st4" d="M497.1014099,307.4164124l-94.2744751,325.3628235
		c-0.0400391,0.1498413-0.0903015,0.2996826-0.1498718,0.4398193c-0.0102539,0.0497437-0.0302734,0.0897827-0.0502625,0.1400757
		c-0.0698242,0.2597046-0.1698914,0.5096436-0.2797241,0.7498169c-0.0400391,0.1098022-0.0903015,0.2196655-0.1303406,0.3197021
		c-0.0795593,0.2001343-0.1796265,0.3900757-0.2796936,0.5799561c-0.2201538,0.4398193-0.4700928,0.869873-0.7498169,1.2794189
		c-0.0898132,0.1600952-0.2098999,0.3202515-0.3299866,0.4798584c-0.2401733,0.3300171-0.4998474,0.6502075-0.7795715,0.9597168
		c-0.110321,0.1303101-0.2201538,0.249939-0.3402405,0.380249c-0.2299194,0.2396851-0.4798584,0.4696045-0.7297974,0.6995239
		c-0.1898804,0.1698608-0.3997803,0.3500366-0.6096802,0.4998779c-2.1893616,1.7094727-4.9288635,2.6994629-7.8577576,2.6994629
		h-73.0902405c0.2694702-0.7498169,0.5194092-1.4995728,0.739563-2.2694092l82.1078186-283.3540649l4.1687927-14.3760376
		l8.0081177-27.6326904c3.5791016-12.3365479,1.879364-25.7631226-4.618866-36.8399658l-5.5385742-9.4273987l-8.357605-14.2261658
		l-52.3262939-89.0761719h70.4215393c5.7181702,0,10.9970398,3.0292206,13.8961487,7.9478149l49.266571,83.8776245
		l10.57724,18.0049133l9.1474304,15.5658875c0.3700256,0.6399841,0.7102661,1.2897034,1.0197449,1.9596863
		c0.5101318,1.1095581,0.9299316,2.2493896,1.2398987,3.4190063
		C498.2510071,299.4285583,498.2309875,303.5175476,497.1014099,307.4164124z"/>
	<path class="st5" d="M102.8707123,307.4164124l94.2749634,325.3628235c1.5894165,5.4682617,6.5880737,9.227478,12.2867432,9.227478
		h73.0902252c-0.269928-0.7498169-0.5198669-1.4995728-0.7395325-2.2694092l-94.2847443-325.362793
		c-3.5791168-12.3365479-1.8793793-25.7631226,4.6188812-36.8399658l66.2219543-112.7297363h-70.4210205
		c-5.718689,0-10.9970551,3.0292206-13.8961792,7.9478149l-68.9917145,117.4484253
		C101.9710464,295.3996277,101.1914749,301.6279297,102.8707123,307.4164124z"/>
	<path class="st6" d="M497.0871582,307.4164124l-12.0968628,41.7487793l-4.4685364,15.4258118l-77.7095947,268.1882324
		c-1.5791626,5.4682617-6.5880737,9.227478-12.2764893,9.227478H209.4642029c-5.6884155,0-10.6968384-3.7592163-12.2764893-9.227478
		l-75.8394928-261.7597961l-7.1684875-24.7433472l4.3791962-0.3399963
		c76.1694794-5.818512,118.6082764-28.5521545,159.6368103-50.5462341
		c3.7792664-2.0195007,7.5180054-4.0189514,11.2572327-5.9984131c2.3792419-1.2598877,4.6486511-2.4395142,6.8179932-3.559082
		c7.7181396-3.9889221,14.2461853-7.1880188,20.5643005-10.0673828
		c23.9935608-10.946991,57.9346313-23.5236969,107.8514099-23.6135254h0.4300537
		c18.6048584,0,35.1404724,1.4693451,50.096405,4.4787903l10.5767517,18.0049133l9.1479187,15.5658875
		C497.9868164,295.3996277,498.7668762,301.6279297,497.0871582,307.4164124z"/>
	<path class="st7" d="M497.0871582,307.4164124l-16.5653992,57.1745911l-77.7095947,268.1882324
		c-1.5791626,5.4682617-6.5880737,9.227478-12.2764893,9.227478H209.4642029c-5.6884155,0-10.6968384-3.7592163-12.2764893-9.227478
		l-75.8394928-261.7597961l-1.6494598-10.1271667c86.4962921-6.6083374,131.9743195-34.5708008,176.762085-58.2445984
		c8.7979431-4.6486511,17.5656128-9.1174316,26.6032104-13.24646
		c28.122345-12.8263855,58.9538879-22.1739502,101.6523743-22.2537842
		c25.0933838-0.0302734,44.9581604,2.7990723,61.0734558,7.4877319l9.1479187,15.5658875
		C497.9868164,295.3996277,498.7668762,301.6279297,497.0871582,307.4164124z"/>
	<path class="st8" d="M484.9902954,349.1651917l-4.4685364,15.4258118l-77.7095947,268.1882324
		c-1.5791626,5.4682617-6.5880737,9.227478-12.2764893,9.227478H209.4642029c-5.6884155,0-10.6968384-3.7592163-12.2764893-9.227478
		l-75.8394928-261.7597961l-7.1684875-24.7433472l-11.2665024-38.8596802
		c-1.6797256-5.7884827-0.9001465-12.0167847,2.1493225-17.2153625l3.5786285-6.0884399l11.2972641-19.224823
		c17.2653809-4.4087219,36.8099365-6.5880737,59.2340851-6.618103h0.5399017
		c36.8201904,0,68.0315247,6.3384094,101.2228088,20.5545349c4.8385315,2.0592651,9.9070129,4.3787231,15.3357239,7.0081482
		c2.2493896,1.0797729,4.5588379,2.2293701,6.9380798,3.4290161c11.1268921,5.588562,21.7441711,12.046814,32.9813843,18.8847961
		c34.2007751,20.7844543,69.5613708,42.2886963,124.556366,42.2886963c6.0184021,0,12.256958-0.2599487,18.5252991-0.7895813
		L484.9902954,349.1651917z"/>
	<path class="st6" d="M480.5257874,364.5910034l-73.7702332,254.5917358l-3.9388733,13.5964966
		c-1.5796509,5.4682617-6.5880737,9.227478-12.2764893,9.227478H209.4687042c-5.6884155,0-10.6973267-3.7592163-12.2764893-9.227478
		l-3.9393616-13.5964966l-71.9006119-248.1632996l-18.4349899-63.6030273
		c-1.6797256-5.7884827-0.8996658-12.0167847,2.1493225-17.2153625l3.5791168-6.0884399
		c17.625145-6.6080933,40.2889862-10.8069153,70.5513611-10.8469543
		c39.7490845-0.0700378,69.2313995,7.9478149,95.834137,19.3446655c7.308075,3.1092834,14.3960266,6.4884949,21.4341736,10.0373535
		C344.4524841,326.781311,389.8201599,372.1590271,480.5257874,364.5910034z"/>
	<circle class="st7" cx="239.940506" cy="564.9473267" r="21.3276043"/>
	<circle class="st7" cx="284.0119934" cy="587.1080322" r="10.4971809"/>
	<path class="st7" d="M497.091156,307.4164124l-12.096344,41.7487793l-4.4690247,15.4258118l-77.7091064,268.1882324
		c-0.0400391,0.1498413-0.0898132,0.289917-0.1396179,0.4398193c-0.0102539,0.0497437-0.0302734,0.0897827-0.0502625,0.1400757
		c-0.0800781,0.249939-0.1698914,0.5096436-0.2797241,0.7498169c-0.0400391,0.1098022-0.0903015,0.2196655-0.1303406,0.3197021
		c-0.0898132,0.2001343-0.1796265,0.3900757-0.2796936,0.5799561c-0.2201538,0.4398193-0.4700928,0.869873-0.7498169,1.2794189
		c-0.1000671,0.1698608-0.2098999,0.3202515-0.3299866,0.4798584c-0.2401733,0.3300171-0.4998474,0.6502075-0.7795715,0.9597168
		c-0.110321,0.1303101-0.2201538,0.249939-0.3402405,0.380249c-0.2299194,0.2396851-0.4798584,0.4696045-0.7297974,0.6995239
		c-0.1898804,0.1698608-0.3997803,0.3500366-0.6096802,0.4998779c-2.1893616,1.7094727-4.9288635,2.6994629-7.8577576,2.6994629
		h-73.0902405c0.2694702-0.7498169,0.5194092-1.4995728,0.739563-2.2694092l82.1078186-283.3540649l4.1687927-14.3760376
		l8.0081177-27.6326904c3.5791016-12.3365479,1.879364-25.7631226-4.618866-36.8399658l-5.5385742-9.4273987l-8.357605-14.2261658
		c9.5072021-1.0797882,19.734436-1.7095032,30.7314758-1.7295227h0.4300842c18.6048584,0,35.1404419,1.4693451,50.096405,4.4787903
		l10.57724,18.0049133l9.1474304,15.5658875c0.3700256,0.6399841,0.7102661,1.2897034,1.0197449,1.9596863
		c0.5101318,1.1095581,0.9196777,2.2493896,1.2398987,3.4190063
		C498.2412415,299.4285583,498.2212219,303.5175476,497.091156,307.4164124z"/>
	<circle class="st7" cx="167.8961182" cy="368.9371643" r="31.9914074"/>
	<circle class="st7" cx="217.4981232" cy="315.6827698" r="16.3289471"/>
	<path class="st9" d="M497.091156,307.4164124l-12.096344,41.7487793l-4.4690247,15.4258118l-77.7091064,268.1882324
		c-0.0400391,0.1498413-0.0898132,0.289917-0.1396179,0.4398193c-0.0102539,0.0497437-0.0302734,0.0897827-0.0502625,0.1400757
		c-0.0800781,0.249939-0.1698914,0.5096436-0.2797241,0.7498169c-0.0400391,0.1098022-0.0903015,0.2196655-0.1303406,0.3197021
		c-0.0898132,0.2001343-0.1796265,0.3900757-0.2796936,0.5799561c-0.2201538,0.4398193-0.4700928,0.869873-0.7498169,1.2794189
		c-0.1000671,0.1698608-0.2098999,0.3202515-0.3299866,0.4798584c-0.2401733,0.3300171-0.4998474,0.6502075-0.7795715,0.9597168
		c-0.110321,0.1303101-0.2201538,0.249939-0.3402405,0.380249c-0.2299194,0.2396851-0.4798584,0.4696045-0.7297974,0.6995239
		c-0.1898804,0.1698608-0.3997803,0.3500366-0.6096802,0.4998779c-2.1893616,1.7094727-4.9288635,2.6994629-7.8577576,2.6994629
		h-73.0902405c0.2694702-0.7498169,0.5194092-1.4995728,0.739563-2.2694092l82.1078186-283.3540649l4.1687927-14.3760376
		l8.0081177-27.6326904c3.5791016-12.3365479,1.879364-25.7631226-4.618866-36.8399658l-5.5385742-9.4273987
		c7.1084595-0.6199646,14.5561523-0.9499512,22.4041443-0.9597168c25.0933533-0.0302734,44.9576416,2.7990723,61.0734558,7.4877319
		l9.1474304,15.5658875c0.3700256,0.6399841,0.7102661,1.2897034,1.0197449,1.9596863
		c0.5101318,1.1095581,0.9196777,2.2493896,1.2398987,3.4190063
		C498.2412415,299.4285583,498.2212219,303.5175476,497.091156,307.4164124z"/>
	<path class="st6" d="M484.994812,349.1651917l-4.4690247,15.4258118l-77.7091064,268.1882324
		c-0.0400391,0.1498413-0.0898132,0.289917-0.1396179,0.4398193c-0.0102539,0.0497437-0.0302734,0.0897827-0.0502625,0.1400757
		c-0.0800781,0.249939-0.1698914,0.5096436-0.2797241,0.7498169c-0.0400391,0.1098022-0.0903015,0.2196655-0.1303406,0.3197021
		c-0.0898132,0.2001343-0.1796265,0.3900757-0.2796936,0.5799561c-0.2201538,0.4398193-0.4700928,0.869873-0.7498169,1.2794189
		c-0.1000671,0.1698608-0.2098999,0.3202515-0.3299866,0.4798584c-0.2401733,0.3300171-0.4998474,0.6502075-0.7795715,0.9597168
		c-0.110321,0.1303101-0.2201538,0.249939-0.3402405,0.380249c-0.2299194,0.2396851-0.4798584,0.4696045-0.7297974,0.6995239
		c-0.1898804,0.1698608-0.3997803,0.3500366-0.6096802,0.4998779c-2.1893616,1.7094727-4.9288635,2.6994629-7.8577576,2.6994629
		h-73.0902405c0.2694702-0.7498169,0.5194092-1.4995728,0.739563-2.2694092l82.1078186-283.3540649l4.1687927-14.3760376
		c16.5258484,5.1785583,34.9305725,8.4276733,56.2851868,8.4276733c6.0184021,0,12.2564697-0.2599487,18.5248108-0.7895813
		L484.994812,349.1651917z"/>
	<path class="st7" d="M480.5257874,364.5910034l-73.7702332,254.5917358l-3.9388733,13.5964966
		c-0.0400391,0.1498413-0.0898132,0.289917-0.1396179,0.4398193c-0.0102539,0.0497437-0.0302734,0.0897827-0.0502625,0.1400757
		c-0.0800781,0.249939-0.1698914,0.5096436-0.2797241,0.7498169c-0.0400391,0.1098022-0.0903015,0.2196655-0.1303406,0.3197021
		c-0.0898132,0.2001343-0.1796265,0.3900757-0.2796936,0.5799561c-0.2201538,0.4398193-0.4700928,0.869873-0.7498169,1.2794189
		c-0.1000671,0.1698608-0.2098999,0.3202515-0.3299866,0.4798584c-0.2401733,0.3300171-0.4998474,0.6502075-0.7795715,0.9597168
		c-0.110321,0.1303101-0.2201538,0.249939-0.3402405,0.380249c-0.2299194,0.2396851-0.4798584,0.4696045-0.7297974,0.6995239
		c-0.1898804,0.1698608-0.3997803,0.3500366-0.6096802,0.4998779c-2.1893616,1.7094727-4.9288635,2.6994629-7.8577576,2.6994629
		h-73.0902405c0.2694702-0.7498169,0.5194092-1.4995728,0.739563-2.2694092l5.9583435-20.5545654l76.1494751-262.7994995
		C422.8913574,363.451416,448.964447,367.2203979,480.5257874,364.5910034z"/>
	<g>
		<polygon class="st10" points="383.8099365,139.8160858 352.1385193,139.8858948 301.8319702,139.9959717 292.3745422,140.0159912
			200.7292328,140.1660919 200.7857819,110.542038 388.7486877,110.5532761 		"/>
		<path class="st11" d="M381.7505493,110.6988602l0.0599365,29.3957291l-9.6773376,0.0702972l-63.3030701,0.1108398
			c-3.0975037,0-5.4685059-4.0971832-5.4785156-8.3452606l-0.0299988-13.0217133
			c-0.0100098-4.6707993,2.8493042-8.3588715,6.3883972-8.3588715c0,0,53.9169617-0.007843,54.0454407-0.007843
			C363.7554016,110.6060867,381.7505493,110.6988602,381.7505493,110.6988602z"/>
		<path class="st12" d="M398.8059082,140.1058502l-44.6679382,0.069809c-2.959259,0-5.0987244-4.1387939-5.1086121-8.1577301
			l-0.0299988-13.0665588c0-4.4685211,2.6375427-8.3975677,6.0582886-8.3975677
			c0.1105347,0,43.6883545-0.0100861,43.6883545-0.0100861L398.8059082,140.1058502z"/>
	</g>
	<g>
		<path class="st10" d="M387.8421326,15.9035988v21.6542168c0,4.5787277-4.4987793,8.3277206-9.9973145,8.3277206H222.5466919
			c-5.4985199,0-9.9973145-3.7489929-9.9973145-8.3277206V15.9035988c0-4.5887327,4.4987946-8.3377266,9.9973145-8.3377266
			h155.2981262C383.3433533,7.5658727,387.8421326,11.3148661,387.8421326,15.9035988z"/>
		<path class="st12" d="M387.8421326,15.9035988v21.6542168c0,4.5787277-4.4987793,8.3277206-9.9973145,8.3277206H340.723175
			c-5.4985046,0-9.9973145-3.7489929-9.9973145-8.3277206V15.9035988c0-4.5887327,4.4988098-8.3377266,9.9973145-8.3377266
			h37.1216431C383.3433533,7.5658727,387.8421326,11.3148661,387.8421326,15.9035988z"/>
		<path class="st11" d="M355.8525085,15.9003487v21.6540947c0,4.5788498-4.4988098,8.3278427-9.9973145,8.3278427h-44.828064
			c5.4985352,0,9.9973145-3.7489929,9.9973145-8.3278427V15.9003487c0-4.5888557-4.4987793-8.3378487-9.9973145-8.3378487h44.828064
			C351.3536987,7.5625,355.8525085,11.3114929,355.8525085,15.9003487z"/>
		<path class="st2" d="M425.1239319,94.4440918c0.0100098,4.298645-1.6596985,8.3476105-4.6889343,11.3868332
			c-3.0289612,3.0392227-7.0679016,4.7187042-11.3668213,4.7287064H178.9400635
			c-2.9691772,0-5.5285492-0.7698059-7.608078-2.1393127c-1.4395447-0.9396896-2.6491852-2.1595764-3.6088867-3.6091385
			c-1.7995605-2.6792145-2.7492676-6.1182327-2.7595062-9.927269l-0.0798187-51.6860657
			c-0.0100098-4.1788101,1.5596466-8.1079292,4.4387512-11.1071243c0.0800476-0.0898209,0.1598663-0.179884,0.2499237-0.2699471
			c0.1300964-0.1298485,0.2599487-0.2599411,0.4000397-0.3797817l0.1798859-0.1801262
			c2.9491577-2.729248,6.7481842-4.5085564,10.7771454-4.5188065h228.7783966
			c8.5977783,0.380024,15.3159485,7.4181728,15.3259583,16.0157185L425.1239319,94.4440918z"/>
		<path class="st0" d="M435.1162415,94.4482422c0.0100098,4.2986526-1.6596069,8.3476105-4.6886902,11.3868332
			c-3.0292053,3.0392227-7.0681763,4.7187042-11.3670654,4.728714H313.6688843c0.309967,0,0.619812-0.0100098,0.929657-0.0300217
			h0.0400391c0.309967-0.0200119,0.6098328-0.0400314,0.909668-0.0898209c0.0100098,0.0097656,0.0300293,0.0097656,0.0400391,0
			c3.5690918-0.4300613,6.8782654-2.0297318,9.4475098-4.6088715c3.0291138-3.0392227,4.6987-7.0881805,4.6888123-11.3868332
			l-0.0100098-8.5677643v-0.0800552L329.6545715,51.92939v-0.0898209l-0.0100098-9.0776367
			c-0.0100098-8.5977898-6.7381897-15.6356945-15.335968-16.0157204h105.3918457
			c8.5975647,0.3800259,15.3257141,7.4179306,15.3357239,16.0157204L435.1162415,94.4482422z"/>
		<path class="st1" d="M370.6721191,94.443985c0.0100098,4.2987747-1.6594543,8.3476105-4.6886597,11.3868332
			c-3.0292358,3.0392227-7.0679321,4.7187042-11.3668213,4.728714h-44.4102173
			c4.2988892-0.0100098,8.3378296-1.6894913,11.3670654-4.728714c3.0292053-3.0392227,4.6186218-7.0880585,4.6086121-11.3868332
			V42.7577934c-0.0097656-8.5976639-6.737915-15.6358147-15.3357239-16.0157166h44.4099731
			c8.5977783,0.3799019,15.3259583,7.4180527,15.335968,16.0157166L370.6721191,94.443985z"/>
		<path class="st3" d="M400.1504211,78.9780273c0,3.6891937-2.979187,6.6883926-6.6781311,6.6983948l-67.2819824,0.1298523
			l-21.4441833,0.0300217h-2.8490906l-105.3318329,0.1701202c-3.6989594,0.009758-6.6881409-2.9794235-6.6981506-6.6783829
			l-0.030014-20.5843163c-0.0100098-3.6891937,2.9791718-6.6883888,6.6681213-6.6983948l93.4448853-0.1498642l14.7960815-0.0200119
			l21.4441833-0.0300217l67.2319336-0.1300926c2.5793762-0.0097618,4.8187866,1.4498062,5.9285889,3.5891228
			c0.099823,0.1798859,0.1898804,0.370018,0.269928,0.5699158c0.079834,0.1698761,0.1398621,0.3397522,0.1999207,0.5298882
			c0.1898804,0.629715,0.2999573,1.2996979,0.2999573,1.9894562L400.1504211,78.9780273z"/>
		<path class="st4" d="M400.1504211,78.9780273c0,3.6891937-2.979187,6.6883926-6.6781311,6.6983948L326.18396,85.8062744
			l-0.0029602-33.9608498l67.2412415-0.1300926c2.5793762-0.0097618,4.8187866,1.4498062,5.9285889,3.5891228
			c0.099823,0.1798859,0.1898804,0.370018,0.269928,0.5699158c0.079834,0.1698761,0.1398621,0.3397522,0.1999207,0.5298882
			c0.1898804,0.629715,0.2999573,1.2996979,0.2999573,1.9894562L400.1504211,78.9780273z"/>
	</g>
	<path class="st7" d="M406.7555542,619.1827393l-3.9388733,13.5964966c-1.5796509,5.4682617-6.5880737,9.227478-12.2764893,9.227478
		H209.4687042c-5.6884155,0-10.6973267-3.7592163-12.2764893-9.227478l-3.9393616-13.5964966H406.7555542z"/>
	<path class="st9" d="M406.7555542,619.1827393l-3.9388733,13.5964966c-0.0400391,0.1498413-0.0898132,0.289917-0.1396179,0.4398193
		c-0.0102539,0.0497437-0.0302734,0.0897827-0.0502625,0.1400757c-0.0800781,0.249939-0.1698914,0.5096436-0.2797241,0.7498169
		c-0.0400391,0.1098022-0.0903015,0.2196655-0.1303406,0.3197021c-0.0898132,0.2001343-0.1796265,0.3900757-0.2796936,0.5799561
		c-0.2201538,0.4398193-0.4700928,0.869873-0.7498169,1.2794189c-0.1000671,0.1698608-0.2098999,0.3202515-0.3299866,0.4798584
		c-0.2401733,0.3300171-0.4998474,0.6502075-0.7795715,0.9597168c-0.110321,0.1303101-0.2201538,0.249939-0.3402405,0.380249
		c-0.2299194,0.2396851-0.4798584,0.4696045-0.7297974,0.6995239c-0.1898804,0.1698608-0.3997803,0.3500366-0.6096802,0.4998779
		c-2.1893616,1.7094727-4.9288635,2.6994629-7.8577576,2.6994629h-73.0902405
		c0.2694702-0.7498169,0.5194092-1.4995728,0.739563-2.2694092l5.9583435-20.5545654H406.7555542z"/>
	<path class="st13" d="M148.623642,302.5236206h0.0000305c7.7864075-2.2447205,15.9182434,2.2476807,18.1629639,10.0340576
		l55.0622559,190.9967651c2.2447357,7.786377-2.2476807,15.9182129-10.0340729,18.1629639h-0.0000305
		c-7.7863922,2.244751-15.9182281-2.2476807-18.1629639-10.0340881l-55.0622406-190.9967346
		C136.3448486,312.9002075,140.8372498,304.7683716,148.623642,302.5236206z"/>
	<path class="st13" d="M234.0422516,545.9115601l10.5776367,36.6791382
		c2.2407074,7.7824097-2.2494812,15.9119873-10.0411224,18.1566162c-7.1991425,2.0791016-14.6965942-1.6157227-17.5616913-8.3387451
		c-0.1096954-0.2574463-0.2102509-0.5189209-0.30159-0.7843018l-0.0195618-0.0459595l-10.6208649-36.8564453
		c-2.2444-7.791748,2.2457733-15.9213257,10.0374146-18.1659546
		C223.6624756,534.3817749,231.5435181,538.543396,234.0422516,545.9115601z"/>
	<circle class="st7" cx="338.2474365" cy="405.8234253" r="31.9914074"/>
	<circle class="st7" cx="366.9064026" cy="475.8046265" r="21.3276043"/>
	<circle class="st7" cx="319.252533" cy="514.1276855" r="12.6632652"/>
</g>
</svg>
