<?xml version="1.0" encoding="utf-8"?>
<!-- Generator: Adobe Illustrator 22.1.0, SVG Export Plug-In . SVG Version: 6.00 Build 0)  -->
<svg version="1.1" id="Layer_1" xmlns="http://www.w3.org/2000/svg" xmlns:xlink="http://www.w3.org/1999/xlink" x="0px" y="0px"
	 viewBox="0 0 600 657" style="enable-background:new 0 0 600 657;" xml:space="preserve">
<style type="text/css">
	.st0{fill:#F1F5D7;}
	.st1{fill:#D6EBD4;}
	.st2{fill:#B8E0D5;}
	.st3{fill:#F3F7DE;}
	.st4{fill:#DDEEDB;}
	.st5{fill:#C4E5DC;}
	.st6{fill:#AADCD9;}
	.st7{fill:#9ED3D7;}
	.st8{fill:#FFB957;}
	.st9{fill:#F7914F;}
	.st10{fill:#FFD889;}
	.st11{fill:#F26F51;}
	.st12{fill:#FEC763;}
	.st13{opacity:0.5;fill:#FFFFFF;mix-blend-mode:soft-light;}
	.st14{fill:#F99D5C;}
</style>
<g>
	<polygon class="st0" points="366.7655334,206.1998138 275.3236084,206.3954468 198.6686554,206.5519867 198.6186676,181.8145294
		366.7055664,181.4622803 366.7055664,181.6188965 	"/>
	<path class="st1" d="M366.3496399,206.3033142l-80.6296082,0.1688995
		c-3.5376282,0.0075989-6.4102478-3.7430878-6.4164734-8.3777313l-0.0374756-7.9763184
		c-0.0062256-4.6354218,2.8572388-8.3996124,6.3954468-8.4072113l80.6296387-0.1689148
		c3.5376282-0.0075989,6.4102478,3.7430878,6.4164734,8.3777466l0.0374756,7.9763184
		C372.7513428,202.5315094,369.8878479,206.2957153,366.3496399,206.3033142z"/>
	<path class="st2" d="M401.4104309,206.4406738h-65.0330505c-3.5273743,0-6.3883667-3.7276001-6.3934937-8.3302155
		l-0.0314026-8.0665741c-0.0051575-4.6066895,2.8523254-8.3468781,6.382843-8.3545685l65.0481262-0.1157379
		c0,0.8517609-0.0137634,7.2541962-0.0137634,8.3302612L401.4104309,206.4406738z"/>
	<path class="st3" d="M492.212616,657H107.7983475c-24.8051758,0-43.9315338-21.8455811-40.6621552-46.4307861
		l49.1104431-368.6373596c2.7094269-20.3759918,20.096138-35.5930939,40.6519089-35.5930939h284.4239502
		c20.8960266,0,38.4526062,15.7169952,40.7619934,36.4828033l50.8901062,368.6374817
		C535.6640015,635.7542114,516.6477661,657,492.212616,657z"/>
	<path class="st4" d="M491.8325806,657H327.8648682c17.10672,0,31.553833-10.4178467,37.7625732-24.9950562
		c2.6593933-6.2487793,3.8093262-13.2574463,2.9994202-20.5458984l-40.8918457-368.6374817
		c-0.4498596-4.049118-1.4797058-7.9083557-3.0094299-11.4877167
		c-6.2687683-14.8070221-20.9260559-24.9950867-37.7525635-24.9950867H440.942688
		c20.8957825,0,38.4523926,15.7169952,40.7619934,36.4828033l50.8898621,368.6374817
		C535.2842407,635.7542114,516.2679443,657,491.8325806,657z"/>
	<path class="st5" d="M492.212616,657H377.6851196c17.1067505,0,31.5538635-10.4178467,37.7626038-24.9950562
		c2.6593628-6.2487793,3.8092957-13.2574463,2.9993896-20.5458984l-40.8920898-368.6374817
		c-0.4498596-4.049118-1.4796753-7.9083557-3.0091553-11.4877167
		c-6.2687988-14.8070221-20.9260559-24.9950867-37.7528381-24.9950867h104.52948
		c20.8960266,0,38.4526062,15.7169952,40.7619934,36.4828033l50.8901062,368.6374817
		C535.6640015,635.7542114,516.6477661,657,492.212616,657z"/>
	<path class="st6" d="M106.6681442,632.0020142c-6.321022,0-10.2636032-3.4241333-12.0513382-5.4657593
		c-1.7867584-2.0415649-4.6611862-6.4020386-3.8263931-12.6674194l49.1065445-368.6363525
		c1.0554504-7.9251862,7.8812561-13.9015503,15.8767548-13.9015503l284.4205322-0.0009766
		c8.1741638,0,15.0185242,6.1267242,15.9197083,14.2510986l40.8913879,368.6363525
		c0.6863708,6.1911621-2.2026978,10.4578857-3.9855652,12.449707c-1.7838135,1.9917603-5.7049255,5.3339233-11.9341736,5.3339233
		L106.6681442,632.0020142z"/>
	<path class="st6" d="M503.0102844,626.6660156c-1.7794189,1.9896851-5.698822,5.3389282-11.9275818,5.3389282H106.6684418
		c-6.3288345,0-10.2679977-3.4292603-12.0576859-5.4689331c-1.7794342-2.0396118-4.658989-6.3986206-3.8190689-12.6674194
		l24.4851685-183.8439026l2.0296249-15.21698l1.3495865-10.1578979l7.6984406-57.758667l2.1497192-16.1068115l1.4096375-10.6078796
		l0.9797821-7.3686829l1.0098114-7.6083374l1.2697754-9.5081482l6.7186432-50.4600372
		c1.059845-7.9284821,7.8785706-13.8973999,15.8769989-13.8973999h284.4239502
		c8.1683044,0,15.0170593,6.1189117,15.9167786,14.2471924l50.8901367,368.6374512
		C507.6895447,620.4073486,504.7999878,624.6763916,503.0102844,626.6660156z"/>
	<path class="st7" d="M503.0102844,626.6660156c-1.7794189,1.9896851-5.698822,5.3389282-11.9275818,5.3389282H365.6274414
		c2.6593933-6.2487793,3.8093262-13.2574463,2.9994202-20.5458984l-40.8918457-368.6374817
		c-0.4498596-4.049118-1.4797058-7.9083557-3.0094299-11.4877167h115.4672546
		c8.1683044,0,15.0170593,6.1189117,15.9167786,14.2471924l11.7576904,85.1732941l2.2295532,16.1268311l9.3782654,67.9465637
		l2.0994568,15.2269897l25.4251709,184.1637878C507.6895447,620.4073486,504.7999878,624.6763916,503.0102844,626.6660156z"/>
	<path class="st7" d="M503.1404114,626.6660156c-1.6696167,1.8696289-5.2189636,4.9290771-10.7879333,5.2990112
		c-0.3297729,0.0299072-0.6697693,0.039917-1.0198059,0.039917H365.7575378
		c2.6593933-6.2487793,3.8093262-13.2574463,2.9994202-20.5458984l-24.4351196-220.2366638l-1.9798584-17.8764648
		l-2.5793152-23.2354126l-1.6798401-15.1769409l-10.2179565-92.1119995
		c-0.4498596-4.049118-1.4797058-7.9083557-3.0094299-11.4877167h115.4672546
		c8.1685486,0,15.0170593,6.1189117,15.9170227,14.2471924l11.7576904,85.1432648l2.2195435,16.1268311l9.3880615,67.9665833
		l2.0996704,15.2269897l25.4249268,184.1737976C507.819397,620.4073486,504.9300842,624.6763916,503.1404114,626.6660156z"/>
	<path class="st5" d="M194.2648926,231.333847c-7.9984283,0-14.8171539,5.9689178-15.8769989,13.8973999l-49.1001892,368.6373291
		c-0.83992,6.2687988,2.0396423,10.6278076,3.8190765,12.6674194c1.7896729,2.0396729,5.7288513,5.4689331,12.0576782,5.4689331
		h-38.4924164c-6.3288345,0-10.2679977-3.4292603-12.0576859-5.4689331
		c-1.7794342-2.0396118-4.6589966-6.3986206-3.8190765-12.6674194l49.1001968-368.6373291
		c1.059845-7.9284821,7.8785706-13.8973999,15.8769989-13.8973999H194.2648926z"/>
	<path class="st3" d="M445.3151855,165.710083c0.0100098,4.2991943-1.6598206,8.3484497-4.6892395,11.3878937
		c-3.0292053,3.0393219-7.0684509,4.7190399-11.3676453,4.7290497H169.1195984
		c-8.8383484,0-13.9574585-6.8287354-13.9772186-15.6769714l-0.0800629-51.6897659
		c-0.0100098-4.299202,1.6595764-8.3383255,4.6890106-11.3777695c3.0294342-3.0394363,7.05867-5.0690689,11.3578644-5.079071
		h258.7888794c8.5983887,0.3800507,15.3270569,7.4185791,15.3370667,16.016861L445.3151855,165.710083z"/>
	<path class="st5" d="M445.3151855,165.710083c0.0100098,4.2991943-1.6598206,8.3484497-4.6892395,11.3878937
		c-3.0292053,3.0393219-7.0684509,4.7190399-11.3676453,4.7290497H313.8611145
		c4.2991943-0.0100098,8.3381958-1.6897278,11.3676453-4.7290497c3.0294189-3.039444,4.6990051-7.0886993,4.6889954-11.3878937
		l-0.0097656-8.5682678l-0.0600281-33.95327l-0.0100098-9.1682358c-0.0100098-8.5982819-6.738678-15.6368103-15.3370667-16.016861
		h115.3971863c8.5983887,0.3800507,15.3270569,7.4185791,15.3370667,16.016861L445.3151855,165.710083z"/>
	<path class="st4" d="M366.3725281,165.7067566c0.0100098,4.2990875-1.6596069,8.3482056-4.6890259,11.3876495
		c-3.0294495,3.039444-7.0684509,4.7190399-11.3676453,4.7290497h-61.4100342
		c4.2991943-0.0100098,8.3384399-1.6896057,11.3678894-4.7290497c3.0294189-3.039444,4.6990051-7.088562,4.6889954-11.3876495
		l-0.0800476-51.689888c-0.0097656-8.5982895-6.7384338-15.63694-15.3368225-16.0168686h61.40979
		c8.5984192,0.3799286,15.3270569,7.4185791,15.3370667,16.0168686L366.3725281,165.7067566z"/>
	<path class="st6" d="M420.3501587,150.2431488c0,3.6893463-2.9794006,6.6887512-6.6788635,6.698761l-108.7286072,0.1600037
		h-2.8492737l-115.3373871,0.1698914c-3.699234,0.0100098-6.6886292-2.9794006-6.6986389-6.6786194l-0.0300293-20.5860291
		c-0.0100098-3.6892166,2.9794006-6.6886292,6.6686096-6.6986389l103.4498444-0.1499939l14.796875-0.0198898l108.6788025-0.1601257
		c2.5793152-0.0100098,4.8188782,1.4497833,5.928772,3.5893784c0.099823,0.1799011,0.1899109,0.3699265,0.2699585,0.5699539
		c0.079834,0.1698914,0.1398621,0.3397827,0.1999207,0.529808c0.1899109,0.6298828,0.2999878,1.2996674,0.2999878,1.9895935
		L420.3501587,150.2431488z"/>
	<path class="st8" d="M503.1404419,626.6660156c-1.7801514,1.9896851-5.7011108,5.3389282-11.932373,5.3389282H106.6399231
		c-6.3313675,0-10.27211-3.4292603-12.0625153-5.4689331c-1.7801437-2.0396118-4.6608582-6.3986206-3.8206024-12.6674194
		l24.4949722-183.8439026l2.0304413-15.21698c70.7643814-6.1687012,111.172493-27.6344604,150.2605286-48.4103699
		c4.4508362-2.3596497,8.981781-4.769104,13.5525513-7.1486206c3.5007019-1.8196106,7.0116577-3.6192932,10.5324097-5.3689575
		c2.2902527-1.1397705,4.5106812-2.2195129,6.6812744-3.2593689c8.581604-4.0991516,16.3331604-7.4284668,23.9848633-10.3280334
		c8.4617004-3.2093201,16.8933411-5.9087524,25.4150696-8.1082764c20.0241089-5.1790161,40.538269-7.6386108,62.9727783-7.6386108
		h0.4502869c21.5243835,0.0400085,40.1981201,2.0696411,56.8513794,6.2088623l2.2304382,16.1268311l9.3820496,67.9465637
		l2.1002808,15.2269897l25.4353333,184.1637878C507.8215637,620.4073486,504.9308472,624.6763916,503.1404419,626.6660156z"/>
	<path class="st9" d="M503.1404419,626.6660156c-1.7801514,1.9896851-5.7011108,5.3389282-11.932373,5.3389282H106.6399231
		c-6.3313675,0-10.27211-3.4292603-12.0625153-5.4689331c-1.7801437-2.0396118-4.6608582-6.3986206-3.8206024-12.6674194
		l24.4949722-183.8439026c90.9183884-7.2285461,135.1373291-38.8722229,183.0572205-62.7176208
		c5.6610718-2.8093872,11.3621826-5.5189514,17.2134705-8.0483398c3.9607544-1.7396545,7.9815979-3.3893433,12.0925598-4.9490967
		c6.9613647-2.6393738,14.1828003-5.019043,21.7744446-7.0585632c17.9235535-4.8190002,37.9376221-7.7484741,61.7225037-7.7085571
		c24.224884,0.0400391,43.4687805,2.7894897,59.1018372,7.3386536l36.9176636,267.3373413
		C507.8215637,620.4073486,504.9308472,624.6763916,503.1404419,626.6660156z"/>
	<path class="st9" d="M506.6300049,620.4772949c-0.1601257,0.5197754-0.3300171,1.0197144-0.519928,1.4896851
		c-0.1000671,0.2299194-0.1998901,0.4598999-0.2999878,0.6799316c-0.2098999,0.4498291-0.4198303,0.8696899-0.6497498,1.2597656
		c-0.6700439,1.1696777-1.3998718,2.0894165-1.9996338,2.7593384c-1.6798401,1.8796387-5.2789917,4.9691162-10.9179993,5.2990112
		c-0.3297729,0.0299072-0.6697998,0.039917-1.0198364,0.039917H365.6477661
		c2.6593933-6.2487793,3.8092957-13.2574463,2.9994202-20.5458984l-24.4351501-220.2366638l-1.9798279-17.8764648
		l-2.5793152-23.2354126l-1.6798401-15.1769409c3.2395935-0.9898071,6.4889526-1.909668,9.7480774-2.7494812
		c20.026062-5.1790161,40.5420532-7.6386108,62.9778137-7.6386108h0.4498596
		c21.475769,0.0400085,40.111969,2.0596313,56.7388306,6.178833c0.0397949,0.0100098,0.0698242,0.0200195,0.1098328,0.0300293
		l2.2295532,16.1268311l9.3882751,67.9465637l2.0994568,15.2269897l25.4349365,184.1637878
		C507.4098816,616.5880127,507.1496887,618.6876221,506.6300049,620.4772949z"/>
	<path class="st10" d="M503.1498108,626.6660156c-1.7801514,1.9896851-5.7011108,5.3389282-11.932373,5.3389282H106.6492996
		c-6.3313675,0-10.27211-3.4292603-12.0625153-5.4689331c-1.7801437-2.0396118-4.6608582-6.3986206-3.8206024-12.6674194
		l24.4949722-183.8439026l2.0304413-15.21698l1.3501282-10.1578979l7.7015152-57.758667l2.1505814-16.1068115
		c16.6833344-4.1592102,35.4071045-6.1988525,56.9915619-6.2388611h0.4500427
		c31.9965057,0,60.0822906,4.9989929,88.3981018,15.7468872c7.6514587,2.8995667,15.4030457,6.2288818,23.9848633,10.3280334
		c2.1703491,1.039856,4.3907776,2.1195984,6.6812744,3.2593689c3.520752,1.7496643,7.0414734,3.5593567,10.5321655,5.3789673
		c4.5710144,2.3695068,9.1017151,4.7789612,13.5428162,7.1386108c7.8114014,4.1590881,15.6831055,8.3383179,23.8248901,12.41745
		c32.6765747,16.3569031,69.9341431,31.0939941,126.7056885,36.0129395l27.535614,199.3907776
		C507.8309326,620.4073486,504.9402161,624.6763916,503.1498108,626.6660156z"/>
	<path class="st8" d="M503.1404114,626.6660156c-1.7796936,1.9896851-5.6988525,5.3389282-11.9275818,5.3389282H106.6384201
		c-6.3285904,0-10.2677536-3.4292603-12.0574417-5.4689331c-1.7796783-2.0396118-4.6592407-6.3986206-3.819313-12.6674194
		l1.1396637-8.5283203l34.4331589-258.4491272c15.6470642-4.5491333,34.9032898-7.3085938,59.1585083-7.3486328
		c33.863205-0.0499268,60.1080475,5.8889771,83.5135956,14.7671204c4.1090393,1.5597534,8.1282654,3.2094421,12.0874634,4.9390869
		c5.8589478,2.5393982,11.5577698,5.2489624,17.2168274,8.0583496
		c18.4463196,9.1782227,36.3226624,19.5061646,56.5386658,29.1542969
		c32.3837585,15.4570313,70.7260437,29.1642761,126.8451233,33.5933533l22.825592,165.2875061l0.1799011,1.2797852
		l1.199707,8.7182617l1.2297363,8.8782349C507.819397,620.4073486,504.9300842,624.6763916,503.1404114,626.6660156z"/>
	<circle class="st9" cx="224.2628479" cy="405.3043213" r="31.0197582"/>
	<circle class="st9" cx="166.5316315" cy="450.2063599" r="19.9139194"/>
	<circle class="st9" cx="203.5634766" cy="495.5109253" r="11.2973194"/>
	<path class="st11" d="M506.6143188,620.4772949c-0.1601257,0.5197754-0.3300171,1.0197144-0.519928,1.4896851
		c-0.1000671,0.2299194-0.1998901,0.4598999-0.2999878,0.6799316c-0.2098999,0.4498291-0.4198303,0.8696899-0.6497498,1.2597656
		c-0.6700439,1.1696777-1.3998718,2.0894165-1.9996033,2.7593384c-1.6798706,1.8796387-5.2789917,4.9691162-10.9180298,5.2990112
		c-0.3297729,0.0299072-0.6697998,0.039917-1.0198059,0.039917H365.6320801
		c2.6593933-6.2487793,3.8092957-13.2574463,2.9994202-20.5458984l-24.4351501-220.2366638l-1.9798279-17.8764648
		l-2.5793152-23.2354126c3.1792908-1.0098267,6.4286499-1.9696045,9.7480774-2.859436
		c17.9263916-4.8190002,37.9424744-7.7484741,61.7278137-7.7085571c24.1651917,0.0400391,43.3713684,2.77948,58.9783936,7.3086243
		c0.0400391,0.0100098,0.0800476,0.0200195,0.1198425,0.0300293l9.3882751,67.9465637l2.0994568,15.2269897l25.4349365,184.1637878
		C507.3941956,616.5880127,507.1340027,618.6876221,506.6143188,620.4772949z"/>
	<circle class="st9" cx="310.7193298" cy="505.4618225" r="20.3067589"/>
	<circle class="st9" cx="269.3717346" cy="548.6798706" r="11.5201807"/>
	<path class="st12" d="M506.5907898,620.4772949c-0.150116,0.5197754-0.3300171,1.0197144-0.5198975,1.4896851
		c-0.1000977,0.2299194-0.1999207,0.4598999-0.2999878,0.6799316c-0.1999207,0.4498291-0.4198608,0.8696899-0.6497803,1.2597656
		c-0.6700439,1.1696777-1.3998718,2.0894165-1.9996033,2.7593384c-1.6798706,1.8796387-5.2789917,4.9691162-10.9180298,5.2990112
		c-0.3297729,0.0299072-0.6697998,0.039917-1.0198059,0.039917H365.608551
		c2.6593933-6.2487793,3.8093262-13.2574463,2.9994202-20.5458984l-24.4351196-220.2366638l-1.9798584-17.8764648
		c3.5193481,1.8297119,7.0686951,3.6593018,10.6780701,5.4688721
		c32.6535034,16.3468933,69.8761292,31.0739746,126.5849304,36.0029297c0.0400391,0,0.0800781,0.0100098,0.1201172,0.0100098
		h0.0100098l27.5346069,199.3907776C507.3804321,616.5880127,507.1207275,618.6876221,506.5907898,620.4772949z"/>
	<circle class="st9" cx="362.302948" cy="550.7527466" r="31.6316833"/>
	<path class="st9" d="M507.2296753,616.0881348c0,0.3200073-0.0100098,0.6398926-0.0300293,0.9397583
		c-0.0100098,0.2699585-0.0400085,0.5299072-0.0700378,0.7798462c-0.0300293,0.3899536-0.0898438,0.7698975-0.1598816,1.1298218
		c-0.0500488,0.249939-0.1000671,0.4998779-0.150116,0.7297974c-0.0698242,0.2800293-0.1398621,0.5499878-0.2099304,0.8099365
		c-0.389801,1.2996826-0.909729,2.4494629-1.4696655,3.4293823c-0.1101074,0.1898804-0.2199402,0.3798218-0.3400269,0.5598145
		c-0.1398621,0.2299194-0.289978,0.4498901-0.4398499,0.6599121c-0.1698914,0.2399292-0.3300171,0.4698486-0.4999084,0.6798096
		c-0.249939,0.3200073-0.4898987,0.6098633-0.7198181,0.8598022c-0.519928,0.5898438-1.2297363,1.2897949-2.1394958,1.9896851
		c-0.1801147,0.1398926-0.3700256,0.289917-0.5699463,0.4198608c-0.1899109,0.1400146-0.4000549,0.2799683-0.6099854,0.4198608
		c-0.2099304,0.1300659-0.4298401,0.2699585-0.65979,0.4000244c-0.2299194,0.1298828-0.4598694,0.2600098-0.6997986,0.3798218
		c-0.2399597,0.130127-0.4898987,0.249939-0.7498474,0.3600464c-0.2599792,0.119873-0.519928,0.2299194-0.7998962,0.329895
		c-0.5399475,0.2098999-1.1196594,0.3899536-1.7296448,0.5498047c-0.6099854,0.1500244-1.2497559,0.2699585-1.9197998,0.3600464
		c-0.0197754,0.0100098-0.0397644,0.0100098-0.0697937,0.0100098c-0.3099976,0.0299072-0.6400146,0.0599365-0.9697876,0.0799561
		c-0.0600586,0.0100098-0.1200867,0.0198975-0.1799011,0.0100098c-0.2699585,0.0198975-0.539917,0.0299072-0.8198853,0.0299072
		H365.6274414c2.6593933-6.2487793,3.8093262-13.2574463,2.9994202-20.5458984l-1.7897034-16.1168213l-22.6454468-204.1198425
		c3.4893188,1.7596741,7.0386658,3.5093384,10.6578369,5.2389832
		c32.3537292,15.4470215,70.6760254,29.1442566,126.7250366,33.5833435c0.0400391,0,0.0800476,0.0100098,0.1200867,0.0100098
		l22.825592,165.2875061l0.1799011,1.2797852l2.4294434,17.5964966
		C507.199646,614.8583984,507.2296753,615.4881592,507.2296753,616.0881348z"/>
	<path class="st13" d="M176.8138275,263.8955688l0.0000305,0.0000305
		c8.0252228,1.1278687,13.6166229,8.5478821,12.4887543,16.5731201l-27.6660919,196.8548889
		c-1.1278687,8.025238-8.5479126,13.6166382-16.5731201,12.4887695h-0.0000305
		c-8.0252228-1.1278687-13.6166229-8.5479126-12.4887543-16.5731201l27.6660919-196.8549194
		C161.368576,268.3591309,168.78862,262.7677002,176.8138275,263.8955688z"/>
	<path class="st13" d="M155.484848,520.9726563l-5.309845,37.805542
		c-1.1299438,8.0199585-8.5470123,13.6102295-16.5769806,12.4801025
		c-7.421463-1.0394287-12.7591248-7.4724121-12.6315689-14.7799072c0.0048828-0.2797852,0.0197754-0.5595703,0.0446701-0.8391724
		l0.0008774-0.0498657l5.3427658-37.9851685c1.1303558-8.0299377,8.5474396-13.6201782,16.5773926-12.4900513
		C150.712738,506.2099609,156.210144,513.225647,155.484848,520.9726563z"/>
	<path class="st7" d="M420.3501587,150.2431488c0,3.6893463-2.9794006,6.6887512-6.6788635,6.698761l-108.7867432,0.1600037
		v-33.9632797l108.7369385-0.1601257c2.5793152-0.0100098,4.8188782,1.4497833,5.928772,3.5893784
		c0.099823,0.1799011,0.1899109,0.3699265,0.2699585,0.5699539c0.079834,0.1698914,0.1398621,0.3397827,0.1999207,0.529808
		c0.1899109,0.6298828,0.2999878,1.2996674,0.2999878,1.9895935L420.3501587,150.2431488z"/>
	<path class="st9" d="M503.1678467,626.6660156c-1.7796936,1.9896851-5.698822,5.3389282-11.9275818,5.3389282H106.665863
		c-6.3285904,0-10.2677536-3.4292603-12.0574417-5.4689331c-1.7796783-2.0396118-4.6592331-6.3986206-3.819313-12.6674194
		l1.1396713-8.5283203h413.9985352l1.2297363,8.8782349C507.8468628,620.4073486,504.9575195,624.6763916,503.1678467,626.6660156z"
		/>
	<path class="st14" d="M368.4069214,609.2894287l-0.4498596-3.8991089
		C367.9971008,605.670166,368.2270203,607.1199341,368.4069214,609.2894287z"/>
	<path class="st11" d="M503.1704102,626.6660156c-1.7796631,1.9896851-5.698822,5.3389282-11.9275818,5.3389282H365.7175293
		c3.3692017-7.4284668,3.1492615-17.2965698,2.6893921-22.6954956c0-0.0100098,0-0.0200195,0-0.0200195
		c-0.1799011-2.1694946-0.4098206-3.6192627-0.4498596-3.8991089c-0.0100098-0.0300293-0.0100098-0.0500488-0.0100098-0.0500488
		h137.9828491l1.2297363,8.8782349C507.8494263,620.4073486,504.9601135,624.6763916,503.1704102,626.6660156z"/>
</g>
</svg>
