<?xml version="1.0" encoding="utf-8"?>
<!-- Generator: Adobe Illustrator 22.1.0, SVG Export Plug-In . SVG Version: 6.00 Build 0)  -->
<svg version="1.1" id="Layer_1" xmlns="http://www.w3.org/2000/svg" xmlns:xlink="http://www.w3.org/1999/xlink" x="0px" y="0px"
	 viewBox="0 0 600 656.9986572" style="enable-background:new 0 0 600 656.9986572;" xml:space="preserve">
<style type="text/css">
	.st0{fill:#DDEEDB;}
	.st1{fill:#F3F7DE;}
	.st2{fill:#C4E5DC;}
	.st3{fill:#AADCD9;}
	.st4{fill:#9ED3D7;}
	.st5{fill:#5E5EE5;}
	.st6{fill:#4F3DD3;}
	.st7{fill:#7979F2;}
	.st8{fill:#3131AF;}
	.st9{opacity:0.3;fill:#FFFFFF;enable-background:new    ;}
	.st10{fill:#FFDD9D;}
	.st11{fill:#FFC98F;}
	.st12{fill:#E7EAD0;}
</style>
<path class="st0" d="M491.8249207,287.4586182c-0.119873,0.7300415-0.2597656,1.4700317-0.3999023,2.2000122l-68.3500977,345.75
	c-2.4799805,12.5499878-13.4897461,21.5900269-26.2797852,21.5900269H203.2050323
	c-12.7900391,0-23.8000488-9.0400391-26.2800293-21.5900269l-68.35009-345.75
	c-0.1499023-0.7299805-0.2797852-1.4699707-0.3999023-2.2000122c-4.8198242-28.8299561,9.2800293-57.5499878,34.5100021-72.3199463
	l47.4099121-27.7700195c13.5200195-7.9299927,25.1601563-18.4100342,34.3701172-30.7200317
	c9.1999512-12.3099976,15.9599609-26.4299927,19.7299805-41.649971h111.6098785
	c3.7700195,15.2199783,10.5302734,29.3399734,19.7302246,41.649971
	c6.5197754,8.7200317,14.2600098,16.5200195,23.0300293,23.1400146c3.6098633,2.7399902,7.3898926,5.2600098,11.3398438,7.5800171
	l33.1601563,19.4199829l12.7998047,7.5l1.4501953,0.8500366
	C482.5451355,229.9086304,496.644989,258.6286621,491.8249207,287.4586182z"/>
<path class="st1" d="M398.7399902,211.3499756c-0.1499634,0.8800049-0.2999878,1.7600098-0.4799805,2.6400146
	l-82.8400269,417.3599854C312.6599731,645.2700195,301.1400146,655.5800171,287.2800293,657H203.210022
	c-12.8000488,0-23.8099976-9.039978-26.2800293-21.5900269l-68.3599854-345.75
	c-0.1400146-0.7299805-0.2700195-1.4699707-0.3900146-2.1999512c-4.8200073-28.8300171,9.2800293-57.5500488,34.5100098-72.3200073
	l47.4000244-27.7700195C198.4099731,182.4899902,206.0300293,176.6400146,212.789978,170
	c3.2200317-3.1599731,6.2400513-6.5,9.0700073-10c0.8900146-1.0999756,1.7600098-2.2199707,2.6099854-3.3499756
	c3.9900513-5.3400269,7.5200195-11.0200195,10.5500488-16.9800415c3.9499512-7.789978,7.0499878-16.0499878,9.1799927-24.6699829
	h111.5999756c2.1400146,8.6199951,5.2399902,16.8800049,9.1900024,24.6699829
	c3.0300293,5.960022,6.5599976,11.6400146,10.5499878,16.9800415c0.8400269,1.1300049,1.710022,2.25,2.6000366,3.3499756
	c2.8200073,3.5100098,5.8499756,6.8400269,9.0700073,10c3.5599976,3.5,7.3399658,6.7600098,11.3599854,9.789978
	C400.2000122,191,400.3200073,201.9000244,398.7399902,211.3499756z"/>
<path class="st2" d="M491.8249207,287.4586182c-0.119873,0.7300415-0.2597656,1.4700317-0.3999023,2.2000122l-68.3500977,345.75
	c-2.4799805,12.5499878-13.4897461,21.5900269-26.2797852,21.5900269h-52.0600586
	c6.8898926-0.710022,13.1999512-3.6099854,18.1499023-8.0700073c4.8400879-4.3500366,8.380127-10.2000122,9.8500977-16.9299927
	h24.2299805c0.8500977,0,1.5898438-0.6000366,1.75-1.4400024l35.3701172-178.9000244l8.0998535-40.9699707l8.8400879-44.7000122
	l2.5297852-12.789978l10.4602051-52.9400024l3.0200195-15.2300415l0.0397949-0.2199707
	c0.1201172-0.6000366,0.2299805-1.210022,0.3200684-1.8099976c0.920166-5.7900391-11.079834-25.6500244-24.75-41.4400024
	l0.1101074-0.5700073c0.1799316-0.8800049,0.3398438-1.7600098,0.4799805-2.6400146
	c1.5800781-9.4500122,1.4599609-20.3499756-0.1699219-31.5599976l12.7998047,7.5l1.4501953,0.8500366
	C482.5451355,229.9086304,496.644989,258.6286621,491.8249207,287.4586182z"/>
<path class="st3" d="M467.2299805,283c-0.0999756,0.5999756-0.1999512,1.210022-0.3299561,1.8099976l-0.0400391,0.2200317
	l-3.0199585,15.2299805l-10.460022,52.9400024l-2.5200195,12.789978l-8.8399658,44.7000122l-8.1000366,40.9699707
	l-35.3699951,178.9000244c-0.1699829,0.8400269-0.9099731,1.4400024-1.75,1.4400024H203.210022
	c-0.6900024,0-1.3200073-0.4000244-1.6000366-1c-0.0700073-0.1300049-0.1199951-0.2800293-0.1499634-0.4400024l-34.9900513-177
	l-18.1299438-91.6799927l-2.5400391-12.8599854l-8.9099731-45.0500488l-2.9899902-15.1299438l-0.7900391-4.0300293
	c-0.1199951-0.5999756-0.2399902-1.210022-0.3200073-1.8099976c-2.9499512-18.4400024,6.210022-36.7299805,22.3200073-46.1699829
	l42.710022-25.0100098l4.9099731-2.8800049c16.3600464-9.5999756,30.4000244-22.1500244,41.7600098-37.3099976
	c2.8200073-3.7700195,5.4299927-7.6500244,7.8300171-11.6300049c3.8699951-6.4099731,7.210022-13.0800171,10-20h75.3699951
	c2.789978,6.9199829,6.1300049,13.5900269,10,20c2.4000244,3.9799805,5.0100098,7.8599854,7.8200073,11.6199951
	c11.3300171,15.1699829,25.3800049,27.7299805,41.7600098,37.3200073l1.6799927,0.9899902l45.9199829,26.9000244
	C461,246.2700195,470.1699829,264.5499878,467.2299805,283z"/>
<path class="st2" d="M281.1950378,630.9986572h-79.5800934c-0.079834-0.1300049-0.1298828-0.2800293-0.1599121-0.4400024
	l-34.9899902-177l-18.1201172-91.6799927l-2.5400391-12.8600464l-8.9099121-45.0499878l-2.9899902-15.1300049l-0.7998047-4.0299683
	c-0.1201172-0.6000366-0.2302246-1.210022-0.3200684-1.8099976c-2.9499512-18.4400024,6.2099609-36.7300415,22.3200684-46.1700439
	l42.7099609-25.0099487L281.1950378,630.9986572z"/>
<path class="st4" d="M467.2257996,282.9998169c-0.0899658,0.5999756-0.1999512,1.2099609-0.3200684,1.8099976l-0.039917,0.2199707
	l-3.0200195,15.2300415l-10.4599609,52.9400024l-2.5300293,12.789978l-8.8399658,44.7000122l-1.1999512,6.0800171
	l-0.8701172,4.3799438L433.915741,451.65979l-29.6599121,150.0100098l-1.5800781,8l-4.1298828,20.8900146
	c-0.1600342,0.8399658-0.9001465,1.4400024-1.75,1.4400024h-81.5l6.0100098-30.3300171l49.6398926-250.4500122l28-141.289978
	l45.9300537,26.9000244C460.9958191,246.2698364,470.165741,264.5498047,467.2257996,282.9998169z"/>
<path class="st5" d="M466.8649597,285.0286255l-3.0200195,15.2300415l-10.4599609,52.9400024l-2.5297852,12.789978
	l-16.9401855,85.6699829l-35.369873,178.9000244c-0.1601563,0.8399658-0.9001465,1.4400024-1.75,1.4400024H203.2050323
	c-0.8498535,0-1.5900879-0.6000366-1.75-1.4400024l-34.9899902-177l-18.1201172-91.6799927l-2.5400391-12.8600464
	l1.630127-2.1099854c62.7600098-3.8300171,97.1899414-21.9899902,130.2400055-39.7000122
	c0.3300781-0.1799927,0.6699219-0.3599854,1-0.539978c3-1.5999756,5.9799805-3.2000122,8.9499512-4.7700195
	c2.2600098-1.1999512,4.5300293-2.3800049,6.8100586-3.5499878c25.670166-13.1799927,52.9499512-24.5,92.2600098-26.2000122
	c3.2199707-0.1399536,6.5300293-0.2099609,9.9199219-0.2199707h0.4599609
	C425.1950378,271.9286499,448.0851746,276.2186279,466.8649597,285.0286255z"/>
<path class="st6" d="M463.8449402,300.258667l-10.4599609,52.9400024l-2.5297852,12.789978l-16.9401855,85.6699829
	l-35.369873,178.9000244c-0.1601563,0.8399658-0.9001465,1.4400024-1.75,1.4400024H203.2050323
	c-0.8498535,0-1.5900879-0.6000366-1.75-1.4400024l-34.9899902-177l-18.1201172-91.6799927
	c72.5102539-4.4299927,109.6902008-27.3699951,146.2900543-46.7200317
	c5.4799805-2.8900146,10.9399414-5.7099609,16.5100098-8.3599854c20.75-9.9099731,42.9299316-17.6799927,72.5900879-19.4700317
	c4.1499023-0.2599487,8.4499512-0.3899536,12.9099121-0.3999634
	C427.565155,286.8786621,448.5151062,292.3086548,463.8449402,300.258667z"/>
<path class="st7" d="M453.3849792,353.1986694l-2.5297852,12.789978l-16.9401855,85.6699829l-35.369873,178.9000244
	c-0.1601563,0.8399658-0.9001465,1.4400024-1.75,1.4400024H203.2050323c-0.8498535,0-1.5900879-0.6000366-1.75-1.4400024
	l-34.9899902-177l-18.1201172-91.6799927l-2.5400391-12.8600464l-8.9099121-45.0499878l-2.9899902-15.1300049
	c18.3200684-8.0599976,40.4199219-12,67.4101563-12.0499878h0.4399414c40.0498047,0,68.4499664,9.9700317,92.6799469,21.5599976
	c2.3500977,1.1300049,4.6599121,2.2600098,6.9399414,3.4100342c3.2600098,1.6399536,6.5300293,3.3399658,9.7700195,5.039978
	c2.7800293,1.460022,5.5400391,2.9299927,8.2600098,4.3699951c16.7299805,8.9000244,33.75,17.9400024,54.5200195,25.210022
	c20.9199219,7.3299561,45.6601563,12.8499756,77.7600098,14.6300049L453.3849792,353.1986694z"/>
<path class="st5" d="M450.8558044,365.9898071l-8.8399658,44.7000122l-1.1999512,6.0800171l-0.8701172,4.3799438
	L433.915741,451.65979l-29.6599121,150.0100098l-1.5800781,8l-4.1298828,20.8900146
	c-0.1600342,0.8399658-0.9001465,1.4400024-1.75,1.4400024H203.20578c-0.8499756,0-1.5899658-0.6000366-1.75-1.4400024
	l-4.1300049-20.8900146l-1.5799561-8l-29.2800293-148.1099854l-18.1199951-91.6799927l-2.539917-12.8599854l-8.9101563-45.0500488
	c15.0500488-7.25,35.3100586-12.1300049,64.4500732-12.1799927c31.6700439-0.0499878,55.1400146,6.3500366,76.3299561,15.4199829
	c5.7900391,2.4700317,11.4000244,5.1500244,16.960083,7.9500122c23.3599854,11.75,45.8299561,25.6700439,76.3099365,36.0599976
	C392.5258484,358.5897827,418.1058044,364.1697998,450.8558044,365.9898071z"/>
<path class="st6" d="M466.8649597,285.0286255l-3.0200195,15.2300415l-10.4599609,52.9400024l-2.5297852,12.789978
	l-16.9401855,85.6699829l-35.369873,178.9000244c-0.1601563,0.8399658-0.9001465,1.4400024-1.75,1.4400024h-81.420166
	l6.0100098-30.3300171l65.3100586-329.5200195c3.2199707-0.1399536,6.5300293-0.2099609,9.9199219-0.2199707h0.4599609
	C425.1950378,271.9286499,448.0851746,276.2186279,466.8649597,285.0286255z"/>
<path class="st8" d="M463.8449402,300.258667l-10.0400391,50.8099976l-0.4199219,2.1300049l-2.5297852,12.789978
	l-16.9401855,85.6699829l-35.369873,178.9000244c-0.1601563,0.8399658-0.9001465,1.4400024-1.75,1.4400024h-81.3701172l6-30.3300171
	l52.5800781-265.2600098l9.7299805-49.0800171c4.1499023-0.2599487,8.4499512-0.3899536,12.9099121-0.3999634
	C427.565155,286.8786621,448.5151062,292.3086548,463.8449402,300.258667z"/>
<path class="st5" d="M453.8049011,351.0686646l-0.4199219,2.1300049l-2.5297852,12.789978l-16.9401855,85.6699829
	l-35.369873,178.9000244c-0.1601563,0.8399658-0.9001465,1.4400024-1.75,1.4400024h-81.4599609l6.0097656-30.3300171
	l52.5800781-265.289978c0.0300293,0.0100098,0.0500488,0.0199585,0.0800781,0.0299683
	C394.894989,343.7186279,421.7851257,349.2886353,453.8049011,351.0686646z"/>
<path class="st6" d="M450.8558044,365.9898071l-8.8399658,44.7000122l-1.1999512,6.0800171L433.915741,451.65979
	l-29.6599121,150.0100098l-1.5800781,8l-4.1298828,20.8900146c-0.1600342,0.8399658-0.9001465,1.4400024-1.75,1.4400024h-81.5
	l4.4199219-22.3300171l1.5900879-8l49.6398926-250.4500122
	C392.5258484,358.5897827,418.1058044,364.1697998,450.8558044,365.9898071z"/>
<path class="st6" d="M402.6750183,609.6686401l-4.1298828,20.8900146c-0.1601563,0.8399658-0.9001465,1.4400024-1.75,1.4400024
	H203.2050323c-0.8498535,0-1.5900879-0.6000366-1.75-1.4400024l-4.130127-20.8900146H402.6750183z"/>
<path class="st8" d="M402.6750183,609.6686401l-4.1298828,20.8900146c-0.1601563,0.8399658-0.9001465,1.4400024-1.75,1.4400024
	h-81.5l4.4199219-22.3300171H402.6750183z"/>
<circle class="st6" cx="218.9494934" cy="382.7713318" r="31"/>
<circle class="st6" cx="279.276001" cy="364.7401123" r="16"/>
<path class="st9" d="M256.5104065,236.9286499c-8.2499847,6.8800049-17.0799408,13.0899658-26.4599457,18.5899658
	l-4.9499512,2.9000244l-37.7900391,22.1300049l11.4699707,58l12.7000732,64.9500122l0.9000244,4.5l11.1398926,55.7099609
	c1.5900879,7.9500122-3.5599365,15.6800537-11.5100098,17.2700195c-0.9699707,0.1900024-1.9399414,0.289978-2.8999023,0.289978
	c-6.8500977,0-12.9699707-4.8199463-14.3699951-11.7999878l-12.2900391-61.4699707l-3.6400146-18.210022l-9.4599609-45.4199829
	l-12.6999512-64.2299805c-0.0600586-0.2600098-0.1000977-0.4800415-0.130127-0.6900024l-0.039917-0.2400513
	c-0.1099854-0.6999512-0.1800537-1.4099731-0.210083-2.1099854c-0.3798828-7.7299805,3.8400879-15.3900146,10.9700928-19.5599976
	l0.75-0.4400024l41.9499512-24.5700073l4.9300537-2.8899536c7.8798828-4.6200562,15.3000488-9.8300171,22.2399902-15.6100464
	c4.2600098-3.539978,10.0799561-4.539978,15.2299805-2.5C262.8705139,215.7086182,265.2104797,229.6686401,256.5104065,236.9286499z
	"/>
<circle class="st6" cx="274.6798096" cy="418.067749" r="10.0416565"/>
<circle class="st6" cx="333.4465027" cy="548.7011108" r="31"/>
<circle class="st6" cx="260.0295715" cy="522.2816772" r="16"/>
<circle class="st6" cx="306.5046692" cy="479.2194214" r="10.0416565"/>
<g>
	<path class="st10" d="M370.3112793,33.1165848L361.765686,80.551651
		c0.0101318,6.2599564-1.9692993,11.9230118-5.1516418,15.9406967c-3.4651489,3.7003479-8.3917236,6.0264282-13.8279724,6.0352249
		l-86.6979675,0.1403198c-10.4606323,0.0169296-19.0289764-8.5237198-19.0459137-18.984436l-8.5495148-52.0578308
		c-1.1970062-7.2885265,1.7492065-14.7689648,7.8588257-18.9196129c3.0327454-2.0603313,6.6855621-3.2692575,10.6083679-3.2756071
		l104.6525879-0.1693802c2.7180176-0.0043993,5.3105164,0.5708714,7.6581421,1.6083508
		c4.5844727,2.0260029,7.9753418,6.0146227,9.7134399,10.7157984c0.7562866,2.0455875,1.2792969,4.2687588,1.5230713,6.6080151
		C370.6781006,29.8339481,370.6037598,31.4930782,370.3112793,33.1165848z"/>
	<path class="st11" d="M370.3202515,33.0666656L361.765686,80.551651
		c0.0101318,6.2599564-1.9692993,11.9230118-5.1516418,15.9406967c-3.112793,3.3232269-7.3923645,5.5305481-12.1690063,5.9501648
		c-0.5412292,0.0596924-1.0941772,0.0841446-1.6589661,0.0850601l-23.3453979,0.0377808
		c9.0604553-0.0146637,16.45755-9.9108124,16.4380188-21.9718018l8.8973999-49.3880386
		c-0.0195007-12.0609875-7.4485779-21.9213638-16.5090332-21.9067001l23.3453979-0.0377846
		c2.7180176-0.0043993,5.3105164,0.5708742,7.6581421,1.6083622c4.5846558,2.0260963,7.9756165,6.0149784,9.7136841,10.716383
		c0.8262329,2.2349739,1.3739929,4.6819191,1.583374,7.2606335
		C370.6821289,30.2559929,370.5709839,31.6748428,370.3202515,33.0666656z"/>
	<circle class="st11" cx="282.3852844" cy="67.3529129" r="12.5222435"/>
	<circle class="st11" cx="282.6507568" cy="25.6390705" r="7.0075731"/>
	<circle class="st11" cx="255.3807068" cy="39.7067146" r="13.7104778"/>
	<circle class="st11" cx="324.9080505" cy="39.7067146" r="9.2723713"/>
</g>
<path class="st1" d="M397.9215088,80.5323181v47.7600098c0,6.4199829-5.5,11.6699829-12.2299805,11.6699829H213.1514893
	c-6.7299805,0-12.2299805-5.25-12.2299805-11.6699829V80.5323181c0-6.4200439,5.5-11.6700439,12.2299805-11.6700439h172.5400391
	C392.4215088,68.8622742,397.9215088,74.1122742,397.9215088,80.5323181z"/>
<path class="st0" d="M397.9215088,80.5323181v47.7600098c0,6.4199829-5.5,11.6699829-12.2299805,11.6699829H304.411499
	c-7.0599976,0-12.8200073-5.25-12.8200073-11.6699829V80.5323181c0-6.4200439,5.7600098-11.6700439,12.8200073-11.6700439
	h81.2800293C392.4215088,68.8622742,397.9215088,74.1122742,397.9215088,80.5323181z"/>
<path class="st9" d="M231.8841095,507.2621765l7.2089081,37.497406c1.5259552,7.9557495-3.6845245,15.6466064-11.6497955,17.1755981
	c-7.3600311,1.4179688-14.4933472-2.9428711-16.7373962-9.9000244c-0.0859222-0.2663574-0.1623688-0.5359497-0.2292786-0.8085938
	l-0.0153198-0.0475464l-7.2358856-37.6780396c-1.5287781-7.965332,3.6816864-15.6561584,11.6469574-17.1851807
	C222.5904541,494.8350525,230.0635223,499.6957092,231.8841095,507.2621765z"/>
<path class="st12" d="M378.1400146,160H221.8599854c0.8900146-1.0999756,1.7600098-2.2199707,2.6099854-3.3499756
	c3.9900513-5.3400269,7.5200195-11.0200195,10.5500488-16.9800415h129.9699707
	c3.0300293,5.960022,6.5599976,11.6400146,10.5499878,16.9800415C376.3800049,157.7800293,377.25,158.9000244,378.1400146,160z"/>
<path class="st4" d="M347.6900024,160h-95.3699951c3.8699951-6.4099731,7.210022-13.0800171,10-20h75.3699951
	C340.4799805,146.9199829,343.8200073,153.5900269,347.6900024,160z"/>
</svg>
