<?xml version="1.0" encoding="utf-8"?>
<!-- Generator: Adobe Illustrator 22.1.0, SVG Export Plug-In . SVG Version: 6.00 Build 0)  -->
<svg version="1.1" id="Layer_1" xmlns="http://www.w3.org/2000/svg" xmlns:xlink="http://www.w3.org/1999/xlink" x="0px" y="0px"
	 viewBox="0 0 600 657" style="enable-background:new 0 0 600 657;" xml:space="preserve">
<style type="text/css">
	.st0{fill:#F1F5D7;}
	.st1{fill:#B8E0D5;}
	.st2{fill:#D6EBD4;}
	.st3{fill:#F3F7DE;}
	.st4{fill:#C4E5DC;}
	.st5{fill:#DDEEDB;}
	.st6{fill:#AADCD9;}
	.st7{fill:#9ED3D7;}
	.st8{fill:#B4E548;}
	.st9{fill:#9FC634;}
	.st10{fill:#D1EF62;}
	.st11{fill:#8EAB22;}
</style>
<g>
	<path class="st0" d="M387.7,32.3V54c0,4.6-4.5,8.3-10,8.3H222.4c-5.5,0-10-3.8-10-8.3V32.3c0-4.6,4.5-8.3,10-8.3h155.3
		C383.2,24,387.7,27.7,387.7,32.3z"/>
	<path class="st1" d="M387.7,32.3V54c0,4.6-4.5,8.3-10,8.3H254c-5.5,0-10-3.8-10-8.3V32.3c0-4.6,4.5-8.3,10-8.3h123.7
		C383.2,24,387.7,27.7,387.7,32.3z"/>
	<path class="st2" d="M355.7,32.3V54c0,4.6-4.5,8.3-10,8.3H254c-5.5,0-10-3.8-10-8.3V32.3c0-4.6,4.5-8.3,10-8.3h91.7
		C351.2,24,355.7,27.7,355.7,32.3z"/>
	<path class="st3" d="M462.4,208l-70.5,434.5c-1.4,8.3-8.6,14.5-17,14.5H225.2c-0.8,0-1.5,0-2.2-0.2c-7.4-1-13.5-6.7-14.8-14.3
		L137.6,208c-3.8-23.1,14.1-44,37.5-44h249.8C448.3,164,466.1,184.9,462.4,208z"/>
	<path class="st4" d="M462.4,208l-70.5,434.5c-1.4,8.3-8.6,14.5-17,14.5h-78.4c-0.8,0-1.5,0-2.2-0.2c-7.5-1-13.5-6.7-14.8-14.3
		L209,208c-3.8-23.1,14.1-44,37.5-44h178.4C448.3,164,466.1,184.9,462.4,208z"/>
	<path class="st5" d="M390.4,208l-70.5,434.5c-1.4,8.3-8.6,14.5-17,14.5h-6.4c-0.8,0-1.5,0-2.2-0.2c-7.5-1-13.5-6.7-14.8-14.3
		L209,208c-3.8-23.1,14.1-44,37.5-44h106.4C376.3,164,394.1,184.9,390.4,208z"/>
	<path class="st6" d="M437.7,204l-7.8,48.2l-1,6.3l-1.1,6.8l-6.3,39.1l-1.2,7.3l-1.6,10.2l-0.8,4.7l-48.6,299.5
		c-0.5,3.2-3.1,5.6-6.3,5.8c-0.2,0-0.4,0-0.5,0H237.7c-0.2,0-0.4,0-0.6,0c-3.1-0.3-5.7-2.7-6.3-5.8l-48.6-299.5l-1.3-8l-1.1-6.8
		l-1.1-7l-5.1-31.2l-0.8-4.7l-1.7-10.4l-1-6.2l-7.8-48.3c-0.8-5.1,1.5-8.8,2.9-10.5c1.4-1.7,4.7-4.6,9.9-4.6h249.8
		c5.2,0,8.4,2.9,9.9,4.6C436.2,195.3,438.5,198.9,437.7,204z"/>
	<path class="st4" d="M277.8,632h-40.1c-0.2,0-0.4,0-0.6,0c-3.1-0.3-5.7-2.7-6.3-5.8l-48.6-299.5l-2.4-14.9l-6.2-38.2l-2.4-15.1
		l-8.8-54.5c-0.8-5.1,1.5-8.8,2.9-10.5c1.4-1.7,4.7-4.6,9.9-4.6h35.6c-2.1,5.9-2.9,12.4-1.8,19L277.8,632z"/>
	<path class="st7" d="M437.7,204l-8.9,54.5l-8.6,53.2l-2.4,14.9l-48.6,299.5c-0.5,3.2-3.1,5.6-6.3,5.8c-0.2,0-0.4,0-0.5,0h-40.8
		l68.8-424c1.1-6.7,0.4-13.2-1.8-19h36.3c5.2,0,8.4,2.9,9.9,4.6C436.2,195.3,438.5,198.9,437.7,204z"/>
	<path class="st4" d="M425,103.2c0,4.3-1.7,8.4-4.7,11.4c-2.9,2.9-6.8,4.6-11,4.7c-0.1,0-0.3,0-0.4,0H188.7c-8.8,0-14-6.8-14-15.7
		L174.7,62c0-4.3,1.7-8.3,4.7-11.4c3-3,7.1-5.1,11.4-5.1h218.8c8.6,0.4,15.3,7.4,15.3,16L425,103.2z"/>
	<path class="st3" d="M369,103.2c0,4.3-1.7,8.4-4.7,11.4c-2.9,2.9-6.8,4.6-11,4.7c-0.1,0-0.3,0-0.4,0H188.7c-8.8,0-14-6.8-14-15.7
		L174.7,62c0-4.3,1.7-8.3,4.7-11.4c3-3,7.1-5.1,11.4-5.1h162.8c8.6,0.4,15.3,7.4,15.3,16L369,103.2z"/>
	<path class="st5" d="M369,103.2c0,4.3-1.7,8.4-4.7,11.4c-2.9,2.9-6.8,4.6-11,4.7c-0.1,0-0.3,0-0.4,0H244.7c-8.8,0-14-6.8-14-15.7
		L230.7,62c0-4.3,1.7-8.3,4.7-11.4c3-3,7.1-5.1,11.4-5.1h106.8c8.6,0.4,15.3,7.4,15.3,16L369,103.2z"/>
	<path class="st6" d="M400,87.7c0,3.7-3,6.7-6.7,6.7l-24.4,0l-84.4,0.1h-2.9l-50.8,0.1l-24.6,0.1c-3.7,0-6.7-3-6.7-6.7l0-10.6
		c0-3.7,3-6.7,6.7-6.7l24.6-0.1l38.8-0.1l14.8,0l84.4-0.1l24.3,0c2.6,0,4.8,1.5,5.9,3.6c0.1,0.2,0.2,0.4,0.3,0.6
		c0.1,0.2,0.1,0.3,0.2,0.5c0.2,0.6,0.3,1.3,0.3,2L400,87.7z"/>
	<g>
		<polygon class="st2" points="348.9,119.3 348.9,164 250.6,164 250.6,119.3 304.2,119.2 		"/>
		<path class="st1" d="M382.8,164l-39.5,0c-2.7,0-4.9-2.2-4.9-4.9v-34.8c0-2.8,2.3-5.1,5.1-5.1l18.3-0.1l20.9,0.1v0.2L382.8,164z"/>
		<path class="st0" d="M257.6,164h-40.4v-44.8h40.4c2.8,0,5.1,2.3,5.1,5.1v34.5C262.8,161.7,260.5,164,257.6,164z"/>
	</g>
	<path class="st4" d="M230.7,70.7v24l-24.3,0.1c-3.7,0-6.7-3-6.7-6.7l0-10.6c0-3.7,3-6.7,6.7-6.7L230.7,70.7z"/>
	<path class="st7" d="M400,87.7c0,3.7-3,6.7-6.7,6.7l-24.4,0v-24l24.3,0c2.6,0,4.8,1.5,5.9,3.6c0.1,0.2,0.2,0.4,0.3,0.6
		c0.1,0.2,0.1,0.3,0.2,0.5c0.2,0.6,0.3,1.3,0.3,2L400,87.7z"/>
	<path class="st8" d="M429.9,252.2l-1,6.3l-1.1,6.8l-6.3,39.1l-1.2,7.3l-1.6,10.2l-0.8,4.7l-48.6,299.5c-0.5,3.2-3.1,5.6-6.3,5.8
		c-0.2,0-0.4,0-0.5,0H237.7c-0.2,0-0.4,0-0.6,0c-3.1-0.3-5.7-2.7-6.3-5.8l-48.6-299.5l-1.3-8l-1.1-6.8l-1.1-7
		c48.8-3.4,77.8-17.1,103.4-30.6c6-3.2,11.7-6.3,17.5-9.3c22.3-11.6,45.1-21.2,79.9-21.2C401.9,243.5,417.8,247,429.9,252.2z"/>
	<path class="st9" d="M379.6,257.6c21,0,36.4,3,48.1,7.8l-6.3,39.1l-1.2,7.3l-1.6,10.2l-0.8,4.7l-48.6,299.5
		c-0.5,3.2-3.1,5.6-6.3,5.8c-0.2,0-0.4,0-0.5,0H237.7c-0.2,0-0.4,0-0.6,0c-3.1-0.3-5.7-2.7-6.3-5.8l-48.6-299.5l-1.3-8
		c56.3-4.3,86-22.5,115.1-37.9c5.7-3,11.4-5.9,17.3-8.6C331.7,263.7,351.8,257.6,379.6,257.6z"/>
	<path class="st10" d="M171.2,258.5l-1-6.2c5.8-2.5,12.5-4.5,20.4-6c0,0,0.1,0,0.1,0c8.3-1.5,17.9-2.4,29-2.5
		c34.9-0.1,57.6,9.4,80,21c4.6,2.3,9.1,4.8,13.8,7.2c26.8,14.2,56.4,29.1,108,32.4l-1.2,7.3l-1.6,10.2l-0.8,4.7l-48.6,299.5
		c-0.5,3.2-3.1,5.6-6.3,5.8c-0.2,0-0.4,0-0.5,0H237.7c-0.2,0-0.4,0-0.6,0c-3.1-0.3-5.7-2.7-6.3-5.8l-48.6-299.5l-1.3-8l-1.1-6.8
		l-1.1-7l-5.1-31.2l-0.8-4.7L171.2,258.5z"/>
	<path class="st8" d="M418.6,321.9l-0.8,4.7l-45.4,279.9l-3.2,19.6c-0.5,3-2.9,5.3-5.8,5.8c-0.2,0-0.4,0.1-0.6,0.1
		c-0.2,0-0.4,0-0.5,0H237.7c-0.2,0-0.4,0-0.6,0c-3.1-0.3-5.7-2.7-6.3-5.8l-3.2-19.6l-45.4-279.9l-1.3-8l-1.1-6.8l-1.1-7l-5.1-31.2
		l-0.8-4.7c11.6-4.5,26.6-7.4,46.8-7.4c25.9,0,45.1,5.2,62.4,12.6c4.8,2,9.4,4.2,14,6.5c22.7,11.4,44.3,25.3,77,33.9
		c0.4,0.1,0.7,0.2,1.1,0.3c0.6,0.1,1.2,0.3,1.8,0.5c3.3,0.8,6.7,1.6,10.3,2.3c0.8,0.2,1.6,0.3,2.4,0.5c0.5,0.1,1.1,0.2,1.6,0.3
		c0.6,0.1,1.3,0.2,1.9,0.3c0.9,0.2,1.8,0.3,2.7,0.5c1.3,0.2,2.6,0.4,3.9,0.6c1.2,0.2,2.3,0.3,3.5,0.5c0.7,0.1,1.5,0.2,2.2,0.3
		c1.5,0.2,3,0.4,4.5,0.5c0.7,0.1,1.4,0.1,2,0.2c0.6,0.1,1.3,0.1,1.9,0.2c0.8,0.1,1.6,0.2,2.4,0.2c0.8,0.1,1.6,0.1,2.4,0.2
		C418,321.9,418.2,321.9,418.6,321.9L418.6,321.9z"/>
	<path class="st9" d="M429.8,252.2l-1,6.3l-1.1,6.8l-6.4,39.1l-1.2,7.3l-1.6,10.2l-0.8,4.7l-48.6,299.5c-0.5,3.2-3.1,5.6-6.3,5.8
		c-0.2,0-0.4,0-0.5,0h-40.8L373,314.6l2.8-17l6.5-40l2.3-13.9C404.2,244.1,418.7,247.4,429.8,252.2z"/>
	<path class="st11" d="M427.7,265.3l-6.4,39.1l-1.2,7.3l-1.6,10.2l-0.8,4.7l-48.6,299.5c-0.5,3.2-3.1,5.6-6.3,5.8
		c-0.2,0-0.4,0-0.5,0h-40.8L373,314.6l2.8-17l6.5-40C401.9,257.8,416.4,260.8,427.7,265.3z"/>
	<path class="st8" d="M421.4,304.4l-1.2,7.3l-1.6,10.2l-0.8,4.7l-48.6,299.5c-0.5,3.2-3.1,5.6-6.3,5.8c-0.2,0-0.4,0-0.5,0h-40.8
		L373,314.6l2.8-17C388.9,300.9,403.9,303.3,421.4,304.4z"/>
	<path class="st9" d="M418.5,321.9l-0.8,4.7l-45.4,279.9l-3.2,19.6c-0.4,2.6-2.3,4.7-4.7,5.5c-0.4,0.1-0.7,0.2-1.1,0.3
		c-0.2,0-0.4,0.1-0.6,0.1c-0.2,0-0.4,0-0.5,0h-40.8l4.1-25.5L373,314.6c0.4,0.1,0.7,0.2,1.1,0.3c0.6,0.2,1.2,0.3,1.8,0.5
		c3.3,0.8,6.7,1.6,10.3,2.3c0.8,0.2,1.6,0.3,2.4,0.5c0.5,0.1,1.1,0.2,1.6,0.3c0.6,0.1,1.3,0.2,1.9,0.3c0.9,0.2,1.8,0.3,2.7,0.5
		c1.3,0.2,2.6,0.4,3.9,0.6c1.2,0.2,2.3,0.3,3.5,0.5c0.7,0.1,1.5,0.2,2.2,0.3c1.5,0.2,3,0.4,4.5,0.5c0.7,0.1,1.4,0.1,2,0.2
		c0.6,0.1,1.3,0.1,1.9,0.2c0.8,0.1,1.6,0.2,2.4,0.2c0.8,0.1,1.6,0.1,2.4,0.2C418,321.9,418.2,321.9,418.5,321.9z"/>
	<circle class="st9" cx="241.9" cy="318" r="31"/>
	<circle class="st9" cx="299.9" cy="350.5" r="16"/>
	<circle class="st9" cx="259" cy="385" r="10"/>
	<circle class="st9" cx="338.4" cy="514.2" r="31"/>
	<circle class="st9" cx="263.1" cy="534.6" r="16"/>
	<circle class="st9" cx="264.2" cy="481.3" r="10"/>
	<path class="st9" d="M372.4,606.5l-3.2,19.6c-0.5,3-2.9,5.3-5.8,5.8c-0.2,0-0.4,0.1-0.6,0.1c-0.2,0-0.4,0-0.5,0H237.7
		c-0.2,0-0.4,0-0.6,0c-3.1-0.3-5.7-2.7-6.3-5.8l-3.2-19.6H372.4z"/>
	<path class="st11" d="M372.4,606.5l-3.2,19.6c-0.4,2.6-2.3,4.7-4.7,5.5c-0.4,0.1-0.7,0.2-1.1,0.3c-0.2,0-0.4,0.1-0.6,0.1
		c-0.2,0-0.4,0-0.5,0h-40.8l4.1-25.5H372.4z"/>
</g>
</svg>
