<?xml version="1.0" encoding="utf-8"?>
<!-- Generator: Adobe Illustrator 22.1.0, SVG Export Plug-In . SVG Version: 6.00 Build 0)  -->
<svg version="1.1" id="Layer_1" xmlns="http://www.w3.org/2000/svg" xmlns:xlink="http://www.w3.org/1999/xlink" x="0px" y="0px"
	 viewBox="0 0 600 657" style="enable-background:new 0 0 600 657;" xml:space="preserve">
<style type="text/css">
	.st0{fill:#0000FF;}
	.st1{fill:#F3F7DE;}
	.st2{fill:#C4E5DC;}
	.st3{fill:#DDEEDB;}
	.st4{fill:#AADCD9;}
	.st5{fill:#9ED3D7;}
	.st6{fill:#D6EBD4;}
	.st7{fill:#B8E0D5;}
	.st8{fill:#F1F5D7;}
	.st9{fill:#313177;}
	.st10{fill:#232360;}
	.st11{fill:#444484;}
	.st12{fill:#1E1E5E;}
	.st13{fill:#1C1C51;}
	.st14{opacity:0.4;fill:#FFFFFF;mix-blend-mode:soft-light;}
</style>
<g>
	<path class="st0" d="M367.0138245,241.5583649h-0.5000916v-0.0698242
		C366.6836853,241.4983063,366.8433838,241.5183258,367.0138245,241.5583649z"/>
	<g>
		<path class="st1" d="M445.1491699,225.5734711c0.0100098,4.3007965-1.6604309,8.351532-4.690979,11.3921051
			c-3.030304,3.0404358-7.0710449,4.7207794-11.3718262,4.7307892H168.8516083
			c-8.8415985,0-13.9626007-6.8312531-13.9823761-15.6827545l-0.0800934-51.708847
			c-0.0100098-4.3007965,1.6601868-8.3414001,4.6907501-11.3819733c3.0305481-3.0405579,7.061264-5.0709381,11.3620605-5.0809479
			h258.8843994c8.601593,0.380188,15.3327332,7.4213257,15.3427429,16.0227814L445.1491699,225.5734711z"/>
		<path class="st2" d="M445.1491699,225.5734711c0.0100098,4.3007965-1.6604309,8.351532-4.690979,11.3921051
			c-3.030304,3.0404358-7.0710449,4.7207794-11.3718262,4.7307892H313.6465454
			c4.3008118-0.0100098,8.3412781-1.6903534,11.3718567-4.7307892c3.0305481-3.0405731,4.7007446-7.0913086,4.6907349-11.3921051
			l-0.0097656-8.5714264l-0.0600586-33.9658051l-0.0100098-9.1716156
			c-0.0100403-8.6014557-6.7411499-15.6425934-15.3427429-16.0227814h115.4397888
			c8.601593,0.380188,15.3327332,7.4213257,15.3427429,16.0227814L445.1491699,225.5734711z"/>
		<path class="st3" d="M372.8644409,225.5749817c0.0102539,4.3007813-1.6599731,8.3415222-4.6907654,11.3820801
			c-3.030304,3.0505676-7.0710449,4.7207794-11.371582,4.7307892H244.0922699
			c-4.3005524-0.0100098-8.3412933-1.6802216-11.3720856-4.7307892c-3.030304-3.0405579-4.7005157-7.0812988-4.6902618-11.3820801
			l0.0796051-51.7088623c0.0102539-8.6013336,6.741394-15.6525879,15.3429718-16.0327911H357.441864
			c8.6015625,0.3802032,15.3327026,7.4314575,15.3424683,16.0327911L372.8644409,225.5749817z"/>
		<path class="st4" d="M420.1734314,210.103775c0,0.4600372-0.0498047,0.9103088-0.1401672,1.3503265
			c-0.6197205,3.0405579-3.300354,5.3407593-6.5406799,5.3510132h-0.4302368l-40.2569275,0.0600739l-68.081543,0.0996246h-2.8505859
			l-73.7827301,0.1103668l-41.5974884,0.0600739c-3.7003479,0.0097656-6.6906128-2.9804993-6.7008667-6.6813202
			l-0.0297852-20.593399c-0.0102539-3.6910553,2.980011-7.021225,6.6710663-7.0314789h227.0088043
			c2.2503967-0.0097656,4.2409668,1.100296,5.4511414,2.8007813c0,0,0.0097656,0.0097656,0.0097656,0.0200195
			c0.1802063,0.2500458,0.3301392,0.5000916,0.4703064,0.7696686c0.1000977,0.1802063,0.1899719,0.3701782,0.27005,0.5704041
			c0.0800781,0.1699524,0.139679,0.3399048,0.2002258,0.5298767c0.0996399,0.3203735,0.1699524,0.6402435,0.2197571,0.9703827
			c0.0498352,0.3301392,0.0801086,0.6700439,0.0801086,1.0201874L420.1734314,210.103775z"/>
		<path class="st5" d="M420.1728516,210.1023407c0,0.4602814-0.050293,0.9100647-0.1401367,1.3503265
			c-0.6500244,3.0405731-3.4405518,5.3410034-6.8112488,5.3507843h-0.1596985l-40.2569275,0.0600586v-33.9758148
			l40.6368713-0.0600739c2.2503967-0.0100098,4.2404785,1.100296,5.4506531,2.8005371c0,0,0.0102539,0.0100098,0.0102539,0.0200195
			c0.1601868,0.2700653,0.3101196,0.5301208,0.440033,0.7701569c0.1000977,0.1799622,0.1997375,0.3701782,0.2798157,0.5701599
			c0.0801086,0.1699524,0.1504211,0.3399048,0.2099915,0.5301208c0.1001282,0.3198853,0.1802368,0.6399994,0.2305298,0.9701385
			c0.0498047,0.329895,0.0795898,0.6700439,0.0795898,1.0199585L420.1728516,210.1023407z"/>
		<path class="st2" d="M228.0905609,182.8290558v34.2461243l-41.5974884,0.0600739
			c-3.7003479,0.0097656-6.6906128-2.9804993-6.7008667-6.6813202l-0.0297852-20.593399
			c-0.0102539-3.6910553,2.980011-7.021225,6.6710663-7.0314789H228.0905609z"/>
	</g>
	<polygon class="st6" points="361.8661804,241.703186 361.8661804,286.4608765 237.5114441,286.4659119 237.5114441,241.7082062
		304.1636963,241.5982056 	"/>
	<path class="st7" d="M401.3729858,298.3581848l-45.4680176-0.0134888c-2.6920776-0.000824-4.8739929-2.1833801-4.8739929-4.8754578
		v-46.691864c0-2.8132477,2.2759094-5.0963287,5.0891418-5.1051941l24.3022156-0.0639954l20.9173584,0.0950012v0.1600494
		L401.3729858,298.3581848z"/>
	<path class="st8" d="M244.6972351,299.8346558H198.338028v-58.1494293h46.3592072
		c2.8408356,0,5.1437836,2.302948,5.1437836,5.1437683v47.8618927
		C249.8410187,297.5317078,247.5380707,299.8346558,244.6972351,299.8346558z"/>
	<path class="st3" d="M541.2938232,363.7793579l-63.3312378,274.1672974
		c-2.5805054,11.1418457-12.5021362,19.0333252-23.9338074,19.0333252H145.9156952
		c-11.4419098,0-21.3640289-7.8914795-23.9342957-19.0333252L58.6506729,363.7793579
		c-2.7807503-12.012085,3.6505318-24.2441711,15.1222305-28.7649536l205.8957977-71.1621704
		c11.4116211-4.5007629,23.9538269-5.0609131,35.6457825-1.6902161l0.1103821,0.0297852
		c1.6399231,0.4803162,3.2505493,1.0304565,4.8504333,1.6604309l205.8855286,71.1621704
		C537.6329956,339.5351868,544.0638428,351.7672729,541.2938232,363.7793579z"/>
	<path class="st2" d="M383.4463196,632.8457031l-1.1798706,5.1009521c-0.1802063,0.7601318-0.3804626,1.5002441-0.6304932,2.2203979
		L383.4463196,632.8457031z"/>
	<path class="st1" d="M242.0919189,656.9799805L208.5661316,657v-0.0200195h-62.6504364
		c-11.4321442,0-21.353775-7.8914795-23.9342957-19.0333252L58.6506729,363.7793579
		c-2.7704964-12.012085,3.6602974-24.2441711,15.1324921-28.7649536l144.3847046-49.8984985l31.3554993-10.8419495
		c-9.8815918,3.5606689-16.3426666,13.0022583-16.2327728,23.3641357c0,0.7701416,0.0498047,1.530304,0.1298981,2.3102112
		l0.5498962,5.2010803l0.0703278,0.7801819l-7.7816162,2.6703796L89.5856857,355.618042
		c-3.830246,1.5102844-5.9707565,5.5908203-5.0506744,9.5914917l5.9609909,25.8245239l0.2099915,0.9002991l3.1904907,13.7723999
		l0.2002335,0.8800354l16.2728195,70.4422913l2.4003143,10.3916931l1.0602417,4.6109009l2.3402481,10.1015625
		l28.5049057,123.4111328c0.8702698,3.7609253,4.2209473,6.4312744,8.0917206,6.4312744h64.0007629l0.2100067,0.8700562
		l1.1803741,5.1009521c0.179718,0.7501221,0.3701782,1.4802246,0.620224,2.1903076
		c0,0.0100098,0.0097656,0.0200195,0.0097656,0.0300903C222.0884705,650.1187134,231.4401855,656.9799805,242.0919189,656.9799805z"
		/>
	<path class="st2" d="M541.3533936,363.7793579l-63.330719,274.1672974
		c-2.5805359,11.1418457-12.5021667,19.0333252-23.9342957,19.0333252h-62.2304382V657l-33.5257874-0.0200195
		c10.6517334,0,20.003418-6.8612671,23.3038025-16.8129272c0.2500305-0.7201538,0.4502869-1.4602661,0.6304932-2.2203979
		l1.1798706-5.1009521l0.2099915-0.8700562h63.5812683c3.8703003,0,7.2209778-2.6703491,8.0912476-6.4312744l28.5048828-123.4111328
		l2.340271-10.1015625l1.0602417-4.6109009l2.4002991-10.3916931l16.2728271-70.4422913l0.2002258-0.8800354l3.1904907-13.7723999
		l0.2099915-0.9002991l5.9609985-25.8245239c0.920105-4.0006714-1.2199097-8.0812073-5.0506897-9.5914917l-136.0834656-46.8081055
		l-0.300354-0.0998535l-7.4910278-2.5805359l0.0698242-0.7301025l0.5503845-5.2011108
		c0.0796204-0.7799072,0.1299133-1.5400391,0.1299133-2.3102112c0.0698547-6.5111084-2.4603882-12.6620789-6.8014526-17.2129211
		c-0.3096313-0.3401489-0.6397705-0.6602478-0.9796753-0.9803772c-1.8806763-1.8201294-4.0607605-3.3504333-6.491333-4.5007935
		l22.664032,7.7913818l6.4508362,2.2303772l0.300354,0.1001282l143.7844849,49.6984863
		C537.6931152,339.5351868,544.1239014,351.7672729,541.3533936,363.7793579z"/>
	<path class="st1" d="M218.7783356,640.1369629c-0.2500458-0.710083-0.440506-1.4401855-0.620224-2.1903076l-1.1803741-5.1009521
		L218.7783356,640.1369629z"/>
	<path class="st4" d="M515.2990723,365.2095337l-5.960968,25.8245239l-0.2099915,0.9002991l-3.1904907,13.7723999
		l-0.2002258,0.8800354l-16.2728271,70.4422913l-2.4002991,10.3916931l-1.0602417,4.6109009l-2.3402405,10.1015625
		l-28.5049133,123.4111328c-0.8702698,3.7609253-4.2209473,6.4312744-8.0912476,6.4312744H152.8665924
		c-3.8605194,0-7.2209625-2.6703491-8.0912323-6.4312744L115.880249,500.4630432l-1.8103638-7.8314209l-1.5700989-6.8112488
		l-1.8601837-8.0611877l-17.6231461-76.2631226l-0.1401672-0.6002197l-3.240303-14.0224304l-0.1401596-0.6001892
		l-4.8607025-21.0636902c-0.9200745-4.0006714,1.2301941-8.0812073,5.0506744-9.5914917l199.1544189-68.50177
		c3.5606689-1.4003906,7.3010559-2.1104736,11.1317749-2.1104736c3.8209839,0,7.5716248,0.710083,11.1318054,2.1104736
		l199.1446228,68.50177C514.0791626,357.1283264,516.2191772,361.2088623,515.2990723,365.2095337z"/>
	<path class="st5" d="M515.2990723,365.2095337l-5.960968,25.8245239l-0.2099915,0.9002991l-3.1904907,13.7723999
		l-0.2002258,0.8800354l-16.2728271,70.4422913l-2.4002991,10.3916931l-1.0602417,4.6109009l-2.3402405,10.1015625
		l-28.5049133,123.4111328c-0.8702698,3.7609253-4.2209473,6.4312744-8.0912476,6.4312744H383.656311l68.6817627-296.2809448
		l57.9103394,19.9233398C514.0791626,357.1283264,516.2191772,361.2088623,515.2990723,365.2095337z"/>
	<path class="st5" d="M515.2990723,365.2095337l-5.960968,25.8245239l-0.2099915,0.9002991l-3.1904907,13.7723999
		l-0.2002258,0.8800354l-16.2728271,70.4422913l-2.4002991,10.3916931l-1.0602417,4.6109009l-2.3402405,10.1015625
		l-28.5049133,123.4111328c-0.3799438,1.6504517-1.2301941,3.0806274-2.4008179,4.1809082
		c-1.5002441,1.4101563-3.510376,2.2503662-5.6806641,2.2503662H383.656311l33.5858765-144.8850098l3.3907166-14.6324158
		l17.5728455-75.7930603l3.4805908-15.002594l10.6517334-45.967865l57.9103394,19.9233398
		C514.0791626,357.1283264,516.2191772,361.2088623,515.2990723,365.2095337z"/>
	<path class="st2" d="M84.6289673,365.2095337l5.9609833,25.8245239l0.2099991,0.9002991l3.1904907,13.7723999l0.2002335,0.8800354
		l16.2728195,70.4422913l2.4003143,10.3916931l1.0602417,4.6109009l2.3402481,10.1015625l28.5048981,123.4111328
		c0.8702698,3.7609253,4.2209473,6.4312744,8.0912476,6.4312744h63.4113007l-68.6817474-296.2809448L89.6796417,355.618042
		C85.8488998,357.1283264,83.7088852,361.2088623,84.6289673,365.2095337z"/>
	<path class="st9" d="M509.3381042,391.0340576l-0.2099915,0.9002991l-3.1904907,13.7723999l-0.2002258,0.8800354
		l-16.2728271,70.4422913l-2.4002991,10.3916931l-1.0602417,4.6109009l-2.3402405,10.1015625l-28.5049133,123.4111328
		c-0.8702698,3.7609253-4.2209473,6.4312744-8.0912476,6.4312744H152.8665924c-3.8605194,0-7.2209625-2.6703491-8.0912323-6.4312744
		L115.880249,500.4630432l-1.8103638-7.8314209l-1.5700989-6.8112488l-1.8601837-8.0611877
		c88.904953-3.370697,135.3231049-28.2250671,180.2107086-52.2692566c3.8410034-2.0601501,7.6517029-4.1005554,11.452179-6.1109009
		l3.2905884-1.7402954h0.0200195c0.9303589-0.480072,1.860199-0.9701538,2.7802734-1.4501953
		c5.8013-3.0105286,11.012146-5.6210938,15.942688-7.9515686c27.4749451-13.0921021,62.6411438-26.4943237,114.9597168-26.5844116
		h0.5802002C466.8308105,381.6525574,489.5847168,384.7231445,509.3381042,391.0340576z"/>
	<path class="st10" d="M505.9376221,405.7067566l-0.2002258,0.8800354l-16.2728271,70.4422913l-2.4002991,10.3916931
		l-1.0602417,4.6109009l-2.3402405,10.1015625l-28.5049133,123.4111328
		c-0.8702698,3.7609253-4.2209473,6.4312744-8.0912476,6.4312744H152.8665924c-3.8605194,0-7.2209625-2.6703491-8.0912323-6.4312744
		L115.880249,500.4630432l-1.8103638-7.8314209c98.2571411-4.2607422,147.1454468-34.5760193,195.2435608-59.9902954H309.3237
		c2.0003357-1.0502319,3.990448-2.1004639,5.9810181-3.1306763c5.1210022-2.6603699,10.2615356-5.2509155,15.462616-7.7313232
		c30.0354614-14.3022461,62.4707031-25.044342,108.5587158-25.124176
		C467.2605591,396.6150818,488.8043213,400.0756531,505.9376221,405.7067566z"/>
	<path class="st11" d="M489.4645691,477.0290833l-2.4002991,10.3916931l-1.0602417,4.6109009l-2.3402405,10.1015625
		l-28.5049133,123.4111328c-0.8702698,3.7609253-4.2209473,6.4312744-8.0912476,6.4312744H152.8665924
		c-3.8605194,0-7.2209625-2.6703491-8.0912323-6.4312744L115.880249,500.4630432l-3.3804626-14.6426697l-19.4833298-84.3243103
		l-0.1401672-0.6002197l-3.240303-14.0224304l-0.1401596-0.6001892c15.0323715-3.030304,32.0856018-4.5806274,50.7186966-4.6206665
		h0.4502716c52.3986664,0,87.7748718,13.4522705,115.4598083,26.6146851
		c3.0605774,1.4602051,6.2510681,3.0202942,9.7614441,4.7806091c2.0506592,1.0402222,4.0710144,2.0704346,6.1011658,3.1106567
		c5.6308289,2.9104004,11.3217468,5.9309387,16.8129272,8.8513489
		c47.9682312,25.4946289,97.5568542,51.8490295,198.2240601,52.0192261H489.4645691z"/>
	<path class="st9" d="M486.0040283,492.0316772l-2.3402405,10.1015625l-24.8544006,107.6086426l-3.6505127,15.8024902
		c-0.8702698,3.7609253-4.2209473,6.4312744-8.0912476,6.4312744H152.8665924c-3.8605194,0-7.2209625-2.6703491-8.0912323-6.4312744
		l-3.650528-15.8024902L115.880249,500.4630432l-3.3804626-14.6426697l-19.4833298-84.3243103l-0.1401672-0.6002197
		c13.4022141-2.6703796,29.0049973-4.2006531,47.3680191-4.2406921
		c46.4982452-0.0600891,79.1439972,10.7618408,109.4392548,25.1542053c3.1704559,1.5202942,6.3208923,3.0606079,9.4615784,4.6409607
		c2.0003357,1.0101624,3.9806824,2.030365,5.9810181,3.0603333
		C318.2749634,456.9255371,370.2140808,491.641449,486.0040283,492.0316772z"/>
	<path class="st12" d="M509.3478699,391.0340576l-0.2099915,0.9002991l-3.1904907,13.7723999l-0.1997375,0.8800354
		l-16.2728271,70.4422913l-2.4002991,10.3916931l-1.06073,4.6109009l-2.3402405,10.1015625l-28.5049133,123.4111328
		c-0.3897095,1.6504517-1.2399597,3.0906372-2.4105835,4.1809082c-1.5002441,1.4101563-3.510376,2.2503662-5.6806641,2.2503662
		H383.656311l33.5858765-144.8850098l3.3907166-14.6324158l17.5728455-75.7930603l3.4805908-15.002594
		c26.1646423,0.1299133,48.3383789,3.2005005,67.6517639,9.3714905H509.3478699z"/>
	<path class="st13" d="M505.9473877,405.7067566l-0.1997375,0.8800354l-16.2728271,70.4422913l-2.4002991,10.3916931
		l-1.06073,4.6109009l-2.3402405,10.1015625l-28.5049133,123.4111328c-0.3897095,1.6504517-1.2399597,3.0906372-2.4105835,4.1809082
		c-1.5002441,1.4101563-3.510376,2.2503662-5.6806641,2.2503662H383.656311l33.5858765-144.8850098l3.3907166-14.6324158
		l17.5728455-75.7930603c0.3799438-0.0100098,0.7501221-0.0100098,1.1300964-0.0100098
		c27.9247131-0.0400696,49.4684753,3.4205017,66.6017761,9.0516052H505.9473877z"/>
	<path class="st9" d="M489.474823,477.0290833l-2.4002991,10.3916931l-1.06073,4.6109009l-2.3402405,10.1015625
		l-28.5049133,123.4111328c-0.3897095,1.6504517-1.2399597,3.0906372-2.4105835,4.1809082
		c-1.5002441,1.4101563-3.510376,2.2503662-5.6806641,2.2503662H383.656311l33.5858765-144.8850098l3.3907166-14.6324158
		c19.4833374,2.8703613,41.3572083,4.5308228,66.4015808,4.5708618H489.474823z"/>
	<path class="st10" d="M486.0137939,492.0316772l-2.3402405,10.1015625l-24.8539124,107.6086426l-3.651001,15.8024902
		c-0.3897095,1.6504517-1.2399597,3.0906372-2.4105835,4.1809082c-1.5002441,1.4101563-3.510376,2.2503662-5.6806641,2.2503662
		H383.656311l5.1513062-22.2337646l28.4345703-122.6512451c20.2134399,3.0505676,42.897522,4.8509216,68.7618408,4.94104
		H486.0137939z"/>
	<circle class="st10" cx="169.2395325" cy="453.3848877" r="25.3376942"/>
	<circle class="st10" cx="212.4136353" cy="487.8908081" r="13.1689339"/>
	<circle class="st10" cx="205.3370361" cy="575.831543" r="13.1689339"/>
	<circle class="st10" cx="401.8521423" cy="553.6290894" r="25.3376942"/>
	<circle class="st10" cx="356.1162415" cy="522.5986328" r="13.1689339"/>
	<circle class="st10" cx="324.4972534" cy="558.6826782" r="7.3345957"/>
	<circle class="st10" cx="176.1660461" cy="587.7523193" r="7.3345957"/>
	<path class="st10" d="M458.8093872,609.7418823l-3.6505127,15.8024902
		c-0.8702698,3.7609253-4.2209473,6.4312744-8.0912476,6.4312744H152.8665924c-3.8605194,0-7.2209625-2.6703491-8.0912323-6.4312744
		l-3.650528-15.8024902H458.8093872z"/>
	<path class="st13" d="M458.8196411,609.7418823l-3.651001,15.8024902
		c-0.3897095,1.6504517-1.2399597,3.0906372-2.4105835,4.1809082c-1.5002441,1.4101563-3.510376,2.2503662-5.6806641,2.2503662
		H383.656311l5.1513062-22.2337646H458.8196411z"/>
	<path class="st14" d="M238.9014282,356.248291c0,6.0908813-3.8107147,11.7817993-9.9016113,13.8722534l-74.1492767,25.4527588
		c-1.4061737,0.4841919-2.2197418,1.9519958-1.8851624,3.401062l24.275528,102.3186646
		c1.8206329,7.8914795-3.1006317,15.7727051-11.0018921,17.6031494c-7.9012604,1.8203735-15.7825012-3.100647-17.6031189-11.0019226
		l-25.8900146-109.334137c-2.7938919-12.1010132,4.0003052-24.3583069,15.7430267-28.4016724l80.9492035-27.7926941
		c7.6712494-2.6403503,16.0227814,1.4301758,18.6633759,9.1014404
		C238.6513824,353.0475464,238.9014282,354.6579285,238.9014282,356.248291z"/>
	<path class="st14" d="M161.229599,556.663269l-1.8996277-8.321228c-1.1338959-5.0779419,0.5252991-10.4329224,4.3548279-13.9667358
		c1.8817444-1.7364502,4.1952515-2.9459229,6.6952362-3.5108032c7.8640442-1.7720947,15.7053986,3.1860352,17.4775238,11.0500488
		l1.885498,8.3203125c1.1480408,5.0784912-0.5177765,10.4263306-4.3473053,13.960144
		c-1.8817444,1.7363892-4.1952515,2.9459229-6.6952362,3.5108032c-3.8071289,0.859375-7.7225494,0.1852417-11.0218964-1.9006348
		C164.3791046,563.7191162,162.0888062,560.4702148,161.229599,556.663269z"/>
	<path class="st2" d="M375.6852112,282.9854126l-22.664032-7.7913818c-0.1098938-0.0498047-0.2300415-0.1098633-0.3399048-0.1599121
		L375.6852112,282.9854126z"/>
	<polygon class="st1" points="249.5233765,274.2739563 218.1678772,285.1159058 218.1478577,285.0558472 	"/>
	<path class="st2" d="M353.0211792,275.1940308c2.4305725,1.1503601,4.6106567,2.6806641,6.491333,4.5007935
		c-1.9104919-1.7901001-4.1208191-3.2903748-6.5812073-4.410675c-0.6104431-0.2800903-1.2301941-0.5301208-1.8704224-0.7601318
		L353.0211792,275.1940308z"/>
	<polygon class="st2" points="382.4364014,285.3058777 382.4364014,285.315918 382.1360474,285.2157898 375.6852112,282.9854126
		"/>
</g>
</svg>
