<?xml version="1.0" encoding="utf-8"?>
<!-- Generator: Adobe Illustrator 22.1.0, SVG Export Plug-In . SVG Version: 6.00 Build 0)  -->
<svg version="1.1" id="Layer_1" xmlns="http://www.w3.org/2000/svg" xmlns:xlink="http://www.w3.org/1999/xlink" x="0px" y="0px"
	 viewBox="0 0 600 657" style="enable-background:new 0 0 600 657;" xml:space="preserve">
<style type="text/css">
	.st0{fill:#AADCD9;}
	.st1{fill:#F3F7DE;}
	.st2{fill:#E7EAD0;}
	.st3{fill:#9ED3D7;}
	.st4{fill:#FFDD9D;}
	.st5{fill:#FFC98F;}
	.st6{fill:#BAE2DE;}
	.st7{fill:#DA1A48;}
	.st8{fill:#CB1749;}
	.st9{fill:#E63B66;}
	.st10{fill:#E22955;}
	.st11{fill:#D83232;}
	.st12{fill:#D81A48;}
	.st13{fill:#EB526F;}
	.st14{fill:none;}
	.st15{fill:#DDEEDB;}
	.st16{fill:#B71547;}
	.st17{fill:#93C9C7;}
</style>
<g>
	<path class="st0" d="M300,612c-80,0-148.2-59.8-158.6-139c-0.7-5.2-1.1-10.5-1.3-15.8c-0.1-1.7-0.1-3.4-0.1-5.2
		c0-10.3,1-20.6,2.9-30.6c1.5-7.9,3.7-15.8,6.4-23.4c22.8-63.4,83.3-106.1,150.6-106.1c68,0,128.7,43.1,151.1,107.4
		c2.1,6.1,3.9,12.4,5.3,18.8c2.4,11.1,3.6,22.4,3.6,33.8c0,1.8,0,3.2-0.1,4.6v0.3c-0.2,6.6-0.8,13.3-1.8,19.8
		c-4.9,31.2-18.8,60.1-40.4,83.5c-21.3,23.1-48.5,39.4-78.7,46.9l-0.7,0.2C325.8,610.5,312.9,612,300,612z"/>
	<rect x="231.7" y="203" class="st1" width="136.7" height="97.3"/>
	<rect x="231.7" y="224.4" class="st2" width="136.7" height="19.2"/>
	<circle class="st1" cx="300" cy="452" r="205"/>
	<path class="st3" d="M475,452c0,1.7,0,3.4-0.1,5.1l0,0c-0.2,7.3-0.9,14.5-2,21.6c0,0.1,0,0.2,0,0.3
		c-10.8,69.6-62.9,125.8-130.3,142.7l0,0c-0.3,0.1-0.5,0.1-0.8,0.2l0,0c-13.4,3.3-27.5,5.1-41.9,5.1c-88.7,0-162.2-66.4-173.5-152
		c0-0.1,0-0.1,0-0.2c-0.7-5.6-1.2-11.3-1.4-17.1l0,0c-0.1-1.9-0.1-3.8-0.1-5.7c0-10.4,0.9-20.5,2.6-30.4c0.2-1,0.4-2.1,0.6-3.1
		c1.5-7.7,3.5-15.1,5.9-22.4c0.3-1.1,0.7-2.1,1.1-3.2c24.3-67.5,89-116,164.8-116c76.3,0,141.4,49.1,165.3,117.4
		c0.2,0.5,0.4,1.1,0.6,1.6c2.1,6.2,3.8,12.5,5.2,19c0.1,0.5,0.2,0.9,0.3,1.4C473.7,427.9,475,439.8,475,452z"/>
	<path class="st0" d="M300,612c-80,0-148.2-59.8-158.6-139c-0.7-5.2-1.1-10.5-1.3-15.8c-0.1-1.7-0.1-3.4-0.1-5.2
		c0-10.3,1-20.6,2.9-30.6c1.5-7.9,3.7-15.8,6.4-23.4c22.8-63.4,83.3-106.1,150.6-106.1c68,0,128.7,43.1,151.1,107.4
		c2.1,6.1,3.9,12.4,5.3,18.8c2.4,11.1,3.6,22.4,3.6,33.8c0,1.8,0,3.2-0.1,4.6v0.3c-0.2,6.6-0.8,13.3-1.8,19.8
		c-4.9,31.2-18.8,60.1-40.4,83.5c-21.3,23.1-48.5,39.4-78.7,46.9l-0.7,0.2C325.8,610.5,312.9,612,300,612z"/>
	<g>
		<path class="st4" d="M370.5,135.8l-8.5,47.4c0,6.3-2,11.9-5.2,15.9c-3.5,3.7-8.4,6-13.8,6l-86.7,0.1c-10.5,0-19-8.5-19-19
			l-8.5-52.1c-1.2-7.3,1.7-14.8,7.9-18.9c3-2.1,6.7-3.3,10.6-3.3l104.7-0.2c2.7,0,5.3,0.6,7.7,1.6c4.6,2,8,6,9.7,10.7
			c0.8,2,1.3,4.3,1.5,6.6C370.9,132.4,370.8,134.1,370.5,135.8z"/>
		<path class="st5" d="M370.6,135.8l-8.6,47.4c0,6.3-2,11.9-5.2,15.9c-3.1,3.3-7.4,5.5-12.2,6c-0.5,0.1-1.1,0.1-1.7,0.1h-23.3
			c9.1,0,16.5-9.9,16.4-22l8.9-49.4c0-12.1-7.4-21.9-16.5-21.9h23.3c2.7,0,5.3,0.6,7.7,1.6c4.6,2,8,6,9.7,10.7
			c0.8,2.2,1.4,4.7,1.6,7.3C370.9,132.9,370.8,134.4,370.6,135.8z"/>
		<circle class="st5" cx="282.6" cy="169.9" r="12.5"/>
		<circle class="st5" cx="282.9" cy="128.3" r="7"/>
		<ellipse class="st5" cx="255.7" cy="142.4" rx="13.7" ry="13.7"/>
		<circle class="st5" cx="325.1" cy="142.4" r="9.3"/>
	</g>
	<circle class="st6" cx="300" cy="451.9" r="105"/>
	<path class="st7" d="M475,452c0,1.7,0,3.4-0.1,5.1l0,0c-0.2,7.3-0.9,14.5-2,21.6c0,0.1,0,0.2,0,0.3
		c-10.8,69.6-62.9,125.8-130.3,142.7l0,0c-0.3,0.1-0.5,0.1-0.8,0.2l0,0c-13.4,3.3-27.5,5.1-41.9,5.1c-88.7,0-162.2-66.4-173.5-152
		c0-0.1,0-0.1,0-0.2c-0.7-5.6-1.2-11.3-1.4-17.1c151.6-0.7,164.1-75.5,272.1-75.7c31.9,0,53.1,5.7,68.6,14.1
		c2.1,6.2,3.8,12.5,5.2,19c0.1,0.5,0.2,0.9,0.3,1.4C473.7,427.9,475,439.8,475,452z"/>
	<path class="st8" d="M475,452c0,1.7,0,3.4-0.1,5.1l0,0c-0.2,7.3-0.9,14.5-2,21.6c0,0.1,0,0.2,0,0.3
		c-10.8,69.6-62.9,125.8-130.3,142.7c-0.3,0.1-0.5,0.1-0.8,0.2l0,0c-13.4,3.3-27.5,5.1-41.9,5.1c-88.7,0-162.2-66.4-173.5-152
		c0-0.1,0-0.1,0-0.2c87.7-0.6,128.6-26.2,168.8-47.5c28.7-15.2,57.1-28.2,102-28.2c35.8-0.1,58.3,7.2,74.1,17.3
		C473.7,427.9,475,439.8,475,452z"/>
	<path class="st9" d="M474.9,457.2c-0.2,7.3-0.9,14.5-2,21.6c0,0.1,0,0.2,0,0.3c-10.8,69.6-62.9,125.8-130.3,142.7
		c-0.3,0.1-0.5,0.1-0.8,0.2l0,0c-13.4,3.3-27.5,5.1-41.9,5.1c-88.7,0-162.2-66.4-173.5-152c-0.8-5.7-1.2-11.4-1.4-17.3
		c-0.1-1.9-0.1-3.8-0.1-5.7c0-10.4,0.9-20.5,2.6-30.4c0.2-1,0.4-2.1,0.6-3.1c1.5-7.7,3.5-15.1,5.9-22.4c8.7-4.6,19.1-8.4,32.2-10.8
		h0.1c10.1-1.9,21.8-3,35.5-3C310.1,382.2,322.7,457.2,474.9,457.2z"/>
	<path class="st10" d="M473,478.8c0,0.1,0,0.2,0,0.3c-10.8,69.6-62.9,125.8-130.3,142.7c-0.3,0.1-0.5,0.1-0.8,0.2l0,0
		c-13.4,3.3-27.5,5.1-41.9,5.1c-88.7,0-162.2-66.4-173.5-152c-0.8-5.7-1.2-11.4-1.4-17.3c-0.1-1.9-0.1-3.8-0.1-5.7
		c0-10.4,0.9-20.5,2.6-30.4c15.8-10.2,38.3-17.7,74.3-17.7C309.6,403.8,322.6,478.2,473,478.8z"/>
	<circle class="st11" cx="285.2" cy="479.4" r="12.8"/>
	<circle class="st12" cx="208.8" cy="482.3" r="35.6"/>
	<circle class="st12" cx="261.1" cy="546.2" r="22.4"/>
	<path class="st9" d="M405,452c0,6.8-0.6,13.5-1.9,20c-9.3,48.5-51.9,85-103.1,85c-6.3,0-12.4-0.5-18.4-1.6
		c-15.2-2.7-29.3-8.7-41.4-17.1c-8.6-6-16.3-13.3-22.8-21.5c-10.9-13.9-18.4-30.7-21.2-49c-0.8-5.2-1.2-10.4-1.2-15.8
		c0-0.4,0-0.7,0-1c6-1.3,11.8-2.6,17.2-4.1c26.5-7.3,47-17.4,66-27.5c7.3-3.9,14.3-7.7,21.4-11.4c23.2-12,46.7-22.3,79.3-25.1
		c4.5,5.1,8.4,10.5,11.8,16.4c8.9,15.2,14,32.8,14.2,51.6C405,451.2,405,451.6,405,452z"/>
	<path class="st10" d="M405,452c0,6.8-0.6,13.5-1.9,20c-9.3,48.5-51.9,85-103.1,85c-6.3,0-12.4-0.5-18.4-1.6
		c-15.2-2.7-29.3-8.7-41.4-17.1c-8.6-6-16.3-13.3-22.8-21.5c-10.9-13.9-18.4-30.7-21.2-49c14-3,26.4-6.7,37.7-10.9
		c23.7-8.8,42.7-19.7,61.4-29.6c7-3.7,14-7.3,21.2-10.5c20.9-9.5,43.7-16.6,74.3-17.6c8.9,15.2,14,32.8,14.2,51.6
		C405,451.2,405,451.6,405,452z"/>
	<path class="st13" d="M405,452c0,6.8-0.6,13.5-1.9,20c-9.3,48.5-51.9,85-103.1,85c-6.3,0-12.4-0.5-18.4-1.6
		c-15.2-2.7-29.3-8.7-41.4-17.1c-8.6-6-16.3-13.3-22.8-21.5c-10.9-13.9-18.4-30.7-21.2-49c-0.8-5.2-1.2-10.4-1.2-15.8
		c0-0.4,0-0.7,0-1c0-0.5,0-1,0-1.5c0.4-16.4,4.5-31.8,11.6-45.5c3.9-7.5,8.6-14.5,14.2-20.9c32.4,2.8,55.8,12.9,78.9,24.8
		c5.6,2.9,11.1,5.8,16.8,8.8c24.4,12.9,50.6,26.3,88.5,34C405,451.2,405,451.6,405,452z"/>
	<path class="st9" d="M403.1,472c-9.3,48.5-51.9,85-103.1,85c-6.3,0-12.4-0.5-18.4-1.6c-15.2-2.7-29.3-8.7-41.4-17.1
		c-8.6-6-16.3-13.3-22.8-21.5c-10.9-13.9-18.4-30.7-21.2-49c-0.8-5.2-1.2-10.4-1.2-15.8c0-0.4,0-0.7,0-1c0-0.5,0-1,0-1.5
		c0.4-16.4,4.5-31.8,11.6-45.5c29.3,0.5,51.5,6.7,71.6,15.3c5.8,2.5,11.5,5.2,17.1,8C326,442.8,355.2,462,403.1,472z"/>
	<circle class="st10" cx="285.3" cy="479.4" r="12.8"/>
	<path class="st10" d="M242.1,495c-4.3,11.3-13.8,19.1-24.7,21.8c-10.9-13.9-18.4-30.7-21.2-49c-0.8-5.2-1.2-10.4-1.2-15.8
		c0-0.4,0-0.7,0-1c0-0.5,0-1,0-1.5c5.3-2.3,11.3-3.2,17.2-2.7c3.2,0.3,6.3,1,9.4,2.2c4.7,1.8,8.8,4.5,12.2,7.9
		C243.6,466.6,247.3,481.4,242.1,495z"/>
	<path class="st10" d="M282,554.3c-0.2,0.4-0.3,0.8-0.5,1.1c-15.2-2.7-29.3-8.7-41.4-17.1c0,0,0-0.1,0.1-0.1
		c4.4-11.6,17.4-17.3,29-12.9C280.7,529.8,286.5,542.7,282,554.3z"/>
	<path class="st14" d="M300,276.5"/>
	<rect x="261.7" y="203" class="st3" width="76.7" height="84.3"/>
	<path class="st1" d="M395,182.4v30.2c0,6.4-5.3,11.7-11.7,11.7H218.7c-6.4,0-11.7-5.2-11.7-11.7v-30.2c0-6.4,5.3-11.7,11.7-11.7
		h164.7C389.8,170.8,395,176,395,182.4z"/>
	<path class="st15" d="M395,182.4v30.2c0,6.4-5.3,11.7-11.7,11.7H311c-6.4,0-11.7-5.2-11.7-11.7v-30.2c0-6.4,5.3-11.7,11.7-11.7
		h72.3C389.8,170.8,395,176,395,182.4z"/>
	<line class="st14" x1="300.5" y1="257.5" x2="300.5" y2="473"/>
	<polyline class="st14" points="300,259.7 300,292 300,346.7 300,452.4 300,555.7 300,612 300,648.4 	"/>
	<polyline class="st14" points="460.1,452.4 404.5,452.4 300,452.4 195.5,452.4 	"/>
	<g>
		<path class="st8" d="M475,452c0,1.7,0,3.4-0.1,5.1l0,0c-0.2,7.3-0.9,14.5-2,21.6c0,0.1,0,0.2,0,0.3
			c-10.8,69.6-62.9,125.8-130.3,142.7c-0.3,0.1-0.5,0.1-0.8,0.2l0,0c-13.4,3.3-27.4,5.1-41.9,5.1c-88.7,0-162.2-66.3-173.5-152
			c0-0.1,0-0.1,0-0.2c-0.2-1.4-0.3-2.7-0.5-4.1v-0.1c-0.1-1.2-0.3-2.5-0.4-3.7c-0.3-3-0.4-6.1-0.5-9.2c5.2,0,10.1-0.1,15-0.3
			c0.2,5.2,0.6,10.5,1.3,15.6c0.1,0.5,0.1,0.9,0.2,1.4C152.6,552.9,220.4,612,299.9,612c12.9,0,25.8-1.6,38.3-4.6l0.7-0.2
			c30.2-7.6,57.5-23.8,78.7-46.9c21.2-23,35-51.3,40.1-81.8c0.1-0.6,0.2-1.1,0.3-1.7c1-6.5,1.6-13.2,1.8-19.8l0,0v-0.3
			c0.1-1.3,0.1-2.8,0.1-4.6c0-11.4-1.2-22.8-3.6-33.8c-0.8-3.5-1.6-7-2.7-10.5c-0.8-2.8-1.7-5.6-2.6-8.3c-1.3-3.8-2.8-7.5-4.4-11.1
			c7.3,2.2,13.6,4.8,19.1,7.8c2.1,6.2,3.8,12.5,5.2,18.9c0.1,0.5,0.2,0.9,0.3,1.4C473.7,427.9,475,439.8,475,452z"/>
		<path class="st16" d="M475,452c0,1.7,0,3.4-0.1,5.1l0,0c-0.2,7.3-0.9,14.5-2,21.6c0,0.1,0,0.2,0,0.3
			c-10.8,69.6-62.9,125.8-130.3,142.7c-0.3,0.1-0.5,0.1-0.8,0.2l0,0c-13.4,3.3-27.4,5.1-41.9,5.1c-88.7,0-162.2-66.3-173.5-152
			c0-0.1,0-0.1,0-0.2c5.2,0,10.2-0.2,15.1-0.4C152.6,552.9,220.4,612,299.9,612c12.9,0,25.8-1.6,38.3-4.6l0.7-0.2
			c30.2-7.6,57.5-23.8,78.7-46.9c21.2-23,35-51.3,40.1-81.8c0.1-0.6,0.2-1.1,0.3-1.7c1-6.5,1.6-13.2,1.8-19.8l0,0v-0.3
			c0.1-1.3,0.1-2.8,0.1-4.6c0-11.4-1.2-22.8-3.6-33.8c-0.8-3.5-1.6-7-2.7-10.5c6.7,2.5,12.5,5.5,17.6,8.7
			C473.7,427.9,475,439.8,475,452z"/>
		<path class="st10" d="M474.9,457.2c-0.2,7.3-0.9,14.5-2,21.6c0,0.1,0,0.2,0,0.3c-10.8,69.6-62.9,125.8-130.3,142.7
			c-0.3,0.1-0.5,0.1-0.8,0.2l0,0c-13.4,3.3-27.4,5.1-41.9,5.1c-88.7,0-162.2-66.3-173.5-152c0-0.1,0-0.1,0-0.2
			c-0.2-1.4-0.3-2.7-0.5-4.1v-0.1c-0.1-1.2-0.3-2.5-0.4-3.7c-0.3-3-0.4-6.1-0.5-9.2l0,0c-0.1-1.9-0.1-3.8-0.1-5.7
			c0-10.4,0.9-20.5,2.6-30.4c0.2-1,0.4-2.1,0.6-3.1c1.5-7.6,3.5-15.1,5.9-22.4c5.5-2.9,11.8-5.6,19-7.7c-1.4,3.1-2.6,6.3-3.8,9.6
			c-1.8,4.9-3.3,9.9-4.5,14.9c-0.7,2.8-1.4,5.6-1.9,8.5c-1.9,10-2.9,20.3-2.9,30.6c0,1.8,0,3.5,0.1,5.2c0,0.1,0,0.1,0,0.2
			c0.2,5.2,0.6,10.5,1.3,15.6c0.1,0.5,0.1,0.9,0.2,1.4c11.1,78.5,78.9,137.6,158.4,137.6c12.9,0,25.8-1.6,38.3-4.6l0.7-0.2
			c30.2-7.6,57.5-23.8,78.7-46.9c21.2-23,35-51.3,40.1-81.8c0.1-0.6,0.2-1.1,0.3-1.7c1-6.5,1.6-13.2,1.8-19.8l0,0
			C464.8,457.1,469.8,457.2,474.9,457.2z"/>
		<path class="st12" d="M472.9,478.8c0,0.1,0,0.2,0,0.3c-10.8,69.6-62.9,125.8-130.3,142.7c-0.3,0.1-0.5,0.1-0.8,0.2l0,0
			c-13.4,3.3-27.4,5.1-41.9,5.1c-88.7,0-162.2-66.3-173.5-152c0-0.1,0-0.1,0-0.2c-0.2-1.4-0.3-2.7-0.5-4.1v-0.1
			c-0.1-1.2-0.3-2.5-0.4-3.7c-0.3-3-0.4-6.1-0.5-9.2l0,0c-0.1-1.9-0.1-3.8-0.1-5.7c0-10.4,0.9-20.5,2.6-30.4
			c5-3.2,10.7-6.2,17.2-8.7c-0.7,2.8-1.4,5.6-1.9,8.5c-1.9,10-2.9,20.3-2.9,30.6c0,1.8,0,3.5,0.1,5.2c0,0.1,0,0.1,0,0.2
			c0.2,5.2,0.6,10.5,1.3,15.6c0.1,0.5,0.1,0.9,0.2,1.4c11.1,78.5,78.9,137.6,158.4,137.6c12.9,0,25.8-1.6,38.3-4.6l0.7-0.2
			c30.2-7.6,57.5-23.8,78.7-46.9c21.2-23,35-51.3,40.1-81.8C462.7,478.7,467.7,478.8,472.9,478.8z"/>
	</g>
	<rect x="261.7" y="224.4" class="st17" width="76.7" height="19.2"/>
</g>
</svg>
