<?xml version="1.0" encoding="utf-8"?>
<!-- Generator: Adobe Illustrator 22.1.0, SVG Export Plug-In . SVG Version: 6.00 Build 0)  -->
<svg version="1.1" id="Layer_1" xmlns="http://www.w3.org/2000/svg" xmlns:xlink="http://www.w3.org/1999/xlink" x="0px" y="0px"
	 viewBox="0 0 600 657" style="enable-background:new 0 0 600 657;" xml:space="preserve">
<style type="text/css">
	.st0{fill:#F1F5D7;}
	.st1{fill:#D6EBD4;}
	.st2{fill:#B8E0D5;}
	.st3{fill:#F3F7DE;}
	.st4{fill:#C4E5DC;}
	.st5{fill:#DDEEDB;}
	.st6{fill:#AADCD9;}
	.st7{fill:#9ED3D7;}
	.st8{opacity:0.81;fill:#F3F7DE;enable-background:new    ;}
	.st9{opacity:0.81;fill:#AADCD9;enable-background:new    ;}
	.st10{fill:#FFDC00;}
	.st11{fill:#FFBE00;}
	.st12{fill:#FFF000;}
	.st13{fill:#EDA80F;}
	.st14{opacity:0.4;fill:#FFFFFF;enable-background:new    ;}
	.st15{opacity:0.2;fill:#FFFFFF;enable-background:new    ;}
</style>
<g>
	<g>
		<polygon class="st0" points="383.8349609,191.090271 352.1550293,191.1600952 301.8349609,191.2702026 292.375,191.2902222 
			200.7050781,191.4403687 200.7616272,161.8083496 388.7750244,161.8195953 		"/>
		<path class="st1" d="M381.7750244,161.96521l0.0599365,29.4036255l-9.6799316,0.0703125l-62.3200684,0.1108704
			c-3.0983276,0-5.4699707-4.0982819-5.4799805-8.3474884l-0.0300293-13.0252228
			c-0.0100098-4.6720581,2.8500977-8.3611145,6.3901367-8.3611145c0,0,52.931427-0.007843,53.0599365-0.007843
			C363.7750244,161.872406,381.7750244,161.96521,381.7750244,161.96521z"/>
		<path class="st2" d="M398.8349609,191.3800964l-44.6799316,0.0698242c-2.960083,0-5.1000977-4.1398926-5.1099854-8.1599121
			l-0.0300293-13.0700684c0-4.4697266,2.6382751-8.399826,6.0599365-8.399826
			c0.1105652,0,43.7000732-0.0100861,43.7000732-0.0100861L398.8349609,191.3800964z"/>
	</g>
	<g>
		<path class="st0" d="M387.8682556,67.1444931v21.6600342c0,4.5799561-4.5,8.3299561-10,8.3299561H222.5284119
			c-5.5,0-10-3.75-10-8.3299561V67.1444931c0-4.5899658,4.5-8.3399658,10-8.3399658h155.3398438
			C383.3682556,58.8045273,387.8682556,62.5545273,387.8682556,67.1444931z"/>
		<path class="st2" d="M387.8682556,67.1444931v21.6600342c0,4.5799561-4.5,8.3299561-10,8.3299561h-37.1316223
			c-5.5,0-10-3.75-10-8.3299561V67.1444931c0-4.5899658,4.5-8.3399658,10-8.3399658h37.1316223
			C383.3682556,58.8045273,387.8682556,62.5545273,387.8682556,67.1444931z"/>
		<path class="st1" d="M355.8699951,67.1412354v21.6599121c0,4.5800781-4.5,8.3300781-10,8.3300781h-44.8400879
			c5.5,0,10-3.75,10-8.3300781V67.1412354c0-4.5900841-4.5-8.3400841-10-8.3400841h44.8400879
			C351.3699951,58.8011513,355.8699951,62.5511513,355.8699951,67.1412354z"/>
		<path class="st3" d="M425.1600342,145.7060852c0.0100098,4.2998047-1.6601563,8.3498535-4.6901855,11.3898926
			c-3.0297852,3.0400391-7.0698242,4.7199707-11.369873,4.7299805H178.9100342
			c-2.9699707,0-5.5300293-0.7700195-7.6100922-2.1398926c-1.4399414-0.9399414-2.6499023-2.1601563-3.6098633-3.6101074
			c-1.8000488-2.6799316-2.75-6.119873-2.7602539-9.9299316l-0.079834-51.6999588
			c-0.0100098-4.1799316,1.5600586-8.1101074,4.4399414-11.1101074c0.0800781-0.0898438,0.1599121-0.1799316,0.25-0.2700195
			c0.130127-0.1298828,0.2600098-0.2600098,0.4001465-0.3798828l0.1799316-0.1801758
			c2.9499359-2.7299805,6.7499847-4.5097656,10.780014-4.5200195h228.8398438
			c8.6000977,0.380127,15.3200684,7.420166,15.3300781,16.0200195L425.1600342,145.7060852z"/>
		<path class="st4" d="M435.1550293,145.7102356c0.0100098,4.2998047-1.6600342,8.3498535-4.6899414,11.3898926
			c-3.0300293,3.0400391-7.0700684,4.7199707-11.3701172,4.7299805H313.6750488
			c0.3100586,0,0.6199951-0.0100098,0.9299316-0.0300293h0.0400391c0.3100586-0.0200195,0.6099854-0.0400391,0.9099121-0.0898438
			c0.0100098,0.0097656,0.0300293,0.0097656,0.0400391,0c3.5700684-0.4301758,6.880127-2.0302734,9.4500732-4.6101074
			c3.0299072-3.0400391,4.6999512-7.0900879,4.6900635-11.3898926l-0.0100098-8.5700684v-0.0800781l-0.0600586-33.880127v-0.0898438
			l-0.0100098-9.0800781c-0.0100098-8.6000977-6.7399902-15.6398926-15.3400879-16.0200195h105.420166
			c8.5998535,0.380127,15.329834,7.4199219,15.3398438,16.0200195L435.1550293,145.7102356z"/>
		<path class="st5" d="M370.6936035,145.7059631c0.0100098,4.2999268-1.6599121,8.3498535-4.6899414,11.3898926
			s-7.0698242,4.7199707-11.369873,4.7299805h-44.4221191c4.3000488-0.0100098,8.3400879-1.6899414,11.3701172-4.7299805
			s4.619873-7.0899658,4.6098633-11.3898926V94.0058975c-0.0097656-8.5999756-6.7397461-15.6400146-15.3398438-16.0200195h44.421875
			c8.6000977,0.3800049,15.3300781,7.4200439,15.3400879,16.0200195L370.6936035,145.7059631z"/>
		<path class="st6" d="M400.1798096,130.2358704c0,3.6901855-2.9799805,6.6901855-6.6799316,6.7001953l-67.3000488,0.1298828
			l-21.4499512,0.0300293h-2.8498535l-105.3601074,0.170166c-3.6999512,0.0097656-6.6899414-2.9802246-6.6999512-6.6801758
			l-0.0300293-20.5898514c-0.0100098-3.6901855,2.9799805-6.6901855,6.6699219-6.7001953l93.4699707-0.1499023l14.8000488-0.0200195
			l21.4499512-0.0300293l67.25-0.130127c2.5800781-0.0097656,4.8200684,1.4501953,5.9301758,3.5900879
			c0.0998535,0.1799316,0.1899414,0.3701172,0.2700195,0.5700684c0.079834,0.1699219,0.1398926,0.3398438,0.1999512,0.5300293
			c0.1899414,0.6298828,0.3000488,1.3000488,0.3000488,1.9899902L400.1798096,130.2358704z"/>
		<path class="st7" d="M400.1798096,130.2358704c0,3.6901855-2.9799805,6.6901855-6.6799316,6.7001953l-67.3063965,0.1298828
			l-0.0029297-33.9699783l67.2592773-0.130127c2.5800781-0.0097656,4.8200684,1.4501953,5.9301758,3.5900879
			c0.0998535,0.1799316,0.1899414,0.3701172,0.2700195,0.5700684c0.079834,0.1699219,0.1398926,0.3398438,0.1999512,0.5300293
			c0.1899414,0.6298828,0.3000488,1.3000488,0.3000488,1.9899902L400.1798096,130.2358704z"/>
	</g>
	<path class="st4" d="M564.2150879,432.2202148L439.1149902,648.9101563c-2.8898926,5-8.2299805,8.0898438-14.0100098,8.0898438
		H174.8950195c-5.7800293,0-11.119873-3.0898438-14.0100098-8.0898438L35.7849121,432.2202148
		c-2.8898926-5.0102539-2.8898926-11.170166,0-16.1801758l125.1000977-216.6799316
		c2.8901367-5.0100098,8.2299805-8.0900879,14.0100098-8.0900879h250.2099609
		c5.7800293,0,11.1201172,3.0800781,14.0100098,8.0900879l125.1000977,216.6799316
		C567.1049805,421.0500488,567.1049805,427.2099609,564.2150879,432.2202148z"/>
	<path class="st5" d="M492.8850098,432.2202148L367.7751465,648.9101563c-2.8901367,5-8.2299805,8.0898438-14.0100098,8.0898438
		H174.8950195c-5.7800293,0-11.119873-3.0898438-14.0100098-8.0898438L35.7849121,432.2202148
		c-2.8898926-5.0102539-2.8898926-11.170166,0-16.1801758l125.1000977-216.6799316
		c2.8901367-5.0100098,8.2299805-8.0900879,14.0100098-8.0900879h178.8701172c5.7800293,0,11.119873,3.0800781,14.0100098,8.0900879
		l125.1098633,216.6799316C495.7751465,421.0500488,495.7751465,427.2099609,492.8850098,432.2202148z"/>
	<path class="st8" d="M446.5549316,432.2202148L321.4450684,648.9101563c-2.8901367,5-8.2299805,8.0898438-14.0100098,8.0898438
		H174.8950195c-5.7800293,0-11.119873-3.0898438-14.0100098-8.0898438L35.7849121,432.2202148
		c-2.8898926-5.0102539-2.8898926-11.170166,0-16.1801758l125.1000977-216.6799316
		c2.8901367-5.0100098,8.2299805-8.0900879,14.0100098-8.0900879h132.5400391c5.7800293,0,11.119873,3.0800781,14.0100098,8.0900879
		l125.1098633,216.6799316C449.4450684,421.0500488,449.4450684,427.2099609,446.5549316,432.2202148z"/>
	<path class="st7" d="M537.0195923,427.0037842c-0.3300781,2.0898438-1.050293,4.1401367-2.1401367,6.0297852l-3.1098633,5.3701172
		v0.0102539l-2.0698242,3.5996094l-6.9599609,12.050293l-7.9902344,13.8398438l-92.8100281,160.75
		c-1.1999512,2.0698242-3.4099121,3.3500977-5.8000488,3.3500977H183.8497009c-2.3901367,0-4.6000977-1.2802734-5.8000488-3.3500977
		L84.1494904,466.0037842l-7.9299316-13.75l-5.4099121-9.3701172l-5.8200684-10.0800781
		c-0.8601074-1.4897461-1.4799805-3.0898438-1.8601074-4.7197266c-1-4.2299805-0.3898926-8.75,1.8500977-12.6298828
		l40.8100586-70.6801758l3.4699707-6l6.3498535-11.0102539l2.4301758-4.199707l60.010025-103.9501953
		c1.1999512-2.0698242,3.4099121-3.3398438,5.8000488-3.3398438h232.2897949c2.3901367,0,4.6000977,1.2700195,5.8000488,3.3500977
		l60.1899109,104.25l4.2001953,7.2797852l4.7397461,8.2001953l6.0600586,10.5l34.6000977,59.9199219l3.1499023,5.4599609
		C536.9692993,418.8436279,537.6792603,423.0037842,537.0195923,427.0037842z"/>
	<path class="st4" d="M451.0151367,424.130127L331.005127,632H184.4354858c-2.7539063,0-5.298584-1.4691772-6.6755066-3.854187
		L65.415329,433.5531616c-3.3664398-5.8309937-3.3663635-13.0150146,0.0001831-18.8459473L178.0453186,219.629776
		c1.2003479-2.0790253,3.4186401-3.3597565,5.8193054-3.3597565H331.005127L451.0151367,424.130127z"/>
	<polygon class="st9" points="451.0151367,424.130127 444.8349609,434.8300781 437.1950684,448.0700684 331.005127,632 
		269.3151855,632 161.125,444.6101074 153.5151367,431.4301758 149.3049316,424.130127 195.0251465,344.9401855 
		202.9350586,331.2402344 269.3151855,216.2700195 331.005127,216.2700195 396.2050781,329.2001953 404.2050781,343.0500488 	"/>
	<path class="st10" d="M537.0195923,427.0037842c-0.3300781,2.0898438-1.050293,4.1401367-2.1401367,6.0297852l-3.1098633,5.3701172
		v0.0102539l-2.0698242,3.5996094l-6.9599609,12.050293l-7.9902344,13.8398438l-92.8100281,160.75
		c-1.1999512,2.0698242-3.4099121,3.3500977-5.8000488,3.3500977H183.8497009c-2.3901367,0-4.6000977-1.2802734-5.8000488-3.3500977
		L84.1494904,466.0037842l-7.9299316-13.75l-5.4099121-9.3701172l-5.8200684-10.0800781
		c-0.8601074-1.4897461-1.4799805-3.0898438-1.8601074-4.7197266
		c101.8400879-2.0600586,153.3801422-29.6699219,203.2900543-56.4101563
		c3.0500488-1.6298828,6.0900879-3.2597656,9.1201172-4.8598633c1.0400391-0.5600586,2.079834-1.1098633,3.1098633-1.6601563
		l3.2900391-1.7397461h0.0200195c1.0700684-0.5600586,2.1401367-1.1201172,3.2199707-1.6704102
		c2.2700195-1.1796875,4.5600586-2.3598633,6.880127-3.5297852c34.1599121-17.2998047,73.2900391-33.25,132.8198242-33.3398438
		h0.6201172c22.8898621,0,42.9899597,2.0498047,60.8300476,6.2797852l4.7397461,8.2001953l6.0600586,10.5l34.6000977,59.9199219
		l3.1499023,5.4599609C536.9692993,418.8436279,537.6792603,423.0037842,537.0195923,427.0037842z"/>
	<path class="st11" d="M537.0195923,427.0037842c-0.3300781,2.0898438-1.050293,4.1401367-2.1401367,6.0297852l-3.1098633,5.3701172
		v0.0102539l-2.0698242,3.5996094l-6.9599609,12.050293l-7.9902344,13.8398438l-92.8100281,160.75
		c-1.1999512,2.0698242-3.4099121,3.3500977-5.8000488,3.3500977H183.8497009c-2.3901367,0-4.6000977-1.2802734-5.8000488-3.3500977
		L84.1494904,466.0037842l-7.9299316-13.75l-5.4099121-9.3701172
		c109.089859-3.6201172,162.3999176-36.7597656,214.8498688-64.4697266h0.0100098
		c2.1401367-1.1303711,4.2700195-2.25,6.4101563-3.3603516c5.4799805-2.8496094,10.9799805-5.6201172,16.5598145-8.2700195
		c32.1601563-15.3198242,66.9001465-26.8295898,116.2600098-26.909668c30.400116-0.050293,53.7399597,3.7797852,72.22995,9.9799805
		l34.6000977,59.9199219l3.1499023,5.4599609C536.9692993,418.8436279,537.6792603,423.0037842,537.0195923,427.0037842z"/>
	<path class="st12" d="M537.0195923,427.0037842c-0.3300781,2.0898438-1.050293,4.1401367-2.1401367,6.0297852l-3.1098633,5.3701172
		v0.0102539l-2.0698242,3.5996094l-6.9599609,12.050293l-7.9902344,13.8398438l-92.8100281,160.75
		c-1.1999512,2.0698242-3.4099121,3.3500977-5.8000488,3.3500977H183.8497009c-2.3901367,0-4.6000977-1.2802734-5.8000488-3.3500977
		L84.1494904,466.0037842l-7.9299316-13.75l-5.4099121-9.3701172l-5.8200684-10.0800781
		c-0.8601074-1.4897461-1.4799805-3.0898438-1.8601074-4.7197266c-1-4.2299805-0.3898926-8.75,1.8500977-12.6298828
		l40.8100586-70.6801758l3.4699707-6l6.3498535-11.0102539c13.0700684-1.909668,27.2402344-2.8598633,42.6901855-2.8896484
		h0.4899902c58.7500153,0,98.7798004,16,133.2700348,33.3398438c0.119873,0.0600586,0.2399902,0.1201172,0.3598633,0.1801758
		c2.1801758,1.0996094,4.3500977,2.2099609,6.5200195,3.3198242c3.2299805,1.6699219,6.4799805,3.3701172,9.6999512,5.0698242
		c2.7900391,1.4799805,5.5700684,2.9599609,8.3000488,4.4101563
		c51.6499023,27.4399414,105.0600586,55.8198242,213.7900085,55.8198242h1.0297852L537.0195923,427.0037842z"/>
	<path class="st10" d="M529.6997681,442.0135498l-6.9599609,12.050293l-7.9902344,13.8398438L432.109436,611.0438232
		l-10.1698914,17.6098633c-1.1999512,2.0698242-3.4099121,3.3500977-5.8000488,3.3500977H183.8497009
		c-2.3901367,0-4.6000977-1.2802734-5.8000488-3.3500977l-10.1701813-17.6098633L84.1494904,466.0037842l-7.9299316-13.75
		l-5.4099121-9.3701172l-5.8200684-10.0800781c-0.8601074-1.4897461-1.4799805-3.0898438-1.8601074-4.7197266
		c-1-4.2299805-0.3898926-8.75,1.8500977-12.6298828l40.8100586-70.6801758
		c14.75-3.0800781,32.0400391-4.8598633,52.5400391-4.8999023c49.7998199-0.0703125,84.7597809,11.5200195,117.2099762,26.9399414
		c3.3999023,1.6196289,6.7700195,3.2797852,10.1298828,4.9697266c2.1401367,1.0800781,4.2700195,2.1704102,6.4101563,3.2700195
		C349.1595154,404.5037842,404.9495544,441.8138428,529.6997681,442.0135498z"/>
	<path class="st11" d="M537.0996704,427.0037842c-0.3300781,2.0898438-1.050293,4.1401367-2.1401367,6.0297852l-3.1098633,5.3701172
		v0.0102539l-2.0703125,3.5996094l-6.9599609,12.050293l-7.9897461,13.8398438l-92.8100281,160.75
		c-1.2001953,2.0698242-3.4101563,3.3500977-5.8000488,3.3500977h-85.130127l106.190155-183.9301758l7.5200195-13.0297852
		l0.119873-0.2099609l6.1801758-10.7001953l-2.0302734-3.5200195l-44.7797546-77.5600586l-1.3500977-2.3398438
		l-6.6499023-11.5097656l-1.630127-2.8100586c9.5-0.9702148,19.5700684-1.5,30.3000488-1.5200195h0.6201172
		c22.8898621,0,42.9897156,2.0498047,60.8298035,6.2797852l4.7399902,8.2001953l6.0600586,10.5l34.6000977,59.9199219
		l3.1499023,5.4599609C537.0493774,418.8436279,537.7593384,423.0037842,537.0996704,427.0037842z"/>
	<path class="st13" d="M537.0996704,427.0037842c-0.3300781,2.0898438-1.050293,4.1401367-2.1401367,6.0297852l-3.1098633,5.3701172
		v0.0102539l-2.0703125,3.5996094l-6.9599609,12.050293l-7.9897461,13.8398438l-92.8100281,160.75
		c-1.2001953,2.0698242-3.4101563,3.3500977-5.8000488,3.3500977h-85.130127l106.190155-183.9301758l7.5200195-13.0297852
		l0.119873-0.2099609l6.1801758-10.7001953l-2.0302734-3.5200195l-44.7797546-77.5600586l-1.3500977-2.3398438
		c7.0200195-0.5400391,14.3500977-0.8300781,22.0400391-0.8398438c30.3998718-0.050293,53.7399597,3.7797852,72.22995,9.9799805
		l34.6000977,59.9199219l3.1499023,5.4599609C537.0493774,418.8436279,537.7593384,423.0037842,537.0996704,427.0037842z"/>
	<path class="st10" d="M537.0996704,427.0037842c-0.3300781,2.0898438-1.050293,4.1401367-2.1401367,6.0297852l-3.1098633,5.3701172
		v0.0102539l-2.0703125,3.5996094l-6.9599609,12.050293l-7.9897461,13.8398438l-92.8100281,160.75
		c-1.2001953,2.0698242-3.4101563,3.3500977-5.8000488,3.3500977h-85.130127l106.190155-183.9301758l7.5200195-13.0297852
		l0.119873-0.2099609l6.1801758-10.7001953l-2.0302734-3.5200195c23.4902344,4.0302734,50.300293,6.3999023,81.7402344,6.3999023
		h1.0297852L537.0996704,427.0037842z"/>
	<path class="st11" d="M529.7793579,442.0135498l-6.9599609,12.050293l-7.9897461,13.8398438l-82.6401367,143.1401367
		l-10.1698914,17.6098633c-1.2001953,2.0698242-3.4101563,3.3500977-5.8000488,3.3500977h-85.130127l12.1000977-20.9599609
		l94.0900574-162.9702148l7.5200195-13.0297852C469.239563,439.3739014,497.1494751,441.9637451,529.7793579,442.0135498z"/>
	<circle class="st11" cx="203.1280212" cy="580.3511353" r="15.1344681"/>
	<circle class="st11" cx="235.2946167" cy="592.6342163" r="7.8409958"/>
	<circle class="st11" cx="198.8487854" cy="487.4406433" r="8.911377"/>
	<circle class="st11" cx="223.0724792" cy="424.4549866" r="36.2203979"/>
	<circle class="st11" cx="148.0679932" cy="456.1032104" r="21.3441772"/>
	<path class="st14" d="M188.5699463,557.072937c-7.0200195,4.0598145-15.989975,1.6499023-20.0497894-5.3701172
		l-63.4072571-108.5493469c-6.6633148-11.5429688-6.6630249-25.7637939,0.0007477-37.306488l38.5581512-66.9070435
		c4.0500488-7.0097656,13.0300293-9.4199219,20.0400391-5.369873l-0.0044403,0.0029907
		c7.0200195,4.0498047,9.4343567,13.0270386,5.3843231,20.0470581l-38.1841888,66.2511597
		c-1.653717,2.8642883-1.6537933,6.393219-0.0002289,9.2575684l63.0327606,107.894043
		C198.0001221,544.0429077,195.5899658,553.0228882,188.5699463,557.072937z"/>
	<path class="st15" d="M206.0992737,287.5292358l-13.380127,23.190155c-2.6098633,4.5-7.4599609,7.3098145-12.6699219,7.3098145
		c-2.5600586,0-5.0800781-0.6799316-7.3000336-1.9599609c-6.9799805-4.0300293-9.3798828-12.9899597-5.3498535-19.9699402
		l13.3898773-23.1799316c2.5998535-4.5100098,7.4499512-7.3100586,12.6599121-7.3100586
		c2.5600586,0,5.0800781,0.6799316,7.3000488,1.9599609c3.380127,1.9499512,5.8000488,5.1000977,6.8100586,8.869873
		C208.5692444,280.2091675,208.0492249,284.149353,206.0992737,287.5292358z"/>
	<circle class="st11" cx="366.6003113" cy="472.1018066" r="21.863678"/>
	<circle class="st11" cx="328.4291077" cy="506.7239075" r="10.9741821"/>
	<circle class="st11" cx="336.4499512" cy="539.203064" r="6.4533272"/>
	<path class="st11" d="M432.109436,611.0438232l-10.1698914,17.6098633
		c-1.1999512,2.0698242-3.4099121,3.3500977-5.8000488,3.3500977H183.8497009c-2.3901367,0-4.6000977-1.2802734-5.8000488-3.3500977
		l-10.1701813-17.6098633H432.109436z"/>
	<path class="st13" d="M432.1895142,611.0438232l-10.1698914,17.6098633
		c-1.2001953,2.0698242-3.4101563,3.3500977-5.8000488,3.3500977h-85.130127l12.1000977-20.9599609H432.1895142z"/>
</g>
</svg>
