<?xml version="1.0" encoding="utf-8"?>
<!-- Generator: Adobe Illustrator 22.1.0, SVG Export Plug-In . SVG Version: 6.00 Build 0)  -->
<svg version="1.1" id="Layer_1" xmlns="http://www.w3.org/2000/svg" xmlns:xlink="http://www.w3.org/1999/xlink" x="0px" y="0px"
	 viewBox="0 0 600 656.9986572" style="enable-background:new 0 0 600 656.9986572;" xml:space="preserve">
<style type="text/css">
	.st0{fill:#F3F7DE;}
	.st1{fill:#DDEEDB;}
	.st2{fill:#C4E5DC;}
	.st3{fill:#AADCD9;}
	.st4{fill:#9ED3D7;}
	.st5{fill:#F1F5D7;}
	.st6{fill:#D6EBD4;}
	.st7{fill:#B8E0D5;}
	.st8{fill:#4EE88E;}
	.st9{fill:#3CD67B;}
	.st10{fill:#24BC61;}
	.st11{fill:#79F7AC;}
	.st12{opacity:0.5;fill:#FFFFFF;mix-blend-mode:soft-light;}
</style>
<g>
	<path class="st0" d="M469.2361145,603.633606c0.0299683,14.0587158-5.4794922,27.3375244-15.4885864,37.3765259
		c-10.0090637,10.0490112-23.2678528,15.588562-37.3265686,15.6085815l-24.7577209,0.0400391l-26.20755,0.039978
		l-60.0044556,0.0998535l-121.14888,0.2000732c-29.1273193,0-52.8651123-23.6878662-52.9050903-52.8150635l-0.6299438-338.7988281
		c-0.039978-29.1572418,23.6577911-52.9350739,52.8251495-52.9851227l121.5187683-0.1899261l59.984436-0.1000824
		l25.7976685-0.039917l24.7377319-0.0400238c0.499939,0,1.0099182,0.0099945,1.5198059,0.0200043h0.1400146
		c28.2774048,0.8398895,51.2853088,24.4977417,51.3252563,52.7950592L469.2361145,603.633606z"/>
	<path class="st0" d="M469.232605,603.6329346c0.0302734,14.0587158-5.4794617,27.3374634-15.4883118,37.3765869
		c-10.0093384,10.0490723-23.2678833,15.588501-37.3266296,15.6085205l-24.7577209,0.039978l-26.20755,0.0400391l-13.6987,0.0199585
		l-5.4196472,0.0100098l-40.8363342,0.0700073h-0.0498047l-121.1489716,0.2000122
		c-29.1271973,0-52.8650055-23.6878052-52.9050446-52.8151245l-0.6300659-338.7987976
		c-0.0397949-29.1572723,23.6579742-52.9351196,52.8252106-52.9850922l102.7004852-0.1599579l18.8183289-0.0300293
		l43.776001-0.0700073l16.2084656-0.0299683h0.0500488l25.7976685-0.0400238l10.7089539-0.0199585h0.1899414l13.7887573-0.0200195
		c0.4999695,0,1.0099182,0.0100098,1.5198975,0.0200195h0.1398621
		c28.2774353,0.8398895,51.2853088,24.4977417,51.3253479,52.7951202L469.232605,603.6329346z"/>
	<path class="st0" d="M392.0532227,621.3218994c1.6498718-5.6293945,2.5397339-11.5689087,2.5297852-17.708313
		l-0.6299438-338.7887268c-0.0100098-5.8095093-0.809906-11.4389954-2.3197937-16.7884827
		c1.8198547,5.2994385,2.8097534,10.9490662,2.8197632,16.8083801l0.6199341,338.7888489
		C395.0829773,609.742981,394.0530396,615.7025146,392.0532227,621.3218994z"/>
	<path class="st1" d="M420.6272278,603.7029419c0.0300293,22.1379395-11.5289612,41.7161255-28.9172668,52.9550781
		l-26.2075195,0.0400391l-60.0047302,0.0999756c0.0400391-0.0300293,0.0800781-0.0499878,0.1201172-0.0800171l-46.6158142,0.0800171
		c0.0700378-0.0499878,0.1401062-0.0900269,0.2101746-0.1400146l23.2678833-0.039978
		c14.0585022-0.0200195,27.3172913-5.5594482,37.3263855-15.6085205c4.1197205-4.1296387,7.4792786-8.8092041,9.9990845-13.8687744
		c3.6097717-7.2293091,5.509491-15.2385864,5.4894714-23.5078125l-0.619812-338.7887268
		c-0.0100098-8.3292542-2.0098267-16.2585144-5.54953-23.3178558c0-0.0100098-0.0100098-0.0100098-0.0100098-0.0200195
		c-8.0793457-16.078537-24.127655-27.6674347-42.8261414-29.2672577l18.8183289-0.0300293l59.9844666-0.0999756h0.0500488
		l25.7976685-0.0400238c17.4183044,11.1889648,29.0273438,30.7171936,29.057373,52.8451691L420.6272278,603.7029419z"/>
	<path class="st1" d="M330.0689392,627.1414185c2.9197083-7.2493286,4.529541-15.1685181,4.5196228-23.4377441
		l-0.6299744-338.7888489c-0.0100098-8.2592468-1.6298523-16.1584167-4.5695801-23.3878632
		c3.5396729,7.0592957,5.5394592,14.9886017,5.549469,23.3177948l0.6199646,338.7888489
		C335.5784607,611.902832,333.6785889,619.9121094,330.0689392,627.1414185z"/>
	<path class="st2" d="M392.0532227,621.3218994c1.6498718-5.6293945,2.5397339-11.5689087,2.5297852-17.708313
		l-0.6299438-338.7887268c-0.0100098-5.8095093-0.809906-11.4389954-2.3197937-16.7884827
		c1.8198547,5.2994385,2.8097534,10.9490662,2.8197632,16.8083801l0.6199341,338.7888489
		C395.0829773,609.742981,394.0530396,615.7025146,392.0532227,621.3218994z"/>
	<path class="st2" d="M469.232605,603.6329346c0.0302734,14.0587158-5.4794617,27.3374634-15.4883118,37.3765869
		c-10.0093384,10.0490723-23.2678833,15.588501-37.3266296,15.6085205l-24.7577209,0.039978l-26.20755,0.0400391
		c0.0100098-0.0100098,0.0300293-0.0200195,0.0397949-0.0200195l-13.7384949,0.039978l-5.469696,0.0200195
		c0.0200195,0,0.0300293,0,0.0500488-0.0100098c0.2199402-0.0299683,0.4699097-0.0700073,0.7398987-0.1199951
		c13.7687683-0.2099609,26.7275391-5.7294312,36.5567017-15.5985107
		c10.0090942-10.0391235,15.5085754-23.3178711,15.4885559-37.3765869l-0.619812-338.7887268
		c-0.0400391-27.7274933-22.1280823-50.9953003-49.6155396-52.7051697l16.2084656-0.0299683h0.0500488l25.7976685-0.0400238
		l10.7089539-0.0199585h0.1899414l13.7887573-0.0200195c0.4999695,0,1.0099182,0.0100098,1.5198975,0.0200195h0.1398621
		c28.2774353,0.8398895,51.2853088,24.4977417,51.3253479,52.7951202L469.232605,603.6329346z"/>
	<path class="st2" d="M392.0532227,621.3218994c1.6498718-5.6293945,2.5397339-11.5689087,2.5297852-17.708313
		l-0.6299438-338.7887268c-0.0100098-5.8095093-0.809906-11.4389954-2.3197937-16.7884827
		c1.8198547,5.2994385,2.8097534,10.9490662,2.8197632,16.8083801l0.6199341,338.7888489
		C395.0829773,609.742981,394.0530396,615.7025146,392.0532227,621.3218994z"/>
	<g>
		<g>
			<path class="st0" d="M435.0192261,171.4274597v0.3698425c0.0100098,4.3096619-1.6498108,8.3493347-4.6795654,11.3888397
				c-2.8396912,2.8498383-6.569397,4.499588-10.5690308,4.7097778c-0.2599182,0.0100098-0.5299072,0.0197754-0.7998962,0.0197754
				H183.1324768c-8.8491516,0-16.0485077-6.8191986-16.068512-15.6784973l-0.0800171-51.6851654
				c0-4.2996521,1.6598816-8.3490829,4.6895752-11.3888474c3.0297394-3.0397568,7.0693512-5.0695953,11.3589935-5.0796051
				c0,0,52.4051361,0,107.8800201,0H419.620697c0.1199646,0.0100098,0.22995,0.0100098,0.3499146,0.0300217
				c8.4092712,0.5399933,14.9586487,7.5093231,14.9686584,15.9985275L435.0192261,171.4274597z"/>
			<path class="st1" d="M409.5215759,171.4970398c0.0100098,6.1894836-2.0498047,11.8990479-5.5094299,16.4186554H290.2626038
				c0.2699585,0,0.5399475-0.0100098,0.7999268-0.0200195c3.9996338-0.2100677,7.7292786-1.8599396,10.5690308-4.7096558
				c3.0296936-3.0396271,4.6895752-7.0792999,4.6795654-11.3889618l-0.0800171-51.685173
				c-0.0100098-8.4892044-6.5593872-15.4585342-14.9685974-15.9985275c-0.1199646-0.0200119-0.230011-0.0200119-0.3499756-0.0300217
				h114.2694702c2.6797485,4.1795425,4.2395935,9.1790848,4.2496033,14.5487061L409.5215759,171.4970398z"/>
			<path class="st2" d="M435.0192261,171.4274597v0.3698425c0.0100098,4.3096619-1.6498108,8.3493347-4.6795654,11.3888397
				c-2.8396912,2.8498383-6.569397,4.499588-10.5690308,4.7097778c-0.2599182,0.0100098-0.5299072,0.0197754-0.7998962,0.0197754
				h-68.9536133c0.8699036,0,1.7198181-0.0698242,2.5597534-0.2197113c3.3096924-0.5900269,6.3893738-2.1199188,8.769165-4.5098419
				c5.2295532-5.2592773,4.6795654-12.5786743,4.6696167-19.4181213
				c-0.0100098-5.8593292-0.0200195-11.7189026-0.0300293-17.5784607
				c-0.0100098-8.6891479-0.0299683-17.3782806-0.039978-26.0774307
				c-0.0100098-8.4892044-6.5593872-15.4585342-14.9686584-15.9985275c-0.1199951-0.0200119-0.22995-0.0200119-0.3499451-0.0300217
				h68.9936523c0.1199646,0.0100098,0.22995,0.0100098,0.3499146,0.0300217
				c8.4092712,0.5399933,14.9586487,7.5093231,14.9686584,15.9985275L435.0192261,171.4274597z"/>
			<path class="st3" d="M410.0516052,156.2957916c0,1.3897552-0.4199524,2.6796875-1.1398621,3.749649
				c-0.2400208,0.349823-0.5099487,0.6798706-0.8199158,0.9898987c-1.1999207,1.2098541-2.869751,1.9597778-4.7095947,1.9597778
				l-97.0910339,0.160141l-107.6100616,0.1699066c-3.6896667,0.0100098-6.6893921-2.9797058-6.6893921-6.6795502
				l-0.0400238-20.5879517c0-3.6896057,2.9897003-6.6893311,6.6793671-6.6993256l107.6200714-0.1701508l96.9510803-0.1598969
				h0.1199951c0.6999512,0,1.3798828,0.0998383,2.0098267,0.3100281c0.4199524,0.1298676,0.8199158,0.3000183,1.1998901,0.509964
				c0.2899475,0.1498871,0.5699158,0.3300476,0.829895,0.5497437c1.6098938,1.2000885,2.6497803,3.129837,2.65979,5.3095703
				L410.0516052,156.2957916z"/>
			<path class="st2" d="M223.4076233,163.2996826l-24.7263947,0.023819
				c-3.6902313,0.0059662-6.6864777-2.9805908-6.6924438-6.6709137l-0.033371-20.594162
				c-0.0059814-3.6903229,2.9805756-6.6864777,6.6708221-6.6924438l24.7263794-0.0238342
				c-3.6903229,0.0059814-6.6768799,3.0021362-6.6708984,6.6924591l0.033371,20.594162
				C216.7210541,160.3190918,219.7173004,163.3056488,223.4076233,163.2996826z"/>
			<path class="st4" d="M410.0516052,156.2957916c0,1.3897552-0.4199524,2.6796875-1.1398621,3.749649
				c-0.2400208,0.3600769-0.5099487,0.6898804-0.8199158,0.9898987c-1.1999207,1.2098541-2.869751,1.9597778-4.7095947,1.9597778
				l-97.0910339,0.160141l-0.0400391-33.9670715l96.9510803-0.1598969l0.1300049,0.0099945
				c0.6999512,0,1.369873,0.1000977,1.9998169,0.3000336c0.4199524,0.1298676,0.8199158,0.3000183,1.1998901,0.509964
				c0.2899475,0.1498871,0.5699158,0.3300476,0.829895,0.5497437c1.6098938,1.2000885,2.6497803,3.129837,2.65979,5.3095703
				L410.0516052,156.2957916z"/>
		</g>
		<polygon class="st5" points="385.0238342,212.6062012 354.5466614,212.6062012 352.836853,212.6062012 305.7712097,212.6062012
			216.919342,212.6062012 216.8693695,187.9138794 289.4126587,187.9138794 347.6072998,187.9138794 384.9638367,187.9138794
			384.9638367,187.9138794 		"/>
		<path class="st6" d="M375.014801,207.891922c0.0099487,2.5583801-2.849762,4.707077-6.3894043,4.7142792h-15.0886536h-0.7499084
			h-47.015625h-16.2285461c-3.3296509-0.1580811-5.9694214-2.155899-5.9794312-4.5992737l-0.0300293-15.4147339
			c-0.0099487-2.3714447,2.4697876-4.4125061,5.6495056-4.6783142c0.0800171-0.014389,0.1499939,0.0072021,0.22995,0h58.1946411
			h21.8179932c0.0599976,0.0072021,0.1099854-0.0071869,0.1699829,0c0.0599976,0,0.1199646-0.014389,0.1799622,0
			c2.9597473,0.3952789,5.1995239,2.3212585,5.2095337,4.5705872L375.014801,207.891922z"/>
		<path class="st7" d="M385.0238342,212.6062012L385.0238342,212.6062012h-30.4771729h-1.4698181
			c-0.0599976,0-0.1100464,0.0071869-0.1600342,0c-0.0100098,0-0.0199585,0-0.0199585,0
			c-0.0200195,0-0.0400391,0.0071869-0.0599976,0c-0.0200195,0-0.0300293,0.0071869-0.0500183,0
			c-3.1297302-0.2945862-5.52948-2.2852936-5.52948-4.6064758l-0.0400391-15.4577942
			c0-2.4289856,2.6297607-4.4699707,5.9594727-4.6280518h31.7870483L385.0238342,212.6062012z"/>
	</g>
	<path class="st3" d="M443.6765747,264.8878784l0.6130981,338.7867432
		c0.0249634,15.4181519-12.4933472,27.9771118-27.9115601,28.0020752l-232.041687,0.3755493
		c-15.4182281,0.0249634-27.9771118-12.4934692-28.0020752-27.9116211l-0.6131134-338.7866821
		c-0.0249481-15.4182281,12.4933472-27.9771118,27.9115906-28.0020752l232.0416718-0.3755646
		C431.0927124,236.951355,443.6516113,249.4696655,443.6765747,264.8878784z"/>
	<path class="st4" d="M443.6765747,264.8878784l0.6130981,338.7867432
		c0.0249634,15.4181519-12.4933472,27.9771118-27.9115601,28.0020752l-87.6725769,0.1418457
		c4.2077637-8.4358521,6.5687561-17.9309692,6.5525208-27.9674683l-0.6131287-338.7867126
		c-0.0162354-10.036499-2.4079285-19.5240479-6.6430054-27.9461517l87.6725769-0.1419067
		C431.0927124,236.951355,443.6516113,249.4696655,443.6765747,264.8878784z"/>
	<path class="st2" d="M219.2824707,631.9956665l-34.9460449,0.0565796
		c-15.4182281,0.0249634-27.9771118-12.4934692-28.0020752-27.9116211l-0.6131134-338.7866821
		c-0.0249481-15.4182281,12.4933472-27.9771118,27.9115906-28.0020752l34.9460297-0.0565643
		c-15.4182281,0.0249634-27.9365387,12.583847-27.9115753,28.0020905l0.6131134,338.7867126
		C191.3053436,619.5022583,203.8642273,632.0206299,219.2824707,631.9956665z"/>
	<path class="st8" d="M155.9483337,367.0388184l0.3837433,237.1018677
		c0.0249634,15.4180908,12.583847,27.9365234,28.0020752,27.9115601l232.0416718-0.3755493
		c15.4182434-0.0249634,27.9365234-12.5839233,27.9115906-28.0020752L443.830658,321.478363
		c-13.1129761-9.3862305-32.0652466-16.4846191-64.0478821-16.4328613
		C291.1177063,305.1890259,281.0551453,366.8363342,155.9483337,367.0388184z"/>
	<path class="st9" d="M443.830658,321.478363l0.4567566,282.1962585
		c0.0249329,15.4181519-12.4933472,27.9771118-27.9115906,28.0020752l-87.6725769,0.1419067
		c2.703125-5.4280396,4.6506348-11.3021851,5.6890259-17.4822998c0.2767944-1.6778564,0.4977417-3.3696289,0.6347351-5.0751953
		c0.1508789-1.7755737,0.23172-3.5788574,0.2287598-5.4100342l-0.4732666-292.4144592
		c12.9097595-3.9069214,27.4155884-6.3626404,45.0003662-6.3911133
		C411.7655029,304.9937439,430.7178345,312.0921326,443.830658,321.478363z"/>
	<path class="st9" d="M443.853302,335.4707947l0.4341125,268.2038269
		c0.0249329,15.4181519-12.4933472,27.9771118-27.9115906,28.0020752l-232.0416718,0.3755493
		c-15.4182281,0.0249634-27.9771118-12.4934692-28.0020752-27.9115601l-0.3610992-223.1094666
		c73.2469177-0.1185608,107.0683899-21.3087769,140.3086548-38.877533
		c23.5335999-12.4369812,46.7764893-23.0563049,83.5257874-23.1157837
		C411.7880554,318.986145,430.7403259,326.0844421,443.853302,335.4707947z"/>
	<path class="st10" d="M443.853302,335.4707947l0.4341125,268.2038269
		c0.0249329,15.4181519-12.4933472,27.9771118-27.9115906,28.0020752l-87.6725769,0.1419067
		c2.703125-5.4280396,4.6506348-11.3021851,5.6890259-17.4822998c0.2767944-1.6778564,0.4977417-3.3696289,0.6347351-5.0751953
		c0.1508789-1.7755737,0.23172-3.5788574,0.2287598-5.4100342l-0.4506531-278.4360352
		c12.9097595-3.9069519,27.4016418-6.3486328,45.0003967-6.3771362
		C411.788147,318.986145,430.740509,326.0844421,443.853302,335.4707947z"/>
	<path class="st11" d="M444.2893982,603.6763916c0.0199585,15.4185791-12.4988403,27.977478-27.9174805,28.0074463
		l-197.0017853,0.3099365h-0.1899872l-34.7568054,0.0599976h-0.1299896c-0.4499664,0-0.8999329-0.0100098-1.3498535-0.039978
		c-0.469986-0.0200195-0.9399109-0.0599365-1.4098969-0.0999756c-0.509964-0.039978-1.0099182-0.0999756-1.5098724-0.1799927
		c-13.3787689-2.0498047-23.6678009-13.6287842-23.6878204-27.5874023l-0.4599152-282.2040405
		c0.0100098-0.0099487,0.0199585-0.0099487,0.0299683-0.0199585c8.4992065-6.1194153,19.4582214-11.2789917,34.8567657-14.1487122
		c0.0200195,0,0.0500488-0.0100098,0.0700073-0.0100098c8.2892761-1.5498352,17.8683472-2.4397888,29.0373535-2.4597473
		c88.6618042-0.1399841,98.9308777,61.4743042,224.0293274,61.2743225L444.2893982,603.6763916z"/>
	<path class="st8" d="M443.9082031,366.5727539l0.3837585,237.1018677
		c0.0249634,15.4180908-12.4933472,27.9771118-27.9115906,28.0020752l-87.6725769,0.1418457
		c2.703125-5.4279785,4.6506348-11.302124,5.6890259-17.4822388c0.2767944-1.6778564,0.4977417-3.3696899,0.6347351-5.0751953
		c0.1508789-1.7755737,0.2317505-3.5788574,0.2287598-5.4100342l-0.420105-259.5791626
		C360.8039246,356.4051514,392.7614136,366.6555176,443.9082031,366.5727539z"/>
	<path class="st9" d="M444.2849731,602.953064v0.789856c0,0.4799805-0.0100098,0.9499512-0.0397949,1.4198608
		c-0.0102539,0.3400269-0.0400391,0.6799316-0.0700684,1.0099487c-0.0500488,0.5999146-0.1201172,1.1898804-0.2099304,1.7698364
		c-0.0300293,0.2099609-0.0600586,0.4099121-0.1000977,0.6099243c-0.0400391,0.2700195-0.0900879,0.5299072-0.1499023,0.7999268
		c-0.1200867,0.5699463-0.2499695,1.1398926-0.4100952,1.6998291c-0.079834,0.3099976-0.1699219,0.6199341-0.2700195,0.9199219
		c-0.0197754,0.0800171-0.0397949,0.1500244-0.0697937,0.2200317c-0.0900879,0.3199463-0.1999512,0.6398926-0.3200378,0.9498291
		c-0.1101074,0.3200073-0.2399902,0.6399536-0.3600769,0.9499512c-0.0100098,0.0200195-0.0197754,0.0499878-0.0300293,0.0700073
		c-4.1295166,10.2390137-14.1686096,17.4983521-25.8775024,17.5183716l-232.0386658,0.3699951
		c-11.7088776,0.0200195-21.7780151-7.1994019-25.9375458-17.4284058c-1.3199463-3.199707-2.0498657-6.6994019-2.06987-10.3690186
		l-0.4299011-264.5956116c13.0888824-9.4291382,32.0170746-16.588501,63.9940948-16.6384888
		c0.9298553,0,1.8499298,0,2.7597656,0.0200195c0.3600769,0,0.7198944,0.0099487,1.0699615,0.0099487
		c0.859787,0.0200195,1.7098083,0.0400391,2.5495758,0.0700073c1.0599518,0.0300293,2.1099091,0.0799866,3.1398468,0.1299744
		c0.889801,0.0400391,1.7798615,0.1000366,2.6496582,0.1600342h0.0700531
		c0.8400116,0.0599976,1.6697693,0.1199646,2.4897614,0.1899719c0.5500031,0.039978,1.0899963,0.0899658,1.6297455,0.1399536
		c0.9200745,0.0900269,1.829895,0.1799622,2.7299652,0.2799988c2.0098267,0.2199402,3.9796143,0.47995,5.9093628,0.7699585
		c0.5800323,0.0899353,1.1598053,0.1799622,1.7298279,0.269928c0.9898987,0.1600037,1.9697876,0.3299866,2.9396667,0.5099487
		c0.2201996,0.039978,0.4398956,0.0800171,0.6600952,0.1199951c0.4999542,0.0900269,0.9898987,0.1899719,1.4798431,0.2900085
		c0.4899445,0.0899658,0.9698792,0.1899414,1.4398041,0.2899475c0.6200714,0.1300049,1.2398834,0.2599792,1.8499298,0.3999329
		c0.2797699,0.0600586,0.5497589,0.1200562,0.8197479,0.1899719c0.7201538,0.1600342,1.4398193,0.3299866,2.1499634,0.5099792
		c0.9298401,0.2200012,1.8396606,0.4599609,2.7397156,0.6999512c0.6298218,0.1699524,1.2499084,0.3399963,1.8697205,0.5099487
		c4.7495422,1.329895,9.2891846,2.869751,13.6688843,4.5595703c0.5898132,0.2299805,1.1698303,0.4599915,1.7498474,0.6899414
		c0.6998901,0.2799683,1.3997803,0.559967,2.0896606,0.8499146c0.7001343,0.2799988,1.3900146,0.5699463,2.079895,0.8699036
		c0.6898499,0.2900085,1.3699646,0.5899658,2.0498352,0.8899231c2.4397278,1.0699158,4.8394165,2.1798096,7.2193298,3.3297119
		c0.4498901,0.210022,0.8998108,0.4299622,1.3499451,0.6499023c0.8898315,0.4399719,1.7796326,0.8799438,2.6696777,1.3198853
		c0.2800293,0.1400146,0.5497742,0.2700195,0.8300171,0.4200134c0.5597534,0.2799377,1.119751,0.5599365,1.6697693,0.8499146
		c2.7897644,1.3998718,5.5595398,2.8597107,8.3490906,4.3396301c1.2598877,0.6698914,2.5297852,1.3398132,3.7996826,2.0097351
		c1.5398865,0.8099365,3.0697937,1.6298828,4.6196899,2.4598083c0.5697632,0.2999573,1.139801,0.5999146,1.6997986,0.8999329
		c7.859375,4.1296387,16.0085449,8.2992249,24.9176331,12.1788635c0.9498596,0.4199524,1.9199829,0.8299561,2.8898621,1.2398987
		c0.4899292,0.2099915,0.9798889,0.4099121,1.4698486,0.6099243c0.6398315,0.269989,1.289917,0.539978,1.9497681,0.7998962
		c1.0799561,0.4300232,2.1596985,0.8599854,3.2597046,1.2799377c0.5499878,0.2099915,1.0999756,0.4199219,1.6597595,0.6299438
		c2.8298035,1.0598755,5.7394409,2.0897522,8.749176,3.0697021c1.1200256,0.3699646,2.2597961,0.7299194,3.4098511,1.0898743
		c1.8196716,0.5599365,3.6695862,1.0999451,5.54953,1.6298523c0.6298218,0.1799927,1.2596436,0.3500061,1.8997192,0.519989
		c1.9097595,0.5199585,3.8595276,1.0099182,5.8495789,1.4898376c0.6598511,0.1599731,1.3297119,0.3199768,1.9998169,0.4700012
		c0.6698608,0.1599426,1.3497314,0.309967,2.0296021,0.4598999c0.2099304,0.0499878,0.420105,0.0900269,0.6300659,0.1400146
		c0.5597534,0.1199951,1.1297607,0.2399597,1.6997986,0.3599548c0.7899475,0.1699524,1.5899353,0.3299866,2.3898926,0.4899292
		c3.4196167,0.6799316,6.9690857,1.3098755,10.638916,1.8698425c0.6398315,0.1000061,1.289917,0.1899719,1.9397583,0.2799988
		c0.519989,0.0800171,1.0499573,0.1599426,1.5799561,0.22995c0.7298889,0.1000366,1.4598083,0.2000122,2.2097473,0.2900085
		c1.8399048,0.2399902,3.7096252,0.4699402,5.6193542,0.6699219c0.6100464,0.0700073,1.2298584,0.1400146,1.8499146,0.2000122
		c0.6200562,0.059967,1.2499084,0.1199646,1.8797302,0.1799622c2.8798523,0.269928,5.8295288,0.5099792,8.8592834,0.6999512
		c0.7199097,0.0499878,1.4398193,0.0999756,2.1596985,0.1399536c0.7799683,0.0400085,1.5599365,0.0799866,2.349884,0.1199646
		c2.0098267,0.1000366,4.0596924,0.1900024,6.1395874,0.2499695c1.4097595,0.0500488,2.8395691,0.0900269,4.2793884,0.1100464
		c1.1199951,0.0199585,2.2597961,0.039978,3.3998108,0.0499878c1.1898499,0.0100098,2.389679,0.0200195,3.5995483,0.0200195
		h0.6600952l0.2099304,131.8677979l0.0100098,3.1697388L444.2849731,602.953064z"/>
	<path class="st8" d="M444.2849731,602.953064v1.0198364c0,0.3999634-0.0197754,0.7999268-0.0397949,1.1898804
		c-0.0102539,0.3400269-0.0400391,0.6799316-0.0700684,1.0099487c-0.0500488,0.5999146-0.1201172,1.1898804-0.2099304,1.7698364
		c-0.0300293,0.2099609-0.0600586,0.4099121-0.1000977,0.6099243c-0.0400391,0.2700195-0.0900879,0.5299072-0.1499023,0.7999268
		c-0.1200867,0.5699463-0.2499695,1.1398926-0.4100952,1.6998291c-0.079834,0.3099976-0.1699219,0.6199341-0.2700195,0.9199219
		c-0.0197754,0.0800171-0.0397949,0.1500244-0.0697937,0.2200317c-0.0900879,0.3199463-0.1999512,0.6398926-0.3200378,0.9498291
		c-0.1101074,0.3200073-0.2399902,0.6399536-0.3600769,0.9499512c-0.0100098,0.0200195-0.0197754,0.0499878-0.0300293,0.0700073
		l-29.2473145,0.0499268l-254.6063995,0.4100342c-1.3199463-3.199707-2.0498657-6.6994019-2.06987-10.3690186
		l-0.4299011-264.5956116c13.0888824-9.4291382,32.0170746-16.588501,63.9942017-16.6384888
		c8.357666,0,16.7296753,0.5273132,24.9975891,1.7698669c0.5800323,0.0899353,1.1598053,0.1799622,1.7298279,0.269928
		c0.9898987,0.1600037,1.9697876,0.3299866,2.9396667,0.5099487c0.2201996,0.039978,0.4398956,0.0800171,0.6600952,0.1199951
		c0.4999542,0.0900269,0.9898987,0.1899719,1.4798431,0.2900085c0.4899445,0.0899658,0.9698792,0.1899414,1.4398041,0.2899475
		c0.6200714,0.1300049,1.2398834,0.2599792,1.8499298,0.3999329c0.2797699,0.0600586,0.5497589,0.1200562,0.8197479,0.1899719
		c0.7201538,0.1600342,1.4398193,0.3299866,2.1499634,0.5099792c0.9298401,0.2200012,1.8396606,0.4599609,2.7397156,0.6999512
		c0.6298218,0.1699524,1.2499084,0.3399963,1.8697205,0.5099487c4.7495422,1.329895,9.2891846,2.869751,13.6688843,4.5595703
		c0.5898132,0.2299805,1.1698303,0.4599915,1.7498474,0.6899414c0.6998901,0.2799683,1.3997803,0.559967,2.0896606,0.8499146
		c0.7001343,0.2799988,1.3900146,0.5699463,2.079895,0.8699036c0.6898499,0.2900085,1.3699646,0.5899658,2.0498352,0.8899231
		c2.4397278,1.0699158,4.8394165,2.1798096,7.2193298,3.3297119c0.4498901,0.210022,0.8998108,0.4299622,1.3499451,0.6499023
		c0.8898315,0.4399719,1.7796326,0.8799438,2.6696777,1.3198853c0.2800293,0.1400146,0.5497742,0.2700195,0.8300171,0.4200134
		c0.5597534,0.2799377,1.119751,0.5599365,1.6697693,0.8499146c2.7897644,1.3998718,5.5595398,2.8597107,8.3490906,4.3396301
		c1.2598877,0.6698914,2.5297852,1.3398132,3.7996826,2.0097351c1.5398865,0.8099365,3.0697937,1.6298828,4.6196899,2.4598083
		c0.5697632,0.2999573,1.139801,0.5999146,1.6997986,0.8999329c7.859375,4.1296387,16.0085449,8.2992249,24.9176331,12.1788635
		c0.9598694,0.4199524,1.9199829,0.8299561,2.8898621,1.2398987c0.4899292,0.2099915,0.9798889,0.4099121,1.4698486,0.6099243
		c0.6498413,0.269989,1.2996826,0.5299683,1.9497681,0.7998962c1.0799561,0.4300232,2.1596985,0.8599854,3.2597046,1.2799377
		c0.5499878,0.2099915,1.0999756,0.4199219,1.6597595,0.6299438c2.8298035,1.0598755,5.7394409,2.0897522,8.749176,3.0697021
		c1.1200256,0.3699646,2.2597961,0.7299194,3.4098511,1.0898743c1.8196716,0.5599365,3.6695862,1.0999451,5.54953,1.6298523
		c0.6298218,0.1699829,1.2596436,0.3500061,1.8997192,0.519989c1.9097595,0.5199585,3.8595276,1.0099182,5.8495789,1.4898376
		c0.6598511,0.1599731,1.3297119,0.3199768,1.9998169,0.4700012c0.6698608,0.1599426,1.3497314,0.309967,2.0296021,0.4598999
		c0.2099304,0.0499878,0.420105,0.0900269,0.6300659,0.1400146c0.5597534,0.1199951,1.1297607,0.2399597,1.6997986,0.3599548
		c0.7899475,0.1699524,1.5799255,0.3299866,2.3898926,0.4899292c3.4196167,0.6799316,6.9690857,1.3098755,10.638916,1.8698425
		c0.6398315,0.0899963,1.289917,0.1899719,1.9397583,0.2799988c0.519989,0.0800171,1.0499573,0.1599426,1.5799561,0.22995
		c0.7298889,0.1000366,1.4698181,0.2000122,2.2097473,0.2900085c1.8399048,0.2399902,3.7096252,0.4699402,5.6193542,0.6699219
		c0.6100464,0.0700073,1.2298584,0.1300049,1.8499146,0.2000122c0.6200562,0.059967,1.2499084,0.1199646,1.8797302,0.1799622
		c2.8798523,0.269928,5.8295288,0.5099792,8.8592834,0.6999512c0.7098999,0.0499878,1.4298096,0.0999756,2.1596985,0.1399536
		c0.7799683,0.0400085,1.5599365,0.0799866,2.349884,0.1199646c2.0098267,0.1000366,4.0596924,0.1900024,6.1395874,0.2499695
		c1.4097595,0.0500488,2.8395691,0.0900269,4.2793884,0.1100464c1.1199951,0.0199585,2.2597961,0.039978,3.3998108,0.0499878
		c1.1898499,0.0100098,2.389679,0.0200195,3.5995483,0.0200195h0.6600952l0.2099304,131.8677979l0.0100098,3.1697388
		l0.1101074,66.8838501v0.039978L444.2849731,602.953064z"/>
	<path class="st10" d="M444.2949829,603.6729126c0,3.7296753-0.7199097,7.2793579-2.0598755,10.5390015
		c-4.1395264,10.2191162-14.1585999,17.4484253-25.8574829,17.4684448l-89.211731,0.1400146
		c2.7096863-5.4295654,4.6594543-11.2990112,5.6893921-17.4884644c0.0700684-0.4099121,0.1398926-0.829834,0.1999512-1.2498779
		c0.1899109-1.2698364,0.3300476-2.5397339,0.4398804-3.8195801c0.1501465-1.7698364,0.2302246-3.5797119,0.2302246-5.4095459
		l1.1397705-241.8876648c25.9675903,12.1488647,57.9245911,22.3979187,109.0700378,22.3179626l0.2199402,131.8677979
		l0.1101074,70.0535889v0.039978L444.2949829,603.6729126z"/>
	<path class="st9" d="M444.2849731,603.9729004c-0.0300293,3.5997314-0.7399292,7.0293579-2.0298462,10.1890869
		c-0.0097656,0.0200195-0.0097656,0.0300293-0.0200195,0.0499268l-109.369812,0.1300049
		c0.0700684-0.4199219,0.1298828-0.8398438,0.1899414-1.2598877c0.1899109-1.2698364,0.3300476-2.5397339,0.4398804-3.8195801
		c0.1501465-1.7698364,0.2302246-3.5797119,0.2302246-5.4095459l1.1397705-241.8876648
		c25.9675903,12.1488647,57.9245911,22.3979187,109.0700378,22.3179626l0.2199402,131.8677979
		C444.1550903,516.151001,444.2949829,603.8729248,444.2849731,603.9729004z"/>
	<circle class="st9" cx="273.9403687" cy="399.055603" r="10.5818729"/>
	<circle class="st9" cx="210.8981934" cy="401.3901367" r="29.3547077"/>
	<circle class="st9" cx="253.5389099" cy="453.4275208" r="18.3712234"/>
	<circle class="st9" cx="333.7295532" cy="573.2786865" r="20.8671055"/>
	<circle class="st9" cx="300.4944153" cy="533.8140869" r="15.1232672"/>
	<circle class="st9" cx="269.1676636" cy="562.069397" r="9.2477541"/>
	<path class="st12" d="M190.6311951,268.3368835h0.0000305c8.1049347,0,14.6752777,6.570343,14.6752777,14.6752625v198.8103333
		c0,8.1049194-6.570343,14.6752625-14.6752777,14.6752625h-0.0000305c-8.1049347,0-14.6752777-6.570343-14.6752777-14.6752625
		V283.012146C175.9559174,274.9072266,182.5262604,268.3368835,190.6311951,268.3368835z"/>
	<path class="st12" d="M191.2233429,511.4963684h0.0000305c8.1049347,0,14.675293,6.570343,14.675293,14.6752625v28.8198853
		c0,8.1049194-6.5703583,14.675293-14.675293,14.675293h-0.0000305c-8.1049194,0-14.6752777-6.5703735-14.6752777-14.675293
		v-28.8198853C176.5480652,518.0667114,183.1184235,511.4963684,191.2233429,511.4963684z"/>
</g>
</svg>
