<?xml version="1.0" encoding="utf-8"?>
<!-- Generator: Adobe Illustrator 22.1.0, SVG Export Plug-In . SVG Version: 6.00 Build 0)  -->
<svg version="1.1" id="Layer_1" xmlns="http://www.w3.org/2000/svg" xmlns:xlink="http://www.w3.org/1999/xlink" x="0px" y="0px"
	 viewBox="0 0 600 657" style="enable-background:new 0 0 600 657;" xml:space="preserve">
<style type="text/css">
	.st0{fill:#F1F5D7;}
	.st1{fill:#B8E0D5;}
	.st2{fill:#D6EBD4;}
	.st3{fill:#F3F7DE;}
	.st4{fill:#C4E5DC;}
	.st5{fill:#DDEEDB;}
	.st6{fill:#AADCD9;}
	.st7{fill:#9ED3D7;}
	.st8{fill:#B4E548;}
	.st9{fill:#9FC634;}
	.st10{fill:#D1EF62;}
	.st11{fill:#8EAB22;}
	.st12{opacity:0.5;fill:#FFFFFF;mix-blend-mode:soft-light;}
</style>
<g>
	<path class="st0" d="M387.6528015,32.6277885v21.6500549c0,4.5778465-4.4979248,8.3261185-9.9953918,8.3261185h-155.26828
		c-5.497467,0-9.9953918-3.7482719-9.9953918-8.3261185V32.6277885c0-4.5878506,4.4979248-8.3361225,9.9953918-8.3361225h155.26828
		C383.1548767,24.291666,387.6528015,28.039938,387.6528015,32.6277885z"/>
	<path class="st1" d="M387.6528015,32.6277885v21.6500549c0,4.5778465-4.4979248,8.3261185-9.9953918,8.3261185H274.0352478
		c-5.497467,0-9.9953918-3.7482719-9.9953918-8.3261185V32.6277885c0-4.5878506,4.4979248-8.3361225,9.9953918-8.3361225
		h103.6221619C383.1548767,24.291666,387.6528015,28.039938,387.6528015,32.6277885z"/>
	<path class="st2" d="M349.6702881,32.6277885v21.6500549c0,4.5778465-4.4979248,8.3261185-9.9953918,8.3261185H260.041687
		c-5.4974518,0-9.9953918-3.7482719-9.9953918-8.3261185V32.6277885c0-4.5878506,4.4979401-8.3361225,9.9953918-8.3361225
		h79.6332092C345.1723633,24.291666,349.6702881,28.039938,349.6702881,32.6277885z"/>
	<path class="st3" d="M462.2752991,208.2468414l-70.4675293,434.2897949C390.4480591,650.8728027,383.2516479,657,374.8053589,657
		H225.194397c-0.7596588,0-1.4993134-0.0499878-2.2389526-0.1499634
		c-7.4465179-0.9695435-13.5238037-6.7268677-14.7632141-14.3134155l-70.4675293-434.2897949
		c-3.7482605-23.0793304,14.0735931-44.0196838,37.452713-44.0196838h249.6449432
		C448.2016907,164.2271576,466.0235596,185.167511,462.2752991,208.2468414z"/>
	<path class="st4" d="M462.2752991,208.2468414l-70.4675293,434.2897949C390.4480591,650.8728027,383.2516479,657,374.8053589,657
		h-78.3139954c-0.7594299,0-1.4992981-0.0499878-2.2387085-0.1499634
		c-7.4467773-0.9695435-13.5238037-6.7268677-14.7632141-14.3134155l-70.467514-434.2897949
		c-3.7482758-23.0793304,14.0735779-44.0196838,37.4526978-44.0196838h178.3477325
		C448.2016907,164.2271576,466.0235596,185.167511,462.2752991,208.2468414z"/>
	<path class="st5" d="M390.3084717,208.2468414l-70.4675293,434.2897949C318.4812317,650.8728027,311.2848511,657,302.8385315,657
		h-6.347168c-0.7594299,0-1.4992981-0.0499878-2.2387085-0.1499634
		c-7.4467773-0.9695435-13.5238037-6.7268677-14.7632141-14.3134155l-70.467514-434.2897949
		c-3.7482758-23.0793304,14.0735779-44.0196838,37.4526978-44.0196838h106.3809052
		C376.2348633,164.2271576,394.0567322,185.167511,390.3084717,208.2468414z"/>
	<path class="st6" d="M437.6264954,204.2486877l-68.4684448,421.9154968
		c-0.5197754,3.1885376-3.1484375,5.5774536-6.3369141,5.8173218c-0.1800842,0.0200195-0.3601685,0.0300293-0.5397949,0.0300293
		H237.7386627c-0.2098694,0-0.4297333-0.0100098-0.6295929-0.0300293c-3.1386871-0.2798462-5.7275848-2.6587524-6.2471161-5.8173218
		l-68.4684448-421.9154968c-0.8296967-5.147583,1.4793091-8.765976,2.9285889-10.4751587
		c1.4492798-1.6992188,4.6577606-4.5578918,9.8653259-4.5578918h249.6451569c5.2075806,0,8.4160461,2.8586731,9.8650818,4.5578918
		C436.1471863,195.4827118,438.4562073,199.1011047,437.6264954,204.2486877z"/>
	<path class="st4" d="M277.7802734,632.0115356h-40.0416107c-0.2098694,0-0.4297333-0.0100098-0.6295929-0.0300293
		c-3.1386871-0.2798462-5.7275848-2.6587524-6.2471161-5.8173218l-48.5877075-299.3719482l-2.4088135-14.8532104
		l-6.1873322-38.142395l-2.448822-15.0630493l-8.8357697-54.4848938c-0.8296967-5.147583,1.4793091-8.765976,2.9285889-10.4751587
		c1.4492798-1.6992188,4.6577606-4.5578918,9.8653259-4.5578918h35.6036987
		c-2.1291504,5.8672943-2.8487854,12.3542938-1.7691956,19.0312042L277.7802734,632.0115356z"/>
	<path class="st7" d="M437.6264954,204.2486877l-8.8460083,54.5049133l-8.6361694,53.1954346l-2.4085388,14.8531494
		l-48.5777283,299.3619995c-0.5197754,3.1885376-3.1484375,5.5774536-6.3369141,5.8173218
		c-0.1800842,0.0200195-0.3601685,0.0300293-0.5397949,0.0300293h-40.7414551l68.7583313-423.7647095
		c1.0795898-6.6769104,0.3597107-13.1639099-1.7691956-19.0312042h36.3035583c5.2075806,0,8.4160461,2.8586731,9.8650818,4.5578918
		C436.1471863,195.4827118,438.4562073,199.1011047,437.6264954,204.2486877z"/>
	<path class="st4" d="M424.9223938,103.4726334c0.0097656,4.2980042-1.6593933,8.3461914-4.6877747,11.3847656
		c-2.9385986,2.938652-6.8166809,4.6078644-10.9651794,4.7178574c-0.1298218,0.0099487-0.2698669,0.0099487-0.3997192,0.0099487
		H188.78125c-8.8360138,0-13.9535217-6.8268127-13.9735413-15.6727676l-0.0800323-41.6808014
		c-0.0100098-4.298008,1.6593781-8.3361244,4.6877747-11.3747025c3.0286255-3.0386353,7.0568085-5.0676689,11.3548737-5.0776749
		h218.7392578c8.5956421,0.3798294,15.322998,7.4165649,15.3327637,16.0125771L424.9223938,103.4726334z"/>
	<path class="st3" d="M368.9482117,103.4751358c0.0097351,4.2980042-1.6593933,8.3461914-4.6878052,11.3847656
		c-2.9385681,2.9386444-6.8166809,4.6078644-10.9651489,4.7177963c-0.1298218,0.0100021-0.2698975,0.0100021-0.3997192,0.0100021
		H188.78125c-8.8360138,0-13.9535217-6.8268051-13.9735413-15.6727676l-0.0800323-41.6807938
		c-0.0100098-4.298008,1.6593781-8.3361244,4.6877747-11.3747635c3.0286255-3.038578,7.0568085-5.0676079,11.3548737-5.0776138
		h162.7650452c8.5956421,0.3798294,15.3230286,7.4165611,15.3327942,16.0125771L368.9482117,103.4751358z"/>
	<path class="st5" d="M368.9482117,103.4751358c0.0097351,4.2980042-1.6593933,8.3461914-4.6878052,11.3847656
		c-2.9385681,2.9386444-6.8166809,4.6078644-10.9651489,4.7177963c-0.1298218,0.0100021-0.2698975,0.0100021-0.3997192,0.0100021
		H244.7554474c-8.8360138,0-13.9535217-6.8268051-13.9735413-15.6727676l-0.0800323-41.6807938
		c-0.0100098-4.298008,1.6593781-8.3361244,4.6877747-11.3747635c3.0286255-3.038578,7.0568085-5.0676079,11.3548737-5.0776138
		h106.7908478c8.5956421,0.3798294,15.3230286,7.4165611,15.3327942,16.0125771L368.9482117,103.4751358z"/>
	<path class="st6" d="M399.9636841,88.0022888c0,3.6883011-2.9786072,6.6869202-6.6766052,6.6969223l-24.3789063,0.0399628
		l-84.3209839,0.1199417h-2.8487854l-50.7666473,0.1099319l-24.5587463,0.059967
		c-3.6982422,0.0100098-6.6868591-2.9786072-6.6968536-6.6769104l-0.030014-10.5850906
		c-0.0100098-3.6883011,2.9786072-6.6869202,6.6670837-6.6969223l24.6185303-0.059967l38.8221893-0.0899887l14.7932434-0.0199509
		l84.3209839-0.1199417l24.3286438-0.0400162c2.5788879-0.0100098,4.8180847,1.4493408,5.9274292,3.5883713
		c0.1000671,0.1799088,0.1898499,0.3698273,0.2698975,0.5697479c0.0800476,0.169899,0.1400757,0.3398056,0.2001038,0.5297241
		c0.1898499,0.629715,0.2996521,1.2993851,0.2996521,1.9890671L399.9636841,88.0022888z"/>
	<g>
		<polygon class="st2" points="348.9173889,119.5313416 348.9173889,164.2607269 250.629364,164.2657471 250.629364,119.5363617
			304.2454529,119.4264297 		"/>
		<path class="st1" d="M382.7351379,164.2607269l-39.4420166-0.0134888
			c-2.6903687-0.0008087-4.8708801-2.1820068-4.8708801-4.8723755v-34.7725296c0-2.8114777,2.2744446-5.0931168,5.085907-5.1019745
			l18.2895813-0.0639496l20.9041138,0.0949326v0.1599579L382.7351379,164.2607269z"/>
		<path class="st0" d="M257.6440125,164.2479858h-40.3326263v-44.7345886h40.3326263
			c2.8390503,0,5.1405334,2.3014908,5.1405334,5.1405182v34.4535522
			C262.7845459,161.9464874,260.4830627,164.2479858,257.6440125,164.2479858z"/>
	</g>
	<path class="st4" d="M230.7189331,71.0101242v23.9589233l-24.3059235,0.059967
		c-3.6982422,0.0100098-6.6868591-2.9786072-6.6968536-6.6769104l-0.030014-10.5850906
		c-0.0100098-3.6883011,2.9786072-6.6869202,6.6670837-6.6969223L230.7189331,71.0101242z"/>
	<path class="st7" d="M399.9636841,88.0022888c0,3.6883011-2.9786072,6.6869202-6.6766052,6.6969223l-24.3553772,0.0399628
		v-23.958931l24.3051147-0.0400162c2.5788879-0.0100098,4.8180847,1.4493408,5.9274292,3.5883713
		c0.1000671,0.1799088,0.1898499,0.3698273,0.2698975,0.5697479c0.0800476,0.169899,0.1400757,0.3398056,0.2001038,0.5297241
		c0.1898499,0.629715,0.2996521,1.2993851,0.2996521,1.9890671L399.9636841,88.0022888z"/>
	<path class="st8" d="M429.8102722,252.4164886l-1.0297852,6.3371124l-1.0996094,6.7468872l-6.3466797,39.1019592
		l-1.1898804,7.3465881l-1.6491394,10.155365l-0.7593994,4.6977844l-48.5777283,299.3619995
		c-0.5197754,3.1885376-3.1484375,5.5774536-6.3369141,5.8173218c-0.1800842,0.0200195-0.3601685,0.0300293-0.5397949,0.0300293
		H237.7386627c-0.2098694,0-0.4297333-0.0100098-0.6295929-0.0300293c-3.1386871-0.2798462-5.7275848-2.6587524-6.2471161-5.8173218
		l-48.5877075-299.3719482l-1.2994537-8.0163269l-1.1093597-6.8368835l-1.1295929-6.9967651
		c48.7675476-3.358429,77.7441711-17.052124,103.3622437-30.625824c5.9572144-3.1686096,11.7348328-6.3171082,17.5319824-9.3257446
		c22.3300171-11.6046143,45.0392761-21.1702118,79.9031067-21.2301941
		C401.8031616,243.730484,417.7557678,247.158905,429.8102722,252.4164886z"/>
	<path class="st9" d="M379.5531616,257.7440491c20.9703369-0.0300293,36.3333435,3.008606,48.1277161,7.7564392
		l-6.3466797,39.1019592l-1.1898804,7.3465881l-1.6491394,10.155365l-0.7593994,4.6977844l-48.5777283,299.3619995
		c-0.5197754,3.1885376-3.1484375,5.5774536-6.3369141,5.8173218c-0.1800842,0.0200195-0.3601685,0.0300293-0.5397949,0.0300293
		H237.7386627c-0.2098694,0-0.4297333-0.0100098-0.6295929-0.0300293c-3.1386871-0.2798462-5.7275848-2.6587524-6.2471161-5.8173218
		l-48.5877075-299.3719482l-1.2994537-8.0163269c56.3141327-4.3080139,85.9203491-22.5096436,115.0768433-37.9225159
		c5.7273254-3.0286255,11.4346619-5.9372559,17.3220825-8.6260376
		C331.6850891,263.8812256,351.7559204,257.7940063,379.5531616,257.7440491z"/>
	<path class="st10" d="M171.2292786,258.7335815l-1.0095367-6.2371216c5.807373-2.4788971,12.5042419-4.5478821,20.360733-6.0072327
		c0.0197601,0,0.0500183-0.0100098,0.0697937-0.0100098c8.2862091-1.5492706,17.8618774-2.4388733,29.0266571-2.4588928
		c34.8540497-0.059967,57.5935516,9.4356537,79.9531403,20.9703674c4.5579529,2.3489075,9.1056519,4.777771,13.7436523,7.2366638
		c26.7576904,14.2034912,56.3338928,29.0965881,107.9604797,32.3750916l-1.1898804,7.3465881l-1.6491394,10.155365
		l-0.7593994,4.6977844l-48.5777283,299.3619995c-0.5197754,3.1885376-3.1484375,5.5774536-6.3369141,5.8173218
		c-0.1800842,0.0200195-0.3601685,0.0300293-0.5397949,0.0300293H237.7386627c-0.2098694,0-0.4297333-0.0100098-0.6295929-0.0300293
		c-3.1386871-0.2798462-5.7275848-2.6587524-6.2471161-5.8173218l-48.5877075-299.3719482l-1.2994537-8.0163269
		l-1.1093597-6.8368835l-1.1295929-6.9967651l-5.0577393-31.1456299l-0.7596588-4.6878357L171.2292786,258.7335815z"/>
	<path class="st8" d="M418.4979248,322.1044006l-0.7593994,4.6977844l-45.3892517,279.7210693l-3.1884766,19.6409302
		c-0.489502,2.9985962-2.8487549,5.2875977-5.7770996,5.7473145c-0.1898499,0.0300293-0.3899536,0.0599976-0.5895691,0.0700073
		c-0.1801147,0.0200195-0.360199,0.0300293-0.5397949,0.0300293H237.7414093c-0.2098541,0-0.4294891-0.0100098-0.6295929-0.0300293
		c-3.1386871-0.2798462-5.7273407-2.6587524-6.2471161-5.8173218l-3.1884766-19.6409302l-45.3989868-279.7310181
		l-1.2996979-8.0163269l-1.1093445-6.8368835l-1.129364-6.9967651l-5.057724-31.1456299l-0.7594147-4.6878357
		c11.5942535-4.487915,26.5873413-7.3565979,46.7879944-7.3865967c25.8782043-0.039978,45.0695496,5.1776123,62.3911743,12.5942383
		c4.7580566,2.0290222,9.3760376,4.2280273,13.9535217,6.5369568
		c22.6399536,11.3847656,44.2598572,25.2583618,76.9450073,33.8943481c0.3596802,0.0899963,0.7193909,0.1899109,1.0795593,0.2799072
		c0.5993347,0.1498718,1.2094116,0.309845,1.8190002,0.4597473c3.3085327,0.8296204,6.7366333,1.6092834,10.2950439,2.3089905
		c0.7799072,0.1598816,1.5593567,0.309845,2.3587952,0.4597473c0.5397644,0.1099243,1.0795593,0.2099304,1.6393738,0.2998352
		c0.6300659,0.1199646,1.2494202,0.22995,1.8892517,0.3398743c0.8794861,0.1599121,1.7589722,0.3098755,2.6589355,0.4497986
		c1.2894592,0.2098694,2.5984192,0.40979,3.927887,0.6097107c1.1498413,0.1699219,2.3089905,0.3298645,3.478363,0.4797668
		c0.7296448,0.0999756,1.4695435,0.1899109,2.2192078,0.289917c1.4992981,0.1799011,3.0083618,0.3598022,4.547699,0.5197144
		c0.6696167,0.0699768,1.3494873,0.1399536,2.0293274,0.2099304c0.6393738,0.059967,1.2792053,0.1199341,1.9288025,0.1799011
		c0.7799072,0.0799866,1.5696106,0.1499634,2.3592834,0.2099304c0.7896729,0.0699768,1.5891113,0.1299438,2.3987732,0.1899109
		c0.2796631,0.0299377,0.5598145,0.0499573,0.8394775,0.0699768H418.4979248z"/>
	<path class="st9" d="M429.7800293,252.4164886l-1.0293274,6.3371124l-1.0995789,6.7468872l-6.347168,39.1019592
		l-1.1893921,7.3465881l-1.6491394,10.155365l-0.7599182,4.6977844l-48.5776978,299.3619995
		c-0.5192871,3.1885376-3.148468,5.5774536-6.3369141,5.8173218c-0.1796265,0.0200195-0.3597107,0.0300293-0.5397949,0.0300293
		h-40.7312317l51.4762573-317.2637939l2.7590027-16.9821777l6.4867554-40.0015564l2.2689514-13.9435272
		C404.1917114,244.2702179,418.6450195,247.5587463,429.7800293,252.4164886z"/>
	<path class="st11" d="M427.651123,265.5004883l-6.347168,39.1019592l-1.1893921,7.3465881l-1.6491394,10.155365
		l-0.7599182,4.6977844l-48.5776978,299.3619995c-0.5192871,3.1885376-3.148468,5.5774536-6.3369141,5.8173218
		c-0.1796265,0.0200195-0.3597107,0.0300293-0.5397949,0.0300293h-40.7312317l51.4762573-317.2637939l2.7590027-16.9821777
		l6.4867554-40.0015564C401.8329468,257.9839172,416.3765259,260.9525146,427.651123,265.5004883z"/>
	<path class="st8" d="M421.3039551,304.6024475l-1.1893921,7.3465881l-1.6491394,10.155365l-0.7599182,4.6977844
		l-48.5776978,299.3619995c-0.5192871,3.1885376-3.148468,5.5774536-6.3369141,5.8173218
		c-0.1796265,0.0200195-0.3597107,0.0300293-0.5397949,0.0300293h-40.7312317l51.4762573-317.2637939l2.7590027-16.9821777
		C388.9087219,301.0640564,403.8520203,303.4929199,421.3039551,304.6024475z"/>
	<path class="st9" d="M418.4681702,322.1044006l-0.7594299,4.6977844L372.319519,606.5232544l-3.1884766,19.6409302
		c-0.4299927,2.6187744-2.2689819,4.6978149-4.678009,5.4874878c-0.3499451,0.1199951-0.7096558,0.1998901-1.0693359,0.2598267
		c-0.1898499,0.0300293-0.3899536,0.0599976-0.5895691,0.0700073c-0.1801147,0.0200195-0.360199,0.0300293-0.5397949,0.0300293
		h-40.7312317l4.1377563-25.4882813l47.3385315-291.7755127c0.3596802,0.0899963,0.7193909,0.1899109,1.0795593,0.2799072
		c0.5993347,0.1598816,1.2094116,0.309845,1.8190002,0.4597473c3.3085327,0.8296204,6.7366333,1.6092834,10.2950439,2.3089905
		c0.7799072,0.1598816,1.5593567,0.309845,2.3587952,0.4597473c0.5397644,0.1099243,1.0795593,0.2099304,1.6393738,0.2998352
		c0.619812,0.1199646,1.2494202,0.22995,1.8892517,0.3398743c0.8794861,0.1599121,1.7589722,0.3098755,2.6589355,0.4497986
		c1.2894592,0.2098694,2.5984192,0.4197998,3.927887,0.6097107c1.1498413,0.1699219,2.3089905,0.3298645,3.478363,0.4797668
		c0.7398987,0.0999756,1.4793091,0.1999207,2.2192078,0.289917c1.4992981,0.1799011,3.0083618,0.3598022,4.547699,0.5197144
		c0.6696167,0.0699768,1.3494873,0.1399536,2.0293274,0.2099304c0.6393738,0.0699768,1.2792053,0.1299438,1.9288025,0.1799011
		c0.7799072,0.0799866,1.5696106,0.1499634,2.3592834,0.2099304c0.7896729,0.0699768,1.5891113,0.1398926,2.3987732,0.1899109
		C417.9083557,322.0643616,418.1885071,322.0843811,418.4681702,322.1044006z"/>
	<circle class="st9" cx="241.9666901" cy="318.156189" r="30.9857159"/>
	<circle class="st9" cx="299.9399719" cy="350.6412354" r="15.9926281"/>
	<circle class="st9" cx="259.0005188" cy="385.0836792" r="10.0370398"/>
	<circle class="st9" cx="346.751709" cy="514.2324829" r="30.9857159"/>
	<circle class="st9" cx="271.3132019" cy="547.8293457" r="15.9926281"/>
	<circle class="st9" cx="292.6051025" cy="506.4669189" r="10.0370398"/>
	<path class="st9" d="M372.3492737,606.5232544l-3.1884766,19.6409302c-0.489502,2.9985962-2.8487549,5.2875977-5.7770996,5.7473145
		c-0.1898499,0.0300293-0.3899536,0.0599976-0.5895691,0.0700073c-0.1801147,0.0200195-0.360199,0.0300293-0.5397949,0.0300293
		H237.7414093c-0.2098541,0-0.4294891-0.0100098-0.6295929-0.0300293c-3.1386871-0.2798462-5.7273407-2.6587524-6.2471161-5.8173218
		l-3.1884766-19.6409302H372.3492737z"/>
	<path class="st11" d="M372.3492737,606.5232544l-3.1884766,19.6409302
		c-0.4294739,2.6287842-2.2889709,4.7078247-4.7077637,5.4874878c-0.3499451,0.1199951-0.7096558,0.1998901-1.0693359,0.2598267
		c-0.1898499,0.0300293-0.3899536,0.0599976-0.5895691,0.0700073c-0.1801147,0.0200195-0.360199,0.0300293-0.5397949,0.0300293
		h-40.7312317l4.1377563-25.4882813H372.3492737z"/>
	<path class="st12" d="M245.0350342,466.9933777h-0.0224609c-7.6857605,0-13.5427704,6.8838806-12.3118591,14.4704285
		l4.3986359,27.11026c0.9797516,6.0385437,6.1943359,10.4752502,12.3118439,10.4752502h0.0381012
		c7.6885834,0,13.5463409-6.8886719,12.3107147-14.4773254l-4.4142761-27.1102905
		C256.3630371,471.4263306,251.1498871,466.9933777,245.0350342,466.9933777z M216.1993866,224.6351318
		c-0.9795227-6.0172424-6.1771393-10.435257-12.2642975-10.435257c-7.6665192,0-13.5037842,6.8568268-12.2743835,14.4234009
		l32.9339447,202.9070892c0.9800568,6.038208,6.1944885,10.4745178,12.3117218,10.4745178h0.0000305
		c7.6881409,0,13.5457764-6.8879395,12.3108978-14.4762573L216.1993866,224.6351318z"/>
</g>
</svg>
