<?xml version="1.0" encoding="utf-8"?>
<!-- Generator: Adobe Illustrator 22.1.0, SVG Export Plug-In . SVG Version: 6.00 Build 0)  -->
<svg version="1.1" id="Layer_1" xmlns="http://www.w3.org/2000/svg" xmlns:xlink="http://www.w3.org/1999/xlink" x="0px" y="0px"
	 viewBox="0 0 600 656.9986572" style="enable-background:new 0 0 600 656.9986572;" xml:space="preserve">
<style type="text/css">
	.st0{fill:#FFDD9D;}
	.st1{fill:#FFC98F;}
	.st2{fill:#F3F7DE;}
	.st3{fill:#AADCD9;}
	.st4{fill:#0E8AC0;}
	.st5{fill:#139BCD;}
	.st6{fill:#59C9E1;}
	.st7{fill:#13B2DA;}
	.st8{fill:#C4E5DC;}
	.st9{fill:#E7EAD0;}
	.st10{fill:#6ADBEA;}
	.st11{fill:#90D1CE;}
	.st12{fill:#B2DDD1;}
	.st13{fill:#9ED3D7;}
	.st14{fill:#0B77AD;}
	.st15{fill:#81C6CB;}
	.st16{fill:#DDEEDB;}
</style>
<g>
	<g>
		<path class="st0" d="M370.8790894,83.1019974l-8.544281,47.4279251
			c0.0101318,6.2590179-1.9689941,11.9212189-5.1508789,15.9382935c-3.4646301,3.6997833-8.3904419,6.0255127-13.8258972,6.034317
			l-86.684906,0.1403046c-10.4590607,0.016922-19.026123-8.5224457-19.043045-18.9815826l-8.548233-52.0499954
			c-1.1968231-7.2874298,1.7489319-14.7667389,7.8576508-18.9167671c3.0322876-2.0600204,6.6845398-3.2687645,10.6067657-3.2751122
			l104.6368408-0.1693535c2.7176208-0.0043983,5.3097229,0.5707817,7.6569824,1.6081085
			c4.5837708,2.0256958,7.9741516,6.0137138,9.7119751,10.7141838c0.7561951,2.0452805,1.2791138,4.2681122,1.5228577,6.6070175
			C371.2458801,79.8198471,371.1715393,81.4787292,370.8790894,83.1019974z"/>
		<path class="st1" d="M370.888092,83.0520782l-8.5532837,47.4778442
			c0.0101318,6.2590179-1.9689941,11.9212189-5.1508789,15.9382935c-3.1123047,3.3227234-7.3912354,5.5297089-12.1671753,5.9492645
			c-0.5411377,0.0596924-1.0940247,0.084137-1.6587219,0.0850525l-23.3418579,0.0377808
			c9.059082-0.0146637,16.4550476-9.9093323,16.4355469-21.9685059l8.8960571-49.3806
			c-0.0195313-12.0591736-7.4474792-21.9180679-16.5065613-21.9034042l23.3418884-0.0377769
			c2.7176208-0.0043983,5.3097229,0.5707855,7.6569824,1.60812c4.5839539,2.0257912,7.9744263,6.0140686,9.7122192,10.7147675
			c0.8261108,2.234642,1.3737793,4.6812134,1.5831299,7.2595444
			C371.2498779,80.2418289,371.1387939,81.6604691,370.888092,83.0520782z"/>
		<circle class="st1" cx="282.9663391" cy="117.333168" r="12.5203505"/>
		<circle class="st1" cx="283.231781" cy="75.6256027" r="7.0065222"/>
		<circle class="st1" cx="255.9658203" cy="89.6911316" r="13.7084131"/>
		<circle class="st1" cx="325.4827271" cy="89.6911316" r="9.2709789"/>
	</g>
	<path class="st2" d="M379.988739,187.9891815v389.0214844c0,44.1033936-35.884613,79.9879761-79.9879456,79.9879761
		c-44.1034698,0-79.9879608-35.8845825-79.9879608-79.9879761V187.9891815c0-1.659668,1.3397522-2.9995422,2.9995422-2.9995422
		h153.9768219C378.6488647,184.9896393,379.988739,186.3295135,379.988739,187.9891815z"/>
	<path class="st3" d="M356.992218,187.9591522v389.0415039c0,31.4252319-25.5662231,56.9914551-56.9914246,56.9914551
		c-31.4253235,0-56.9914246-25.5662231-56.9914246-56.9914551V187.9591522H356.992218z"/>
	<path class="st4" d="M356.9947815,267.0200195V402.739563c-3.2194824,1.9897461-6.9789429,3.1295471-10.9483032,3.1395569
		l-91.9662018,0.1499939c-4.0593872,0-7.8488007-1.1498413-11.0683441-3.1595459V286.5870667
		c24.286377-0.0700073,36.2445374-6.4689941,47.8228149-12.6680603c0.9898376-0.5299683,1.9697266-1.059845,2.9395752-1.5697937
		c1.4697876-0.7799072,2.969574-1.5597534,4.5193176-2.3096313c8.7486877-4.3093567,18.8771667-7.9888,33.2349854-8.0088196
		h0.1500244C341.7470703,262.0307617,350.0858459,263.6605225,356.9947815,267.0200195z"/>
	<path class="st5" d="M357.0822754,384.7821655c0,0.2311707-0.0100403,0.4724731-0.0201111,0.7036438
		c-0.0201111,0.3317261-0.0502625,0.6734619-0.1105652,0.9951477c-0.8041382,5.3074341-5.3978882,9.3885193-10.9264526,9.3985291
		l-91.9249878,0.1508179c-6.101532,0.0100403-11.0772552-4.9555969-11.0873108-11.0571594l-0.1004944-59.2561646
		l-0.0502472-29.1305237h0.0100555c29.0098877-0.0502319,42.4091187-8.443634,55.5771484-15.3995667
		c9.3282166-4.9354858,18.5357666-9.1371765,33.0909729-9.1572876c12.6654663-0.0201416,20.1742554,2.7843933,25.3710632,6.5035706
		l0.0302124,19.3399048L357.0822754,384.7821655z"/>
	<path class="st6" d="M356.704834,287.8769226h0.2899475v289.1264343c0,31.425293-25.5661011,56.9914551-56.9914246,56.9914551
		c-31.4252625,0-56.9914246-25.5661621-56.9914246-56.9914551V268.5297852
		c6.8789673-3.2994995,15.1677551-4.9092407,25.15625-4.9292603h0.1399841c12.7480774,0,22.0666199,2.8695679,29.9854736,6.4390564
		c1.6097412,0.7098999,3.1495056,1.4598083,4.6592712,2.219635c2.0097046,1.0098572,3.9994202,2.0697021,5.9291077,3.0895691
		C320.4602966,281.5078125,332.4384766,287.8769226,356.704834,287.8769226z"/>
	<path class="st7" d="M356.9947815,438.2842712v138.7190857c0,31.425293-25.5661011,56.9914551-56.9914246,56.9914551
		c-31.4252625,0-56.9914246-25.5661621-56.9914246-56.9914551V280.0680237
		c5.1692657-3.6694336,12.6481171-6.4489746,25.1762695-6.4689941c13.0679626-0.0200195,21.8466797,3.3494873,30.2654114,7.5888977
		c14.1878662,7.1388855,27.375885,16.7374573,58.4911804,16.6874695L356.9947815,438.2842712z"/>
	<path class="st5" d="M269.7979431,350.8674316c-4.4093628,11.4482422-15.2177429,18.5671387-26.7860107,18.8071594v-58.7111816
		c3.309494,0.0599976,6.6690369,0.7098999,9.9385071,1.9597168
		C268.0781555,318.7521973,275.6170654,335.7297058,269.7979431,350.8674316z"/>
	<circle class="st5" cx="295.2072754" cy="393.5181885" r="18.3701515"/>
	<circle class="st5" cx="330.5352783" cy="355.1906433" r="10.4452677"/>
	<circle class="st5" cx="312.6664734" cy="545.7358398" r="19.2093735"/>
	<circle class="st5" cx="279.9259033" cy="506.4872437" r="12.2286634"/>
	<path class="st5" d="M356.9947815,476.4485168v48.3426819c-3.0595398,0.0700073-6.1790771-0.4399414-9.2085876-1.6097412
		c-12.4581299-4.7992554-18.6672363-18.7871399-13.8778992-31.2453003
		C337.6677246,482.1676025,347.0863037,476.2285156,356.9947815,476.4485168z"/>
	<path class="st8" d="M326.9967346,187.9591522v389.0415039c0,14.8876953-12.1083069,26.9959717-26.9959412,26.9959717
		c-14.8877869,0-26.9959412-12.1082764-26.9959412-26.9959717V187.9591522H326.9967346z"/>
	<path class="st5" d="M326.9992981,262.1707764v143.7383728l-18.1672668,0.0299377l-27.0458984,0.0400391l-8.778717,0.0199585
		V282.1377258c5.0792542-1.7097168,9.4385986-3.7793884,13.5679626-5.9190979
		c1.4698181-0.7598877,2.9096069-1.5297241,4.339386-2.2996216c0.9898376-0.5299683,1.9696655-1.059845,2.9395447-1.5697937
		c1.4697571-0.7799072,2.9695435-1.5597534,4.5192871-2.3096313
		C306.1524658,266.210144,315.0311279,262.8706665,326.9992981,262.1707764z"/>
	<path class="st6" d="M326.9992981,272.18927v123.7213745l-13.4979858,0.0199585l-36.4144897,0.059967l-4.0794067,0.0100098
		V292.6461487c10.4684448-3.0795593,18.037323-7.4988708,25.5261841-11.4582214
		c3.7094727-1.9597473,7.3989258-3.8094177,11.4182739-5.3192139
		C314.9111328,273.9889832,320.3802795,272.6292114,326.9992981,272.18927z"/>
	<rect x="220.0128326" y="192.9184875" class="st9" width="159.9759216" height="29.1556454"/>
	<path class="st10" d="M326.9992981,283.5575562v293.4458008c0,14.8878174-12.1081543,26.9959717-26.9959412,26.9959717
		c-14.8877258,0-26.9959412-12.1081543-26.9959412-26.9959717V263.7305298
		c10.438446,0.599884,18.4372253,3.1895142,25.3661804,6.3090515c1.6098022,0.7098999,3.1495361,1.4598083,4.6593323,2.219635
		c2.0097046,1.0098572,3.9993896,2.0697021,5.9291077,3.0895691c0.3299561,0.1699524,0.6598511,0.3499146,0.9898376,0.519928
		C315.131073,278.6282959,320.4602966,281.3778992,326.9992981,283.5575562z"/>
	<path class="st6" d="M326.9992981,294.0559692v282.9473877c0,14.8878174-12.1081543,26.9959717-26.9959412,26.9959717
		c-14.8877258,0-26.9959412-12.1081543-26.9959412-26.9959717V273.7490234
		c5.1092834,0.3299255,9.528595,1.2197876,13.5679626,2.4696045c4.2993469,1.3198242,8.1588135,3.0595398,11.9582214,4.9692993
		C307.0223083,285.4572449,315.1611023,290.6164856,326.9992981,294.0559692z"/>
	<circle class="st7" cx="295.2905884" cy="393.5181885" r="18.3701515"/>
	<path class="st7" d="M326.9992981,345.3982239v19.5870667c-0.039978-0.0200195-0.0899658-0.0299988-0.1300049-0.0500183
		c-5.3891296-2.0696411-8.0687256-8.1087646-5.9990845-13.4979858
		C321.9900818,348.527771,324.2797241,346.3980713,326.9992981,345.3982239z"/>
	<rect x="243.0093689" y="192.9184875" class="st11" width="113.9828415" height="29.1556454"/>
	<rect x="273.0048523" y="192.9184875" class="st12" width="53.9918709" height="29.1556454"/>
	<path class="st7" d="M326.9992981,532.8499756v25.7761841c-5.1792297,5.7190552-13.5179443,7.96875-21.1467896,5.0391846
		c-9.9085388-3.8093872-14.8377991-14.9277344-11.0283813-24.8262329
		c3.8094482-9.9085083,14.9277649-14.8377686,24.8262939-11.0283203
		C322.559967,528.930603,325.0396118,530.6803589,326.9992981,532.8499756z"/>
	<path class="st7" d="M291.4246826,510.8833313c-2.4296265,6.2990417-9.5085754,9.4385681-15.8076172,7.0189514
		c-0.9398499-0.3599854-1.8197327-0.829895-2.6096497-1.3898315v-20.046936
		c3.2195435-2.2496643,7.4588928-2.9096069,11.3983154-1.389801
		C290.7047729,497.5053406,293.8442993,504.5742798,291.4246826,510.8833313z"/>
	<path class="st13" d="M356.9721985,187.9591522v389.0415039c0,27.4958496-19.5771484,50.5124512-45.5231934,55.831604
		c-3.6993713,0.7598877-7.5389099,1.1598511-11.4682312,1.1598511c-3.919342,0-7.7488403-0.3999634-11.4382324-1.1598511
		c-25.9661865-5.3091431-45.5531921-28.3257446-45.5531921-55.831604V187.9591522h9.9984894v389.0415039
		c0,25.9160156,21.0769196,46.9929199,46.9929352,46.9929199s46.9929199-21.0769043,46.9929199-46.9929199V187.9591522H356.9721985z
		"/>
	<path class="st14" d="M357.0064392,267.0200195v309.9833374c0,27.5058594-19.5870972,50.5223999-45.5531921,55.831604
		c-3.6994019,0.7598877-7.5388489,1.1598511-11.4682617,1.1598511c-3.9194031,0-7.7488403-0.3999634-11.4382935-1.1598511
		c-25.946106-5.3192139-45.5231018-28.3357544-45.5231018-55.831604V286.5870667
		c3.579422-0.0100098,6.888916-0.1599426,9.9684753-0.4299316v290.8462219
		c0,25.9160767,21.0768433,46.9929199,46.9929199,46.9929199s46.9929199-21.0768433,46.9929199-46.9929199V263.5705261
		c3.6194458,0.8099365,6.9589844,1.9597168,9.9985046,3.4394836
		C356.9864197,267.0100098,356.9964294,267.0200195,357.0064392,267.0200195z"/>
	<path class="st4" d="M357.0064392,438.2842712v138.7190857c0,27.5058594-19.5870972,50.5223999-45.5531921,55.831604
		c-3.6994019,0.7598877-7.5388489,1.1598511-11.4682617,1.1598511c-3.9194031,0-7.7488403-0.3999634-11.4382935-1.1598511
		c-25.946106-5.3192139-45.5231018-28.3357544-45.5231018-55.831604V296.5855713
		c3.5494537-0.0100098,6.8589478-0.1400146,9.9684753-0.3899536v280.8077393
		c0,25.9160767,21.0768433,46.9929199,46.9929199,46.9929199s46.9929199-21.0768433,46.9929199-46.9929199V273.8590088
		c4.1394043,1.1697998,7.3389282,2.7995605,9.9485168,4.669281l0.0100098,9.3486328l0.0199585,9.9984741l0.0200195,56.1615295
		L357.0064392,438.2842712z"/>
	<rect x="242.9893494" y="192.9184875" class="st15" width="9.9984951" height="29.1556454"/>
	<rect x="346.9736938" y="192.9184875" class="st15" width="9.9984951" height="29.1556454"/>
	<path class="st7" d="M357.0064392,287.8769226v289.1264343c0,27.5058594-19.5870972,50.5223999-45.5531921,55.831604
		c-3.6994019,0.7598877-7.5388489,1.1598511-11.4682617,1.1598511c-3.9194031,0-7.7488403-0.3999634-11.4382935-1.1598511
		c-25.946106-5.3192139-45.5231018-28.3357544-45.5231018-55.831604V268.5297852
		c3.0395203-1.4598083,6.3490143-2.5895691,9.9684753-3.3894958v311.8630676
		c0,25.9160767,21.0768433,46.9929199,46.9929199,46.9929199s46.9929199-21.0768433,46.9929199-46.9929199V287.4969788
		c3.0195618,0.249939,6.249054,0.3799438,9.7385254,0.3799438H357.0064392z"/>
	<path class="st5" d="M357.0114441,438.2842712v138.7190857c0,27.5058594-19.5971069,50.5223999-45.5631409,55.831604
		c-3.6894531,0.7598877-7.5389099,1.1598511-11.4683228,1.1598511c-3.9093933,0-7.7488403-0.3999634-11.4382629-1.1598511
		c-25.9460449-5.3192139-45.5131226-28.3357544-45.5131226-55.831604V280.0680237
		c2.5995789-1.8597107,5.8091278-3.4794617,9.9584656-4.6392517v301.574585
		c0,25.9160767,21.086853,46.9929199,46.9929199,46.9929199c25.9161377,0,46.9929199-21.0768433,46.9929199-46.9929199V297.5254211
		c3.1095886,0.2399597,6.4290466,0.3599243,9.9785461,0.3499756l0.0199585,56.1615295L357.0114441,438.2842712z"/>
	<path class="st4" d="M252.9870605,313.0231018v54.75177c-3.1494904,1.2197876-6.5189819,1.909668-9.9584656,1.9796753
		c-0.0100098,0-0.0100098,0-0.0200195,0V311.043396c0.0100098,0,0.0100098,0,0.0200195,0
		c3.2994843,0.0599976,6.6589661,0.7098694,9.9184875,1.9596863
		C252.9570923,313.013092,252.9770508,313.013092,252.9870605,313.0231018z"/>
	<path class="st4" d="M356.9914246,476.4184875v48.3427429c-3.0595398,0.0700073-6.1790771-0.4399414-9.2086487-1.6097412
		c-0.2698975-0.1100464-0.5398865-0.2099609-0.8098755-0.3299561v-44.4633484
		C350.1024475,477.0184326,353.5219727,476.3385315,356.9914246,476.4184875z"/>
	<path class="st2" d="M386.2565613,115.8426819H213.7429657c-8.3966827,0-15.2276917,6.5800629-15.2276917,14.6677094v47.753067
		c0,8.0876617,6.8310089,14.6677246,15.2276917,14.6677246h172.5135956c8.3971558,0,15.2281494-6.5800629,15.2281494-14.6677246
		v-47.753067C401.4847107,122.4227448,394.653717,115.8426819,386.2565613,115.8426819z"/>
	<path class="st16" d="M386.2565613,115.8426819h-81.2670898c-8.7218323,0-15.8179321,6.5800629-15.8179321,14.6677094v47.753067
		c0,8.0876617,7.0960999,14.6677246,15.8179321,14.6677246h81.2670898c8.3971558,0,15.2281494-6.5800629,15.2281494-14.6677246
		v-47.753067C401.4847107,122.4227448,394.653717,115.8426819,386.2565613,115.8426819z"/>
</g>
</svg>
