<?xml version="1.0" encoding="utf-8"?>
<!-- Generator: Adobe Illustrator 22.1.0, SVG Export Plug-In . SVG Version: 6.00 Build 0)  -->
<svg version="1.1" id="Layer_1" xmlns="http://www.w3.org/2000/svg" xmlns:xlink="http://www.w3.org/1999/xlink" x="0px" y="0px"
	 viewBox="0 0 600 657" style="enable-background:new 0 0 600 657;" xml:space="preserve">
<style type="text/css">
	.st0{fill:#AADCD9;}
	.st1{fill:#F3F7DE;}
	.st2{fill:#9ED3D7;}
	.st3{fill:#FFDD9D;}
	.st4{fill:#FFC98F;}
	.st5{fill:#C4E5DC;}
	.st6{fill:#DA1A48;}
	.st7{fill:#CB1749;}
	.st8{fill:#E63B66;}
	.st9{fill:#E22955;}
	.st10{fill:#D83232;}
	.st11{fill:#D81A48;}
	.st12{fill:#EB526F;}
	.st13{fill:none;}
	.st14{fill:#DDEEDB;}
	.st15{fill:#B71547;}
	.st16{fill:#E7EAD0;}
	.st17{fill:#81C6CB;}
</style>
<g>
	<path class="st0" d="M300,613.4303589c-77.4585266,0-143.4861755-57.8564453-153.5862427-134.579834
		c-0.6637573-5.0263672-1.0797729-10.1728516-1.2381592-15.3013611c-0.0605011-1.6452026-0.0898132-3.3074341-0.0898132-5.03302
		c0-9.9743042,0.9554443-19.9367676,2.8398743-29.6099243c1.4958038-7.6715088,3.5891876-15.2824707,6.2215271-22.6197205
		C176.2132874,344.8701477,234.8275757,303.6019287,300,303.6019287c65.7912598,0,124.5828552,41.7717285,146.2958069,103.9435425
		c2.0735168,5.9208374,3.7991028,12.041687,5.1313171,18.2055359c2.3136902,10.7084961,3.4870911,21.7328186,3.4870911,32.7651367
		c0,1.7208557-0.0217285,3.1315918-0.0680847,4.4401855l-0.0094299,0.3167419
		c-0.1900635,6.4182129-0.7857361,12.8704224-1.7719116,19.1817932
		c-4.7087097,30.2377625-18.2305908,58.2015686-39.1048889,80.8770447
		c-20.6170959,22.397522-46.969696,38.1045532-76.2420959,45.453125l-0.6448669,0.1578979
		C324.9948425,611.9203491,312.5215454,613.4303589,300,613.4303589z"/>
	<rect x="233.8292694" y="217.4304962" class="st1" width="132.3235474" height="94.2432098"/>
	<circle class="st1" cx="300" cy="458.5161438" r="198.4838409"/>
	<path class="st2" d="M469.4378357,458.5161438c0,1.6653137-0.0194092,3.3112793-0.0774841,4.9572754v0.0193787
		c-0.2032776,7.0969543-0.8423462,14.0681152-1.9073486,20.9230652c-0.0097046,0.0968018-0.0193787,0.18396-0.0387268,0.2807617
		c-10.4954529,67.3877258-60.8522644,121.7626038-126.1195374,138.1641541h-0.0097046
		c-0.2420349,0.0581055-0.4841003,0.1258545-0.7261353,0.18396h-0.0097046
		c-13.0031128,3.2047729-26.5774841,4.9088745-40.5487976,4.9088745c-85.8999176,0-157.0636292-64.2410278-167.9851074-147.2073059
		c-0.0096893-0.0581055-0.0193939-0.125885-0.0193939-0.18396c-0.7164612-5.4316711-1.1618042-10.9505005-1.3360748-16.5370483
		v-0.0290833c-0.0677795-1.8202515-0.0968628-3.650116-0.0968628-5.480072c0-10.0306702,0.8714294-19.8483887,2.5464172-29.3949585
		c0.18396-0.9972839,0.3679199-1.9945679,0.5615845-2.9917908c1.442627-7.4068604,3.3693542-14.6394043,5.7415009-21.6686401
		c0.3388367-1.0359802,0.6970825-2.0622864,1.0650024-3.0789185
		c23.4985657-65.402832,86.1323242-112.3031006,159.522934-112.3031006c73.9134827,0,136.9151611,47.5586548,160.007019,113.677948
		c0.1839905,0.5228882,0.3679504,1.0553894,0.5422058,1.578186c2.0235901,5.973877,3.7179871,12.0929871,5.0734253,18.3476868
		c0.0968628,0.4454041,0.1936646,0.8810425,0.2808228,1.3264465
		C468.217865,435.1628418,469.4378357,446.7039185,469.4378357,458.5161438z"/>
	<path class="st0" d="M300,613.4303589c-77.4585266,0-143.4861755-57.8564453-153.5862427-134.579834
		c-0.6637573-5.0263672-1.0797729-10.1728516-1.2381592-15.3013611c-0.0605011-1.6452026-0.0898132-3.3074341-0.0898132-5.03302
		c0-9.9743042,0.9554443-19.9367676,2.8398743-29.6099243c1.4958038-7.6715088,3.5891876-15.2824707,6.2215271-22.6197205
		C176.2132874,344.8701477,234.8275757,303.6019287,300,303.6019287c65.7912598,0,124.5828552,41.7717285,146.2958069,103.9435425
		c2.0735168,5.9208374,3.7991028,12.041687,5.1313171,18.2055359c2.3136902,10.7084961,3.4870911,21.7328186,3.4870911,32.7651367
		c0,1.7208557-0.0217285,3.1315918-0.0680847,4.4401855l-0.0094299,0.3167419
		c-0.1900635,6.4182129-0.7857361,12.8704224-1.7719116,19.1817932
		c-4.7087097,30.2377625-18.2305908,58.2015686-39.1048889,80.8770447
		c-20.6170959,22.397522-46.969696,38.1045532-76.2420959,45.453125l-0.6448669,0.1578979
		C324.9948425,611.9203491,312.5215454,613.4303589,300,613.4303589z"/>
	<g>
		<path class="st3" d="M368.3007507,135.0973053l-8.2739563,45.9272919
			c0.0098267,6.0609741-1.9067078,11.5440216-4.9878845,15.4340057c-3.355011,3.5827179-8.1249695,5.8348694-13.3884277,5.8433838
			l-83.9421692,0.1358643c-10.1281586,0.0163879-18.4241486-8.2527924-18.4405365-18.3809967l-8.2777557-50.4031067
			c-1.1589661-7.0568619,1.6936035-14.2995224,7.609024-18.3182373c2.9363403-1.9948425,6.4730377-3.1653442,10.2711639-3.1714859
			l101.3260803-0.1640015c2.6316528-0.0042572,5.1417236,0.5527267,7.4147339,1.5572281
			c4.4387512,1.9616013,7.7218323,5.8234406,9.4046936,10.3751831c0.7322388,1.9805679,1.2386169,4.1330719,1.4746704,6.3979797
			C368.6559448,131.9190063,368.5839233,133.5254059,368.3007507,135.0973053z"/>
		<path class="st4" d="M368.3094482,135.0489807l-8.2826538,45.9756165
			c0.0098267,6.0609741-1.9067078,11.5440216-4.9878845,15.4340057c-3.013855,3.2175903-7.1573792,5.3547516-11.7822266,5.7610321
			c-0.5239868,0.0578003-1.0593872,0.0814667-1.6062012,0.0823517l-22.6033325,0.0365906
			c8.7724609-0.0142059,15.9344177-9.5957947,15.9154968-21.273407l8.6145935-47.8181915
			c-0.0188904-11.6776123-7.2118225-21.2245712-15.9842834-21.2103729l22.6033325-0.0365829
			c2.6316528-0.0042572,5.1417236,0.5527267,7.4147339,1.5572433c4.4389343,1.9616928,7.7221069,5.8237839,9.4049072,10.3757477
			c0.7999878,2.1639328,1.3303223,4.5330963,1.5330505,7.0298462
			C368.6598206,132.3276367,368.5522156,133.7013855,368.3094482,135.0489807z"/>
		<circle class="st4" cx="283.1695862" cy="168.2453918" r="12.1242018"/>
		<circle class="st4" cx="283.4266357" cy="127.8574753" r="6.7848334"/>
		<circle class="st4" cx="257.0233765" cy="141.4779663" r="13.2746735"/>
		<circle class="st4" cx="324.3407288" cy="141.4779663" r="8.9776421"/>
	</g>
	<circle class="st5" cx="300.0100708" cy="458.4040222" r="101.631012"/>
	<path class="st6" d="M469.4378357,458.5161438c0,1.6653137-0.0194092,3.3112793-0.0774841,4.9572754v0.0193787
		c-0.2032776,7.0969543-0.8423462,14.0681152-1.9073486,20.9230652c-0.0097046,0.0968018-0.0193787,0.18396-0.0387268,0.2807617
		c-10.4954529,67.3877258-60.8522644,121.7626038-126.1195374,138.1641541h-0.0097046
		c-0.2420349,0.0581055-0.4841003,0.1258545-0.7261353,0.18396h-0.0097046
		c-13.0031128,3.2047729-26.5774841,4.9088745-40.5487976,4.9088745c-85.8999176,0-157.0636292-64.2410278-167.9851074-147.2073059
		c-0.0096893-0.0581055-0.0193939-0.125885-0.0193939-0.18396c-0.7164612-5.4316711-1.1618042-10.9505005-1.3360748-16.5370483
		c146.7908936-0.629364,158.9129028-73.1292419,263.4703674-73.3034973
		c30.8569641-0.0484009,51.4508362,5.5285339,66.4194336,13.6130676c2.0235901,5.973877,3.7179871,12.0929871,5.0734253,18.3476868
		c0.0968628,0.4454041,0.1936646,0.8810425,0.2808228,1.3264465
		C468.217865,435.1628418,469.4378357,446.7039185,469.4378357,458.5161438z"/>
	<path class="st7" d="M469.4378357,458.5161438c0,1.6653137-0.0194092,3.3112793-0.0774841,4.9572754v0.0193787
		c-0.2032776,7.0969543-0.8423462,14.0681152-1.9073486,20.9230652c-0.0097046,0.0968018-0.0193787,0.18396-0.0387268,0.2807617
		c-10.4954529,67.3877258-60.8522644,121.7626038-126.1195374,138.1641541
		c-0.2420654,0.0581055-0.4938049,0.1258545-0.7358398,0.18396h-0.0097046
		c-13.0031128,3.2047729-26.5774841,4.9088745-40.5487976,4.9088745c-85.8999176,0-157.0636292-64.2410278-167.9851074-147.2073059
		c-0.0096893-0.0581055-0.0193939-0.125885-0.0193939-0.18396c84.8639832-0.6099243,124.4736481-25.3865356,163.3957977-45.9610901
		c27.8264465-14.6974792,55.3140564-27.255249,98.7674866-27.3326721
		c34.6911316-0.058075,56.4178467,7.0098877,71.7446899,16.7404175
		C468.217865,435.1628418,469.4378357,446.7039185,469.4378357,458.5161438z"/>
	<path class="st8" d="M469.3603516,463.4927979c-0.2032776,7.0969543-0.8423462,14.0681152-1.9073486,20.9230652
		c-0.0097046,0.0968018-0.0193787,0.18396-0.0387268,0.2807617
		c-10.4954529,67.3877258-60.8522644,121.7626038-126.1195374,138.1641541
		c-0.2420654,0.0581055-0.4938049,0.1258545-0.7358398,0.18396h-0.0097046
		c-13.0031128,3.2047729-26.5774841,4.9088745-40.5487976,4.9088745c-85.8999176,0-157.0636292-64.2410278-167.9851074-147.2073059
		c-0.7261658-5.4994507-1.1811981-11.0859985-1.3554688-16.7500916c-0.0677795-1.8202515-0.0968628-3.650116-0.0968628-5.480072
		c0-10.0306702,0.8714294-19.8483887,2.5464172-29.3949585c0.18396-0.9972839,0.3679199-1.9945679,0.5615845-2.9917908
		c1.442627-7.4068604,3.3693542-14.6394043,5.7415009-21.6686401c8.3847046-4.4634399,18.5219269-8.1426392,31.2055054-10.5050964
		c0.0193787,0,0.0580902-0.0193787,0.0774689-0.0193787c9.8080139-1.8299561,21.1361389-2.8852539,34.3425293-2.9046326
		C309.7406311,390.8670654,321.9885559,463.5314941,469.3603516,463.4927979z"/>
	<path class="st9" d="M467.4530029,484.415863c-0.0097046,0.0968018-0.0193787,0.18396-0.0387268,0.2807617
		c-10.4954529,67.3877258-60.8522644,121.7626038-126.1195374,138.1641541
		c-0.2420654,0.0581055-0.4938049,0.1258545-0.7358398,0.18396h-0.0097046
		c-13.0031128,3.2047729-26.5774841,4.9088745-40.5487976,4.9088745c-85.8999176,0-157.0636292-64.2410278-167.9851074-147.2073059
		c-0.7261658-5.4994507-1.1811981-11.0859985-1.3554688-16.7500916c-0.0677795-1.8202515-0.0968628-3.650116-0.0968628-5.480072
		c0-10.0306702,0.8714294-19.8483887,2.5464172-29.3949585c15.3074493-9.8757935,37.0632477-17.0889893,71.9576569-17.1470947
		C309.3146057,411.7998352,321.9013977,483.8348999,467.4530029,484.415863z"/>
	<circle class="st10" cx="285.6981812" cy="485.0387573" r="12.4153929"/>
	<circle class="st11" cx="211.7326965" cy="487.7778015" r="34.4409943"/>
	<circle class="st11" cx="262.2910767" cy="549.7148438" r="21.724062"/>
	<path class="st8" d="M401.6434631,458.5161438c0,6.612854-0.629303,13.0708923-1.8395691,19.325531
		c-9.0237427,46.9099731-50.289032,82.3369141-99.822876,82.3369141c-6.0900574,0-12.0445251-0.5324707-17.8441772-1.5587769
		c-14.7071838-2.6044922-28.329895-8.375061-40.1227875-16.5758667
		c-8.3460083-5.7996216-15.7818756-12.8288574-22.0558777-20.8069458
		c-10.5728912-13.4775085-17.8151703-29.6950989-20.4970856-47.4133911
		c-0.7552338-4.9863281-1.1425323-10.0984497-1.1425323-15.3074646c0-0.3388977,0-0.6777649,0.0096893-1.006958
		c5.8383484-1.2102661,11.3862-2.5560608,16.6823578-4.0180664c25.6673126-7.0873413,45.5157013-16.8856506,63.9117584-26.625885
		c7.0486145-3.7372742,13.8745117-7.4649353,20.7294922-11.0279541
		c22.4335022-11.647583,45.1768188-21.5717773,76.7696533-24.3409119
		c4.3085632,4.8991394,8.1427002,10.2146301,11.4346008,15.8787231
		c8.5784302,14.6974792,13.5646973,31.7283936,13.7777405,49.9211121
		C401.6434631,457.7028198,401.6434631,458.1094666,401.6434631,458.5161438z"/>
	<path class="st9" d="M401.6434631,458.5161438c0,6.612854-0.629303,13.0708923-1.8395691,19.325531
		c-9.0237427,46.9099731-50.289032,82.3369141-99.822876,82.3369141c-6.0900574,0-12.0445251-0.5324707-17.8441772-1.5587769
		c-14.7071838-2.6044922-28.329895-8.375061-40.1227875-16.5758667
		c-8.3460083-5.7996216-15.7818756-12.8288574-22.0558777-20.8069458
		c-10.5728912-13.4775085-17.8151703-29.6950989-20.4970856-47.4133911
		c13.5550079-2.8659363,25.5608215-6.48703,36.511322-10.5632324c22.9853821-8.5396729,41.294342-19.0641479,59.4580383-28.6591187
		c6.7678223-3.5727234,13.5162354-7.0292358,20.4873962-10.1953125
		c20.2453613-9.2270508,42.301239-16.1207275,71.9382629-17.0308533
		c8.5784302,14.6974792,13.5646973,31.7283936,13.7777405,49.9211121
		C401.6434631,457.7028198,401.6434631,458.1094666,401.6434631,458.5161438z"/>
	<path class="st12" d="M401.6434631,458.5161438c0,6.612854-0.629303,13.0708923-1.8395691,19.325531
		c-9.0237427,46.9099731-50.289032,82.3369141-99.822876,82.3369141c-6.0900574,0-12.0445251-0.5324707-17.8441772-1.5587769
		c-14.7071838-2.6044922-28.329895-8.375061-40.1227875-16.5758667
		c-8.3460083-5.7996216-15.7818756-12.8288574-22.0558777-20.8069458
		c-10.5728912-13.4775085-17.8151703-29.6950989-20.4970856-47.4133911
		c-0.7552338-4.9863281-1.1425323-10.0984497-1.1425323-15.3074646c0-0.3388977,0-0.6777649,0.0096893-1.006958
		c0-0.4841309,0.0096893-0.9682312,0.0193787-1.442627c0.3776245-15.8496704,4.3763428-30.7988892,11.2119293-44.0537415
		c3.7566833-7.3003235,8.3750153-14.0874939,13.719574-20.2260132
		c31.3604736,2.7207336,54.0166473,12.5190735,76.3727264,24.0504761
		c5.4026489,2.7787476,10.7859192,5.6543884,16.2659912,8.5686646
		c23.5760193,12.5093689,49.0109558,25.4833984,85.7160034,32.8902588
		C401.6434631,457.7028198,401.6434631,458.1094666,401.6434631,458.5161438z"/>
	<path class="st8" d="M399.803894,477.8416748c-9.0237427,46.9099731-50.289032,82.3369141-99.822876,82.3369141
		c-6.0900574,0-12.0445251-0.5324707-17.8441772-1.5587769c-14.7071838-2.6044922-28.329895-8.375061-40.1227875-16.5758667
		c-8.3460083-5.7996216-15.7818756-12.8288574-22.0558777-20.8069458
		c-10.5728912-13.4775085-17.8151703-29.6950989-20.4970856-47.4133911
		c-0.7552338-4.9863281-1.1425323-10.0984497-1.1425323-15.3074646c0-0.3388977,0-0.6777649,0.0096893-1.006958
		c0-0.4841309,0.0096893-0.9682312,0.0193787-1.442627c0.3776245-15.8496704,4.3763428-30.7988892,11.2119293-44.0537415
		c28.3880463,0.5228577,49.8727264,6.5161133,69.3628082,14.852417c5.6350098,2.4108582,11.0957336,5.0153503,16.5080872,7.7360229
		C325.1836548,449.5698547,353.4458008,468.1595154,399.803894,477.8416748z"/>
	<circle class="st9" cx="285.7385254" cy="485.0387573" r="12.4153929"/>
	<path class="st9" d="M243.9117737,500.149353c-4.2117157,10.9407959-13.380722,18.4928589-23.953598,21.0876465
		c-10.5728912-13.4775085-17.8151703-29.6950989-20.4970856-47.4133911
		c-0.7552338-4.9863281-1.1425323-10.0984497-1.1425323-15.3074646c0-0.3388977,0-0.6777649,0.0096893-1.006958
		c0-0.4841309,0.0096893-0.9682312,0.0193787-1.442627c5.1799164-2.1978149,10.9020996-3.1273193,16.6629791-2.5754395
		c3.0595398,0.2807617,6.138443,0.9875488,9.1399536,2.1494141c4.569931,1.7524719,8.5492859,4.3860168,11.8218536,7.6198425
		C245.4124908,472.584259,248.985199,486.9719849,243.9117737,500.149353z"/>
	<path class="st9" d="M282.6016235,557.5160522c-0.1452637,0.3775635-0.3001404,0.7454834-0.4647827,1.1037598
		c-14.7071838-2.6044922-28.329895-8.375061-40.1227875-16.5758667c0.0096893-0.0484009,0.029068-0.0870972,0.0484619-0.135498
		c4.3085022-11.1925659,16.8759613-16.7791748,28.0782013-12.4706421
		C281.333252,533.7560425,286.9197998,546.3234863,282.6016235,557.5160522z"/>
	<path class="st13" d="M300,288.5946045"/>
	<rect x="262.8728027" y="217.4304962" class="st2" width="74.2279663" height="81.6542664"/>
	<path class="st1" d="M391.9904175,180.3192444v29.2013092c0,6.2159729-5.0831299,11.2990875-11.2990417,11.2990875H221.2652283
		c-6.2159119,0-11.2990265-5.0831146-11.2990265-11.2990875v-29.2013092c0-6.2159119,5.0831146-11.2990417,11.2990265-11.2990417
		h159.4261475C386.9072876,169.0202026,391.9904175,174.1033325,391.9904175,180.3192444z"/>
	<path class="st14" d="M391.9904175,180.3192444v29.2013092c0,6.2159729-5.0831299,11.2990875-11.2990417,11.2990875h-70.0212402
		c-6.2159119,0-11.3087463-5.0831146-11.3087463-11.2990875v-29.2013092c0-6.2159119,5.0928345-11.2990417,11.3087463-11.2990417
		h70.0212402C386.9072876,169.0202026,391.9904175,174.1033325,391.9904175,180.3192444z"/>
	<line class="st13" x1="300.4942017" y1="270.1985474" x2="300.4942017" y2="478.8486328"/>
	<polyline class="st13" points="454.9920959,458.8356628 401.1497192,458.8356628 300.0100708,458.8356628 198.8123779,458.8356628 
			"/>
	<g>
		<path class="st7" d="M469.4364014,458.5065613c0,1.6653442-0.0193787,3.3113098-0.0775452,4.9572449v0.0193787
			c-0.2032776,7.0970154-0.8422241,14.0681763-1.9073486,20.9230957c-0.0097046,0.0968323-0.0193787,0.18396-0.0385437,0.2808228
			c-10.4955139,67.3876648-60.8523254,121.7625427-126.1197815,138.164032
			c-0.2420349,0.0581055-0.4935608,0.1259155-0.7355957,0.18396h-0.0099487
			c-13.0030212,3.204834-26.5774231,4.9088745-40.5486755,4.9088745c-85.8999023,0-157.0636292-64.2409668-167.9851074-147.2072144
			c-0.0096893-0.058075-0.0193787-0.1258545-0.0193787-0.18396c-0.1742096-1.3167419-0.3290405-2.6335754-0.4744263-3.960022
			c0-0.0386963-0.0096893-0.0774231-0.0096893-0.125885c-0.1257477-1.1908569-0.2420502-2.3817444-0.3389587-3.5726318
			c-0.2515106-2.9337158-0.416275-5.8964539-0.5129547-8.8785706c4.9958954-0.0193176,9.8272858-0.125885,14.5232086-0.309845
			c0.1645203,5.0638123,0.5807953,10.1662598,1.22966,15.1332092c0.0579071,0.4550781,0.1257477,0.9101257,0.1838989,1.3554993
			c10.6988068,76.0434875,76.4016724,133.2262268,153.4037476,133.2262268c12.5189514,0,24.9993591-1.510437,37.072937-4.4924927
			l0.6486511-0.1549072c29.2690735-7.3487549,55.624054-23.0532227,76.2371521-45.447998
			c20.4972229-22.2592163,33.9068604-49.6306152,38.835144-79.2385864c0.0969238-0.5421753,0.1838989-1.0940857,0.2711487-1.6459656
			c0.9875793-6.3127747,1.578064-12.7610474,1.7716675-19.1803284v-0.0193787l0.0096741-0.3001404
			c0.0484619-1.3070679,0.0678406-2.710968,0.0678406-4.4344177c0-11.0376282-1.1714783-22.0559082-3.4856567-32.7643433
			c-0.7356262-3.4178162-1.5974731-6.8162537-2.5753784-10.1759338c-0.7745972-2.7109985-1.6265259-5.3929443-2.5559692-8.0361633
			c-1.2781067-3.6598816-2.6916504-7.2615967-4.2312012-10.7762146c7.0292358,2.1009827,13.1193542,4.6764221,18.4832764,7.5714417
			c2.0236511,5.9738464,3.7180481,12.0929565,5.0734253,18.3475952c0.0969238,0.4454041,0.1936035,0.8811035,0.2808228,1.3265076
			C468.2164307,435.1532288,469.4364014,446.6943359,469.4364014,458.5065613z"/>
		<path class="st15" d="M469.4364014,458.5065613c0,1.6653442-0.0193787,3.3113098-0.0775452,4.9572449v0.0193787
			c-0.2032776,7.0970154-0.8422241,14.0681763-1.9073486,20.9230957c-0.0097046,0.0968323-0.0193787,0.18396-0.0385437,0.2808228
			c-10.4955139,67.3876648-60.8523254,121.7625427-126.1197815,138.164032
			c-0.2420349,0.0581055-0.4935608,0.1259155-0.7355957,0.18396h-0.0099487
			c-13.0030212,3.204834-26.5774231,4.9088745-40.5486755,4.9088745c-85.8999023,0-157.0636292-64.2409668-167.9851074-147.2072144
			c-0.0096893-0.058075-0.0193787-0.1258545-0.0193787-0.18396c5.0249634-0.0386963,9.8854218-0.1548767,14.6007385-0.3582458
			c10.6988068,76.0434875,76.4016724,133.2262268,153.4037476,133.2262268c12.5189514,0,24.9993591-1.510437,37.072937-4.4924927
			l0.6486511-0.1549072c29.2690735-7.3487549,55.624054-23.0532227,76.2371521-45.447998
			c20.4972229-22.2592163,33.9068604-49.6306152,38.835144-79.2385864c0.0969238-0.5421753,0.1838989-1.0940857,0.2711487-1.6459656
			c0.9875793-6.3127747,1.578064-12.7610474,1.7716675-19.1803284v-0.0193787l0.0096741-0.3001404
			c0.0484619-1.3070679,0.0678406-2.710968,0.0678406-4.4344177c0-11.0376282-1.1714783-22.0559082-3.4856567-32.7643433
			c-0.7356262-3.4178162-1.5974731-6.8162537-2.5753784-10.1759338c6.4967041,2.4302368,12.1026917,5.2961121,17.050354,8.4331665
			C468.2164307,435.1532288,469.4364014,446.6943359,469.4364014,458.5065613z"/>
		<path class="st9" d="M469.3588562,463.4831848c-0.2032776,7.0970154-0.8422241,14.0681763-1.9073486,20.9230957
			c-0.0097046,0.0968323-0.0193787,0.18396-0.0385437,0.2808228
			c-10.4955139,67.3876648-60.8523254,121.7625427-126.1197815,138.164032
			c-0.2420349,0.0581055-0.4935608,0.1259155-0.7355957,0.18396h-0.0099487
			c-13.0030212,3.204834-26.5774231,4.9088745-40.5486755,4.9088745c-85.8999023,0-157.0636292-64.2409668-167.9851074-147.2072144
			c-0.0096893-0.058075-0.0193787-0.1258545-0.0193787-0.18396c-0.1742096-1.3167419-0.3290405-2.6335754-0.4744263-3.960022
			c0-0.0386963-0.0096893-0.0774231-0.0096893-0.125885c-0.1257477-1.1908569-0.2420502-2.3817444-0.3389587-3.5726318
			c-0.2515106-2.9337158-0.416275-5.8964539-0.5129547-8.8785706v-0.0290222
			c-0.0678406-1.8202515-0.0969086-3.650177-0.0969086-5.4801025c0-10.0307007,0.8712921-19.8483887,2.5462799-29.3949585
			c0.1841431-0.9972534,0.368042-1.9945374,0.5616455-2.9918213c1.442627-7.4067993,3.3693695-14.6394043,5.741684-21.6685791
			c5.3540039-2.8465576,11.4247284-5.3832703,18.4154358-7.4455566c-1.3265686,3.0305176-2.546524,6.1190491-3.6792603,9.2657471
			c-1.6943665,4.715271-3.1563873,9.5369568-4.3860321,14.4264221c-0.6873932,2.7206726-1.3071899,5.4510498-1.8397522,8.2008057
			c-1.8782806,9.6724243-2.836792,19.6353455-2.836792,29.6079407c0,1.7234497,0.029068,3.3887329,0.0872192,5.0346985
			c0,0.0581055,0,0.1065063,0.0096893,0.1645813c0.1645203,5.0638123,0.5807953,10.1662598,1.22966,15.1332092
			c0.0579071,0.4550781,0.1257477,0.9101257,0.1838989,1.3554993
			c10.6988068,76.0434875,76.4016724,133.2262268,153.4037476,133.2262268c12.5189514,0,24.9993591-1.510437,37.072937-4.4924927
			l0.6486511-0.1549072c29.2690735-7.3487549,55.624054-23.0532227,76.2371521-45.447998
			c20.4972229-22.2592163,33.9068604-49.6306152,38.835144-79.2385864c0.0969238-0.5421753,0.1838989-1.0940857,0.2711487-1.6459656
			c0.9875793-6.3127747,1.578064-12.7610474,1.7716675-19.1803284v-0.0193787
			C459.5218811,463.4057007,464.3629761,463.4831848,469.3588562,463.4831848z"/>
		<path class="st11" d="M467.4515076,484.4062805c-0.0097046,0.0968323-0.0193787,0.18396-0.0385437,0.2808228
			c-10.4955139,67.3876648-60.8523254,121.7625427-126.1197815,138.164032
			c-0.2420349,0.0581055-0.4935608,0.1259155-0.7355957,0.18396h-0.0099487
			c-13.0030212,3.204834-26.5774231,4.9088745-40.5486755,4.9088745c-85.8999023,0-157.0636292-64.2409668-167.9851074-147.2072144
			c-0.0096893-0.058075-0.0193787-0.1258545-0.0193787-0.18396c-0.1742096-1.3167419-0.3290405-2.6335754-0.4744263-3.960022
			c0-0.0386963-0.0096893-0.0774231-0.0096893-0.125885c-0.1257477-1.1908569-0.2420502-2.3817444-0.3389587-3.5726318
			c-0.2515106-2.9337158-0.416275-5.8964539-0.5129547-8.8785706v-0.0290222
			c-0.0678406-1.8202515-0.0969086-3.650177-0.0969086-5.4801025c0-10.0307007,0.8712921-19.8483887,2.5462799-29.3949585
			c4.8410797-3.1176453,10.3213196-5.973877,16.6534729-8.4137878c-0.6873932,2.7206726-1.3071899,5.4510498-1.8397522,8.2008057
			c-1.8782806,9.6724243-2.836792,19.6353455-2.836792,29.6079407c0,1.7234497,0.029068,3.3887329,0.0872192,5.0346985
			c0,0.0581055,0,0.1065063,0.0096893,0.1645813c0.1645203,5.0638123,0.5807953,10.1662598,1.22966,15.1332092
			c0.0579071,0.4550781,0.1257477,0.9101257,0.1838989,1.3554993
			c10.6988068,76.0434875,76.4016724,133.2262268,153.4037476,133.2262268c12.5189514,0,24.9993591-1.510437,37.072937-4.4924927
			l0.6486511-0.1549072c29.2690735-7.3487549,55.624054-23.0532227,76.2371521-45.447998
			c20.4972229-22.2592163,33.9068604-49.6306152,38.835144-79.2385864
			C457.5273132,484.2803955,462.4071655,484.3869324,467.4515076,484.4062805z"/>
	</g>
	<rect x="233.8292694" y="220.8171692" class="st16" width="132.3235474" height="26.7102165"/>
	<rect x="262.8728027" y="220.8077698" class="st17" width="74.2279663" height="26.7102165"/>
	<path class="st2" d="M274.0686951,287.0964966v17.2554321h-17.5252075v-9.1502991
		c0-0.2879639,0.2016907-0.5275269,0.4805908-0.5991516c3.3407898-0.8580322,5.84729-3.8902893,5.84729-7.5059814H274.0686951z"/>
	<path class="st2" d="M325.9028625,287.0964966v17.2554321h17.5252075v-9.1502991
		c0-0.2879639-0.2016907-0.5275269-0.4805908-0.5991516c-3.3407898-0.8580322-5.8473206-3.8902893-5.8473206-7.5059814H325.9028625z
		"/>
</g>
</svg>
