<?xml version="1.0" encoding="utf-8"?>
<!-- Generator: Adobe Illustrator 22.1.0, SVG Export Plug-In . SVG Version: 6.00 Build 0)  -->
<svg version="1.1" id="Layer_1" xmlns="http://www.w3.org/2000/svg" xmlns:xlink="http://www.w3.org/1999/xlink" x="0px" y="0px"
	 viewBox="0 0 963 865" style="enable-background:new 0 0 963 865;" xml:space="preserve">
<style type="text/css">
	.st0{fill:#F9E4AF;}
	.st1{fill:#FFF4D4;}
</style>
<g>
	<path class="st0" d="M746.1298828,849.7302246c-7.7021484,0-14.9433594-3-20.3896484-8.4462891L721.5,837.0437012
		l-4.2402344,4.2402344c-5.4462891,5.4462891-12.6875,8.4462891-20.3896484,8.4462891H409.0878906
		c-8.3193359,0-16.1416016-3.2402344-22.0244141-9.1230469L375.5,829.0437012l-11.5634766,11.5634766
		c-5.8828125,5.8828125-13.7050781,9.1230469-22.0244141,9.1230469H86.8701172
		C60.1992188,849.7302246,38.5,828.0319824,38.5,801.3601074V596.7370605c0-6.4638672,2.4277344-12.5546875,6.8525391-17.2304688
		l-0.375-0.3740234C40.8007813,574.954834,38.5,569.4030762,38.5,563.4997559s2.3007813-11.4550781,6.4775391-15.6328125
		l13.3691406-13.3671875l-12.4960938-12.4951172C41.1083984,517.2575684,38.5,510.9577637,38.5,504.2595215V168.7399902
		c0-8.078125,3.1455078-15.671875,8.8574219-21.3823242l10.8583984-10.8579102l-10.8574219-10.8579102
		C41.6455078,119.9299316,38.5,112.3352051,38.5,104.2570801V62.9196777c0-6.9033203,2.6884766-13.3935547,7.5693359-18.2744141
		l21.8076172-21.8076172c4.8876953-4.8823242,11.3740234-7.5678711,18.2714844-7.5678711h116.5185547
		c7.2246094,0,14.0146484,2.8139648,19.1201172,7.9233398L240,41.4055176l18.21875-18.2177734
		c5.0996094-5.1040039,11.8896484-7.9179688,19.1142578-7.9179688h413.0273438c7.21875,0,14.0058594,2.8120117,19.1123047,7.9179688
		L714,27.7116699l4.5341797-4.5302734c5.0996094-5.0996094,11.8867188-7.9116211,19.1054688-7.9116211h138.4902344
		c26.6708984,0,48.3701172,21.6943359,48.3701172,48.3598633v90.2802734c0,7.0107422-2.7294922,13.6025391-7.6865234,18.5605469
		l-17.5585938,17.5595703L916.8125,207.5876465c4.9570313,4.9575195,7.6875,11.5493164,7.6875,18.5605469v218.7617188
		c0,7.0087891-2.7285156,13.5996094-7.6835938,18.5576172l-5.5615234,5.5615234l5.5566406,5.5566406
		C921.7714844,479.5505371,924.5,486.1413574,924.5,493.1501465v190.7597656c0,7.0087891-2.7285156,13.5996094-7.6835938,18.5576172
		l-17.5615234,17.5625l17.5566406,17.5556641C921.7714844,742.5505371,924.5,749.1413574,924.5,756.1501465v45.2099609
		c0,26.671875-21.6992188,48.3701172-48.3701172,48.3701172H746.1298828z"/>
	<path class="st1" d="M875.4000244,185.5997314c-2.4465942,2.4466248-2.4465942,6.4133606,0,8.8599854l27.2698975,27.2700195
		C903.8416748,222.9015198,904.5,224.490799,904.5,226.1479492V444.909729c0,1.6582947-0.6587524,3.2486267-1.8312988,4.4212341
		l-15.2686768,15.2687683c-2.4465942,2.4466248-2.4465942,6.4133606,0,8.8599854l15.2686768,15.2687683
		c1.1725464,1.1726074,1.8312988,2.7629395,1.8312988,4.4212341V683.909729c0,1.6582642-0.6587524,3.2486572-1.8312988,4.4212646
		l-27.2686768,27.2687378c-2.4465942,2.4465942-2.4465942,6.4133911,0,8.8599854l27.2686768,27.2687378
		C903.8412476,752.901062,904.5,754.4914551,904.5,756.1497192v45.210022c0,15.668335-12.7016602,28.3699951-28.3699951,28.3699951
		h-130c-2.3435059,0-4.5910034-0.9309692-6.2480469-2.5880127l-14.5119629-14.5119629
		c-2.1373291-2.1373291-5.6026611-2.1373291-7.7399902,0l-14.5119629,14.5119629
		c-1.6570435,1.6570435-3.904541,2.5880127-6.2480469,2.5880127H409.087738c-2.9566956,0-5.7923279-1.1745605-7.8830261-3.2652588
		l-21.0013733-21.0014038c-2.5975952-2.5975342-6.809082-2.5975342-9.4066772,0l-21.0013733,21.0014038
		c-2.0906982,2.0906982-4.9263306,3.2652588-7.8830261,3.2652588H86.8699951
		C71.201683,829.7297363,58.5,817.0280762,58.5,801.3597412V596.7369385c0-1.3491821,0.535965-2.6431274,1.4899902-3.597168
		l9.9899902-9.9900513c2.015831-2.0158691,2.0158234-5.2841797-0.0000076-7.2999878l-10.8599777-10.8599854
		C58.7199707,564.5897217,58.5,564.0597534,58.5,563.4997559s0.2199707-1.0900269,0.6199951-1.4899902l23.859993-23.8600464
		c2.015831-2.0158691,2.0158234-5.2841797-0.0000076-7.2999878l-22.9879951-22.9880066
		C59.0366821,506.9064331,58.5,505.6107788,58.5,504.2597656V168.7397461c0-2.7148285,1.0784607-5.3184509,2.9981346-7.2381287
		l21.5719337-21.5718689c1.8864975-1.8864899,1.8864975-4.9734955,0-6.8599854L61.5,111.4997559
		c-1.9208679-1.9208603-3-4.5261154-3-7.24263V62.9197388c0-1.5494881,0.6155319-3.0355148,1.7111855-4.1311684
		l21.8088341-21.8088341c1.0949097-1.0949097,2.5799255-1.710022,4.1283569-1.710022H202.666748
		c1.8653259,0,3.6542664,0.7410049,4.9732666,2.0599976l25.2600098,25.2600098
		c3.9212036,3.9212112,10.2787476,3.9212112,14.1999512,0l25.2600098-25.2600098
		c1.3190002-1.3189926,3.1079407-2.0599976,4.9732666-2.0599976h413.0267334c1.8599854,0,3.6500244,0.7400513,4.9700928,2.0599976
		l11.579834,11.5700073c3.9101563,3.9200439,10.2700195,3.9200439,14.1801758,0l11.579834-11.5700073
		c1.3200684-1.3199463,3.1101074-2.0599976,4.9700928-2.0599976h138.4899902
		c15.6700439,0,28.3699951,12.7000122,28.3699951,28.3600464v90.2799683c0,1.6582794-0.6587524,3.248642-1.8312988,4.4212341
		L875.4000244,185.5997314z"/>
</g>
</svg>
