<?xml version="1.0" encoding="utf-8"?>
<!-- Generator: Adobe Illustrator 22.1.0, SVG Export Plug-In . SVG Version: 6.00 Build 0)  -->
<svg version="1.1" id="Layer_1" xmlns="http://www.w3.org/2000/svg" xmlns:xlink="http://www.w3.org/1999/xlink" x="0px" y="0px"
	 viewBox="0 0 1147 66.0807571" style="enable-background:new 0 0 1147 66.0807571;" xml:space="preserve">
<style type="text/css">
	.st0{fill:#FCCC42;}
	.st1{fill:#FEE7C0;}
</style>
<g>
	<path class="st0" d="M904.460144,18.8143654h193.8567505c5.5617676,0,10.0705566,4.508707,10.0705566,10.0704803v8.8116722
		c0,5.5617752-4.5087891,10.0704803-10.0705566,10.0704803H904.460144c-5.5617676,0-10.0704956-4.5087051-10.0704956-10.0704803
		v-8.8116722C894.3896484,23.3230724,898.8983765,18.8143654,904.460144,18.8143654z"/>
	<circle class="st0" cx="1102.3533936" cy="33.2906837" r="28.3232307"/>
	<path class="st0" d="M242.5398407,47.7669983H48.6830673c-5.5617752,0-10.0704842-4.5087051-10.0704842-10.0704803v-8.8116722
		c0-5.5617733,4.508709-10.0704803,10.0704842-10.0704803h193.856781c5.5617676,0,10.0704803,4.508707,10.0704803,10.0704803
		v8.8116722C252.610321,43.2582932,248.1016083,47.7669983,242.5398407,47.7669983z"/>
	<path class="st1" d="M1030.5550537,66.0804977H116.444931c-18.1720505,0-33.0400848-14.8680382-33.0400848-33.0400848v-0.0000687
		c0-18.1720486,14.8680344-33.0400887,33.0400848-33.0400887l914.1101074,0
		c18.1721191,0,33.0401611,14.8680401,33.0401611,33.0400887v0.0000687
		C1063.5952148,51.2124596,1048.7271729,66.0804977,1030.5550537,66.0804977z"/>
	<circle class="st0" cx="44.6466103" cy="33.2906837" r="28.3232307"/>
</g>
</svg>
