<?xml version="1.0" encoding="utf-8"?>
<!-- Generator: Adobe Illustrator 22.1.0, SVG Export Plug-In . SVG Version: 6.00 Build 0)  -->
<svg version="1.1" id="Layer_1" xmlns="http://www.w3.org/2000/svg" xmlns:xlink="http://www.w3.org/1999/xlink" x="0px" y="0px"
	 viewBox="0 0 1920 1080" style="enable-background:new 0 0 1920 1080;" xml:space="preserve">
<style type="text/css">
	.st0{fill:#381818;}
	.st1{fill:#492020;}
	.st2{fill:#F1F5D7;}
	.st3{fill:#D6EBD4;}
	.st4{fill:#B8E0D5;}
	.st5{fill:#F3F7DE;}
	.st6{fill:#DDEEDB;}
	.st7{fill:#C4E5DC;}
	.st8{fill:#AADCD9;}
	.st9{fill:#9ED3D7;}
	.st10{fill:#FFB957;}
	.st11{fill:#F7914F;}
	.st12{fill:#FFD889;}
	.st13{fill:#F26F51;}
	.st14{fill:#FEC763;}
	.st15{opacity:0.3;fill:#FFFFFF;enable-background:new    ;}
	.st16{fill:#F99D5C;}
	.st17{opacity:0.4;fill:#464151;enable-background:new    ;}
	.st18{opacity:0.2;fill:#FFFFFF;enable-background:new    ;}
	.st19{fill:#2D2D2D;}
	.st20{fill:#1E1E1E;}
	.st21{fill:#373737;}
	.st22{fill:#141414;}
	.st23{opacity:0.15;fill:#FFFFFF;enable-background:new    ;}
	.st24{opacity:0.81;fill:#F3F7DE;enable-background:new    ;}
	.st25{opacity:0.81;fill:#AADCD9;enable-background:new    ;}
	.st26{fill:#FFDC00;}
	.st27{fill:#FFBE00;}
	.st28{fill:#FFF000;}
	.st29{fill:#EDA80F;}
	.st30{opacity:0.4;fill:#FFFFFF;enable-background:new    ;}
</style>
<g>
	<g>
		<rect x="733.7999878" y="460.7000122" class="st0" width="456.000061" height="619.2999878"/>
		<path class="st1" d="M1191,411.7000122c-3.9000244,0-7.4000244,1.6000061-10,4.1000061s-4.0999756,6.1000061-4.0999756,10
			v22.1000061H743.0999756v-22.1000061c0-7.7999878-6.2999878-14.1000061-14.0999756-14.1000061
			c-3.9000244,0-7.4000244,1.6000061-10,4.1000061c-2.5,2.5-4.0999756,6.1000061-4.0999756,10V1080h28.2000122V887.9000244
			h433.7999878V1080h28.1999512V425.7999878C1205.0999756,418,1198.8000488,411.7000122,1191,411.7000122z M1176.9000244,476
			v176.7999878H743.0999756V476H1176.9000244z M743.0999756,859.7000122V681h433.7999268v178.7000122H743.0999756z"/>
	</g>
	<g>
		<g>
			<polygon class="st2" points="840.2999878,569.0999756 823.2999878,569.0999756 809.0999756,569.2000122 809.0999756,564.5999756 
				840.2999878,564.5 840.2999878,564.5 			"/>
			<path class="st3" d="M840.2000122,569.0999756h-15C824.5,569.0999756,824,568.3999634,824,567.5V566
				c0-0.9000244,0.5-1.5999756,1.2000122-1.5999756h15c0.7000122,0,1.2000122,0.7000122,1.2000122,1.5999756v1.5
				C841.4000244,568.4000244,840.9000244,569.0999756,840.2000122,569.0999756z"/>
			<path class="st4" d="M846.7999878,569.0999756h-12.0999756c-0.7000122,0-1.2000122-0.7000122-1.2000122-1.5v-1.5
				c0-0.9000244,0.5-1.5999756,1.2000122-1.5999756h12.0999756c0,0.2000122,0,1.2999878,0,1.5V569.0999756z"/>
			<path class="st5" d="M863.5999756,652.9000244h-71.5c-4.5999756,0-8.2000122-4.0999756-7.5999756-8.5999756l9.0999756-68.5
				c0.5-3.7999878,3.7000122-6.5999756,7.5999756-6.5999756h52.9000244c3.9000244,0,7.0999756,2.9000244,7.5999756,6.7999878
				l9.5,68.5C871.7000122,648.9000244,868.2000122,652.9000244,863.5999756,652.9000244z"/>
			<path class="st6" d="M863.5999756,652.9000244h-30.5c3.2000122,0,5.9000244-1.9000244,7-4.5999756
				c0.5-1.2000122,0.7000122-2.5,0.5999756-3.7999878l-7.5999756-68.5c-0.0999756-0.7999878-0.2999878-1.5-0.5999756-2.0999756
				c-1.2000122-2.7999878-3.9000244-4.5999756-7-4.5999756h28.5999756c3.9000244,0,7.0999756,2.9000244,7.5999756,6.7999878
				l9.5,68.5C871.5999756,648.9000244,868.0999756,652.9000244,863.5999756,652.9000244z"/>
			<path class="st7" d="M863.5999756,652.9000244h-21.2999878c3.2000122,0,5.9000244-1.9000244,7-4.5999756
				c0.5-1.2000122,0.7000122-2.5,0.5999756-3.7999878l-7.5999756-68.5c-0.0999756-0.7999878-0.2999878-1.5-0.5999756-2.0999756
				c-1.2000122-2.7999878-3.9000244-4.5999756-7-4.5999756h19.4000244c3.9000244,0,7.0999756,2.9000244,7.5999756,6.7999878
				l9.5,68.5C871.7000122,648.9000244,868.2000122,652.9000244,863.5999756,652.9000244z"/>
			<path class="st8" d="M792,648.2000122c-1.2000122,0-1.9000244-0.5999756-2.2000122-1S788.8999634,646,789.0999756,644.7999878
				l9.0999756-68.5c0.2000122-1.5,1.5-2.5999756,3-2.5999756h52.9000244c1.5,0,2.7999878,1.0999756,3,2.5999756l7.5999756,68.5
				c0.0999756,1.2000122-0.4000244,1.9000244-0.7000122,2.2999878c-0.2999878,0.4000244-1.0999756,1-2.2000122,1L792,648.2000122z"
				/>
			<path class="st8" d="M865.5999756,647.2000122c-0.2999878,0.4000244-1.0999756,1-2.2000122,1H792
				c-1.2000122,0-1.9000244-0.5999756-2.2000122-1S788.8999634,646,789.0999756,644.7999878l4.5999756-34.2000122
				l0.4000244-2.7999878l0.2999878-1.9000244l1.4000244-10.7000122l0.4000244-3l0.2999878-2l0.2000122-1.4000244
				l0.2000122-1.4000244l0.2000122-1.7999878l1.2000122-9.4000244c0.2000122-1.5,1.5-2.5999756,3-2.5999756H854
				c1.5,0,2.7999878,1.0999756,3,2.5999756l9.5,68.5C866.5,646.0999756,866,646.9000244,865.5999756,647.2000122z"/>
			<path class="st9" d="M865.5999756,647.2000122c-0.2999878,0.4000244-1.0999756,1-2.2000122,1h-23.2999878
				c0.5-1.2000122,0.7000122-2.5,0.5999756-3.7999878l-7.5999756-68.5c-0.0999756-0.7999878-0.2999878-1.5-0.5999756-2.0999756H854
				c1.5,0,2.7999878,1.0999756,3,2.5999756l2.2000122,15.7999878l0.4000244,3l1.7000122,12.5999756l0.4000244,2.7999878
				l4.7000122,34.2000122C866.5,646.0999756,866,646.9000244,865.5999756,647.2000122z"/>
			<path class="st9" d="M865.7000122,647.2000122c-0.2999878,0.2999878-1,0.9000244-2,1c-0.0999756,0-0.0999756,0-0.2000122,0
				h-23.2999878c0.5-1.2000122,0.7000122-2.5,0.5999756-3.7999878l-4.5-40.9000244l-0.4000244-3.2999878l-0.5-4.2999878L835,593
				l-1.9000244-17.0999756c-0.0999756-0.7999878-0.2999878-1.5-0.5999756-2.0999756H854c1.5,0,2.7999878,1.0999756,3,2.5999756
				l2.2000122,15.7999878l0.4000244,3l1.7000122,12.5999756l0.4000244,2.7999878l4.7000122,34.2000122
				C866.5,646.0999756,866,646.9000244,865.7000122,647.2000122z"/>
			<path class="st7" d="M808.2000122,573.7999878c-1.5,0-2.7999878,1.0999756-3,2.5999756l-9.0999756,68.5
				c-0.2000122,1.2000122,0.4000244,2,0.7000122,2.4000244s1.0999756,1,2.2000122,1H792
				c-1.2000122,0-1.9000244-0.5999756-2.2000122-1s-0.9000244-1.2000122-0.7000122-2.4000244l9.0999756-68.5
				c0.2000122-1.5,1.5-2.5999756,3-2.5999756H808.2000122z"/>
			<path class="st5" d="M854.9000244,561.5c0,0.7999878-0.2999878,1.5999756-0.9000244,2.0999756
				C853.4000244,564.1999512,852.7000122,564.5,851.9000244,564.5H803.5c-1.5999756,0-2.5999756-1.2999878-2.5999756-2.9000244V552
				c0-0.7999878,0.2999878-1.5,0.9000244-2.0999756C802.4000244,549.3000488,803.1000366,549,803.9000244,549H852
				c1.5999756,0.0999756,2.7999878,1.4000244,2.9000244,3V561.5z"/>
			<path class="st7" d="M854.9000244,561.5c0,0.7999878-0.2999878,1.5999756-0.9000244,2.0999756
				C853.4000244,564.1999512,852.7000122,564.5,851.9000244,564.5H830.5c0.7999878,0,1.5-0.2999878,2.0999756-0.9000244
				C833.1999512,563,833.5,562.2999878,833.5,561.5v-1.5999756v-6.2999878v-1.7000122c0-1.5999756-1.2999878-2.9000244-2.9000244-3
				H852c1.5999756,0.0999756,2.7999878,1.4000244,2.9000244,3V561.5z"/>
			<path class="st6" d="M840.2000122,561.5c0,0.7999878-0.2999878,1.5999756-0.9000244,2.0999756
				C838.7000122,564.1999512,838,564.5,837.2000122,564.5h-11.4000244c0.7999878,0,1.5-0.2999878,2.0999756-0.9000244
				C828.499939,563,828.7999878,562.2999878,828.7999878,561.5v-9.5999756c0-1.5999756-1.2999878-2.9000244-2.9000244-3h11.4000244
				c1.5999756,0.0999756,2.7999878,1.4000244,2.9000244,3V561.5z"/>
			<path class="st8" d="M850.2999878,558.7000122c0,0.7000122-0.5999756,1.2000122-1.2000122,1.2000122h-20.2000122h-0.5H806.999939
				c-0.7000122,0-1.2000122-0.5999756-1.2000122-1.2000122v-3.7999878c0-0.7000122,0.5999756-1.2000122,1.2000122-1.2000122
				h19.2000122h2.7999878h20.2000122c0.5,0,0.9000244,0.2999878,1.0999756,0.7000122c0,0,0,0.0999756,0.0999756,0.0999756v0.0999756
				c0,0.0999756,0.0999756,0.2000122,0.0999756,0.4000244L850.2999878,558.7000122z"/>
			<path class="st10" d="M865.7000122,647.2000122c-0.2999878,0.4000244-1.0999756,1-2.2000122,1H792
				c-1.2000122,0-1.9000244-0.5999756-2.2000122-1S788.8999634,646,789.0999756,644.7999878l4.5999756-34.2000122
				l0.4000244-2.7999878c13.2000122-1.0999756,20.7000122-5.0999756,27.9000244-9
				c0.7999878-0.4000244,1.7000122-0.9000244,2.5-1.2999878c0.7000122-0.2999878,1.2999878-0.7000122,2-1
				c0.4000244-0.2000122,0.7999878-0.4000244,1.2000122-0.5999756c1.5999756-0.7999878,3-1.4000244,4.5-1.9000244
				c1.5999756-0.5999756,3.0999756-1.0999756,4.7000122-1.5c3.7000122-1,7.5-1.4000244,11.7000122-1.4000244h0.0999756
				c4,0,7.5,0.4000244,10.5999756,1.2000122l0.4000244,3l1.7000122,12.5999756l0.4000244,2.7999878l4.7000122,34.2000122
				C866.5,646.0999756,866,646.9000244,865.7000122,647.2000122z"/>
			<path class="st11" d="M865.7000122,647.2000122c-0.2999878,0.4000244-1.0999756,1-2.2000122,1H792
				c-1.2000122,0-1.9000244-0.5999756-2.2000122-1S788.8999634,646,789.0999756,644.7999878l4.5999756-34.2000122
				c16.9000244-1.2999878,25.0999756-7.2000122,34-11.7000122c1.0999756-0.5,2.0999756-1,3.2000122-1.5
				c0.7000122-0.2999878,1.5-0.5999756,2.2000122-0.9000244c1.2999878-0.5,2.5999756-0.9000244,4-1.2999878
				c3.2999878-0.9000244,7.0999756-1.4000244,11.5-1.4000244c4.5,0,8.0999756,0.5,11,1.4000244L866.5,644.8999634
				C866.5,646.0999756,866,646.9000244,865.7000122,647.2000122z"/>
			<path class="st11" d="M866.2999878,646.0999756c0,0.0999756-0.0999756,0.2000122-0.0999756,0.2999878
				c0,0,0,0.0999756-0.0999756,0.0999756c0,0.0999756-0.0999756,0.2000122-0.0999756,0.2000122
				c-0.0999756,0.2000122-0.2999878,0.4000244-0.4000244,0.5c-0.2999878,0.2999878-1,0.9000244-2,1
				c-0.0999756,0-0.0999756,0-0.2000122,0h-23.2999878c0.5-1.2000122,0.7000122-2.5,0.5999756-3.7999878l-4.5-40.9000244
				l-0.4000244-3.2999878l-0.5-4.2999878L835,593c0.5999756-0.2000122,1.2000122-0.4000244,1.7999878-0.5
				c3.7000122-1,7.5-1.4000244,11.7000122-1.4000244h0.0999756c4,0,7.5,0.4000244,10.5,1.0999756l0,0l0.4000244,3
				l1.7000122,12.5999756l0.4000244,2.7999878l4.7000122,34.2000122
				C866.5,645.4000244,866.4000244,645.7999878,866.2999878,646.0999756z"/>
			<path class="st12" d="M865.7000122,647.2000122c-0.2999878,0.4000244-1.0999756,1-2.2000122,1H792
				c-1.2000122,0-1.9000244-0.5999756-2.2000122-1S788.8999634,646,789.0999756,644.7999878l4.5999756-34.2000122
				l0.4000244-2.7999878l0.2999878-1.9000244l1.4000244-10.7000122l0.4000244-3
				c3.0999756-0.7999878,6.5999756-1.2000122,10.5999756-1.2000122h0.0999756
				c5.9000244,0,11.2000122,0.9000244,16.4000244,2.9000244c1.4000244,0.5,2.9000244,1.2000122,4.5,1.9000244
				C828.2000122,596,828.5999756,596.2000122,829,596.3999634c0.7000122,0.2999878,1.2999878,0.7000122,2,1
				c0.7999878,0.4000244,1.7000122,0.9000244,2.5,1.2999878c1.5,0.7999878,2.9000244,1.5,4.4000244,2.2999878
				c6.0999756,3,13,5.7999878,23.5999756,6.7000122l5.0999756,37.0999756
				C866.5,646.0999756,866,646.9000244,865.7000122,647.2000122z"/>
			<path class="st10" d="M865.7000122,647.2000122c-0.2999878,0.4000244-1.0999756,1-2.2000122,1H792
				c-1.2000122,0-1.9000244-0.5999756-2.2000122-1S788.8999634,646,789.0999756,644.7999878l0.2000122-1.5999756l6.4000244-48
				c2.9000244-0.7999878,6.5-1.4000244,11-1.4000244c6.2999878,0,11.2000122,1.0999756,15.5,2.7000122
				c0.7999878,0.2999878,1.5,0.5999756,2.2000122,0.9000244c1.0999756,0.5,2.0999756,1,3.2000122,1.5
				c3.4000244,1.7000122,6.7999878,3.5999756,10.5,5.4000244c6,2.9000244,13.0999756,5.4000244,23.5999756,6.2000122
				l4.2000122,30.7000122v0.2000122l0.2000122,1.5999756l0.2000122,1.7000122
				C866.5,646.0999756,866,646.9000244,865.7000122,647.2000122z"/>
			<circle class="st11" cx="813.7999878" cy="606.0999756" r="5.7999878"/>
			<circle class="st11" cx="803.0999756" cy="614.4000244" r="3.7000122"/>
			<circle class="st11" cx="810" cy="622.9000244" r="2.0999756"/>
			<path class="st13" d="M866.2999878,646.0999756c0,0.0999756-0.0999756,0.2000122-0.0999756,0.2999878
				c0,0,0,0.0999756-0.0999756,0.0999756c0,0.0999756-0.0999756,0.2000122-0.0999756,0.2000122
				c-0.0999756,0.2000122-0.2999878,0.4000244-0.4000244,0.5c-0.2999878,0.2999878-1,0.9000244-2,1
				c-0.0999756,0-0.0999756,0-0.2000122,0h-23.2999878c0.5-1.2000122,0.7000122-2.5,0.5999756-3.7999878l-4.5-40.9000244
				l-0.4000244-3.2999878l-0.5-4.2999878c0.5999756-0.2000122,1.2000122-0.4000244,1.7999878-0.5
				c3.2999878-0.9000244,7.0999756-1.4000244,11.5-1.4000244c4.5,0,8.0999756,0.5,11,1.4000244l0,0l1.7000122,12.5999756
				l0.4000244,2.7999878l4.7000122,34.2000122C866.5,645.4000244,866.4000244,645.7999878,866.2999878,646.0999756z"/>
			<circle class="st11" cx="839.5" cy="633.0999756" r="5.9000244"/>
			<circle class="st11" cx="830" cy="624.9000244" r="3.7999878"/>
			<circle class="st11" cx="823.2000122" cy="633.7000122" r="2.0999756"/>
			<path class="st14" d="M866.2999878,646.0999756c0,0.0999756-0.0999756,0.2000122-0.0999756,0.2999878
				c0,0,0,0.0999756-0.0999756,0.0999756c0,0.0999756-0.0999756,0.2000122-0.0999756,0.2000122
				c-0.0999756,0.2000122-0.2999878,0.4000244-0.4000244,0.5c-0.2999878,0.2999878-1,0.9000244-2,1
				c-0.0999756,0-0.0999756,0-0.2000122,0h-23.2999878c0.5-1.2000122,0.7000122-2.5,0.5999756-3.7999878l-4.5-40.9000244
				l-0.4000244-3.2999878c0.7000122,0.2999878,1.2999878,0.7000122,2,1c6.0999756,3,13,5.7999878,23.5,6.7000122l0,0l0,0
				l5.0999756,37.0999756C866.4000244,645.4000244,866.4000244,645.7999878,866.2999878,646.0999756z"/>
			<path class="st11" d="M866.4000244,645.2999878c0,0.0999756,0,0.0999756,0,0.2000122c0,0.0999756,0,0.0999756,0,0.0999756
				c0,0.0999756,0,0.0999756,0,0.2000122v0.0999756c0,0.0999756,0,0.0999756,0,0.2000122
				c-0.0999756,0.2000122-0.2000122,0.5-0.2999878,0.5999756c0,0,0,0.0999756-0.0999756,0.0999756l-0.0999756,0.0999756
				l-0.0999756,0.0999756c0,0.0999756-0.0999756,0.0999756-0.0999756,0.2000122
				c-0.0999756,0.0999756-0.2000122,0.2000122-0.4000244,0.4000244l-0.0999756,0.0999756l-0.0999756,0.0999756l-0.0999756,0.0999756
				c0,0-0.0999756,0-0.0999756,0.0999756c0,0-0.0999756,0-0.0999756,0.0999756c0,0-0.0999756,0-0.0999756,0.0999756
				c-0.0999756,0-0.2000122,0.0999756-0.2999878,0.0999756s-0.2000122,0.0999756-0.4000244,0.0999756l0,0
				c-0.0999756,0-0.0999756,0-0.2000122,0l0,0c-0.0999756,0-0.0999756,0-0.2000122,0h-23.2999878
				c0.5-1.2000122,0.7000122-2.5,0.5999756-3.7999878l-0.2999878-3l-4.2000122-37.9000244
				c0.5999756,0.2999878,1.2999878,0.7000122,2,1c6,2.9000244,13.0999756,5.4000244,23.5999756,6.2000122l0,0l4.2000122,30.7000122
				v0.2000122l0.5,3.2999878C866.4000244,645,866.4000244,645.2000122,866.4000244,645.2999878z"/>
			<path class="st15" d="M805,579.7999878L805,579.7999878c1.5,0.2000122,2.5,1.5999756,2.2999878,3.0999756l-5.0999756,36.5999756
				c-0.2000122,1.5-1.5999756,2.5-3.0999756,2.2999878l0,0c-1.5-0.2000122-2.5-1.5999756-2.2999878-3.0999756l5.0999756-36.5999756
				C802.0999756,580.5999756,803.5,579.5999756,805,579.7999878z"/>
			<path class="st15" d="M801,627.5999756l-1,7c-0.2000122,1.5-1.5999756,2.5-3.0999756,2.2999878
				C795.5,636.6999512,794.5,635.499939,794.6000366,634.1999512c0-0.0999756,0-0.0999756,0-0.2000122l0,0l1-7.0999756
				c0.2000122-1.5,1.5999756-2.5,3.0999756-2.2999878C800.2000122,624.9000244,801.2000122,626.2000122,801,627.5999756z"/>
			<path class="st9" d="M850.2999878,558.7000122c0,0.7000122-0.5999756,1.2000122-1.2000122,1.2000122h-20.2000122v-6.2999878
				h20.2000122c0.5,0,0.9000244,0.2999878,1.0999756,0.7000122c0,0,0,0.0999756,0.0999756,0.0999756V554.5
				c0,0.0999756,0.0999756,0.2000122,0.0999756,0.4000244L850.2999878,558.7000122z"/>
			<path class="st11" d="M865.7000122,647.2000122c-0.2999878,0.4000244-1.0999756,1-2.2000122,1H792
				c-1.2000122,0-1.9000244-0.5999756-2.2000122-1S788.8999634,646,789.0999756,644.7999878l0.2000122-1.5999756h77
				L866.5,644.9000244C866.5,646.0999756,866,646.9000244,865.7000122,647.2000122z"/>
			<path class="st16" d="M840.5999756,644L840.5,643.2999878C840.5,643.2999878,840.5999756,643.5999756,840.5999756,644z"/>
			<path class="st13" d="M865.7000122,647.2000122c-0.2999878,0.4000244-1.0999756,1-2.2000122,1h-23.2999878
				c0.5999756-1.4000244,0.5999756-3.2000122,0.5-4.2000122l0,0c0-0.4000244-0.0999756-0.7000122-0.0999756-0.7000122l0,0
				h25.5999756L866.4000244,645C866.5,646.0999756,866,646.9000244,865.7000122,647.2000122z"/>
		</g>
		<path class="st17" d="M871.2000122,644.4000244l-9.5-68.5C861.2999878,572,858,569.1000366,854.1000366,569.1000366h-0.0999756
			h-7.2999878v-3.0999756c0-0.2000122,0-1.2999878,0-1.5h5.2000122c0.7999878,0,1.5-0.2999878,2.0999756-0.9000244
			c0.5999756-0.5999756,0.9000244-1.2999878,0.9000244-2.0999756v-9.5999756c0-1.5999756-1.2999878-2.9000244-2.9000244-3
			h-14.7000122l0,0H826l0,0h-22c-0.7999878,0-1.5,0.4000244-2.0999756,0.9000244
			C801.3000488,550.4000854,801,551.1000977,801,551.9000854v9.5999756c0,1.5999756,1,2.9000244,2.5999756,2.9000244h5.5v4.5999756
			h-7.7999878c-3.7999878,0-7.0999756,2.7999878-7.5999756,6.5999756l-9.0999756,68.5
			c-0.5999756,4.5999756,2.9000244,8.5999756,7.5999756,8.5999756h40.9000244h9.2999878h21.2000122h0.0999756
			C868.2000122,652.9000244,871.7000122,648.9000244,871.2000122,644.4000244z"/>
	</g>
	<g>
		<g>
			<path class="st7" d="M1139,591.2000122l-16.5,56.9000244c-0.8000488,2.7999878-3.4000244,4.7999878-6.3000488,4.7999878H1084.5
				c-2.9000244,0-5.5-2-6.3000488-4.7999878l-16.5-56.9000244c-0.5999756-2.2000122-0.3000488-4.5,0.8000488-6.4000244
				l12.0999756-20.5c1.3000488-2.2000122,3.6999512-3.5,6.1999512-3.5h39.1999512c2.5,0,4.9000244,1.4000244,6.1999512,3.5
				l12.0999756,20.5C1139.3000488,586.7000122,1139.5999756,589.0999756,1139,591.2000122z"/>
			<path class="st6" d="M1128,591.2000122l-16.5,56.9000244c-0.8000488,2.7999878-3.4000244,4.7999878-6.3000488,4.7999878
				h-20.5999756c-2.9000244,0-5.5-2-6.3000488-4.7999878l-16.5-56.9000244c-0.5999756-2.2000122-0.3000488-4.5,0.8000488-6.4000244
				l12.0999756-20.5c1.3000488-2.2000122,3.6999512-3.5,6.1999512-3.5h28.1999512c2.5,0,4.9000244,1.4000244,6.1999512,3.5
				l12.0999756,20.5C1128.3000488,586.7000122,1128.5999756,589.0999756,1128,591.2000122z"/>
			<path class="st5" d="M1120,591.2000122l-16.5,56.9000244c-0.8000488,2.7999878-3.4000244,4.7999878-6.3000488,4.7999878H1084.5
				c-2.9000244,0-5.5-2-6.3000488-4.7999878l-16.5-56.9000244c-0.5999756-2.2000122-0.3000488-4.5,0.8000488-6.4000244
				l12.0999756-20.5c1.3000488-2.2000122,3.6999512-3.5,6.1999512-3.5h20.1999512c2.5,0,4.9000244,1.4000244,6.1999512,3.5
				l12.0999756,20.5C1120.3000488,586.7000122,1120.5999756,589.0999756,1120,591.2000122z"/>
			<path class="st8" d="M1134.8000488,590l-2.0999756,7.2999878L1131.9000244,600l-13.5999756,46.9000244
				c-0.3000488,1-1.1999512,1.5999756-2.0999756,1.5999756h-31.6999512c-1,0-1.9000244-0.7000122-2.0999756-1.5999756
				l-13.3000488-45.7999878l-1.3000488-4.2999878l-2-6.7999878c-0.3000488-1-0.1999512-2.0999756,0.4000244-3l0.5999756-1.0999756
				l2-3.4000244l9.5-16.0999756c0.5-0.9000244,1.4000244-1.4000244,2.4000244-1.4000244h39.1999512
				c1,0,1.9000244,0.5,2.4000244,1.4000244l8.5999756,14.7000122l1.8000488,3.0999756l1.5999756,2.7000122
				C1135,587.9000244,1135.0999756,589,1134.8000488,590z"/>
			<path class="st9" d="M1134.8000488,590l-16.5,56.9000244V647l0,0v0.0999756c0,0,0,0,0,0.0999756v0.0999756
				c0,0.0999756-0.0999756,0.2000122-0.0999756,0.2000122s0,0.0999756-0.0999756,0.0999756
				c0,0.0999756-0.0999756,0.0999756-0.0999756,0.2000122c0,0,0,0-0.0999756,0.0999756l-0.0999756,0.0999756l-0.0999756,0.0999756
				c-0.4000244,0.2999878-0.9000244,0.5-1.4000244,0.5h-12.8000488c0-0.0999756,0.0999756-0.2999878,0.0999756-0.4000244
				l14.4000244-49.5l0.6999512-2.5l1.4000244-4.7999878c0.5999756-2.2000122,0.3000488-4.5-0.8000488-6.4000244l-1-1.5999756
				l-1.5-2.5l-9.0999756-15.5999756h12.3000488c1,0,1.9000244,0.5,2.4000244,1.4000244l8.5999756,14.7000122l1.8000488,3.0999756
				l1.5999756,2.7000122c0.0999756,0.0999756,0.0999756,0.2000122,0.1999512,0.2999878
				c0.0999756,0.2000122,0.1999512,0.4000244,0.1999512,0.5999756C1135,588.5999756,1135,589.2999878,1134.8000488,590z"/>
			<path class="st18" d="M1065.9000244,590l16.5,56.9000244c0.3000488,1,1.1999512,1.5999756,2.0999756,1.5999756h12.8000488
				c0-0.0999756-0.0999756-0.2999878-0.0999756-0.4000244l-16.5-56.9000244c-0.5999756-2.2000122-0.3000488-4.5,0.8000488-6.4000244
				l11.5999756-19.7000122h-12.3000488c-1,0-1.9000244,0.5-2.4000244,1.4000244l-12.0999756,20.5
				C1065.6999512,587.9000244,1065.5999756,589,1065.9000244,590z"/>
			<path class="st19" d="M1134.8000488,590l-2.0999756,7.2999878L1131.9000244,600l-13.5999756,46.9000244
				c-0.3000488,1-1.1999512,1.5999756-2.0999756,1.5999756h-31.6999512c-1,0-1.9000244-0.7000122-2.0999756-1.5999756
				l-13.3000488-45.7999878l-1.3000488-4.2999878l0.8000488-0.0999756c13.3000488-1,20.6999512-5,27.9000244-8.7999878
				c0.6999512-0.4000244,1.3000488-0.7000122,2-1c0.4000244-0.2000122,0.8000488-0.4000244,1.1999512-0.5999756
				c1.3000488-0.7000122,2.5-1.2999878,3.5999756-1.7999878c4.1999512-1.9000244,10.0999756-4.0999756,18.9000244-4.0999756
				h0.0999756c3.3000488,0,6.0999756,0.2999878,8.8000488,0.7999878l1.8000488,3.0999756l1.5999756,2.7000122
				C1135,587.9000244,1135.0999756,589,1134.8000488,590z"/>
			<path class="st20" d="M1134.8000488,590l-2.9000244,10l-13.5999756,46.9000244
				c-0.3000488,1-1.1999512,1.5999756-2.0999756,1.5999756h-31.6999512c-1,0-1.9000244-0.7000122-2.0999756-1.5999756
				l-13.3000488-45.7999878l-0.3000488-1.7999878c15.0999756-1.2000122,23.0999756-6,30.9000244-10.2000122
				c1.5-0.7999878,3.0999756-1.5999756,4.6999512-2.2999878c4.9000244-2.2000122,10.3000488-3.9000244,17.8000488-3.9000244
				c4.4000244,0,7.9000244,0.5,10.6999512,1.2999878L1134.5,586.9000244C1135,587.9000244,1135.0999756,589,1134.8000488,590z"/>
			<path class="st21" d="M1132.6999512,597.2999878L1131.8999023,600l-13.5999756,46.9000244
				c-0.3000488,1-1.1999512,1.5999756-2.0999756,1.5999756H1084.5c-1,0-1.9000244-0.7000122-2.0999756-1.5999756
				l-13.3000488-45.7999878l-1.3000488-4.2999878l-2-6.7999878c-0.3000488-1-0.1999512-2.0999756,0.4000244-3l0.5999756-1.0999756
				l2-3.4000244c3-0.7999878,6.4000244-1.2000122,10.4000244-1.2000122h0.0999756
				c6.4000244,0,11.9000244,1.0999756,17.6999512,3.5999756c0.8000488,0.4000244,1.6999512,0.7999878,2.6999512,1.2000122
				c0.4000244,0.2000122,0.8000488,0.4000244,1.1999512,0.5999756c1.9000244,1,3.8000488,2.0999756,5.8000488,3.2999878
				c6,3.5999756,12.1999512,7.4000244,21.8000488,7.4000244c1.0999756,0,2.0999756,0,3.1999512-0.0999756L1132.6999512,597.2999878z
				"/>
			<path class="st19" d="M1131.9000244,600L1119,644.5l-0.6999512,2.4000244c-0.3000488,1-1.1999512,1.5999756-2.0999756,1.5999756
				h-31.6999512c-1,0-1.9000244-0.7000122-2.0999756-1.5999756L1081.7001953,644.5l-12.5999756-43.4000244L1065.9002686,590
				c-0.3000488-1-0.1999512-2.0999756,0.4000244-3l0.5999756-1.0999756c3.0999756-1.2000122,7-1.9000244,12.3000488-1.9000244
				c6.9000244,0,12.0999756,1.4000244,16.8000488,3.4000244c1.3000488,0.5,2.5,1.0999756,3.6999512,1.7999878
				C1108.0999756,593.4000244,1116,601.2999878,1131.9000244,600z"/>
			<circle class="st20" cx="1089.8000488" cy="634.9000244" r="3.6999817"/>
			<circle class="st20" cx="1098.1999512" cy="639.4000244" r="1.8000183"/>
			<path class="st20" d="M1134.8000488,590l-2.0999756,7.2999878L1131.9000244,600l-13.5999756,46.9000244V647l0,0v0.0999756
				c0,0,0,0,0,0.0999756v0.0999756c0,0.0999756-0.0999756,0.2000122-0.0999756,0.2000122s0,0.0999756-0.0999756,0.0999756
				c0,0.0999756-0.0999756,0.0999756-0.0999756,0.2000122c0,0,0,0-0.0999756,0.0999756l-0.0999756,0.0999756l-0.0999756,0.0999756
				c-0.4000244,0.2999878-0.9000244,0.5-1.4000244,0.5h-12.8000488c0-0.0999756,0.0999756-0.2999878,0.0999756-0.4000244
				l14.4000244-49.5l0.6999512-2.5l1.4000244-4.7999878c0.5999756-2.2000122,0.3000488-4.5-0.8000488-6.4000244l-1-1.5999756
				l-1.5-2.5c1.6999512-0.2000122,3.4000244-0.2999878,5.4000244-0.2999878h0.0999756
				c3.3000488,0,6.0999756,0.2999878,8.8000488,0.7999878l1.8000488,3.0999756l1.5999756,2.7000122
				c0.0999756,0.0999756,0.0999756,0.2000122,0.1999512,0.2999878c0.0999756,0.2000122,0.1999512,0.4000244,0.1999512,0.5999756
				C1135,588.5999756,1135,589.2999878,1134.8000488,590z"/>
			<circle class="st20" cx="1077.5" cy="600.7999878" r="5.5999756"/>
			<circle class="st20" cx="1086.1999512" cy="591.5" r="2.9000244"/>
			<path class="st22" d="M1134.8000488,590l-2.0999756,7.2999878L1131.9000244,600l-13.5999756,46.9000244V647l0,0v0.0999756
				c0,0,0,0,0,0.0999756v0.0999756c0,0.0999756-0.0999756,0.2000122-0.0999756,0.2000122s0,0.0999756-0.0999756,0.0999756
				c0,0.0999756-0.0999756,0.0999756-0.0999756,0.2000122c0,0,0,0-0.0999756,0.0999756l-0.0999756,0.0999756l-0.0999756,0.0999756
				c-0.4000244,0.2999878-0.9000244,0.5-1.4000244,0.5h-12.8000488c0-0.0999756,0.0999756-0.2999878,0.0999756-0.4000244
				l14.4000244-49.5l0.6999512-2.5l1.4000244-4.7999878c0.5999756-2.2000122,0.3000488-4.5-0.8000488-6.4000244l-1-1.5999756
				c1.1999512-0.0999756,2.5-0.2000122,3.9000244-0.2000122c4.4000244,0,7.9000244,0.5,10.6999512,1.2999878L1134.5,587.1998291
				c0.0999756,0.0999756,0.0999756,0.2000122,0.1999512,0.2999878c0.0999756,0.2000122,0.1999512,0.4000244,0.1999512,0.5999756
				C1135,588.5999756,1135,589.2999878,1134.8000488,590z"/>
			<path class="st19" d="M1132.6999512,597.2999878L1131.8999023,600l-13.5999756,46.9000244V647l0,0v0.0999756c0,0,0,0,0,0.0999756
				v0.0999756c0,0.0999756-0.0999756,0.2000122-0.0999756,0.2000122s0,0.0999756-0.0999756,0.0999756
				c0,0.0999756-0.0999756,0.0999756-0.0999756,0.2000122c0,0,0,0-0.0999756,0.0999756l-0.0999756,0.0999756l-0.0999756,0.0999756
				c-0.4000244,0.2999878-0.9000244,0.5-1.4000244,0.5H1103.5c0-0.0999756,0.0999756-0.2999878,0.0999756-0.4000244l14.4000244-49.5
				l0.6999512-2.5c2.9000244,0.9000244,6.0999756,1.5,9.8000488,1.5c1.0999756,0,2.0999756,0,3.1999512-0.0999756
				L1132.6999512,597.2999878z"/>
			<path class="st20" d="M1131.9000244,600L1119,644.5l-0.6999512,2.4000244V647l0,0v0.0999756c0,0,0,0,0,0.0999756v0.0999756
				c0,0.0999756-0.0999756,0.2000122-0.0999756,0.2000122s0,0.0999756-0.0999756,0.0999756
				c0,0.0999756-0.0999756,0.0999756-0.0999756,0.2000122c0,0,0,0-0.0999756,0.0999756l-0.0999756,0.0999756l-0.0999756,0.0999756
				c-0.4000244,0.2999878-0.9000244,0.5-1.4000244,0.5h-12.8000488c0-0.0999756,0.0999756-0.2999878,0.0999756-0.4000244
				l1-3.5999756l13.3000488-45.9000244C1121.8000488,599.7999878,1126.4000244,600.5,1131.9000244,600z"/>
			<g>
				<polygon class="st2" points="1115,560.7000122 1109.5,560.7000122 1100.6999512,560.7999878 1099,560.7999878 1083,560.7999878 
					1083,555.5999756 1115.9000244,555.5999756 				"/>
				<path class="st3" d="M1114.5999756,555.5999756v5.0999756h-1.6999512h-11.0999756c-0.5,0-1-0.7000122-1-1.5v-2.2999878
					c0-0.7999878,0.5-1.5,1.0999756-1.5h9.4000244C1111.5,555.5999756,1114.5999756,555.5999756,1114.5999756,555.5999756z"/>
				<path class="st4" d="M1117.5999756,560.7999878h-7.8000488c-0.5,0-0.9000244-0.7000122-0.9000244-1.4000244v-2.2999878
					c0-0.7999878,0.5-1.5,1.0999756-1.5h7.5999756L1117.5999756,560.7999878z"/>
			</g>
			<g>
				<path class="st2" d="M1115.6999512,539.0999756v3.7999878c0,0.7999878-0.8000488,1.5-1.6999512,1.5h-27.0999756
					c-1,0-1.6999512-0.7000122-1.6999512-1.5v-3.7999878c0-0.7999878,0.8000488-1.5,1.6999512-1.5H1114
					C1114.9000244,537.5999756,1115.6999512,538.2999878,1115.6999512,539.0999756z"/>
				<path class="st4" d="M1115.6999512,539.0999756v3.7999878c0,0.7999878-0.8000488,1.5-1.6999512,1.5h-6.5
					c-1,0-1.6999512-0.7000122-1.6999512-1.5v-3.7999878c0-0.7999878,0.8000488-1.5,1.6999512-1.5h6.5
					C1114.9000244,537.5999756,1115.6999512,538.2999878,1115.6999512,539.0999756z"/>
				<path class="st3" d="M1110.0999756,539.0999756v3.7999878c0,0.7999878-0.8000488,1.5-1.6999512,1.5h-7.8000488
					c1,0,1.6999512-0.7000122,1.6999512-1.5v-3.7999878c0-0.7999878-0.8000488-1.5-1.6999512-1.5h7.8000488
					C1109.3000488,537.5999756,1110.0999756,538.2999878,1110.0999756,539.0999756z"/>
				<path class="st5" d="M1122.1999512,552.7999878c0,0.7999878-0.3000488,1.5-0.8000488,2s-1.1999512,0.7999878-2,0.7999878
					h-40.1999512c-0.5,0-1-0.0999756-1.3000488-0.4000244c-0.3000488-0.2000122-0.5-0.4000244-0.5999756-0.5999756
					c-0.3000488-0.5-0.5-1.0999756-0.5-1.7000122v-9c0-0.7000122,0.3000488-1.4000244,0.8000488-1.9000244l0,0
					c0,0,0,0,0.0999756-0.0999756l0,0c0.5-0.5,1.1999512-0.7999878,1.9000244-0.7999878h40
					c1.5,0.0999756,2.6999512,1.2999878,2.6999512,2.7999878L1122.1999512,552.7999878z"/>
				<path class="st7" d="M1124,552.7999878c0,0.7999878-0.3000488,1.5-0.8000488,2s-1.1999512,0.7999878-2,0.7999878h-18.4000244
					c0.0999756,0,0.0999756,0,0.1999512,0l0,0c0.0999756,0,0.0999756,0,0.1999512,0l0,0
					c0.5999756-0.0999756,1.1999512-0.4000244,1.6999512-0.7999878c0.5-0.5,0.8000488-1.2000122,0.8000488-2v-1.5l0,0v-5.9000244
					l0,0v-1.5999756c0-1.5-1.1999512-2.7000122-2.6999512-2.7999878h18.4000244
					c1.5,0.0999756,2.6999512,1.2999878,2.6999512,2.7999878L1124,552.7999878z"/>
				<path class="st6" d="M1112.6999512,552.7999878c0,0.7999878-0.3000488,1.5-0.8000488,2s-1.1999512,0.7999878-2,0.7999878
					h-7.8000488c0.8000488,0,1.5-0.2999878,2-0.7999878s0.8000488-1.2000122,0.8000488-2v-9
					c0-1.5-1.1999512-2.7000122-2.6999512-2.7999878H1110c1.5,0.0999756,2.6999512,1.2999878,2.6999512,2.7999878V552.7999878z"/>
				<path class="st8" d="M1117.8000488,550.0999756c0,0.5999756-0.5,1.2000122-1.1999512,1.2000122h-11.8000488h-3.6999512h-0.5
					h-18.4000244c-0.5999756,0-1.1999512-0.5-1.1999512-1.2000122V546.5c0-0.5999756,0.5-1.2000122,1.1999512-1.2000122h16.3000488
					h2.5999756h3.6999512h11.8000488c0.5,0,0.8000488,0.2999878,1,0.5999756v0.0999756v0.0999756
					c0,0.0999756,0.0999756,0.2000122,0.0999756,0.2999878L1117.8000488,550.0999756z"/>
				<path class="st9" d="M1117.8000488,550.0999756c0,0.5999756-0.5,1.2000122-1.1999512,1.2000122h-11.8000488v-5.9000244
					h11.8000488c0.5,0,0.8000488,0.2999878,1,0.5999756v0.0999756v0.0999756c0,0.0999756,0.0999756,0.2000122,0.0999756,0.2999878
					L1117.8000488,550.0999756z"/>
			</g>
			<path class="st20" d="M1119,644.5l-0.6999512,2.4000244c-0.3000488,1-1.1999512,1.5999756-2.0999756,1.5999756h-31.6999512
				c-1,0-1.9000244-0.7000122-2.0999756-1.5999756L1081.7001953,644.5H1119z"/>
			<path class="st22" d="M1119,644.5l-0.6999512,2.4000244V647l0,0v0.0999756c0,0,0,0,0,0.0999756v0.0999756
				c0,0.0999756-0.0999756,0.2000122-0.0999756,0.2000122s0,0.0999756-0.0999756,0.0999756
				c0,0.0999756-0.0999756,0.0999756-0.0999756,0.2000122c0,0,0,0-0.0999756,0.0999756l-0.0999756,0.0999756l-0.0999756,0.0999756
				c-0.4000244,0.2999878-0.9000244,0.5-1.4000244,0.5h-12.8000488c0-0.0999756,0.0999756-0.2999878,0.0999756-0.4000244
				l1-3.5999756H1119V644.5z"/>
			<path class="st23" d="M1073.9000244,589.2000122L1073.9000244,589.2000122
				c1.4000244-0.4000244,2.8000488,0.4000244,3.1999512,1.7999878l9.5999756,33.4000244
				c0.4000244,1.4000244-0.4000244,2.7999878-1.8000488,3.2000122l0,0
				c-1.4000244,0.4000244-2.8000488-0.4000244-3.1999512-1.7999878l-9.5999756-33.4000244
				C1071.6999512,591,1072.5,589.5999756,1073.9000244,589.2000122z"/>
			<path class="st23" d="M1088.8000488,631.7000122l1.8000488,6.4000244
				c0.4000244,1.4000244-0.4000244,2.7999878-1.8000488,3.2000122c-1.3000488,0.4000244-2.5999756-0.2999878-3.0999756-1.5
				c0,0,0-0.0999756-0.0999756-0.0999756l0,0l-1.9000244-6.4000244c-0.4000244-1.4000244,0.4000244-2.7999878,1.8000488-3.2000122
				C1087,629.7000122,1088.4000244,630.4000244,1088.8000488,631.7000122z"/>
			<circle class="st20" cx="1106.4000244" cy="607.2000122" r="5.5999756"/>
			<circle class="st20" cx="1111.4000244" cy="619.5" r="3.6999817"/>
			<circle class="st20" cx="1103.0999756" cy="626.2000122" r="2.1999817"/>
		</g>
		<path class="st17" d="M1138.1999512,584.7999878l-12.0999756-20.5c-1.3000488-2.2000122-3.6999512-3.5-6.1999512-3.5h-2.3000488
			v-5.0999756h3.5999756c0.8000488,0,1.5-0.2999878,2-0.7999878s0.8000488-1.2000122,0.8000488-2v-9
			c0-1.5-1.1999512-2.7000122-2.6999512-2.7999878h-1.6999512l0,0h-3.8000488v-1.9000244c0-0.7999878-0.8000488-1.5-1.6999512-1.5
			h-5.5999756l0,0h-7.8000488l0,0h-13.6999512c-1,0-1.6999512,0.7000122-1.6999512,1.5v1.9000244h-5.5
			c-0.6999512,0-1.4000244,0.2999878-1.9000244,0.7999878l0,0c0,0,0,0-0.0999756,0.0999756l0,0
			c-0.5,0.5-0.8000488,1.2000122-0.8000488,1.9000244v9c0,0.7000122,0.1999512,1.2999878,0.5,1.7000122
			c0.1999512,0.2999878,0.4000244,0.5,0.5999756,0.5999756c0.4000244,0.2000122,0.8000488,0.4000244,1.3000488,0.4000244h3.8000488
			v5.0999756h-2.1999512c-2.5,0-4.9000244,1.4000244-6.1999512,3.5l-12.0999756,20.5
			c-1.0999756,1.9000244-1.4000244,4.2999878-0.8000488,6.4000244l16.5,56.9000244
			c0.8000488,2.7999878,3.4000244,4.7999878,6.3000488,4.7999878h12.6999512h8h11c2.9000244,0,5.5-2,6.3000488-4.7999878
			l16.5-56.9000244C1139.5999756,589.0999756,1139.3000488,586.7000122,1138.1999512,584.7999878z"/>
	</g>
	<g>
		<g>
			<g>
				<polygon class="st2" points="979.5,565.5 973.5999756,565.5 964.2000122,565.5999756 962.4000244,565.5999756 
					945.2000122,565.5999756 945.2000122,560 980.5,560 				"/>
				<path class="st3" d="M979.2000122,560.0999756v5.5h-1.7999878h-11.7000122c-0.5999756,0-1-0.7999878-1-1.5999756v-2.4000244
					c0-0.9000244,0.5-1.5999756,1.2000122-1.5999756h9.9000244C975.7999878,560,979.2000122,560.0999756,979.2000122,560.0999756z"
					/>
				<path class="st4" d="M982.4000244,565.5999756H974c-0.5999756,0-1-0.7999878-1-1.5v-2.5
					C973,560.7999878,973.5,560,974.0999756,560h8.2000122L982.4000244,565.5999756z"/>
			</g>
			<g>
				<path class="st2" d="M980.2999878,542.2999878v4.0999756c0,0.9000244-0.7999878,1.5999756-1.9000244,1.5999756h-29.0999756
					c-1,0-1.9000244-0.7000122-1.9000244-1.5999756v-4.0999756c0-0.9000244,0.7999878-1.5999756,1.9000244-1.5999756h29.0999756
					C979.5,540.7000122,980.2999878,541.4000244,980.2999878,542.2999878z"/>
				<path class="st4" d="M980.2999878,542.2999878v4.0999756c0,0.9000244-0.7999878,1.5999756-1.9000244,1.5999756h-7
					c-1,0-1.9000244-0.7000122-1.9000244-1.5999756v-4.0999756c0-0.9000244,0.7999878-1.5999756,1.9000244-1.5999756h7
					C979.5,540.7000122,980.2999878,541.4000244,980.2999878,542.2999878z"/>
				<path class="st3" d="M974.2999878,542.2999878v4.0999756c0,0.9000244-0.7999878,1.5999756-1.9000244,1.5999756H964
					c1,0,1.9000244-0.7000122,1.9000244-1.5999756v-4.0999756c0-0.9000244-0.7999878-1.5999756-1.9000244-1.5999756h8.4000244
					C973.5,540.7000122,974.2999878,541.4000244,974.2999878,542.2999878z"/>
				<path class="st5" d="M987.2999878,557c0,0.7999878-0.2999878,1.5999756-0.9000244,2.0999756
					C985.7999878,559.6999512,985.0999756,560,984.2999878,560h-43.2000122c-0.5999756,0-1-0.0999756-1.4000244-0.4000244
					c-0.2999878-0.2000122-0.5-0.4000244-0.7000122-0.7000122c-0.2999878-0.5-0.5-1.0999756-0.5-1.9000244v-9.7000122
					c0-0.7999878,0.2999878-1.5,0.7999878-2.0999756c0,0,0,0,0-0.0999756c0,0,0,0,0.0999756-0.0999756l0,0
					c0.5999756-0.5,1.2999878-0.7999878,2-0.7999878h42.9000244c1.5999756,0.0999756,2.9000244,1.4000244,2.9000244,3
					L987.2999878,557z"/>
				<path class="st7" d="M989.2000122,557c0,0.7999878-0.2999878,1.5999756-0.9000244,2.0999756
					C987.7000122,559.6999512,987,560,986.2000122,560h-19.7999878c0.0999756,0,0.0999756,0,0.2000122,0l0,0
					c0.0999756,0,0.0999756,0,0.2000122,0l0,0c0.7000122-0.0999756,1.2999878-0.4000244,1.7999878-0.9000244
					C969.2000122,558.5,969.500061,557.7999878,969.500061,557v-1.5999756l0,0V549l0,0v-1.7000122
					c0-1.5999756-1.2999878-2.9000244-2.9000244-3h19.7999878c1.5999756,0.0999756,2.9000244,1.4000244,2.9000244,3L989.2000122,557
					z"/>
				<path class="st6" d="M977.0999756,557c0,0.7999878-0.2999878,1.5999756-0.9000244,2.0999756S974.8999634,560,974.0999756,560
					h-8.2999878c0.7999878,0,1.5999756-0.2999878,2.0999756-0.9000244C968.499939,558.5,968.7999878,557.7999878,968.7999878,557
					v-9.7000122c0-1.5999756-1.2999878-2.9000244-2.9000244-3h8.2999878c1.5999756,0.0999756,2.9000244,1.4000244,2.9000244,3V557z"
					/>
				<path class="st8" d="M982.5999756,554.0999756c0,0.7000122-0.5999756,1.2999878-1.2999878,1.2999878h-12.5999756h-4h-0.5
					h-19.7999878c-0.7000122,0-1.2999878-0.5999756-1.2999878-1.2999878v-3.9000244
					c0-0.7000122,0.5999756-1.2999878,1.2999878-1.2999878h17.5h2.7999878h4h12.5999756
					c0.5,0,0.9000244,0.2999878,1.0999756,0.7000122c0,0,0,0.0999756,0.0999756,0.0999756v0.0999756
					c0,0.0999756,0.0999756,0.2000122,0.0999756,0.4000244L982.5999756,554.0999756z"/>
				<path class="st9" d="M982.5999756,554.0999756c0,0.7000122-0.5999756,1.2999878-1.2999878,1.2999878h-12.5999756v-6.4000244
					h12.5999756c0.5,0,0.9000244,0.2999878,1.0999756,0.7000122c0,0,0,0.0999756,0.0999756,0.0999756v0.0999756
					c0,0.0999756,0.0999756,0.2000122,0.0999756,0.4000244L982.5999756,554.0999756z"/>
			</g>
			<path class="st7" d="M1013.4000244,610.7000122l-23.5,40.5999756c-0.5,0.9000244-1.5,1.5-2.5999756,1.5h-46.9000244
				c-1.0999756,0-2.0999756-0.5999756-2.5999756-1.5l-23.5-40.5999756c-0.5-0.9000244-0.5-2.0999756,0-3l23.5-40.5999756
				c0.5-0.9000244,1.5-1.5,2.5999756-1.5h46.9000244c1.0999756,0,2.0999756,0.5999756,2.5999756,1.5l23.5,40.5999756
				C1013.9000244,608.5999756,1013.9000244,609.7999878,1013.4000244,610.7000122z"/>
			<path class="st6" d="M1000,610.7000122l-23.5,40.5999756c-0.5,0.9000244-1.5,1.5-2.5999756,1.5h-33.5
				c-1.0999756,0-2.0999756-0.5999756-2.5999756-1.5l-23.5-40.5999756c-0.5-0.9000244-0.5-2.0999756,0-3l23.5-40.5999756
				c0.5-0.9000244,1.5-1.5,2.5999756-1.5h33.5c1.0999756,0,2.0999756,0.5999756,2.5999756,1.5l23.5,40.5999756
				C1000.5,608.5999756,1000.5,609.7999878,1000,610.7000122z"/>
			<path class="st24" d="M991.2999878,610.7000122l-23.5,40.5999756c-0.5,0.9000244-1.5,1.5-2.5999756,1.5h-24.9000244
				c-1.0999756,0-2.0999756-0.5999756-2.5999756-1.5l-23.5-40.5999756c-0.5-0.9000244-0.5-2.0999756,0-3l23.5-40.5999756
				c0.5-0.9000244,1.5-1.5,2.5999756-1.5h24.9000244c1.0999756,0,2.0999756,0.5999756,2.5999756,1.5l23.5,40.5999756
				C991.7999878,608.5999756,991.7999878,609.7999878,991.2999878,610.7000122z"/>
			<path class="st9" d="M1008.2999878,609.7999878c-0.0999756,0.4000244-0.2000122,0.7999878-0.4000244,1.0999756l-0.5999756,1l0,0
				l-0.4000244,0.7000122l-1.2999878,2.2999878l-1.5,2.5999756l-17.4000244,30.0999756
				c-0.2000122,0.4000244-0.5999756,0.5999756-1.0999756,0.5999756H942c-0.4000244,0-0.9000244-0.2000122-1.0999756-0.5999756
				l-17.5999756-30.5l-1.5-2.5999756l-1-1.7999878l-1.0999756-1.9000244
				c-0.2000122-0.2999878-0.2999878-0.5999756-0.2999878-0.9000244c-0.2000122-0.7999878-0.0999756-1.5999756,0.2999878-2.4000244
				l7.7000122-13.2999878l0.7000122-1.0999756l1.2000122-2.0999756l0.5-0.7999878l11.2999878-19.5
				c0.2000122-0.4000244,0.5999756-0.5999756,1.0999756-0.5999756h43.5999756c0.4000244,0,0.9000244,0.2000122,1.0999756,0.5999756
				l11.2999878,19.5L999,591.5999756l0.9000244,1.5l1.0999756,2l6.5,11.2000122l0.5999756,1
				C1008.2999878,608.2000122,1008.4000244,609,1008.2999878,609.7999878z"/>
			<path class="st7" d="M992.0999756,609.2000122l-22.5,39h-27.5c-0.5,0-1-0.2999878-1.2999878-0.7000122l-21-36.5
				c-0.5999756-1.0999756-0.5999756-2.4000244,0-3.5l21.0999756-36.5999756
				c0.2000122-0.4000244,0.5999756-0.5999756,1.0999756-0.5999756h27.5999756L992.0999756,609.2000122z"/>
			<polygon class="st25" points="992.0999756,609.2000122 991,611.2000122 989.5,613.7000122 969.5999756,648.2000122 
				958.0999756,648.2000122 937.7999878,613.0999756 936.4000244,610.5999756 935.5999756,609.2000122 944.0999756,594.4000244 
				945.5999756,591.7999878 958.0999756,570.2000122 969.5999756,570.2000122 981.9000244,591.4000244 983.4000244,594 			"/>
			<path class="st26" d="M1008.2999878,609.7999878c-0.0999756,0.4000244-0.2000122,0.7999878-0.4000244,1.0999756l-0.5999756,1l0,0
				l-0.4000244,0.7000122l-1.2999878,2.2999878l-1.5,2.5999756l-17.4000244,30.0999756
				c-0.2000122,0.4000244-0.5999756,0.5999756-1.0999756,0.5999756H942c-0.4000244,0-0.9000244-0.2000122-1.0999756-0.5999756
				l-17.5999756-30.5l-1.5-2.5999756l-1-1.7999878l-1.0999756-1.9000244
				c-0.2000122-0.2999878-0.2999878-0.5999756-0.2999878-0.9000244
				c19.0999756-0.4000244,28.7999878-5.5999756,38.0999756-10.5999756c0.5999756-0.2999878,1.0999756-0.5999756,1.7000122-0.9000244
				c0.2000122-0.0999756,0.4000244-0.2000122,0.5999756-0.2999878l0.5999756-0.2999878l0,0
				c0.2000122-0.0999756,0.4000244-0.2000122,0.5999756-0.2999878c0.4000244-0.2000122,0.9000244-0.4000244,1.2999878-0.7000122
				c6.4000244-3.2000122,13.7000122-6.2000122,24.9000244-6.2999878h0.0999756
				c4.2999878,0,8.0999756,0.4000244,11.4000244,1.2000122l0.9000244,1.5l1.0999756,2l6.5,11.2000122l0.5999756,1
				C1008.2999878,608.2000122,1008.4000244,609,1008.2999878,609.7999878z"/>
			<path class="st27" d="M1008.2999878,609.7999878c-0.0999756,0.4000244-0.2000122,0.7999878-0.4000244,1.0999756l-0.5999756,1l0,0
				l-0.4000244,0.7000122l-1.2999878,2.2999878l-1.5,2.5999756l-17.4000244,30.0999756
				c-0.2000122,0.4000244-0.5999756,0.5999756-1.0999756,0.5999756H942c-0.4000244,0-0.9000244-0.2000122-1.0999756-0.5999756
				l-17.5999756-30.5l-1.5-2.5999756l-1-1.7999878c20.5-0.7000122,30.5-6.9000244,40.2999878-12.0999756l0,0
				c0.4000244-0.2000122,0.7999878-0.4000244,1.2000122-0.5999756c1-0.5,2.0999756-1.0999756,3.0999756-1.5999756
				c6-2.9000244,12.5-5,21.7999878-5c5.7000122,0,10.0999756,0.7000122,13.5,1.9000244l6.5,11.2000122l0.5999756,1
				C1008.2999878,608.2000122,1008.4000244,609,1008.2999878,609.7999878z"/>
			<path class="st28" d="M1008.2999878,609.7999878c-0.0999756,0.4000244-0.2000122,0.7999878-0.4000244,1.0999756l-0.5999756,1l0,0
				l-0.4000244,0.7000122l-1.2999878,2.2999878l-1.5,2.5999756l-17.4000244,30.0999756
				c-0.2000122,0.4000244-0.5999756,0.5999756-1.0999756,0.5999756H942c-0.4000244,0-0.9000244-0.2000122-1.0999756-0.5999756
				l-17.5999756-30.5l-1.5-2.5999756l-1-1.7999878l-1.0999756-1.9000244
				c-0.2000122-0.2999878-0.2999878-0.5999756-0.2999878-0.9000244c-0.2000122-0.7999878-0.0999756-1.5999756,0.2999878-2.4000244
				l7.7000122-13.2999878l0.7000122-1.0999756l1.2000122-2.0999756c2.5-0.4000244,5.0999756-0.5,8-0.5h0.0999756
				c11,0,18.5,3,25,6.2999878c0,0,0,0,0.0999756,0c0.4000244,0.2000122,0.7999878,0.4000244,1.2000122,0.5999756
				c0.5999756,0.2999878,1.2000122,0.5999756,1.7999878,1c0.5,0.2999878,1,0.5999756,1.5999756,0.7999878
				c9.7000122,5.0999756,19.7000122,10.5,40.0999756,10.5h0.2000122L1008.2999878,609.7999878z"/>
			<path class="st26" d="M1006.9000244,612.5999756l-1.2999878,2.2999878l-1.5,2.5999756l-15.5,26.7999878l-1.9000244,3.2999878
				c-0.2000122,0.4000244-0.5999756,0.5999756-1.0999756,0.5999756H942c-0.4000244,0-0.9000244-0.2000122-1.0999756-0.5999756
				L939,644.2999268l-15.7000122-27.2000122l-1.5-2.5999756l-1-1.7999878l-1.0999756-1.9000244
				c-0.2000122-0.2999878-0.2999878-0.5999756-0.2999878-0.9000244c-0.2000122-0.7999878-0.0999756-1.5999756,0.2999878-2.4000244
				l7.7000122-13.2999878c2.7999878-0.5999756,6-0.9000244,9.9000244-0.9000244c9.2999878,0,15.9000244,2.2000122,22,5.0999756
				c0.5999756,0.2999878,1.2999878,0.5999756,1.9000244,0.9000244c0.4000244,0.2000122,0.7999878,0.4000244,1.2000122,0.5999756
				C973,605.5,983.5,612.5,1006.9000244,612.5999756z"/>
			<path class="st27" d="M1008.2999878,609.7999878c-0.0999756,0.4000244-0.2000122,0.7999878-0.4000244,1.0999756l-0.5999756,1l0,0
				l-0.4000244,0.7000122l-1.2999878,2.2999878l-1.5,2.5999756l-17.4000244,30.0999756
				c-0.2000122,0.4000244-0.5999756,0.5999756-1.0999756,0.5999756h-16l19.9000244-34.5l1.4000244-2.4000244l0,0l1.2000122-2
				l-0.4000244-0.7000122l-8.4000244-14.5L983,593.6998291l-1.2000122-2.2000122l-0.2999878-0.5
				c1.7999878-0.2000122,3.7000122-0.2999878,5.7000122-0.2999878h0.0999756c4.2999878,0,8.0999756,0.4000244,11.4000244,1.2000122
				l0.9000244,1.5l1.0999756,2l6.5,11.2000122l0.5999756,1C1008.2999878,608.2000122,1008.4000244,609,1008.2999878,609.7999878z"/>
			<path class="st29" d="M1008.2999878,609.7999878c-0.0999756,0.4000244-0.2000122,0.7999878-0.4000244,1.0999756l-0.5999756,1l0,0
				l-0.4000244,0.7000122l-1.2999878,2.2999878l-1.5,2.5999756l-17.4000244,30.0999756
				c-0.2000122,0.4000244-0.5999756,0.5999756-1.0999756,0.5999756h-16l19.9000244-34.5l1.4000244-2.4000244l0,0l1.2000122-2
				l-0.4000244-0.7000122l-8.4000244-14.5L983,593.6998291c1.2999878-0.0999756,2.7000122-0.2000122,4.0999756-0.2000122
				c5.7000122,0,10.0999756,0.7000122,13.5,1.9000244l6.5,11.2000122l0.5999756,1
				C1008.2999878,608.2000122,1008.4000244,609,1008.2999878,609.7999878z"/>
			<path class="st26" d="M1008.2999878,609.7999878c-0.0999756,0.4000244-0.2000122,0.7999878-0.4000244,1.0999756l-0.5999756,1l0,0
				l-0.4000244,0.7000122l-1.2999878,2.2999878l-1.5,2.5999756l-17.4000244,30.0999756
				c-0.2000122,0.4000244-0.5999756,0.5999756-1.0999756,0.5999756h-16l19.9000244-34.5l1.4000244-2.4000244l0,0l1.2000122-2
				l-0.4000244-0.7000122c4.4000244,0.7999878,9.4000244,1.2000122,15.2999878,1.2000122h0.2000122L1008.2999878,609.7999878z"/>
			<path class="st27" d="M1006.9000244,612.5999756l-1.2999878,2.2999878l-1.5,2.5999756l-15.5,26.7999878l-1.9000244,3.2999878
				c-0.2000122,0.4000244-0.5999756,0.5999756-1.0999756,0.5999756h-16l2.2999878-3.9000244L989.5,613.6998901l1.4000244-2.4000244
				C995.5999756,612.0999756,1000.7999878,612.5999756,1006.9000244,612.5999756z"/>
			<circle class="st27" cx="945.7000122" cy="638.5" r="2.7999878"/>
			<circle class="st27" cx="951.7000122" cy="640.7999878" r="1.5"/>
			<circle class="st27" cx="944.9000244" cy="621.0999756" r="1.7000122"/>
			<circle class="st27" cx="949.4000244" cy="609.2999878" r="6.7999878"/>
			<circle class="st27" cx="935.2999878" cy="615.2000122" r="4"/>
			<path class="st30" d="M942.9000244,634.0999756c-1.2999878,0.7999878-3,0.2999878-3.7999878-1l-11.9000244-20.4000244
				c-1.2000122-2.2000122-1.2000122-4.7999878,0-7l7.2000122-12.5c0.7999878-1.2999878,2.4000244-1.7999878,3.7999878-1l0,0
				c1.2999878,0.7999878,1.7999878,2.4000244,1,3.7999878L932,608.3999634c-0.2999878,0.5-0.2999878,1.2000122,0,1.7000122
				l11.7999878,20.2000122C944.7000122,631.7000122,944.2000122,633.4000244,942.9000244,634.0999756z"/>
			<path class="st18" d="M946.2000122,583.5999756l-2.5,4.2999878c-0.5,0.7999878-1.4000244,1.4000244-2.4000244,1.4000244
				c-0.5,0-1-0.0999756-1.4000244-0.4000244c-1.2999878-0.7999878-1.7999878-2.4000244-1-3.7000122l2.5-4.2999878
				c0.5-0.7999878,1.4000244-1.4000244,2.4000244-1.4000244c0.5,0,1,0.0999756,1.4000244,0.4000244
				c0.5999756,0.4000244,1.0999756,1,1.2999878,1.7000122C946.7000122,582.2000122,946.5999756,583,946.2000122,583.5999756z"/>
			<circle class="st27" cx="976.2999878" cy="618.2000122" r="4.0999756"/>
			<circle class="st27" cx="969.2000122" cy="624.7000122" r="2.0999756"/>
			<circle class="st27" cx="970.7000122" cy="630.7999878" r="1.2000122"/>
			<path class="st27" d="M988.5999756,644.2999878l-1.9000244,3.2999878
				c-0.2000122,0.4000244-0.5999756,0.5999756-1.0999756,0.5999756H942c-0.4000244,0-0.9000244-0.2000122-1.0999756-0.5999756
				L939,644.2999878H988.5999756z"/>
			<path class="st29" d="M988.5999756,644.2999878l-1.9000244,3.2999878
				c-0.2000122,0.4000244-0.5999756,0.5999756-1.0999756,0.5999756h-16l2.2999878-3.9000244h16.7000122V644.2999878z"/>
		</g>
		<path class="st17" d="M1013.4000244,607.7000122l-23.5-40.5999756c-0.5-0.9000244-1.5-1.5-2.5999756-1.5h-4.9000244v-5.5
			h3.7999878c0.7999878,0,1.5999756-0.2999878,2.0999756-0.9000244s0.9000244-1.2999878,0.9000244-2.0999756v-9.7000122
			c0-1.5999756-1.2999878-2.9000244-2.9000244-3h-1.9000244l0,0h-4.0999756v-2c0-0.9000244-0.7999878-1.5999756-1.9000244-1.5999756
			h-6l0,0H964l0,0h-14.7000122c-1,0-1.9000244,0.7000122-1.9000244,1.5999756v2h-5.9000244c-0.7999878,0-1.5,0.2999878-2,0.7999878
			l0,0c0,0-0.0999756,0-0.0999756,0.0999756c0,0,0,0,0,0.0999756c-0.5,0.5999756-0.7999878,1.2999878-0.7999878,2.0999756v9.7000122
			c0,0.7000122,0.2000122,1.4000244,0.5,1.9000244c0.2000122,0.2999878,0.4000244,0.5,0.7000122,0.7000122
			c0.4000244,0.2999878,0.9000244,0.4000244,1.4000244,0.4000244h4.0999756v5.5H940.5
			c-1.0999756,0-2.0999756,0.5999756-2.5999756,1.5l-23.5,40.5999756c-0.5,0.9000244-0.5,2.0999756,0,3l23.5,40.5999756
			c0.5,0.9000244,1.5,1.5,2.5999756,1.5h24.9000244h8.7000122h13.4000244c1.0999756,0,2.0999756-0.5999756,2.5999756-1.5
			l23.5-40.5999756C1013.9000244,609.7999878,1013.9000244,608.5999756,1013.4000244,607.7000122z M965.4000244,565.5999756
			L965.4000244,565.5999756h-0.2000122h-1H965.4000244z"/>
	</g>
</g>
</svg>
