<?xml version="1.0" encoding="utf-8"?>
<!-- Generator: Adobe Illustrator 22.1.0, SVG Export Plug-In . SVG Version: 6.00 Build 0)  -->
<svg version="1.1" id="Layer_1" xmlns="http://www.w3.org/2000/svg" xmlns:xlink="http://www.w3.org/1999/xlink" x="0px" y="0px"
	 viewBox="0 0 1920 1080" style="enable-background:new 0 0 1920 1080;" xml:space="preserve">
<style type="text/css">
	.st0{fill:#381818;}
	.st1{fill:#492020;}
	.st2{fill:#C4E5DC;}
	.st3{fill:#DDEEDB;}
	.st4{fill:#F3F7DE;}
	.st5{fill:#AADCD9;}
	.st6{fill:#9ED3D7;}
	.st7{opacity:0.2;fill:#FFFFFF;}
	.st8{fill:#2D2D2D;}
	.st9{fill:#1E1E1E;}
	.st10{fill:#373737;}
	.st11{fill:#141414;}
	.st12{fill:#F1F5D7;}
	.st13{fill:#D6EBD4;}
	.st14{fill:#B8E0D5;}
	.st15{opacity:0.15;fill:#FFFFFF;}
	.st16{opacity:0.4;fill:#464151;enable-background:new    ;}
	.st17{opacity:0.81;fill:#F3F7DE;}
	.st18{opacity:0.81;fill:#AADCD9;}
	.st19{fill:#FFDC00;}
	.st20{fill:#FFBE00;}
	.st21{fill:#FFF000;}
	.st22{fill:#EDA80F;}
	.st23{opacity:0.4;fill:#FFFFFF;}
	.st24{fill:#FFB957;}
	.st25{fill:#F7914F;}
	.st26{fill:#FFD889;}
	.st27{fill:#F26F51;}
	.st28{fill:#FEC763;}
	.st29{opacity:0.3;fill:#FFFFFF;}
	.st30{fill:#F99D5C;}
</style>
<g>
	<rect x="733.7999878" y="460.7000122" class="st0" width="456.000061" height="619.2999878"/>
	<path class="st1" d="M1191,411.7000122c-3.9000244,0-7.4000244,1.6000061-10,4.1000061s-4.0999756,6.1000061-4.0999756,10
		v22.1000061H743.0999756v-22.1000061c0-7.7999878-6.2999878-14.1000061-14.0999756-14.1000061
		c-3.9000244,0-7.4000244,1.6000061-10,4.1000061c-2.5,2.5-4.0999756,6.1000061-4.0999756,10V1080h28.2000122V887.9000244
		h433.7999878V1080h28.1999512V425.7999878C1205.0999756,418,1198.8000488,411.7000122,1191,411.7000122z M1176.9000244,476
		v176.7999878H743.0999756V476H1176.9000244z M743.0999756,859.7000122V681h433.7999268v178.7000122H743.0999756z"/>
</g>
<g>
	<g>
		<path class="st2" d="M1139.026123,591.1524048l-16.4730225,56.8522339
			c-0.8140869,2.805481-3.4204102,4.7637329-6.3411865,4.7637329h-31.6395264c-2.9207764,0-5.5270996-1.958252-6.3410645-4.7637329
			l-16.4731445-56.8522339c-0.6236572-2.1555786-0.3300781-4.501709,0.8070068-6.4371948l12.0552979-20.5205688
			c1.2839355-2.1853638,3.657959-3.5444336,6.192627-3.5444336h39.1580811c2.534668,0,4.9086914,1.3572998,6.192749,3.5444336
			l12.0551758,20.5205688C1139.3563232,586.6506958,1139.6497803,588.9968262,1139.026123,591.1524048z"/>
		<path class="st3" d="M1128.020752,591.1524048l-16.4730225,56.8522339
			c-0.8139648,2.805481-3.4204102,4.7637329-6.3411865,4.7637329h-20.6341553c-2.9207764,0-5.5270996-1.958252-6.3410645-4.7637329
			l-16.4731445-56.8522339c-0.6236572-2.1555786-0.3300781-4.501709,0.8070068-6.4371948l12.0552979-20.5205688
			c1.2839355-2.1853638,3.657959-3.5444336,6.192627-3.5444336h28.15271c2.534668,0,4.9088135,1.3572998,6.192749,3.5444336
			l12.0551758,20.5205688C1128.3509521,586.6506958,1128.6444092,588.9968262,1128.020752,591.1524048z"/>
		<path class="st4" d="M1120.0428467,591.1524048l-16.4731445,56.8522339
			c-0.8122559,2.805481-3.4202881,4.7637329-6.3411865,4.7637329h-12.6561279c-2.9207764,0-5.5270996-1.958252-6.3410645-4.7637329
			l-16.4731445-56.8522339c-0.6236572-2.1555786-0.3300781-4.501709,0.8070068-6.4371948l12.0552979-20.5205688
			c1.2839355-2.1853638,3.657959-3.5444336,6.192627-3.5444336h20.1748047c2.536377,0,4.9086914,1.3572998,6.192627,3.5444336
			l12.0568848,20.5205688C1120.3729248,586.6506958,1120.6682129,588.9968262,1120.0428467,591.1524048z"/>
		<path class="st5" d="M1134.8302002,589.9365845l-2.1137695,7.2949829l-0.7808838,2.6954346l-13.5784912,46.8618164
			c-0.276001,0.9555054-1.1512451,1.6123657-2.1451416,1.6123657h-31.6395264c-0.9938965,0-1.8691406-0.6568604-2.1451416-1.6123657
			l-13.2518311-45.7385864l-1.2525635-4.3234863l-1.9686279-6.7901611c-0.293457-1.0114136-0.1572266-2.0997314,0.3756104-3.0081177
			l0.6252441-1.0638428l1.973999-3.3592529l9.4576416-16.0992432c0.5048828-0.859436,1.4289551-1.3887329,2.4263916-1.3887329
			h39.1580811c0.9974365,0,1.9215088,0.5292969,2.4263916,1.3887329l8.6103516,14.6563721l1.8481445,3.1460571l1.5985107,2.7199097
			C1134.9873047,587.836853,1135.1236572,588.9251709,1134.8302002,589.9365845z"/>
		<path class="st6" d="M1134.8326416,589.9365845l-16.4730225,56.8522339
			c-0.006958,0.0261841-0.0157471,0.0523682-0.0262451,0.0768433c-0.001709,0.008728-0.005249,0.015686-0.0087891,0.0244751
			c-0.012207,0.0454102-0.0296631,0.0890503-0.0488281,0.1310425c-0.006958,0.019165-0.0157471,0.0383911-0.0228271,0.0558472
			c-0.0137939,0.0349731-0.0313721,0.0681763-0.0488281,0.1013184c-0.0384521,0.0768433-0.0821533,0.1520386-0.1309814,0.2235718
			c-0.0157471,0.0279541-0.0367432,0.0559692-0.0577393,0.0838623c-0.0418701,0.0576782-0.0872803,0.1135864-0.1362305,0.1676636
			c-0.019165,0.0227661-0.0384521,0.0437012-0.0594482,0.0664673c-0.0401611,0.0418701-0.0837402,0.0820313-0.1274414,0.1222534
			c-0.0332031,0.0296631-0.0698242,0.0611572-0.1065674,0.0873413c-0.3825684,0.2987061-0.8612061,0.4716797-1.3730469,0.4716797
			h-12.7713623c0.0471191-0.1310425,0.0906982-0.2620239,0.1292725-0.3965454l14.3470459-49.5118408l0.7283936-2.5119629
			l1.399292-4.8284302c0.6254883-2.1555786,0.3283691-4.501709-0.8070068-6.4371948l-0.9677734-1.6473389l-1.4604492-2.4857788
			l-9.1431885-15.5646973h12.3050537c0.9992676,0,1.9216309,0.5292969,2.4282227,1.3887329l8.6085205,14.6563721
			l1.8482666,3.1460571l1.5983887,2.7199097c0.0645752,0.1118164,0.1240234,0.2253418,0.1781006,0.3424072
			c0.0892334,0.1939087,0.1624756,0.3930664,0.2166748,0.5974731
			C1135.0335693,588.5408325,1135.0300293,589.2553101,1134.8326416,589.9365845z"/>
		<path class="st7" d="M1065.9467773,589.9365845l16.4731445,56.8522339c0.27771,0.9555054,1.151123,1.6123657,2.1469727,1.6123657
			h12.7713623c-0.0471191-0.1310425-0.0908203-0.2620239-0.1292725-0.3965454l-16.4747314-56.8522339
			c-0.6254883-2.1555786-0.3284912-4.501709,0.8070068-6.4371948l11.5712891-19.6978149h-12.3049316
			c-0.9992676,0-1.9216309,0.5292969-2.4282227,1.3887329l-12.0551758,20.5223389
			C1065.7895508,587.836853,1065.6534424,588.9251709,1065.9467773,589.9365845z"/>
		<path class="st8" d="M1134.8302002,589.9365845l-2.1137695,7.2949829l-0.7808838,2.6954346l-13.5784912,46.8618164
			c-0.276001,0.9555054-1.1512451,1.6123657-2.1451416,1.6123657h-31.6395264c-0.9938965,0-1.8691406-0.6568604-2.1451416-1.6123657
			l-13.2518311-45.7385864l-1.2525635-4.3234863l0.7652588-0.0594482
			c13.3094482-1.0166626,20.7249756-4.9890137,27.894043-8.8321533c0.6604004-0.3529053,1.3137207-0.7022705,1.967041-1.0481567
			c0.4157715-0.2201538,0.8122559-0.4262695,1.1914063-0.6218872c1.3486328-0.6970215,2.4892578-1.2559814,3.5932617-1.7590942
			c4.1925049-1.9128418,10.1231689-4.1104126,18.8453369-4.1260986h0.0751953c3.2509766,0,6.1402588,0.2567139,8.75354,0.7825928
			l1.8481445,3.1460571l1.5985107,2.7199097C1134.9873047,587.836853,1135.1236572,588.9251709,1134.8302002,589.9365845z"/>
		<path class="st9" d="M1134.8302002,589.9365845l-2.8946533,9.9904175l-13.5784912,46.8618164
			c-0.276001,0.9555054-1.1512451,1.6123657-2.1451416,1.6123657h-31.6395264c-0.9938965,0-1.8691406-0.6568604-2.1451416-1.6123657
			l-13.2518311-45.7385864l-0.288208-1.7695313c15.1140137-1.1547241,23.0605469-6.0407104,30.8865967-10.1773682
			c1.5372314-0.8122559,3.0692139-1.5931396,4.6484375-2.3146362c4.9139404-2.2412109,10.3012695-3.8745728,17.762207-3.8884888
			c4.3846436-0.0053101,7.8557129,0.4890747,10.6716309,1.3083496l1.5985107,2.7199097
			C1134.9873047,587.836853,1135.1236572,588.9251709,1134.8302002,589.9365845z"/>
		<path class="st10" d="M1132.7164307,597.2315674l-0.7808838,2.6954346l-13.5784912,46.8618164
			c-0.276001,0.9555054-1.1512451,1.6123657-2.1451416,1.6123657h-31.6395264c-0.9938965,0-1.8691406-0.6568604-2.1451416-1.6123657
			l-13.2518311-45.7385864l-1.2525635-4.3234863l-1.9686279-6.7901611c-0.293457-1.0114136-0.1572266-2.0997314,0.3756104-3.0081177
			l0.6252441-1.0638428l1.973999-3.3592529c3.0169678-0.7703857,6.4320068-1.1511841,10.3503418-1.1564331h0.0943604
			c6.4337158,0,11.8874512,1.1075439,17.6871338,3.5916138c0.845459,0.3598022,1.7310791,0.7651367,2.6796875,1.2245483
			c0.3930664,0.1886597,0.7965088,0.3895874,1.2122803,0.5991821c1.9442139,0.9765015,3.7994385,2.1049805,5.7630615,3.2998047
			c5.9759521,3.6317749,12.1547852,7.3893433,21.7642822,7.3893433c1.0516357,0,2.1417236-0.0454102,3.2370605-0.1380005
			L1132.7164307,597.2315674z"/>
		<path class="st8" d="M1131.9362793,599.927002l-12.8902588,44.4860229l-0.6882324,2.3757935
			c-0.276001,0.9555054-1.151123,1.6123657-2.1451416,1.6123657h-31.6394043c-0.9940186,0-1.8692627-0.6568604-2.1451416-1.6123657
			l-0.6883545-2.3757935l-12.5635986-43.362793l-3.2211914-11.1136475
			c-0.2935791-1.0114136-0.1572266-2.0997314,0.3754883-3.0081177l0.6254883-1.0638428
			c3.0797119-1.1546631,7.0397949-1.8883667,12.3277588-1.8953247c6.9455566-0.0122681,12.097168,1.3887329,16.7454834,3.380188
			c1.2769775,0.5432739,2.5155029,1.133728,3.7453613,1.7538452
			C1108.1595459,593.3203125,1116.0869141,601.2493896,1131.9362793,599.927002z"/>
		<circle class="st9" cx="1089.8977051" cy="634.7615356" r="3.7266753"/>
		<circle class="st9" cx="1098.2099609" cy="639.2451782" r="1.8342229"/>
		<path class="st9" d="M1134.8308105,589.9365845l-2.1136475,7.2949829l-0.7808838,2.6954346l-13.5784912,46.8618164
			c-0.006958,0.0261841-0.015625,0.0506592-0.0244141,0.0768433c-0.001709,0.008728-0.005249,0.015686-0.0087891,0.0244751
			c-0.013916,0.0437012-0.0296631,0.0890503-0.0488281,0.1310425c-0.006958,0.019165-0.0157471,0.0383911-0.0228271,0.0558472
			c-0.015625,0.0349731-0.0313721,0.0681763-0.0488281,0.1013184c-0.0384521,0.0768433-0.0821533,0.1520386-0.1309814,0.2235718
			c-0.0174561,0.0296631-0.0367432,0.0559692-0.0577393,0.0838623c-0.0418701,0.0576782-0.0872803,0.1135864-0.1362305,0.1676636
			c-0.019165,0.0227661-0.0384521,0.0437012-0.0594482,0.0664673c-0.0401611,0.0418701-0.0837402,0.0820313-0.1274414,0.1222534
			c-0.0332031,0.0296631-0.0698242,0.0611572-0.1065674,0.0873413c-0.3825684,0.2987061-0.8612061,0.4716797-1.3730469,0.4716797
			h-12.7713623c0.0471191-0.1310425,0.0906982-0.2620239,0.1292725-0.3965454l14.3470459-49.5118408l0.7283936-2.5119629
			l1.399292-4.8284302c0.6254883-2.1555786,0.3283691-4.501709-0.8070068-6.4371948l-0.9677734-1.6473389l-1.4604492-2.4857788
			c1.6612549-0.1886597,3.4483643-0.2987061,5.369873-0.3021851h0.0751953c3.2508545,0,6.1402588,0.2567139,8.75354,0.7825928
			l1.8482666,3.1460571l1.5983887,2.7199097c0.0645752,0.1118164,0.1240234,0.2253418,0.1781006,0.3424072
			c0.0892334,0.1939087,0.1607666,0.3930664,0.2166748,0.5974731
			C1135.0318604,588.5408325,1135.0283203,589.2553101,1134.8308105,589.9365845z"/>
		<circle class="st9" cx="1077.5710449" cy="600.6864014" r="5.590013"/>
		<circle class="st9" cx="1086.2382813" cy="591.3810425" r="2.8532357"/>
		<path class="st11" d="M1134.8308105,589.9365845l-2.1136475,7.2949829l-0.7808838,2.6954346l-13.5784912,46.8618164
			c-0.006958,0.0261841-0.015625,0.0506592-0.0244141,0.0768433c-0.001709,0.008728-0.005249,0.015686-0.0087891,0.0244751
			c-0.013916,0.0437012-0.0296631,0.0890503-0.0488281,0.1310425c-0.006958,0.019165-0.0157471,0.0383911-0.0228271,0.0558472
			c-0.015625,0.0349731-0.0313721,0.0681763-0.0488281,0.1013184c-0.0384521,0.0768433-0.0821533,0.1520386-0.1309814,0.2235718
			c-0.0174561,0.0296631-0.0367432,0.0559692-0.0577393,0.0838623c-0.0418701,0.0576782-0.0872803,0.1135864-0.1362305,0.1676636
			c-0.019165,0.0227661-0.0384521,0.0437012-0.0594482,0.0664673c-0.0401611,0.0418701-0.0837402,0.0820313-0.1274414,0.1222534
			c-0.0332031,0.0296631-0.0698242,0.0611572-0.1065674,0.0873413c-0.3825684,0.2987061-0.8612061,0.4716797-1.3730469,0.4716797
			h-12.7713623c0.0471191-0.1310425,0.0906982-0.2620239,0.1292725-0.3965454l14.3470459-49.5118408l0.7283936-2.5119629
			l1.399292-4.8284302c0.6254883-2.1555786,0.3283691-4.501709-0.8070068-6.4371948l-0.9677734-1.6473389
			c1.2420654-0.1082764,2.543457-0.1659546,3.9147949-0.1676636c4.3846436-0.0053101,7.8555908,0.4890747,10.6716309,1.3083496
			l1.5983887,2.7199097c0.0645752,0.1118164,0.1240234,0.2253418,0.1781006,0.3424072
			c0.0892334,0.1939087,0.1607666,0.3930664,0.2166748,0.5974731
			C1135.0318604,588.5408325,1135.0283203,589.2553101,1134.8308105,589.9365845z"/>
		<path class="st8" d="M1132.7171631,597.2315674l-0.7808838,2.6954346l-13.5784912,46.8618164
			c-0.006958,0.0261841-0.015625,0.0506592-0.0244141,0.0768433c-0.001709,0.008728-0.005249,0.015686-0.0087891,0.0244751
			c-0.013916,0.0437012-0.0296631,0.0890503-0.0488281,0.1310425c-0.006958,0.019165-0.0157471,0.0383911-0.0228271,0.0558472
			c-0.015625,0.0349731-0.0313721,0.0681763-0.0488281,0.1013184c-0.0384521,0.0768433-0.0821533,0.1520386-0.1309814,0.2235718
			c-0.0174561,0.0296631-0.0367432,0.0559692-0.0577393,0.0838623c-0.0418701,0.0576782-0.0872803,0.1135864-0.1362305,0.1676636
			c-0.019165,0.0227661-0.0384521,0.0437012-0.0594482,0.0664673c-0.0401611,0.0418701-0.0837402,0.0820313-0.1274414,0.1222534
			c-0.0332031,0.0296631-0.0698242,0.0611572-0.1065674,0.0873413c-0.3825684,0.2987061-0.8612061,0.4716797-1.3730469,0.4716797
			h-12.7713623c0.0471191-0.1310425,0.0906982-0.2620239,0.1292725-0.3965454l14.3470459-49.5118408l0.7283936-2.5119629
			c2.8876953,0.9048462,6.1036377,1.4725952,9.8349609,1.4725952c1.0516357,0,2.1417236-0.0454102,3.2369385-0.1380005
			L1132.7171631,597.2315674z"/>
		<path class="st9" d="M1131.9362793,599.927002l-12.8902588,44.4860229l-0.6882324,2.3757935
			c-0.006958,0.0261841-0.015625,0.0506592-0.0244141,0.0768433c-0.001709,0.008728-0.005249,0.015686-0.0087891,0.0244751
			c-0.013916,0.0437012-0.0296631,0.0890503-0.0488281,0.1310425c-0.006958,0.019165-0.0157471,0.0383911-0.0228271,0.0558472
			c-0.015625,0.0349731-0.0313721,0.0681763-0.0488281,0.1013184c-0.0384521,0.0768433-0.0821533,0.1520386-0.1309814,0.2235718
			c-0.0174561,0.0296631-0.0367432,0.0559692-0.0577393,0.0838623c-0.0418701,0.0576782-0.0872803,0.1135864-0.1362305,0.1676636
			c-0.019165,0.0227661-0.0384521,0.0437012-0.0594482,0.0664673c-0.0401611,0.0418701-0.0837402,0.0820313-0.1274414,0.1222534
			c-0.0332031,0.0296631-0.0698242,0.0611572-0.1065674,0.0873413c-0.3825684,0.2987061-0.8612061,0.4716797-1.3730469,0.4716797
			h-12.7713623c0.0471191-0.1310425,0.0906982-0.2620239,0.1292725-0.3965454l1.0410156-3.5916138l13.3060303-45.9202271
			C1121.8656006,599.7278442,1126.4213867,600.3864136,1131.9362793,599.927002z"/>
		<g>
			<polygon class="st12" points="1115.0366211,560.651001 1109.5025635,560.663208 1100.7122803,560.6824341 
				1099.0596924,560.6859131 1083.0461426,560.7121582 1083.0560303,555.5357666 1115.8996582,555.5377808 			"/>
			<path class="st13" d="M1114.6768799,555.5631714l0.010376,5.1364746l-1.690918,0.0122681l-11.0612793,0.0194092
				c-0.5412598,0-0.9555664-0.7159424-0.9572754-1.458252l-0.005249-2.2753296
				c-0.001709-0.8161621,0.4979248-1.4605713,1.116333-1.4605713c0,0,9.4211426-0.0014038,9.4436035-0.0014038
				C1111.5324707,555.5469971,1114.6768799,555.5631714,1114.6768799,555.5631714z"/>
			<path class="st14" d="M1117.6569824,560.7015991l-7.8050537,0.012207c-0.5170898,0-0.8908691-0.7232056-0.8925781-1.425415
				l-0.005249-2.2832031c0-0.7808228,0.4608154-1.4673462,1.0585938-1.4673462c0.0192871,0,7.6337891-0.00177,7.6337891-0.00177
				L1117.6569824,560.7015991z"/>
		</g>
		<g>
			<path class="st12" d="M1115.7412109,538.9991455v3.7837524c0,0.8000488-0.7860107,1.4551392-1.7468262,1.4551392h-27.1359863
				c-0.9608154,0-1.7469482-0.6550903-1.7469482-1.4551392v-3.7837524c0-0.8018188,0.7861328-1.4568481,1.7469482-1.4568481
				h27.1359863C1114.9552002,537.5422974,1115.7412109,538.1973267,1115.7412109,538.9991455z"/>
			<path class="st14" d="M1115.7412109,538.9991455v3.7837524c0,0.8000488-0.7860107,1.4551392-1.7468262,1.4551392h-6.4864502
				c-0.9608154,0-1.7469482-0.6550903-1.7469482-1.4551392v-3.7837524c0-0.8018188,0.7861328-1.4568481,1.7469482-1.4568481
				h6.4864502C1114.9552002,537.5422974,1115.7412109,538.1973267,1115.7412109,538.9991455z"/>
			<path class="st13" d="M1110.1514893,538.9985962v3.7836914c0,0.8001099-0.7860107,1.4552002-1.7468262,1.4552002h-7.8330078
				c0.9608154,0,1.7468262-0.6550903,1.7468262-1.4552002v-3.7836914c0-0.8018188-0.7860107-1.4569092-1.7468262-1.4569092
				h7.8330078C1109.3654785,537.541687,1110.1514893,538.1967773,1110.1514893,538.9985962z"/>
			<path class="st4" d="M1122.2556152,552.7229004c0.0018311,0.7511597-0.289917,1.4586182-0.8192139,1.9896851
				s-1.2351074,0.8245239-1.9862061,0.8262939h-40.2114258c-0.5187988,0-0.9660645-0.1345215-1.3293457-0.3738403
				c-0.2515869-0.1641846-0.4630127-0.3773193-0.6306152-0.6306152c-0.3144531-0.4681396-0.4804688-1.0690918-0.4821777-1.7346802
				l-0.0140381-9.031311c-0.001709-0.7302246,0.272583-1.416748,0.7756348-1.9407959
				c0.0140381-0.0157471,0.0279541-0.0314331,0.0437012-0.0471802c0.0227051-0.0227051,0.0454102-0.0454102,0.0699463-0.0663452
				l0.0313721-0.0314941c0.5153809-0.4769287,1.1791992-0.7878418,1.8831787-0.7896118h39.9754639
				c1.5024414,0.0664063,2.6762695,1.2962036,2.6779785,2.7985229L1122.2556152,552.7229004z"/>
			<path class="st2" d="M1124.001709,552.7236328c0.001709,0.7511597-0.2900391,1.4586182-0.8193359,1.9896851
				s-1.2349854,0.8245239-1.9862061,0.8262939h-18.4155273c0.0540771,0,0.1082764-0.00177,0.1623535-0.005249h0.0070801
				c0.0540771-0.00354,0.1065674-0.007019,0.1589355-0.015686c0.001709,0.0016479,0.005249,0.0016479,0.006958,0
				c0.6236572-0.0751953,1.2019043-0.3546753,1.6508789-0.8053589c0.5291748-0.5310669,0.8209229-1.2385254,0.8192139-1.9896851
				l-0.001709-1.4970703v-0.0139771l-0.010498-5.918457v-0.015686l-0.001709-1.5861816
				c-0.0018311-1.5023804-1.1774902-2.7321167-2.6798096-2.7985229h18.4156494
				c1.5023193,0.0664063,2.6779785,1.2961426,2.6796875,2.7985229L1124.001709,552.7236328z"/>
			<path class="st3" d="M1112.7410889,552.7229004c0.001709,0.7511597-0.2900391,1.4586182-0.8193359,1.9896851
				s-1.2349854,0.8245239-1.9862061,0.8262329h-7.7600098c0.7512207-0.001709,1.4569092-0.295166,1.9862061-0.8262329
				c0.5294189-0.5310669,0.8071289-1.2385254,0.8052979-1.9896851v-9.0313721
				c-0.001709-1.5023193-1.1773682-2.7321167-2.6796875-2.7985229h7.7600098
				c1.5023193,0.0664063,2.6779785,1.2962036,2.6796875,2.7985229L1112.7410889,552.7229004z"/>
			<path class="st5" d="M1117.8919678,550.0204468c0,0.6446533-0.5206299,1.1687012-1.1669922,1.1704712l-11.7564697,0.022644
				l-3.7470703,0.005249h-0.4978027l-18.4051514,0.0297241c-0.6463623,0.001709-1.1685791-0.5205688-1.1704102-1.1669312
				l-0.005249-3.5968018c-0.001709-0.6445923,0.5206299-1.1687012,1.1651611-1.1704102l16.328125-0.0261841l2.5853271-0.00354
				l3.7470703-0.005249l11.7478027-0.0227051c0.4506836-0.001709,0.8419189,0.2533569,1.0358887,0.6271362
				c0.0174561,0.0314331,0.0332031,0.0646362,0.0471191,0.0996094c0.0140381,0.0296631,0.0245361,0.0593262,0.0350342,0.0925903
				c0.0330811,0.1100464,0.0523682,0.2271118,0.0523682,0.3475952L1117.8919678,550.0204468z"/>
			<path class="st6" d="M1117.8919678,550.0204468c0,0.6446533-0.5206299,1.1687012-1.1669922,1.1704712l-11.7575684,0.022644
				l-0.0004883-5.9341431l11.7493896-0.0227051c0.4506836-0.001709,0.8419189,0.2533569,1.0358887,0.6271362
				c0.0174561,0.0314331,0.0332031,0.0646362,0.0471191,0.0996094c0.0140381,0.0296631,0.0245361,0.0593262,0.0350342,0.0925903
				c0.0330811,0.1100464,0.0523682,0.2271118,0.0523682,0.3475952L1117.8919678,550.0204468z"/>
		</g>
		<path class="st9" d="M1119.0460205,644.4130249l-0.6882324,2.3757935c-0.276001,0.9555054-1.151123,1.6123657-2.1451416,1.6123657
			h-31.6394043c-0.9940186,0-1.8692627-0.6568604-2.1451416-1.6123657l-0.6883545-2.3757935H1119.0460205z"/>
		<path class="st11" d="M1119.0460205,644.4130249l-0.6882324,2.3757935
			c-0.006958,0.0261841-0.015625,0.0506592-0.0244141,0.0768433c-0.001709,0.008728-0.005249,0.015686-0.0087891,0.0244751
			c-0.013916,0.0437012-0.0296631,0.0890503-0.0488281,0.1310425c-0.006958,0.019165-0.0157471,0.0383911-0.0228271,0.0558472
			c-0.015625,0.0349731-0.0313721,0.0681763-0.0488281,0.1013184c-0.0384521,0.0768433-0.0821533,0.1520386-0.1309814,0.2235718
			c-0.0174561,0.0296631-0.0367432,0.0559692-0.0577393,0.0838623c-0.0418701,0.0576782-0.0872803,0.1135864-0.1362305,0.1676636
			c-0.019165,0.0227661-0.0384521,0.0437012-0.0594482,0.0664673c-0.0401611,0.0418701-0.0837402,0.0820313-0.1274414,0.1222534
			c-0.0332031,0.0296631-0.0698242,0.0611572-0.1065674,0.0873413c-0.3825684,0.2987061-0.8612061,0.4716797-1.3730469,0.4716797
			h-12.7713623c0.0471191-0.1310425,0.0906982-0.2620239,0.1292725-0.3965454l1.0410156-3.5916138H1119.0460205z"/>
		<path class="st15" d="M1073.9414063,589.081665L1073.9414063,589.081665
			c1.3605957-0.3922119,2.7814941,0.3927612,3.1737061,1.7532959l9.6213379,33.3737793
			c0.3922119,1.3605347-0.3927002,2.7814941-1.7532959,3.1737061l0,0c-1.3605957,0.3922119-2.7814941-0.3927612-3.1737061-1.7532959
			l-9.6213379-33.3737793C1071.7958984,590.8947754,1072.5809326,589.473877,1073.9414063,589.081665z"/>
		<path class="st15" d="M1088.8670654,631.6099854l1.8482666,6.4091187
			c0.3914795,1.3598633-0.3930664,2.7803955-1.7545166,3.1726074c-1.2579346,0.3632813-2.5679932-0.2822876-3.0686035-1.4570923
			c-0.0192871-0.0449829-0.0367432-0.0906372-0.0527344-0.1370239l-0.003418-0.0079956l-1.855835-6.4401245
			c-0.3922119-1.3615112,0.392334-2.7820435,1.7539063-3.1742554
			C1087.0533447,629.5953369,1088.4304199,630.3225098,1088.8670654,631.6099854z"/>
		<circle class="st9" cx="1106.4638672" cy="607.1317139" r="5.590013"/>
		<circle class="st9" cx="1111.4716797" cy="619.3598633" r="3.7266753"/>
		<circle class="st9" cx="1103.1448975" cy="626.0562744" r="2.2127135"/>
	</g>
	<path class="st16" d="M1138.2191162,584.71521l-12.0551758-20.5205688
		c-1.2840576-2.1871338-3.6580811-3.5444336-6.192749-3.5444336h-2.3143311l-0.010376-5.1105957h3.5496826
		c0.7512207-0.00177,1.4569092-0.2952271,1.9862061-0.8262939s0.8210449-1.2385254,0.8192139-1.9896851l-0.013916-9.0313721
		c-0.001709-1.5023193-1.1773682-2.7321167-2.6796875-2.7985229h-1.7382813
		c-0.0026855-0.0001221-0.005127-0.0006104-0.0078125-0.0007324h-3.8206787v-1.8937988
		c0-0.8018799-0.7861328-1.4569702-1.7468262-1.4569702h-5.5759277c-0.0046387,0-0.0091553-0.0005493-0.0137939-0.0005493
		h-7.8330078c0.0046387,0,0.0090332,0.0005493,0.0137939,0.0005493h-13.7270508
		c-0.9608154,0-1.7469482,0.6550903-1.7469482,1.4569702v1.8937988h-5.5250244
		c-0.7039795,0.0018311-1.3679199,0.3127441-1.8831787,0.7896118l-0.0314941,0.0314941
		c-0.0244141,0.0209351-0.0471191,0.0436401-0.0698242,0.0663452c-0.0157471,0.0157471-0.0296631,0.0314941-0.0437012,0.0471802
		c-0.5030518,0.5240479-0.7773438,1.2105713-0.7756348,1.9407959l0.0140381,9.0313721
		c0.001709,0.6655273,0.1676025,1.2664795,0.4821777,1.7346191c0.1676025,0.2532959,0.3790283,0.4664307,0.6304932,0.6306152
		c0.3634033,0.2393188,0.8106689,0.3738403,1.3294678,0.3738403h3.8172607l-0.0098877,5.1113281h-2.2330322
		c-2.534668,0-4.9086914,1.3590698-6.192627,3.5444336l-12.0552979,20.5205688
		c-1.137085,1.9354858-1.4306641,4.2816162-0.8070068,6.4371948l16.4731445,56.8522339
		c0.8139648,2.805481,3.4202881,4.7637329,6.3410645,4.7637329h12.6561279h7.9780273h11.0053711
		c2.9207764,0,5.5270996-1.958252,6.3411865-4.7637329l16.4730225-56.8522339
		C1139.6497803,588.9968262,1139.3563232,586.6506958,1138.2191162,584.71521z"/>
</g>
<g>
	<g>
		<g>
			<polygon class="st12" points="981.6500244,565.4762573 975.7125244,565.4893188 966.2814331,565.5100098 
				964.5084229,565.5137329 947.3274536,565.5418701 947.3380127,559.9881592 982.5759277,559.9902954 			"/>
			<path class="st13" d="M981.2639771,560.0175781l0.0112305,5.5108643l-1.81427,0.0131836l-11.6801758,0.020813
				c-0.5806885,0-1.0251465-0.7681274-1.0270386-1.5645142l-0.0056152-2.4412231
				c-0.0018921-0.8756104,0.5341797-1.5670776,1.1976318-1.5670776c0,0,9.9205322-0.0014648,9.9445801-0.0014648
				C977.8903198,560.0001831,981.2639771,560.0175781,981.2639771,560.0175781z"/>
			<path class="st14" d="M984.4613647,565.5305786l-8.3740234,0.0130615c-0.5547485,0-0.9558716-0.7758789-0.9577026-1.5292969
				l-0.0056152-2.449646c0-0.8377075,0.4944458-1.5743408,1.1357422-1.5743408c0.0206909,0,8.1903687-0.0018921,8.1903687-0.0018921
				L984.4613647,565.5305786z"/>
		</g>
		<g>
			<path class="st12" d="M982.4059448,542.2460938v4.0595703c0,0.8583984-0.8433838,1.5612183-1.8742065,1.5612183h-29.1141357
				c-1.0308228,0-1.8742065-0.7028198-1.8742065-1.5612183v-4.0595703c0-0.8602905,0.8433838-1.5631104,1.8742065-1.5631104
				h29.1141357C981.562561,540.6829834,982.4059448,541.3858032,982.4059448,542.2460938z"/>
			<path class="st14" d="M982.4059448,542.2460938v4.0595703c0,0.8583984-0.8433838,1.5612183-1.8742065,1.5612183h-6.9592896
				c-1.0308228,0-1.8742065-0.7028198-1.8742065-1.5612183v-4.0595703c0-0.8602905,0.8433838-1.5631104,1.8742065-1.5631104
				h6.9592896C981.562561,540.6829834,982.4059448,541.3858032,982.4059448,542.2460938z"/>
			<path class="st13" d="M976.4087524,542.2454834v4.0595093c0,0.8584595-0.8433838,1.5612793-1.8742065,1.5612793h-8.4039917
				c1.0308228,0,1.8742065-0.7028198,1.8742065-1.5612793v-4.0595093c0-0.8602905-0.8433838-1.5631104-1.8742065-1.5631104
				h8.4039917C975.5653687,540.682373,976.4087524,541.3851929,976.4087524,542.2454834z"/>
			<path class="st4" d="M989.3952637,556.9702759c0.0018921,0.8058472-0.3111572,1.5649414-0.8790283,2.1347046
				s-1.3250732,0.8846436-2.1309814,0.8864746h-43.1427002c-0.5566406,0-1.036438-0.1442871-1.4262695-0.401062
				c-0.2698975-0.1761475-0.4966431-0.4048462-0.6765747-0.6765747c-0.3374023-0.5023193-0.5154419-1.1470337-0.517334-1.861084
				l-0.0149536-9.6897583c-0.0018921-0.7833862,0.2923584-1.5200195,0.8320923-2.0822754
				c0.0150146-0.0168457,0.0300293-0.0336914,0.046875-0.0505981c0.0244141-0.024353,0.0487671-0.0487061,0.0750122-0.071167
				l0.0336914-0.0338135c0.5529175-0.5116577,1.2651367-0.8452148,2.0204468-0.8471069h42.8896484
				c1.6118164,0.071228,2.8713379,1.390686,2.8731689,3.0025024L989.3952637,556.9702759z"/>
			<path class="st2" d="M991.2685547,556.9710083c0.0018311,0.8059082-0.3111572,1.5650024-0.8790283,2.1347656
				s-1.3250732,0.8845825-2.1309814,0.8864746h-19.7580566c0.0581055,0,0.1162109-0.0018921,0.1743164-0.0056152h0.0075073
				c0.0581055-0.0037842,0.1143188-0.0075073,0.1705322-0.0168457c0.0018921,0.0018311,0.0056152,0.0018311,0.0075073,0
				c0.6691284-0.0806274,1.2894897-0.3804932,1.7711182-0.8640137c0.5678711-0.5697632,0.8809204-1.3288574,0.8790283-2.1347656
				l-0.0018311-1.6062012v-0.0150146l-0.0112915-6.3498535v-0.0168457l-0.0018921-1.7018433
				c-0.0018311-1.6118164-1.2631836-2.9312134-2.875061-3.0025024h19.7580566
				c1.6118164,0.0712891,2.8731689,1.390686,2.875061,3.0025024L991.2685547,556.9710083z"/>
			<path class="st3" d="M979.1870728,556.9702148c0.0018311,0.8059082-0.3111572,1.5649414-0.8790283,2.1347656
				c-0.5678711,0.5697632-1.3250122,0.8845825-2.1309814,0.8864746h-8.3256836
				c0.8059082-0.0018921,1.5631104-0.3167114,2.1310425-0.8864746c0.5678711-0.5698242,0.8658447-1.3288574,0.8639526-2.1347656
				v-9.6896973c-0.0018311-1.6118164-1.2631836-2.9312744-2.875-3.0025024h8.3256226
				c1.6118774,0.071228,2.87323,1.390686,2.875061,3.0025024L979.1870728,556.9702148z"/>
			<path class="st5" d="M984.7134399,554.0708008c0,0.6915894-0.5585327,1.2539063-1.2520142,1.2557373l-12.6135254,0.024353
				l-4.0201416,0.0056152h-0.5341797l-19.7467651,0.0319214c-0.6934814,0.0018311-1.2538452-0.5585327-1.2557373-1.2520142
				l-0.0056152-3.8590088c-0.0018921-0.6915894,0.5584717-1.2538452,1.250061-1.2557373l17.5183716-0.0280762l2.7738647-0.0037842
				l4.0201416-0.0056152l12.604187-0.0244141c0.4835205-0.0018311,0.9033813,0.2717896,1.1114502,0.6728516
				c0.0186768,0.0337524,0.0355835,0.069397,0.0505981,0.1068726c0.0149536,0.0318604,0.0261841,0.0636597,0.0374756,0.0993652
				c0.0355835,0.118042,0.0562134,0.2436523,0.0562134,0.3729248L984.7134399,554.0708008z"/>
			<path class="st6" d="M984.7134399,554.0708008c0,0.6915894-0.5585327,1.2539063-1.2520142,1.2557373l-12.6146851,0.024353
				l-0.0005493-6.3666992l12.605896-0.0244141c0.4835205-0.0018311,0.9033813,0.2717896,1.1114502,0.6728516
				c0.0186768,0.0337524,0.0355835,0.069397,0.0505981,0.1068726c0.0149536,0.0318604,0.0261841,0.0636597,0.0374756,0.0993652
				c0.0355835,0.118042,0.0562134,0.2436523,0.0562134,0.3729248L984.7134399,554.0708008z"/>
		</g>
		<path class="st2" d="M1015.4572754,610.6693115l-23.4465332,40.6124878
			c-0.541626,0.9371338-1.5424805,1.5162354-2.6257935,1.5162354h-46.8948975c-1.083313,0-2.0841064-0.5791016-2.6257935-1.5162354
			l-23.4465332-40.6124878c-0.541626-0.9390259-0.541626-2.0935059,0-3.0324707l23.4465332-40.6106567
			c0.541687-0.9389648,1.5424805-1.5162354,2.6257935-1.5162354h46.8948975c1.083313,0,2.0841675,0.5772705,2.6257935,1.5162354
			l23.4465332,40.6106567C1015.9989014,608.5758057,1015.9989014,609.7302856,1015.4572754,610.6693115z"/>
		<path class="st3" d="M1002.0884399,610.6693115l-23.4483643,40.6124878
			c-0.541687,0.9371338-1.5424805,1.5162354-2.6257935,1.5162354h-33.524231c-1.083313,0-2.0841064-0.5791016-2.6257935-1.5162354
			l-23.4465332-40.6124878c-0.541626-0.9390259-0.541626-2.0935059,0-3.0324707l23.4465332-40.6106567
			c0.541687-0.9389648,1.5424805-1.5162354,2.6257935-1.5162354h33.524231c1.083313,0,2.0841064,0.5772705,2.6257935,1.5162354
			l23.4483643,40.6106567C1002.6300659,608.5758057,1002.6300659,609.7302856,1002.0884399,610.6693115z"/>
		<path class="st17" d="M993.4051514,610.6693115l-23.4483643,40.6124878
			c-0.541687,0.9371338-1.5424805,1.5162354-2.6257935,1.5162354h-24.8409424c-1.083313,0-2.0841064-0.5791016-2.6257935-1.5162354
			l-23.4465332-40.6124878c-0.541626-0.9390259-0.541626-2.0935059,0-3.0324707l23.4465332-40.6106567
			c0.541687-0.9389648,1.5424805-1.5162354,2.6257935-1.5162354h24.8409424c1.083313,0,2.0841064,0.5772705,2.6257935,1.5162354
			l23.4483643,40.6106567C993.9468384,608.5758057,993.9468384,609.7302856,993.4051514,610.6693115z"/>
		<path class="st6" d="M1010.3602295,609.6916504c-0.0618896,0.3917236-0.1968384,0.7759399-0.401123,1.130127l-0.5828857,1.0064697
			v0.0019531l-0.3878784,0.6746216l-1.3045044,2.2584839l-1.4974976,2.5939331l-17.3946533,30.1280518
			c-0.2249146,0.3879395-0.6390991,0.6279297-1.0870972,0.6279297H944.168335c-0.447937,0-0.8621216-0.2399902-1.0870361-0.6279297
			l-17.598938-30.4841919l-1.4862671-2.5770264l-1.013916-1.7561646l-1.0908203-1.8892212
			c-0.1611938-0.2792358-0.2774048-0.5791016-0.3486328-0.8845825c-0.187439-0.7927856-0.0730591-1.6399536,0.3467407-2.3671265
			l7.6487427-13.2470093l0.6503296-1.1245728l1.1901245-2.0635376l0.4554443-0.7871094l11.2471924-19.482605
			c0.2249146-0.3878784,0.6390991-0.6259155,1.0870361-0.6259155h43.5362549c0.447998,0,0.8621826,0.2380371,1.0870972,0.6278687
			l11.2808838,19.5387573l0.7872314,1.3643799l0.8883057,1.5369263l1.1358032,1.9678955l6.4848022,11.2303467l0.5903931,1.0233154
			C1010.350769,608.1622925,1010.4838257,608.9419556,1010.3602295,609.6916504z"/>
		<path class="st2" d="M994.2410889,609.1530762l-22.4925537,38.9594116h-27.4703979
			c-0.5161133,0-0.993042-0.2753906-1.2510986-0.7223511l-21.0559082-36.4709473
			c-0.6309204-1.0928955-0.6309204-2.4393311,0.000061-3.5321655l21.109314-36.5618286
			c0.2249756-0.3896484,0.6407471-0.6296997,1.0906372-0.6296997h27.5773926L994.2410889,609.1530762z"/>
		<polygon class="st18" points="994.2410889,609.1530762 993.0827637,611.1585083 991.6508789,613.6399536 971.7485352,648.1124878 
			960.1864624,648.1124878 939.9092407,612.9914551 938.4829712,610.5212402 937.6939087,609.1530762 946.2628784,594.3111572 
			947.7453613,591.7434692 960.1864624,570.1954956 971.7485352,570.1954956 983.9684448,591.361084 985.4678345,593.9569092 		"/>
		<path class="st19" d="M1010.3602295,609.6916504c-0.0618896,0.3917236-0.1968384,0.7759399-0.401123,1.130127
			l-0.5828857,1.0064697v0.0019531l-0.3878784,0.6746216l-1.3045044,2.2584839l-1.4974976,2.5939331l-17.3946533,30.1280518
			c-0.2249146,0.3879395-0.6390991,0.6279297-1.0870972,0.6279297H944.168335c-0.447937,0-0.8621216-0.2399902-1.0870361-0.6279297
			l-17.598938-30.4841919l-1.4862671-2.5770264l-1.013916-1.7561646l-1.0908203-1.8892212
			c-0.1611938-0.2792358-0.2774048-0.5791016-0.3486328-0.8845825c19.0870972-0.3861084,28.7468262-5.560791,38.1010742-10.5725098
			c0.5715942-0.305481,1.1414185-0.6109619,1.7092896-0.9108276c0.1949463-0.1049805,0.3898315-0.2080688,0.5828247-0.3111572
			l0.6166382-0.3261108h0.0037842c0.2005615-0.1049194,0.401123-0.2098999,0.6034546-0.3130493
			c0.4254761-0.2210693,0.8546753-0.4422607,1.2894897-0.6615601c6.4023438-3.2423706,13.7362061-6.2318115,24.8933716-6.2485962
			h0.116272c4.2900391,0,8.057251,0.3841553,11.4008789,1.1769409l0.8883057,1.5369263l1.1358032,1.9678955l6.4848022,11.2303467
			l0.5903931,1.0233154C1010.350769,608.1622925,1010.4838257,608.9419556,1010.3602295,609.6916504z"/>
		<path class="st20" d="M1010.3602295,609.6916504c-0.0618896,0.3917236-0.1968384,0.7759399-0.401123,1.130127
			l-0.5828857,1.0064697v0.0019531l-0.3878784,0.6746216l-1.3045044,2.2584839l-1.4974976,2.5939331l-17.3946533,30.1280518
			c-0.2249146,0.3879395-0.6390991,0.6279297-1.0870972,0.6279297H944.168335c-0.447937,0-0.8621216-0.2399902-1.0870361-0.6279297
			l-17.598938-30.4841919l-1.4862671-2.5770264l-1.013916-1.7561646
			c20.4458618-0.6784668,30.4373169-6.8895874,40.2675781-12.0830688h0.0018921
			c0.401123-0.211853,0.800293-0.4216919,1.201416-0.6297607c1.0270386-0.5341187,2.0578613-1.0533447,3.1036377-1.5499878
			c6.0275269-2.8712769,12.5385742-5.0285034,21.7897339-5.0435181c5.6976318-0.0093994,10.0720215,0.7084351,13.5374756,1.8704834
			l6.4848022,11.2303467l0.5903931,1.0233154C1010.350769,608.1622925,1010.4838257,608.9419556,1010.3602295,609.6916504z"/>
		<path class="st21" d="M1010.3602295,609.6916504c-0.0618896,0.3917236-0.1968384,0.7759399-0.401123,1.130127
			l-0.5828857,1.0064697v0.0019531l-0.3878784,0.6746216l-1.3045044,2.2584839l-1.4974976,2.5939331l-17.3946533,30.1280518
			c-0.2249146,0.3879395-0.6390991,0.6279297-1.0870972,0.6279297H944.168335c-0.447937,0-0.8621216-0.2399902-1.0870361-0.6279297
			l-17.598938-30.4841919l-1.4862671-2.5770264l-1.013916-1.7561646l-1.0908203-1.8892212
			c-0.1611938-0.2792358-0.2774048-0.5791016-0.3486328-0.8845825c-0.187439-0.7927856-0.0730591-1.6399536,0.3467407-2.3671265
			l7.6487427-13.2470093l0.6503296-1.1245728l1.1901245-2.0635376c2.449585-0.3579102,5.1054077-0.5360107,8.0010376-0.5415649
			h0.0918579c11.0110474,0,18.5134888,2.9987183,24.9777222,6.2485962c0.0224609,0.0112305,0.0449829,0.022522,0.0674438,0.0337524
			c0.4086304,0.2061157,0.8153076,0.4141846,1.2220459,0.6222534c0.6053467,0.3129272,1.2144775,0.6315918,1.8179321,0.9501953
			c0.5229492,0.2773438,1.0440063,0.5547485,1.5556641,0.8265381c9.6802979,5.1428223,19.6905518,10.461853,40.0689697,10.461853
			h0.1929932L1010.3602295,609.6916504z"/>
		<path class="st19" d="M1008.9883423,612.5048218l-1.3045044,2.2584839l-1.4974976,2.5939331l-15.4885864,26.8275757
			l-1.9060669,3.3004761c-0.2249146,0.3879395-0.6390991,0.6279297-1.0870972,0.6279297H944.168335
			c-0.447937,0-0.8621216-0.2399902-1.0870361-0.6279297l-1.9061279-3.3004761l-15.6928101-27.1837158l-1.4862671-2.5770264
			l-1.013916-1.7561646l-1.0908203-1.8892212c-0.1611938-0.2792358-0.2774048-0.5791016-0.3486328-0.8845825
			c-0.187439-0.7927856-0.0730591-1.6399536,0.3467407-2.3671265l7.6487427-13.2470093
			c2.7644653-0.5772705,6.0050049-0.9108887,9.847168-0.918396c9.3335571-0.0131226,15.8858032,2.1591187,21.9677124,5.0491943
			c0.637207,0.3035278,1.2688599,0.6146851,1.8985596,0.9313965c0.401123,0.2024536,0.800293,0.4067993,1.201416,0.612915
			C975.151062,605.4746704,985.6073608,612.4674072,1008.9883423,612.5048218z"/>
		<path class="st20" d="M1010.3752441,609.6916504c-0.0618896,0.3917236-0.1968994,0.7759399-0.401123,1.130127
			l-0.5828857,1.0064697v0.0019531l-0.3880005,0.6746216l-1.3044434,2.2584839l-1.4974365,2.5939331l-17.3946533,30.1280518
			c-0.2249756,0.3879395-0.6391602,0.6279297-1.0870972,0.6279297h-15.9552612l19.9024048-34.4725952l1.4094238-2.4420776
			l0.0224609-0.0393677l1.1582642-2.0054321l-0.3804932-0.659729l-8.3927002-14.536499l-0.2530518-0.4385376l-1.2463379-2.1571655
			l-0.305542-0.5266724c1.7805176-0.1818237,3.6678467-0.2811279,5.678894-0.2848511h0.1162109
			c4.2901001,0,8.057251,0.3841553,11.4008789,1.1769409l0.8883667,1.5369263l1.1358032,1.9678955l6.4848022,11.2303467
			l0.5903931,1.0233154C1010.3657837,608.1622925,1010.4988403,608.9419556,1010.3752441,609.6916504z"/>
		<path class="st22" d="M1010.3752441,609.6916504c-0.0618896,0.3917236-0.1968994,0.7759399-0.401123,1.130127
			l-0.5828857,1.0064697v0.0019531l-0.3880005,0.6746216l-1.3044434,2.2584839l-1.4974365,2.5939331l-17.3946533,30.1280518
			c-0.2249756,0.3879395-0.6391602,0.6279297-1.0870972,0.6279297h-15.9552612l19.9024048-34.4725952l1.4094238-2.4420776
			l0.0224609-0.0393677l1.1582642-2.0054321l-0.3804932-0.659729l-8.3927002-14.536499l-0.2530518-0.4385376
			c1.3156738-0.1011963,2.6895142-0.1555786,4.1307983-0.1574097c5.6975708-0.0093994,10.0720215,0.7084351,13.5374756,1.8704834
			l6.4848022,11.2303467l0.5903931,1.0233154C1010.3657837,608.1622925,1010.4988403,608.9419556,1010.3752441,609.6916504z"/>
		<path class="st19" d="M1010.3752441,609.6916504c-0.0618896,0.3917236-0.1968994,0.7759399-0.401123,1.130127
			l-0.5828857,1.0064697v0.0019531l-0.3880005,0.6746216l-1.3044434,2.2584839l-1.4974365,2.5939331l-17.3946533,30.1280518
			c-0.2249756,0.3879395-0.6391602,0.6279297-1.0870972,0.6279297h-15.9552612l19.9024048-34.4725952l1.4094238-2.4420776
			l0.0224609-0.0393677l1.1582642-2.0054321l-0.3804932-0.659729c4.4025879,0.7553711,9.4273682,1.1994629,15.3199463,1.1994629
			h0.1929932L1010.3752441,609.6916504z"/>
		<path class="st20" d="M1009.0032349,612.5048218l-1.3044434,2.2584839l-1.4974365,2.5939331l-15.4885864,26.8275757
			l-1.9060669,3.3004761c-0.2249756,0.3879395-0.6391602,0.6279297-1.0870972,0.6279297h-15.9552612l2.2678223-3.9284058
			l17.6345825-30.5441895l1.4094238-2.4420776C997.6567383,612.0100708,1002.8876953,612.4954834,1009.0032349,612.5048218z"/>
		<circle class="st20" cx="947.7815552" cy="638.432373" r="2.8365381"/>
		<circle class="st20" cx="953.8103027" cy="640.7344971" r="1.4695727"/>
		<circle class="st20" cx="946.9795532" cy="621.0188599" r="1.6701878"/>
		<circle class="st20" cx="951.5195923" cy="609.2139893" r="6.7885056"/>
		<circle class="st20" cx="937.4620972" cy="615.1455078" r="4.0003691"/>
		<path class="st23" d="M945.0530396,634.069519c-1.3156738,0.7608643-2.9968872,0.3092041-3.7577515-1.0064697
			l-11.8839111-20.3446045c-1.2489014-2.1633911-1.2488403-4.8286743,0.0001221-6.9920044l7.2266235-12.539856
			c0.7590942-1.3138428,2.4421387-1.7655029,3.7559814-1.0064697l-0.0008545,0.0005493
			c1.3157349,0.7590332,1.7681885,2.4415894,1.0091553,3.7572632l-7.1565552,12.4169312
			c-0.3099365,0.5368652-0.3099976,1.1982422-0.000061,1.7351074l11.8137207,20.2217407
			C946.8204956,631.6273804,946.3687744,633.3104248,945.0530396,634.069519z"/>
		<path class="st7" d="M948.3384399,583.5510254l-2.5077515,4.3463745
			c-0.4891357,0.8433838-1.3981323,1.3699951-2.3746338,1.3699951c-0.4797974,0-0.9520874-0.1273804-1.3681641-0.3673096
			c-1.3082275-0.7553101-1.7579956-2.4346313-1.0026855-3.7427979l2.5095825-4.3444214
			c0.4872437-0.8452759,1.3962402-1.3701172,2.3727417-1.3701172c0.4797974,0,0.9520874,0.1274414,1.3681641,0.3673706
			c0.6335449,0.3654785,1.0870972,0.9558716,1.2763672,1.6624146S948.7039185,582.9176025,948.3384399,583.5510254z"/>
		<circle class="st20" cx="978.4198608" cy="618.144043" r="4.0977359"/>
		<circle class="st20" cx="971.2657471" cy="624.6329956" r="2.0568023"/>
		<circle class="st20" cx="972.769043" cy="630.7202759" r="1.2094983"/>
		<path class="st20" d="M990.6977539,644.1848145l-1.9060669,3.3004761
			c-0.2249146,0.3879395-0.6390991,0.6279297-1.0870972,0.6279297H944.168335c-0.447937,0-0.8621216-0.2399902-1.0870361-0.6279297
			l-1.9061279-3.3004761H990.6977539z"/>
		<path class="st22" d="M990.7127686,644.1848145l-1.9060669,3.3004761
			c-0.2249756,0.3879395-0.6391602,0.6279297-1.0870972,0.6279297h-15.9552612l2.2678223-3.9284058H990.7127686z"/>
	</g>
	<path class="st16" d="M1015.4572754,607.6368408l-23.4465332-40.6105957
		c-0.541626-0.9389648-1.5424805-1.5162354-2.6257935-1.5162354h-4.923645l-0.0112305-5.5177002h3.8084717
		c0.8059082-0.0018921,1.5631104-0.3167725,2.1309814-0.8865356s0.8808594-1.3288574,0.8790283-2.1347046l-0.0150146-9.6897583
		c-0.0018921-1.6118774-1.2632446-2.9312744-2.875061-3.0025024h-1.8649292
		c-0.0028687-0.0001221-0.0055542-0.0006714-0.0084229-0.0007935h-4.0991821v-2.0319214
		c0-0.8602295-0.8433838-1.5631104-1.8742065-1.5631104h-5.9821167c-0.0050659,0-0.0100098-0.0006104-0.0150757-0.0006104
		h-8.4040527c0.005127,0,0.0100098,0.0006104,0.0151367,0.0006104h-14.7280273
		c-1.0308228,0-1.8742065,0.7028809-1.8742065,1.5631104v2.0319214h-5.9278564
		c-0.7553711,0.0019531-1.4675903,0.3355103-2.0204468,0.847168l-0.0337524,0.0337524
		c-0.0262451,0.0224609-0.0505981,0.046875-0.0749512,0.071228c-0.0169067,0.0168457-0.0318604,0.0337524-0.046875,0.0505981
		c-0.5397339,0.5622559-0.8340454,1.2988281-0.8321533,2.0822754l0.0149536,9.6896973
		c0.0019531,0.7141113,0.1799927,1.3588257,0.517334,1.861084c0.1799316,0.2717896,0.4067383,0.5004883,0.6765747,0.6766357
		c0.3898926,0.2567139,0.8696899,0.401062,1.4263306,0.401062h4.095459l-0.0105591,5.5184937h-4.8374023
		c-1.083313,0-2.0841064,0.5772705-2.6257935,1.5162354l-23.4465332,40.6105957c-0.541626,0.9390259-0.541626,2.0935059,0,3.0325317
		l23.4465332,40.6124268c0.541687,0.9371338,1.5424805,1.5162354,2.6257935,1.5162354h24.8409424h8.6832886h13.3706665
		c1.083313,0,2.0841675-0.5791016,2.6257935-1.5162354l23.4465332-40.6124268
		C1015.9989014,609.7303467,1015.9989014,608.5758667,1015.4572754,607.6368408z"/>
</g>
<g>
	<g>
		<polygon class="st12" points="840.2463989,568.9812622 823.2454834,569.0176392 808.9937744,569.0466919 808.9844971,564.4475098 
			840.2352295,564.382019 840.2352295,564.4111328 		"/>
		<path class="st13" d="M840.1690674,569.0004883l-14.9906616,0.0313721
			c-0.6577148,0.0014648-1.1918335-0.6958618-1.1929321-1.5575562l-0.007019-1.4829712
			c-0.0011597-0.8618164,0.53125-1.5616455,1.1890869-1.5630493l14.9906616-0.0314331
			c0.6577148-0.0014038,1.1917725,0.6959229,1.1929321,1.5576172l0.006958,1.4829712
			C841.3592529,568.2992554,840.8269043,568.9990845,840.1690674,569.0004883z"/>
		<path class="st14" d="M846.687561,569.026001h-12.0909424c-0.6558228,0-1.1877441-0.6929932-1.1886597-1.5487061
			l-0.0058594-1.4997559c-0.0009766-0.8565063,0.5303345-1.5518799,1.1867065-1.5532837l12.09375-0.0215454
			c0,0.1583862-0.0025635,1.3486938-0.0025635,1.5487671L846.687561,569.026001z"/>
		<path class="st4" d="M863.569519,652.7941284h-71.4703369c-4.6118164,0-8.1677856-4.0615234-7.5599365-8.6324463
			l9.1306152-68.5371094c0.5037231-3.7883301,3.7362671-6.6174927,7.5580444-6.6174927h52.880127
			c3.8850098,0,7.1491089,2.9221191,7.5784912,6.7828979l9.4614868,68.5371704
			C871.6480713,648.8441162,868.1125488,652.7941284,863.569519,652.7941284z"/>
		<path class="st3" d="M863.4989014,652.7941284h-30.4849243c3.180481,0,5.8665161-1.9368896,7.020813-4.6470947
			c0.4944458-1.1618042,0.708252-2.4648438,0.5576782-3.8198853l-7.6026611-68.5371704
			c-0.0836182-0.7528076-0.2750854-1.4703369-0.5595093-2.1358032c-1.1654663-2.7529297-3.890564-4.6470947-7.0189209-4.6470947
			h28.6260376c3.8849487,0,7.1491089,2.9221191,7.5784912,6.7828979l9.4614868,68.5371704
			C871.5774536,648.8441162,868.0419312,652.7941284,863.4989014,652.7941284z"/>
		<path class="st2" d="M863.569519,652.7941284h-21.2929688c3.180481,0,5.8665161-1.9368896,7.020874-4.6470947
			c0.4943848-1.1618042,0.7081909-2.4648438,0.5576172-3.8198853l-7.6026611-68.5371704
			c-0.0836182-0.7528076-0.2750854-1.4703369-0.5594482-2.1358032c-1.1655273-2.7529297-3.890564-4.6470947-7.019043-4.6470947
			h19.4341431c3.8850098,0,7.1491089,2.9221191,7.5784912,6.7828979l9.4614868,68.5371704
			C871.6480713,648.8441162,868.1125488,652.7941284,863.569519,652.7941284z"/>
		<path class="st5" d="M791.8890381,648.1464844c-1.1752319,0-1.9082031-0.6365967-2.2406006-1.0161743
			c-0.3322144-0.3795776-0.8665771-1.1903076-0.7114258-2.3551636l9.1299438-68.5369263
			c0.196228-1.4734497,1.465271-2.5845947,2.9517822-2.5845947l52.8795166-0.0001831
			c1.5197754,0,2.7922974,1.1390991,2.9598389,2.6495361l7.6025391,68.5369873
			c0.1275635,1.151062-0.4095459,1.9443359-0.7410278,2.3146362c-0.331665,0.3703613-1.0606689,0.9916992-2.218811,0.9916992
			L791.8890381,648.1464844z"/>
		<path class="st5" d="M865.5770264,647.1544189c-0.3308105,0.3699341-1.0595093,0.9926147-2.2175293,0.9926147h-71.4703979
			c-1.1766968,0-1.9090576-0.6375732-2.2417603-1.0167847c-0.3308716-0.3792114-0.8662109-1.1896362-0.710083-2.3551025
			l4.5523071-34.1803589l0.3773193-2.8291016l0.2509155-1.8885498l1.4313354-10.7385254l0.3996582-2.9945679l0.262085-1.972229
			l0.1821899-1.3699951l0.1877441-1.4145508l0.2360229-1.7677612l1.2491455-9.3815308
			c0.1970825-1.4740601,1.4647827-2.5838013,2.9518433-2.5838013h52.880188c1.5186768,0,2.7919922,1.1376343,2.9592896,2.6488037
			l9.4614868,68.5371704C866.4470215,645.9907837,865.90979,646.7844849,865.5770264,647.1544189z"/>
		<path class="st6" d="M865.5770264,647.1544189c-0.3308105,0.3699341-1.0595093,0.9926147-2.2175293,0.9926147H840.03479
			c0.4944458-1.1618042,0.708252-2.4648438,0.5576782-3.8198853l-7.6026611-68.5371704
			c-0.0836182-0.7528076-0.2750854-1.4703369-0.5595093-2.1358032h21.4677124c1.5186768,0,2.7919922,1.1376343,2.9592896,2.6488037
			l2.1859741,15.8354492l0.4144897,2.998291l1.7436523,12.6326904l0.3903198,2.8309937l4.7270508,34.2397461
			C866.4470215,645.9907837,865.90979,646.7844849,865.5770264,647.1544189z"/>
		<path class="st6" d="M865.6012573,647.1544189c-0.3104248,0.3475952-0.9703369,0.9163818-2.0056763,0.9851685
			c-0.0613403,0.0055542-0.1245728,0.0074463-0.1896362,0.0074463H840.059021
			c0.4943848-1.1618042,0.7081909-2.4648438,0.5576172-3.8198853l-4.5429688-40.9464722l-0.368103-3.3236084l-0.4795532-4.3199463
			l-0.3123169-2.8216553l-1.8997192-17.1254883c-0.0836182-0.7528076-0.2750854-1.4703369-0.5595093-2.1358032h21.4677124
			c1.5186768,0,2.7919312,1.1376343,2.9592896,2.6488037l2.1859741,15.829895l0.4126587,2.998291l1.7454224,12.6363525
			l0.3903809,2.8309937l4.7269897,34.2416382C866.4711914,645.9907837,865.93396,646.7844849,865.6012573,647.1544189z"/>
		<path class="st2" d="M808.1750488,573.6541748c-1.4870605,0-2.7548218,1.1097412-2.9518433,2.5838013l-9.1287231,68.5371704
			c-0.156189,1.1654663,0.3792114,1.9758911,0.710022,2.3551025c0.3327637,0.3792114,1.0651245,1.0167847,2.2417603,1.0167847
			h-7.1564941c-1.1766968,0-1.9090576-0.6375732-2.2417603-1.0167847c-0.3308716-0.3792114-0.8662109-1.1896362-0.710083-2.3551025
			l9.1287231-68.5371704c0.1970825-1.4740601,1.4647827-2.5838013,2.9518433-2.5838013H808.1750488z"/>
		<path class="st4" d="M854.8503418,561.4533691c0.0018921,0.7993164-0.3085938,1.5521851-0.8718262,2.1172485
			c-0.5631714,0.5650635-1.3141479,0.8773804-2.1134644,0.8792114H803.5c-1.6431885,0-2.5949707-1.2695923-2.5986328-2.9146729
			l-0.0148926-9.6101685c-0.0018311-0.7993164,0.3085327-1.5502319,0.8717651-2.1153564
			c0.5632324-0.5650635,1.3123779-0.9424438,2.1116943-0.9442749h48.1140747
			c1.5986328,0.0706787,2.8496094,1.3792725,2.8515015,2.9778442L854.8503418,561.4533691z"/>
		<path class="st2" d="M854.8503418,561.4533691c0.0018921,0.7993164-0.3085938,1.5521851-0.8718262,2.1172485
			c-0.5631714,0.5650635-1.3141479,0.8773804-2.1134644,0.8792114h-21.4546509
			c0.7993164-0.0018311,1.5502319-0.3141479,2.1134644-0.8792114s0.8736572-1.3179321,0.8717651-2.1172485l-0.00177-1.5930176
			l-0.0111694-6.312561l-0.0018921-1.7045898c-0.0018311-1.5985718-1.2528687-2.9071655-2.8514404-2.9778442h21.4546509
			c1.5986328,0.0706787,2.8496094,1.3792725,2.8515015,2.9778442L854.8503418,561.4533691z"/>
		<path class="st3" d="M840.1733398,561.4527588c0.0018311,0.7993164-0.3085938,1.552124-0.8718262,2.1171875
			c-0.5632324,0.5651245-1.3141479,0.8773804-2.1134644,0.8792114h-11.4173584
			c0.7993164-0.0018311,1.550293-0.3140869,2.1135254-0.8792114c0.5632324-0.5650635,0.8736572-1.3178711,0.8717651-2.1171875
			l-0.0148926-9.6101685c-0.00177-1.5986328-1.2528076-2.9072266-2.8513794-2.9779053h11.4172974
			c1.5986328,0.0706787,2.8496094,1.3792725,2.8515015,2.9779053L840.1733398,561.4527588z"/>
		<path class="st5" d="M850.2088623,558.5777588c0,0.6859131-0.5539551,1.2435913-1.2417603,1.2454224l-20.2148438,0.0297852
			h-0.5297241l-21.4435425,0.0315552c-0.6877441,0.0018921-1.2435303-0.553894-1.2454224-1.2416992l-0.0055542-3.8273315
			c-0.0018921-0.6859131,0.553894-1.2435303,1.2398071-1.2454224l19.2333984-0.0278931l2.7510376-0.0036621l20.2056274-0.0297852
			c0.4795532-0.0018921,0.8959351,0.2695313,1.1022339,0.6672974c0.0186157,0.0334473,0.0353394,0.0687866,0.0502319,0.1060181
			c0.0148315,0.0315552,0.026001,0.0631714,0.0371704,0.0984497c0.0352783,0.1171265,0.0557861,0.2416382,0.0557861,0.3699341
			L850.2088623,558.5777588z"/>
		<path class="st24" d="M865.6012573,647.1544189c-0.3309937,0.3699341-1.0599365,0.9926147-2.2184448,0.9926147h-71.4990234
			c-1.177124,0-1.90979-0.6375732-2.2426758-1.0167847c-0.3309326-0.3792114-0.8665161-1.1896362-0.7103271-2.3551025
			l4.5541382-34.1803589l0.3775024-2.8291016c13.1564941-1.1469116,20.6691895-5.1378174,27.9364624-9.0004883
			c0.8275146-0.4387207,1.6698608-0.8866577,2.5196533-1.3290405c0.6508789-0.3383179,1.3036499-0.6729126,1.9581909-0.99823
			c0.4258423-0.2119141,0.838623-0.4126587,1.2421875-0.605957c1.59552-0.762146,3.0366821-1.3811035,4.4592896-1.9202271
			c1.5731812-0.5966797,3.1408081-1.0985107,4.7251587-1.5074463c3.7229004-0.9628906,7.5369263-1.4202271,11.7079468-1.4202271
			h0.0836792c4.0018311,0.0074463,7.4736938,0.3848267,10.5698242,1.1543579l0.4147339,2.998291l1.7442627,12.6326904
			l0.3905029,2.8309937l4.7289429,34.2397461C866.4715576,645.9907837,865.9341431,646.7844849,865.6012573,647.1544189z"/>
		<path class="st25" d="M865.6012573,647.1544189c-0.3309937,0.3699341-1.0599365,0.9926147-2.2184448,0.9926147h-71.4990234
			c-1.177124,0-1.90979-0.6375732-2.2426758-1.0167847c-0.3309326-0.3792114-0.8665161-1.1896362-0.7103271-2.3551025
			l4.5541382-34.1803589c16.9035645-1.3439331,25.1247559-7.2271118,34.0339966-11.6604614
			c1.0525513-0.5223389,2.1124878-1.026062,3.2003784-1.4963379c0.7363892-0.3234253,1.4838867-0.630127,2.24823-0.920166
			c1.2942505-0.4906616,2.6368408-0.9331055,4.0482788-1.3123169c3.3323975-0.8959351,7.0534058-1.4405518,11.4754639-1.4331665
			c4.5039063,0.0074463,8.0817261,0.5186157,10.9882813,1.3643799l6.8637085,49.7034302
			C866.4715576,645.9907837,865.9341431,646.7844849,865.6012573,647.1544189z"/>
		<path class="st25" d="M866.250061,646.0037842c-0.0297852,0.0966797-0.0614014,0.1895752-0.0966797,0.2769775
			c-0.0186157,0.0427856-0.0371704,0.0855103-0.0557861,0.1264038c-0.0390015,0.0836792-0.078064,0.1616821-0.1207886,0.2342529
			c-0.1245728,0.2174683-0.2602539,0.3884277-0.3717651,0.5130005c-0.3123169,0.3494873-0.9815063,0.9238281-2.0299072,0.9851685
			c-0.0612793,0.0055542-0.1245117,0.0074463-0.1895752,0.0074463h-23.3469849
			c0.4944458-1.1618042,0.708252-2.4648438,0.5576782-3.8198853l-4.5430298-40.9464722l-0.368042-3.3236084l-0.4795532-4.3199463
			l-0.3123169-2.8216553c0.6022949-0.184021,1.2064209-0.3550415,1.8123169-0.5111694
			c3.7232666-0.9628906,7.5375977-1.4202271,11.7088623-1.4202271h0.0836792
			c3.9927368,0.0074463,7.4575806,0.3829346,10.5488892,1.1488037c0.0073853,0.0018311,0.0129395,0.0037231,0.0203857,0.0055542
			l0.4145508,2.998291l1.7454834,12.6326904l0.3903198,2.8309937l4.7288818,34.2397461
			C866.3950195,645.2807007,866.3466797,645.6710815,866.250061,646.0037842z"/>
		<path class="st26" d="M865.6029663,647.1544189c-0.3309326,0.3699341-1.0599365,0.9926147-2.2184448,0.9926147H791.885498
			c-1.177124,0-1.90979-0.6375732-2.2426147-1.0167847c-0.3309937-0.3792114-0.8665771-1.1896362-0.7103271-2.3551025
			l4.5540771-34.1803589l0.3775024-2.8291016l0.2510376-1.8885498l1.4318848-10.7385254l0.3997803-2.9945679
			c3.1018066-0.7733154,6.5829468-1.1525269,10.5958862-1.1599731h0.0836792c5.9487915,0,11.1705322,0.9294434,16.4349976,2.9276733
			c1.4225464,0.5391235,2.8637695,1.1580811,4.4592896,1.9202271c0.4035034,0.1932983,0.8163452,0.394043,1.2421875,0.605957
			c0.654541,0.3253174,1.3091431,0.6617432,1.9581299,1.000061c0.8498535,0.4405518,1.6921997,0.8884888,2.5178833,1.3272095
			c1.4523315,0.7732544,2.9158325,1.550293,4.4295654,2.3086548c6.0751953,3.0410767,13.0021362,5.7810059,23.5571289,6.6955566
			l5.1194458,37.0707397C866.4733276,645.9907837,865.9358521,646.7844849,865.6029663,647.1544189z"/>
		<path class="st24" d="M865.6012573,647.1544189c-0.3308716,0.3699341-1.0595703,0.9926147-2.2175903,0.9926147h-71.5001831
			c-1.1765747,0-1.9089355-0.6375732-2.2416992-1.0167847c-0.3308716-0.3792114-0.866272-1.1896362-0.710083-2.3551025
			l0.211853-1.5856323l6.4018555-48.0509033c2.9091187-0.8457642,6.4891968-1.3588257,10.9987793-1.366272
			c6.2958374-0.0092773,11.175293,1.0949097,15.5268555,2.7454834c0.763916,0.2900391,1.5111694,0.5967407,2.2473145,0.918335
			c1.0892944,0.4721069,2.1488037,0.9758301,3.2009277,1.4981689c3.4295654,1.7064209,6.7531128,3.6265869,10.5116577,5.4204102
			c6.020813,2.8737793,13.1494141,5.4221802,23.5831299,6.2456665l4.2437134,30.7302856l0.0334473,0.237915l0.2230225,1.6209106
			l0.2286377,1.6506348C866.4711914,645.9907837,865.93396,646.7844849,865.6012573,647.1544189z"/>
		<circle class="st25" cx="813.7522583" cy="605.9987793" r="5.7672009"/>
		<circle class="st25" cx="803.0188599" cy="614.3469849" r="3.7024004"/>
		<circle class="st25" cx="809.9038086" cy="622.7700195" r="2.1004002"/>
		<path class="st27" d="M866.2471313,646.0037842c-0.0297852,0.0966797-0.0614014,0.1895752-0.0966797,0.2769775
			c-0.0186157,0.0427856-0.0371704,0.0855103-0.0557861,0.1264038c-0.0390015,0.0836792-0.078064,0.1616821-0.1207886,0.2342529
			c-0.1245728,0.2174683-0.2602539,0.3884277-0.3717651,0.5130005c-0.3123169,0.3494873-0.9815063,0.9238281-2.0299072,0.9851685
			c-0.0612793,0.0055542-0.1245117,0.0074463-0.1895752,0.0074463h-23.3469849
			c0.4944458-1.1618042,0.708252-2.4648438,0.5576782-3.8198853l-4.5429688-40.9464722l-0.368103-3.3236084l-0.4795532-4.3199463
			c0.5910645-0.1877441,1.1951904-0.3661499,1.8123779-0.5316162c3.3328857-0.8959351,7.0542603-1.4405518,11.4764404-1.4331665
			c4.4927979,0.0074463,8.0635986,0.5167847,10.965271,1.3588257c0.0074463,0.0018921,0.0148926,0.0037231,0.0222778,0.0055542
			l1.7454834,12.6326904l0.3903198,2.8309937l4.7288818,34.2397461
			C866.3920898,645.2807007,866.34375,645.6710815,866.2471313,646.0037842z"/>
		<circle class="st25" cx="839.416687" cy="633.0405884" r="5.88097"/>
		<circle class="st25" cx="829.9418335" cy="624.7999878" r="3.7754376"/>
		<circle class="st25" cx="823.0914917" cy="633.5596313" r="2.1418347"/>
		<path class="st28" d="M866.2427368,646.0037842c-0.0278931,0.0966797-0.0613403,0.1895752-0.0966797,0.2769775
			c-0.0185547,0.0427856-0.0371704,0.0855103-0.0557251,0.1264038c-0.0371704,0.0836792-0.078064,0.1616821-0.1208496,0.2342529
			c-0.1245728,0.2174683-0.2602539,0.3884277-0.3717651,0.5130005c-0.3123169,0.3494873-0.9814453,0.9238281-2.0298462,0.9851685
			c-0.0613403,0.0055542-0.1245728,0.0074463-0.1896362,0.0074463H840.031311
			c0.4943848-1.1618042,0.7081909-2.4648438,0.5576172-3.8198853l-4.5429688-40.9464722l-0.368103-3.3236084
			c0.6542969,0.34021,1.314209,0.6803589,1.9852905,1.0167847c6.0709229,3.0392456,12.991394,5.7772827,23.534668,6.6936646
			c0.0074463,0,0.0148926,0.0018921,0.0223389,0.0018921h0.0018921l5.1192017,37.0707397
			C866.3895264,645.2807007,866.3412476,645.6710815,866.2427368,646.0037842z"/>
		<path class="st25" d="M866.3615112,645.1877441c0,0.0595093-0.0018311,0.1190186-0.0055542,0.1747437
			c-0.0018921,0.0501709-0.0074463,0.0985107-0.0130615,0.1450195c-0.0055542,0.0724487-0.0166626,0.1431274-0.0297241,0.210022
			c-0.0092773,0.0465088-0.0185547,0.0929565-0.0278931,0.1356812c-0.0130005,0.052063-0.026001,0.1022339-0.0390015,0.1505737
			c-0.0725098,0.2416382-0.1691895,0.4554443-0.2732544,0.6376343c-0.0205078,0.0352783-0.0408936,0.0706177-0.0632324,0.1040649
			c-0.026001,0.0427246-0.053894,0.0836182-0.0817871,0.1226807c-0.0315552,0.0446167-0.0613403,0.0873413-0.0929565,0.1264038
			c-0.0464478,0.0595093-0.0910645,0.1134033-0.1337891,0.1598511c-0.0966797,0.1096802-0.2286377,0.2398071-0.3977661,0.3699341
			c-0.0335083,0.026001-0.0687866,0.053894-0.105957,0.078064c-0.0353394,0.026001-0.0744019,0.052063-0.1134644,0.078064
			c-0.0390015,0.0241699-0.079895,0.0501709-0.1226196,0.0743408c-0.0427856,0.0241699-0.0855103,0.0483398-0.130127,0.0706177
			c-0.0446167,0.024231-0.0910645,0.0465088-0.1394043,0.0669556c-0.0483398,0.0222778-0.0966797,0.0427246-0.1487427,0.0613403
			c-0.1003418,0.0390015-0.2081299,0.0725098-0.3215332,0.1022339c-0.1134644,0.0278931-0.2323608,0.0501709-0.3569336,0.0668945
			c-0.0037231,0.0018921-0.0074463,0.0018921-0.0130005,0.0018921c-0.0576172,0.0055542-0.1190186,0.0111084-0.1802979,0.0148315
			c-0.0111694,0.0018921-0.0223389,0.0037231-0.0334473,0.0018921c-0.0501709,0.0036621-0.1004028,0.0055542-0.1524658,0.0055542
			H840.03479c0.4944458-1.1618042,0.708252-2.4648438,0.5576782-3.8198853l-0.3327637-2.99646l-4.2102051-37.9500122
			c0.6486816,0.3271484,1.3085938,0.6524658,1.9814453,0.9740601c6.0152588,2.8718872,13.1401367,5.418457,23.560791,6.2437744
			c0.0074463,0,0.0148926,0.0018921,0.0223389,0.0018921l4.2437134,30.7302856l0.0334473,0.237915l0.4516602,3.2715454
			C866.355957,644.9591675,866.3615112,645.0762329,866.3615112,645.1877441z"/>
		<path class="st29" d="M804.930542,579.7080688L804.930542,579.7080688
			c1.4920654,0.2096558,2.5316162,1.5892334,2.3218994,3.0812378l-5.1436768,36.5993652
			c-0.2097168,1.4920044-1.5892334,2.5315552-3.0812988,2.3218994l0,0
			c-1.4920654-0.2097168-2.5316162-1.5892334-2.3218994-3.0812988l5.1436768-36.5993042
			C802.05896,580.5379028,803.4384766,579.4983521,804.930542,579.7080688z"/>
		<path class="st29" d="M800.9650269,627.5039063l-0.9871826,7.0288086
			c-0.210083,1.4910278-1.5890503,2.5303955-3.0820313,2.3203125c-1.3797607-0.1932983-2.3721313-1.3892822-2.3484497-2.7479248
			c0.0009155-0.052002,0.0036621-0.1040039,0.0083008-0.1560059l0.0001831-0.0092773l0.9933472-7.0621948
			c0.210144-1.4929199,1.5891113-2.5322876,3.0820313-2.3221436
			C800.0778198,624.7592163,801.0999146,626.0635376,800.9650269,627.5039063z"/>
		<path class="st6" d="M850.2088623,558.5777588c0,0.6859131-0.5539551,1.2435913-1.2417603,1.2454224l-20.225647,0.0297852
			v-6.3144531l20.2164307-0.0297852c0.4795532-0.0018921,0.8959351,0.2695313,1.1022339,0.6672974
			c0.0186157,0.0334473,0.0353394,0.0687866,0.0502319,0.1060181c0.0148315,0.0315552,0.026001,0.0631714,0.0371704,0.0984497
			c0.0352783,0.1171265,0.0557861,0.2416382,0.0557861,0.3699341L850.2088623,558.5777588z"/>
		<path class="st25" d="M865.6063232,647.1544189c-0.3308716,0.3699341-1.0595093,0.9926147-2.2175293,0.9926147h-71.5001831
			c-1.1766357,0-1.9089966-0.6375732-2.2416992-1.0167847c-0.3309326-0.3792114-0.866272-1.1896362-0.710144-2.3551025
			l0.2119141-1.5856323h76.9707031l0.2286377,1.6506348C866.4762573,645.9907837,865.9390869,646.7844849,865.6063232,647.1544189z"
			/>
		<path class="st30" d="M840.5515747,643.9237671l-0.0836182-0.7249146
			C840.4753418,643.2508545,840.5181274,643.5203857,840.5515747,643.9237671z"/>
		<path class="st27" d="M865.6068115,647.1544189c-0.3308716,0.3699341-1.0595093,0.9926147-2.2175903,0.9926147h-23.3376465
			c0.6264038-1.3811035,0.5855103-3.2157593,0.5-4.2195435c0-0.0018921,0-0.0037231,0-0.0037231
			c-0.0334473-0.4033813-0.0762329-0.6729126-0.0836182-0.7249146c-0.0018921-0.0056152-0.0018921-0.0093384-0.0018921-0.0093384
			h25.6538086l0.2286377,1.6506348C866.4767456,645.9907837,865.9395752,646.7844849,865.6068115,647.1544189z"/>
	</g>
	<path class="st16" d="M871.1480103,644.3271484l-9.4615479-68.5371704
		c-0.4293213-3.8607788-3.6934204-6.7828979-7.5784912-6.7828979h-0.0705566h-7.3498535l-0.0075684-3.055603
		c0-0.1864014,0.0021973-1.2315063,0.0025024-1.5016479h5.1825562c0.7993164-0.0018311,1.550293-0.3141479,2.1134644-0.8792114
		c0.5632324-0.5651245,0.8737183-1.3179321,0.8718262-2.1172485l-0.0148926-9.6101685
		c-0.0018311-1.5985718-1.2528076-2.9072266-2.8514404-2.9778442h-14.6702271
		c-0.0023193-0.0001221-0.0044556-0.0005493-0.0067749-0.0006714h-11.4173584
		c0.0023193,0.0001221,0.0045166,0.0005493,0.0068359,0.0006714h-22.0265503
		c-0.7993164,0.0018311-1.5484619,0.3792114-2.1116943,0.9442749c-0.5632324,0.5651245-0.8736572,1.31604-0.8717651,2.1153564
		l0.0148926,9.6101685c0.0036621,1.6450806,0.9553833,2.9146729,2.5986328,2.9146729h5.4844971l0.0092163,4.557251h-7.7658691
		c-3.8217163,0-7.0542603,2.8291626-7.5579834,6.6174927l-9.1306152,68.5371094
		c-0.6078491,4.5709229,2.9480591,8.6324463,7.5598755,8.6324463h40.9147949h9.2626343h21.22229h0.0706787
		C868.1125488,652.7941284,871.6480713,648.8441162,871.1480103,644.3271484z"/>
</g>
</svg>
