<?xml version="1.0" encoding="utf-8"?>
<!-- Generator: Adobe Illustrator 22.1.0, SVG Export Plug-In . SVG Version: 6.00 Build 0)  -->
<svg version="1.1" id="Layer_1" xmlns="http://www.w3.org/2000/svg" xmlns:xlink="http://www.w3.org/1999/xlink" x="0px" y="0px"
	 viewBox="0 0 1920 1080" style="enable-background:new 0 0 1920 1080;" xml:space="preserve">
<style type="text/css">
	.st0{fill:#381818;}
	.st1{fill:#492020;}
	.st2{fill:#F1F5D7;}
	.st3{fill:#B8E0D5;}
	.st4{fill:#D6EBD4;}
	.st5{fill:#F3F7DE;}
	.st6{fill:#C4E5DC;}
	.st7{fill:#DDEEDB;}
	.st8{fill:#AADCD9;}
	.st9{fill:#9ED3D7;}
	.st10{fill:#B4E548;}
	.st11{fill:#9FC634;}
	.st12{fill:#D1EF62;}
	.st13{fill:#8EAB22;}
	.st14{opacity:0.4;fill:#464151;enable-background:new    ;}
	.st15{fill:#AF45B6;}
	.st16{fill:#9735A5;}
	.st17{fill:#BD4EC6;}
	.st18{fill:#842E93;}
	.st19{opacity:0.2;}
	.st20{fill:#FFDD9D;}
	.st21{fill:#FFC98F;}
	.st22{fill:#CC60D8;}
	.st23{fill:#DA1A48;}
	.st24{fill:#CB1749;}
	.st25{fill:#E63B66;}
	.st26{fill:#E22955;}
	.st27{fill:#D83232;}
	.st28{fill:#D81A48;}
	.st29{fill:#EB526F;}
	.st30{fill:none;}
	.st31{fill:#B71547;}
	.st32{opacity:0.3;}
	.st33{fill:#EA5C7A;}
	.st34{fill:#D64165;}
	.st35{fill:#F96783;}
	.st36{fill:#C1305A;}
	.st37{opacity:0.15;fill:#FFFFFF;}
	.st38{fill:#F487AE;}
	.st39{fill:#EA6E95;}
	.st40{fill:#ED759D;}
	.st41{fill:#DD5E8E;}
	.st42{fill:#FF99C3;}
	.st43{fill:#FFBDDB;}
	.st44{fill:#5E5EE5;}
	.st45{fill:#4F3DD3;}
	.st46{fill:#7979F2;}
	.st47{fill:#3131AF;}
	.st48{opacity:0.3;fill:#FFFFFF;}
	.st49{fill:#4EE88E;}
	.st50{fill:#3CD67B;}
	.st51{fill:#24BC61;}
	.st52{fill:#79F7AC;}
	.st53{fill:#0E8AC0;}
	.st54{fill:#139BCD;}
	.st55{fill:#59C9E1;}
	.st56{fill:#13B2DA;}
	.st57{fill:#6ADBEA;}
	.st58{fill:#0B77AD;}
	.st59{fill:#0000FF;}
	.st60{fill:#313177;}
	.st61{fill:#232360;}
	.st62{fill:#444484;}
	.st63{fill:#1E1E5E;}
	.st64{fill:#1C1C51;}
	.st65{opacity:0.14;fill:#FFFFFF;}
</style>
<rect x="733.8" y="255" class="st0" width="456" height="825"/>
<path class="st1" d="M1191,206.1c-3.9,0-7.4,1.6-10,4.1c-2.6,2.6-4.1,6.1-4.1,10v22.1H743.1v-22.1c0-7.8-6.3-14.1-14.1-14.1
	c-3.9,0-7.4,1.6-9.9,4.1c-2.6,2.6-4.1,6.1-4.1,10V1080h28.2V887.2H1177V1080h28.2V220.1C1205.1,212.4,1198.8,206.1,1191,206.1z
	 M743.1,270.4h433.8v176.8H743.1V270.4z M743.1,475.4h433.8v178.7H743.1V475.4z M743.1,859.1V682.2h433.8V859L743.1,859.1
	L743.1,859.1z"/>
<g>
	<g>
		<path class="st2" d="M983.1,333.9v3.9c0,0.8-0.8,1.5-1.8,1.5h-28.2c-1,0-1.8-0.7-1.8-1.5v-3.9c0-0.8,0.8-1.5,1.8-1.5h28.2
			C982.3,332.4,983.1,333.1,983.1,333.9z"/>
		<path class="st3" d="M983.1,333.9v3.9c0,0.8-0.8,1.5-1.8,1.5h-22.4c-1,0-1.8-0.7-1.8-1.5v-3.9c0-0.8,0.8-1.5,1.8-1.5h22.4
			C982.3,332.4,983.1,333.1,983.1,333.9z"/>
		<path class="st4" d="M977.3,333.9v3.9c0,0.8-0.8,1.5-1.8,1.5h-16.6c-1,0-1.8-0.7-1.8-1.5v-3.9c0-0.8,0.8-1.5,1.8-1.5h16.6
			C976.5,332.4,977.3,333.1,977.3,333.9z"/>
		<path class="st5" d="M996.7,365.8l-12.8,78.8c-0.2,1.5-1.6,2.6-3.1,2.6h-27.2c-0.1,0-0.3,0-0.4,0c-1.4-0.2-2.5-1.2-2.7-2.6
			l-12.8-78.8c-0.7-4.2,2.6-8,6.8-8h45.3C994.1,357.8,997.4,361.6,996.7,365.8z"/>
		<path class="st6" d="M996.7,365.8l-12.8,78.8c-0.2,1.5-1.6,2.6-3.1,2.6h-14.2c-0.1,0-0.3,0-0.4,0c-1.4-0.2-2.5-1.2-2.7-2.6
			l-12.8-78.8c-0.7-4.2,2.6-8,6.8-8h32.4C994.1,357.8,997.4,361.6,996.7,365.8z"/>
		<path class="st7" d="M983.6,365.8l-12.8,78.8c-0.2,1.5-1.6,2.6-3.1,2.6h-1.2c-0.1,0-0.3,0-0.4,0c-1.4-0.2-2.5-1.2-2.7-2.6
			l-12.8-78.8c-0.7-4.2,2.6-8,6.8-8h19.3C981.1,357.8,984.3,361.6,983.6,365.8z"/>
		<path class="st8" d="M992.2,365l-1.4,8.7l-0.2,1.1l-0.2,1.2l-1.2,7.1l-0.2,1.3l-0.3,1.8l-0.1,0.9l-8.8,54.3
			c-0.1,0.6-0.6,1-1.1,1.1c0,0-0.1,0-0.1,0h-22.6c0,0-0.1,0-0.1,0c-0.6-0.1-1-0.5-1.1-1.1l-8.8-54.3l-0.2-1.5l-0.2-1.2l-0.2-1.3
			l-0.9-5.7l-0.1-0.9l-0.3-1.9l-0.2-1.1l-1.4-8.8c-0.2-0.9,0.3-1.6,0.5-1.9c0.3-0.3,0.8-0.8,1.8-0.8h45.3c0.9,0,1.5,0.5,1.8,0.8
			C991.9,363.4,992.4,364.1,992.2,365z"/>
		<path class="st6" d="M963.2,442.7h-7.3c0,0-0.1,0-0.1,0c-0.6-0.1-1-0.5-1.1-1.1l-8.8-54.3l-0.4-2.7l-1.1-6.9l-0.4-2.7l-1.6-9.9
			c-0.2-0.9,0.3-1.6,0.5-1.9c0.3-0.3,0.8-0.8,1.8-0.8h6.5c-0.4,1.1-0.5,2.2-0.3,3.5L963.2,442.7z"/>
		<path class="st9" d="M992.2,365l-1.6,9.9l-1.6,9.7l-0.4,2.7l-8.8,54.3c-0.1,0.6-0.6,1-1.1,1.1c0,0-0.1,0-0.1,0h-7.4l12.5-76.9
			c0.2-1.2,0.1-2.4-0.3-3.5h6.6c0.9,0,1.5,0.5,1.8,0.8C991.9,363.4,992.4,364.1,992.2,365z"/>
		<path class="st6" d="M989.9,346.7c0,0.8-0.3,1.5-0.9,2.1c-0.5,0.5-1.2,0.8-2,0.9c0,0,0,0-0.1,0h-39.9c-1.6,0-2.5-1.2-2.5-2.8
			l0-7.6c0-0.8,0.3-1.5,0.9-2.1c0.5-0.6,1.3-0.9,2.1-0.9h39.7c1.6,0.1,2.8,1.3,2.8,2.9L989.9,346.7z"/>
		<path class="st5" d="M979.7,346.7c0,0.8-0.3,1.5-0.9,2.1c-0.5,0.5-1.2,0.8-2,0.9c0,0,0,0-0.1,0h-29.8c-1.6,0-2.5-1.2-2.5-2.8
			l0-7.6c0-0.8,0.3-1.5,0.9-2.1c0.5-0.6,1.3-0.9,2.1-0.9H977c1.6,0.1,2.8,1.3,2.8,2.9L979.7,346.7z"/>
		<path class="st7" d="M979.7,346.7c0,0.8-0.3,1.5-0.9,2.1c-0.5,0.5-1.2,0.8-2,0.9c0,0,0,0-0.1,0h-19.6c-1.6,0-2.5-1.2-2.5-2.8
			l0-7.6c0-0.8,0.3-1.5,0.9-2.1c0.5-0.6,1.3-0.9,2.1-0.9H977c1.6,0.1,2.8,1.3,2.8,2.9L979.7,346.7z"/>
		<path class="st8" d="M985.4,343.9c0,0.7-0.5,1.2-1.2,1.2l-4.4,0l-15.3,0h-0.5l-9.2,0l-4.5,0c-0.7,0-1.2-0.5-1.2-1.2l0-1.9
			c0-0.7,0.5-1.2,1.2-1.2l4.5,0l7,0l2.7,0l15.3,0l4.4,0c0.5,0,0.9,0.3,1.1,0.7c0,0,0,0.1,0,0.1c0,0,0,0.1,0,0.1
			c0,0.1,0.1,0.2,0.1,0.4L985.4,343.9z"/>
		<g>
			<polygon class="st4" points="976.1,349.7 976.1,357.8 958.3,357.8 958.3,349.7 968,349.6 			"/>
			<path class="st3" d="M982.3,357.8l-7.2,0c-0.5,0-0.9-0.4-0.9-0.9v-6.3c0-0.5,0.4-0.9,0.9-0.9l3.3,0l3.8,0v0L982.3,357.8z"/>
			<path class="st2" d="M959.5,357.8h-7.3v-8.1h7.3c0.5,0,0.9,0.4,0.9,0.9v6.3C960.5,357.4,960.1,357.8,959.5,357.8z"/>
		</g>
		<path class="st6" d="M954.7,340.9v4.3l-4.4,0c-0.7,0-1.2-0.5-1.2-1.2l0-1.9c0-0.7,0.5-1.2,1.2-1.2L954.7,340.9z"/>
		<path class="st9" d="M985.4,343.9c0,0.7-0.5,1.2-1.2,1.2l-4.4,0v-4.3l4.4,0c0.5,0,0.9,0.3,1.1,0.7c0,0,0,0.1,0,0.1
			c0,0,0,0.1,0,0.1c0,0.1,0.1,0.2,0.1,0.4L985.4,343.9z"/>
		<path class="st10" d="M990.8,373.8l-0.2,1.1l-0.2,1.2l-1.2,7.1l-0.2,1.3l-0.3,1.8l-0.1,0.9l-8.8,54.3c-0.1,0.6-0.6,1-1.1,1.1
			c0,0-0.1,0-0.1,0h-22.6c0,0-0.1,0-0.1,0c-0.6-0.1-1-0.5-1.1-1.1l-8.8-54.3l-0.2-1.5l-0.2-1.2l-0.2-1.3c8.8-0.6,14.1-3.1,18.8-5.6
			c1.1-0.6,2.1-1.1,3.2-1.7c4.1-2.1,8.2-3.8,14.5-3.9C985.7,372.2,988.6,372.8,990.8,373.8z"/>
		<path class="st11" d="M981.7,374.7c3.8,0,6.6,0.5,8.7,1.4l-1.2,7.1l-0.2,1.3l-0.3,1.8l-0.1,0.9l-8.8,54.3c-0.1,0.6-0.6,1-1.1,1.1
			c0,0-0.1,0-0.1,0h-22.6c0,0-0.1,0-0.1,0c-0.6-0.1-1-0.5-1.1-1.1l-8.8-54.3l-0.2-1.5c10.2-0.8,15.6-4.1,20.9-6.9
			c1-0.5,2.1-1.1,3.1-1.6C973,375.9,976.6,374.7,981.7,374.7z"/>
		<path class="st12" d="M943.9,374.9l-0.2-1.1c1.1-0.4,2.3-0.8,3.7-1.1c0,0,0,0,0,0c1.5-0.3,3.2-0.4,5.3-0.4
			c6.3,0,10.5,1.7,14.5,3.8c0.8,0.4,1.7,0.9,2.5,1.3c4.9,2.6,10.2,5.3,19.6,5.9l-0.2,1.3l-0.3,1.8l-0.1,0.9l-8.8,54.3
			c-0.1,0.6-0.6,1-1.1,1.1c0,0-0.1,0-0.1,0h-22.6c0,0-0.1,0-0.1,0c-0.6-0.1-1-0.5-1.1-1.1l-8.8-54.3l-0.2-1.5l-0.2-1.2l-0.2-1.3
			l-0.9-5.7l-0.1-0.9L943.9,374.9z"/>
		<path class="st10" d="M988.7,386.4l-0.1,0.9l-8.2,50.8l-0.6,3.6c-0.1,0.5-0.5,1-1,1c0,0-0.1,0-0.1,0c0,0-0.1,0-0.1,0h-22.6
			c0,0-0.1,0-0.1,0c-0.6-0.1-1-0.5-1.1-1.1l-0.6-3.6l-8.2-50.8l-0.2-1.5l-0.2-1.2l-0.2-1.3l-0.9-5.7l-0.1-0.9
			c2.1-0.8,4.8-1.3,8.5-1.3c4.7,0,8.2,0.9,11.3,2.3c0.9,0.4,1.7,0.8,2.5,1.2c4.1,2.1,8,4.6,14,6.2c0.1,0,0.1,0,0.2,0.1
			c0.1,0,0.2,0.1,0.3,0.1c0.6,0.2,1.2,0.3,1.9,0.4c0.1,0,0.3,0.1,0.4,0.1c0.1,0,0.2,0,0.3,0.1c0.1,0,0.2,0,0.3,0.1
			c0.2,0,0.3,0.1,0.5,0.1c0.2,0,0.5,0.1,0.7,0.1c0.2,0,0.4,0.1,0.6,0.1c0.1,0,0.3,0,0.4,0.1c0.3,0,0.5,0.1,0.8,0.1
			c0.1,0,0.2,0,0.4,0c0.1,0,0.2,0,0.4,0c0.1,0,0.3,0,0.4,0c0.1,0,0.3,0,0.4,0C988.6,386.4,988.7,386.4,988.7,386.4L988.7,386.4z"/>
		<path class="st11" d="M990.8,373.8l-0.2,1.1l-0.2,1.2l-1.2,7.1l-0.2,1.3l-0.3,1.8l-0.1,0.9l-8.8,54.3c-0.1,0.6-0.6,1-1.1,1.1
			c0,0-0.1,0-0.1,0h-7.4l9.3-57.6l0.5-3.1l1.2-7.3l0.4-2.5C986.1,372.3,988.8,372.9,990.8,373.8z"/>
		<path class="st13" d="M990.4,376.1l-1.2,7.1l-0.2,1.3l-0.3,1.8l-0.1,0.9l-8.8,54.3c-0.1,0.6-0.6,1-1.1,1.1c0,0-0.1,0-0.1,0h-7.4
			l9.3-57.6l0.5-3.1l1.2-7.3C985.7,374.8,988.4,375.3,990.4,376.1z"/>
		<path class="st10" d="M989.2,383.2l-0.2,1.3l-0.3,1.8l-0.1,0.9l-8.8,54.3c-0.1,0.6-0.6,1-1.1,1.1c0,0-0.1,0-0.1,0h-7.4l9.3-57.6
			l0.5-3.1C983.4,382.6,986.1,383,989.2,383.2z"/>
		<path class="st11" d="M988.7,386.4l-0.1,0.9l-8.2,50.8l-0.6,3.6c-0.1,0.5-0.4,0.9-0.8,1c-0.1,0-0.1,0-0.2,0c0,0-0.1,0-0.1,0
			c0,0-0.1,0-0.1,0h-7.4l0.8-4.6l8.6-52.9c0.1,0,0.1,0,0.2,0.1c0.1,0,0.2,0.1,0.3,0.1c0.6,0.2,1.2,0.3,1.9,0.4
			c0.1,0,0.3,0.1,0.4,0.1c0.1,0,0.2,0,0.3,0.1c0.1,0,0.2,0,0.3,0.1c0.2,0,0.3,0.1,0.5,0.1c0.2,0,0.5,0.1,0.7,0.1
			c0.2,0,0.4,0.1,0.6,0.1c0.1,0,0.3,0,0.4,0.1c0.3,0,0.5,0.1,0.8,0.1c0.1,0,0.2,0,0.4,0c0.1,0,0.2,0,0.4,0c0.1,0,0.3,0,0.4,0
			c0.1,0,0.3,0,0.4,0C988.6,386.4,988.7,386.4,988.7,386.4z"/>
		<circle class="st11" cx="956.7" cy="385.7" r="5.6"/>
		<circle class="st11" cx="967.2" cy="391.6" r="2.9"/>
		<circle class="st11" cx="959.8" cy="397.8" r="1.8"/>
		<circle class="st11" cx="974.2" cy="421.3" r="5.6"/>
		<circle class="st11" cx="960.6" cy="425" r="2.9"/>
		<circle class="st11" cx="960.7" cy="415.3" r="1.8"/>
		<path class="st11" d="M980.4,438l-0.6,3.6c-0.1,0.5-0.5,1-1,1c0,0-0.1,0-0.1,0c0,0-0.1,0-0.1,0h-22.6c0,0-0.1,0-0.1,0
			c-0.6-0.1-1-0.5-1.1-1.1l-0.6-3.6H980.4z"/>
		<path class="st13" d="M980.4,438l-0.6,3.6c-0.1,0.5-0.4,0.9-0.9,1c-0.1,0-0.1,0-0.2,0c0,0-0.1,0-0.1,0c0,0-0.1,0-0.1,0h-7.4
			l0.8-4.6H980.4z"/>
	</g>
	<path class="st14" d="M989.9,357.8h-7.6l0-8.1v0h4.7c0,0,0,0,0.1,0c0.8,0,1.5-0.3,2-0.9c0.5-0.6,0.9-1.3,0.9-2.1l0-7.6
		c0-1.6-1.2-2.8-2.8-2.9h-4v-2.4c0-0.8-0.8-1.5-1.8-1.5h-5.8h-16.6h-5.7c-1,0-1.8,0.7-1.8,1.5v2.4h-3.9c-0.8,0-1.5,0.4-2.1,0.9
		c-0.5,0.6-0.9,1.3-0.9,2.1v0c0,0,0,0,0,0l0,7.6c0,1.6,0.9,2.8,2.5,2.8h5.2v8.1h-7.6c-4.2,0-7.5,3.8-6.8,8l12.8,78.8
		c0.2,1.4,1.3,2.4,2.7,2.6c0.1,0,0.3,0,0.4,0h12.9h1.2h13.1c1.5,0,2.8-1.1,3.1-2.6l12.8-78.8C997.4,361.6,994.1,357.8,989.9,357.8z"
		/>
</g>
<g>
	<g>
		<path class="st5" d="M867.9,447.2h-70.6c-7.1,0-11.5-7.6-7.9-13.8l29.4-50.9c0.8-1.3,1.2-2.8,1.2-4.3v-13.9h25.5v13.9
			c0,1.5,0.4,3,1.2,4.3l29.4,50.9C879.4,439.6,875,447.2,867.9,447.2z"/>
		<path class="st9" d="M871.8,440.3c-0.4,0.7-1.6,2.3-3.9,2.3h-70.6c-2.4,0-3.5-1.6-3.9-2.3s-1.2-2.5,0-4.5l12.6-21.8l1.5-2.7
			l0.1-0.2l0.2-0.3l0.9-1.6l4.3-7.5l1.7-2.9l0,0l8.1-14c1.2-2,1.8-4.3,1.8-6.6V369h16.2v9.2c0,2.3,0.6,4.6,1.8,6.6l8.1,14l0,0
			l1.7,2.9l4.3,7.5l0.9,1.6l0.2,0.3l0.1,0.2l1.5,2.7l12.6,21.8C873,437.8,872.2,439.6,871.8,440.3z"/>
		<path class="st8" d="M797.3,439.8c-0.7,0-1.2-0.3-1.5-0.9c-0.3-0.6-0.3-1.2,0-1.8l14.4-24.9l0.9-1.6l14.1-24.4
			c1.4-2.4,2.1-5.2,2.1-8v-6.5h10.6v6.5c0,2.8,0.7,5.6,2.1,8l14.1,24.4l1.2,2l14.1,24.5c0.3,0.6,0.3,1.2,0,1.8
			c-0.3,0.6-0.8,0.9-1.5,0.9H797.3z"/>
		<path class="st15" d="M871.8,440.3c-0.4,0.7-1.6,2.3-3.9,2.3h-70.6c-2.4,0-3.5-1.6-3.9-2.3s-1.2-2.5,0-4.5l12.6-21.8l1.5-2.7
			l0.1-0.2c4.7-0.3,8.5-1,11.7-2c0.9-0.3,1.7-0.6,2.5-0.9c2.8-1.1,5.2-2.4,7.6-3.6c0.7-0.4,1.4-0.7,2-1.1c0.4-0.2,0.8-0.4,1.3-0.7
			c2-1,4.1-1.9,6.5-2.6c0.6-0.2,1.1-0.3,1.7-0.5c2.3-0.5,4.9-0.9,7.9-0.9h0.1c0.6,0,1.2,0,1.7,0l1.7,2.9l4.3,7.5l0.9,1.6l0.2,0.3
			l0.1,0.2l1.5,2.7l12.6,21.8C873,437.8,872.2,439.6,871.8,440.3z"/>
		<path class="st6" d="M828.1,393.7l-18.5,32.1c-2.1,3.6,0.5,8,4.6,8h37c4.1,0,6.7-4.5,4.6-8l-18.5-32.1
			C835.3,390.2,830.1,390.2,828.1,393.7z"/>
		<path class="st16" d="M871.8,440.3c-0.4,0.7-1.6,2.3-3.9,2.3h-70.6c-2.4,0-3.5-1.6-3.9-2.3s-1.2-2.5,0-4.5l12.6-21.8
			c4.4-0.1,8.1-0.7,11.3-1.4c0.8-0.2,1.6-0.4,2.4-0.6c5.3-1.6,9.2-3.9,13-5.9c2.5-1.3,5-2.5,7.9-3.3c0.6-0.2,1.1-0.3,1.7-0.4
			c2-0.4,4.1-0.6,6.6-0.6c1.2,0,2.3,0.1,3.4,0.2l4.3,7.5l0.9,1.6l0.3,0.4l1.5,2.7l12.6,21.8C873,437.8,872.2,439.6,871.8,440.3z"/>
		<path class="st17" d="M851.2,433.8h-37c-4.1,0-6.7-4.5-4.6-8l9.7-16.7c0.9-0.3,1.7-0.6,2.5-0.9c2.8-1.1,5.2-2.4,7.6-3.6
			c0.7-0.4,1.4-0.7,2-1.1c0.4-0.2,0.8-0.4,1.3-0.7c2-1,4.1-1.9,6.5-2.6c0.6-0.2,1.1-0.3,1.7-0.5l15,26
			C857.9,429.3,855.3,433.8,851.2,433.8z"/>
		<path class="st15" d="M851.2,433.8h-37c-4.1,0-6.7-4.5-4.6-8l7.7-13.3c0.8-0.2,1.6-0.4,2.4-0.6c5.3-1.6,9.2-3.9,13-5.9
			c2.5-1.3,5-2.5,7.9-3.3c0.6-0.2,1.1-0.3,1.7-0.4l13.6,23.5C857.9,429.3,855.3,433.8,851.2,433.8z"/>
		<path class="st17" d="M871.8,440.3c-0.4,0.7-1.6,2.3-3.9,2.3h-70.6c-2.4,0-3.5-1.6-3.9-2.3s-1.2-2.5,0-4.5l12.6-21.8l1.5-2.7
			l0.1-0.2l0.2-0.3l0.9-1.6l4.3-7.5l1.7-2.9c0.6,0,1.1,0,1.7,0h0.1c3.1,0,5.8,0.4,8.2,0.9c0.5,0.1,1.1,0.3,1.6,0.4
			c2.4,0.7,4.5,1.6,6.4,2.6c0.4,0.2,0.9,0.4,1.3,0.7c0.7,0.4,1.4,0.7,2,1.1c2.4,1.3,4.8,2.6,7.7,3.7c0.8,0.3,1.7,0.6,2.6,0.9
			c3.1,1,6.8,1.7,11.3,1.9l0.1,0.2l1.5,2.7l12.6,21.8C873,437.8,872.2,439.6,871.8,440.3z"/>
		<path class="st15" d="M871.8,440.3c-0.4,0.7-1.6,2.3-3.9,2.3h-70.6c-2.4,0-3.5-1.6-3.9-2.3s-1.2-2.5,0-4.5l12.6-21.8l1.5-2.7
			l0.3-0.4l0.9-1.6l4.3-7.5c1-0.1,2.2-0.2,3.4-0.2c2.5,0,4.8,0.2,6.8,0.7c0.6,0.1,1.1,0.3,1.6,0.4c2.9,0.8,5.4,2,7.8,3.2
			c3.9,2,7.8,4.3,13.2,6c0.8,0.2,1.6,0.5,2.5,0.7c0,0,0,0,0,0c3.1,0.7,6.7,1.2,11,1.4l12.6,21.8C873,437.8,872.2,439.6,871.8,440.3z
			"/>
		<path class="st16" d="M871.8,440.3c-0.4,0.7-1.6,2.3-3.9,2.3h-70.6c-2.4,0-3.5-1.6-3.9-2.3s-1.2-2.5,0-4.5l12.6-21.8l1.5-2.7
			l0.1-0.2c1.2-0.1,2.3-0.2,3.4-0.3l-0.8,1.4l-0.9,1.5l-13.5,23.4c-0.3,0.6-0.3,1.2,0,1.8c0.3,0.6,0.8,0.9,1.5,0.9h70.6
			c0.7,0,1.2-0.3,1.5-0.9c0.3-0.6,0.3-1.2,0-1.8l-13.5-23.4l-0.6-1.1l-1.1-1.9l-0.1-0.2l-5.2-9l-1.6-2.8c0.5,0,0.9,0,1.4,0h0.1
			c0.6,0,1.2,0,1.7,0l1.7,2.9l4.3,7.5l0.9,1.6l0.2,0.3l0.1,0.2l1.5,2.7l12.6,21.8C873,437.8,872.2,439.6,871.8,440.3z"/>
		<path class="st18" d="M871.8,440.3c-0.4,0.7-1.6,2.3-3.9,2.3h-70.6c-2.4,0-3.5-1.6-3.9-2.3s-1.2-2.5,0-4.5l12.6-21.8
			c1.2,0,2.3-0.1,3.3-0.2l-13.5,23.4c-0.3,0.6-0.3,1.2,0,1.8c0.3,0.6,0.8,0.9,1.5,0.9h70.6c0.7,0,1.2-0.3,1.5-0.9
			c0.3-0.6,0.3-1.2,0-1.8l-13.5-23.4l-0.6-1.1l-1.1-1.9l-0.1-0.2l-5.2-9c1.2,0,2.3,0.1,3.3,0.2l4.3,7.5l0.9,1.6l0.2,0.3l0.1,0.2
			l1.5,2.7l12.6,21.8C873,437.8,872.2,439.6,871.8,440.3z"/>
		<path class="st15" d="M871.8,440.3c-0.4,0.7-1.6,2.3-3.9,2.3h-70.6c-2.4,0-3.5-1.6-3.9-2.3s-1.2-2.5,0-4.5l12.6-21.8l1.5-2.7
			l0.1-0.2l0.2-0.3l0.9-1.6l4.3-7.5l1.7-2.9c0.6,0,1.1,0,1.7,0h0.1c0.5,0,1,0,1.4,0l-1.6,2.8l-5.2,9l-0.1,0.2l-0.8,1.4l-0.9,1.5
			l-13.5,23.4c-0.3,0.6-0.3,1.2,0,1.8c0.3,0.6,0.8,0.9,1.5,0.9h70.6c0.7,0,1.2-0.3,1.5-0.9c0.3-0.6,0.3-1.2,0-1.8l-13.5-23.4
			l-0.6-1.1l-1.1-1.9c1.1,0.1,2.2,0.2,3.4,0.3l0.1,0.2l1.5,2.7l12.6,21.8C873,437.8,872.2,439.6,871.8,440.3z"/>
		<path class="st16" d="M871.8,440.3c-0.4,0.7-1.6,2.3-3.9,2.3h-70.6c-2.4,0-3.5-1.6-3.9-2.3s-1.2-2.5,0-4.5l12.6-21.8l7-12.1
			c1-0.1,2.1-0.2,3.3-0.2l-20.5,35.5c-0.3,0.6-0.3,1.2,0,1.8c0.3,0.6,0.8,0.9,1.5,0.9h70.6c0.7,0,1.2-0.3,1.5-0.9
			c0.3-0.6,0.3-1.2,0-1.8l-13.5-23.4c1.1,0.1,2.2,0.1,3.3,0.2l12.6,21.8C873,437.8,872.2,439.6,871.8,440.3z"/>
		<path class="st9" d="M839.4,370.7l0,14.2l-0.3-0.5c-2.9-4.9-10-4.9-12.9,0l-0.6,1.1v-14.7H839.4z"/>
		<rect x="819.8" y="369" class="st19" width="25.4" height="6.4"/>
		<g>
			<g>
				<path class="st20" d="M846,352.6l-1.7,9.2c0,1.2-0.4,2.3-1,3.1c-0.7,0.7-1.6,1.2-2.7,1.2l-16.8,0c-2,0-3.7-1.6-3.7-3.7
					l-1.7-10.1c-0.2-1.4,0.3-2.9,1.5-3.7c0.6-0.4,1.3-0.6,2.1-0.6l20.3,0c0.5,0,1,0.1,1.5,0.3c0.9,0.4,1.5,1.2,1.9,2.1
					c0.1,0.4,0.2,0.8,0.3,1.3C846.1,352,846.1,352.3,846,352.6z"/>
				<path class="st21" d="M846,352.6l-1.7,9.2c0,1.2-0.4,2.3-1,3.1c-0.6,0.6-1.4,1.1-2.4,1.2c-0.1,0-0.2,0-0.3,0l-4.5,0
					c1.8,0,3.2-1.9,3.2-4.3l1.7-9.6c0-2.3-1.4-4.2-3.2-4.2l4.5,0c0.5,0,1,0.1,1.5,0.3c0.9,0.4,1.5,1.2,1.9,2.1
					c0.2,0.4,0.3,0.9,0.3,1.4C846.1,352.1,846.1,352.3,846,352.6z"/>
				<circle class="st21" cx="829" cy="359.2" r="2.4"/>
				<circle class="st21" cx="829.1" cy="351.2" r="1.4"/>
				<circle class="st21" cx="823.8" cy="353.9" r="2.7"/>
				<circle class="st21" cx="837.3" cy="353.9" r="1.8"/>
			</g>
			<path class="st5" d="M850.8,361.7v5.8c0,1.2-1,2.3-2.3,2.3h-31.9c-1.2,0-2.3-1-2.3-2.3v-5.8c0-1.2,1-2.3,2.3-2.3h31.9
				C849.8,359.4,850.8,360.4,850.8,361.7z"/>
			<path class="st7" d="M850.8,361.7v5.8c0,1.2-1,2.3-2.3,2.3h-14c-1.2,0-2.3-1-2.3-2.3v-5.8c0-1.2,1-2.3,2.3-2.3h14
				C849.8,359.4,850.8,360.4,850.8,361.7z"/>
		</g>
		<path class="st22" d="M851.2,433.8h-37c-4.1,0-6.7-4.5-4.6-8l15-26c0.5,0.1,1.1,0.3,1.6,0.4c2.4,0.7,4.5,1.6,6.4,2.6
			c0.4,0.2,0.9,0.4,1.3,0.7c0.7,0.4,1.4,0.7,2,1.1c2.4,1.3,4.8,2.6,7.7,3.7c0.8,0.3,1.7,0.6,2.6,0.9l9.6,16.6
			C857.9,429.3,855.3,433.8,851.2,433.8z"/>
		<path class="st17" d="M851.8,433.8c-0.2,0-0.4,0-0.6,0h-37c-4.1,0-6.7-4.5-4.6-8l5.9-10.1l4.4-7.6l3.3-5.7
			c0.6,0.1,1.1,0.3,1.6,0.4c2.9,0.8,5.4,2,7.8,3.2c3.9,2,7.8,4.3,13.2,6c0.8,0.2,1.6,0.5,2.5,0.7c0,0,0,0,0,0l3.2,5.6l1.9,3.3v0
			l2.5,4.3c0.3,0.5,0.5,0.9,0.6,1.4C857.2,430.2,855.1,433.4,851.8,433.8z"/>
		<circle class="st16" cx="817.6" cy="411.9" r="4.4"/>
		<circle class="st15" cx="826.6" cy="416.4" r="3.1"/>
		<circle class="st15" cx="821.3" cy="423.3" r="2"/>
		<circle class="st16" cx="855.6" cy="431.5" r="4.4"/>
		<circle class="st15" cx="846.6" cy="427" r="3.1"/>
		<circle class="st16" cx="851.9" cy="420.1" r="2"/>
		<path class="st15" d="M822,411.9c0,2.4-2,4.4-4.4,4.4c-0.8,0-1.6-0.2-2.2-0.6l4.4-7.6C821.1,408.8,822,410.2,822,411.9z"/>
		<path class="st15" d="M851.8,433.8c-0.4-0.7-0.6-1.4-0.6-2.3c0-2.4,2-4.4,4.4-4.4c0.3,0,0.6,0,0.9,0.1
			C857.2,430.2,855.1,433.4,851.8,433.8z"/>
		<path class="st15" d="M853.4,421.5L853.4,421.5c-0.4,0.4-0.9,0.6-1.4,0.6c-1.1,0-2-0.9-2-2c0-0.9,0.6-1.7,1.5-1.9L853.4,421.5z"/>
	</g>
	<path class="st14" d="M875.8,433.4l-29.4-50.9c-0.8-1.3-1.2-2.8-1.2-4.3v-8.5h3.2c1.2,0,2.3-1,2.3-2.3v-5.8c0-1.2-1-2.3-2.3-2.3
		h-3.7l1.2-6.8c0-0.3,0.1-0.5,0-0.8c0,0,0,0,0-0.1c0,0,0,0,0-0.1c0,0,0-0.1,0-0.1c0,0,0-0.1,0-0.1c0-0.1,0-0.1,0-0.2
		c0,0,0-0.1,0-0.1c0-0.1,0-0.1-0.1-0.2c0,0,0-0.1,0-0.1c0-0.1-0.1-0.2-0.1-0.3c0,0,0,0,0,0c0,0,0,0,0,0l0,0c0,0,0-0.1,0-0.1
		c0-0.1-0.1-0.2-0.1-0.2c0,0,0-0.1,0-0.1c0-0.1-0.1-0.2-0.1-0.2c0,0,0-0.1-0.1-0.1c0-0.1-0.1-0.1-0.1-0.2c0,0,0,0,0,0
		c-0.1-0.2-0.3-0.4-0.5-0.5c-0.3-0.2-0.6-0.4-0.9-0.6c-0.2-0.1-0.5-0.2-0.7-0.2c-0.2-0.1-0.5-0.1-0.8-0.1l-4.5,0c0,0,0,0,0,0
		l-15.7,0c-0.8,0-1.5,0.2-2.1,0.6c-1.2,0.8-1.8,2.3-1.5,3.7l1.2,7.1h-3.1c-1.2,0-2.3,1-2.3,2.3v5.8c0,1.2,1,2.3,2.3,2.3h3.2v5.7h0
		v2.8c0,1.5-0.4,3-1.2,4.3l-29.4,50.9c-3.5,6.1,0.9,13.8,7.9,13.8h70.6C875,447.2,879.4,439.6,875.8,433.4z"/>
</g>
<g>
	<g>
		<path class="st8" d="M1097.3,234.3c-14.2,0-26.2-10.6-28.1-24.6c-0.1-0.9-0.2-1.9-0.2-2.8c0-0.3,0-0.6,0-0.9
			c0-1.8,0.2-3.6,0.5-5.4c0.3-1.4,0.7-2.8,1.1-4.1c4-11.2,14.7-18.8,26.7-18.8c12,0,22.8,7.6,26.7,19c0.4,1.1,0.7,2.2,0.9,3.3
			c0.4,2,0.6,4,0.6,6c0,0.3,0,0.6,0,0.8l0,0.1c0,1.2-0.1,2.4-0.3,3.5c-0.9,5.5-3.3,10.6-7.1,14.8c-3.8,4.1-8.6,7-13.9,8.3l-0.1,0
			C1101.9,234.1,1099.6,234.3,1097.3,234.3z"/>
		<rect x="1085.2" y="162" class="st5" width="24.2" height="17.2"/>
		<circle class="st5" cx="1097.3" cy="206" r="36.3"/>
		<path class="st9" d="M1128.3,206c0,0.3,0,0.6,0,0.9v0c0,1.3-0.2,2.6-0.3,3.8c0,0,0,0,0,0.1c-1.9,12.3-11.1,22.3-23,25.3h0
			c0,0-0.1,0-0.1,0h0c-2.4,0.6-4.9,0.9-7.4,0.9c-15.7,0-28.7-11.7-30.7-26.9c0,0,0,0,0,0c-0.1-1-0.2-2-0.2-3v0c0-0.3,0-0.7,0-1
			c0-1.8,0.2-3.6,0.5-5.4c0-0.2,0.1-0.4,0.1-0.5c0.3-1.4,0.6-2.7,1-4c0.1-0.2,0.1-0.4,0.2-0.6c4.3-12,15.7-20.5,29.2-20.5
			c13.5,0,25,8.7,29.2,20.8c0,0.1,0.1,0.2,0.1,0.3c0.4,1.1,0.7,2.2,0.9,3.4c0,0.1,0,0.2,0.1,0.2
			C1128.1,201.7,1128.3,203.9,1128.3,206z"/>
		<path class="st8" d="M1097.3,234.3c-14.2,0-26.2-10.6-28.1-24.6c-0.1-0.9-0.2-1.9-0.2-2.8c0-0.3,0-0.6,0-0.9
			c0-1.8,0.2-3.6,0.5-5.4c0.3-1.4,0.7-2.8,1.1-4.1c4-11.2,14.7-18.8,26.7-18.8c12,0,22.8,7.6,26.7,19c0.4,1.1,0.7,2.2,0.9,3.3
			c0.4,2,0.6,4,0.6,6c0,0.3,0,0.6,0,0.8l0,0.1c0,1.2-0.1,2.4-0.3,3.5c-0.9,5.5-3.3,10.6-7.1,14.8c-3.8,4.1-8.6,7-13.9,8.3l-0.1,0
			C1101.9,234.1,1099.6,234.3,1097.3,234.3z"/>
		<g>
			<path class="st20" d="M1109.8,146.9l-1.5,8.4c0,1.1-0.3,2.1-0.9,2.8c-0.6,0.7-1.5,1.1-2.4,1.1l-15.3,0c-1.9,0-3.4-1.5-3.4-3.4
				l-1.5-9.2c-0.2-1.3,0.3-2.6,1.4-3.3c0.5-0.4,1.2-0.6,1.9-0.6l18.5,0c0.5,0,0.9,0.1,1.4,0.3c0.8,0.4,1.4,1.1,1.7,1.9
				c0.1,0.4,0.2,0.8,0.3,1.2C1109.9,146.3,1109.9,146.6,1109.8,146.9z"/>
			<path class="st21" d="M1109.8,146.9l-1.5,8.4c0,1.1-0.3,2.1-0.9,2.8c-0.6,0.6-1.3,1-2.2,1.1c-0.1,0-0.2,0-0.3,0l-4.1,0
				c1.6,0,2.9-1.8,2.9-3.9l1.6-8.7c0-2.1-1.3-3.9-2.9-3.9l4.1,0c0.5,0,0.9,0.1,1.4,0.3c0.8,0.4,1.4,1.1,1.7,1.9
				c0.1,0.4,0.2,0.8,0.3,1.3C1109.9,146.4,1109.9,146.7,1109.8,146.9z"/>
			<circle class="st21" cx="1094.3" cy="153" r="2.2"/>
			<circle class="st21" cx="1094.3" cy="145.6" r="1.2"/>
			<circle class="st21" cx="1089.5" cy="148.1" r="2.4"/>
			<circle class="st21" cx="1101.8" cy="148.1" r="1.6"/>
		</g>
		<circle class="st6" cx="1097.3" cy="206" r="18.6"/>
		<path class="st23" d="M1128.3,206c0,0.3,0,0.6,0,0.9v0c0,1.3-0.2,2.6-0.3,3.8c0,0,0,0,0,0.1c-1.9,12.3-11.1,22.3-23,25.3h0
			c0,0-0.1,0-0.1,0h0c-2.4,0.6-4.9,0.9-7.4,0.9c-15.7,0-28.7-11.7-30.7-26.9c0,0,0,0,0,0c-0.1-1-0.2-2-0.2-3
			c26.8-0.1,29-13.4,48.2-13.4c5.6,0,9.4,1,12.1,2.5c0.4,1.1,0.7,2.2,0.9,3.4c0,0.1,0,0.2,0.1,0.2
			C1128.1,201.7,1128.3,203.9,1128.3,206z"/>
		<path class="st24" d="M1128.3,206c0,0.3,0,0.6,0,0.9v0c0,1.3-0.2,2.6-0.3,3.8c0,0,0,0,0,0.1c-1.9,12.3-11.1,22.3-23,25.3
			c0,0-0.1,0-0.1,0h0c-2.4,0.6-4.9,0.9-7.4,0.9c-15.7,0-28.7-11.7-30.7-26.9c0,0,0,0,0,0c15.5-0.1,22.7-4.6,29.9-8.4
			c5.1-2.7,10.1-5,18.1-5c6.3,0,10.3,1.3,13.1,3.1C1128.1,201.7,1128.3,203.9,1128.3,206z"/>
		<path class="st25" d="M1128.3,206.9c0,1.3-0.2,2.6-0.3,3.8c0,0,0,0,0,0.1c-1.9,12.3-11.1,22.3-23,25.3c0,0-0.1,0-0.1,0h0
			c-2.4,0.6-4.9,0.9-7.4,0.9c-15.7,0-28.7-11.7-30.7-26.9c-0.1-1-0.2-2-0.2-3.1c0-0.3,0-0.7,0-1c0-1.8,0.2-3.6,0.5-5.4
			c0-0.2,0.1-0.4,0.1-0.5c0.3-1.4,0.6-2.7,1-4c1.5-0.8,3.4-1.5,5.7-1.9c0,0,0,0,0,0c1.8-0.3,3.9-0.5,6.3-0.5
			C1099.1,193.7,1101.3,206.9,1128.3,206.9z"/>
		<path class="st26" d="M1127.9,210.8C1127.9,210.8,1127.9,210.8,1127.9,210.8c-1.9,12.4-11.1,22.3-23.1,25.3c0,0-0.1,0-0.1,0h0
			c-2.4,0.6-4.9,0.9-7.4,0.9c-15.7,0-28.7-11.7-30.7-26.9c-0.1-1-0.2-2-0.2-3.1c0-0.3,0-0.7,0-1c0-1.8,0.2-3.6,0.5-5.4
			c2.8-1.8,6.8-3.1,13.2-3.1C1099,197.5,1101.3,210.6,1127.9,210.8z"/>
		<circle class="st27" cx="1094.7" cy="210.9" r="2.3"/>
		<circle class="st28" cx="1081.2" cy="211.4" r="6.3"/>
		<circle class="st28" cx="1090.4" cy="222.7" r="4"/>
		<path class="st25" d="M1115.9,206c0,1.2-0.1,2.4-0.3,3.5c-1.6,8.6-9.2,15-18.2,15c-1.1,0-2.2-0.1-3.3-0.3c-2.7-0.5-5.2-1.5-7.3-3
			c-1.5-1.1-2.9-2.3-4-3.8c-1.9-2.5-3.3-5.4-3.7-8.7c-0.1-0.9-0.2-1.8-0.2-2.8c0-0.1,0-0.1,0-0.2c1.1-0.2,2.1-0.5,3-0.7
			c4.7-1.3,8.3-3.1,11.7-4.9c1.3-0.7,2.5-1.4,3.8-2c4.1-2.1,8.3-3.9,14-4.4c0.8,0.9,1.5,1.9,2.1,2.9c1.6,2.7,2.5,5.8,2.5,9.1
			C1115.9,205.9,1115.9,205.9,1115.9,206z"/>
		<path class="st26" d="M1115.9,206c0,1.2-0.1,2.4-0.3,3.5c-1.6,8.6-9.2,15-18.2,15c-1.1,0-2.2-0.1-3.3-0.3c-2.7-0.5-5.2-1.5-7.3-3
			c-1.5-1.1-2.9-2.3-4-3.8c-1.9-2.5-3.3-5.4-3.7-8.7c2.5-0.5,4.7-1.2,6.7-1.9c4.2-1.6,7.5-3.5,10.9-5.2c1.2-0.7,2.5-1.3,3.7-1.9
			c3.7-1.7,7.7-2.9,13.1-3.1c1.6,2.7,2.5,5.8,2.5,9.1C1115.9,205.9,1115.9,205.9,1115.9,206z"/>
		<path class="st29" d="M1115.9,206c0,1.2-0.1,2.4-0.3,3.5c-1.6,8.6-9.2,15-18.2,15c-1.1,0-2.2-0.1-3.3-0.3c-2.7-0.5-5.2-1.5-7.3-3
			c-1.5-1.1-2.9-2.3-4-3.8c-1.9-2.5-3.3-5.4-3.7-8.7c-0.1-0.9-0.2-1.8-0.2-2.8c0-0.1,0-0.1,0-0.2c0-0.1,0-0.2,0-0.3
			c0.1-2.9,0.8-5.6,2-8.1c0.7-1.3,1.5-2.6,2.5-3.7c5.7,0.5,9.9,2.3,14,4.4c1,0.5,2,1,3,1.6c4.3,2.3,9,4.7,15.7,6
			C1115.9,205.9,1115.9,205.9,1115.9,206z"/>
		<path class="st25" d="M1115.6,209.5c-1.6,8.6-9.2,15-18.2,15c-1.1,0-2.2-0.1-3.3-0.3c-2.7-0.5-5.2-1.5-7.3-3
			c-1.5-1.1-2.9-2.3-4-3.8c-1.9-2.5-3.3-5.4-3.7-8.7c-0.1-0.9-0.2-1.8-0.2-2.8c0-0.1,0-0.1,0-0.2c0-0.1,0-0.2,0-0.3
			c0.1-2.9,0.8-5.6,2-8.1c5.2,0.1,9.1,1.2,12.7,2.7c1,0.4,2,0.9,3,1.4C1101.9,204.4,1107.1,207.8,1115.6,209.5z"/>
		<circle class="st26" cx="1094.7" cy="210.9" r="2.3"/>
		<path class="st26" d="M1087.1,213.6c-0.8,2-2.4,3.4-4.4,3.9c-1.9-2.5-3.3-5.4-3.7-8.7c-0.1-0.9-0.2-1.8-0.2-2.8c0-0.1,0-0.1,0-0.2
			c0-0.1,0-0.2,0-0.3c0.9-0.4,2-0.6,3-0.5c0.6,0.1,1.1,0.2,1.7,0.4c0.8,0.3,1.6,0.8,2.2,1.4C1087.4,208.6,1088,211.2,1087.1,213.6z"
			/>
		<path class="st26" d="M1094.2,224.1c0,0.1-0.1,0.1-0.1,0.2c-2.7-0.5-5.2-1.5-7.3-3c0,0,0,0,0,0c0.8-2,3.1-3.1,5.1-2.3
			C1093.9,219.8,1094.9,222.1,1094.2,224.1z"/>
		<path class="st30" d="M1097.3,175"/>
		
			<rect x="1089.9" y="162.6" transform="matrix(-1.836970e-16 1 -1 -1.836970e-16 1266.748 -927.9091)" class="st9" width="14.9" height="13.6"/>
		<path class="st5" d="M1114.1,155.2v5.3c0,1.1-0.9,2.1-2.1,2.1h-29.1c-1.1,0-2.1-0.9-2.1-2.1v-5.3c0-1.1,0.9-2.1,2.1-2.1h29.1
			C1113.2,153.1,1114.1,154,1114.1,155.2z"/>
		<path class="st7" d="M1114.1,155.2v5.3c0,1.1-0.9,2.1-2.1,2.1h-12.8c-1.1,0-2.1-0.9-2.1-2.1v-5.3c0-1.1,0.9-2.1,2.1-2.1h12.8
			C1113.2,153.1,1114.1,154,1114.1,155.2z"/>
		<line class="st30" x1="1097.4" y1="171.6" x2="1097.4" y2="209.7"/>
		<polyline class="st30" points="1097.3,172 1097.3,177.7 1097.3,187.4 1097.3,206.1 1097.3,224.4 1097.3,234.3 1097.3,240.8 		"/>
		<polyline class="st30" points="1125.7,206.1 1115.8,206.1 1097.3,206.1 1078.8,206.1 		"/>
		<g>
			<path class="st24" d="M1128.3,206c0,0.3,0,0.6,0,0.9v0c0,1.3-0.2,2.6-0.3,3.8c0,0,0,0,0,0.1c-1.9,12.3-11.1,22.3-23,25.3
				c0,0-0.1,0-0.1,0h0c-2.4,0.6-4.9,0.9-7.4,0.9c-15.7,0-28.7-11.7-30.7-26.9c0,0,0,0,0,0c0-0.2-0.1-0.5-0.1-0.7c0,0,0,0,0,0
				c0-0.2,0-0.4-0.1-0.7c0-0.5-0.1-1.1-0.1-1.6c0.9,0,1.8,0,2.7-0.1c0,0.9,0.1,1.9,0.2,2.8c0,0.1,0,0.2,0,0.2
				c2,13.9,14,24.3,28,24.3c2.3,0,4.6-0.3,6.8-0.8l0.1,0c5.3-1.3,10.2-4.2,13.9-8.3c3.7-4.1,6.2-9.1,7.1-14.5c0-0.1,0-0.2,0-0.3
				c0.2-1.2,0.3-2.3,0.3-3.5v0l0-0.1c0-0.2,0-0.5,0-0.8c0-2-0.2-4-0.6-6c-0.1-0.6-0.3-1.2-0.5-1.9c-0.1-0.5-0.3-1-0.5-1.5
				c-0.2-0.7-0.5-1.3-0.8-2c1.3,0.4,2.4,0.9,3.4,1.4c0.4,1.1,0.7,2.2,0.9,3.4c0,0.1,0,0.2,0.1,0.2
				C1128.1,201.7,1128.3,203.9,1128.3,206z"/>
			<path class="st31" d="M1128.3,206c0,0.3,0,0.6,0,0.9v0c0,1.3-0.2,2.6-0.3,3.8c0,0,0,0,0,0.1c-1.9,12.3-11.1,22.3-23,25.3
				c0,0-0.1,0-0.1,0h0c-2.4,0.6-4.9,0.9-7.4,0.9c-15.7,0-28.7-11.7-30.7-26.9c0,0,0,0,0,0c0.9,0,1.8,0,2.7-0.1
				c2,13.9,14,24.3,28,24.3c2.3,0,4.6-0.3,6.8-0.8l0.1,0c5.3-1.3,10.2-4.2,13.9-8.3c3.7-4.1,6.2-9.1,7.1-14.5c0-0.1,0-0.2,0-0.3
				c0.2-1.2,0.3-2.3,0.3-3.5v0l0-0.1c0-0.2,0-0.5,0-0.8c0-2-0.2-4-0.6-6c-0.1-0.6-0.3-1.2-0.5-1.9c1.2,0.4,2.2,1,3.1,1.5
				C1128.1,201.7,1128.3,203.9,1128.3,206z"/>
			<path class="st26" d="M1128.3,206.9c0,1.3-0.2,2.6-0.3,3.8c0,0,0,0,0,0.1c-1.9,12.3-11.1,22.3-23,25.3c0,0-0.1,0-0.1,0h0
				c-2.4,0.6-4.9,0.9-7.4,0.9c-15.7,0-28.7-11.7-30.7-26.9c0,0,0,0,0,0c0-0.2-0.1-0.5-0.1-0.7c0,0,0,0,0,0c0-0.2,0-0.4-0.1-0.7
				c0-0.5-0.1-1.1-0.1-1.6v0c0-0.3,0-0.7,0-1c0-1.8,0.2-3.6,0.5-5.4c0-0.2,0.1-0.4,0.1-0.5c0.3-1.4,0.6-2.7,1-4c1-0.5,2.1-1,3.4-1.4
				c-0.2,0.6-0.5,1.1-0.7,1.7c-0.3,0.9-0.6,1.7-0.8,2.6c-0.1,0.5-0.2,1-0.3,1.5c-0.3,1.8-0.5,3.6-0.5,5.4c0,0.3,0,0.6,0,0.9
				c0,0,0,0,0,0c0,0.9,0.1,1.9,0.2,2.8c0,0.1,0,0.2,0,0.2c2,13.9,14,24.3,28,24.3c2.3,0,4.6-0.3,6.8-0.8l0.1,0
				c5.3-1.3,10.2-4.2,13.9-8.3c3.7-4.1,6.2-9.1,7.1-14.5c0-0.1,0-0.2,0-0.3c0.2-1.2,0.3-2.3,0.3-3.5v0
				C1126.5,206.9,1127.4,206.9,1128.3,206.9z"/>
			<path class="st28" d="M1127.9,210.7C1127.9,210.8,1127.9,210.8,1127.9,210.7c-1.9,12.4-11.1,22.3-23.1,25.3c0,0-0.1,0-0.1,0h0
				c-2.4,0.6-4.9,0.9-7.4,0.9c-15.7,0-28.7-11.7-30.7-26.9c0,0,0,0,0,0c0-0.2-0.1-0.5-0.1-0.7c0,0,0,0,0,0c0-0.2,0-0.4-0.1-0.7
				c0-0.5-0.1-1.1-0.1-1.6v0c0-0.3,0-0.7,0-1c0-1.8,0.2-3.6,0.5-5.4c0.9-0.6,1.9-1.1,3-1.5c-0.1,0.5-0.2,1-0.3,1.5
				c-0.3,1.8-0.5,3.6-0.5,5.4c0,0.3,0,0.6,0,0.9c0,0,0,0,0,0c0,0.9,0.1,1.9,0.2,2.8c0,0.1,0,0.2,0,0.2c2,13.9,14,24.3,28,24.3
				c2.3,0,4.6-0.3,6.8-0.8l0.1,0c5.3-1.3,10.2-4.2,13.9-8.3c3.7-4.1,6.2-9.1,7.1-14.5C1126.1,210.7,1127,210.7,1127.9,210.7z"/>
		</g>
		<rect x="1085.2" y="162.6" class="st32" width="24.2" height="6.1"/>
	</g>
	<path class="st14" d="M1109.4,171.8v-3.1h0v-6.1h2.6c1.1,0,2.1-0.9,2.1-2.1v-5.3c0-1.1-0.9-2.1-2.1-2.1h-3.4l1.1-6.2c0,0,0,0,0,0
		l0,0c0-0.2,0.1-0.5,0-0.7c0,0,0,0,0-0.1c0,0,0,0,0-0.1c0,0,0-0.1,0-0.1c0,0,0-0.1,0-0.1c0-0.1,0-0.1,0-0.2c0,0,0-0.1,0-0.1
		c0-0.1,0-0.1-0.1-0.2c0,0,0-0.1,0-0.1c0-0.1-0.1-0.2-0.1-0.3c0,0,0,0,0,0c0,0,0,0,0,0s0,0,0,0c0,0,0,0,0,0
		c-0.1-0.3-0.3-0.6-0.4-0.8c-0.1-0.1-0.2-0.3-0.3-0.4c-0.2-0.2-0.3-0.3-0.5-0.4c-0.1-0.1-0.3-0.2-0.4-0.2c-0.1,0-0.2-0.1-0.3-0.1
		c-0.2-0.1-0.4-0.1-0.7-0.1c-0.1,0-0.2,0-0.4,0l-4.1,0l0,0l-14.4,0c-0.7,0-1.3,0.2-1.9,0.6c-1.1,0.7-1.6,2.1-1.4,3.3l1.1,6.5h-2.8
		c-1.1,0-2.1,0.9-2.1,2.1v5.3c0,1.1,0.9,2.1,2.1,2.1h2.3v6.1h0v3.1c-14.1,5-24.2,18.4-24.2,34.2c0,20,16.2,36.3,36.3,36.3
		c20,0,36.3-16.2,36.3-36.3C1133.6,190.2,1123.5,176.8,1109.4,171.8z"/>
</g>
<g>
	<g>
		<path class="st6" d="M1011,193.5v25.4c0,2.4-0.9,4.6-2.6,6.2l-14.6,14.6c-1.7,1.7-3.9,2.6-6.2,2.6h-50.9c-2.3,0-4.6-0.9-6.2-2.6
			l-14.6-14.6c-1.7-1.7-2.6-3.9-2.6-6.2v-25.4c0-2.4,0.9-4.6,2.6-6.2l14.6-14.6c1.7-1.7,3.9-2.6,6.2-2.6h50.9c2.3,0,4.6,0.9,6.2,2.6
			l14.6,14.6C1010.1,188.9,1011,191.1,1011,193.5z"/>
		<path class="st7" d="M993.4,193.5v25.4c0,2.4-0.9,4.6-2.6,6.2l-14.6,14.6c-1.7,1.7-3.9,2.6-6.2,2.6h-33.2c-2.3,0-4.6-0.9-6.2-2.6
			l-14.6-14.6c-1.7-1.7-2.6-3.9-2.6-6.2v-25.4c0-2.4,0.9-4.6,2.6-6.2l14.6-14.6c1.7-1.7,3.9-2.6,6.2-2.6h33.2c2.3,0,4.6,0.9,6.2,2.6
			l14.6,14.6C992.4,188.9,993.4,191.1,993.4,193.5z"/>
		<path class="st5" d="M982.8,193.5v25.4c0,2.4-0.9,4.6-2.6,6.2l-14.6,14.6c-1.7,1.7-3.9,2.6-6.2,2.6h-22.7c-2.3,0-4.6-0.9-6.2-2.6
			l-14.6-14.6c-1.7-1.7-2.6-3.9-2.6-6.2v-25.4c0-2.4,0.9-4.6,2.6-6.2l14.6-14.6c1.7-1.7,3.9-2.6,6.2-2.6h22.7c2.3,0,4.6,0.9,6.2,2.6
			l14.6,14.6C981.9,188.9,982.8,191.1,982.8,193.5z"/>
		<path class="st9" d="M1006.3,193.5v25.4c0,1.1-0.4,2.1-1.2,2.9l-14.6,14.6c-0.8,0.8-1.8,1.2-2.9,1.2h-50.9c-1.1,0-2.1-0.4-2.9-1.2
			l-14.6-14.6c-0.8-0.8-1.2-1.8-1.2-2.9v-25.4c0-0.1,0-0.1,0-0.2c0-0.7,0.2-1.4,0.6-2c0.2-0.3,0.4-0.5,0.6-0.7l14.6-14.6
			c0.8-0.8,1.8-1.2,2.9-1.2h50.9c1.1,0,2.1,0.4,2.9,1.2l14.6,14.6c0.2,0.2,0.4,0.4,0.5,0.7c0.4,0.6,0.6,1.3,0.7,2
			C1006.3,193.3,1006.3,193.4,1006.3,193.5z"/>
		<path class="st6" d="M985.8,193.5v25.4c0,1.1-0.4,2.1-1.2,2.9L970,236.4c-0.8,0.8-1.8,1.2-2.9,1.2h-30.4c-1.1,0-2.1-0.4-2.9-1.2
			l-14.6-14.6c-0.8-0.8-1.2-1.8-1.2-2.9v-25.4c0-1.1,0.4-2.1,1.2-2.9l14.6-14.6c0.8-0.8,1.8-1.2,2.9-1.2h30.4c1.1,0,2.1,0.4,2.9,1.2
			l14.6,14.6C985.4,191.4,985.8,192.4,985.8,193.5z"/>
		<path class="st8" d="M986.7,193.5v25.4c0,1.1-0.4,2.1-1.2,2.9l-14.6,14.6c-0.8,0.8-1.8,1.2-2.9,1.2h-11.8c-1.1,0-2.1-0.4-2.9-1.2
			l-14.6-14.6c-0.8-0.8-1.2-1.8-1.2-2.9v-25.4c0-1.1,0.4-2.1,1.2-2.9l14.6-14.6c0.8-0.8,1.8-1.2,2.9-1.2H968c1.1,0,2.1,0.4,2.9,1.2
			l14.6,14.6C986.3,191.4,986.7,192.4,986.7,193.5z"/>
		<g>
			<polygon class="st2" points="977.8,170 971.9,170 962.5,170.1 960.7,170.1 942.6,170.1 942.6,165.5 957.1,165.4 962.7,165.4 
				962.7,165.4 967.5,165.4 967.5,165.4 974.4,165.4 974.4,165.4 977.8,165.4 977.8,165.4 			"/>
			<path class="st4" d="M977.8,165.5l0,4.6l-5.9,0l-12,0c-0.6-0.1-1-0.8-1-1.5l0-1.5c0-0.9,0.5-1.6,1.2-1.6l4.4,0l2.9,0h0l7,0h0
				L977.8,165.5C977.7,165.4,977.7,165.4,977.8,165.5C977.8,165.5,977.8,165.5,977.8,165.5c0.1,0,0.1,0,0.1,0H977.8z"/>
			<path class="st3" d="M981.5,170.1l-10.4,0c-0.5-0.1-1-0.8-1-1.5l0-1.5c0-0.8,0.5-1.5,1.1-1.6c0,0,0.8,0,0.8,0l2,0c0,0,0,0,0,0
				l7.4,0L981.5,170.1z"/>
			<path class="st5" d="M989.2,162.4c0,0.8-0.3,1.6-0.9,2.1s-1.3,0.9-2.1,0.9h-48.6c-1.7,0-2.6-1.3-2.6-2.9l0-9.7
				c0-0.8,0.3-1.6,0.9-2.1c0.6-0.6,1.3-0.9,2.1-0.9h48.4c1.6,0.1,2.9,1.4,2.9,3L989.2,162.4z"/>
			<path class="st6" d="M989.2,162.4c0,0.8-0.3,1.6-0.9,2.1s-1.3,0.9-2.1,0.9h-21.6c0.1,0,0.1,0,0.2,0h0c0.1,0,0.1,0,0.2,0
				c0,0,0,0,0,0c0.7-0.1,1.3-0.4,1.8-0.9c0.6-0.6,0.9-1.3,0.9-2.1l0-1.6v0l0-6.3v0l0-1.7c0-1.6-1.3-2.9-2.9-3h21.6
				c1.6,0.1,2.9,1.4,2.9,3L989.2,162.4z"/>
			<path class="st7" d="M974.5,162.4c0,0.8-0.3,1.6-0.9,2.1s-1.3,0.9-2.1,0.9H960c0.8,0,1.6-0.3,2.1-0.9s0.9-1.3,0.9-2.1l0-9.7
				c0-1.6-1.3-2.9-2.9-3h11.5c1.6,0.1,2.9,1.4,2.9,3L974.5,162.4z"/>
			<path class="st8" d="M984.6,159.5c0,0.7-0.6,1.3-1.2,1.3l-20.3,0h-0.5l-21.6,0c-0.7,0-1.3-0.6-1.3-1.2l0-3.8
				c0-0.7,0.6-1.3,1.2-1.3l19.3,0l2.8,0l20.3,0c0.5,0,0.9,0.3,1.1,0.7c0,0,0,0.1,0.1,0.1c0,0,0,0.1,0,0.1c0,0.1,0.1,0.2,0.1,0.4
				L984.6,159.5z"/>
			<path class="st9" d="M984.6,159.5c0,0.7-0.6,1.3-1.2,1.3l-20.3,0v-6.3l20.3,0c0.5,0,0.9,0.3,1.1,0.7c0,0,0,0.1,0.1,0.1
				c0,0,0,0.1,0,0.1c0,0.1,0.1,0.2,0.1,0.4L984.6,159.5z"/>
		</g>
		<path class="st33" d="M1006.3,193.5v25.4c0,1.1-0.4,2.1-1.2,2.9l-14.6,14.6c-0.8,0.8-1.8,1.2-2.9,1.2h-50.9
			c-1.1,0-2.1-0.4-2.9-1.2l-14.6-14.6c-0.8-0.8-1.2-1.8-1.2-2.9v-10.3c16.9-1.5,27.1-5.1,37-8.7c2.1-0.8,4.3-1.5,6.5-2.3l0.4-0.1h0
			c0.2-0.1,0.3-0.1,0.5-0.1c1.4-0.5,2.7-0.9,3.9-1.2c1.1-0.3,2.3-0.6,3.4-0.9c2.1-0.5,4.1-1,6.1-1.3c5.4-1,11.1-1.5,17.2-1.5h0.1
			c4.9,0,9.3,0.3,13.2,0.8C1006.3,193.3,1006.3,193.4,1006.3,193.5z"/>
		<path class="st34" d="M1006.3,196.1v22.8c0,1.1-0.4,2.1-1.2,2.9l-14.6,14.6c-0.8,0.8-1.8,1.2-2.9,1.2h-50.9
			c-1.1,0-2.1-0.4-2.9-1.2l-14.6-14.6c-0.8-0.8-1.2-1.8-1.2-2.9v-7.4c21.2-1.8,32.4-7.1,44.4-11.1h0c1.5-0.5,3.1-1,4.7-1.5
			c1.1-0.3,2.2-0.6,3.3-0.9c1.9-0.5,3.9-0.9,5.9-1.3c4.9-0.9,10.3-1.4,16.8-1.4C998.3,195.2,1002.6,195.5,1006.3,196.1z"/>
		<path class="st35" d="M1006.3,208.6v10.3c0,1.1-0.4,2.1-1.2,2.9l-14.6,14.6c-0.8,0.8-1.8,1.2-2.9,1.2h-50.9
			c-1.1,0-2.1-0.4-2.9-1.2l-14.6-14.6c-0.8-0.8-1.2-1.8-1.2-2.9v-25.4c0-0.1,0-0.1,0-0.2c4-0.6,8.6-0.9,13.7-0.9h0.1
			c8.4,0,15.9,0.9,23.3,2.8c1.1,0.3,2.2,0.6,3.4,0.9c1.2,0.4,2.5,0.7,3.9,1.2c0.1,0,0.3,0.1,0.5,0.1h0l0.4,0.1
			c2.2,0.7,4.4,1.5,6.5,2.3c2.8,1,5.7,2.1,8.8,3C984.8,205,993.6,207.4,1006.3,208.6z"/>
		<path class="st33" d="M1006.3,211.4v7.5c0,1.1-0.4,2.1-1.2,2.9l-14.6,14.6c-0.8,0.8-1.8,1.2-2.9,1.2h-50.9c-1.1,0-2.1-0.4-2.9-1.2
			l-1.9-1.9l-12.7-12.7c-0.8-0.8-1.2-1.8-1.2-2.9v-22.7c3.8-0.6,8.3-0.9,13.7-0.9c9.2,0,16.4,1.1,22.8,2.7c1.1,0.3,2.2,0.6,3.3,0.9
			c1.6,0.5,3.1,1,4.7,1.5h0c5,1.7,9.9,3.6,15.4,5.3C985.4,208.1,994.2,210.3,1006.3,211.4z"/>
		<path class="st34" d="M1006.3,193.5v25.4c0,1.1-0.4,2.1-1.2,2.9l-14.6,14.6c-0.8,0.8-1.8,1.2-2.9,1.2H968c1.1,0,2.1-0.4,2.9-1.2
			l14.6-14.6c0.8-0.8,1.2-1.8,1.2-2.9v-25.4c0-0.3,0-0.6-0.1-0.9c2.1-0.1,4.2-0.2,6.3-0.2h0.1c4.9,0,9.3,0.3,13.2,0.8
			C1006.3,193.3,1006.3,193.4,1006.3,193.5z"/>
		<path class="st36" d="M1006.3,196.1v22.8c0,1.1-0.4,2.1-1.2,2.9l-14.6,14.6c-0.8,0.8-1.8,1.2-2.9,1.2H968c1.1,0,2.1-0.4,2.9-1.2
			l14.6-14.6c0.8-0.8,1.2-1.8,1.2-2.9v-23.5c2-0.1,4.1-0.2,6.4-0.2C998.3,195.2,1002.6,195.5,1006.3,196.1z"/>
		<path class="st33" d="M1006.3,208.6v10.3c0,1.1-0.4,2.1-1.2,2.9l-14.6,14.6c-0.8,0.8-1.8,1.2-2.9,1.2H968c1.1,0,2.1-0.4,2.9-1.2
			l14.6-14.6c0.8-0.8,1.2-1.8,1.2-2.9v-13.6C991.9,206.6,998.4,207.8,1006.3,208.6z"/>
		<path class="st34" d="M1006.3,211.4v7.5c0,1.1-0.4,2.1-1.2,2.9l-14.6,14.6c-0.8,0.8-1.8,1.2-2.9,1.2H968c1.1,0,2.1-0.4,2.9-1.2
			l1.9-1.9l12.7-12.7c0.8-0.8,1.2-1.8,1.2-2.9v-10.7C992.3,209.6,998.7,210.7,1006.3,211.4z"/>
		<path class="st37" d="M931.3,222.9c0,0.6-0.2,1.1-0.6,1.5c-0.4,0.4-1,0.6-1.5,0.6c-0.6,0-1.1-0.2-1.5-0.6l-5.1-5.1
			c-0.4-0.4-0.6-0.9-0.6-1.5v-15.9c0-1.2,1-2.2,2.2-2.2c0.6,0,1.1,0.2,1.5,0.6c0.4,0.4,0.6,1,0.6,1.5v14.9l4.5,4.5
			C931.1,221.8,931.3,222.3,931.3,222.9z"/>
		<path class="st37" d="M937.3,228.9c0,0.6-0.2,1.1-0.6,1.5s-1,0.6-1.5,0.6s-1.1-0.2-1.5-0.6l-1.5-1.5c-0.9-0.9-0.9-2.2,0-3.1
			c0.4-0.4,1-0.6,1.5-0.6c0.6,0,1.1,0.2,1.5,0.6l1.5,1.5C937.1,227.8,937.3,228.3,937.3,228.9z"/>
		<path class="st34" d="M992.4,234.5l-1.9,1.9c-0.8,0.8-1.8,1.2-2.9,1.2h-50.9c-1.1,0-2.1-0.4-2.9-1.2l-1.9-1.9H992.4z"/>
		<path class="st36" d="M992.4,234.5l-1.9,1.9c-0.8,0.8-1.8,1.2-2.9,1.2H968c1.1,0,2.1-0.4,2.9-1.2l1.9-1.9H992.4z"/>
		<circle class="st34" cx="971.8" cy="222" r="4.7"/>
		<circle class="st34" cx="977.5" cy="213.3" r="2.3"/>
		<circle class="st34" cx="967.7" cy="213.3" r="1.4"/>
		<circle class="st34" cx="934" cy="206.4" r="4.7"/>
		<circle class="st34" cx="936.2" cy="216.6" r="2.3"/>
		<circle class="st34" cx="943.1" cy="209.6" r="1.4"/>
		<circle class="st34" cx="950.4" cy="228.2" r="2.4"/>
		<circle class="st34" cx="955.6" cy="230.2" r="1.3"/>
	</g>
	<path class="st14" d="M1008.4,187.3l-14.6-14.6c-1.6-1.6-3.9-2.6-6.2-2.6h-6l0-4.6l4.7,0c0.8,0,1.6-0.3,2.1-0.9s0.9-1.3,0.9-2.1
		l0-9.7c0-1.6-1.3-2.9-2.9-3h-14.8c0,0,0,0,0,0h-11.5c0,0,0,0,0,0H938c-0.8,0-1.6,0.4-2.1,0.9c-0.6,0.6-0.9,1.3-0.9,2.1l0,9.7
		c0,1.7,1,2.9,2.6,2.9l5,0l0,4.6h-5.9c-2.3,0-4.6,0.9-6.2,2.6l-14.6,14.6c-1.7,1.7-2.6,3.9-2.6,6.2v25.4c0,2.4,0.9,4.6,2.6,6.2
		l14.6,14.6c1.7,1.7,3.9,2.6,6.2,2.6h22.7h10.5h17.6c2.3,0,4.6-0.9,6.2-2.6l14.6-14.6c1.7-1.7,2.6-3.9,2.6-6.2v-25.4
		C1011,191.1,1010.1,188.9,1008.4,187.3z"/>
</g>
<g>
	<g>
		<rect x="820.4" y="158.6" class="st5" width="22.5" height="16"/>
		<path class="st5" d="M874.9,192.1c0,7.2-3.1,14.2-8.4,19.1l-0.1,0c0,0-18.7,18.7-24,24c-0.5,0.5-0.1,1.3,0.6,1.3h0.6
			c1.4,0,2.5,1.1,2.5,2.5v2.4c0,0.5-0.4,0.9-0.9,0.9h-27.1c-0.5,0-0.9-0.4-0.9-0.9V239c0-1.4,1.1-2.5,2.5-2.5h0.7
			c0.7,0,1-0.8,0.5-1.3c-5.2-5.2-24-24-24-24l-0.1,0c-5.4-4.9-8.4-11.8-8.4-19.1c0-14.2,11.6-25.8,25.8-25.8c2.1,0,4.2,0.3,6.3,0.8
			c0,0,0,0,0,0c1.7,0.4,3.3,1,4.9,1.8c2.2,1.1,4.3,2.5,6.2,4.2c0,0,0,0,0.1,0.1l0,0l0,0c3.2-3,7-5,11.2-6.1c2-0.5,4.1-0.8,6.3-0.8
			C863.3,166.4,874.9,177.9,874.9,192.1z"/>
		<path class="st9" d="M870.8,192.1c0,0.7,0,1.5-0.1,2.2c-0.1,1.1-0.3,2.1-0.6,3.1c0,0.2-0.1,0.3-0.1,0.5c-0.2,0.7-0.4,1.3-0.6,1.9
			c-0.7,1.8-1.6,3.5-2.8,5.1c-0.8,1-1.6,2-2.6,2.9c-0.1,0.1-0.2,0.2-0.3,0.2l-0.1,0.1l-25.2,25.2c-1.8,1.8-4.2,2.8-6.7,2.8h-0.1
			c-2.5,0-4.9-1-6.7-2.8l-23.1-23.1l-2.1-2.1l-0.1-0.1c-0.6-0.6-1.2-1.2-1.8-1.8c-1.9-2.1-3.3-4.6-4.2-7.3c-0.2-0.7-0.4-1.4-0.6-2.1
			c0-0.1-0.1-0.3-0.1-0.4c-0.1-0.4-0.1-0.7-0.2-1.1c-0.2-1.1-0.3-2.2-0.3-3.3c0-1.9,0.3-3.8,0.7-5.6c0.3-1.2,0.7-2.3,1.2-3.4
			c3.4-7.5,11-12.7,19.7-12.7c2.5,0,5,0.4,7.3,1.3c0.2-1.4,1.6-2.6,3.4-2.6c0.2,0,0.3,0,0.5,0v-10.6h12.6v10.6c0.2,0,0.3,0,0.5,0
			c1.8,0,3.2,1.1,3.4,2.6c2.3-0.8,4.8-1.3,7.3-1.3c8.1,0,15.2,4.5,18.9,11.2v0c0.6,1.1,1.1,2.2,1.5,3.4
			C870.3,187.3,870.8,189.7,870.8,192.1z"/>
		<path class="st9" d="M870.8,192.1c0,0.7,0,1.5-0.1,2.2c-0.1,1.1-0.3,2.1-0.6,3.1c0,0.2-0.1,0.3-0.1,0.5c-0.2,0.7-0.4,1.3-0.6,1.9
			c-0.7,1.8-1.6,3.5-2.8,5.1c-0.8,1-1.6,2-2.6,2.9c-0.1,0.1-0.2,0.2-0.3,0.2l-0.1,0.1l-25.2,25.2c-1.8,1.8-4.2,2.8-6.7,2.8h-0.1
			c-2.5,0-4.9-1-6.7-2.8l-23.1-23.1l-2.1-2.1l-0.1-0.1c-0.6-0.6-1.2-1.2-1.8-1.8c-1.9-2.1-3.3-4.6-4.2-7.3c-0.2-0.7-0.4-1.4-0.6-2.1
			c0-0.1-0.1-0.3-0.1-0.4c-0.1-0.4-0.1-0.7-0.2-1.1c-0.2-1.1-0.3-2.2-0.3-3.3c0-1.9,0.3-3.8,0.7-5.6c0.3-1.2,0.7-2.3,1.2-3.4
			c3.4-7.5,11-12.7,19.7-12.7c5.5,0,10.7,2,14.7,5.7l2.8,2.6l2.8-2.6c4-3.7,9.2-5.7,14.7-5.7c8.1,0,15.2,4.5,18.9,11.2v0
			c0.6,1.1,1.1,2.2,1.5,3.4C870.3,187.3,870.8,189.7,870.8,192.1z"/>
		<path class="st8" d="M831.6,233.8c-1.9,0-3.6-0.7-4.9-2l-25.3-25.3l-0.2-0.1c-4-3.6-6.3-8.8-6.3-14.2c0-10.6,8.6-19.2,19.2-19.2
			c4.8,0,9.5,1.8,13,5.1l4.5,4.1l4.5-4.1c3.6-3.3,8.2-5.1,13-5.1c10.6,0,19.2,8.6,19.2,19.2c0,5.4-2.3,10.6-6.3,14.2l-0.2,0.1
			l-25.3,25.3C835.3,233.1,833.5,233.8,831.6,233.8L831.6,233.8z"/>
		<path class="st8" d="M831.6,233.8c-1.9,0-3.6-0.7-4.9-2l-25.3-25.3l-0.2-0.1c-4-3.6-6.3-8.8-6.3-14.2c0-10.6,8.6-19.2,19.2-19.2
			c4.8,0,9.5,1.8,13,5.1l4.5,4.1l4.5-4.1c3.6-3.3,8.2-5.1,13-5.1c10.6,0,19.2,8.6,19.2,19.2c0,5.4-2.3,10.6-6.3,14.2l-0.2,0.1
			l-25.3,25.3C835.3,233.1,833.5,233.8,831.6,233.8L831.6,233.8z"/>
		<g>
			<path class="st20" d="M843.3,144.6l-1.4,7.8c0,1-0.3,2-0.8,2.6c-0.6,0.6-1.4,1-2.3,1l-14.2,0c-1.7,0-3.1-1.4-3.1-3.1l-1.4-8.6
				c-0.2-1.2,0.3-2.4,1.3-3.1c0.5-0.3,1.1-0.5,1.7-0.5l17.2,0c0.4,0,0.9,0.1,1.3,0.3c0.8,0.3,1.3,1,1.6,1.8c0.1,0.3,0.2,0.7,0.3,1.1
				C843.3,144.1,843.3,144.3,843.3,144.6z"/>
			<path class="st21" d="M843.3,144.6l-1.4,7.8c0,1-0.3,2-0.8,2.6c-0.5,0.5-1.2,0.9-2,1c-0.1,0-0.2,0-0.3,0l-3.8,0
				c1.5,0,2.7-1.6,2.7-3.6l1.5-8.1c0-2-1.2-3.6-2.7-3.6l3.8,0c0.4,0,0.9,0.1,1.3,0.3c0.8,0.3,1.3,1,1.6,1.8c0.1,0.4,0.2,0.8,0.3,1.2
				C843.3,144.1,843.3,144.4,843.3,144.6z"/>
			<circle class="st21" cx="828.8" cy="150.2" r="2.1"/>
			<circle class="st21" cx="828.9" cy="143.4" r="1.2"/>
			<circle class="st21" cx="824.4" cy="145.7" r="2.3"/>
			<circle class="st21" cx="835.8" cy="145.7" r="1.5"/>
		</g>
		<path class="st5" d="M847.1,152.3v5c0,1.1-0.9,1.9-1.9,1.9h-27.1c-1.1,0-1.9-0.9-1.9-1.9v-5c0-1.1,0.9-1.9,1.9-1.9h27.1
			C846.2,150.4,847.1,151.2,847.1,152.3z"/>
		<path class="st7" d="M847.1,152.3v5c0,1.1-0.9,1.9-1.9,1.9h-11.9c-1.1,0-1.9-0.9-1.9-1.9v-5c0-1.1,0.9-1.9,1.9-1.9h11.9
			C846.2,150.4,847.1,151.2,847.1,152.3z"/>
		<rect x="820.4" y="159.2" class="st32" width="22.5" height="5.7"/>
		<circle class="st5" cx="840.8" cy="169.1" r="2.9"/>
		<path class="st5" d="M825.3,169.1c0,1.6-1.3,2.9-2.9,2.9c-0.8,0-1.5-0.3-2.1-0.9c-0.5-0.5-0.8-1.2-0.8-2c0-0.8,0.3-1.4,0.8-2
			c0,0,0,0,0,0v0c0.5-0.5,1.3-0.9,2.1-0.9c1.5,0,2.8,1.2,2.8,2.7C825.3,169,825.3,169,825.3,169.1z"/>
		<path class="st6" d="M856.3,194.4c0,2.9-1.2,5.6-3.3,7.5l-0.1,0.1l-18.6,18.6c-0.7,0.7-1.6,1.1-2.6,1.1h0c-1,0-1.9-0.4-2.6-1.1
			l-13.5-13.5l-2.1-2.1l-3-3l-0.1-0.1c-2.1-1.9-3.3-4.7-3.3-7.5c0-0.8,0.1-1.7,0.3-2.5c1.1-4.4,5.1-7.8,9.9-7.8c2.6,0,5,1,6.9,2.7
			l7.5,7.3l7.5-7.3c1.9-1.7,4.3-2.7,6.9-2.7c4.5,0,8.3,2.9,9.6,6.9c0.3,0.8,0.5,1.6,0.5,2.5C856.2,193.8,856.3,194.1,856.3,194.4z"
			/>
		<path class="st6" d="M856.3,194.4c0,2.9-1.2,5.6-3.3,7.5l-0.1,0.1l-18.6,18.6c-0.7,0.7-1.6,1.1-2.6,1.1h0c-1,0-1.9-0.4-2.6-1.1
			l-13.5-13.5c6.8-1.6,11.6-4,16.2-6.4c0.9-0.5,1.9-1,2.8-1.5c5.8-3.1,11.6-5.7,20.7-5.7c0.4,0,0.7,0,1.1,0
			C856.3,193.8,856.3,194.1,856.3,194.4z"/>
		<path class="st38" d="M870.6,194.4c-0.1,1.1-0.3,2.1-0.6,3.1c0,0.2-0.1,0.3-0.1,0.5c-0.2,0.7-0.4,1.3-0.6,1.9
			c-0.7,1.8-1.6,3.5-2.8,5.1c-0.8,1-1.6,2-2.6,2.9c-0.1,0.1-0.2,0.2-0.3,0.2l-0.1,0.1l-25.2,25.2c-1.8,1.8-4.2,2.8-6.7,2.8h-0.1
			c-2.5,0-4.9-1-6.7-2.8l-23.1-23.1l-2.1-2.1l-0.1-0.1c-0.6-0.6-1.2-1.2-1.8-1.8l2.4,0c14.6-0.1,22.4-3.6,30.3-7.8
			c0.4-0.2,0.7-0.4,1.1-0.6c0.6-0.3,1.1-0.6,1.7-0.9c6-3.1,12.2-6,21.9-6h0.1C861.6,191,866.6,192.1,870.6,194.4z"/>
		<path class="st39" d="M800.2,208.8l24.7,24.7c1.8,1.8,4.2,2.8,6.7,2.8h0.1c2.5,0,4.9-1,6.7-2.8l23.1-23.1l2.1-2.1l0.1-0.1
			c2.7-2.5,4.8-5.7,5.9-9.1c0.2-0.7,0.4-1.4,0.6-2.1c-3.2-2-7.8-3.5-15-3.5c-9.1,0-14.9,2.6-20.7,5.7c-0.9,0.5-1.8,1-2.8,1.5
			C824.3,204.6,815.9,208.7,800.2,208.8z"/>
		<path class="st40" d="M870.6,194.4c-0.1,1.1-0.3,2.1-0.6,3.1c0,0.2-0.1,0.3-0.1,0.5c-0.2,0.7-0.4,1.3-0.6,1.9
			c-0.7,1.8-1.6,3.5-2.8,5.1c-0.8,1-1.6,2-2.6,2.9c-0.1,0.1-0.2,0.2-0.3,0.2l-0.1,0.1l-25.2,25.2c-1.8,1.8-4.2,2.8-6.7,2.8h-0.1
			c-2.5,0-4.9-1-6.7-2.8l-23.1-23.1l-2.1-2.1l-0.1-0.1c-0.6-0.6-1.2-1.2-1.8-1.8l2.4,0c0.3,0,0.7,0,1,0c0,0,0,0,0,0l0.2,0.1l2.2,2.2
			c13.6-0.6,21.2-4.4,28.1-8c0.9-0.5,1.9-1,2.8-1.5c5.8-3.1,11.6-5.7,20.7-5.7c5.7,0,9.8,0.9,12.8,2.3c0.2-0.8,0.3-1.7,0.3-2.5
			C869.1,193.6,869.9,194,870.6,194.4z"/>
		<path class="st41" d="M870.2,197c-0.2,0.7-0.4,1.4-0.6,2.1c-1.2,3.5-3.2,6.6-5.9,9.1l-0.1,0.1l-25.2,25.2
			c-1.8,1.8-4.2,2.8-6.7,2.8h-0.1c-2.5,0-4.9-1-6.7-2.8l-24.7-24.7c1.2,0,2.3,0,3.4-0.1l23.1,23.1c1.3,1.3,3.1,2,4.9,2h0.1
			c1.9,0,3.6-0.7,4.9-2l25.3-25.3l0.2-0.1c3.1-2.8,5.1-6.5,5.9-10.6C868.8,196.1,869.5,196.6,870.2,197z"/>
		<path class="st42" d="M856.3,194.4c0,2.9-1.2,5.6-3.3,7.5l-0.1,0.1l-18.6,18.6c-0.7,0.7-1.6,1.1-2.6,1.1h0c-1,0-1.9-0.4-2.6-1.1
			l-13.5-13.5l-2.1-2.1c0,0,0,0,0,0c6.9-1.4,11.9-3.8,17.1-6.6c0.4-0.2,0.7-0.4,1.1-0.6c0.6-0.3,1.1-0.6,1.7-0.9
			c6-3.1,12.2-6,21.9-6h0.1c0.1,0,0.3,0,0.4,0c0.3,0.8,0.5,1.6,0.5,2.5C856.2,193.8,856.3,194.1,856.3,194.4z"/>
		<path class="st38" d="M856.2,193.5c0,0.3,0,0.6,0,0.9c0,2.9-1.2,5.6-3.3,7.5l-0.1,0.1l-18.6,18.6c-0.7,0.7-1.6,1.1-2.6,1.1h0
			c-1,0-1.9-0.4-2.6-1.1l-13.5-13.5c0,0,0,0,0,0c6.8-1.6,11.6-4,16.2-6.4c0.9-0.5,1.9-1,2.8-1.5c5.8-3.1,11.6-5.7,20.7-5.7
			C855.5,193.5,855.9,193.5,856.2,193.5z"/>
		<path class="st42" d="M866.5,205c-0.8,1-1.6,2-2.6,2.9c-0.1,0.1-0.2,0.2-0.3,0.2l-0.1,0.1l-25.2,25.2c-1.8,1.8-4.2,2.8-6.7,2.8
			h-0.1c-2.5,0-4.9-1-6.7-2.8l-23.1-23.1l-2.1-2.1l-0.1-0.1c-2.7-2.5-4.8-5.7-5.9-9.1c-0.2-0.7-0.4-1.4-0.6-2.1
			c0-0.1-0.1-0.3-0.1-0.4c-0.1-0.4-0.1-0.7-0.2-1.1c4.2-2.4,9.6-3.5,16.3-3.5h0.1c10.4,0,16.9,3,23.7,6.6l0.7,0.3
			c6,3.2,15.1,8,23.6,8C862.4,206.9,863.7,205.8,866.5,205z"/>
		<path class="st38" d="M793.3,198c0.2,0.7,0.4,1.3,0.6,1.9c1.2,3.1,3.1,5.9,5.6,8.2l0.1,0.1l25.2,25.2c1.8,1.8,4.2,2.8,6.7,2.8h0.1
			c2.5,0,4.9-1,6.7-2.8l25.2-25.2c-11,3.7-24.3-3.6-31.9-7.6c-6.4-3.4-12.6-6.3-22.6-6.3C801.5,194.4,796.7,195.9,793.3,198z"/>
		<path class="st38" d="M863.5,208.3l-2.1,2.1l-23.1,23.1c-1.8,1.8-4.2,2.8-6.7,2.8h-0.1c-2.5,0-4.9-1-6.7-2.8l-24.7-24.7l-0.5-0.5
			l-0.1-0.1c-0.1-0.1-0.2-0.2-0.3-0.2c-0.1-0.1-0.2-0.2-0.3-0.2c-0.3-0.3-0.5-0.5-0.8-0.8c0,0,0,0-0.1-0.1c0-0.1-0.1-0.1-0.1-0.2
			c0,0,0,0-0.1-0.1c-0.1-0.1-0.1-0.2-0.2-0.2l2.4,0c5.2,0,9.5-0.5,13.2-1.3c6.2-1.3,10.9-3.4,15.6-5.8c0.9,0.4,1.8,0.9,2.7,1.4
			c4,2.1,9.6,5.1,15.6,7C852.6,209.3,858.3,210.1,863.5,208.3z"/>
		<path class="st38" d="M869.3,200c0-0.1,0-0.1,0.1-0.2C869.3,199.9,869.3,199.9,869.3,200C869.3,200,869.3,200,869.3,200z"/>
		<path class="st38" d="M869.9,198c0-0.1,0.1-0.3,0.1-0.4C870,197.8,870,197.9,869.9,198C869.9,198,869.9,198,869.9,198z"/>
		<path class="st39" d="M863.5,208.3l-2.1,2.1l-23.1,23.1c-1.8,1.8-4.2,2.8-6.7,2.8h-0.1c-2.5,0-4.9-1-6.7-2.8l-24.7-24.7
			c6.1,0,11-0.7,15.3-1.7c6.8-1.6,11.6-4,16.2-6.4c4,2.1,9.6,5.1,15.6,7C852.6,209.3,858.3,210.1,863.5,208.3z"/>
		<path class="st38" d="M866.5,205c-0.8,1-1.6,2-2.6,2.9c-0.1,0.1-0.2,0.2-0.3,0.2l-0.1,0.1l-25.2,25.2c-1.8,1.8-4.2,2.8-6.7,2.8
			h-0.1c-2.5,0-4.9-1-6.7-2.8l-23.1-23.1l-2.1-2.1l-0.1-0.1c-2.7-2.5-4.8-5.7-5.9-9.1c-0.2-0.7-0.4-1.4-0.6-2.1
			c0-0.1-0.1-0.3-0.1-0.4c-0.1-0.4-0.1-0.7-0.2-1.1c0.7-0.4,1.5-0.8,2.3-1.1c0.1,0.8,0.2,1.7,0.5,2.5c2.8-1.3,6.5-2.2,11.5-2.4
			c0.7,0,1.4,0,2.1,0c8.6,0,14.4,2.2,19.9,4.9c0.9,0.4,1.8,0.9,2.7,1.4c4,2.1,9.6,5.1,15.6,7c3.9,1.2,8,1.9,11.9,1.6l2.8-2.8
			l0.1-0.1C863.7,206,864.8,205.5,866.5,205z"/>
		<path class="st38" d="M863.5,208.3l-25.2,25.2c-1.8,1.8-4.2,2.8-6.7,2.8h-0.1c-2.5,0-4.9-1-6.7-2.8l-24.7-24.7l-0.5-0.5l-0.1-0.1
			c-0.1-0.1-0.2-0.2-0.3-0.2c-0.1-0.1-0.2-0.2-0.3-0.2c-0.3-0.3-0.5-0.5-0.8-0.8c0,0,0,0-0.1-0.1c0-0.1-0.1-0.1-0.1-0.2
			c0,0,0,0-0.1-0.1c-0.1-0.1-0.1-0.2-0.2-0.2c-1.7-1.9-3-4.1-3.9-6.4c-0.2-0.6-0.5-1.3-0.6-1.9c3.1-1.9,7.3-3.3,13.7-3.6
			c0.7,0,1.4,0,2.1,0c8.6,0,14.4,2.2,19.9,4.9c0.9,0.4,1.8,0.9,2.7,1.4c4,2.1,9.6,5.1,15.6,7C852.6,209.3,858.3,210.1,863.5,208.3
			C863.5,208.3,863.5,208.3,863.5,208.3z"/>
		<path class="st40" d="M863.5,208.3l-25.2,25.2c-1.8,1.8-4.2,2.8-6.7,2.8h-0.1c-2.5,0-4.9-1-6.7-2.8l-24.7-24.7l-0.5-0.5l-0.1-0.1
			c-0.1-0.1-0.2-0.2-0.3-0.2c-0.1-0.1-0.2-0.2-0.3-0.2c-0.3-0.3-0.5-0.5-0.8-0.8c0,0,0,0-0.1-0.1c0-0.1-0.1-0.1-0.1-0.2
			c0,0,0,0-0.1-0.1c-0.1-0.1-0.1-0.2-0.2-0.2c-1.7-1.9-3-4.1-3.9-6.4c-0.2-0.6-0.5-1.3-0.6-1.9c0.7-0.4,1.4-0.8,2.2-1.2
			c0.9,3.6,2.9,6.9,5.7,9.5l0.2,0.1l25.3,25.3c1.3,1.3,3.1,2,4.9,2h0.1c1.9,0,3.6-0.7,4.9-2l22.5-22.5
			C860.6,209.1,862.1,208.8,863.5,208.3C863.5,208.3,863.5,208.3,863.5,208.3z"/>
		<path class="st39" d="M870.1,197.6c0-0.1,0.1-0.2,0.1-0.3c0,0.1,0,0.2-0.1,0.2C870.1,197.5,870.1,197.6,870.1,197.6z"/>
		<path class="st39" d="M870.2,197c0,0,0,0.1,0,0.1C870.2,197.1,870.2,197,870.2,197C870.2,197,870.2,197,870.2,197z"/>
		<path class="st43" d="M849.2,205.7l-14.9,14.9c-0.7,0.7-1.6,1.1-2.6,1.1h0c-1,0-1.9-0.4-2.6-1.1L810.4,202l-0.1-0.1
			c-2.1-1.9-3.3-4.7-3.3-7.5c0-0.8,0.1-1.7,0.3-2.5h0c0.6,0,1.2,0,1.8,0h0.1c9.8,0,16.1,2.6,22.5,6c0.4,0.2,0.8,0.4,1.2,0.6l0.7,0.3
			c0.3,0.1,0.5,0.3,0.8,0.4C838.4,201.4,843.7,204.2,849.2,205.7z"/>
		<path class="st42" d="M847.2,207.7l-13,13c-0.7,0.7-1.6,1.1-2.6,1.1h0c-1,0-1.9-0.4-2.6-1.1l-1.4-1.4l-12.4-12.4l-4.8-4.8
			l-0.1-0.1c-0.3-0.3-0.6-0.6-0.9-0.9c-1.6-1.8-2.4-4.2-2.5-6.6c0.7,0,1.4,0,2.1,0c8.6,0,14.4,2.2,19.9,4.9c0.9,0.4,1.8,0.9,2.7,1.4
			C835.6,202.8,841.2,205.8,847.2,207.7z"/>
		<circle class="st39" cx="812.2" cy="204" r="4.1"/>
		<circle class="st39" cx="814.2" cy="213" r="2"/>
		<circle class="st38" cx="820.2" cy="206.9" r="1.3"/>
		<path class="st38" d="M815.2,206.9l-4.8-4.8l-0.1-0.1c-0.3-0.3-0.6-0.6-0.9-0.9c1.6-1.5,4.2-1.5,5.7,0.1
			C816.7,202.7,816.8,205.3,815.2,206.9z"/>
		<circle class="st39" cx="814.2" cy="213" r="2"/>
		<circle class="st39" cx="839.5" cy="215.4" r="2.9"/>
		<path class="st38" d="M841.5,213.3l-4.1,4.1c-0.8-0.8-1.1-2-0.7-3.1c0.6-1.5,2.3-2.2,3.8-1.7C840.9,212.8,841.2,213.1,841.5,213.3
			z"/>
		<circle class="st39" cx="831.6" cy="221.6" r="4.6"/>
		<path class="st38" d="M835.6,219.2l-1.4,1.4c-0.7,0.7-1.6,1.1-2.6,1.1h0c-1,0-1.9-0.4-2.6-1.1l-1.4-1.4c1.1-2,3.5-2.9,5.7-2
			C834.3,217.6,835.1,218.4,835.6,219.2z"/>
		<circle class="st38" cx="835.3" cy="209.4" r="1.5"/>
	</g>
	<path class="st14" d="M849.1,166.4c-2.1,0-4.2,0.3-6.3,0.8v-2.3v-5.7v0h2.3c1.1,0,1.9-0.9,1.9-1.9v-5c0-1.1-0.9-1.9-1.9-1.9h-2.9
		l1-5.8h0l0,0c0-0.2,0.1-0.5,0-0.7c0,0,0,0,0-0.1c0,0,0,0,0-0.1c0,0,0-0.1,0-0.1c0,0,0-0.1,0-0.1c0-0.1,0-0.1,0-0.2c0,0,0-0.1,0-0.1
		c0-0.1,0-0.1,0-0.2c0,0,0-0.1,0-0.1c0-0.1-0.1-0.2-0.1-0.3c0,0,0,0,0,0c0,0,0,0,0,0l0,0c0,0,0-0.1-0.1-0.1c0,0,0-0.1-0.1-0.1
		c0-0.1-0.1-0.1-0.1-0.2c0,0,0,0,0-0.1c-0.2-0.3-0.3-0.5-0.6-0.7c0,0,0,0,0,0c-0.2-0.2-0.4-0.3-0.6-0.4c0,0-0.1-0.1-0.1-0.1
		c-0.1,0-0.2-0.1-0.3-0.1c-0.3-0.1-0.6-0.2-1-0.2l-3.8,0l0,0l-13.4,0c-0.6,0-1.2,0.2-1.7,0.5c-1,0.7-1.5,1.9-1.3,3.1l1,6h-2.8
		c-1.1,0-1.9,0.9-1.9,1.9v5c0,1.1,0.9,1.9,1.9,1.9h2.3v0v5.7v2.3v0c0,0,0,0,0,0c0,0,0,0,0,0s0,0,0,0c-2-0.5-4.1-0.8-6.3-0.8
		c-14.2,0-25.8,11.6-25.8,25.8c0,7.2,3.1,14.2,8.4,19.1l0.1,0c0,0,18.8,18.8,24,24c0.5,0.5,0.1,1.3-0.5,1.3h-0.7
		c-1.4,0-2.5,1.1-2.5,2.5v2.4c0,0.5,0.4,0.9,0.9,0.9h27.1c0.5,0,0.9-0.4,0.9-0.9V239c0-1.4-1.1-2.5-2.5-2.5H843
		c-0.7,0-1-0.8-0.6-1.3c5.2-5.2,24-24,24-24l0.1,0c5.4-4.9,8.4-11.8,8.4-19.1C874.9,177.9,863.3,166.4,849.1,166.4z"/>
</g>
<g>
	<g>
		<path class="st7" d="M1134.8,588.7c0,0.1,0,0.3-0.1,0.4l-12.1,61.2c-0.4,2.2-2.4,3.8-4.7,3.8h-34.3c-2.3,0-4.2-1.6-4.7-3.8
			L1067,589c0-0.1,0-0.3-0.1-0.4c-0.9-5.1,1.6-10.2,6.1-12.8l8.4-4.9c2.4-1.4,4.5-3.3,6.1-5.4c1.6-2.2,2.8-4.7,3.5-7.4h19.8
			c0.7,2.7,1.9,5.2,3.5,7.4c1.2,1.5,2.5,2.9,4.1,4.1c0.6,0.5,1.3,0.9,2,1.3l5.9,3.4l2.3,1.3l0.3,0.2
			C1133.2,578.5,1135.7,583.5,1134.8,588.7z"/>
		<path class="st5" d="M1118.3,575.2c0,0.2-0.1,0.3-0.1,0.5l-14.7,73.9c-0.5,2.5-2.5,4.3-5,4.5h-14.9c-2.3,0-4.2-1.6-4.7-3.8
			L1067,589c0-0.1,0-0.3-0.1-0.4c-0.9-5.1,1.6-10.2,6.1-12.8l8.4-4.9c1.5-0.9,2.8-1.9,4-3.1c0.7-0.7,1.4-1.5,2.1-2.4
			c0.7-0.9,1.3-2,1.9-3c0.7-1.4,1.2-2.8,1.6-4.4h19.8c0.4,1.5,0.9,3,1.6,4.4c0.5,1.1,1.2,2.1,1.9,3c0.6,0.8,1.3,1.6,2.1,2.4
			c0.6,0.6,1.3,1.2,2,1.7C1118.6,571.6,1118.6,573.5,1118.3,575.2z"/>
		<path class="st6" d="M1134.8,588.7c0,0.1,0,0.3-0.1,0.4l-12.1,61.2c-0.4,2.2-2.4,3.8-4.7,3.8h-9.2c1.2-0.1,2.3-0.6,3.2-1.4
			c0.9-0.8,1.5-1.8,1.7-3h4.3c0.2,0,0.3-0.1,0.3-0.3l6.3-31.7l1.4-7.3l1.6-7.9l0.4-2.3l1.9-9.4l0.5-2.7l0,0c0-0.1,0-0.2,0.1-0.3
			c0.2-1-2-4.5-4.4-7.3l0-0.1c0-0.2,0.1-0.3,0.1-0.5c0.3-1.7,0.3-3.6,0-5.6l2.3,1.3l0.3,0.2C1133.2,578.5,1135.7,583.5,1134.8,588.7
			z"/>
		<path class="st8" d="M1130.5,587.9c0,0.1,0,0.2-0.1,0.3l0,0l-0.5,2.7l-1.9,9.4l-0.4,2.3l-1.6,7.9l-1.4,7.3l-6.3,31.7
			c0,0.1-0.2,0.3-0.3,0.3h-34.3c-0.1,0-0.2-0.1-0.3-0.2c0,0,0,0,0-0.1l-6.2-31.3l-3.2-16.2l-0.4-2.3l-1.6-8l-0.5-2.7l-0.1-0.7
			c0-0.1,0-0.2-0.1-0.3c-0.5-3.3,1.1-6.5,4-8.2l7.6-4.4l0.9-0.5c2.9-1.7,5.4-3.9,7.4-6.6c1.3-1.7,2.4-3.6,3.2-5.6h13.3
			c0.8,2,1.9,3.9,3.2,5.6c2,2.7,4.5,4.9,7.4,6.6l0.3,0.2l8.1,4.8C1129.4,581.4,1131,584.6,1130.5,587.9z"/>
		<path class="st6" d="M1097.5,649.5h-14.1c0,0,0,0,0-0.1l-6.2-31.3l-3.2-16.2l-0.4-2.3l-1.6-8l-0.5-2.7l-0.1-0.7
			c0-0.1,0-0.2-0.1-0.3c-0.5-3.3,1.1-6.5,4-8.2l7.6-4.4L1097.5,649.5z"/>
		<path class="st9" d="M1130.5,587.9c0,0.1,0,0.2-0.1,0.3l0,0l-0.5,2.7l-1.9,9.4l-0.4,2.3l-1.6,7.9l-0.2,1.1l-0.2,0.8l-1.1,5.4
			l-5.3,26.6l-0.3,1.4l-0.7,3.7c0,0.1-0.2,0.3-0.3,0.3h-14.4l1.1-5.4l8.8-44.4l5-25l8.1,4.8C1129.4,581.4,1131,584.6,1130.5,587.9z"
			/>
		<path class="st44" d="M1130.4,588.2l-0.5,2.7l-1.9,9.4l-0.4,2.3l-3,15.2l-6.3,31.7c0,0.1-0.2,0.3-0.3,0.3h-34.3
			c-0.2,0-0.3-0.1-0.3-0.3l-6.2-31.3l-3.2-16.2l-0.4-2.3l0.3-0.4c11.1-0.7,17.2-3.9,23.1-7c0.1,0,0.1-0.1,0.2-0.1
			c0.5-0.3,1.1-0.6,1.6-0.8c0.4-0.2,0.8-0.4,1.2-0.6c4.5-2.3,9.4-4.3,16.3-4.6c0.6,0,1.2,0,1.8,0h0.1
			C1123,585.9,1127.1,586.7,1130.4,588.2z"/>
		<path class="st45" d="M1129.9,590.9l-1.9,9.4l-0.4,2.3l-3,15.2l-6.3,31.7c0,0.1-0.2,0.3-0.3,0.3h-34.3c-0.2,0-0.3-0.1-0.3-0.3
			l-6.2-31.3l-3.2-16.2c12.8-0.8,19.4-4.8,25.9-8.3c1-0.5,1.9-1,2.9-1.5c3.7-1.8,7.6-3.1,12.9-3.4c0.7,0,1.5-0.1,2.3-0.1
			C1123.4,588.6,1127.2,589.5,1129.9,590.9z"/>
		<path class="st46" d="M1128,600.3l-0.4,2.3l-3,15.2l-6.3,31.7c0,0.1-0.2,0.3-0.3,0.3h-34.3c-0.2,0-0.3-0.1-0.3-0.3l-6.2-31.3
			l-3.2-16.2l-0.4-2.3l-1.6-8l-0.5-2.7c3.2-1.4,7.2-2.1,11.9-2.1h0.1c7.1,0,12.1,1.8,16.4,3.8c0.4,0.2,0.8,0.4,1.2,0.6
			c0.6,0.3,1.2,0.6,1.7,0.9c0.5,0.3,1,0.5,1.5,0.8c3,1.6,6,3.2,9.7,4.5c3.7,1.3,8.1,2.3,13.8,2.6L1128,600.3z"/>
		<path class="st44" d="M1127.6,602.6l-1.6,7.9l-0.2,1.1l-0.2,0.8l-1.1,5.4l-5.3,26.6l-0.3,1.4l-0.7,3.7c0,0.1-0.2,0.3-0.3,0.3
			h-34.3c-0.2,0-0.3-0.1-0.3-0.3l-0.7-3.7l-0.3-1.4l-5.2-26.2l-3.2-16.2l-0.4-2.3l-1.6-8c2.7-1.3,6.3-2.1,11.4-2.2
			c5.6,0,9.8,1.1,13.5,2.7c1,0.4,2,0.9,3,1.4c4.1,2.1,8.1,4.5,13.5,6.4C1117.2,601.2,1121.8,602.2,1127.6,602.6z"/>
		<path class="st45" d="M1130.4,588.2l-0.5,2.7l-1.9,9.4l-0.4,2.3l-3,15.2l-6.3,31.7c0,0.1-0.2,0.3-0.3,0.3h-14.4l1.1-5.4l11.6-58.4
			c0.6,0,1.2,0,1.8,0h0.1C1123,585.9,1127.1,586.7,1130.4,588.2z"/>
		<path class="st47" d="M1129.9,590.9l-1.8,9l-0.1,0.4l-0.4,2.3l-3,15.2l-6.3,31.7c0,0.1-0.2,0.3-0.3,0.3h-14.4l1.1-5.4l9.3-47
			l1.7-8.7c0.7,0,1.5-0.1,2.3-0.1C1123.4,588.6,1127.2,589.5,1129.9,590.9z"/>
		<path class="st44" d="M1128.1,599.9l-0.1,0.4l-0.4,2.3l-3,15.2l-6.3,31.7c0,0.1-0.2,0.3-0.3,0.3h-14.4l1.1-5.4l9.3-47c0,0,0,0,0,0
			C1117.7,598.6,1122.4,599.6,1128.1,599.9z"/>
		<path class="st45" d="M1127.6,602.6l-1.6,7.9l-0.2,1.1l-1.2,6.2l-5.3,26.6l-0.3,1.4l-0.7,3.7c0,0.1-0.2,0.3-0.3,0.3h-14.4l0.8-4
			l0.3-1.4l8.8-44.4C1117.2,601.2,1121.8,602.2,1127.6,602.6z"/>
		<path class="st45" d="M1119,645.7l-0.7,3.7c0,0.1-0.2,0.3-0.3,0.3h-34.3c-0.2,0-0.3-0.1-0.3-0.3l-0.7-3.7H1119z"/>
		<path class="st47" d="M1119,645.7l-0.7,3.7c0,0.1-0.2,0.3-0.3,0.3h-14.4l0.8-4H1119z"/>
		<circle class="st45" cx="1086.5" cy="605.5" r="5.5"/>
		<circle class="st45" cx="1097.2" cy="602.3" r="2.8"/>
		<path class="st48" d="M1093.1,579.7c-1.5,1.2-3,2.3-4.7,3.3l-0.9,0.5l-6.7,3.9l2,10.3l2.2,11.5l0.2,0.8l2,9.9
			c0.3,1.4-0.6,2.8-2,3.1c-0.2,0-0.3,0.1-0.5,0.1c-1.2,0-2.3-0.9-2.5-2.1L1080,610l-0.6-3.2l-1.7-8l-2.2-11.4c0,0,0-0.1,0-0.1l0,0
			c0-0.1,0-0.2,0-0.4c-0.1-1.4,0.7-2.7,1.9-3.5l0.1-0.1l7.4-4.4l0.9-0.5c1.4-0.8,2.7-1.7,3.9-2.8c0.8-0.6,1.8-0.8,2.7-0.4
			C1094.3,575.9,1094.7,578.4,1093.1,579.7z"/>
		<circle class="st45" cx="1096.4" cy="611.8" r="1.8"/>
		<circle class="st45" cx="1106.8" cy="634.9" r="5.5"/>
		<circle class="st45" cx="1093.8" cy="630.2" r="2.8"/>
		<circle class="st45" cx="1102" cy="622.6" r="1.8"/>
		<path class="st32" d="M1116.3,567.9h-30.9c0.7-0.7,1.4-1.5,2.1-2.4c0.7-0.9,1.3-2,1.9-3h23c0.5,1.1,1.2,2.1,1.9,3
			C1114.9,566.3,1115.5,567.1,1116.3,567.9z"/>
		<g>
			<path class="st20" d="M1113.3,543.6l-1.5,8.4c0,1.1-0.3,2.1-0.9,2.8c-0.6,0.7-1.5,1.1-2.4,1.1l-15.4,0c-1.9,0-3.4-1.5-3.4-3.4
				l-1.5-9.2c-0.2-1.3,0.3-2.6,1.4-3.4c0.5-0.4,1.2-0.6,1.9-0.6l18.5,0c0.5,0,0.9,0.1,1.4,0.3c0.8,0.4,1.4,1.1,1.7,1.9
				c0.1,0.4,0.2,0.8,0.3,1.2C1113.4,543,1113.4,543.3,1113.3,543.6z"/>
			<path class="st21" d="M1113.3,543.6l-1.5,8.4c0,1.1-0.3,2.1-0.9,2.8c-0.6,0.6-1.3,1-2.2,1.1c-0.1,0-0.2,0-0.3,0l-4.1,0
				c1.6,0,2.9-1.8,2.9-3.9l1.6-8.7c0-2.1-1.3-3.9-2.9-3.9l4.1,0c0.5,0,0.9,0.1,1.4,0.3c0.8,0.4,1.4,1.1,1.7,1.9
				c0.1,0.4,0.2,0.8,0.3,1.3C1113.4,543.1,1113.3,543.4,1113.3,543.6z"/>
			<circle class="st21" cx="1097.7" cy="549.7" r="2.2"/>
			<circle class="st21" cx="1097.8" cy="542.3" r="1.2"/>
			<circle class="st21" cx="1092.9" cy="544.8" r="2.4"/>
			<circle class="st21" cx="1105.3" cy="544.8" r="1.6"/>
		</g>
		<path class="st5" d="M1118.2,552v8.5c0,1.1-1,2.1-2.2,2.1h-30.6c-1.2,0-2.2-0.9-2.2-2.1V552c0-1.1,1-2.1,2.2-2.1h30.6
			C1117.2,549.9,1118.2,550.9,1118.2,552z"/>
		<path class="st7" d="M1118.2,552v8.5c0,1.1-1,2.1-2.2,2.1h-14.4c-1.3,0-2.3-0.9-2.3-2.1V552c0-1.1,1-2.1,2.3-2.1h14.4
			C1117.2,549.9,1118.2,550.9,1118.2,552z"/>
		<path class="st48" d="M1088.8,627.6l1.3,6.6c0.3,1.4-0.7,2.8-2.1,3c-1.3,0.3-2.6-0.5-3-1.8c0,0,0-0.1,0-0.1l0,0l-1.3-6.7
			c-0.3-1.4,0.7-2.8,2.1-3C1087.1,625.4,1088.5,626.2,1088.8,627.6z"/>
	</g>
	<path class="st14" d="M1128.7,575.8l-0.3-0.2l-2.3-1.3l-5.9-3.4c-0.7-0.4-1.4-0.9-2-1.3c-0.2-0.1-0.4-0.3-0.6-0.4
		c-0.1,0-0.1-0.1-0.2-0.1c-0.1-0.1-0.3-0.2-0.4-0.3c-0.1-0.1-0.1-0.1-0.2-0.2c-0.1-0.1-0.2-0.2-0.3-0.3c-0.1-0.1-0.1-0.1-0.2-0.2
		c-0.1-0.1-0.2-0.2-0.3-0.3c-0.1-0.1-0.2-0.2-0.3-0.3c-0.1-0.1-0.2-0.2-0.2-0.2c-0.1-0.1-0.2-0.2-0.3-0.3c-0.1-0.1-0.2-0.2-0.2-0.3
		c-0.1-0.1-0.2-0.2-0.3-0.3c-0.1-0.1-0.1-0.2-0.2-0.3c-0.2-0.2-0.3-0.4-0.5-0.6c-0.2-0.2-0.3-0.4-0.5-0.7c0,0,0-0.1-0.1-0.1
		c-0.1-0.2-0.3-0.4-0.4-0.7c0,0,0-0.1-0.1-0.1c-0.1-0.2-0.3-0.4-0.4-0.7c0,0,0-0.1-0.1-0.1c-0.1-0.2-0.2-0.4-0.4-0.7h3.6
		c1.2,0,2.2-0.9,2.2-2.1V552c0-1.1-1-2.1-2.2-2.1h-3.9l1.1-6.3c0-0.2,0.1-0.5,0-0.7c0,0,0,0,0-0.1c0,0,0,0,0-0.1c0,0,0-0.1,0-0.1
		c0,0,0-0.1,0-0.1c0-0.1,0-0.1,0-0.2c0,0,0-0.1,0-0.1c0-0.1,0-0.1-0.1-0.2c0,0,0-0.1,0-0.1c0-0.1-0.1-0.2-0.1-0.3c0,0,0,0,0,0
		c0,0,0,0,0,0c0,0,0,0,0,0c0,0,0,0,0,0c-0.1-0.3-0.3-0.6-0.4-0.8c-0.1-0.1-0.2-0.3-0.3-0.4c-0.2-0.2-0.3-0.3-0.5-0.4
		c-0.1-0.1-0.3-0.2-0.4-0.2c-0.1,0-0.2-0.1-0.3-0.1c-0.2-0.1-0.4-0.1-0.7-0.1c-0.1,0-0.2,0-0.4,0l-4.1,0l0,0l-14.4,0
		c-0.7,0-1.3,0.2-1.9,0.6c-1.1,0.7-1.6,2.1-1.4,3.4l1.1,6.6h-3.8c-1.2,0-2.2,0.9-2.2,2.1v8.5c0,1.1,1,2.1,2.2,2.1h3.8
		c-0.1,0.2-0.2,0.4-0.4,0.7c0,0,0,0.1-0.1,0.1c-0.1,0.2-0.3,0.5-0.4,0.7c0,0,0,0.1-0.1,0.1c-0.1,0.2-0.3,0.4-0.4,0.7
		c0,0,0,0.1-0.1,0.1c-0.2,0.2-0.3,0.4-0.5,0.7c-0.1,0.2-0.3,0.4-0.5,0.6c0,0,0,0-0.1,0.1c-0.3,0.4-0.6,0.8-1,1.1c0,0,0,0,0,0.1
		c-0.2,0.2-0.3,0.4-0.5,0.5c0,0,0,0,0,0c-0.1,0.1-0.3,0.3-0.4,0.4c0,0-0.1,0.1-0.1,0.1c-0.1,0.1-0.2,0.2-0.4,0.3
		c0,0-0.1,0.1-0.1,0.1c-0.1,0.1-0.3,0.2-0.4,0.3c0,0,0,0-0.1,0.1c-0.2,0.1-0.3,0.3-0.5,0.4c0,0,0,0,0,0c-0.1,0.1-0.3,0.2-0.4,0.3
		c0,0-0.1,0.1-0.1,0.1c-0.1,0.1-0.2,0.2-0.3,0.2c-0.1,0-0.1,0.1-0.2,0.1c-0.1,0.1-0.2,0.2-0.3,0.2c-0.1,0-0.1,0.1-0.2,0.1
		c-0.2,0.1-0.3,0.2-0.5,0.3l-8.4,4.9c-4.5,2.6-7,7.7-6.1,12.8c0,0.1,0,0.3,0.1,0.4l12.1,61.2c0.4,2.2,2.4,3.8,4.7,3.8h15.1h10h2.9
		h6.3c2.3,0,4.2-1.6,4.7-3.8l12.1-61.2c0-0.1,0-0.3,0.1-0.4C1135.7,583.5,1133.2,578.5,1128.7,575.8z"/>
</g>
<g>
	<g>
		<path class="st5" d="M1128,355.6L1128,355.6c0,0.9-0.3,1.6-0.9,2.2c-0.5,0.5-1.2,0.8-2,0.9c0,0-0.1,0-0.2,0h-44.5
			c-1.7,0-3-1.3-3-3l0-9.8c0-0.8,0.3-1.6,0.9-2.1c0.6-0.6,1.3-1,2.1-1c0,0,9.9,0,20.4,0h24.3c0,0,0,0,0.1,0c1.6,0.1,2.8,1.4,2.8,3
			L1128,355.6z"/>
		<path class="st7" d="M1123.2,355.6c0,1.2-0.4,2.2-1,3.1h-21.5c0.1,0,0.1,0,0.2,0c0.8,0,1.5-0.4,2-0.9c0.6-0.6,0.9-1.3,0.9-2.1
			l0-9.8c0-1.6-1.2-2.9-2.8-3c0,0,0,0-0.1,0h21.6c0.5,0.8,0.8,1.7,0.8,2.7L1123.2,355.6z"/>
		<path class="st6" d="M1128,355.6L1128,355.6c0,0.9-0.3,1.6-0.9,2.2c-0.5,0.5-1.2,0.8-2,0.9c0,0-0.1,0-0.2,0h-13c0.2,0,0.3,0,0.5,0
			c0.6-0.1,1.2-0.4,1.7-0.9c1-1,0.9-2.4,0.9-3.7c0-1.1,0-2.2,0-3.3c0-1.6,0-3.3,0-4.9c0-1.6-1.2-2.9-2.8-3c0,0,0,0-0.1,0h13
			c0,0,0,0,0.1,0c1.6,0.1,2.8,1.4,2.8,3L1128,355.6z"/>
		<path class="st8" d="M1123.3,352.7c0,0.3-0.1,0.5-0.2,0.7c0,0.1-0.1,0.1-0.2,0.2c-0.2,0.2-0.5,0.4-0.9,0.4l-18.3,0l-20.3,0
			c-0.7,0-1.3-0.6-1.3-1.3l0-3.9c0-0.7,0.6-1.3,1.3-1.3l20.3,0l18.3,0h0c0.1,0,0.3,0,0.4,0.1c0.1,0,0.2,0.1,0.2,0.1
			c0.1,0,0.1,0.1,0.2,0.1c0.3,0.2,0.5,0.6,0.5,1L1123.3,352.7z"/>
		<path class="st6" d="M1088.1,354l-4.7,0c-0.7,0-1.3-0.6-1.3-1.3l0-3.9c0-0.7,0.6-1.3,1.3-1.3l4.7,0c-0.7,0-1.3,0.6-1.3,1.3l0,3.9
			C1086.9,353.5,1087.4,354,1088.1,354z"/>
		<path class="st9" d="M1123.3,352.7c0,0.3-0.1,0.5-0.2,0.7c0,0.1-0.1,0.1-0.2,0.2c-0.2,0.2-0.5,0.4-0.9,0.4l-18.3,0l0-6.4l18.3,0
			l0,0c0.1,0,0.3,0,0.4,0.1c0.1,0,0.2,0.1,0.2,0.1c0.1,0,0.1,0.1,0.2,0.1c0.3,0.2,0.5,0.6,0.5,1L1123.3,352.7z"/>
		<path class="st5" d="M1134.5,437.2c0,2.7-1,5.2-2.9,7.1c-1.9,1.9-4.4,2.9-7,2.9l-4.7,0l-4.9,0l-11.3,0l-22.9,0
			c-5.5,0-10-4.5-10-10l-0.1-63.9c0-5.5,4.5-10,10-10l22.9,0l11.3,0l4.9,0l4.7,0c0.1,0,0.2,0,0.3,0h0c5.3,0.2,9.7,4.6,9.7,10
			L1134.5,437.2z"/>
		<path class="st5" d="M1134.5,437.2c0,2.7-1,5.2-2.9,7.1c-1.9,1.9-4.4,2.9-7,2.9l-4.7,0l-4.9,0l-11.3,0l-22.9,0
			c-5.5,0-10-4.5-10-10l-0.1-63.9c0-5.5,4.5-10,10-10l22.9,0l11.3,0l4.9,0l4.7,0c0.1,0,0.2,0,0.3,0h0c5.3,0.2,9.7,4.6,9.7,10
			L1134.5,437.2z"/>
		<path class="st5" d="M1119.9,440.5c0.3-1.1,0.5-2.2,0.5-3.3l-0.1-63.9c0-1.1-0.2-2.2-0.4-3.2c0.3,1,0.5,2.1,0.5,3.2l0.1,63.9
			C1120.5,438.3,1120.3,439.4,1119.9,440.5z"/>
		<polygon class="st7" points="1109.2,361.4 1108.6,361.4 1110,361.4 		"/>
		<path class="st7" d="M1125.3,437.2c0,4.2-2.2,7.9-5.5,10l-4.9,0l-11.3,0c0,0,0,0,0,0l-8.8,0c0,0,0,0,0,0l4.4,0c2.7,0,5.2-1,7-2.9
			c0.8-0.8,1.4-1.7,1.9-2.6c0.7-1.4,1-2.9,1-4.4l-0.1-63.9c0-1.6-0.4-3.1-1-4.4c0,0,0,0,0,0c-1.5-3.1-4.6-5.3-8.2-5.5l6.2,0h8.8
			l4.9,0c3.3,2.1,5.5,5.8,5.5,10L1125.3,437.2z"/>
		<path class="st7" d="M1108.2,441.6c0.6-1.4,0.9-2.9,0.9-4.4l-0.1-63.9c0-1.6-0.3-3-0.9-4.4c0.7,1.3,1,2.8,1,4.4l0.1,63.9
			C1109.3,438.7,1108.9,440.2,1108.2,441.6z"/>
		<path class="st6" d="M1119.9,440.5c0.3-1.1,0.5-2.2,0.5-3.3l-0.1-63.9c0-1.1-0.2-2.2-0.4-3.2c0.3,1,0.5,2.1,0.5,3.2l0.1,63.9
			C1120.5,438.3,1120.3,439.4,1119.9,440.5z"/>
		<path class="st6" d="M1134.5,437.2c0,2.7-1,5.2-2.9,7.1c-1.9,1.9-4.4,2.9-7,2.9l-4.7,0l-4.9,0c0,0,0,0,0,0l-3.6,0c0,0,0.1,0,0.1,0
			c2.6,0,5-1.1,6.9-2.9c1.9-1.9,2.9-4.4,2.9-7.1l-0.1-63.9c0-5.3-4.2-9.7-9.4-9.9l5.1,0l4.7,0c0.1,0,0.2,0,0.3,0h0l2.6,0
			c0.1,0,0.2,0,0.3,0h0c5.3,0.2,9.7,4.6,9.7,10L1134.5,437.2z"/>
		<path class="st6" d="M1119.9,440.5c0.3-1.1,0.5-2.2,0.5-3.3l-0.1-63.9c0-1.1-0.2-2.2-0.4-3.2c0.3,1,0.5,2.1,0.5,3.2l0.1,63.9
			C1120.5,438.3,1120.3,439.4,1119.9,440.5z"/>
		<polygon class="st2" points="1118.6,363.3 1112.9,363.3 1112.5,363.3 1103.7,363.3 1086.9,363.3 1086.9,358.7 1100.6,358.7 
			1111.5,358.7 1118.6,358.7 1118.6,358.7 		"/>
		<path class="st4" d="M1116.7,362.4c0,0.5-0.5,0.9-1.2,0.9l-2.8,0h-0.1l-8.9,0h-3.1c-0.6,0-1.1-0.4-1.1-0.9l0-2.9
			c0-0.4,0.5-0.8,1.1-0.9c0,0,0,0,0,0l11,0h4.1c0,0,0,0,0,0c0,0,0,0,0,0c0.6,0.1,1,0.4,1,0.9L1116.7,362.4z"/>
		<path class="st3" d="M1118.6,363.3L1118.6,363.3l-5.7,0h-0.3c0,0,0,0,0,0c0,0,0,0,0,0c0,0,0,0,0,0c0,0,0,0,0,0
			c-0.6-0.1-1-0.4-1-0.9l0-2.9c0-0.5,0.5-0.8,1.1-0.9h6L1118.6,363.3z"/>
		<path class="st8" d="M1129.7,373.3l0.1,63.9c0,2.9-2.4,5.3-5.3,5.3l-43.8,0.1c-2.9,0-5.3-2.4-5.3-5.3l-0.1-63.9
			c0-2.9,2.4-5.3,5.3-5.3l43.8-0.1C1127.3,368,1129.7,370.4,1129.7,373.3z"/>
		<path class="st9" d="M1129.7,373.3l0.1,63.9c0,2.9-2.4,5.3-5.3,5.3l-16.5,0c0.8-1.6,1.2-3.4,1.2-5.3l-0.1-63.9
			c0-1.9-0.5-3.7-1.3-5.3l16.5,0C1127.3,368,1129.7,370.4,1129.7,373.3z"/>
		<path class="st6" d="M1087.3,442.5l-6.6,0c-2.9,0-5.3-2.4-5.3-5.3l-0.1-63.9c0-2.9,2.4-5.3,5.3-5.3l6.6,0c-2.9,0-5.3,2.4-5.3,5.3
			l0.1,63.9C1082.1,440.2,1084.4,442.5,1087.3,442.5z"/>
		<path class="st49" d="M1075.4,392.5l0.1,44.7c0,2.9,2.4,5.3,5.3,5.3l43.8-0.1c2.9,0,5.3-2.4,5.3-5.3l-0.1-53.2
			c-2.5-1.8-6-3.1-12.1-3.1C1100.9,380.9,1099,392.5,1075.4,392.5z"/>
		<path class="st50" d="M1129.7,383.9l0.1,53.2c0,2.9-2.4,5.3-5.3,5.3l-16.5,0c0.5-1,0.9-2.1,1.1-3.3c0.1-0.3,0.1-0.6,0.1-1
			c0-0.3,0-0.7,0-1l-0.1-55.2c2.4-0.7,5.2-1.2,8.5-1.2C1123.6,380.8,1127.2,382.2,1129.7,383.9z"/>
		<path class="st50" d="M1129.7,386.6l0.1,50.6c0,2.9-2.4,5.3-5.3,5.3l-43.8,0.1c-2.9,0-5.3-2.4-5.3-5.3l-0.1-42.1
			c13.8,0,20.2-4,26.5-7.3c4.4-2.3,8.8-4.3,15.8-4.4C1123.7,383.5,1127.2,384.8,1129.7,386.6z"/>
		<path class="st51" d="M1129.7,386.6l0.1,50.6c0,2.9-2.4,5.3-5.3,5.3l-16.5,0c0.5-1,0.9-2.1,1.1-3.3c0.1-0.3,0.1-0.6,0.1-1
			c0-0.3,0-0.7,0-1l-0.1-52.5c2.4-0.7,5.2-1.2,8.5-1.2C1123.7,383.5,1127.2,384.8,1129.7,386.6z"/>
		<path class="st52" d="M1129.8,437.2c0,2.9-2.4,5.3-5.3,5.3l-37.2,0.1h0l-6.6,0h0c-0.1,0-0.2,0-0.3,0c-0.1,0-0.2,0-0.3,0
			c-0.1,0-0.2,0-0.3,0c-2.5-0.4-4.5-2.6-4.5-5.2l-0.1-53.2c0,0,0,0,0,0c1.6-1.2,3.7-2.1,6.6-2.7c0,0,0,0,0,0
			c1.6-0.3,3.4-0.5,5.5-0.5c16.7,0,18.7,11.6,42.3,11.6L1129.8,437.2z"/>
		<path class="st49" d="M1129.7,392.4l0.1,44.7c0,2.9-2.4,5.3-5.3,5.3l-16.5,0c0.5-1,0.9-2.1,1.1-3.3c0.1-0.3,0.1-0.6,0.1-1
			c0-0.3,0-0.7,0-1l-0.1-49C1114,390.5,1120.1,392.5,1129.7,392.4z"/>
		<path class="st50" d="M1129.7,395.8l0.1,41.4c0,2.9-2.4,5.3-5.3,5.3l-43.8,0.1c-2.9,0-5.3-2.4-5.3-5.3l-0.1-49.9
			c2.5-1.8,6-3.1,12.1-3.1c6.2,0,10.4,1.6,14.4,3.6C1108.6,391.2,1114.9,395.8,1129.7,395.8z"/>
		<path class="st49" d="M1129.7,395.8l0.1,38.1c0,2.9-2.4,5.3-5.3,5.3l-43.8,0.1c-2.9,0-5.3-2.4-5.3-5.3l-0.1-46.6
			c2.5-1.8,6-3.1,12.1-3.1C1104.2,384.2,1106.1,395.8,1129.7,395.8z"/>
		<path class="st51" d="M1129.7,395.8l0.1,41.4c0,2.9-2.4,5.3-5.3,5.3l-16.5,0c0.5-1,0.9-2.1,1.1-3.3c0.1-0.3,0.1-0.6,0.1-1
			c0-0.3,0-0.7,0-1l-0.1-45.6C1114,393.9,1120.1,395.8,1129.7,395.8z"/>
		<path class="st50" d="M1129.7,395.8l0.1,38.1c0,2.9-2.4,5.3-5.3,5.3l-15.5,0c0.1-0.3,0.1-0.6,0.1-1c0-0.3,0-0.7,0-1l-0.1-45.6
			C1114,393.9,1120.1,395.8,1129.7,395.8z"/>
		<circle class="st50" cx="1097.6" cy="398.6" r="2"/>
		<circle class="st50" cx="1085.8" cy="399" r="5.5"/>
		<circle class="st50" cx="1093.8" cy="408.8" r="3.5"/>
		<circle class="st50" cx="1109.5" cy="431.1" r="3.9"/>
		<circle class="st50" cx="1100.2" cy="426.2" r="2.9"/>
		<circle class="st50" cx="1094.6" cy="431.8" r="1.7"/>
		<path class="st48" d="M1081.9,373.9L1081.9,373.9c1.5,0,2.8,1.2,2.8,2.8v37.5c0,1.5-1.2,2.8-2.8,2.8l0,0c-1.5,0-2.8-1.2-2.8-2.8
			v-37.5C1079.2,375.2,1080.4,373.9,1081.9,373.9z"/>
		<path class="st48" d="M1082,419.8L1082,419.8c1.5,0,2.8,1.2,2.8,2.8v5.4c0,1.5-1.2,2.8-2.8,2.8l0,0c-1.5,0-2.8-1.2-2.8-2.8v-5.4
			C1079.3,421,1080.5,419.8,1082,419.8z"/>
	</g>
	<path class="st14" d="M1134.4,373.3c0-5.3-4.3-9.8-9.7-10h0c-0.1,0-0.2,0-0.3,0l-2.6,0h0c-0.1,0-0.2,0-0.3,0l-2.9,0l0-4.6h3.6
		c0,0,0,0,0,0h2.8c0.1,0,0.1,0,0.2,0c0.8,0,1.5-0.4,2-0.9c0.6-0.6,0.9-1.3,0.9-2.1v-0.1l0-9.7c0-1.6-1.2-2.9-2.8-3c0,0,0,0-0.1,0
		h-13h-11.3c-10.5,0-20.4,0-20.4,0c-0.8,0-1.6,0.4-2.1,1c-0.6,0.6-0.9,1.3-0.9,2.1l0,9.8c0,1.7,1.4,3,3,3l6.4,0l0,4.6l-6.3,0
		c-5.5,0-10,4.5-10,10l0.1,63.9c0,5.5,4.5,10,10,10l22.9,0h0l0,0l7.7,0c0,0,0,0,0,0l1,0l2.6,0l4.9,0c0,0,0,0,0,0l4.7,0
		c2.7,0,5.2-1,7-2.9c1.9-1.9,2.9-4.4,2.9-7.1L1134.4,373.3z"/>
</g>
<g>
	<g>
		<g>
			<path class="st20" d="M982.1,539.2l-1.7,9.5c0,1.3-0.4,2.4-1,3.2c-0.7,0.7-1.7,1.2-2.8,1.2l-17.4,0c-2.1,0-3.8-1.7-3.8-3.8
				l-1.7-10.4c-0.2-1.5,0.4-3,1.6-3.8c0.6-0.4,1.3-0.7,2.1-0.7l21,0c0.5,0,1.1,0.1,1.5,0.3c0.9,0.4,1.6,1.2,1.9,2.1
				c0.2,0.4,0.3,0.9,0.3,1.3C982.2,538.5,982.2,538.8,982.1,539.2z"/>
			<path class="st21" d="M982.1,539.2l-1.7,9.5c0,1.3-0.4,2.4-1,3.2c-0.6,0.7-1.5,1.1-2.4,1.2c-0.1,0-0.2,0-0.3,0l-4.7,0
				c1.8,0,3.3-2,3.3-4.4l1.8-9.9c0-2.4-1.5-4.4-3.3-4.4l4.7,0c0.5,0,1.1,0.1,1.5,0.3c0.9,0.4,1.6,1.2,1.9,2.1
				c0.2,0.4,0.3,0.9,0.3,1.5C982.2,538.6,982.2,538.9,982.1,539.2z"/>
			<circle class="st21" cx="964.5" cy="546" r="2.5"/>
			<circle class="st21" cx="964.6" cy="537.7" r="1.4"/>
			<circle class="st21" cx="959.1" cy="540.5" r="2.7"/>
			<circle class="st21" cx="973" cy="540.5" r="1.9"/>
		</g>
		<path class="st5" d="M983.9,560.2v77.9c0,8.8-7.2,16-16,16s-16-7.2-16-16v-77.9c0-0.3,0.3-0.6,0.6-0.6h30.8
			C983.7,559.6,983.9,559.8,983.9,560.2z"/>
		<path class="st8" d="M979.3,560.2v77.9c0,6.3-5.1,11.4-11.4,11.4s-11.4-5.1-11.4-11.4v-77.9H979.3z"/>
		<path class="st53" d="M979.3,576v27.2c-0.6,0.4-1.4,0.6-2.2,0.6l-18.4,0c-0.8,0-1.6-0.2-2.2-0.6v-23.3c4.9,0,7.3-1.3,9.6-2.5
			c0.2-0.1,0.4-0.2,0.6-0.3c0.3-0.2,0.6-0.3,0.9-0.5c1.8-0.9,3.8-1.6,6.7-1.6h0C976.3,575,978,575.3,979.3,576z"/>
		<path class="st54" d="M979.4,599.6c0,0,0,0.1,0,0.1c0,0.1,0,0.1,0,0.2c-0.2,1.1-1.1,1.9-2.2,1.9l-18.4,0c-1.2,0-2.2-1-2.2-2.2
			l0-11.9l0-5.8h0c5.8,0,8.5-1.7,11.1-3.1c1.9-1,3.7-1.8,6.6-1.8c2.5,0,4,0.6,5.1,1.3l0,3.9L979.4,599.6z"/>
		<path class="st55" d="M979.3,580.2L979.3,580.2l0.1,57.9c0,6.3-5.1,11.4-11.4,11.4s-11.4-5.1-11.4-11.4v-61.8c1.4-0.7,3-1,5-1h0
			c2.6,0,4.4,0.6,6,1.3c0.3,0.1,0.6,0.3,0.9,0.4c0.4,0.2,0.8,0.4,1.2,0.6C972,578.9,974.4,580.2,979.3,580.2z"/>
		<path class="st56" d="M979.3,610.3v27.8c0,6.3-5.1,11.4-11.4,11.4s-11.4-5.1-11.4-11.4v-59.5c1-0.7,2.5-1.3,5-1.3
			c2.6,0,4.4,0.7,6.1,1.5c2.8,1.4,5.5,3.4,11.7,3.3L979.3,610.3z"/>
		<path class="st54" d="M961.9,592.8c-0.9,2.3-3,3.7-5.4,3.8v-11.8c0.7,0,1.3,0.1,2,0.4C961.5,586.4,963,589.8,961.9,592.8z"/>
		<circle class="st54" cx="967" cy="601.3" r="3.7"/>
		<circle class="st54" cx="974" cy="593.7" r="2.1"/>
		<circle class="st54" cx="970.5" cy="631.8" r="3.8"/>
		<circle class="st54" cx="963.9" cy="624" r="2.4"/>
		<path class="st54" d="M979.3,617.9v9.7c-0.6,0-1.2-0.1-1.8-0.3c-2.5-1-3.7-3.8-2.8-6.3C975.5,619.1,977.4,617.9,979.3,617.9z"/>
		<path class="st6" d="M973.3,560.2v77.9c0,3-2.4,5.4-5.4,5.4s-5.4-2.4-5.4-5.4v-77.9H973.3z"/>
		<path class="st54" d="M973.3,575v28.8l-3.6,0l-5.4,0l-1.8,0V579c1-0.3,1.9-0.8,2.7-1.2c0.3-0.2,0.6-0.3,0.9-0.5
			c0.2-0.1,0.4-0.2,0.6-0.3c0.3-0.2,0.6-0.3,0.9-0.5C969.2,575.8,970.9,575.2,973.3,575z"/>
		<path class="st55" d="M973.3,577v24.8l-2.7,0l-7.3,0l-0.8,0v-20.7c2.1-0.6,3.6-1.5,5.1-2.3c0.7-0.4,1.5-0.8,2.3-1.1
			C970.9,577.4,972,577.1,973.3,577z"/>
		<path class="st57" d="M973.3,579.3v58.8c0,3-2.4,5.4-5.4,5.4s-5.4-2.4-5.4-5.4v-62.7c2.1,0.1,3.7,0.6,5.1,1.3
			c0.3,0.1,0.6,0.3,0.9,0.4c0.4,0.2,0.8,0.4,1.2,0.6c0.1,0,0.1,0.1,0.2,0.1C971,578.3,972,578.9,973.3,579.3z"/>
		<path class="st55" d="M973.3,581.4v56.7c0,3-2.4,5.4-5.4,5.4s-5.4-2.4-5.4-5.4v-60.7c1,0.1,1.9,0.2,2.7,0.5c0.9,0.3,1.6,0.6,2.4,1
			C969.3,579.7,971,580.7,973.3,581.4z"/>
		<circle class="st56" cx="967" cy="601.3" r="3.7"/>
		<path class="st56" d="M973.3,591.7v3.9c0,0,0,0,0,0c-1.1-0.4-1.6-1.6-1.2-2.7C972.3,592.3,972.8,591.9,973.3,591.7z"/>
		<path class="st56" d="M973.3,629.2v5.2c-1,1.1-2.7,1.6-4.2,1c-2-0.8-3-3-2.2-5c0.8-2,3-3,5-2.2
			C972.4,628.4,972.9,628.8,973.3,629.2z"/>
		<path class="st56" d="M966.2,624.8c-0.5,1.3-1.9,1.9-3.2,1.4c-0.2-0.1-0.4-0.2-0.5-0.3v-4c0.6-0.5,1.5-0.6,2.3-0.3
			C966.1,622.2,966.7,623.6,966.2,624.8z"/>
		<path class="st9" d="M979.3,560.2v77.9c0,5.5-3.9,10.1-9.1,11.2c-0.7,0.2-1.5,0.2-2.3,0.2c-0.8,0-1.6-0.1-2.3-0.2
			c-5.2-1.1-9.1-5.7-9.1-11.2v-77.9h2v77.9c0,5.2,4.2,9.4,9.4,9.4s9.4-4.2,9.4-9.4v-77.9H979.3z"/>
		<path class="st58" d="M979.3,576v62.1c0,5.5-3.9,10.1-9.1,11.2c-0.7,0.2-1.5,0.2-2.3,0.2c-0.8,0-1.6-0.1-2.3-0.2
			c-5.2-1.1-9.1-5.7-9.1-11.2v-58.2c0.7,0,1.4,0,2-0.1v58.2c0,5.2,4.2,9.4,9.4,9.4s9.4-4.2,9.4-9.4v-62.8
			C978.1,575.5,978.7,575.7,979.3,576C979.3,576,979.3,576,979.3,576z"/>
		<path class="st53" d="M979.3,610.3v27.8c0,5.5-3.9,10.1-9.1,11.2c-0.7,0.2-1.5,0.2-2.3,0.2c-0.8,0-1.6-0.1-2.3-0.2
			c-5.2-1.1-9.1-5.7-9.1-11.2v-56.2c0.7,0,1.4,0,2-0.1v56.2c0,5.2,4.2,9.4,9.4,9.4s9.4-4.2,9.4-9.4v-60.7c0.8,0.2,1.5,0.6,2,0.9
			l0,1.9l0,2l0,11.2L979.3,610.3z"/>
		<path class="st56" d="M979.3,580.2v57.9c0,5.5-3.9,10.1-9.1,11.2c-0.7,0.2-1.5,0.2-2.3,0.2c-0.8,0-1.6-0.1-2.3-0.2
			c-5.2-1.1-9.1-5.7-9.1-11.2v-61.8c0.6-0.3,1.3-0.5,2-0.7v62.5c0,5.2,4.2,9.4,9.4,9.4s9.4-4.2,9.4-9.4v-58
			C977.9,580.2,978.6,580.2,979.3,580.2L979.3,580.2z"/>
		<path class="st54" d="M979.3,610.3v27.8c0,5.5-3.9,10.1-9.1,11.2c-0.7,0.2-1.5,0.2-2.3,0.2c-0.8,0-1.6-0.1-2.3-0.2
			c-5.2-1.1-9.1-5.7-9.1-11.2v-59.5c0.5-0.4,1.2-0.7,2-0.9v60.4c0,5.2,4.2,9.4,9.4,9.4c5.2,0,9.4-4.2,9.4-9.4v-56
			c0.6,0,1.3,0.1,2,0.1l0,11.2L979.3,610.3z"/>
		<path class="st53" d="M958.5,585.2v11c-0.6,0.2-1.3,0.4-2,0.4c0,0,0,0,0,0v-11.8c0,0,0,0,0,0C957.2,584.8,957.9,585,958.5,585.2
			C958.5,585.2,958.5,585.2,958.5,585.2z"/>
		<path class="st53" d="M979.3,617.9v9.7c-0.6,0-1.2-0.1-1.8-0.3c-0.1,0-0.1,0-0.2-0.1v-8.9C978,618.1,978.6,617.9,979.3,617.9z"/>
		<path class="st5" d="M985.2,545.7h-34.5c-1.7,0-3,1.3-3,2.9v9.6c0,1.6,1.4,2.9,3,2.9h34.5c1.7,0,3-1.3,3-2.9v-9.6
			C988.2,547,986.9,545.7,985.2,545.7z"/>
		<path class="st7" d="M985.2,545.7h-16.3c-1.7,0-3.2,1.3-3.2,2.9v9.6c0,1.6,1.4,2.9,3.2,2.9h16.3c1.7,0,3-1.3,3-2.9v-9.6
			C988.2,547,986.9,545.7,985.2,545.7z"/>
	</g>
	<path class="st14" d="M985.2,545.7h-4.3l1.2-6.6c0.1-0.3,0.1-0.6,0-0.8c0,0,0,0,0-0.1c0,0,0,0,0-0.1c0,0,0-0.1,0-0.1
		c0-0.1,0-0.1,0-0.2c0-0.1,0-0.1,0-0.2c0,0,0-0.1,0-0.1c0-0.1,0-0.2-0.1-0.2c0,0,0-0.1,0-0.1c0-0.1-0.1-0.2-0.1-0.3c0,0,0,0,0,0
		c0,0,0,0,0,0c0,0,0,0,0,0c0,0,0,0,0-0.1c-0.1-0.3-0.3-0.6-0.5-0.9c-0.1-0.2-0.3-0.4-0.5-0.5c0,0,0,0,0,0c-0.3-0.2-0.6-0.5-0.9-0.6
		c-0.5-0.2-1-0.3-1.5-0.3l-4.7,0l0,0l-16.3,0c-0.8,0-1.5,0.2-2.1,0.7c-1.2,0.8-1.8,2.3-1.6,3.8l1.1,6.9h-4.2c-1.7,0-3,1.3-3,2.9v9.6
		c0,1.6,1.4,2.9,3,2.9h1.3v76.9c0,8.8,7.2,16,16,16s16-7.2,16-16v-76.9h1.3c1.7,0,3-1.3,3-2.9v-9.6
		C988.2,547,986.9,545.7,985.2,545.7z"/>
</g>
<g>
	<g>
		<path class="st59" d="M848.4,570h-0.1v0C848.4,570,848.4,570,848.4,570z"/>
		<g>
			<path class="st5" d="M864.2,566.8c0,0.9-0.3,1.7-0.9,2.3c-0.6,0.6-1.4,1-2.3,1h-52.7c-1.8,0-2.8-1.4-2.8-3.2l0-10.5
				c0-0.9,0.3-1.7,0.9-2.3c0.6-0.6,1.4-1,2.3-1h52.4c1.7,0.1,3.1,1.5,3.1,3.2L864.2,566.8z"/>
			<path class="st6" d="M864.2,566.8c0,0.9-0.3,1.7-0.9,2.3c-0.6,0.6-1.4,1-2.3,1h-23.4c0.9,0,1.7-0.3,2.3-1c0.6-0.6,1-1.4,0.9-2.3
				l0-1.7l0-6.9l0-1.9c0-1.7-1.4-3.2-3.1-3.2h23.4c1.7,0.1,3.1,1.5,3.1,3.2L864.2,566.8z"/>
			<path class="st7" d="M849.6,566.8c0,0.9-0.3,1.7-0.9,2.3c-0.6,0.6-1.4,1-2.3,1h-22.8c-0.9,0-1.7-0.3-2.3-1
				c-0.6-0.6-1-1.4-0.9-2.3l0-10.5c0-1.7,1.4-3.2,3.1-3.2h23.1c1.7,0.1,3.1,1.5,3.1,3.2L849.6,566.8z"/>
			<path class="st8" d="M859.2,563.6c0,0.1,0,0.2,0,0.3c-0.1,0.6-0.7,1.1-1.3,1.1h-0.1l-8.1,0l-13.8,0h-0.6l-14.9,0l-8.4,0
				c-0.7,0-1.4-0.6-1.4-1.4l0-4.2c0-0.7,0.6-1.4,1.4-1.4h45.9c0.5,0,0.9,0.2,1.1,0.6c0,0,0,0,0,0c0,0.1,0.1,0.1,0.1,0.2
				c0,0,0,0.1,0.1,0.1c0,0,0,0.1,0,0.1c0,0.1,0,0.1,0,0.2c0,0.1,0,0.1,0,0.2L859.2,563.6z"/>
			<path class="st9" d="M859.2,563.6c0,0.1,0,0.2,0,0.3c-0.1,0.6-0.7,1.1-1.4,1.1h0l-8.1,0v-6.9l8.2,0c0.5,0,0.9,0.2,1.1,0.6
				c0,0,0,0,0,0c0,0.1,0.1,0.1,0.1,0.2c0,0,0,0.1,0.1,0.1c0,0,0,0.1,0,0.1c0,0.1,0,0.1,0,0.2c0,0.1,0,0.1,0,0.2L859.2,563.6z"/>
			<path class="st6" d="M820.3,558.1v6.9l-8.4,0c-0.7,0-1.4-0.6-1.4-1.4l0-4.2c0-0.7,0.6-1.4,1.4-1.4H820.3z"/>
		</g>
		<polygon class="st4" points="847.4,570 847.4,579.1 822.2,579.1 822.2,570 835.7,570 		"/>
		<path class="st3" d="M855.4,581.5l-9.2,0c-0.5,0-1-0.4-1-1v-9.5c0-0.6,0.5-1,1-1l4.9,0l4.2,0v0L855.4,581.5z"/>
		<path class="st2" d="M823.7,581.8h-9.4V570h9.4c0.6,0,1,0.5,1,1v9.7C824.7,581.3,824.2,581.8,823.7,581.8z"/>
		<path class="st7" d="M883.7,594.7l-12.8,55.5c-0.5,2.3-2.5,3.9-4.8,3.9h-62.4c-2.3,0-4.3-1.6-4.8-3.9L786,594.7
			c-0.6-2.4,0.7-4.9,3.1-5.8l41.7-14.4c2.3-0.9,4.8-1,7.2-0.3l0,0c0.3,0.1,0.7,0.2,1,0.3l41.7,14.4
			C883,589.8,884.3,592.3,883.7,594.7z"/>
		<path class="st6" d="M851.7,649.2l-0.2,1c0,0.2-0.1,0.3-0.1,0.4L851.7,649.2z"/>
		<path class="st5" d="M823.1,654.1l-6.8,0v0h-12.7c-2.3,0-4.3-1.6-4.8-3.9L786,594.7c-0.6-2.4,0.7-4.9,3.1-5.8l29.2-10.1l6.3-2.2
			c-2,0.7-3.3,2.6-3.3,4.7c0,0.2,0,0.3,0,0.5l0.1,1.1l0,0.2l-1.6,0.5l-27.7,9.5c-0.8,0.3-1.2,1.1-1,1.9l1.2,5.2l0,0.2l0.6,2.8l0,0.2
			l3.3,14.3l0.5,2.1l0.2,0.9l0.5,2l5.8,25c0.2,0.8,0.9,1.3,1.6,1.3h13l0,0.2l0.2,1c0,0.2,0.1,0.3,0.1,0.4c0,0,0,0,0,0
			C819.1,652.7,821,654.1,823.1,654.1z"/>
		<path class="st6" d="M883.7,594.7l-12.8,55.5c-0.5,2.3-2.5,3.9-4.8,3.9h-12.6v0l-6.8,0c2.2,0,4-1.4,4.7-3.4
			c0.1-0.1,0.1-0.3,0.1-0.4l0.2-1l0-0.2h12.9c0.8,0,1.5-0.5,1.6-1.3l5.8-25l0.5-2l0.2-0.9l0.5-2.1l3.3-14.3l0-0.2l0.6-2.8l0-0.2
			l1.2-5.2c0.2-0.8-0.2-1.6-1-1.9l-27.5-9.5l-0.1,0l-1.5-0.5l0-0.1l0.1-1.1c0-0.2,0-0.3,0-0.5c0-1.3-0.5-2.6-1.4-3.5
			c-0.1-0.1-0.1-0.1-0.2-0.2c-0.4-0.4-0.8-0.7-1.3-0.9l4.6,1.6l1.3,0.5l0.1,0l29.1,10.1C883,589.8,884.3,592.3,883.7,594.7z"/>
		<path class="st5" d="M818.4,650.7c-0.1-0.1-0.1-0.3-0.1-0.4l-0.2-1L818.4,650.7z"/>
		<path class="st8" d="M878.4,595l-1.2,5.2l0,0.2l-0.6,2.8l0,0.2l-3.3,14.3l-0.5,2.1l-0.2,0.9l-0.5,2l-5.8,25
			c-0.2,0.8-0.9,1.3-1.6,1.3h-59.5c-0.8,0-1.5-0.5-1.6-1.3l-5.8-25.3l-0.4-1.6l-0.3-1.4l-0.4-1.6l-3.6-15.4l0-0.1l-0.7-2.8l0-0.1
			l-1-4.3c-0.2-0.8,0.2-1.6,1-1.9l40.3-13.9c0.7-0.3,1.5-0.4,2.3-0.4c0.8,0,1.5,0.1,2.3,0.4l40.3,13.9
			C878.2,593.4,878.6,594.2,878.4,595z"/>
		<path class="st9" d="M878.4,595l-1.2,5.2l0,0.2l-0.6,2.8l0,0.2l-3.3,14.3l-0.5,2.1l-0.2,0.9l-0.5,2l-5.8,25
			c-0.2,0.8-0.9,1.3-1.6,1.3h-12.8l13.9-60l11.7,4C878.2,593.4,878.6,594.2,878.4,595z"/>
		<path class="st9" d="M878.4,595l-1.2,5.2l0,0.2l-0.6,2.8l0,0.2l-3.3,14.3l-0.5,2.1l-0.2,0.9l-0.5,2l-5.8,25
			c-0.1,0.3-0.2,0.6-0.5,0.8c-0.3,0.3-0.7,0.5-1.1,0.5h-12.8l6.8-29.3l0.7-3l3.6-15.3l0.7-3l2.2-9.3l11.7,4
			C878.2,593.4,878.6,594.2,878.4,595z"/>
		<path class="st6" d="M791.3,595l1.2,5.2l0,0.2l0.6,2.8l0,0.2l3.3,14.3l0.5,2.1l0.2,0.9l0.5,2l5.8,25c0.2,0.8,0.9,1.3,1.6,1.3h12.8
			l-13.9-60l-11.7,4C791.5,593.4,791.1,594.2,791.3,595z"/>
		<path class="st60" d="M877.2,600.3l0,0.2l-0.6,2.8l0,0.2l-3.3,14.3l-0.5,2.1l-0.2,0.9l-0.5,2l-5.8,25c-0.2,0.8-0.9,1.3-1.6,1.3
			h-59.5c-0.8,0-1.5-0.5-1.6-1.3l-5.8-25.3l-0.4-1.6l-0.3-1.4l-0.4-1.6c18-0.7,27.4-5.7,36.5-10.6c0.8-0.4,1.5-0.8,2.3-1.2l0.7-0.4
			h0c0.2-0.1,0.4-0.2,0.6-0.3c1.2-0.6,2.2-1.1,3.2-1.6c5.6-2.6,12.7-5.4,23.3-5.4h0.1C868.6,598.4,873.2,599,877.2,600.3z"/>
		<path class="st61" d="M876.5,603.2l0,0.2l-3.3,14.3l-0.5,2.1l-0.2,0.9l-0.5,2l-5.8,25c-0.2,0.8-0.9,1.3-1.6,1.3h-59.5
			c-0.8,0-1.5-0.5-1.6-1.3l-5.8-25.3l-0.4-1.6c19.9-0.9,29.8-7,39.5-12.1h0c0.4-0.2,0.8-0.4,1.2-0.6c1-0.5,2.1-1.1,3.1-1.6
			c6.1-2.9,12.6-5.1,22-5.1C868.7,601.4,873.1,602.1,876.5,603.2z"/>
		<path class="st62" d="M873.2,617.7l-0.5,2.1l-0.2,0.9l-0.5,2l-5.8,25c-0.2,0.8-0.9,1.3-1.6,1.3h-59.5c-0.8,0-1.5-0.5-1.6-1.3
			l-5.8-25.3l-0.7-3l-3.9-17.1l0-0.1l-0.7-2.8l0-0.1c3-0.6,6.5-0.9,10.3-0.9h0.1c10.6,0,17.8,2.7,23.4,5.4c0.6,0.3,1.3,0.6,2,1
			c0.4,0.2,0.8,0.4,1.2,0.6c1.1,0.6,2.3,1.2,3.4,1.8c9.7,5.2,19.7,10.5,40.1,10.5H873.2z"/>
		<path class="st60" d="M872.5,620.7l-0.5,2l-5,21.8l-0.7,3.2c-0.2,0.8-0.9,1.3-1.6,1.3h-59.5c-0.8,0-1.5-0.5-1.6-1.3l-0.7-3.2
			l-5.1-22.1l-0.7-3l-3.9-17.1l0-0.1c2.7-0.5,5.9-0.9,9.6-0.9c9.4,0,16,2.2,22.2,5.1c0.6,0.3,1.3,0.6,1.9,0.9
			c0.4,0.2,0.8,0.4,1.2,0.6C838.6,613.6,849.1,620.6,872.5,620.7z"/>
		<path class="st63" d="M877.2,600.3l0,0.2l-0.6,2.8l0,0.2l-3.3,14.3l-0.5,2.1l-0.2,0.9l-0.5,2l-5.8,25c-0.1,0.3-0.3,0.6-0.5,0.8
			c-0.3,0.3-0.7,0.5-1.1,0.5h-12.8l6.8-29.3l0.7-3l3.6-15.3l0.7-3C868.8,598.4,873.3,599,877.2,600.3L877.2,600.3z"/>
		<path class="st64" d="M876.5,603.2l0,0.2l-3.3,14.3l-0.5,2.1l-0.2,0.9l-0.5,2l-5.8,25c-0.1,0.3-0.3,0.6-0.5,0.8
			c-0.3,0.3-0.7,0.5-1.1,0.5h-12.8l6.8-29.3l0.7-3l3.6-15.3c0.1,0,0.2,0,0.2,0C868.7,601.4,873.1,602.1,876.5,603.2L876.5,603.2z"/>
		<path class="st60" d="M873.2,617.7l-0.5,2.1l-0.2,0.9l-0.5,2l-5.8,25c-0.1,0.3-0.3,0.6-0.5,0.8c-0.3,0.3-0.7,0.5-1.1,0.5h-12.8
			l6.8-29.3l0.7-3c3.9,0.6,8.4,0.9,13.4,0.9H873.2z"/>
		<path class="st61" d="M872.5,620.7l-0.5,2l-5,21.8l-0.7,3.2c-0.1,0.3-0.3,0.6-0.5,0.8c-0.3,0.3-0.7,0.5-1.1,0.5h-12.8l1-4.5
			l5.8-24.8C862.7,620.3,867.3,620.7,872.5,620.7L872.5,620.7z"/>
		<circle class="st61" cx="808.4" cy="612.9" r="5.1"/>
		<circle class="st61" cx="817.1" cy="619.9" r="2.7"/>
		<circle class="st61" cx="815.7" cy="637.7" r="2.7"/>
		<circle class="st61" cx="855" cy="636" r="5.1"/>
		<circle class="st61" cx="850.1" cy="626" r="2.7"/>
		<circle class="st61" cx="840.9" cy="629.1" r="1.5"/>
		<circle class="st61" cx="809.8" cy="640.1" r="1.5"/>
		<path class="st61" d="M867,644.5l-0.7,3.2c-0.2,0.8-0.9,1.3-1.6,1.3h-59.5c-0.8,0-1.5-0.5-1.6-1.3l-0.7-3.2H867z"/>
		<path class="st64" d="M867,644.5l-0.7,3.2c-0.1,0.3-0.3,0.6-0.5,0.8c-0.3,0.3-0.7,0.5-1.1,0.5h-12.8l1-4.5H867z"/>
		<path class="st65" d="M822.5,593.2c0,1.2-0.8,2.4-2,2.8l-15,5.2c-0.3,0.1-0.4,0.4-0.4,0.7l4.9,20.7c0.4,1.6-0.6,3.2-2.2,3.6
			c-1.6,0.4-3.2-0.6-3.6-2.2l-5.2-22.1c-0.6-2.4,0.8-4.9,3.2-5.7l16.4-5.6c1.6-0.5,3.2,0.3,3.8,1.8
			C822.4,592.6,822.5,592.9,822.5,593.2z"/>
		<path class="st65" d="M806.8,633.8l-0.4-1.7c-0.2-1,0.1-2.1,0.9-2.8c0.4-0.4,0.8-0.6,1.4-0.7c1.6-0.4,3.2,0.6,3.5,2.2l0.4,1.7
			c0.2,1-0.1,2.1-0.9,2.8c-0.4,0.4-0.8,0.6-1.4,0.7c-0.8,0.2-1.6,0-2.2-0.4S806.9,634.6,806.8,633.8z"/>
		<path class="st6" d="M850.2,578.4l-4.6-1.6c0,0,0,0-0.1,0L850.2,578.4z"/>
		<polygon class="st5" points="824.6,576.6 818.3,578.8 818.3,578.8 		"/>
		<path class="st6" d="M845.6,576.8c0.5,0.2,0.9,0.5,1.3,0.9C846.5,577.4,846.1,577.1,845.6,576.8c-0.1,0-0.3-0.1-0.4-0.1
			L845.6,576.8z"/>
		<polygon class="st6" points="851.5,578.9 851.5,578.9 851.5,578.8 850.2,578.4 		"/>
	</g>
	<path class="st14" d="M880.6,588.9l-25.3-8.7l0-10.1v0l-0.3,0h5.9c0.9,0,1.7-0.3,2.3-1c0.6-0.6,1-1.4,0.9-2.3l0-10.5
		c0-1.7-1.4-3.2-3.1-3.2h-14.6c0,0,0,0,0,0h-23.1c0,0,0,0,0,0h-14.7c-0.9,0-1.7,0.4-2.3,1c-0.6,0.6-1,1.4-0.9,2.3l0,10.5
		c0,1.8,1,3.2,2.8,3.2h6v10.2l-25.2,8.7c-2.3,0.9-3.6,3.4-3.1,5.8l12.8,55.5c0.5,2.3,2.5,3.9,4.8,3.9h12.7v0l6.8,0h23.5l6.8,0v0H866
		h0c2.3,0,4.3-1.6,4.8-3.9l12.8-55.5C884.3,592.3,883,589.8,880.6,588.9z"/>
</g>
</svg>
