<?xml version="1.0" encoding="utf-8"?>
<!-- Generator: Adobe Illulstrator 22.1.0, SVG Export Plug-In . SVG Version: 6.00 Build 0)  -->
<svg version="1.1" id="Layer_1" xmlns="http://www.w3.org/2000/svg" xmlns:xlink="http://www.w3.org/1999/xlink" x="0px" y="0px"
	 viewBox="0 0 1920 1080" style="enable-background:new 0 0 1920 1080;" xml:space="preserve" class="potion-rack-left-svg">
<style type="text/css">
	.lst0{fill:#381818;}
	.lst1{fill:#492020;}
	.lst2{fill:#F1F5D7;}
	.lst3{fill:#D6EBD4;}
	.lst4{fill:#B8E0D5;}
	.lst5{fill:#F3F7DE;}
	.lst6{fill:#DDEEDB;}
	.lst7{fill:#C4E5DC;}
	.lst8{fill:#AADCD9;}
	.lst9{fill:#9ED3D7;}
	.lst10{fill:#FFB957;}
	.lst11{fill:#F7914F;}
	.lst12{fill:#FFD889;}
	.lst13{fill:#F26F51;}
	.lst14{fill:#FEC763;}
	.lst15{opacity:0.5;fill:#FFFFFF;mix-blend-mode:soft-light;}
	.lst16{fill:#F99D5C;}
	.lst17{opacity:0.4;fill:#1c1923;enable-background:new;}
	.lst18{opacity:0.81;fill:#F3F7DE;}
	.lst19{opacity:0.81;fill:#AADCD9;}
	.lst20{fill:#FFDC00;}
	.lst21{fill:#FFBE00;}
	.lst22{fill:#FFF000;}
	.lst23{fill:#EDA80F;}
	.lst24{opacity:0.7;fill:#FFFFFF;mix-blend-mode:soft-light;}
	.lst25{opacity:0.2;fill:#FFFFFF;mix-blend-mode:soft-light;}
	.lst26{fill:#2D2D2D;}
	.lst27{fill:#1E1E1E;}
	.lst28{fill:#373737;}
	.lst29{fill:#141414;}
	.lst30{opacity:0.25;fill:#FFFFFF;mix-blend-mode:soft-light;}
</style>
<g>
	<rect x="733.7999878" y="460.7000122" class="lst0" width="456.000061" height="619.2999878"/>
	<path class="lst1" d="M1191,411.7000122c-3.9000244,0-7.4000244,1.6000061-10,4.1000061s-4.0999756,6.1000061-4.0999756,10
		v22.1000061H743.0999756v-22.1000061c0-7.7999878-6.2999878-14.1000061-14.0999756-14.1000061
		c-3.9000244,0-7.4000244,1.6000061-10,4.1000061c-2.5,2.5-4.0999756,6.1000061-4.0999756,10V1080h28.2000122V887.9000244
		h433.7999878V1080h28.1999512V425.7999878C1205.0999756,418,1198.8000488,411.7000122,1191,411.7000122z M1176.9000244,476
		v176.7999878H743.0999756V476H1176.9000244z M743.0999756,859.7000122V681h433.7999268v178.7000122H743.0999756z"/>
</g>
<g class="potion-1 potion potion-light-1">
	<g>
		<polygon class="lst2" points="840.3451538,569.0106201 823.4436646,569.046814 809.2753296,569.0757446 809.2660522,564.503418
			840.3340454,564.4383545 840.3340454,564.4672852 		"/>
		<path class="lst3" d="M840.2682495,569.0297852l-14.9030151,0.031189
			c-0.6538696,0.0014038-1.1848145-0.6918335-1.1859741-1.5484619l-0.006897-1.4743042
			c-0.0011597-0.8567505,0.5281372-1.5524902,1.1820679-1.553894l14.9030151-0.03125
			c0.6538696-0.0014038,1.1848145,0.6918335,1.1859741,1.5485229l0.006958,1.4742432
			C841.4514771,568.3326416,840.9222412,569.0283813,840.2682495,569.0297852z"/>
		<path class="lst4" d="M846.7486572,569.0551758h-12.0202637c-0.6519775,0-1.1807861-0.6889648-1.1817017-1.5397339
			l-0.0057983-1.4909668c-0.0009766-0.8514404,0.5271606-1.5427246,1.1797485-1.5441895l12.0230103-0.0213623
			c0,0.1574097-0.0025024,1.3408203-0.0025024,1.5396729L846.7486572,569.0551758z"/>
		<path class="lst5" d="M863.5318604,652.333313h-71.0523682c-4.5848389,0-8.1199951-4.0377808-7.515686-8.5819092
			l9.0772095-68.1362915c0.5007935-3.7661743,3.7144165-6.5787964,7.5137939-6.5787964h52.5709229
			c3.8622437,0,7.1072998,2.9050293,7.5341187,6.7432251l9.406189,68.1363525
			C871.5631104,648.4064331,868.0482788,652.333313,863.5318604,652.333313z"/>
		<path class="lst6" d="M863.4616089,652.333313h-30.3065796c3.1618652,0,5.8321533-1.9255371,6.9797363-4.619873
			c0.4915771-1.1549683,0.7041016-2.4504395,0.5543823-3.7975464l-7.5581665-68.1363525
			c-0.0831299-0.7484131-0.2734375-1.461731-0.5562134-2.123291c-1.1586914-2.7368164-3.8677979-4.6199341-6.9779053-4.6199341
			h28.4586182c3.8622437,0,7.1072998,2.9050293,7.5341797,6.7432251l9.4061279,68.1363525
			C871.4929199,648.4064331,867.9780884,652.333313,863.4616089,652.333313z"/>
		<path class="lst7" d="M863.5318604,652.333313h-21.168457c3.1619263,0,5.8322144-1.9255371,6.9797974-4.619873
			c0.4915161-1.1549683,0.7041016-2.4504395,0.5543823-3.7975464l-7.5582275-68.1363525
			c-0.0831299-0.7484131-0.2734375-1.461731-0.5561523-2.123291c-1.1586914-2.7368164-3.8678589-4.6199341-6.9779663-4.6199341
			h19.3204956c3.8622437,0,7.1072998,2.9050293,7.5341187,6.7432251l9.406189,68.1363525
			C871.5631104,648.4064331,868.0482788,652.333313,863.5318604,652.333313z"/>
		<path class="lst8" d="M792.2705688,647.7128906c-1.168335,0-1.8970337-0.6328735-2.227478-1.0102539
			c-0.3302612-0.3773804-0.8615112-1.1832886-0.7072144-2.3413696l9.0764771-68.1361084
			c0.1950684-1.4648438,1.4567261-2.569458,2.9345703-2.569458l52.5702515-0.0001831
			c1.5108643,0,2.7759399,1.1324463,2.9425049,2.6340942l7.5580444,68.1361084
			c0.1268921,1.1442871-0.4071045,1.9329224-0.7366333,2.3010864c-0.3297119,0.3681641-1.0545044,0.9859009-2.2058716,0.9859009
			L792.2705688,647.7128906z"/>
		<path class="lst8" d="M865.5276489,646.7266235c-0.3289185,0.3677368-1.0533447,0.9868164-2.2045898,0.9868164h-71.0524292
			c-1.1697388,0-1.8978271-0.6338501-2.2286377-1.0108643c-0.3289185-0.3769531-0.861145-1.1826782-0.7058716-2.3413696
			l4.5256348-33.9803467l0.3751221-2.8126221l0.2494507-1.8775024l1.4229736-10.6757202l0.3973389-2.9770508l0.260498-1.9606934
			l0.1810913-1.3619385l0.1866455-1.406311l0.2347412-1.7573853l1.2418213-9.3267212
			c0.1958618-1.4653931,1.4562378-2.5686646,2.9345703-2.5686646h52.5709229c1.5097656,0,2.7756348,1.1309814,2.9418945,2.6333618
			l9.406189,68.1362915C866.3925171,645.5698242,865.8584595,646.3588867,865.5276489,646.7266235z"/>
		<path class="lst9" d="M865.5276489,646.7266235c-0.3289185,0.3677368-1.0533447,0.9868164-2.2045898,0.9868164h-23.1882935
			c0.4915771-1.1549683,0.7041016-2.4504395,0.5543823-3.7975464l-7.5581665-68.1363525
			c-0.0831299-0.7484131-0.2734375-1.461731-0.5562134-2.123291h21.3421631c1.5097656,0,2.7756348,1.1309814,2.9418945,2.6333618
			l2.1732178,15.7427979l0.4121094,2.9807739l1.7333984,12.5587769l0.3880615,2.8144531l4.6994019,34.0394897
			C866.3925171,645.5698242,865.8584595,646.3588867,865.5276489,646.7266235z"/>
		<path class="lst9" d="M865.5516968,646.7266235c-0.3085938,0.3455811-0.9646606,0.9110718-1.9939575,0.9794312
			c-0.0609741,0.0054932-0.1238403,0.0073853-0.1885376,0.0073853h-23.2103882
			c0.4915771-1.1549683,0.7041016-2.4504395,0.5543823-3.7975464l-4.5164185-40.7069702l-0.3659058-3.3041992l-0.4767456-4.2946777
			l-0.3104858-2.8051758l-1.8886108-17.0253296c-0.0831909-0.7484131-0.2734985-1.461731-0.5562744-2.123291h21.3421631
			c1.5098267,0,2.7756348,1.1309814,2.9419556,2.6333618l2.1732178,15.7372437l0.4102783,2.9807739l1.7352295,12.562439
			l0.3880615,2.8144531l4.6993408,34.0413818C866.4165039,645.5698242,865.8825073,646.3588867,865.5516968,646.7266235z"/>
		<path class="lst7" d="M808.4613647,573.65625c-1.4783936,0-2.7387085,1.1032715-2.9346313,2.5686646l-9.0753174,68.1362915
			c-0.1552124,1.1586914,0.3770142,1.9644165,0.7058716,2.3413696c0.3308105,0.3770142,1.0588989,1.0108643,2.2286987,1.0108643
			h-7.1146851c-1.1697388,0-1.8978271-0.6338501-2.2286377-1.0108643c-0.3289185-0.3769531-0.861145-1.1826782-0.7058716-2.3413696
			l9.0753174-68.1362915c0.1958618-1.4653931,1.4561768-2.5686646,2.9345703-2.5686646H808.4613647z"/>
		<path class="lst5" d="M854.8637085,561.5267944c0.0018311,0.7946777-0.3068237,1.5430908-0.8667603,2.1048584
			c-0.5598755,0.5617676-1.3064575,0.8722534-2.1010742,0.8740845h-48.0822144c-1.633606,0-2.5797729-1.262146-2.5834351-2.897583
			l-0.0148315-9.5540161c-0.0018311-0.7946167,0.3067627-1.5411377,0.8666992-2.1029663
			c0.5599365-0.5617676,1.3046875-0.9368896,2.0993042-0.9387817h47.8327026
			c1.5892944,0.0702515,2.8329468,1.3712158,2.8347778,2.9604492L854.8637085,561.5267944z"/>
		<path class="lst7" d="M854.8637085,561.5267944c0.0018311,0.7946777-0.3068237,1.5430908-0.8667603,2.1048584
			c-0.5598755,0.5617676-1.3064575,0.8722534-2.1010742,0.8740845h-21.3292236
			c0.7946167-0.0018311,1.5411987-0.3123169,2.1011353-0.8740845s0.8685303-1.3101807,0.8666992-2.1048584l-0.0018311-1.5836792
			l-0.0111084-6.2756958l-0.0018311-1.6945801c-0.0018921-1.5892334-1.2455444-2.8901978-2.8347778-2.9604492h21.3291626
			c1.5892944,0.0702515,2.8329468,1.3712158,2.8347778,2.9604492L854.8637085,561.5267944z"/>
		<path class="lst6" d="M840.2724609,561.5261841c0.0018921,0.7946167-0.3067017,1.5430298-0.8666382,2.1047974
			c-0.5599365,0.5618286-1.3065186,0.8722534-2.1011353,0.8740845h-11.3505859
			c0.7946167-0.0018311,1.5411987-0.3122559,2.1011353-0.8740845c0.5599365-0.5617676,0.8685303-1.3101807,0.8666992-2.1047974
			l-0.0147705-9.5539551c-0.0018311-1.5892944-1.2454834-2.8902588-2.8347778-2.9604492h11.3505859
			c1.5892334,0.0701904,2.8328857,1.3711548,2.8347778,2.9604492L840.2724609,561.5261841z"/>
		<path class="lst8" d="M850.2493286,558.6680298c0,0.6818848-0.5506592,1.2362671-1.2344971,1.2381592l-20.0966187,0.029541
			h-0.5266113l-21.3181152,0.0314331c-0.6837769,0.0018311-1.2363281-0.5507202-1.2381592-1.234436l-0.0055542-3.8049927
			c-0.0018311-0.6818848,0.5507202-1.2362671,1.232605-1.2380981l19.1209106-0.027771l2.7349243-0.0036621l20.0874634-0.0296021
			c0.4767456-0.0018311,0.890686,0.2680054,1.0958252,0.6634521c0.0184326,0.0332642,0.0350952,0.0683594,0.0498657,0.1053467
			c0.0147705,0.0313721,0.0258789,0.0628052,0.0369873,0.0979004c0.0350952,0.1164551,0.0554199,0.2402344,0.0554199,0.3677368
			L850.2493286,558.6680298z"/>
		<path class="lst10" d="M865.5516968,646.7266235c-0.3290405,0.3677368-1.053772,0.9868164-2.2055054,0.9868164h-71.0808105
			c-1.1702271,0-1.8986206-0.6338501-2.2295532-1.0108643c-0.3290405-0.3769531-0.8615112-1.1826782-0.7061768-2.3413696
			l4.5274658-33.9803467l0.3753052-2.8126221c13.0795898-1.1401978,20.5483398-5.1077271,27.7730713-8.9478149
			c0.8226929-0.4361572,1.6601563-0.8814697,2.5049438-1.3212891c0.6470947-0.3363647,1.2960205-0.6690063,1.9467773-0.9923706
			c0.4232788-0.2106934,0.8336792-0.4102783,1.2349243-0.602417c1.5861206-0.7576904,3.0188599-1.3730469,4.4331665-1.9089966
			c1.5640259-0.5932007,3.1224365-1.0921021,4.6975708-1.4986572c3.7011108-0.9572754,7.4927979-1.4118652,11.6394043-1.4118652
			h0.083252c3.9783936,0.0073853,7.4299316,0.3825073,10.5079956,1.147583l0.4122314,2.9807739l1.7341309,12.5587769
			l0.3881836,2.8144531l4.7012939,34.0394897C866.4169312,645.5698242,865.8826294,646.3588867,865.5516968,646.7266235z"/>
		<path class="lst11" d="M865.5516968,646.7266235c-0.3290405,0.3677368-1.053772,0.9868164-2.2055054,0.9868164h-71.0808105
			c-1.1702271,0-1.8986206-0.6338501-2.2295532-1.0108643c-0.3290405-0.3769531-0.8615112-1.1826782-0.7061768-2.3413696
			l4.5274658-33.9803467c16.8046875-1.3361206,24.9778442-7.1848755,33.835022-11.5922852
			c1.0463257-0.5192871,2.1000977-1.0200806,3.1815796-1.4876099c0.7321167-0.3215332,1.4752808-0.6264648,2.2351074-0.9147339
			c1.2866821-0.487854,2.62146-0.9277344,4.0246582-1.3046875c3.3128662-0.890686,7.012085-1.4321899,11.4083252-1.4248047
			c4.4775391,0.0074463,8.0344849,0.515625,10.9239502,1.3564453l6.8236084,49.4127197
			C866.4169312,645.5698242,865.8826294,646.3588867,865.5516968,646.7266235z"/>
		<path class="lst11" d="M866.1966553,645.5827637c-0.029541,0.0960693-0.0609741,0.1884155-0.0960693,0.2753296
			c-0.0184937,0.0424805-0.0369263,0.0849609-0.0554199,0.1256714c-0.0388184,0.0831299-0.0776367,0.1607056-0.1201172,0.2328491
			c-0.1238403,0.2161865-0.258728,0.3861694-0.3696289,0.5100098c-0.3104858,0.3474121-0.975708,0.918457-2.0180054,0.9794312
			c-0.0609131,0.0054932-0.1237793,0.0073853-0.1884766,0.0073853h-23.2103882
			c0.4915161-1.1549683,0.7040405-2.4504395,0.5543823-3.7975464l-4.5164185-40.7069702l-0.3659668-3.3041992l-0.4767456-4.2946777
			l-0.3104858-2.8051758c0.5988159-0.1829224,1.1994019-0.3529663,1.8017578-0.5081787
			c3.7014771-0.9572754,7.4935303-1.4118652,11.6403809-1.4118652h0.0831909
			c3.9694214,0.0073853,7.4140015,0.3806763,10.4871826,1.1420288c0.0073242,0.0018311,0.0128784,0.0037231,0.0203247,0.0055542
			l0.4120483,2.9807739l1.7352905,12.5587769l0.3880615,2.8144531l4.7011719,34.0394897
			C866.3408203,644.8638916,866.2927246,645.2519531,866.1966553,645.5827637z"/>
		<path class="lst12" d="M865.5534058,646.7266235c-0.3289795,0.3677368-1.0537109,0.9868164-2.2054443,0.9868164h-71.0808716
			c-1.1702271,0-1.8986206-0.6338501-2.2295532-1.0108643c-0.3289795-0.3769531-0.8614502-1.1826782-0.7061768-2.3413696
			l4.5275269-33.9803467l0.3752441-2.8126221l0.2495728-1.8775024l1.4234619-10.6757202l0.397522-2.9770508
			c3.0836182-0.7687378,6.5443726-1.145752,10.5339355-1.1531372h0.0831909c5.9140015,0,11.1051636,0.9239502,16.3388672,2.9105225
			c1.4142456,0.5359497,2.8469849,1.1513062,4.4331665,1.9089966c0.4011841,0.1921387,0.8115845,0.3917236,1.2349243,0.602417
			c0.6507568,0.3233643,1.3015137,0.6578979,1.9467163,0.9942017c0.8448486,0.4379883,1.682251,0.8833008,2.5031128,1.319458
			c1.4438477,0.7687378,2.8987427,1.5411987,4.4036255,2.295166c6.0397339,3.0232544,12.9261475,5.7471924,23.4193726,6.6563721
			l5.0894775,36.8539429C866.4186401,645.5698242,865.8843384,646.3588867,865.5534058,646.7266235z"/>
		<path class="lst10" d="M865.5516968,646.7266235c-0.3289795,0.3677368-1.0533447,0.9868164-2.2045898,0.9868164h-71.0820313
			c-1.1697388,0-1.8978271-0.6338501-2.2285767-1.0108643c-0.3289795-0.3769531-0.8612061-1.1826782-0.7059326-2.3413696
			l0.2106323-1.5762939l6.3643799-47.7698975c2.8920898-0.8408203,6.4512939-1.3508301,10.9344482-1.3582764
			c6.2590332-0.0092163,11.1099243,1.088501,15.4360352,2.7294922c0.7595215,0.288269,1.5023804,0.5932007,2.2341919,0.9129028
			c1.0828857,0.4693604,2.1362305,0.9701538,3.1821899,1.4894409c3.4094849,1.6964111,6.713623,3.6053467,10.4501953,5.3886719
			c5.9855957,2.8569336,13.0725098,5.3905029,23.4451904,6.2091675l4.2188721,30.5505371l0.0332642,0.2365723l0.2217407,1.6113892
			l0.2272949,1.6409912C866.4165039,645.5698242,865.8825073,646.3588867,865.5516968,646.7266235z"/>
		<circle class="lst11" cx="814.0059814" cy="605.8117065" r="5.7334704"/>
		<circle class="lst11" cx="803.3353271" cy="614.111084" r="3.6807466"/>
		<circle class="lst11" cx="810.1800537" cy="622.4848633" r="2.0881159"/>
		<path class="lst13" d="M866.1937866,645.5827637c-0.0296021,0.0960693-0.0609741,0.1884155-0.0961304,0.2753296
			c-0.0184937,0.0424805-0.0369263,0.0849609-0.0554199,0.1256714c-0.0388184,0.0831299-0.0775757,0.1607056-0.1201172,0.2328491
			c-0.1238403,0.2161865-0.258728,0.3861694-0.3695679,0.5100098c-0.3104858,0.3474121-0.975708,0.918457-2.0180054,0.9794312
			c-0.0609741,0.0054932-0.1237793,0.0073853-0.1884766,0.0073853h-23.2104492
			c0.4915771-1.1549683,0.7041016-2.4504395,0.5543823-3.7975464l-4.5164185-40.7069702l-0.3659058-3.3041992l-0.4767456-4.2946777
			c0.5876465-0.1866455,1.1882324-0.3640137,1.8017578-0.5285034c3.3134155-0.890686,7.0130005-1.4321899,11.4093628-1.4248047
			c4.4664917,0.0074463,8.0164185,0.5137329,10.901123,1.3508911c0.0073853,0.0018311,0.0147705,0.0037231,0.0221558,0.0055542
			l1.7352295,12.5587769l0.3880615,2.8144531l4.7012329,34.0394897
			C866.3379517,644.8638916,866.289856,645.2519531,866.1937866,645.5827637z"/>
		<circle class="lst11" cx="829.9859619" cy="624.3240967" r="3.7533565"/>
		<circle class="lst11" cx="822.3435669" cy="632.3121948" r="2.129308"/>
		<path class="lst14" d="M866.1894531,645.5827637c-0.027771,0.0960693-0.0610352,0.1884155-0.0961304,0.2753296
			c-0.0184937,0.0424805-0.0369263,0.0849609-0.0554199,0.1256714c-0.0369873,0.0831299-0.0776367,0.1607056-0.1201172,0.2328491
			c-0.1238403,0.2161865-0.258728,0.3861694-0.3695679,0.5100098c-0.3104858,0.3474121-0.975769,0.918457-2.0180054,0.9794312
			c-0.0609741,0.0054932-0.1238403,0.0073853-0.1885376,0.0073853h-23.2103882
			c0.4915161-1.1549683,0.7041016-2.4504395,0.5543823-3.7975464l-4.5164185-40.7069702l-0.3659058-3.3041992
			c0.6504517,0.3381958,1.3065186,0.6763916,1.9736328,1.0108643c6.0354614,3.0214233,12.9154053,5.7434692,23.3970337,6.65448
			c0.0074463,0,0.0148315,0.0018921,0.0222168,0.0018921h0.0018311l5.0892944,36.8539429
			C866.3353882,644.8638916,866.2873535,645.2519531,866.1894531,645.5827637z"/>
		<circle class="lst11" cx="839.5203247" cy="632.6953735" r="5.8465743"/>
		<path class="lst11" d="M866.3074951,644.7714844c0,0.0591431-0.0018311,0.1182861-0.0054932,0.1737061
			c-0.0018921,0.0498657-0.0074463,0.0979004-0.0130005,0.144104c-0.0055542,0.0720825-0.0166016,0.142334-0.029541,0.2088623
			c-0.0092163,0.0462036-0.0184937,0.0924072-0.02771,0.1348877c-0.0129395,0.0517578-0.0258789,0.1016235-0.0388184,0.1497192
			c-0.0720825,0.2401733-0.1681519,0.4526978-0.2716675,0.6338501c-0.0203247,0.0350952-0.0406494,0.0701904-0.0628052,0.1034546
			c-0.0258789,0.0424805-0.0536499,0.0831299-0.0812988,0.1219482c-0.0314331,0.0443726-0.0610352,0.086853-0.0924072,0.1256714
			c-0.0462036,0.0591431-0.0905762,0.1127319-0.1330566,0.1589355c-0.0961304,0.1090088-0.2272949,0.2384033-0.3954468,0.3677368
			c-0.0333252,0.0258789-0.0684204,0.0535889-0.1053467,0.0776367c-0.0350952,0.0258789-0.0739746,0.0517578-0.1127319,0.0775757
			c-0.0388184,0.0240479-0.0794678,0.0499268-0.1219482,0.0739746c-0.0425415,0.0239868-0.085022,0.0480347-0.1293945,0.0701904
			c-0.0443115,0.0240479-0.0905151,0.0462036-0.1385498,0.0665283c-0.0480957,0.0221558-0.0961304,0.0424805-0.1478882,0.0609741
			c-0.0997925,0.0388184-0.2069092,0.0720825-0.3197021,0.1016235c-0.1127319,0.02771-0.230957,0.0499268-0.3547974,0.0665283
			c-0.0036621,0.0018921-0.0073853,0.0018921-0.0129395,0.0018921c-0.057251,0.0054932-0.1182861,0.0110474-0.1791992,0.0147705
			c-0.0111084,0.0018311-0.0222168,0.0036621-0.0332642,0.0018311c-0.0499268,0.0036621-0.0997925,0.0055542-0.1515503,0.0055542
			h-23.2141724c0.4915771-1.1549683,0.7041016-2.4504395,0.5543823-3.7975464l-0.3307495-2.9789429l-4.1856689-37.7280273
			c0.6449585,0.3251953,1.3010254,0.6486206,1.9699097,0.9683228c5.9800415,2.8551025,13.0632935,5.3867798,23.4229736,6.2072754
			c0.0073853,0,0.0148315,0.0018921,0.0222168,0.0018921l4.2188721,30.5505371l0.0332642,0.2365723l0.4490356,3.2523804
			C866.302002,644.5441895,866.3074951,644.6605835,866.3074951,644.7714844z"/>
		<path class="lst15" d="M805.2358398,579.6747437L805.2358398,579.6747437
			c1.4832764,0.2084351,2.5167847,1.579895,2.3082886,3.0632324L802.430542,619.12323
			c-0.2084351,1.4833374-1.579895,2.5167847-3.0632324,2.3083496l0,0c-1.4833374-0.2084961-2.5168457-1.5799561-2.3083496-3.0632935
			l5.1135864-36.3852539C802.3810425,580.4997559,803.7525024,579.4662476,805.2358398,579.6747437z"/>
		<path class="lst15" d="M801.2935181,627.19104l-0.9814453,6.9876709c-0.2088623,1.4823608-1.5797729,2.515625-3.0639648,2.3067627
			c-1.3717041-0.1921387-2.3582764-1.3811646-2.3347168-2.7318115c0.0009155-0.0517578,0.0036621-0.1034546,0.0082397-0.1551514
			l0.0001831-0.0092163l0.9874878-7.020874c0.2089233-1.4841919,1.579895-2.5174561,3.0640869-2.3085938
			C800.411499,624.4624023,801.4275513,625.7590942,801.2935181,627.19104z"/>
		<path class="lst9" d="M850.2493286,558.6680298c0,0.6818848-0.5506592,1.2362671-1.2344971,1.2381592l-20.1073608,0.029541
			v-6.2775269l20.0982056-0.0296021c0.4767456-0.0018311,0.890686,0.2680054,1.0958252,0.6634521
			c0.0184326,0.0332642,0.0350952,0.0683594,0.0498657,0.1053467c0.0147705,0.0313721,0.0258789,0.0628052,0.0369873,0.0979004
			c0.0350952,0.1164551,0.0554199,0.2402344,0.0554199,0.3677368L850.2493286,558.6680298z"/>
		<path class="lst11" d="M865.5567627,646.7266235c-0.3289185,0.3677368-1.0533447,0.9868164-2.2045898,0.9868164h-71.0820313
			c-1.1696777,0-1.8977661-0.6338501-2.2285767-1.0108643c-0.3289795-0.3769531-0.8612061-1.1826782-0.7059326-2.3413696
			l0.2106323-1.5762939h76.5205078l0.2272949,1.6409912C866.4215698,645.5698242,865.8875732,646.3588867,865.5567627,646.7266235z"
			/>
		<path class="lst16" d="M840.6484985,643.5148315l-0.0831299-0.7206421
			C840.5727539,642.8458862,840.6152954,643.1138306,840.6484985,643.5148315z"/>
		<path class="lst13" d="M865.557251,646.7266235c-0.3289795,0.3677368-1.0533447,0.9868164-2.2046509,0.9868164h-23.2011719
			c0.6227417-1.3730469,0.5820923-3.1969604,0.4970703-4.1948853c0-0.0018311,0-0.0037231,0-0.0037231
			c-0.0332031-0.401001-0.0757446-0.6689453-0.0831299-0.7206421c-0.0018311-0.0055542-0.0018311-0.0092773-0.0018311-0.0092773
			h25.5037231l0.2272949,1.6409912C866.4220581,645.5698242,865.8880005,646.3588867,865.557251,646.7266235z"/>
	</g>
	<path class="lst17" d="M871.06604,643.9158325l-9.406189-68.1362915c-0.4268188-3.8381958-3.671875-6.7432251-7.5341187-6.7432251
		h-0.0702515h-7.3068848l-0.0074463-3.0377197c0-0.1853027,0.0021973-1.2243042,0.0024414-1.4928589h5.1522827
		c0.7946167-0.0018311,1.5411987-0.3123169,2.1010742-0.8740845c0.5599365-0.5617676,0.8685913-1.3102417,0.8667603-2.1048584
		l-0.0148315-9.5539551c-0.0018311-1.5892334-1.2454834-2.8901978-2.8347778-2.9604492h-14.5843506
		c-0.0023193-0.0001221-0.0045166-0.0005493-0.0068359-0.0006104h-11.3505249
		c0.0023193,0.000061,0.0045166,0.0004883,0.0068359,0.0006104h-21.8978271
		c-0.7946167,0.0018921-1.5393677,0.3770142-2.0993042,0.9387817s-0.8685303,1.3083496-0.8666992,2.1029663l0.0148315,9.5540161
		c0.0036621,1.635437,0.9498291,2.897583,2.5834351,2.897583h5.4523926l0.0091553,4.5305786h-7.7203979
		c-3.7993774,0-7.0130005,2.8126221-7.5137939,6.5787964l-9.0772095,68.1362915
		c-0.6043091,4.5441284,2.9308472,8.5819092,7.515686,8.5819092h40.6755371h9.208374h21.0982056h0.0702515
		C868.0482788,652.333313,871.5631104,648.4064331,871.06604,643.9158325z"/>
</g>
<g class="potion-2 potion potion-light-2">
	<g>
		<g>
			<polygon class="lst2" points="979.5869141,565.4104004 973.6483154,565.4234619 964.2154541,565.4441528 962.4421387,565.447876
				945.2579346,565.4760132 945.2685547,559.9213257 980.5129395,559.9234009 			"/>
			<path class="lst3" d="M979.2007446,559.9506836l0.0112305,5.5119629l-1.8145142,0.0131836l-11.682373,0.020752
				c-0.5808105,0-1.0253906-0.7682495-1.0272217-1.5648193l-0.0056763-2.4416504
				c-0.0018311-0.8757935,0.5343018-1.5673218,1.197876-1.5673218c0,0,9.9223633-0.0014648,9.9464722-0.0014648
				C975.8265381,559.9332886,979.2007446,559.9506836,979.2007446,559.9506836z"/>
			<path class="lst4" d="M982.3988037,565.4647217l-8.3756104,0.0131226c-0.5548706,0-0.9560547-0.776062-0.9578857-1.5296631
				l-0.0056152-2.4500732c0-0.8378906,0.4945679-1.574585,1.1359863-1.574585c0.0206909,0,8.1918335-0.0018921,8.1918335-0.0018921
				L982.3988037,565.4647217z"/>
		</g>
		<g>
			<path class="lst2" d="M980.3429565,542.1759033v4.0603027c0,0.8585815-0.8435059,1.5615234-1.8745117,1.5615234H949.348877
				c-1.0310059,0-1.8745728-0.7029419-1.8745728-1.5615234v-4.0603027c0-0.8604126,0.8435669-1.5634155,1.8745728-1.5634155
				h29.1195679C979.4994507,540.6124878,980.3429565,541.3154907,980.3429565,542.1759033z"/>
			<path class="lst4" d="M980.3429565,542.1759033v4.0603027c0,0.8585815-0.8435059,1.5615234-1.8745117,1.5615234h-6.9606323
				c-1.0310059,0-1.8745728-0.7029419-1.8745728-1.5615234v-4.0603027c0-0.8604126,0.8435669-1.5634155,1.8745728-1.5634155
				h6.9606323C979.4994507,540.6124878,980.3429565,541.3154907,980.3429565,542.1759033z"/>
			<path class="lst3" d="M974.3446655,542.175293v4.0603027c0,0.8585815-0.8435059,1.5615234-1.8745728,1.5615234h-8.4055786
				c1.0310059,0,1.8745728-0.7029419,1.8745728-1.5615234v-4.0603027c0-0.8604736-0.8435669-1.5634155-1.8745728-1.5634155
				h8.4055786C973.5011597,540.6118774,974.3446655,541.3148193,974.3446655,542.175293z"/>
			<path class="lst5" d="M987.3336182,556.902832c0.0018311,0.8060303-0.3112183,1.5652466-0.8792114,2.1350708
				c-0.5679932,0.5698853-1.3253174,0.8848267-2.1314087,0.8867188h-43.1506958
				c-0.5567627,0-1.0366211-0.1443481-1.4265747-0.4011841c-0.2698975-0.1761475-0.4967041-0.4049072-0.6766968-0.6766968
				c-0.3374023-0.5023804-0.5155029-1.1472168-0.517395-1.8614502l-0.0149536-9.6915283
				c-0.0018921-0.7835693,0.2924194-1.5202637,0.8322754-2.0826416c0.0150146-0.0168457,0.0299683-0.0337524,0.046875-0.0506592
				c0.024353-0.024353,0.0487061-0.0487061,0.0750122-0.071167l0.0336914-0.0338135
				c0.5529785-0.5117188,1.2653809-0.8453979,2.020813-0.84729h42.897644
				c1.6121216,0.071228,2.8718262,1.3909302,2.8737183,3.0030518L987.3336182,556.902832z"/>
			<path class="lst7" d="M989.2072144,556.9036255c0.0018921,0.8059692-0.3111572,1.5651855-0.8791504,2.1350708
				s-1.3253174,0.8848267-2.1314087,0.8866577h-19.7617188c0.0581665,0,0.1162109-0.0018311,0.1743164-0.0056152h0.0075073
				c0.0581665-0.0037231,0.1143799-0.0075073,0.1705933-0.0168457c0.0018921,0.0018311,0.0056152,0.0018311,0.0075073,0
				c0.6692505-0.0806274,1.2897339-0.3805542,1.7714844-0.8641968c0.5679932-0.5698853,0.8810425-1.3291016,0.8791504-2.1350708
				l-0.0018311-1.6065674v-0.0150146l-0.0112915-6.3510742v-0.0167847l-0.0018921-1.7021484
				c-0.0018311-1.6121826-1.2634277-2.9318237-2.8755493-3.0030518h19.7617188
				c1.6121216,0.071228,2.8736572,1.3908691,2.8755493,3.0030518L989.2072144,556.9036255z"/>
			<path class="lst6" d="M977.1234741,556.902771c0.0018921,0.8060913-0.3111572,1.5652466-0.8791504,2.1351318
				s-1.3253174,0.8848267-2.1313477,0.8866577h-8.3272705c0.8060913-0.0018311,1.5634155-0.3167725,2.1314087-0.8866577
				s0.8660278-1.3290405,0.8641357-2.1351318v-9.6915283c-0.0018311-1.6121216-1.2633667-2.9318237-2.8755493-3.0030518h8.3272095
				c1.6121216,0.071228,2.8737183,1.3909302,2.8756104,3.0030518L977.1234741,556.902771z"/>
			<path class="lst8" d="M982.6508789,554.0028076c0,0.6917725-0.5585938,1.2541504-1.2521973,1.2559814l-12.6158447,0.024353
				l-4.0209961,0.0056763h-0.5341797l-19.7504883,0.0318604c-0.6936035,0.0018311-1.2540894-0.5586548-1.2559814-1.2522583
				l-0.0056152-3.8596802c-0.0018921-0.6917725,0.5585938-1.2541504,1.2503052-1.2559814l17.5216064-0.0281372l2.774353-0.0037231
				l4.0209961-0.0056152l12.6064453-0.0244141c0.4836426-0.0018311,0.9035645,0.2718506,1.1116943,0.6729736
				c0.0186768,0.0337524,0.0355835,0.069397,0.0505981,0.1068726c0.0149536,0.0318604,0.0262451,0.0637207,0.0374756,0.0993652
				c0.0355835,0.118042,0.0562744,0.2437134,0.0562744,0.3730469L982.6508789,554.0028076z"/>
			<path class="lst9" d="M982.6508789,554.0028076c0,0.6917725-0.5585938,1.2541504-1.2521973,1.2559814l-12.6170654,0.024353
				l-0.0005493-6.3678589l12.6082153-0.0244141c0.4836426-0.0018311,0.9035645,0.2718506,1.1116943,0.6729736
				c0.0186768,0.0337524,0.0355835,0.069397,0.0505981,0.1068726c0.0149536,0.0318604,0.0262451,0.0637207,0.0374756,0.0993652
				c0.0355835,0.118042,0.0562744,0.2437134,0.0562744,0.3730469L982.6508789,554.0028076z"/>
		</g>
		<path class="lst7" d="M1013.4004517,610.6118774l-23.4509277,40.6200562
			c-0.541687,0.9373169-1.5427246,1.5164795-2.6262207,1.5164795h-46.9036255c-1.0834961,0-2.0845337-0.5791626-2.6262817-1.5164795
			l-23.4508667-40.6200562c-0.541748-0.939209-0.541748-2.0939331,0-3.0330811l23.4508667-40.6181641
			c0.541748-0.9391479,1.5427856-1.5165405,2.6262817-1.5165405h46.9036255c1.0834961,0,2.0845337,0.5773926,2.6262207,1.5165405
			l23.4509277,40.6181641C1013.9421387,608.5179443,1013.9421387,609.6726685,1013.4004517,610.6118774z"/>
		<path class="lst6" d="M1000.0291138,610.6118774l-23.4526978,40.6200562
			c-0.5418091,0.9373169-1.5427856,1.5164795-2.6262817,1.5164795h-33.5304565
			c-1.0834961,0-2.0845337-0.5791626-2.6262817-1.5164795l-23.4508667-40.6200562
			c-0.541748-0.939209-0.541748-2.0939331,0-3.0330811l23.4508667-40.6181641
			c0.541748-0.9391479,1.5427856-1.5165405,2.6262817-1.5165405h33.5304565c1.0834961,0,2.0844727,0.5773926,2.6262817,1.5165405
			l23.4526978,40.6181641C1000.5708618,608.5179443,1000.5708618,609.6726685,1000.0291138,610.6118774z"/>
		<path class="lst18" d="M991.3442383,610.6118774l-23.4527588,40.6200562
			c-0.541748,0.9373169-1.5427246,1.5164795-2.6262817,1.5164795h-24.84552c-1.0834961,0-2.0845337-0.5791626-2.6262817-1.5164795
			l-23.4508667-40.6200562c-0.541748-0.939209-0.541748-2.0939331,0-3.0330811l23.4508667-40.6181641
			c0.541748-0.9391479,1.5427856-1.5165405,2.6262817-1.5165405h24.84552c1.0835571,0,2.0845337,0.5773926,2.6262817,1.5165405
			l23.4527588,40.6181641C991.8859863,608.5179443,991.8859863,609.6726685,991.3442383,610.6118774z"/>
		<path class="lst9" d="M1008.3024292,609.6340332c-0.0618286,0.3917847-0.1968384,0.776123-0.4011841,1.1303101
			l-0.5829468,1.0067139v0.0018921l-0.3880005,0.6748047l-1.3046875,2.2589111l-1.4978027,2.5943604l-17.3979492,30.133728
			c-0.2249146,0.3880005-0.6391602,0.6279907-1.0872192,0.6279907h-43.5443726
			c-0.4480591,0-0.8623047-0.2399902-1.0872192-0.6279907l-17.6022949-30.4898682l-1.4865112-2.5775757l-1.0140991-1.7564697
			l-1.0910034-1.8895874c-0.1612549-0.2792358-0.2774658-0.5792236-0.3486938-0.8847656
			c-0.1875-0.7929077-0.0731201-1.6401978,0.3468018-2.3675537l7.6501465-13.2494507l0.6504517-1.1247559l1.1903076-2.0639648
			l0.4555664-0.7872925l11.2493286-19.486145c0.2249146-0.3880005,0.6391602-0.6260986,1.0872192-0.6260986h43.5443726
			c0.4480591,0,0.8623047,0.2380981,1.0872192,0.6279907l11.2830811,19.5424194l0.7873535,1.364624l0.8884888,1.5371704
			l1.1359863,1.9683228l6.4860229,11.2324219l0.5904541,1.0234985
			C1008.2930298,608.1043701,1008.4260864,608.8842163,1008.3024292,609.6340332z"/>
		<path class="lst7" d="M992.1802979,609.0953369l-22.4967041,38.9666748h-27.4755249
			c-0.5162354,0-0.9932251-0.2753906-1.2513428-0.7224731l-21.0598145-36.4777832
			c-0.6310425-1.0930786-0.6310425-2.4397583,0.000061-3.5327759l21.1132202-36.5686646
			c0.2250366-0.3897095,0.6408691-0.6298218,1.0908813-0.6298218h27.5825195L992.1802979,609.0953369z"/>
		<polygon class="lst19" points="992.1802979,609.0953369 991.0217896,611.1011353 989.5896606,613.5830688 969.6835938,648.0620117
			958.1193848,648.0620117 937.8383789,612.9344482 936.4118652,610.4638062 935.6226196,609.0953369 944.1931763,594.2506714
			945.6759644,591.6824951 958.1193848,570.1304932 969.6835938,570.1304932 981.9057617,591.3000488 983.4054565,593.8963013 		"/>
		<path class="lst20" d="M1008.3024292,609.6340332c-0.0618286,0.3917847-0.1968384,0.776123-0.4011841,1.1303101
			l-0.5829468,1.0067139v0.0018921l-0.3880005,0.6748047l-1.3046875,2.2589111l-1.4978027,2.5943604l-17.3979492,30.133728
			c-0.2249146,0.3880005-0.6391602,0.6279907-1.0872192,0.6279907h-43.5443726
			c-0.4480591,0-0.8623047-0.2399902-1.0872192-0.6279907l-17.6022949-30.4898682l-1.4865112-2.5775757l-1.0140991-1.7564697
			l-1.0910034-1.8895874c-0.1612549-0.2792358-0.2774658-0.5792236-0.3486938-0.8847656
			c19.0906372-0.3861694,28.7521362-5.5618286,38.1081543-10.5744629c0.5717163-0.305542,1.1416016-0.611084,1.7095947-0.9110107
			c0.1949463-0.1049805,0.3898926-0.2080688,0.5829468-0.3112183l0.6167603-0.3261108h0.0037842
			c0.2005615-0.1049805,0.4011841-0.2099609,0.6035767-0.3131104c0.4255371-0.2211914,0.8547974-0.4423828,1.2897339-0.6616821
			c6.4035034-3.242981,13.7387085-6.2329712,24.8980103-6.2498169h0.1162109c4.2908936,0,8.0587769,0.3842773,11.4030762,1.1771851
			l0.8884888,1.5371704l1.1359863,1.9683228l6.4860229,11.2324219l0.5904541,1.0234985
			C1008.2930298,608.1043701,1008.4260864,608.8842163,1008.3024292,609.6340332z"/>
		<path class="lst21" d="M1008.3024292,609.6340332c-0.0618286,0.3917847-0.1968384,0.776123-0.4011841,1.1303101
			l-0.5829468,1.0067139v0.0018921l-0.3880005,0.6748047l-1.3046875,2.2589111l-1.4978027,2.5943604l-17.3979492,30.133728
			c-0.2249146,0.3880005-0.6391602,0.6279907-1.0872192,0.6279907h-43.5443726
			c-0.4480591,0-0.8623047-0.2399902-1.0872192-0.6279907l-17.6022949-30.4898682l-1.4865112-2.5775757l-1.0140991-1.7564697
			c20.449646-0.6786499,30.4429932-6.8908691,40.2750854-12.0853271h0.0018921
			c0.4011841-0.211853,0.800415-0.4217529,1.2015991-0.6298828c1.0272827-0.5341797,2.0582886-1.0535278,3.1043091-1.550293
			c6.0286255-2.8718262,12.5408936-5.0294189,21.7937012-5.0444336c5.6987305-0.0093994,10.0739746,0.7085571,13.5400391,1.8708496
			l6.4860229,11.2324219l0.5904541,1.0234985C1008.2930298,608.1043701,1008.4260864,608.8842163,1008.3024292,609.6340332z"/>
		<path class="lst22" d="M1008.3024292,609.6340332c-0.0618286,0.3917847-0.1968384,0.776123-0.4011841,1.1303101
			l-0.5829468,1.0067139v0.0018921l-0.3880005,0.6748047l-1.3046875,2.2589111l-1.4978027,2.5943604l-17.3979492,30.133728
			c-0.2249146,0.3880005-0.6391602,0.6279907-1.0872192,0.6279907h-43.5443726
			c-0.4480591,0-0.8623047-0.2399902-1.0872192-0.6279907l-17.6022949-30.4898682l-1.4865112-2.5775757l-1.0140991-1.7564697
			l-1.0910034-1.8895874c-0.1612549-0.2792358-0.2774658-0.5792236-0.3486938-0.8847656
			c-0.1875-0.7929077-0.0731201-1.6401978,0.3468018-2.3675537l7.6501465-13.2494507l0.6504517-1.1247559l1.1903076-2.0639648
			c2.4500732-0.3579712,5.1063843-0.5360718,8.0025635-0.541687h0.0918579c11.0131226,0,18.5169678,2.9993286,24.9824219,6.2498169
			c0.0224609,0.0112305,0.0449829,0.0224609,0.0674438,0.0337524c0.4086914,0.2061157,0.8154907,0.4142456,1.222229,0.6223145
			c0.6054688,0.3130493,1.2147217,0.6317749,1.8183594,0.9503784c0.5230103,0.2774048,1.0441284,0.5548706,1.5558472,0.8267212
			c9.6821899,5.1437988,19.6942749,10.4638062,40.0764771,10.4638062h0.1930542L1008.3024292,609.6340332z"/>
		<path class="lst20" d="M1006.9302979,612.4477539l-1.3046875,2.2589111l-1.4978027,2.5943604l-15.4915161,26.8325806
			l-1.9064331,3.3011475c-0.2249146,0.3880005-0.6391602,0.6279907-1.0872192,0.6279907h-43.5443726
			c-0.4480591,0-0.8623047-0.2399902-1.0872192-0.6279907l-1.9064941-3.3011475l-15.6958008-27.1887207l-1.4865112-2.5775757
			l-1.0140991-1.7564697l-1.0910034-1.8895874c-0.1612549-0.2792358-0.2774658-0.5792236-0.3486938-0.8847656
			c-0.1875-0.7929077-0.0731201-1.6401978,0.3468018-2.3675537l7.6501465-13.2494507
			c2.7649536-0.5773926,6.0061035-0.9110718,9.848999-0.9185791c9.3353271-0.0131226,15.8887939,2.1595459,21.9718018,5.0501099
			c0.6373291,0.3035889,1.269104,0.6148071,1.8989258,0.9316406c0.4011841,0.2024536,0.800415,0.4067993,1.2015991,0.6129761
			C973.086731,605.4162598,983.5449829,612.4102783,1006.9302979,612.4477539z"/>
		<path class="lst21" d="M1008.3174438,609.6340332c-0.0618286,0.3917847-0.1968384,0.776123-0.4011841,1.1303101
			l-0.5829468,1.0067139v0.0018921l-0.3880615,0.6748047l-1.3047485,2.2589111l-1.4976807,2.5943604l-17.3979492,30.133728
			c-0.2249756,0.3880005-0.6392212,0.6279907-1.0872192,0.6279907h-15.958252l19.9060669-34.4790039l1.409729-2.4425659
			l0.0224609-0.0393066l1.1585083-2.0058594l-0.3806152-0.6598511l-8.3942871-14.5391846l-0.2530518-0.4385986l-1.246582-2.1575928
			l-0.305603-0.5267944c1.7808838-0.1818237,3.6685791-0.2811279,5.6799927-0.2849121h0.1162109
			c4.2908936,0,8.0587769,0.3842773,11.4030151,1.1771851l0.8885498,1.5371704l1.1359863,1.9683228l6.4860229,11.2324219
			l0.5904541,1.0234985C1008.3080444,608.1043701,1008.4411011,608.8842163,1008.3174438,609.6340332z"/>
		<path class="lst23" d="M1008.3174438,609.6340332c-0.0618286,0.3917847-0.1968384,0.776123-0.4011841,1.1303101
			l-0.5829468,1.0067139v0.0018921l-0.3880615,0.6748047l-1.3047485,2.2589111l-1.4976807,2.5943604l-17.3979492,30.133728
			c-0.2249756,0.3880005-0.6392212,0.6279907-1.0872192,0.6279907h-15.958252l19.9060669-34.4790039l1.409729-2.4425659
			l0.0224609-0.0393066l1.1585083-2.0058594l-0.3806152-0.6598511l-8.3942871-14.5391846l-0.2530518-0.4385986
			c1.315918-0.1012573,2.6900024-0.1556396,4.1315308-0.1574707c5.6986694-0.0093994,10.0739746,0.7085571,13.5400391,1.8708496
			l6.4860229,11.2324219l0.5904541,1.0234985C1008.3080444,608.1043701,1008.4411011,608.8842163,1008.3174438,609.6340332z"/>
		<path class="lst20" d="M1008.3174438,609.6340332c-0.0618286,0.3917847-0.1968384,0.776123-0.4011841,1.1303101
			l-0.5829468,1.0067139v0.0018921l-0.3880615,0.6748047l-1.3047485,2.2589111l-1.4976807,2.5943604l-17.3979492,30.133728
			c-0.2249756,0.3880005-0.6392212,0.6279907-1.0872192,0.6279907h-15.958252l19.9060669-34.4790039l1.409729-2.4425659
			l0.0224609-0.0393066l1.1585083-2.0058594l-0.3806152-0.6598511c4.4034424,0.7554932,9.4291382,1.199707,15.3228149,1.199707
			h0.1930542L1008.3174438,609.6340332z"/>
		<path class="lst21" d="M1006.9452515,612.4477539l-1.3047485,2.2589111l-1.4976807,2.5943604l-15.4915161,26.8325806
			l-1.9064331,3.3011475c-0.2249756,0.3880005-0.6392212,0.6279907-1.0872192,0.6279907h-15.958252l2.2682495-3.9291382
			l17.6378174-30.5498657l1.409729-2.4425659C995.5966187,611.9528809,1000.8284912,612.4384155,1006.9452515,612.4477539z"/>
		<circle class="lst21" cx="945.7121582" cy="638.3800659" r="2.8370662"/>
		<circle class="lst21" cx="951.7420044" cy="640.6826172" r="1.4698462"/>
		<circle class="lst21" cx="944.9099731" cy="620.9633789" r="1.6704988"/>
		<circle class="lst21" cx="949.4508667" cy="609.15625" r="6.7897696"/>
		<circle class="lst21" cx="935.3907471" cy="615.0889282" r="4.0011144"/>
		<path class="lst24" d="M942.9831543,634.0164185c-1.315979,0.7610474-2.9974365,0.3092651-3.7584839-1.0066528
			L927.338501,612.661438c-1.2490845-2.1638184-1.2490234-4.8296509,0.0001831-6.9934082l7.2279663-12.5421753
			c0.7592163-1.3140259,2.4425659-1.7658081,3.7566528-1.0065918l-0.0008545,0.0005493
			c1.315979,0.7591553,1.7685547,2.4420166,1.0093384,3.7579346l-7.1578979,12.4192505
			c-0.3099976,0.5369263-0.3099976,1.1984863-0.000061,1.7354126l11.815979,20.2254639
			C944.7508545,631.5738525,944.2990723,633.2572021,942.9831543,634.0164185z"/>
		<path class="lst15" d="M946.269104,583.4885864l-2.5081787,4.3471069c-0.4892578,0.8435669-1.3984375,1.3703003-2.375061,1.3703003
			c-0.4799194,0-0.9523315-0.1274414-1.3684692-0.3674316c-1.3084106-0.7554321-1.7583008-2.4350586-1.0028687-3.7434692
			l2.5100708-4.3452759c0.4873657-0.8453979,1.3965454-1.3703003,2.3731689-1.3703003
			c0.4799194,0,0.9522705,0.1274414,1.3684692,0.3674316c0.633606,0.3654785,1.0872192,0.9559937,1.2765503,1.6627197
			C946.7321167,582.116333,946.6346436,582.8549805,946.269104,583.4885864z"/>
		<circle class="lst21" cx="976.3561401" cy="618.0879517" r="4.0984988"/>
		<circle class="lst21" cx="969.2006836" cy="624.578125" r="2.0571854"/>
		<circle class="lst21" cx="970.7042847" cy="630.6665649" r="1.2097235"/>
		<path class="lst21" d="M988.6362915,644.133606l-1.9064331,3.3011475
			c-0.2249146,0.3880005-0.6391602,0.6279907-1.0872192,0.6279907h-43.5443726
			c-0.4480591,0-0.8623047-0.2399902-1.0872192-0.6279907l-1.9064941-3.3011475H988.6362915z"/>
		<path class="lst23" d="M988.6513062,644.133606l-1.9064331,3.3011475
			c-0.2249756,0.3880005-0.6392212,0.6279907-1.0872192,0.6279907h-15.958252l2.2682495-3.9291382H988.6513062z"/>
	</g>
	<path class="lst17" d="M1013.4004517,610.6119385l-23.4508667,40.6201172
		c-0.5418091,0.9372559-1.5427856,1.5164795-2.6263428,1.5164795h-46.9035645c-1.0834961,0-2.0845337-0.5792236-2.6262817-1.5164795
		l-23.4508667-40.6201172c-0.541748-0.9391479-0.541748-2.0938721,0-3.03302l23.4508667-40.6182251
		c0.541748-0.9391479,1.5427856-1.5164795,2.6262817-1.5164795h4.8382568l0.0112305-5.5187378h-4.0977783
		c-0.5567627,0-1.0366821-0.1443481-1.4265747-0.4011841c-0.2699585-0.1762085-0.4967651-0.4049072-0.6766968-0.6766968
		c-0.3374023-0.5023804-0.5155029-1.1472168-0.517395-1.8614502l-0.0149536-9.6915283
		c-0.0018921-0.7835693,0.2924194-1.5202637,0.8322754-2.0826416c0.0150146-0.0169067,0.0299683-0.0337524,0.046875-0.0505981
		c0.024353-0.0244141,0.0487061-0.0487671,0.0749512-0.0712891l0.0337524-0.0336914
		c0.5530396-0.5117798,1.2653809-0.845459,2.020752-0.8473511h5.9293213v-2.0338745
		c0-0.8604126,0.8435669-1.5634155,1.8745728-1.5634155h29.1195679c1.0310059,0,1.8745728,0.7030029,1.8745728,1.5634155v2.0338745
		h5.9742432c1.6121216,0.071228,2.8737183,1.3909302,2.8756104,3.0031128l0.0150146,9.6915283
		c0.0018311,0.8060303-0.3112183,1.5652466-0.8792114,2.1351318c-0.5679932,0.5698242-1.3253784,0.8847656-2.1313477,0.8866577
		h-3.8091431l0.0112305,5.5187378h4.9244385c1.0835571,0,2.0845337,0.5773315,2.6263428,1.5164795l23.4508667,40.6182251
		C1013.9421997,608.5180664,1013.9421997,609.6727905,1013.4004517,610.6119385z"/>
</g>
<g class="potion-3 potion potion-light-3">
	<g>
		<path class="lst7" d="M1138.9020996,591.164917l-16.4641113,56.821228
			c-0.8135986,2.8039551-3.4185791,4.7611694-6.3377686,4.7611694h-31.6223145
			c-2.9190674,0-5.5240479-1.9572144-6.3376465-4.7611694l-16.4641113-56.821228
			c-0.623291-2.15448-0.3299561-4.4992676,0.8066406-6.4337158l12.048584-20.5094604
			c1.2833252-2.1841431,3.6560059-3.5424805,6.1893311-3.5424805h39.1367188c2.5333252,0,4.9061279,1.3565674,6.1893311,3.5424805
			l12.0487061,20.5094604C1139.2320557,586.6656494,1139.5252686,589.010437,1138.9020996,591.164917z"/>
		<path class="lst6" d="M1127.90271,591.164917l-16.4641113,56.821228c-0.8135986,2.8039551-3.418457,4.7611694-6.3377686,4.7611694
			h-20.6229248c-2.9190674,0-5.5240479-1.9572144-6.3376465-4.7611694l-16.4641113-56.821228
			c-0.623291-2.15448-0.3299561-4.4992676,0.8066406-6.4337158l12.048584-20.5094604
			c1.2833252-2.1841431,3.6560059-3.5424805,6.1893311-3.5424805h28.1374512c2.5332031,0,4.9060059,1.3565674,6.1893311,3.5424805
			l12.048584,20.5094604C1128.232666,586.6656494,1128.526001,589.010437,1127.90271,591.164917z"/>
		<path class="lst5" d="M1119.9290771,591.164917l-16.4641113,56.821228
			c-0.8118896,2.8039551-3.418457,4.7611694-6.3377686,4.7611694h-12.649292c-2.9190674,0-5.5240479-1.9572144-6.3376465-4.7611694
			l-16.4641113-56.821228c-0.623291-2.15448-0.3299561-4.4992676,0.8066406-6.4337158l12.048584-20.5094604
			c1.2833252-2.1841431,3.6560059-3.5424805,6.1893311-3.5424805h20.1638184c2.5350342,0,4.9060059,1.3565674,6.1893311,3.5424805
			l12.050293,20.5094604C1120.2590332,586.6656494,1120.5540771,589.010437,1119.9290771,591.164917z"/>
		<path class="lst8" d="M1134.708374,589.949707l-2.1126709,7.2910156l-0.7803955,2.6939697l-13.571167,46.8363037
			c-0.2757568,0.9549561-1.1505127,1.6115112-2.1439209,1.6115112h-31.6223145c-0.9934082,0-1.868042-0.6565552-2.1439209-1.6115112
			l-13.2446289-45.713623l-1.2518311-4.321228l-1.9676514-6.786438c-0.293335-1.0108643-0.1572266-2.0985718,0.3753662-3.0064697
			l0.625-1.0632935l1.9729004-3.3574219l9.4525146-16.0904541c0.5045166-0.8589478,1.4281006-1.3880005,2.4250488-1.3880005
			h39.1367188c0.9969482,0,1.9205322,0.5290527,2.4251709,1.3880005l8.6057129,14.6483765l1.8470459,3.1444092l1.5976563,2.7183838
			C1134.8654785,587.8511353,1135.001709,588.9388428,1134.708374,589.949707z"/>
		<path class="lst9" d="M1134.7108154,589.949707l-16.4641113,56.8212891
			c-0.006958,0.0261841-0.0157471,0.0523682-0.026123,0.0767822c-0.0018311,0.008728-0.005249,0.015686-0.0087891,0.0244751
			c-0.012207,0.0453491-0.0296631,0.0890503-0.0488281,0.1309814c-0.006958,0.019165-0.0157471,0.0383301-0.0228271,0.0558472
			c-0.0137939,0.0349121-0.0313721,0.0681152-0.0488281,0.1012573c-0.0384521,0.0767822-0.0820313,0.1519165-0.1308594,0.2234497
			c-0.0157471,0.0279541-0.0367432,0.0559082-0.0577393,0.0838013c-0.0418701,0.0576172-0.0872803,0.1135254-0.1361084,0.1676025
			c-0.0192871,0.0227661-0.0384521,0.0436401-0.0594482,0.0664063c-0.0401611,0.0418701-0.0837402,0.0819702-0.1274414,0.1221313
			c-0.0330811,0.0296631-0.0698242,0.0611572-0.1064453,0.0873413c-0.3823242,0.2985229-0.8607178,0.4714355-1.3723145,0.4714355
			h-12.7644043c0.0469971-0.1309814,0.0906982-0.2619019,0.1291504-0.3963623l14.3392334-49.4848633l0.7280273-2.5106201
			l1.3985596-4.8257446c0.6251221-2.15448,0.3282471-4.4992676-0.8066406-6.4337158l-0.9671631-1.6464233l-1.4595947-2.484436
			l-9.1383057-15.5562744h12.2984619c0.9985352,0,1.9205322,0.5290527,2.4267578,1.3880005l8.6038818,14.6483765l1.84729,3.1444092
			l1.5974121,2.7183838c0.0646973,0.1117554,0.1241455,0.2252197,0.1781006,0.3422241
			c0.0891113,0.1937866,0.1624756,0.3928833,0.2165527,0.5971069
			C1134.9116211,588.5547485,1134.9080811,589.2688599,1134.7108154,589.949707z"/>
		<path class="lst25" d="M1065.8624268,589.949707l16.4642334,56.8212891
			c0.2775879,0.9549561,1.1505127,1.6115112,2.145752,1.6115112h12.7644043
			c-0.0471191-0.1309814-0.0908203-0.2619019-0.1291504-0.3963623l-16.4658203-56.821228
			c-0.6251221-2.15448-0.3282471-4.4992676,0.8066406-6.4337158l11.5649414-19.6871338h-12.2983398
			c-0.9986572,0-1.9204102,0.5290527-2.4267578,1.3880005l-12.0487061,20.5111694
			C1065.7053223,587.8511353,1065.5692139,588.9388428,1065.8624268,589.949707z"/>
		<path class="lst26" d="M1134.708374,589.949707l-2.1126709,7.2910156l-0.7803955,2.6939697l-13.571167,46.8363037
			c-0.2757568,0.9549561-1.1505127,1.6115112-2.1439209,1.6115112h-31.6223145c-0.9934082,0-1.868042-0.6565552-2.1439209-1.6115112
			l-13.2446289-45.713623l-1.2518311-4.321228l0.7647705-0.0593262c13.3022461-1.0161743,20.7137451-4.9863892,27.8789063-8.8273926
			c0.6600342-0.3526611,1.3129883-0.7019043,1.9659424-1.0475464c0.4155273-0.2200317,0.8118896-0.4260864,1.1906738-0.621582
			c1.3479004-0.6965942,2.487915-1.2553101,3.5914307-1.7581787c4.1901855-1.9117432,10.1176758-4.1081543,18.835083-4.1238403
			h0.0750732c3.2491455,0,6.1369629,0.2565918,8.7489014,0.7821655l1.8470459,3.1444092l1.5976563,2.7183838
			C1134.8654785,587.8511353,1135.001709,588.9388428,1134.708374,589.949707z"/>
		<path class="lst27" d="M1134.708374,589.949707l-2.8930664,9.9849854l-13.571167,46.8363037
			c-0.2757568,0.9549561-1.1505127,1.6115112-2.1439209,1.6115112h-31.6223145c-0.9934082,0-1.868042-0.6565552-2.1439209-1.6115112
			l-13.2446289-45.713623l-0.2880859-1.7686157c15.1057129-1.1541138,23.0479736-6.0374756,30.869751-10.171814
			c1.536499-0.8118896,3.067627-1.5922852,4.6459961-2.3133545c4.9112549-2.2399902,10.2956543-3.8724976,17.7525635-3.8864136
			c4.3822021-0.0053101,7.8514404,0.4888306,10.6657715,1.3076782l1.5976563,2.7183838
			C1134.8654785,587.8511353,1135.001709,588.9388428,1134.708374,589.949707z"/>
		<path class="lst28" d="M1132.5957031,597.2407227l-0.7803955,2.6939697l-13.571167,46.8363037
			c-0.2757568,0.9549561-1.1505127,1.6115112-2.1439209,1.6115112h-31.6223145c-0.9934082,0-1.868042-0.6565552-2.1439209-1.6115112
			l-13.2446289-45.713623l-1.2518311-4.321228l-1.9676514-6.786438c-0.293335-1.0108643-0.1572266-2.0985718,0.3753662-3.0064697
			l0.625-1.0632935l1.9729004-3.3574219c3.0152588-0.7698975,6.4284668-1.1505127,10.3447266-1.1557617h0.0942383
			c6.4302979,0,11.8809814,1.1069336,17.6774902,3.5896606c0.8449707,0.3596191,1.7302246,0.7646484,2.6782227,1.223877
			c0.3928223,0.1885986,0.7961426,0.3893433,1.2116699,0.5988159c1.9432373,0.9760132,3.7973633,2.1038818,5.7598877,3.2980957
			c5.9727783,3.6297607,12.1481934,7.3852539,21.7524414,7.3852539c1.0511475,0,2.140625-0.0454102,3.2353516-0.1378784
			L1132.5957031,597.2407227z"/>
		<path class="lst26" d="M1131.81604,599.9346924l-12.8831787,44.461853l-0.6878662,2.3744507
			c-0.2758789,0.9549561-1.1506348,1.6115112-2.144043,1.6115112h-31.6221924c-0.9934082,0-1.8681641-0.6565552-2.144043-1.6115112
			l-0.6878662-2.3744507l-12.5567627-43.3391724l-3.2194824-11.107666c-0.293335-1.0108643-0.1571045-2.0985718,0.3753662-3.0064697
			l0.625-1.0632935c3.078125-1.1539917,7.0361328-1.8872681,12.321167-1.8942871
			c6.9417725-0.012207,12.0904541,1.3880005,16.7364502,3.3783569c1.2762451,0.5429688,2.5140381,1.1331177,3.7431641,1.7529297
			C1108.0522461,593.331604,1115.9752197,601.2563477,1131.81604,599.9346924z"/>
		<circle class="lst27" cx="1089.800293" cy="634.9248657" r="3.7246466"/>
		<circle class="lst27" cx="1097.4969482" cy="638.7949829" r="1.8332245"/>
		<path class="lst27" d="M1134.7089844,589.949707l-2.1124268,7.2910156l-0.7805176,2.6939697l-13.5710449,46.8363037
			c-0.0070801,0.0261841-0.0157471,0.0506592-0.0244141,0.0767822c-0.0018311,0.008728-0.005249,0.015686-0.0087891,0.0244751
			c-0.0140381,0.0436401-0.0296631,0.0890503-0.0488281,0.1309814c-0.006958,0.019165-0.0157471,0.0383301-0.0228271,0.0558472
			c-0.015625,0.0349121-0.0313721,0.0681152-0.0488281,0.1012573c-0.0384521,0.0767822-0.0820313,0.1519165-0.1308594,0.2234497
			c-0.0175781,0.0296631-0.0367432,0.0559082-0.0577393,0.0838013c-0.0418701,0.0576172-0.0872803,0.1135254-0.1361084,0.1676025
			c-0.0192871,0.0227661-0.0384521,0.0436401-0.0594482,0.0664063c-0.0401611,0.0418701-0.0837402,0.0819702-0.1274414,0.1221313
			c-0.0330811,0.0296631-0.0698242,0.0611572-0.1064453,0.0873413c-0.3823242,0.2985229-0.8607178,0.4714355-1.3723145,0.4714355
			h-12.7644043c0.0469971-0.1309814,0.0906982-0.2619019,0.1291504-0.3963623l14.3392334-49.4848633l0.7280273-2.5106201
			l1.3985596-4.8257446c0.6251221-2.15448,0.3282471-4.4992676-0.8066406-6.4337158l-0.9671631-1.6464233l-1.4595947-2.484436
			c1.6602783-0.1885986,3.4464111-0.298584,5.3669434-0.302063h0.0750732c3.2491455,0,6.1369629,0.2565918,8.7487793,0.7821655
			l1.84729,3.1444092l1.5974121,2.7183838c0.0646973,0.1117554,0.1241455,0.2252197,0.1781006,0.3422241
			c0.0891113,0.1937866,0.1606445,0.3928833,0.2165527,0.5971069
			C1134.9099121,588.5547485,1134.9063721,589.2688599,1134.7089844,589.949707z"/>
		<circle class="lst27" cx="1077.2185059" cy="600.6937256" r="5.5869699"/>
		<circle class="lst27" cx="1085.8809814" cy="591.3933716" r="2.8516824"/>
		<path class="lst29" d="M1134.7089844,589.949707l-2.1124268,7.2910156l-0.7805176,2.6939697l-13.5710449,46.8363037
			c-0.0070801,0.0261841-0.0157471,0.0506592-0.0244141,0.0767822c-0.0018311,0.008728-0.005249,0.015686-0.0087891,0.0244751
			c-0.0140381,0.0436401-0.0296631,0.0890503-0.0488281,0.1309814c-0.006958,0.019165-0.0157471,0.0383301-0.0228271,0.0558472
			c-0.015625,0.0349121-0.0313721,0.0681152-0.0488281,0.1012573c-0.0384521,0.0767822-0.0820313,0.1519165-0.1308594,0.2234497
			c-0.0175781,0.0296631-0.0367432,0.0559082-0.0577393,0.0838013c-0.0418701,0.0576172-0.0872803,0.1135254-0.1361084,0.1676025
			c-0.0192871,0.0227661-0.0384521,0.0436401-0.0594482,0.0664063c-0.0401611,0.0418701-0.0837402,0.0819702-0.1274414,0.1221313
			c-0.0330811,0.0296631-0.0698242,0.0611572-0.1064453,0.0873413c-0.3823242,0.2985229-0.8607178,0.4714355-1.3723145,0.4714355
			h-12.7644043c0.0469971-0.1309814,0.0906982-0.2619019,0.1291504-0.3963623l14.3392334-49.4848633l0.7280273-2.5106201
			l1.3985596-4.8257446c0.6251221-2.15448,0.3282471-4.4992676-0.8066406-6.4337158l-0.9671631-1.6464233
			c1.241333-0.1082764,2.5419922-0.1658936,3.9125977-0.1676025c4.3823242-0.0053101,7.8514404,0.4888306,10.6658936,1.3076782
			l1.5974121,2.7183838c0.0646973,0.1117554,0.1241455,0.2252197,0.1781006,0.3422241
			c0.0891113,0.1937866,0.1606445,0.3928833,0.2165527,0.5971069
			C1134.9099121,588.5547485,1134.9063721,589.2688599,1134.7089844,589.949707z"/>
		<path class="lst26" d="M1132.5965576,597.2407227l-0.7805176,2.6939697l-13.5710449,46.8363037
			c-0.0070801,0.0261841-0.0157471,0.0506592-0.0244141,0.0767822c-0.0018311,0.008728-0.005249,0.015686-0.0087891,0.0244751
			c-0.0140381,0.0436401-0.0296631,0.0890503-0.0488281,0.1309814c-0.006958,0.019165-0.0157471,0.0383301-0.0228271,0.0558472
			c-0.015625,0.0349121-0.0313721,0.0681152-0.0488281,0.1012573c-0.0384521,0.0767822-0.0820313,0.1519165-0.1308594,0.2234497
			c-0.0175781,0.0296631-0.0367432,0.0559082-0.0577393,0.0838013c-0.0418701,0.0576172-0.0872803,0.1135254-0.1361084,0.1676025
			c-0.0192871,0.0227661-0.0384521,0.0436401-0.0594482,0.0664063c-0.0401611,0.0418701-0.0837402,0.0819702-0.1274414,0.1221313
			c-0.0330811,0.0296631-0.0698242,0.0611572-0.1064453,0.0873413c-0.3823242,0.2985229-0.8607178,0.4714355-1.3723145,0.4714355
			h-12.7644043c0.0469971-0.1309814,0.0906982-0.2619019,0.1291504-0.3963623l14.3392334-49.4848633l0.7280273-2.5106201
			c2.8861084,0.9043579,6.1003418,1.4718018,9.8297119,1.4718018c1.0510254,0,2.1403809-0.0454102,3.2351074-0.1378784
			L1132.5965576,597.2407227z"/>
		<path class="lst27" d="M1131.81604,599.9346924l-12.8831787,44.461853l-0.6878662,2.3744507
			c-0.0070801,0.0261841-0.0157471,0.0506592-0.0244141,0.0767822c-0.0018311,0.008728-0.005249,0.015686-0.0087891,0.0244751
			c-0.0140381,0.0436401-0.0296631,0.0890503-0.0488281,0.1309814c-0.006958,0.019165-0.0157471,0.0383301-0.0228271,0.0558472
			c-0.015625,0.0349121-0.0313721,0.0681152-0.0488281,0.1012573c-0.0384521,0.0767822-0.0820313,0.1519165-0.1308594,0.2234497
			c-0.0175781,0.0296631-0.0367432,0.0559082-0.0577393,0.0838013c-0.0418701,0.0576172-0.0872803,0.1135254-0.1361084,0.1676025
			c-0.0192871,0.0227661-0.0384521,0.0436401-0.0594482,0.0664063c-0.0401611,0.0418701-0.0837402,0.0819702-0.1274414,0.1221313
			c-0.0330811,0.0296631-0.0698242,0.0611572-0.1064453,0.0873413c-0.3823242,0.2985229-0.8607178,0.4714355-1.3723145,0.4714355
			h-12.7644043c0.0469971-0.1309814,0.0906982-0.2619019,0.1291504-0.3963623l1.0405273-3.5895996l13.2987061-45.8952637
			C1121.7507324,599.7356567,1126.3041992,600.3938599,1131.81604,599.9346924z"/>
		<g>
			<polygon class="lst2" points="1114.9256592,560.6800537 1109.3945313,560.6922607 1100.6090088,560.7114868
				1098.9573975,560.7149658 1082.9525146,560.7412109 1082.9622803,555.567627 1115.7880859,555.5696411 			"/>
			<path class="lst3" d="M1114.565918,555.5950317l0.010498,5.133667l-1.6900635,0.0122681l-11.0551758,0.0193481
				c-0.5410156,0-0.9550781-0.7155151-0.9567871-1.4573975l-0.005249-2.2741089
				c-0.001709-0.8156738,0.4976807-1.4597778,1.1157227-1.4597778c0,0,9.4160156-0.0014038,9.4384766-0.0014038
				C1111.4233398,555.5788574,1114.565918,555.5950317,1114.565918,555.5950317z"/>
			<path class="lst4" d="M1117.5445557,560.7306519l-7.8007813,0.012207c-0.5168457,0-0.8905029-0.7227783-0.8922119-1.4246826
				l-0.005249-2.2819214c0-0.7803955,0.4605713-1.4665527,1.0579834-1.4665527c0.0192871,0,7.6297607-0.00177,7.6297607-0.00177
				L1117.5445557,560.7306519z"/>
		</g>
		<g>
			<path class="lst2" d="M1115.6297607,539.0400391v3.7816772c0,0.7996216-0.7856445,1.4543457-1.7458496,1.4543457h-27.1212158
				c-0.9603271,0-1.7459717-0.6547241-1.7459717-1.4543457v-3.7816772c0-0.8013916,0.7856445-1.4561157,1.7459717-1.4561157
				h27.1212158C1114.8441162,537.5839233,1115.6297607,538.2386475,1115.6297607,539.0400391z"/>
			<path class="lst4" d="M1115.6297607,539.0400391v3.7816772c0,0.7996216-0.7856445,1.4543457-1.7458496,1.4543457h-6.4829102
				c-0.9603271,0-1.7459717-0.6547241-1.7459717-1.4543457v-3.7816772c0-0.8013916,0.7856445-1.4561157,1.7459717-1.4561157
				h6.4829102C1114.8441162,537.5839233,1115.6297607,538.2386475,1115.6297607,539.0400391z"/>
			<path class="lst3" d="M1110.0430908,539.0394287v3.7816772c0,0.7996826-0.7856445,1.4544067-1.7458496,1.4544067h-7.8287354
				c0.9602051,0,1.7458496-0.6547241,1.7458496-1.4544067v-3.7816772c0-0.8013916-0.7856445-1.4561157-1.7458496-1.4561157
				h7.8287354C1109.2574463,537.583313,1110.0430908,538.2380371,1110.0430908,539.0394287z"/>
			<path class="lst5" d="M1122.1407471,552.7562866c0.001709,0.7507324-0.289917,1.4578247-0.8189697,1.9885864
				c-0.5289307,0.5308228-1.2342529,0.8240967-1.9851074,0.8258667h-40.1894531
				c-0.5185547,0-0.9654541-0.1344604-1.3287354-0.3735962c-0.2513428-0.1641235-0.4626465-0.3771973-0.630249-0.6303101
				c-0.314209-0.4678955-0.4801025-1.0684814-0.4818115-1.7337036l-0.0140381-9.0264282
				c-0.001709-0.7297974,0.2724609-1.4160156,0.7752686-1.9397583c0.013916-0.015686,0.027832-0.0314331,0.0435791-0.0471802
				c0.0227051-0.022644,0.0454102-0.0453491,0.0699463-0.0662842l0.0313721-0.0314941
				c0.5150146-0.4766235,1.1784668-0.7873535,1.8820801-0.7891235h39.9538574
				c1.5014648,0.0663452,2.6746826,1.2954712,2.6765137,2.796936L1122.1407471,552.7562866z"/>
			<path class="lst7" d="M1123.8857422,552.757019c0.001709,0.7507324-0.2897949,1.4578247-0.8188477,1.9885864
				s-1.234375,0.8240967-1.9851074,0.8258667h-18.4055176c0.0540771,0,0.1081543-0.00177,0.1623535-0.005249h0.006958
				c0.0540771-0.00354,0.1064453-0.007019,0.1588135-0.015686c0.0018311,0.001709,0.005249,0.001709,0.0070801,0
				c0.623291-0.0751343,1.2011719-0.3544922,1.6499023-0.8049316c0.5289307-0.5307617,0.8205566-1.237854,0.8188477-1.9885864
				l-0.0018311-1.4962769v-0.0139771l-0.010498-5.9152222v-0.015686l-0.001709-1.5853271
				c-0.001709-1.5014648-1.1767578-2.7305908-2.6782227-2.796936h18.4055176
				c1.5014648,0.0663452,2.6765137,1.2954712,2.6782227,2.796936L1123.8857422,552.757019z"/>
			<path class="lst6" d="M1112.6312256,552.7562866c0.001709,0.7507324-0.2897949,1.4578247-0.8188477,1.9885864
				c-0.5289307,0.5307617-1.2342529,0.8240967-1.9851074,0.8258057h-7.7557373
				c0.7507324-0.001709,1.4560547-0.2950439,1.9851074-0.8258057s0.8066406-1.237854,0.8049316-1.9885864v-9.0264282
				c-0.001709-1.5015259-1.1767578-2.7306519-2.6782227-2.7969971h7.7557373
				c1.5014648,0.0663452,2.6765137,1.2954712,2.6782227,2.7969971L1112.6312256,552.7562866z"/>
			<path class="lst8" d="M1117.7792969,550.0552979c0,0.6442871-0.5202637,1.1680908-1.1662598,1.1697998l-11.7501221,0.0227051
				l-3.7449951,0.005249h-0.4975586l-18.3951416,0.0297241c-0.6459961,0.001709-1.1679688-0.5203247-1.1696777-1.1663208
				l-0.005249-3.5948486c-0.0018311-0.6442871,0.5202637-1.1680298,1.1644287-1.1697998l16.3192139-0.0261841l2.5839844-0.003479
				l3.7449951-0.005249l11.7414551-0.0227051c0.4504395-0.001709,0.8415527,0.2531738,1.0352783,0.62677
				c0.0174561,0.0314331,0.0332031,0.0646362,0.0471191,0.0995483c0.0140381,0.0296631,0.0245361,0.0593262,0.0349121,0.0925293
				c0.0332031,0.1099854,0.0524902,0.2269897,0.0524902,0.3474731L1117.7792969,550.0552979z"/>
			<path class="lst9" d="M1117.7792969,550.0552979c0,0.6442871-0.5202637,1.1680908-1.1662598,1.1697998l-11.7512207,0.0227051
				l-0.0004883-5.9309082l11.743042-0.0227051c0.4504395-0.001709,0.8415527,0.2531738,1.0352783,0.62677
				c0.0174561,0.0314331,0.0332031,0.0646362,0.0471191,0.0995483c0.0140381,0.0296631,0.0245361,0.0593262,0.0349121,0.0925293
				c0.0332031,0.1099854,0.0524902,0.2269897,0.0524902,0.3474731L1117.7792969,550.0552979z"/>
		</g>
		<path class="lst27" d="M1118.9328613,644.3965454l-0.6878662,2.3744507
			c-0.2758789,0.9549561-1.1506348,1.6115112-2.144043,1.6115112h-31.6221924c-0.9934082,0-1.8681641-0.6565552-2.144043-1.6115112
			l-0.6878662-2.3744507H1118.9328613z"/>
		<path class="lst29" d="M1118.9328613,644.3965454l-0.6878662,2.3744507
			c-0.0070801,0.0261841-0.0157471,0.0506592-0.0244141,0.0767822c-0.0018311,0.008728-0.005249,0.015686-0.0087891,0.0244751
			c-0.0140381,0.0436401-0.0296631,0.0890503-0.0488281,0.1309814c-0.006958,0.019165-0.0157471,0.0383301-0.0228271,0.0558472
			c-0.015625,0.0349121-0.0313721,0.0681152-0.0488281,0.1012573c-0.0384521,0.0767822-0.0820313,0.1519165-0.1308594,0.2234497
			c-0.0175781,0.0296631-0.0367432,0.0559082-0.0577393,0.0838013c-0.0418701,0.0576172-0.0872803,0.1135254-0.1361084,0.1676025
			c-0.0192871,0.0227661-0.0384521,0.0436401-0.0594482,0.0664063c-0.0401611,0.0418701-0.0837402,0.0819702-0.1274414,0.1221313
			c-0.0330811,0.0296631-0.0698242,0.0611572-0.1064453,0.0873413c-0.3823242,0.2985229-0.8607178,0.4714355-1.3723145,0.4714355
			h-12.7644043c0.0469971-0.1309814,0.0906982-0.2619019,0.1291504-0.3963623l1.0405273-3.5895996H1118.9328613z"/>
		<path class="lst30" d="M1073.8527832,589.0952759L1073.8527832,589.0952759
			c1.3597412-0.3920288,2.7799072,0.3925171,3.1719971,1.7523193l9.6159668,33.3556519
			c0.3920898,1.3598022-0.3924561,2.7799072-1.7523193,3.171936l0,0c-1.3597412,0.3920288-2.7799072-0.3925171-3.1719971-1.7523193
			l-9.6159668-33.3556519C1071.708374,590.9074097,1072.4929199,589.4873047,1073.8527832,589.0952759z"/>
		<path class="lst30" d="M1088.7702637,631.6004639l1.84729,6.4056396c0.3912354,1.3591309-0.3929443,2.7788696-1.7536621,3.1708374
			c-1.2572021,0.3630981-2.5665283-0.2821655-3.0668945-1.4562378c-0.019165-0.0449829-0.0367432-0.0906372-0.0527344-0.1370239
			l-0.003418-0.0079956l-1.8547363-6.4365845c-0.3919678-1.3607788,0.3922119-2.7805176,1.7529297-3.1724854
			C1086.9575195,629.5869141,1088.3338623,630.3136597,1088.7702637,631.6004639z"/>
		<circle class="lst27" cx="1106.9686279" cy="607.135498" r="5.5869699"/>
		<circle class="lst27" cx="1111.9736328" cy="619.3569946" r="3.7246466"/>
		<circle class="lst27" cx="1103.6513672" cy="626.0497437" r="2.211509"/>
	</g>
	<path class="lst17" d="M1138.095459,584.7312012l-12.0487061-20.5094604
		c-1.2832031-2.1858521-3.6560059-3.5424805-6.1893311-3.5424805h-2.3129883l-0.010376-5.1077881h3.5477295
		c0.7507324-0.00177,1.4560547-0.2950439,1.9851074-0.8258667c0.5290527-0.5307617,0.8205566-1.237854,0.8188477-1.9885864
		l-0.013916-9.0264893c-0.0018311-1.5015259-1.1768799-2.7305908-2.6782227-2.796936h-1.7373047
		c-0.0026855-0.0001221-0.005249-0.0006104-0.0078125-0.0007324h-3.8187256v-1.8928833
		c0-0.8013306-0.7856445-1.4560547-1.7458496-1.4560547h-5.5727539c-0.0047607,0-0.0092773-0.0006104-0.013916-0.0006104h-7.8287354
		c0.0046387,0,0.0091553,0.0006104,0.013916,0.0006104h-13.7197266c-0.9603271,0-1.7459717,0.6547241-1.7459717,1.4560547v1.8928833
		h-5.5220947c-0.7036133,0.00177-1.3670654,0.3125-1.8820801,0.7891846l-0.0313721,0.0314331
		c-0.0245361,0.0209351-0.0472412,0.0436401-0.0699463,0.0662842c-0.0157471,0.0157471-0.0296631,0.0314941-0.0435791,0.0471802
		c-0.5029297,0.5237427-0.7769775,1.2099609-0.7751465,1.9397583l0.013916,9.0264282
		c0.001709,0.6651611,0.1676025,1.2658081,0.4819336,1.7337036c0.1674805,0.2531128,0.3787842,0.4661865,0.630249,0.630249
		c0.3630371,0.2391968,0.8100586,0.3736572,1.3286133,0.3736572h3.8151855l-0.0097656,5.1085205h-2.2319336
		c-2.5333252,0-4.9060059,1.3583374-6.189209,3.5424805l-12.0487061,20.5094604
		c-1.1365967,1.9344482-1.4299316,4.2792358-0.8066406,6.4337158l16.4641113,56.821228
		c0.8135986,2.8039551,3.4185791,4.7611694,6.3376465,4.7611694h12.649292h7.9736328h10.9993896
		c2.9191895,0,5.5241699-1.9572144,6.3377686-4.7611694l16.4641113-56.821228
		C1139.5253906,589.010437,1139.2320557,586.6656494,1138.095459,584.7312012z"/>
</g>
</svg>
