<?xml version="1.0" encoding="utf-8"?>
<!-- Generator: Adobe Illustrator 22.1.0, SVG Export Plug-In . SVG Version: 6.00 Build 0)  -->
<svg version="1.1" id="Layer_1" xmlns="http://www.w3.org/2000/svg" xmlns:xlink="http://www.w3.org/1999/xlink" x="0px" y="0px"
	 viewBox="0 0 600 600" style="enable-background:new 0 0 600 600;" xml:space="preserve">
<style type="text/css">
	.st0{fill:#0000FF;}
	.st1{fill:#F3F7DE;}
	.st2{fill:#C4E5DC;}
	.st3{fill:#DDEEDB;}
	.st4{fill:#AADCD9;}
	.st5{fill:#9ED3D7;}
	.st6{fill:#D6EBD4;}
	.st7{fill:#B8E0D5;}
	.st8{fill:#F1F5D7;}
	.st9{fill:#313177;}
	.st10{fill:#232360;}
	.st11{fill:#444484;}
	.st12{fill:#1E1E5E;}
	.st13{fill:#1C1C51;}
	.st14{opacity:0.4;fill:#FFFFFF;mix-blend-mode:soft-light;}
</style>
<g>
	<path class="st0" d="M366.9746399,134.2386169h-0.4997864v-0.0697937
		C366.6447144,134.1785889,366.8043213,134.1985931,366.9746399,134.2386169z"/>
	<g>
		<path class="st1" d="M445.0643616,118.2630615c0.0100098,4.2982712-1.6594849,8.3466568-4.6882629,11.385437
			c-3.0285339,3.0386658-7.0668945,4.7180328-11.3651733,4.7280273H168.9282379
			c-8.836441,0-13.9544373-6.8272552-13.9742126-15.673584l-0.0800476-51.6786346
			c-0.0099945-4.2982788,1.6592255-8.3365326,4.6880188-11.3753166c3.0287781-3.0387878,7.0571442-5.0679779,11.355423-5.0779839
			h258.7331238c8.5965576,0.3799706,15.323761,7.4169846,15.3337708,16.0134125L445.0643616,118.2630615z"/>
		<path class="st2" d="M445.0643616,118.2630615c0.0100098,4.2982712-1.6594849,8.3466568-4.6882629,11.385437
			c-3.0285339,3.0386658-7.0668945,4.7180328-11.3651733,4.7280273h-115.372345
			c4.2982788-0.0099945,8.3363953-1.6893616,11.3651733-4.7280273c3.0288086-3.0387802,4.6980286-7.0871658,4.6880188-11.385437
			l-0.0097656-8.5664139l-0.0600281-33.945961l-0.0100098-9.1662674
			c-0.0100098-8.5964279-6.7372131-15.6334419-15.3337708-16.0134125h115.372345
			c8.5965576,0.3799706,15.323761,7.4169846,15.3337708,16.0134125L445.0643616,118.2630615z"/>
		<path class="st3" d="M372.8218384,118.2645569c0.0102539,4.2982788-1.6589661,8.3366547-4.6879883,11.3754425
			c-3.0285339,3.0487823-7.066925,4.7180176-11.3649597,4.7280273H244.1249237
			c-4.2980194-0.0100098-8.3363953-1.679245-11.3654175-4.7280273c-3.0285492-3.0387878-4.6977692-7.0771637-4.6875305-11.3754425
			l0.0795593-51.6786346c0.0102539-8.5963097,6.7374573-15.6434517,15.3340149-16.0234222h113.9227448
			c8.5965576,0.3799706,15.323761,7.4271126,15.3335266,16.0234222L372.8218384,118.2645569z"/>
		<path class="st4" d="M420.1032104,102.8023987c0,0.4597702-0.0497742,0.9097824-0.1400757,1.3495407
			c-0.6193848,3.0387802-3.2984314,5.3376389-6.5368652,5.3478928h-0.4299927l-40.2333984,0.0600281l-68.0417786,0.0995712
			h-2.8489075l-73.7396088,0.1103058l-41.5731964,0.0600357c-3.6981812,0.009758-6.6866913-2.9787521-6.6969452-6.6774216
			l-0.0297699-20.5813599c-0.0102386-3.6889038,2.9782715-7.0171204,6.6671753-7.0273743h226.8761597
			c2.2490845-0.009758,4.2384949,1.0996475,5.447937,2.7991409c0,0,0.0097656,0.009758,0.0097656,0.0200119
			c0.1801147,0.2498932,0.3299561,0.499794,0.4700317,0.7692108c0.1000671,0.1801071,0.1898499,0.3699646,0.2698975,0.570076
			c0.0800476,0.1698532,0.1395874,0.3397064,0.2001343,0.5295715c0.0995483,0.3201752,0.1698303,0.6398697,0.219635,0.9698105
			c0.0497742,0.3299484,0.0800476,0.6696472,0.0800476,1.0195999L420.1032104,102.8023987z"/>
		<path class="st5" d="M420.1026611,102.8009644c0,0.4600143-0.050293,0.9095383-0.1401062,1.3495407
			c-0.6496277,3.0387878-3.4385071,5.3378906-6.807251,5.3476486h-0.1595764l-40.233429,0.0600357V75.6022186l40.6131287-0.0600281
			c2.2490845-0.0100098,4.2380066,1.0996399,5.4474792,2.7988892c0,0,0.0102539,0.0100098,0.0102539,0.0200119
			c0.1600952,0.2699127,0.309906,0.5298157,0.4397583,0.7697067c0.1000366,0.1798553,0.1996155,0.3699646,0.2796631,0.5698318
			c0.0800476,0.1698532,0.1503296,0.3397064,0.2098694,0.529808c0.1000671,0.3196945,0.1801147,0.6396332,0.2303772,0.969574
			c0.0497742,0.3296967,0.0795593,0.6696472,0.0795593,1.0193558L420.1026611,102.8009644z"/>
		<path class="st2" d="M228.1325836,75.5436172v34.22612l-41.5731964,0.0600357
			c-3.6981812,0.009758-6.6866913-2.9787521-6.6969452-6.6774216l-0.0297699-20.5813599
			c-0.0102386-3.6889038,2.9782715-7.0171204,6.6671753-7.0273743H228.1325836z"/>
	</g>
	<polygon class="st6" points="361.8300171,134.3833466 361.8300171,179.1148987 237.5479584,179.1199188 237.5479584,134.3883667
		304.1612549,134.2784271 	"/>
	<path class="st7" d="M401.3137512,191.005249l-45.4414368-0.0134888c-2.6905212-0.0008087-4.8711548-2.1821136-4.8711548-4.8726044
		v-46.6645813c0-2.811615,2.2745667-5.0933533,5.0861816-5.1022186l24.2879944-0.0639496l20.9051208,0.0949402v0.1599579
		L401.3137512,191.005249z"/>
	<path class="st8" d="M244.7295532,192.4808655h-46.3321228V134.365387h46.3321228
		c2.8391724,0,5.1407776,2.3016052,5.1407776,5.1407776v47.8339233
		C249.8703308,190.1792603,247.5687256,192.4808655,244.7295532,192.4808655z"/>
	<path class="st3" d="M541.152832,256.3881836l-63.29422,274.0071411
		c-2.57901,11.1352539-12.4948425,19.0221558-23.9198303,19.0221558H146.005722
		c-11.4352264,0-21.3515396-7.8869019-23.9203033-19.0221558L58.7916946,256.3881836
		c-2.7791252-12.0050507,3.6483994-24.2299957,15.1133957-28.7481384l205.7754822-71.120575
		c11.4049683-4.4981537,23.9398499-5.0579681,35.6249695-1.6892395l0.1102905,0.0297699
		c1.6389771,0.4800262,3.2486572,1.0298462,4.8476257,1.6594696l205.7652283,71.120575
		C537.4942017,232.1581879,543.9212036,244.3831329,541.152832,256.3881836z"/>
	<path class="st2" d="M383.397583,525.2973022l-1.1792297,5.0980225c-0.1800842,0.7597046-0.380188,1.4993896-0.6300964,2.2190552
		L383.397583,525.2973022z"/>
	<path class="st1" d="M242.1257477,549.4174805L208.6195526,549.4375v-0.0200195H146.005722
		c-11.4254608,0-21.3412933-7.8869019-23.9203033-19.0221558L58.7916946,256.3881836
		c-2.7688751-12.0050507,3.6581612-24.2299957,15.1236496-28.7481384l144.300354-49.869339l31.3371735-10.8356171
		c-9.8758087,3.5585938-16.3331146,12.9946442-16.2232971,23.3504791c0,0.7696991,0.0497894,1.5294037,0.129837,2.3088684
		l0.5495758,5.1980438l0.070282,0.7797089l-7.7770691,2.6688232L89.7086334,248.2316437
		c-3.8280106,1.5093842-5.9672623,5.5875397-5.0477219,9.5858917l5.9575043,25.8094177l0.2098694,0.8997803l3.1886292,13.7643433
		l0.2001114,0.8795166l16.2633133,70.4011536l2.3989105,10.3855896l1.0596237,4.6082153l2.3388824,10.0957031
		l28.4882507,123.3389893c0.869751,3.758728,4.2184753,6.4275513,8.0869904,6.4275513h63.9633636l0.2098846,0.8695068
		l1.1796875,5.0980225c0.1796112,0.7496948,0.3699646,1.4793701,0.6198578,2.1890259
		c0,0.0100098,0.0097656,0.0200195,0.0097656,0.0300293C222.1340027,542.5601807,231.4802399,549.4174805,242.1257477,549.4174805z"
		/>
	<path class="st2" d="M541.2123413,256.3881836l-63.2937012,274.0071411
		c-2.57901,11.1352539-12.4948425,19.0221558-23.9203186,19.0221558h-62.1940613V549.4375l-33.5061951-0.0200195
		c10.6455078,0,19.9917603-6.8572998,23.2901917-16.8031006c0.2499084-0.7196655,0.4500122-1.4593506,0.6300964-2.2190552
		l1.1792297-5.0980225l0.2098694-0.8695068h63.5440979c3.868042,0,7.2167358-2.6688232,8.0865173-6.4275513l28.4882507-123.3389893
		l2.3388672-10.0957031l1.0596313-4.6082153l2.3988953-10.3855896l16.2633362-70.4011536l0.2001038-0.8795166l3.1886292-13.7643433
		l0.2098694-0.8997803l5.957489-25.8094177c0.9195557-3.9983521-1.2192383-8.0765076-5.047699-9.5858917L374.2914734,201.450882
		l-0.3001709-0.0998077l-7.4866638-2.57901l0.0697937-0.7296753l0.5500488-5.1980591
		c0.0795593-0.7794647,0.1298523-1.5391541,0.1298523-2.3088684c0.0697937-6.5073242-2.4589539-12.6546936-6.7974854-17.2028656
		c-0.3094482-0.3399353-0.6394043-0.6598816-0.9790955-0.9798126c-1.8796082-1.8190765-4.0583801-3.3484802-6.4875793-4.4981537
		l22.6508179,7.7868347l6.447052,2.2290649l0.3001709,0.1000519l143.700531,49.6694641
		C537.5541992,232.1581879,543.9812622,244.3831329,541.2123413,256.3881836z"/>
	<path class="st1" d="M218.8257904,532.5843506c-0.2498932-0.7096558-0.4402466-1.4393311-0.6198578-2.1890259l-1.1796875-5.0980225
		L218.8257904,532.5843506z"/>
	<path class="st4" d="M515.1732788,257.8175354l-5.957489,25.8094177l-0.2098694,0.8997803l-3.1886292,13.7643433
		l-0.2001038,0.8795166l-16.2633057,70.4011536l-2.3989258,10.3855896l-1.0596313,4.6082153l-2.3388672,10.0957031
		l-28.4882507,123.3389893c-0.869751,3.758728-4.2184753,6.4275513-8.0865173,6.4275513H152.9525757
		c-3.8582764,0-7.2167511-2.6688232-8.0865173-6.4275513l-28.8782272-125.0082397l-1.8093109-7.8268433l-1.5691757-6.807251
		l-1.8590927-8.056488l-17.612854-76.2185669l-0.1400833-0.5998535L89.7589035,279.46875l-0.1400757-0.5998535
		l-4.8578644-21.0513611c-0.9195404-3.9983521,1.2294769-8.0765076,5.0477295-9.5858917l199.0380249-68.4617615
		c3.5585938-1.3995667,7.296814-2.1092377,11.1253052-2.1092377c3.8187256,0,7.5671997,0.709671,11.1253052,2.1092377
		l199.0282593,68.4617615C513.9541016,249.7410278,516.0928345,253.8191833,515.1732788,257.8175354z"/>
	<path class="st5" d="M515.1732788,257.8175354l-5.957489,25.8094177l-0.2098694,0.8997803l-3.1886292,13.7643433
		l-0.2001038,0.8795166l-16.2633057,70.4011536l-2.3989258,10.3855896l-1.0596313,4.6082153l-2.3388672,10.0957031
		l-28.4882507,123.3389893c-0.869751,3.758728-4.2184753,6.4275513-8.0865173,6.4275513h-63.3742371L452.249054,228.319931
		l57.8765259,19.9117126C513.9541016,249.7410278,516.0928345,253.8191833,515.1732788,257.8175354z"/>
	<path class="st5" d="M515.1732788,257.8175354l-5.957489,25.8094177l-0.2098694,0.8997803l-3.1886292,13.7643433
		l-0.2001038,0.8795166l-16.2633057,70.4011536l-2.3989258,10.3855896l-1.0596313,4.6082153l-2.3388672,10.0957031
		l-28.4882507,123.3389893c-0.3797302,1.6494751-1.2294617,3.0788574-2.3994141,4.1784668
		c-1.4993591,1.4093628-3.5083008,2.2490845-5.6773376,2.2490845h-63.3840027l33.5662231-144.8003845l3.3887329-14.6238708
		L438.125,289.2547607l3.4785461-14.9938049l10.6455078-45.9410248l57.8765259,19.9117126
		C513.9541016,249.7410278,516.0928345,253.8191833,515.1732788,257.8175354z"/>
	<path class="st2" d="M84.7548065,257.8175354l5.9575043,25.8094177l0.209877,0.8997803l3.1886292,13.7643433l0.2001114,0.8795166
		l16.2633133,70.4011536l2.3989105,10.3855896l1.0596237,4.6082153l2.3388748,10.0957031l28.4882584,123.3389893
		c0.869751,3.758728,4.2184753,6.4275513,8.0865021,6.4275513h63.3742523L147.6790466,228.319931l-57.8765182,19.9117126
		C85.9740295,249.7410278,83.8352661,253.8191833,84.7548065,257.8175354z"/>
	<path class="st9" d="M509.2157898,283.6269531l-0.2098694,0.8997803l-3.1886292,13.7643433l-0.2001038,0.8795166
		l-16.2633057,70.4011536l-2.3989258,10.3855896l-1.0596313,4.6082153l-2.3388672,10.0957031l-28.4882507,123.3389893
		c-0.869751,3.758728-4.2184753,6.4275513-8.0865173,6.4275513H152.9525757c-3.8582764,0-7.2167511-2.6688232-8.0865173-6.4275513
		l-28.8782272-125.0082397l-1.8093109-7.8268433l-1.5691757-6.807251l-1.8590927-8.056488
		c88.8530045-3.3687439,135.2440186-28.2085876,180.1054077-52.2387085c3.8387451-2.05896,7.6472473-4.098175,11.4454651-6.1073608
		l3.2886963-1.7392578h0.0200195c0.9297791-0.4797974,1.8591003-0.969574,2.7786255-1.4493713
		c5.7979126-3.0087585,11.0057373-5.6177979,15.9333801-7.9468994
		c27.4588928-13.0844421,62.6045532-26.4788208,114.8925476-26.5688782h0.579834
		C466.7333069,274.250946,489.473938,277.3197327,509.2157898,283.6269531z"/>
	<path class="st10" d="M505.8172913,298.2910767l-0.2001038,0.8795166l-16.2633057,70.4011536l-2.3989258,10.3855896
		l-1.0596313,4.6082153l-2.3388672,10.0957031l-28.4882507,123.3389893c-0.869751,3.758728-4.2184753,6.4275513-8.0865173,6.4275513
		H152.9525757c-3.8582764,0-7.2167511-2.6688232-8.0865173-6.4275513l-28.8782272-125.0082397l-1.8093109-7.8268433
		c98.1997299-4.2582397,147.0594482-34.5558167,195.1294861-59.9552612h0.0102539
		c1.999176-1.0496216,3.9880981-2.0992126,5.9775085-3.1288147c5.1180115-2.658844,10.2555237-5.2478638,15.4535828-7.7268066
		c30.0178833-14.2939148,62.4342041-25.0297241,108.4953003-25.1095276
		C467.1628418,289.2047424,488.6940002,292.663269,505.8172913,298.2910767z"/>
	<path class="st11" d="M489.3538818,369.5717468l-2.3989258,10.3855896l-1.0596313,4.6082153l-2.3388672,10.0957031
		l-28.4882507,123.3389893c-0.869751,3.758728-4.2184753,6.4275513-8.0865173,6.4275513H152.9525757
		c-3.8582764,0-7.2167511-2.6688232-8.0865173-6.4275513l-28.8782272-125.0082397l-3.3784866-14.6340942l-19.4719467-84.2750549
		l-0.1400833-0.5998535L89.7589035,279.46875l-0.1400757-0.5998535c15.0235901-3.0285339,32.0668488-4.5779419,50.6890488-4.6179504
		h0.4500122c52.3680573,0,87.723587,13.444397,115.3923492,26.5991211c3.0588074,1.4593811,6.2474365,3.0185547,9.7557373,4.777832
		c2.049469,1.0396118,4.068634,2.0692139,6.0975952,3.1088257c5.6275635,2.9087219,11.315155,5.9274902,16.8031311,8.8461914
		c47.9401855,25.4797363,97.4998169,51.8187256,198.1082458,51.9888306H489.3538818z"/>
	<path class="st9" d="M485.8953247,384.5655518l-2.3388672,10.0957031l-24.8398438,107.5457153l-3.648407,15.7932739
		c-0.869751,3.758728-4.2184753,6.4275513-8.0865173,6.4275513H152.9525757c-3.8582764,0-7.2167511-2.6688232-8.0865173-6.4275513
		l-3.6483917-15.7932739l-25.2298355-109.2149658l-3.3784866-14.6340942l-19.4719467-84.2750549l-0.1400833-0.5998535
		c13.3943787-2.6688232,28.9880447-4.1982117,47.3403473-4.2382507
		c46.4710693-0.0600281,79.0977478,10.7555847,109.3752899,25.1395569c3.1686249,1.5193787,6.3172302,3.0587769,9.4560547,4.6382141
		c1.999176,1.0095825,3.978363,2.0291748,5.9775391,3.0585632
		C318.2642822,349.4799194,370.1730347,384.1755676,485.8953247,384.5655518z"/>
	<path class="st12" d="M509.2255554,283.6269531l-0.2098694,0.8997803l-3.1886292,13.7643433l-0.1996155,0.8795166
		l-16.2633057,70.4011536l-2.3989258,10.3855896l-1.0601196,4.6082153l-2.3388672,10.0957031l-28.4882507,123.3389893
		c-0.3894958,1.6494751-1.2392273,3.0888672-2.4091797,4.1784668c-1.4993591,1.4093628-3.5083008,2.2490845-5.6773376,2.2490845
		h-63.3840027l33.5662231-144.8003845l3.3887329-14.6238708L438.125,289.2547607l3.4785461-14.9938049
		c26.1493835,0.1298218,48.3101501,3.1986389,67.6122437,9.3659973H509.2255554z"/>
	<path class="st13" d="M505.8270569,298.2910767l-0.1996155,0.8795166l-16.2633057,70.4011536l-2.3989258,10.3855896
		l-1.0601196,4.6082153l-2.3388672,10.0957031l-28.4882507,123.3389893
		c-0.3894958,1.6494751-1.2392273,3.0888672-2.4091797,4.1784668c-1.4993591,1.4093628-3.5083008,2.2490845-5.6773376,2.2490845
		h-63.3840027l33.5662231-144.8003845l3.3887329-14.6238708L438.125,289.2547607
		c0.3797302-0.0100098,0.7496948-0.0100098,1.129425-0.0100098c27.9084167-0.0400085,49.4395752,3.4185181,66.5628662,9.0463257
		H505.8270569z"/>
	<path class="st9" d="M489.3641357,369.5717468l-2.3989258,10.3855896l-1.0601196,4.6082153l-2.3388672,10.0957031
		l-28.4882507,123.3389893c-0.3894958,1.6494751-1.2392273,3.0888672-2.4091797,4.1784668
		c-1.4993591,1.4093628-3.5083008,2.2490845-5.6773376,2.2490845h-63.3840027l33.5662231-144.8003845l3.3887329-14.6238708
		c19.4719543,2.8687134,41.3330688,4.5281677,66.3627625,4.5682068H489.3641357z"/>
	<path class="st10" d="M485.9050903,384.5655518l-2.3388672,10.0957031l-24.8393555,107.5457153l-3.6488953,15.7932739
		c-0.3894958,1.6494751-1.2392273,3.0888672-2.4091797,4.1784668c-1.4993591,1.4093628-3.5083008,2.2490845-5.6773376,2.2490845
		h-63.3840027l5.1482544-22.2208252l28.4179688-122.5795593c20.2016296,3.0487976,42.872467,4.8480835,68.7216492,4.9381409
		H485.9050903z"/>
	<circle class="st10" cx="169.3159332" cy="345.9413452" r="25.3228893"/>
	<circle class="st10" cx="212.4648132" cy="380.427124" r="13.1612387"/>
	<circle class="st10" cx="205.3923492" cy="468.3164673" r="13.1612387"/>
	<circle class="st10" cx="401.7926331" cy="446.1269836" r="25.3228893"/>
	<circle class="st10" cx="356.0834351" cy="415.1146545" r="13.1612387"/>
	<circle class="st10" cx="324.4829407" cy="451.1776428" r="7.3303103"/>
	<circle class="st10" cx="176.2384033" cy="480.2303162" r="7.3303103"/>
	<path class="st10" d="M458.7166138,502.2069702l-3.648407,15.7932739c-0.869751,3.758728-4.2184753,6.4275513-8.0865173,6.4275513
		H152.9525757c-3.8582764,0-7.2167511-2.6688232-8.0865173-6.4275513l-3.6483917-15.7932739H458.7166138z"/>
	<path class="st13" d="M458.7268677,502.2069702l-3.6488953,15.7932739
		c-0.3894958,1.6494751-1.2392273,3.0888672-2.4091797,4.1784668c-1.4993591,1.4093628-3.5083008,2.2490845-5.6773376,2.2490845
		h-63.3840027l5.1482544-22.2208252H458.7268677z"/>
	<path class="st14" d="M238.9371338,248.8615112c0,6.087326-3.8084869,11.7749329-9.8958282,13.8641663l-74.105957,25.4378662
		c-1.4053345,0.4839172-2.2184448,1.9508667-1.8840637,3.3991089l24.2613525,102.2588501
		c1.8195648,7.8868713-3.0988159,15.7635193-10.9954681,17.5928345c-7.896637,1.8193359-15.7732697-3.0988159-17.5928345-10.9954529
		l-25.8748856-109.2702637c-2.7922592-12.0939331,3.9979706-24.3440552,15.7338181-28.3850708l80.9019165-27.7764435
		c7.6667633-2.6388092,16.0134277,1.4293365,18.6524658,9.0960999
		C238.6872253,245.6626282,238.9371338,247.2720795,238.9371338,248.8615112z"/>
	<path class="st14" d="M161.3106842,449.1593628l-1.8985291-8.3163452
		c-1.1332245-5.0749207,0.5249939-10.4268494,4.3522949-13.9585571c1.8806458-1.7354126,4.1927948-2.9442139,6.6913147-3.5087585
		c7.8594513-1.7710876,15.696228,3.1841431,17.4673157,11.0436096l1.8843994,8.3154602
		c1.1473694,5.07547-0.5174713,10.4202271-4.3447723,13.9519348c-1.8806458,1.7354126-4.1927948,2.9442139-6.6913147,3.5087585
		c-3.8049164,0.8588562-7.7180328,0.1851501-11.0154572-1.8995056
		C164.4583435,456.2111206,162.1693878,452.9641113,161.3106842,449.1593628z"/>
	<path class="st2" d="M375.6409912,175.6414642l-22.6508179-7.7868347
		c-0.1098022-0.0497742-0.2298584-0.1098175-0.3396912-0.1598358L375.6409912,175.6414642z"/>
	<polygon class="st1" points="249.5528717,166.9350891 218.2156982,177.7707062 218.1956787,177.7106781 	"/>
	<path class="st2" d="M352.9901733,167.8546295c2.4291992,1.1496735,4.6079712,2.6790771,6.4875793,4.4981537
		c-1.9093628-1.7890625-4.1184387-3.2884369-6.5773621-4.4080963c-0.6101074-0.2799072-1.2294922-0.5298157-1.8693542-0.7596893
		L352.9901733,167.8546295z"/>
	<polygon class="st2" points="382.3882141,177.9605713 382.3882141,177.9705811 382.0880432,177.8705292 375.6409912,175.6414642
		"/>
</g>
</svg>
