<?xml version="1.0" encoding="utf-8"?>
<!-- Generator: Adobe Illustrator 22.1.0, SVG Export Plug-In . SVG Version: 6.00 Build 0)  -->
<svg version="1.1" id="Layer_1" xmlns="http://www.w3.org/2000/svg" xmlns:xlink="http://www.w3.org/1999/xlink" x="0px" y="0px"
	 viewBox="0 0 600 600" style="enable-background:new 0 0 600 600;" xml:space="preserve">
<style type="text/css">
	.st0{fill:#F1F5D7;}
	.st1{fill:#B8E0D5;}
	.st2{fill:#D6EBD4;}
	.st3{fill:#F3F7DE;}
	.st4{fill:#C4E5DC;}
	.st5{fill:#DDEEDB;}
	.st6{fill:#AADCD9;}
	.st7{fill:#9ED3D7;}
	.st8{fill:#B4E548;}
	.st9{fill:#9FC634;}
	.st10{fill:#D1EF62;}
	.st11{fill:#8EAB22;}
	.st12{opacity:0.5;fill:#FFFFFF;mix-blend-mode:soft-light;}
</style>
<g>
	<path class="st0" d="M382.775177,9.1222429v20.4452934c0,4.323101-4.2476196,7.862793-9.4391785,7.862793H226.7079468
		c-5.1915588,0-9.4391785-3.5396919-9.4391785-7.862793V9.1222429c0-4.332551,4.2476196-7.8722429,9.4391785-7.8722429h146.6280518
		C378.5275574,1.25,382.775177,4.7896919,382.775177,9.1222429z"/>
	<path class="st1" d="M382.775177,9.1222429v20.4452934c0,4.323101-4.2476196,7.862793-9.4391785,7.862793h-97.855896
		c-5.1915588,0-9.4391785-3.5396919-9.4391785-7.862793V9.1222429c0-4.332551,4.2476196-7.8722429,9.4391785-7.8722429h97.855896
		C378.5275574,1.25,382.775177,4.7896919,382.775177,9.1222429z"/>
	<path class="st2" d="M346.9062805,9.1222429v20.4452934c0,4.323101-4.2476196,7.862793-9.4391785,7.862793h-75.2018433
		c-5.1915588,0-9.4391785-3.5396919-9.4391785-7.862793V9.1222429c0-4.332551,4.2476196-7.8722429,9.4391785-7.8722429h75.2018433
		C342.6586609,1.25,346.9062805,4.7896919,346.9062805,9.1222429z"/>
	<path class="st3" d="M453.2451477,174.9686279l-66.5462036,410.1228638
		C385.4148865,592.9638062,378.6189575,598.75,370.6426697,598.75H229.3571014
		c-0.7173767,0-1.4158783-0.0471802-2.1143646-0.1416016c-7.032135-0.9155884-12.7712402-6.3525391-13.9416809-13.5169067
		l-66.5462036-410.1228638c-3.5397034-21.7950439,13.2904358-41.5701294,35.3685608-41.5701294h235.7529297
		C439.9547119,133.3984985,456.7848511,153.173584,453.2451477,174.9686279z"/>
	<path class="st4" d="M453.2451477,174.9686279l-66.5462036,410.1228638
		C385.4148865,592.9638062,378.6189575,598.75,370.6426697,598.75H296.686615c-0.7171631,0-1.4158936-0.0471802-2.1141357-0.1416016
		c-7.0323792-0.9155884-12.7712402-6.3525391-13.9416809-13.5169067l-66.5462189-410.1228638
		c-3.5396881-21.7950439,13.2904358-41.5701294,35.368576-41.5701294h168.4231873
		C439.9547119,133.3984985,456.7848511,153.173584,453.2451477,174.9686279z"/>
	<path class="st5" d="M385.2830811,174.9686279l-66.5462341,410.1228638
		C317.4527893,592.9638062,310.6568604,598.75,302.6805725,598.75h-5.9939575c-0.7171631,0-1.4158936-0.0471802-2.1141357-0.1416016
		c-7.0323792-0.9155884-12.7712402-6.3525391-13.9416809-13.5169067l-66.5462189-410.1228638
		c-3.5396881-21.7950439,13.2904358-41.5701294,35.368576-41.5701294h100.4611206
		C371.9926453,133.3984985,388.8227539,153.173584,385.2830811,174.9686279z"/>
	<path class="st6" d="M429.9679871,171.1929474L365.3096313,569.630127
		c-0.4908752,3.0110474-2.9732666,5.2670288-5.984314,5.4935913c-0.1700745,0.0188599-0.3401184,0.0283203-0.5097351,0.0283203
		H241.2033234c-0.1981964,0-0.4058228-0.0094604-0.5945587-0.0283203c-2.964035-0.2642822-5.4088593-2.5108032-5.8994904-5.4935913
		l-64.658371-398.4371948c-0.7835236-4.861145,1.3969727-8.278183,2.7656097-9.8922424
		c1.3686371-1.6046753,4.3985748-4.3042603,9.3163605-4.3042603h235.7531433c4.9177856,0,7.9477234,2.699585,9.3161316,4.3042603
		C428.5710144,162.9147644,430.7515259,166.3318024,429.9679871,171.1929474z"/>
	<path class="st4" d="M279.0167236,575.1520386h-37.8134003c-0.1981964,0-0.4058228-0.0094604-0.5945587-0.0283203
		c-2.964035-0.2642822-5.4088593-2.5108032-5.8994904-5.4935913l-45.8839417-282.7128296l-2.274765-14.0266418
		l-5.8430328-36.0198822l-2.3125458-14.2248535l-8.3440857-51.4529724c-0.7835236-4.861145,1.3969727-8.278183,2.7656097-9.8922424
		c1.3686371-1.6046753,4.3985748-4.3042603,9.3163605-4.3042603h33.6224518
		c-2.0106659,5.5407867-2.6902466,11.6668091-1.6707458,17.9721832L279.0167236,575.1520386z"/>
	<path class="st7" d="M429.9679871,171.1929474l-8.3537598,51.4718628l-8.1555786,50.2352753l-2.2745361,14.0266113
		L365.3096313,569.630127c-0.4908752,3.0110474-2.9732666,5.2670288-5.984314,5.4935913
		c-0.1700745,0.0188599-0.3401184,0.0283203-0.5097351,0.0283203h-38.4743347l64.9321289-400.1834106
		c1.0195313-6.3053741,0.3396912-12.4313965-1.6707458-17.9721832h34.2833862c4.9177856,0,7.9477234,2.699585,9.3161316,4.3042603
		C428.5710144,162.9147644,430.7515259,166.3318024,429.9679871,171.1929474z"/>
	<path class="st4" d="M417.9708252,76.0247803c0.0092163,4.0588379-1.5670471,7.881752-4.4269104,10.7512436
		c-2.7750549,2.775116-6.4373474,4.3514404-10.3549805,4.4553223c-0.1225891,0.0093842-0.2548828,0.0093842-0.3774719,0.0093842
		h-207.841217c-8.3443146,0-13.177063-6.4469147-13.1959534-14.800621L181.6987,37.0787239
		c-0.0094452-4.0588379,1.5670471-7.8722439,4.4269257-10.7417336c2.8600922-2.8695469,6.6641083-4.7856693,10.7230072-4.7951183
		h206.5670776c8.1173096,0.3586922,14.4703064,7.0038548,14.4795227,15.1215229L417.9708252,76.0247803z"/>
	<path class="st3" d="M365.1114502,76.0271454c0.0092163,4.0588379-1.5670776,7.8817444-4.4269409,10.751236
		c-2.7750549,2.7751236-6.4373474,4.3514481-10.3549805,4.4552689c-0.1225891,0.0094452-0.2548828,0.0094452-0.3774719,0.0094452
		H194.9702454c-8.3443146,0-13.177063-6.4469147-13.1959534-14.800621L181.6987,37.0810852
		c-0.0094452-4.0588341,1.5670471-7.8722439,4.4269257-10.7417908c2.8600922-2.8694897,6.6641083-4.7856121,10.7230072-4.7950611
		h153.7076721c8.1173096,0.3586941,14.4703369,7.0038548,14.4795532,15.1215267L365.1114502,76.0271454z"/>
	<path class="st5" d="M365.1114502,76.0271454c0.0092163,4.0588379-1.5670776,7.8817444-4.4269409,10.751236
		c-2.7750549,2.7751236-6.4373474,4.3514481-10.3549805,4.4552689c-0.1225891,0.0094452-0.2548828,0.0094452-0.3774719,0.0094452
		H247.8296356c-8.3443146,0-13.1770477-6.4469147-13.1959534-14.800621l-0.0755768-39.3613892
		c-0.0094452-4.0588341,1.5670471-7.8722439,4.4269104-10.7417908c2.8601074-2.8694897,6.6641235-4.7856121,10.7230072-4.7950611
		h100.8482819c8.1173096,0.3586941,14.4703369,7.0038548,14.4795532,15.1215267L365.1114502,76.0271454z"/>
	<path class="st6" d="M394.401001,61.4153137c0,3.4830627-2.8128662,6.3148117-6.3050842,6.3242645l-23.0222778,0.037735
		l-79.6287842,0.113266h-2.6902466l-47.9416351,0.1038132l-23.1921234,0.056633
		c-3.4924469,0.0094528-6.3147583-2.8128586-6.3242035-6.3053627l-0.0283356-9.9960594
		c-0.0094604-3.4830589,2.812851-6.3148117,6.2960815-6.3242607l23.2485809-0.056633l36.66185-0.0849762l13.9700317-0.0188408
		l79.6287842-0.113266l22.974823-0.0377922c2.4353638-0.009449,4.5499573,1.3686943,5.5975952,3.3886909
		c0.0944824,0.169899,0.1792908,0.3492432,0.2548828,0.5380402c0.0755615,0.16045,0.1322632,0.3209,0.1889648,0.500248
		c0.1792908,0.5946732,0.2829895,1.2270813,0.2829895,1.8783875L394.401001,61.4153137z"/>
	<g>
		<polygon class="st2" points="346.195282,91.1898727 346.195282,133.430191 253.3766937,133.4349365 253.3766937,91.1946182
			304.0091858,91.0907974 		"/>
		<path class="st1" d="M378.1311646,133.430191l-37.2471619-0.0127258
			c-2.5406494-0.0007629-4.5998535-2.0605927-4.5998535-4.6012421V95.9786758c0-2.6550293,2.1478882-4.8097,4.802887-4.8180695
			l17.2718201-0.0603867l19.7408752,0.089653v0.1510544L378.1311646,133.430191z"/>
		<path class="st0" d="M260.0010071,133.4181671h-38.0882416V91.1729279h38.0882416
			c2.6810608,0,4.8544617,2.1734161,4.8544617,4.8544617v32.5363007
			C264.8554688,131.244751,262.6820679,133.4181671,260.0010071,133.4181671z"/>
	</g>
	<path class="st4" d="M234.5742188,45.3687096v22.6256828l-22.9533691,0.056633
		c-3.4924469,0.0094528-6.3147583-2.8128586-6.3242035-6.3053627l-0.0283356-9.9960594
		c-0.0094604-3.4830589,2.812851-6.3148117,6.2960815-6.3242607L234.5742188,45.3687096z"/>
	<path class="st7" d="M394.401001,61.4153137c0,3.4830627-2.8128662,6.3148117-6.3050842,6.3242645l-23.000061,0.037735V45.1516266
		l22.9526062-0.0377922c2.4353638-0.009449,4.5499573,1.3686943,5.5975952,3.3886909
		c0.0944824,0.169899,0.1792908,0.3492432,0.2548828,0.5380402c0.0755615,0.16045,0.1322632,0.3209,0.1889648,0.500248
		c0.1792908,0.5946732,0.2829895,1.2270813,0.2829895,1.8783875L394.401001,61.4153137z"/>
	<path class="st8" d="M422.586731,216.6803589l-0.9725037,5.9844513l-1.0383911,6.37146l-5.9935303,36.9260406l-1.1236572,6.9377747
		l-1.557373,9.5902405l-0.7171631,4.4363708L365.3096313,569.630127c-0.4908752,3.0110474-2.9732666,5.2670288-5.984314,5.4935913
		c-0.1700745,0.0188599-0.3401184,0.0283203-0.5097351,0.0283203H241.2033234c-0.1981964,0-0.4058228-0.0094604-0.5945587-0.0283203
		c-2.964035-0.2642822-5.4088593-2.5108032-5.8994904-5.4935913l-45.8839417-282.7128296l-1.2271423-7.5702209l-1.0476227-6.4564209
		l-1.0667419-6.6074219c46.0537872-3.1715698,73.4179688-16.103241,97.6104431-28.9216156
		c5.6257324-2.9922485,11.0818176-5.9655609,16.556366-8.8067627
		c21.0874329-10.9588776,42.5329895-19.9921722,75.4567566-20.0488129
		C396.1381226,208.4777069,411.2030029,211.715332,422.586731,216.6803589z"/>
	<path class="st9" d="M375.1262817,221.7114563c19.8033752-0.0283508,34.3114929,2.8412018,45.4495544,7.3248138
		l-5.9935303,36.9260406l-1.1236572,6.9377747l-1.557373,9.5902405l-0.7171631,4.4363708L365.3096313,569.630127
		c-0.4908752,3.0110474-2.9732666,5.2670288-5.984314,5.4935913c-0.1700745,0.0188599-0.3401184,0.0283203-0.5097351,0.0283203
		H241.2033234c-0.1981964,0-0.4058228-0.0094604-0.5945587-0.0283203c-2.964035-0.2642822-5.4088593-2.5108032-5.8994904-5.4935913
		l-45.8839417-282.7128296l-1.2271423-7.5702209c53.1804199-4.0682983,81.1391449-21.2570496,108.6731415-35.8122559
		c5.4086304-2.8600922,10.7983704-5.6068726,16.3581848-8.1460114
		C329.9219055,227.5071259,348.8758545,221.7586365,375.1262817,221.7114563z"/>
	<path class="st10" d="M178.394989,222.6459198l-0.9533691-5.8900299
		c5.4842224-2.3409576,11.8084259-4.2948151,19.2277222-5.6729584c0.0186615,0,0.0472412-0.0094604,0.0659027-0.0094604
		c7.825119-1.4630585,16.8679199-2.3031616,27.4114227-2.322052c32.9145203-0.0566254,54.3886414,8.9105835,75.5039673,19.8034363
		c4.3043213,2.2181854,8.5989685,4.5119019,12.9788818,6.8339539
		c25.2687073,13.4131012,53.1990662,27.4774323,101.9527893,30.5735016l-1.1236572,6.9377747l-1.557373,9.5902405
		l-0.7171631,4.4363708L365.3096313,569.630127c-0.4908752,3.0110474-2.9732666,5.2670288-5.984314,5.4935913
		c-0.1700745,0.0188599-0.3401184,0.0283203-0.5097351,0.0283203H241.2033234c-0.1981964,0-0.4058228-0.0094604-0.5945587-0.0283203
		c-2.964035-0.2642822-5.4088593-2.5108032-5.8994904-5.4935913l-45.8839417-282.7128296l-1.2271423-7.5702209l-1.0476227-6.4564209
		l-1.0667419-6.6074219l-4.7762909-29.4124603l-0.7173767-4.4269867L178.394989,222.6459198z"/>
	<path class="st8" d="M411.9038696,282.4903259l-0.7171631,4.4363708l-42.8634338,264.1554565l-3.0110474,18.5479736
		c-0.4622803,2.8317261-2.6902771,4.9933472-5.455658,5.4274902c-0.1792908,0.0283813-0.3682556,0.0566406-0.5567627,0.0661011
		c-0.1700745,0.0188599-0.3401489,0.0283203-0.5097351,0.0283203H241.2059174c-0.1981812,0-0.4055939-0.0094604-0.5945587-0.0283203
		c-2.964035-0.2642822-5.4086304-2.5108032-5.8994904-5.4935913l-3.0110321-18.5479736l-42.8726807-264.164856l-1.2273712-7.5702209
		l-1.0476227-6.4564209l-1.0665131-6.6074219l-4.7762756-29.4124603l-0.7171631-4.4269867
		c10.9490814-4.2381744,25.1078491-6.9472198,44.1843872-6.9755554c24.4381714-0.037735,42.5615692,4.8894806,58.9192963,11.8933868
		c4.4932861,1.9161377,8.8542786,3.9927673,13.1770325,6.1732025c21.380127,10.7512512,41.7969666,23.8528442,72.6632385,32.0082397
		c0.3396912,0.0849609,0.6793823,0.1793518,1.0195313,0.2643127c0.565979,0.141571,1.1420898,0.2926331,1.7177429,0.4341736
		c3.1244202,0.7834778,6.3617859,1.5197449,9.722168,2.1805115c0.7365112,0.151001,1.4725647,0.2926025,2.2275391,0.4341736
		c0.5097351,0.1037903,1.0195007,0.1982422,1.5481567,0.2831421c0.5950012,0.1132813,1.1798706,0.2171326,1.7841187,0.3209534
		c0.8305359,0.151001,1.6610718,0.2926331,2.5109558,0.4247742c1.2177124,0.1982117,2.4538269,0.3869934,3.7093201,0.5757751
		c1.0858765,0.1604614,2.1805115,0.3115234,3.2848206,0.453064c0.6890259,0.0944519,1.3877563,0.1793518,2.0957031,0.2737732
		c1.415863,0.1699219,2.8409729,0.3398132,4.2946167,0.4908142c0.6323547,0.0660706,1.2743835,0.1321716,1.9164124,0.1982422
		c0.6037903,0.0566406,1.2080383,0.1132507,1.8214722,0.1698914c0.7365112,0.075531,1.4822388,0.1416016,2.2279968,0.1982422
		c0.7457275,0.0660706,1.5006714,0.1227112,2.2652893,0.1793518c0.2640991,0.0282898,0.528656,0.0471802,0.7927551,0.0660706
		H411.9038696z"/>
	<path class="st9" d="M422.558136,216.6803589l-0.9720154,5.9844513l-1.0384216,6.37146l-5.9939575,36.9260406l-1.1231995,6.9377747
		l-1.557373,9.5902405l-0.7176208,4.4363708L365.2810364,569.630127c-0.490387,3.0110474-2.9732361,5.2670288-5.9842834,5.4935913
		c-0.1696167,0.0188599-0.3396912,0.0283203-0.5097656,0.0283203h-38.4646301l48.6117554-299.6089783l2.6054688-16.0371704
		l6.1257629-37.7756042l2.1427307-13.1676025C398.3937683,208.9873962,412.0427856,212.092926,422.558136,216.6803589z"/>
	<path class="st11" d="M420.547699,229.0362701l-5.9939575,36.9260406l-1.1231995,6.9377747l-1.557373,9.5902405
		l-0.7176208,4.4363708L365.2810364,569.630127c-0.490387,3.0110474-2.9732361,5.2670288-5.9842834,5.4935913
		c-0.1696167,0.0188599-0.3396912,0.0283203-0.5097656,0.0283203h-38.4646301l48.6117554-299.6089783l2.6054688-16.0371704
		l6.1257629-37.7756042C396.1662292,221.9379883,409.9005127,224.741394,420.547699,229.0362701z"/>
	<path class="st8" d="M414.5537415,265.9623108l-1.1231995,6.9377747l-1.557373,9.5902405l-0.7176208,4.4363708
		L365.2810364,569.630127c-0.490387,3.0110474-2.9732361,5.2670288-5.9842834,5.4935913
		c-0.1696167,0.0188599-0.3396912,0.0283203-0.5097656,0.0283203h-38.4646301l48.6117554-299.6089783l2.6054688-16.0371704
		C383.9612122,262.6208191,398.0729675,264.9145203,414.5537415,265.9623108z"/>
	<path class="st9" d="M411.8757629,282.4903259l-0.7171631,4.4363708l-42.8634644,264.1554565l-3.0110168,18.5479736
		c-0.4060669,2.4730225-2.1427307,4.4364014-4.4177246,5.1821289c-0.3304443,0.1132813-0.6701355,0.1887207-1.0098267,0.2453613
		c-0.1792908,0.0283813-0.3682556,0.0566406-0.5567627,0.0661011c-0.1700745,0.0188599-0.3401489,0.0283203-0.5097351,0.0283203
		h-38.4646606l3.9075012-24.0698853l44.7042542-275.539093c0.3396912,0.0849609,0.6793823,0.1793518,1.0195313,0.2643127
		c0.565979,0.151001,1.1420898,0.2926331,1.7177429,0.4341736c3.1244202,0.7834778,6.3617859,1.5197449,9.722168,2.1805115
		c0.7365112,0.151001,1.4725647,0.2926025,2.2275391,0.4341736c0.5097351,0.1037903,1.0195007,0.1982422,1.5481567,0.2831421
		c0.5853271,0.1132813,1.1798706,0.2171326,1.7841187,0.3209534c0.8305359,0.151001,1.6610718,0.2926331,2.5109558,0.4247742
		c1.2177124,0.1982117,2.4538269,0.3964539,3.7093201,0.5757751c1.0858765,0.1604614,2.1805115,0.3115234,3.2848206,0.453064
		c0.6987,0.0944519,1.3969727,0.1888123,2.0957031,0.2737732c1.415863,0.1699219,2.8409729,0.3398132,4.2946167,0.4908142
		c0.6323547,0.0660706,1.2743835,0.1321716,1.9164124,0.1982422c0.6037903,0.0660706,1.2080383,0.1227112,1.8214722,0.1698914
		c0.7365112,0.075531,1.4822388,0.1416016,2.2279968,0.1982422c0.7457275,0.0660706,1.5006714,0.1321106,2.2652893,0.1793518
		C411.3471069,282.4525452,411.6116638,282.4714355,411.8757629,282.4903259z"/>
	<circle class="st9" cx="245.1960754" cy="278.7618408" r="29.2614536"/>
	<circle class="st9" cx="299.9432983" cy="309.4391785" r="15.1026859"/>
	<circle class="st9" cx="261.2820129" cy="341.9650269" r="9.478508"/>
	<circle class="st9" cx="344.150116" cy="463.927063" r="29.2614536"/>
	<circle class="st9" cx="272.9095459" cy="495.6543274" r="15.1026859"/>
	<circle class="st9" cx="293.0166016" cy="456.5936584" r="9.478508"/>
	<path class="st9" d="M368.3232727,551.0821533l-3.0110474,18.5479736c-0.4622803,2.8317261-2.6902771,4.9933472-5.455658,5.4274902
		c-0.1792908,0.0283813-0.3682556,0.0566406-0.5567627,0.0661011c-0.1700745,0.0188599-0.3401489,0.0283203-0.5097351,0.0283203
		H241.2059174c-0.1981812,0-0.4055939-0.0094604-0.5945587-0.0283203c-2.964035-0.2642822-5.4086304-2.5108032-5.8994904-5.4935913
		l-3.0110321-18.5479736H368.3232727z"/>
	<path class="st11" d="M368.3232727,551.0821533l-3.0110474,18.5479736
		c-0.4056091,2.4824829-2.1616211,4.4458618-4.4458313,5.1821289c-0.3304443,0.1132813-0.6701355,0.1887207-1.0098267,0.2453613
		c-0.1792908,0.0283813-0.3682556,0.0566406-0.5567627,0.0661011c-0.1700745,0.0188599-0.3401489,0.0283203-0.5097351,0.0283203
		h-38.4646606l3.9075012-24.0698853H368.3232727z"/>
	<path class="st12" d="M248.0936584,419.3166809h-0.0212097c-7.2580566,0-12.7891388,6.500824-11.6267242,13.6651917
		l4.1538544,25.6016541c0.9252319,5.7025146,5.8496399,9.8923645,11.6267395,9.8923645h0.035965
		c7.2607269,0,12.7925262-6.5053711,11.6256561-13.6717529l-4.1686096-25.6016541
		C258.7912903,423.5029602,253.8682404,419.3166809,248.0936584,419.3166809z M220.8626404,190.4449463
		c-0.9250183-5.6824036-5.8334045-9.8545685-11.5818329-9.8545685c-7.2398834,0-12.7523346,6.4752655-11.5913391,13.6207886
		l31.1012573,191.615921c0.9255371,5.7022095,5.8497925,9.8916321,11.6266174,9.8916321h0.0000305
		c7.2603149,0,12.7920074-6.5046387,11.6258392-13.6706848L220.8626404,190.4449463z"/>
</g>
</svg>
