<?xml version="1.0" encoding="utf-8"?>
<!-- Generator: Adobe Illustrator 22.1.0, SVG Export Plug-In . SVG Version: 6.00 Build 0)  -->
<svg version="1.1" id="Layer_1" xmlns="http://www.w3.org/2000/svg" xmlns:xlink="http://www.w3.org/1999/xlink" x="0px" y="0px"
	 viewBox="0 0 600 600" style="enable-background:new 0 0 600 600;" xml:space="preserve">
<style type="text/css">
	.st0{fill:#FFDD9D;}
	.st1{fill:#FFC98F;}
	.st2{fill:#F3F7DE;}
	.st3{fill:#AADCD9;}
	.st4{fill:#0E8AC0;}
	.st5{fill:#139BCD;}
	.st6{fill:#59C9E1;}
	.st7{fill:#13B2DA;}
	.st8{fill:#C4E5DC;}
	.st9{fill:#63D7E0;}
	.st10{fill:#44C2DF;}
	.st11{fill:#9ED3D7;}
	.st12{fill:#0B77AD;}
	.st13{fill:#DDEEDB;}
</style>
<g>
	<g>
		<path class="st0" d="M370.8897705,26.4363422l-8.5455627,47.4350662
			c0.0101013,6.259964-1.9693298,11.9230194-5.1516418,15.9407043c-3.4651794,3.7003326-8.3917236,6.026413-13.8280029,6.0352173
			l-86.6979675,0.1403198c-10.4606323,0.0169373-19.0289764-8.5237274-19.0459137-18.984436l-8.5495148-52.0578308
			c-1.1970062-7.2885208,1.7492065-14.7689581,7.8588409-18.9196091c3.0327454-2.060333,6.6855469-3.2692602,10.6083679-3.2756078
			l104.6525726-0.1693802c2.7180176-0.0043983,5.3105164,0.5708694,7.6581421,1.6083486
			c4.5844727,2.0260048,7.9753418,6.014626,9.7134399,10.7157974c0.7562866,2.0455847,1.2792969,4.2687597,1.5231018,6.608016
			C371.2566223,23.1537037,371.182251,24.8128376,370.8897705,26.4363422z"/>
		<path class="st1" d="M370.8987427,26.3864231l-8.5545349,47.4849854
			c0.0101013,6.259964-1.9693298,11.9230194-5.1516418,15.9407043c-3.112793,3.3232269-7.392395,5.5305481-12.1690369,5.9501495
			c-0.5411987,0.0597076-1.0941772,0.0841522-1.6589661,0.0850677l-23.3453979,0.0377808
			c9.0604858-0.0146637,16.45755-9.9108124,16.4380188-21.9718018l8.8973999-49.3880386
			C345.335083,12.464282,337.9060059,2.6039073,328.8455505,2.618571l23.3453979-0.0377846
			c2.7180481-0.0043983,5.3105469,0.5708733,7.6581726,1.6083601c4.5846252,2.0260963,7.9755859,6.0149808,9.7136536,10.7163811
			c0.8262329,2.2349768,1.3739929,4.681922,1.583374,7.2606344
			C371.2606201,23.5757542,371.1495056,24.9946003,370.8987427,26.3864231z"/>
		<circle class="st1" cx="282.9637756" cy="60.6726723" r="12.5222435"/>
		<circle class="st1" cx="283.229248" cy="18.9588261" r="7.0075722"/>
		<circle class="st1" cx="255.959198" cy="33.0264778" r="13.7104797"/>
		<circle class="st1" cx="325.4865417" cy="33.0264778" r="9.2723732"/>
	</g>
	<path class="st2" d="M377,131.3392792v389.0799561c0,42.460022-34.539978,77-77,77s-77-34.539978-77-77V131.3392792H377z"/>
	<path class="st2" d="M377,131.3392792v389.0799561c0,42.460022-34.539978,77-77,77s-77-34.539978-77-77V131.3392792H377z"/>
	<path class="st3" d="M357.0033569,131.3120422v389.1000061c0,31.4299927-25.5699463,57-57,57c-31.4299927,0-57-25.5700073-57-57
		V131.3120422H357.0033569z"/>
	<path class="st4" d="M357.0033569,210.3820496v135.7399902c-3.2199707,1.9900513-6.9799805,3.1300049-10.9499512,3.1400146
		l-91.9800415,0.1500244c-4.0599976,0-7.8499756-1.1500244-11.0700073-3.1600342V229.9520569
		c24.2900391-0.0700073,36.25-6.4699707,47.8300171-12.6699829c0.9899902-0.5300293,1.9700317-1.0599976,2.9400024-1.5700073
		c1.4700317-0.7800293,2.9700317-1.5599976,4.5200195-2.3099976c8.75-4.3099976,18.8800049-7.9899902,33.2399902-8.0100098
		h0.1500244C341.7533569,205.3920593,350.0933838,207.0220642,357.0033569,210.3820496z"/>
	<path class="st5" d="M357.0908813,328.1619263c0,0.2312317-0.0100708,0.4725647-0.0201416,0.7037659
		c-0.0201111,0.3317871-0.0502319,0.6735535-0.1105652,0.9952698c-0.8042603,5.3082581-5.3986816,9.3899536-10.9281006,9.3999634
		l-91.9388275,0.1508179c-6.1024475,0.0100708-11.0789185-4.9563293-11.0889893-11.0587769l-0.1005096-59.2651367
		l-0.0502472-29.1348572h0.0100555c29.0142517-0.0502625,42.4155273-8.4449463,55.5855103-15.4019165
		c9.3296509-4.9362183,18.5385742-9.1385498,33.0959473-9.1586609c12.6673889-0.0201416,20.1773071,2.7848206,25.3749084,6.5045471
		l0.0301819,19.3428345L357.0908813,328.1619263z"/>
	<path class="st6" d="M356.7133789,231.2420959h0.289978v289.1699524c0,31.4299927-25.5699463,57-57,57
		c-31.4299927,0-57-25.5700073-57-57v-308.519989c6.8800049-3.2999878,15.1700439-4.9099731,25.1600342-4.9299927h0.1400146
		c12.75,0,22.0699463,2.8699951,29.9899902,6.4400024c1.6099854,0.710022,3.1499634,1.460022,4.6599731,2.2199707
		c2.0100098,1.0100098,4,2.0700073,5.9299927,3.0900269C320.4633789,224.8720398,332.4433594,231.2420959,356.7133789,231.2420959z"
		/>
	<path class="st7" d="M357.0033569,381.6720886v138.7399597c0,31.4299927-25.5699463,57-57,57c-31.4299927,0-57-25.5700073-57-57
		v-296.980011c5.1700439-3.6699829,12.6500244-6.4499512,25.1800537-6.4699707
		c13.0699463-0.0200195,21.8499756,3.3499756,30.2699585,7.5900269c14.1900024,7.1399536,27.3800049,16.7399902,58.5,16.6900024
		L357.0033569,381.6720886z"/>
	<path class="st5" d="M269.793396,294.2420959c-4.4100342,11.4499512-15.2200317,18.5699463-26.7900391,18.8099976v-58.7200317
		c3.3099976,0.0599976,6.6700439,0.710022,9.9400024,1.960022
		C268.0733643,262.1220398,275.6134033,279.1020813,269.793396,294.2420959z"/>
	<circle class="st5" cx="295.206543" cy="336.899292" r="18.3729248"/>
	<circle class="st5" cx="330.5398865" cy="298.5659485" r="10.4468384"/>
	<circle class="st5" cx="312.668396" cy="489.139801" r="19.2122803"/>
	<circle class="st5" cx="279.9228821" cy="449.8853455" r="12.2305107"/>
	<path class="st5" d="M357.0033569,419.8420715v48.3499756c-3.0599976,0.0700073-6.1799927-0.4400024-9.2099609-1.6099854
		c-12.460022-4.7999878-18.6700439-18.789978-13.8800049-31.25
		C337.6734009,425.5620422,347.0933838,419.6220398,357.0033569,419.8420715z"/>
	<path class="st8" d="M327.0033569,131.3120422v389.1000061c0,14.8900146-12.1099854,27-27,27c-14.8899536,0-27-12.1099854-27-27
		V131.3120422H327.0033569z"/>
	<path class="st5" d="M327.0033569,205.532074v143.7600098l-18.1699829,0.0299683l-27.0499878,0.0400391l-8.7800293,0.0199585
		V225.5020447c5.0800171-1.7099609,9.4400024-3.7799683,13.5700073-5.9199829
		c1.4700317-0.7600098,2.9100342-1.5299683,4.3400269-2.2999878c0.9899902-0.5300293,1.9699707-1.0599976,2.9400024-1.5700073
		c1.4699707-0.7800293,2.9699707-1.5599976,4.5199585-2.3099976
		C306.1533813,209.572052,315.0333862,206.2320862,327.0033569,205.532074z"/>
	<path class="st6" d="M327.0033569,215.5520935v123.7399902l-13.5,0.0199585l-36.4199829,0.0599976l-4.0800171,0.0100098
		V236.0120544c10.4700317-3.0800171,18.0400391-7.5,25.5300293-11.4599609
		c3.710022-1.960022,7.4000244-3.8099976,11.4199829-5.3200073
		C314.9133911,217.3520813,320.3833618,215.9920959,327.0033569,215.5520935z"/>
	<path class="st9" d="M327.0033569,226.9220886v293.4899597c0,14.8900146-12.1099854,27-27,27c-14.8899536,0-27-12.1099854-27-27
		V207.0920715c10.4400024,0.5999756,18.4400024,3.1900024,25.3699951,6.3099976
		c1.6100464,0.710022,3.1500244,1.460022,4.6600342,2.2199707c2.0100098,1.0100098,4,2.0700073,5.9299927,3.0900269
		c0.3300171,0.1699829,0.6599731,0.3499756,0.9899902,0.5200195
		C315.1333618,221.9920959,320.4633789,224.7420959,327.0033569,226.9220886z"/>
	<path class="st10" d="M327.0033569,237.4220886v282.9899597c0,14.8900146-12.1099854,27-27,27c-14.8899536,0-27-12.1099854-27-27
		V217.1120911c5.1100464,0.3299561,9.5300293,1.2199707,13.5700073,2.4699707
		c4.2999878,1.3200073,8.1600342,3.0599976,11.960022,4.9700317
		C307.0233765,228.822052,315.1633911,233.9820862,327.0033569,237.4220886z"/>
	<circle class="st7" cx="295.2898865" cy="336.899292" r="18.3729248"/>
	<path class="st7" d="M327.0033569,288.7720642v19.5900269c-0.039978-0.0200195-0.0899658-0.0300293-0.1300049-0.0500488
		c-5.3899536-2.0699463-8.0699463-8.1099854-6-13.5C321.9934082,291.9020691,324.2833862,289.7720642,327.0033569,288.7720642z"/>
	<path class="st7" d="M327.0033569,476.2520447v25.7800293c-5.1799927,5.7199707-13.5199585,7.9699707-21.1499634,5.039978
		c-9.9100342-3.8099976-14.8400269-14.9299927-11.0300293-24.8299561
		c3.8099976-9.9100342,14.9299927-14.8400269,24.8300171-11.0300293
		C322.5633545,472.3320618,325.043396,474.0820618,327.0033569,476.2520447z"/>
	<path class="st7" d="M291.4234009,454.282074c-2.4299927,6.2999878-9.5100098,9.4400024-15.8099976,7.0200195
		c-0.9400024-0.3600464-1.8200073-0.8300171-2.6100464-1.3900146v-20.0499878
		c3.2200317-2.25,7.460022-2.9100342,11.4000244-1.3900146C290.7033691,440.9020691,293.8433838,447.9720764,291.4234009,454.282074
		z"/>
	<path class="st11" d="M356.9849854,131.3120422v389.1000061c0,27.5-19.5800171,50.5199585-45.5300293,55.8399658
		c-3.6999512,0.7600098-7.539978,1.1600342-11.4699707,1.1600342c-3.9199829,0-7.75-0.4000244-11.4400024-1.1600342
		c-25.9699707-5.3099976-45.5599976-28.3299561-45.5599976-55.8399658V131.3120422h10v389.1000061c0,25.9199829,21.0800171,47,47,47
		s47-21.0800171,47-47V131.3120422H356.9849854z"/>
	<path class="st12" d="M357.0150146,210.3820496v310.0299988c0,27.5100098-19.5900269,50.5299683-45.5600586,55.8399658
		c-3.6999512,0.7600098-7.539978,1.1600342-11.4699707,1.1600342c-3.9199829,0-7.75-0.4000244-11.4400024-1.1600342
		c-25.9500122-5.3200073-45.5299683-28.3399658-45.5299683-55.8399658V229.9520569
		c3.5799561-0.0100098,6.8899536-0.1599731,9.9699707-0.4299927v290.8899841c0,25.9199829,21.0800171,47,47,47s47-21.0800171,47-47
		v-313.480011c3.6199951,0.8100586,6.960022,1.960022,10,3.4400024
		C356.9949951,210.3720398,357.0050049,210.3820496,357.0150146,210.3820496z"/>
	<path class="st4" d="M357.0150146,381.6720886v138.7399597c0,27.5100098-19.5900269,50.5299683-45.5600586,55.8399658
		c-3.6999512,0.7600098-7.539978,1.1600342-11.4699707,1.1600342c-3.9199829,0-7.75-0.4000244-11.4400024-1.1600342
		c-25.9500122-5.3200073-45.5299683-28.3399658-45.5299683-55.8399658V239.9520569
		c3.5499878-0.0100098,6.8599854-0.1400146,9.9699707-0.3900146v280.8500061c0,25.9199829,21.0800171,47,47,47s47-21.0800171,47-47
		V217.2220764c4.1400146,1.1699829,7.3400269,2.7999878,9.9500122,4.6699829l0.0100098,9.3500366l0.0199585,10l0.0200195,56.1699829
		L357.0150146,381.6720886z"/>
	<path class="st7" d="M357.0150146,231.2420959v289.1699524c0,27.5100098-19.5900269,50.5299683-45.5600586,55.8399658
		c-3.6999512,0.7600098-7.539978,1.1600342-11.4699707,1.1600342c-3.9199829,0-7.75-0.4000244-11.4400024-1.1600342
		c-25.9500122-5.3200073-45.5299683-28.3399658-45.5299683-55.8399658v-308.519989
		c3.039978-1.460022,6.3499756-2.5899658,9.9699707-3.3900146v311.9100037c0,25.9199829,21.0800171,47,47,47s47-21.0800171,47-47
		V230.8620911c3.0200195,0.25,6.25,0.3800049,9.7399902,0.3800049H357.0150146z"/>
	<path class="st5" d="M357.0200195,381.6720886v138.7399597c0,27.5100098-19.6000366,50.5299683-45.5700073,55.8399658
		c-3.6900024,0.7600098-7.5400391,1.1600342-11.4700317,1.1600342c-3.9099731,0-7.75-0.4000244-11.4400024-1.1600342
		c-25.9499512-5.3200073-45.5199585-28.3399658-45.5199585-55.8399658v-296.980011
		c2.5999756-1.8599854,5.8099976-3.4799805,9.9599609-4.6399536v301.6199646c0,25.9199829,21.0900269,47,47,47
		c25.9200439,0,47-21.0800171,47-47v-279.519989c3.1100464,0.2399902,6.4299927,0.3599854,9.9800415,0.3500366l0.0199585,56.1699829
		L357.0200195,381.6720886z"/>
	<path class="st4" d="M252.9799805,256.3920593v54.7600098c-3.1499634,1.2199707-6.5199585,1.9099731-9.9599609,1.9799805
		c-0.0100098,0-0.0100098,0-0.0200195,0v-58.7199707c0.0100098,0,0.0100098,0,0.0200195,0
		c3.2999878,0.0599976,6.6599731,0.7099609,9.9199829,1.9599609
		C252.9500122,256.3820496,252.9699707,256.3820496,252.9799805,256.3920593z"/>
	<path class="st4" d="M357,419.8120422v48.3500366c-3.0599976,0.0700073-6.1799927-0.4400024-9.210022-1.6099854
		c-0.2699585-0.1100464-0.539978-0.210022-0.8099976-0.3300171v-44.4700317
		C350.1099854,420.4120789,353.5300293,419.7320862,357,419.8120422z"/>
	<path class="st2" d="M386.2695313,59.1819649H213.7299805c-8.3979492,0-15.2299805,6.5810509-15.2299805,14.6699257v47.7602539
		c0,8.0888748,6.8320313,14.6699295,15.2299805,14.6699295h172.5395508c8.3984375,0,15.2304688-6.5810547,15.2304688-14.6699295
		V73.8518906C401.5,65.7630157,394.6679688,59.1819649,386.2695313,59.1819649z"/>
	<path class="st13" d="M386.2695313,59.1819649h-81.2792969c-8.7231445,0-15.8203125,6.5810509-15.8203125,14.6699257v47.7602539
		c0,8.0888748,7.097168,14.6699295,15.8203125,14.6699295h81.2792969c8.3984375,0,15.2304688-6.5810547,15.2304688-14.6699295
		V73.8518906C401.5,65.7630157,394.6679688,59.1819649,386.2695313,59.1819649z"/>
</g>
</svg>
