<?xml version="1.0" encoding="utf-8"?>
<!-- Generator: Adobe Illustrator 22.1.0, SVG Export Plug-In . SVG Version: 6.00 Build 0)  -->
<svg version="1.1" id="Layer_1" xmlns="http://www.w3.org/2000/svg" xmlns:xlink="http://www.w3.org/1999/xlink" x="0px" y="0px"
	 viewBox="0 0 600 600" style="enable-background:new 0 0 600 600;" xml:space="preserve">
<style type="text/css">
	.st0{fill:#FFDD9D;}
	.st1{fill:#FFC98F;}
	.st2{fill:#F3F7DE;}
	.st3{fill:#AADCD9;}
	.st4{fill:#0E8AC0;}
	.st5{fill:#139BCD;}
	.st6{fill:#59C9E1;}
	.st7{fill:#13B2DA;}
	.st8{fill:#C4E5DC;}
	.st9{fill:#E7EAD0;}
	.st10{fill:#6ADBEA;}
	.st11{fill:#90D1CE;}
	.st12{fill:#B2DDD1;}
	.st13{fill:#9ED3D7;}
	.st14{fill:#0B77AD;}
	.st15{fill:#81C6CB;}
	.st16{fill:#DDEEDB;}
</style>
<g>
	<g>
		<path class="st0" d="M370.5334167,26.3189964l-8.5026245,47.1966133
			c0.0100708,6.2284851-1.9594116,11.8630753-5.1257324,15.8605652c-3.4477539,3.6817398-8.3495483,5.9961243-13.7584839,6.0048828
			l-86.262146,0.1396103c-10.4080505,0.0168457-18.9333191-8.4808731-18.9501648-18.8889999l-8.506546-51.7961349
			c-1.190979-7.2518883,1.7404175-14.6947222,7.8193359-18.8245049c3.0175018-2.049974,6.651947-3.2528229,10.5550385-3.2591403
			l104.1264954-0.1685288c2.7043762-0.0043771,5.2838135,0.568001,7.6196594,1.6002655
			c4.5614014,2.0158181,7.9352417,5.9843869,9.6646118,10.6619282c0.7524719,2.0353069,1.2728577,4.2473011,1.5154114,6.5747986
			C370.898407,23.0528603,370.8244019,24.7036514,370.5334167,26.3189964z"/>
		<path class="st1" d="M370.5423584,26.2693272l-8.5115662,47.2462845
			c0.0100708,6.2284851-1.9594116,11.8630753-5.1257324,15.8605652c-3.097168,3.3065186-7.3552246,5.5027466-12.1078796,5.9202499
			c-0.5384827,0.0593948-1.0886536,0.083725-1.6506042,0.0846329l-23.2280273,0.03759
			c9.0148926-0.0145874,16.3748169-9.8609924,16.3553772-21.861351l8.8526611-49.1397705
			c-0.0194092-12.0003557-7.4111328-21.8111668-16.4260254-21.7965755l23.2280273-0.0375946
			c2.7043762-0.0043771,5.283844,0.5680039,7.6196594,1.6002769c4.5615845,2.0159111,7.9355164,5.9847417,9.6648254,10.6625118
			c0.8220825,2.2237396,1.3670959,4.6583824,1.5754395,7.2241344
			C370.9024048,23.472784,370.7918396,24.8845024,370.5423584,26.2693272z"/>
		<circle class="st1" cx="283.0494385" cy="60.3832207" r="12.4592867"/>
		<circle class="st1" cx="283.3135681" cy="18.8790722" r="6.9723501"/>
		<circle class="st1" cx="256.180603" cy="32.8759956" r="13.6415548"/>
		<circle class="st1" cx="325.358429" cy="32.8759956" r="9.2257633"/>
	</g>
	<path class="st2" d="M379.5986328,130.6946259v387.1242065c0,43.8882446-35.7095947,79.5978394-79.5978394,79.5978394
		c-43.8883667,0-79.5978546-35.7095947-79.5978546-79.5978394V130.6946259c0-1.6515656,1.3332214-2.9849167,2.9849243-2.9849167
		h153.2258453C378.2652588,127.7097092,379.5986328,129.0430603,379.5986328,130.6946259z"/>
	<path class="st3" d="M356.7142334,130.6647491v387.144104c0,31.2719727-25.4415283,56.713501-56.7134399,56.713501
		c-31.2720642,0-56.7134705-25.4415283-56.7134705-56.713501v-387.144104H356.7142334z"/>
	<path class="st4" d="M356.7167969,209.3400116V344.397644c-3.2037659,1.9800415-6.9448853,3.1142578-10.8948975,3.1242371
		l-91.5176697,0.1492615c-4.0395813,0-7.8105164-1.1442566-11.0143585-3.1441345V228.8116455
		c24.167923-0.0696564,36.0677643-6.4374542,47.5895844-12.6062927c0.9850159-0.5273743,1.9601135-1.0546722,2.9252319-1.5621185
		c1.462616-0.7761078,2.9550781-1.5521545,4.4972839-2.2983856c8.7060242-4.2883301,18.7850952-7.9498291,33.0729065-7.9697418
		h0.1492615C341.543457,204.3751068,349.8415527,205.9969177,356.7167969,209.3400116z"/>
	<path class="st5" d="M356.803894,326.527832c0,0.2300415-0.0100098,0.4701538-0.0200195,0.7001953
		c-0.02005,0.3301392-0.0500183,0.6701965-0.1100159,0.9902954c-0.8002319,5.2815552-5.371582,9.3427429-10.8731689,9.3526917
		l-91.4766693,0.1500854c-6.0717773,0.0100098-11.0232239-4.931427-11.0332489-11.0032043l-0.0999908-58.9671936
		l-0.0500031-28.9884338h0.0100098c28.8683777-0.0500031,42.202301-8.4024658,55.3060913-15.3244629
		c9.2827148-4.9114075,18.4453735-9.0926208,32.9295654-9.1126404c12.6036987-0.0200348,20.0758667,2.770813,25.247345,6.4718475
		l0.0300293,19.2456055L356.803894,326.527832z"/>
	<path class="st6" d="M356.4282837,230.0951996h0.2885132v287.7163086c0,31.2720337-25.4414063,56.713501-56.7134705,56.713501
		c-31.2719727,0-56.7134552-25.4414673-56.7134552-56.713501V210.8424225
		c6.8454285-3.2833862,15.0937958-4.8852844,25.0335541-4.9051971h0.1393127
		c12.6859131,0,21.9590149,2.8555603,29.8392334,6.4076233c1.6018982,0.7064514,3.1341248,1.4526825,4.6365356,2.2088165
		c1.9999084,1.0049286,3.9799194,2.0596008,5.9002075,3.0744934
		C320.3605042,223.7571564,332.2802734,230.0951996,356.4282837,230.0951996z"/>
	<path class="st7" d="M356.7167969,379.7689819v138.0425415c0,31.2720337-25.4414063,56.713501-56.7134705,56.713501
		c-31.2719727,0-56.7134552-25.4414673-56.7134552-56.713501V222.3244019
		c5.1440582-3.651535,12.586441-6.4175262,25.0534821-6.4374542c13.0042419-0.0199127,21.7401428,3.3331451,30.1177979,7.5518799
		c14.1186523,7.1040497,27.2423706,16.655838,58.2059021,16.6060944L356.7167969,379.7689819z"/>
	<path class="st5" d="M269.9452515,292.7785034c-4.3878784,11.392395-15.1435242,18.476593-26.6553802,18.7154236v-58.4248352
		c3.2933655,0.0596924,6.6365204,0.7064514,9.8900452,1.9501648
		C268.2338562,260.8199158,275.7359924,277.7145996,269.9452515,292.7785034z"/>
	<circle class="st5" cx="295.2306213" cy="335.2212524" r="18.2805576"/>
	<circle class="st5" cx="330.3863525" cy="297.0806274" r="10.3943243"/>
	<circle class="st5" cx="312.6047058" cy="486.6964722" r="19.1156864"/>
	<circle class="st5" cx="280.0238037" cy="447.6393127" r="12.1690216"/>
	<path class="st5" d="M356.7167969,417.7471008v48.1069031c-3.0446167,0.0696716-6.1489258-0.4377747-9.1636658-1.6018982
		c-12.3973694-4.7758484-18.5761719-18.6954956-13.8102112-31.0928955
		C337.4840088,423.4382935,346.8566589,417.5281677,356.7167969,417.7471008z"/>
	<path class="st8" d="M326.8650513,130.6647491v387.144104c0,14.8150635-12.0492249,26.8643188-26.8642578,26.8643188
		c-14.8151855,0-26.8642883-12.0492554-26.8642883-26.8643188v-387.144104H326.8650513z"/>
	<path class="st5" d="M326.8676147,204.5144196v143.0373383l-18.0786438,0.0298157l-26.9140015,0.0398254l-8.7359009,0.0198669
		V224.3840027c5.0544739-1.7013702,9.3925476-3.7609711,13.5018005-5.8902283
		c1.462616-0.7561951,2.8953857-1.5222778,4.3182068-2.2884216c0.9850159-0.5273743,1.9600525-1.0546722,2.9252014-1.5621185
		c1.4625854-0.7761078,2.9550476-1.5521545,4.4972534-2.2983856
		C306.1224365,208.5340881,314.9578247,205.210907,326.8676147,204.5144196z"/>
	<path class="st6" d="M326.8676147,214.4840698v123.1179504l-13.4321289,0.0198669l-36.236908,0.0596924l-4.0595093,0.0099487
		V234.8411713c10.4173889-3.0645294,17.9493408-7.4622955,25.4017029-11.4023438
		c3.6913452-1.9501801,7.3628235-3.7908478,11.3625488-5.2932739
		C314.8384094,216.2750092,320.2808838,214.9218597,326.8676147,214.4840698z"/>
	<rect x="220.4029388" y="135.5998993" class="st9" width="159.195694" height="29.0134487"/>
	<path class="st10" d="M326.8676147,225.7969055v292.0146179c0,14.8151855-12.0491028,26.8642578-26.8642883,26.8642578
		c-14.815094,0-26.8642578-12.0490723-26.8642578-26.8642578V206.0665741
		c10.3875122,0.5969543,18.34729,3.1739655,25.2424622,6.2782745c1.6019592,0.7064514,3.1341858,1.4526825,4.6365967,2.2088165
		c1.9999084,1.0049286,3.9798889,2.0596008,5.900177,3.0744934c0.3283691,0.1691284,0.6566772,0.3482056,0.9850159,0.517395
		C315.0572815,220.8916931,320.3605042,223.6278687,326.8676147,225.7969055z"/>
	<path class="st6" d="M326.8676147,236.2441254v281.5673828c0,14.8151855-12.0491028,26.8642578-26.8642883,26.8642578
		c-14.815094,0-26.8642578-12.0490723-26.8642578-26.8642578V216.0362244
		c5.0843506,0.3282928,9.4821167,1.2138367,13.5018005,2.45755c4.2783508,1.3133698,8.118988,3.0446167,11.8999023,4.9450531
		C306.9880676,227.6873169,315.0871582,232.8214111,326.8676147,236.2441254z"/>
	<circle class="st7" cx="295.3135376" cy="335.2212524" r="18.2805576"/>
	<path class="st7" d="M326.8676147,287.335968v19.4915466c-0.0397949-0.019928-0.0895081-0.0298767-0.129364-0.0498047
		c-5.362854-2.0595398-8.0293579-8.0692139-5.9698181-13.4321289
		C321.882843,290.4502258,324.1613159,288.3309326,326.8676147,287.335968z"/>
	<rect x="243.287323" y="135.5998993" class="st11" width="113.4269257" height="29.0134487"/>
	<rect x="273.1365051" y="135.5998993" class="st12" width="53.7285461" height="29.0134487"/>
	<path class="st7" d="M326.8676147,473.8735046v25.6504211c-5.1539612,5.6912231-13.4519958,7.9299011-21.0436401,5.0146484
		c-9.8602295-3.790863-14.7654419-14.85495-10.9745789-24.7051392c3.7908325-9.8602295,14.8549194-14.7654419,24.7052002-10.9745789
		C322.4499207,469.9732056,324.917511,471.7144165,326.8676147,473.8735046z"/>
	<path class="st7" d="M291.4665222,452.0139465c-2.4177856,6.2683411-9.4622192,9.3925781-15.7305298,6.9847412
		c-0.9352722-0.3582458-1.8108521-0.8258362-2.5969238-1.3830261v-19.9491882
		c3.2038574-2.2387085,7.4225159-2.8954163,11.3427124-1.3830261
		C290.7500916,438.7012024,293.8743286,445.7356873,291.4665222,452.0139465z"/>
	<path class="st13" d="M356.6943359,130.6647491v387.144104c0,27.3617554-19.4816589,50.2661133-45.3011475,55.5592651
		c-3.681366,0.7562256-7.5021362,1.1542358-11.412323,1.1542358c-3.9002075,0-7.7110596-0.3980103-11.3824463-1.1542358
		c-25.8395386-5.2832031-45.3310242-28.1875-45.3310242-55.5592651v-387.144104h9.9497375v387.144104
		c0,25.7896729,20.9741211,46.7637329,46.7637329,46.7637329s46.7637329-20.9740601,46.7637329-46.7637329v-387.144104H356.6943359z
		"/>
	<path class="st14" d="M356.7283936,209.3400116v308.4714966c0,27.3717041-19.4915466,50.2759399-45.3310242,55.5592651
		c-3.6813354,0.7562256-7.5020752,1.1542358-11.412323,1.1542358c-3.9002686,0-7.7110291-0.3980103-11.3824768-1.1542358
		c-25.8195801-5.2932739-45.3011017-28.1975098-45.3011017-55.5592651V228.8116455
		c3.5619659-0.009964,6.8553314-0.1591797,9.9198608-0.4278412v289.4277344
		c0,25.7896729,20.9740448,46.7637329,46.7637177,46.7637329c25.7897034,0,46.7637329-20.9740601,46.7637329-46.7637329V205.9073486
		c3.6018066,0.8059845,6.9250488,1.9501648,9.9497375,3.422699
		C356.7084961,209.3300476,356.7184448,209.3400116,356.7283936,209.3400116z"/>
	<path class="st4" d="M356.7283936,379.7689819v138.0425415c0,27.3717041-19.4915466,50.2759399-45.3310242,55.5592651
		c-3.6813354,0.7562256-7.5020752,1.1542358-11.412323,1.1542358c-3.9002686,0-7.7110291-0.3980103-11.3824768-1.1542358
		c-25.8195801-5.2932739-45.3011017-28.1975098-45.3011017-55.5592651V238.7613678
		c3.5321503-0.009964,6.8255005-0.1393127,9.9198608-0.3880463v279.4382019
		c0,25.7896729,20.9740448,46.7637329,46.7637177,46.7637329c25.7897034,0,46.7637329-20.9740601,46.7637329-46.7637329v-301.665863
		c4.1192322,1.164093,7.3031311,2.7859039,9.8999939,4.6464996l0.0099792,9.3030396l0.0198669,9.9497223l0.0198975,55.8876343
		L356.7283936,379.7689819z"/>
	<rect x="243.267395" y="135.5998993" class="st15" width="9.9497309" height="29.0134487"/>
	<rect x="346.7445984" y="135.5998993" class="st15" width="9.9497309" height="29.0134487"/>
	<path class="st7" d="M356.7283936,230.0951996v287.7163086c0,27.3717041-19.4915466,50.2759399-45.3310242,55.5592651
		c-3.6813354,0.7562256-7.5020752,1.1542358-11.412323,1.1542358c-3.9002686,0-7.7110291-0.3980103-11.3824768-1.1542358
		c-25.8195801-5.2932739-45.3011017-28.1975098-45.3011017-55.5592651V210.8424225
		c3.024704-1.4526825,6.3180695-2.5769348,9.9198608-3.3729706v310.3420715
		c0,25.7896729,20.9740448,46.7637329,46.7637177,46.7637329c25.7897034,0,46.7637329-20.9740601,46.7637329-46.7637329V229.7171021
		c3.0048523,0.2487335,6.2185974,0.3780975,9.69104,0.3780975H356.7283936z"/>
	<path class="st5" d="M356.7333679,379.7689819v138.0425415c0,27.3717041-19.5014954,50.2759399-45.3409119,55.5592651
		c-3.6714478,0.7562256-7.5021362,1.1542358-11.412384,1.1542358c-3.8903198,0-7.7110291-0.3980103-11.3824768-1.1542358
		c-25.819519-5.2932739-45.2911377-28.1975098-45.2911377-55.5592651V222.3244019
		c2.5868988-1.850647,5.7807922-3.4624939,9.9098969-4.6166382v300.1037598
		c0,25.7896729,20.9839935,46.7637329,46.7637177,46.7637329c25.7897644,0,46.7637329-20.9740601,46.7637329-46.7637329V239.6966553
		c3.0944214,0.2387695,6.3976746,0.3581696,9.9298706,0.3482666l0.0198669,55.8876343L356.7333679,379.7689819z"/>
	<path class="st4" d="M253.2163544,255.1187286v54.484726c-3.13414,1.2138367-6.4871826,1.9003906-9.9098969,1.9700317
		c-0.009964,0-0.009964,0-0.019928,0v-58.4247894c0.009964,0,0.009964,0,0.019928,0
		c3.2834015,0.0597076,6.6264954,0.7064056,9.8701172,1.950119
		C253.1865234,255.1087646,253.2063904,255.1087646,253.2163544,255.1187286z"/>
	<path class="st4" d="M356.7134705,417.7172241v48.1069641c-3.0446167,0.0696716-6.1489258-0.4377747-9.1637268-1.6018982
		c-0.2686157-0.1094971-0.537262-0.2089539-0.8059387-0.3283386v-44.2464905
		C349.8580933,418.3142395,353.2609253,417.6376648,356.7134705,417.7172241z"/>
	<path class="st2" d="M385.8358459,58.9000053H214.1636505c-8.3557281,0-15.1534119,6.5479698-15.1534119,14.59618v47.5201645
		c0,8.0482101,6.7976837,14.5961685,15.1534119,14.5961685h171.6721954c8.3562317,0,15.1539307-6.5479584,15.1539307-14.5961685
		V73.4961853C400.9897766,65.4479752,394.1920776,58.9000053,385.8358459,58.9000053z"/>
	<path class="st16" d="M385.8358459,58.9000053h-80.870697c-8.6792908,0-15.7407837,6.5479698-15.7407837,14.59618v47.5201645
		c0,8.0482101,7.0614929,14.5961685,15.7407837,14.5961685h80.870697c8.3562317,0,15.1539307-6.5479584,15.1539307-14.5961685
		V73.4961853C400.9897766,65.4479752,394.1920776,58.9000053,385.8358459,58.9000053z"/>
</g>
</svg>
