<?xml version="1.0" encoding="utf-8"?>
<!-- Generator: Adobe Illustrator 22.1.0, SVG Export Plug-In . SVG Version: 6.00 Build 0)  -->
<svg version="1.1" id="Layer_1" xmlns="http://www.w3.org/2000/svg" xmlns:xlink="http://www.w3.org/1999/xlink" x="0px" y="0px"
	 viewBox="0 0 600 600" style="enable-background:new 0 0 600 600;" xml:space="preserve">
<style type="text/css">
	.st0{fill:#F1F5D7;}
	.st1{fill:#B8E0D5;}
	.st2{fill:#D6EBD4;}
	.st3{fill:#F3F7DE;}
	.st4{fill:#C4E5DC;}
	.st5{fill:#DDEEDB;}
	.st6{fill:#AADCD9;}
	.st7{fill:#9ED3D7;}
	.st8{fill:#B4E548;}
	.st9{fill:#9FC634;}
	.st10{fill:#D1EF62;}
	.st11{fill:#8EAB22;}
</style>
<g>
	<path class="st0" d="M382.7750854,9.1225691v20.4452705c0,4.3230991-4.2476196,7.8627872-9.4391785,7.8627872H226.7080231
		c-5.1915436,0-9.4391632-3.5396881-9.4391632-7.8627872V9.1225691c0-4.3325453,4.2476196-7.8722334,9.4391632-7.8722334H373.335907
		C378.5274658,1.2503357,382.7750854,4.7900238,382.7750854,9.1225691z"/>
	<path class="st1" d="M382.7750854,9.1225691v20.4452705c0,4.3230991-4.2476196,7.8627872-9.4391785,7.8627872H256.6018066
		c-5.1915588,0-9.4391785-3.5396881-9.4391785-7.8627872V9.1225691c0-4.3325453,4.2476196-7.8722334,9.4391785-7.8722334H373.335907
		C378.5274658,1.2503357,382.7750854,4.7900238,382.7750854,9.1225691z"/>
	<path class="st2" d="M352.5697632,9.1225691v20.4452705c0,4.3230991-4.2476501,7.8627872-9.4391785,7.8627872h-86.5287781
		c-5.1915588,0-9.4391785-3.5396881-9.4391785-7.8627872V9.1225691c0-4.3325453,4.2476196-7.8722334,9.4391785-7.8722334h86.5287781
		C348.322113,1.2503357,352.5697632,4.7900238,352.5697632,9.1225691z"/>
	<path class="st3" d="M453.2449951,174.9687653l-66.5461426,410.1224365
		c-1.2840576,7.8722534-8.0799866,13.6584473-16.0562744,13.6584473H229.3571777
		c-0.7173767,0-1.415863-0.0471802-2.1143494-0.1416016c-7.032135-0.9155273-12.771225-6.3525391-13.9416809-13.5168457
		l-66.5461273-410.1224365c-3.5396881-21.7949982,13.2904205-41.5700684,35.3685303-41.5700684h235.7526703
		C439.9545593,133.3986969,456.784668,153.1737671,453.2449951,174.9687653z"/>
	<path class="st4" d="M453.2449951,174.9687653l-66.5461426,410.1224365
		c-1.2840576,7.8722534-8.0799866,13.6584473-16.0562744,13.6584473H296.686615
		c-0.7171631,0-1.415863-0.0471802-2.1141357-0.1416016c-7.0323792-0.9155273-12.7712097-6.3525391-13.9416809-13.5168457
		L214.084671,174.9687653c-3.5396881-21.7949982,13.2904205-41.5700684,35.3685455-41.5700684h168.4230042
		C439.9545593,133.3986969,456.784668,153.1737671,453.2449951,174.9687653z"/>
	<path class="st5" d="M385.282959,174.9687653l-66.5461121,410.1224365
		c-1.2840576,7.8722534-8.0799866,13.6584473-16.0562744,13.6584473h-5.9939575
		c-0.7171631,0-1.415863-0.0471802-2.1141357-0.1416016c-7.0323792-0.9155273-12.7712097-6.3525391-13.9416809-13.5168457
		L214.084671,174.9687653c-3.5396881-21.7949982,13.2904205-41.5700684,35.3685455-41.5700684h100.4609985
		C371.9925537,133.3986969,388.8226624,153.1737671,385.282959,174.9687653z"/>
	<path class="st6" d="M429.9678345,171.1931l-7.3812561,45.4873505l-0.9724731,5.9844513l-1.0384216,6.3714447
		l-5.9934998,36.9260254l-1.1236572,6.9377747l-1.557373,9.59021l-0.7171631,4.4363708l-45.8744507,282.7030945
		c-0.4908447,3.0110474-2.9732361,5.2670288-5.9842834,5.4935913c-0.1700745,0.0188599-0.3401489,0.0283203-0.5097351,0.0283203
		H241.2033844c-0.1981812,0-0.4058228-0.0094604-0.5945587-0.0283203c-2.9640198-0.2642822-5.408844-2.5108032-5.8994751-5.4935913
		l-45.8838959-282.7124939l-1.2271423-7.5702209l-1.0476074-6.4564209l-1.0667572-6.6074219l-4.7762756-29.4124146
		l-0.7173767-4.4269714l-1.5951691-9.7978668l-0.9533691-5.8900299L170.0510559,171.1931
		c-0.7835236-4.861145,1.3969727-8.2781677,2.7656097-9.8922272c1.3686371-1.6046753,4.3985596-4.3042603,9.31633-4.3042603
		h235.7528992c4.9177856,0,7.9476929,2.699585,9.3161011,4.3042603
		C428.5708618,162.9149323,430.7513733,166.331955,429.9678345,171.1931z"/>
	<path class="st4" d="M279.0167542,575.1517334h-37.8133698c-0.1981812,0-0.4058228-0.0094604-0.5945587-0.0283203
		c-2.9640198-0.2642822-5.408844-2.5108032-5.8994751-5.4935913l-45.8838959-282.7124939l-2.2747498-14.0266418
		l-5.8430328-36.0198364l-2.3125458-14.2248383L170.0510559,171.1931c-0.7835236-4.861145,1.3969727-8.2781677,2.7656097-9.8922272
		c1.3686371-1.6046753,4.3985596-4.3042603,9.31633-4.3042603h33.6224365
		c-2.0106659,5.5407867-2.6902618,11.6667938-1.6707611,17.9721527L279.0167542,575.1517334z"/>
	<path class="st7" d="M429.9678345,171.1931l-8.3537292,51.4718018l-8.1555786,50.2352448l-2.2745361,14.0265808
		l-45.8744507,282.7030945c-0.4908447,3.0110474-2.9732361,5.2670288-5.9842834,5.4935913
		c-0.1700745,0.0188599-0.3401489,0.0283203-0.5097351,0.0283203H320.341217l64.9320679-400.1829834
		c1.0195007-6.3053589,0.3396912-12.431366-1.6707458-17.9721527h34.2833557c4.9177856,0,7.9476929,2.699585,9.3161011,4.3042603
		C428.5708618,162.9149323,430.7513733,166.331955,429.9678345,171.1931z"/>
	<path class="st4" d="M417.9707031,76.025032c0.0092163,4.0588303-1.5670471,7.8817444-4.4269104,10.7512283
		c-2.7750549,2.775116-6.4373474,4.3514404-10.3549805,4.4553146c-0.1225891,0.0093918-0.2548828,0.0093918-0.3774719,0.0093918
		H194.9703674c-8.3443146,0-13.1770477-6.446907-13.1959381-14.8006058l-0.075592-39.3613434
		c-0.0094452-4.0588303,1.5670471-7.8722343,4.4269104-10.7417202c2.8600922-2.8695431,6.6641083-4.7856655,10.7229919-4.7951126
		h206.5668488c8.1173096,0.3586922,14.4703064,7.0038452,14.4795227,15.1215076L417.9707031,76.025032z"/>
	<path class="st3" d="M365.1113586,76.0273972c0.0092163,4.0588303-1.5670471,7.8817368-4.4269104,10.7512207
		c-2.7750549,2.7751236-6.4373474,4.3514481-10.3549805,4.4552612c-0.1225891,0.0094528-0.2548523,0.0094528-0.3774719,0.0094528
		H194.9703674c-8.3443146,0-13.1770477-6.4469147-13.1959381-14.8006134l-0.075592-39.3613396
		c-0.0094452-4.0588303,1.5670471-7.8722324,4.4269104-10.7417774c2.8600922-2.8694859,6.6641083-4.7856064,10.7229919-4.7950554
		h153.7075043c8.1173096,0.3586941,14.4703064,7.0038471,14.4795227,15.1215076L365.1113586,76.0273972z"/>
	<path class="st5" d="M365.1113586,76.0273972c0.0092163,4.0588303-1.5670471,7.8817368-4.4269104,10.7512207
		c-2.7750549,2.7751236-6.4373474,4.3514481-10.3549805,4.4552612c-0.1225891,0.0094528-0.2548523,0.0094528-0.3774719,0.0094528
		H247.8296967c-8.3442993,0-13.1770325-6.4469147-13.1959381-14.8006134l-0.0755768-39.3613396
		c-0.0094604-4.0588303,1.5670471-7.8722324,4.4269104-10.7417774c2.8600922-2.8694859,6.6641083-4.7856064,10.7229919-4.7950554
		h100.8481598c8.1173096,0.3586941,14.4703064,7.0038471,14.4795227,15.1215076L365.1113586,76.0273972z"/>
	<path class="st6" d="M394.4009094,61.4155807c0,3.4830551-2.8128662,6.3148041-6.3050842,6.3242569l-23.0222473,0.037735
		l-79.6286926,0.113266h-2.6902771l-47.9415588,0.1038132l-23.1920929,0.056633
		c-3.4924469,0.0094528-6.3147583-2.812851-6.3242035-6.3053551l-0.0283356-9.996048
		c-0.0094604-3.4830551,2.812851-6.3148041,6.2960815-6.3242531l23.2485504-0.056633l36.6618042-0.0849762l13.9700317-0.0188408
		l79.6286926-0.113266l22.974762-0.0377922c2.4353943-0.009449,4.5499878,1.3686905,5.5975952,3.3886871
		c0.0944824,0.169899,0.1792908,0.3492432,0.2548828,0.5380402c0.075592,0.16045,0.1322937,0.3209,0.1889648,0.5002441
		c0.1792908,0.5946732,0.2829895,1.2270813,0.2829895,1.8783875L394.4009094,61.4155807z"/>
	<g>
		<polygon class="st2" points="346.1952209,91.1901016 346.1952209,133.4303741 253.3767548,133.4351349 253.3767548,91.1948471 
			304.0091858,91.0910339 		"/>
		<path class="st1" d="M378.1311035,133.4303741l-37.2471619-0.0127258c-2.5406494-0.0007629-4.599823-2.0605927-4.599823-4.6012421
			V95.9788971c0-2.6550217,2.1478882-4.8096848,4.802887-4.8180542l17.2718201-0.0603943l19.7408447,0.089653v0.151062
			L378.1311035,133.4303741z"/>
		<path class="st0" d="M260.0010681,133.4183502h-38.0882111V91.1731567h38.0882111
			c2.6810303,0,4.8544617,2.1734161,4.8544617,4.8544617v32.5362701
			C264.8555298,131.2449341,262.6820984,133.4183502,260.0010681,133.4183502z"/>
	</g>
	<path class="st4" d="M234.574295,45.3689957v22.6256561l-22.9533386,0.056633
		c-3.4924469,0.0094528-6.3147583-2.812851-6.3242035-6.3053551l-0.0283356-9.996048
		c-0.0094604-3.4830551,2.812851-6.3148041,6.2960815-6.3242531L234.574295,45.3689957z"/>
	<path class="st7" d="M394.4009094,61.4155807c0,3.4830551-2.8128662,6.3148041-6.3050842,6.3242569l-23.000061,0.037735V45.1519127
		l22.9525757-0.0377922c2.4353943-0.009449,4.5499878,1.3686905,5.5975952,3.3886871
		c0.0944824,0.169899,0.1792908,0.3492432,0.2548828,0.5380402c0.075592,0.16045,0.1322937,0.3209,0.1889648,0.5002441
		c0.1792908,0.5946732,0.2829895,1.2270813,0.2829895,1.8783875L394.4009094,61.4155807z"/>
	<path class="st8" d="M422.5865784,216.6804504l-0.9724731,5.9844513l-1.0384216,6.3714447l-5.9934998,36.9260254
		l-1.1236572,6.9377747l-1.557373,9.59021l-0.7171631,4.4363708l-45.8744507,282.7030945
		c-0.4908447,3.0110474-2.9732361,5.2670288-5.9842834,5.4935913c-0.1700745,0.0188599-0.3401489,0.0283203-0.5097351,0.0283203
		H241.2033844c-0.1981812,0-0.4058228-0.0094604-0.5945587-0.0283203c-2.9640198-0.2642822-5.408844-2.5108032-5.8994751-5.4935913
		l-45.8838959-282.7124939l-1.2271423-7.5702209l-1.0476074-6.4564209l-1.0667572-6.6074219
		c46.0537415-3.1715393,73.4178772-16.1032104,97.6103516-28.9215698
		c5.6257019-2.9922485,11.0818176-5.9655609,16.5563354-8.8067474c21.0874329-10.9588623,42.532959-19.992157,75.456665-20.0487823
		C396.138031,208.4778137,411.2028809,211.7154388,422.5865784,216.6804504z"/>
	<path class="st9" d="M375.1261902,221.7115479c19.8033447-0.0283508,34.3114624,2.8412018,45.4494934,7.3247986
		l-5.9934998,36.9260254l-1.1236572,6.9377747l-1.557373,9.59021l-0.7171631,4.4363708l-45.8744507,282.7030945
		c-0.4908447,3.0110474-2.9732361,5.2670288-5.9842834,5.4935913c-0.1700745,0.0188599-0.3401489,0.0283203-0.5097351,0.0283203
		H241.2033844c-0.1981812,0-0.4058228-0.0094604-0.5945587-0.0283203c-2.9640198-0.2642822-5.408844-2.5108032-5.8994751-5.4935913
		l-45.8838959-282.7124939l-1.2271423-7.5702209c53.1803589-4.0682983,81.1390533-21.257019,108.6730194-35.8122101
		c5.4086304-2.8600922,10.7983704-5.6068726,16.3581543-8.1460114
		C329.921875,227.5072021,348.8757935,221.758728,375.1261902,221.7115479z"/>
	<path class="st10" d="M178.3951263,222.6460114l-0.9533691-5.8900299
		c5.4842224-2.3409576,11.8084106-4.2948151,19.2277069-5.6729431c0.0186615,0,0.0472412-0.0094604,0.0659027-0.0094604
		c7.8251038-1.4630585,16.8679047-2.3031616,27.411377-2.322052c32.914505-0.0566254,54.3885956,8.9105835,75.503891,19.803421
		c4.3043213,2.2181702,8.5989685,4.5118866,12.9788513,6.8339386
		c25.2686768,13.4130859,53.1990356,27.477417,101.9526978,30.5734863l-1.1236572,6.9377747l-1.557373,9.59021l-0.7171631,4.4363708
		l-45.8744507,282.7030945c-0.4908447,3.0110474-2.9732361,5.2670288-5.9842834,5.4935913
		c-0.1700745,0.0188599-0.3401489,0.0283203-0.5097351,0.0283203H241.2033844c-0.1981812,0-0.4058228-0.0094604-0.5945587-0.0283203
		c-2.9640198-0.2642822-5.408844-2.5108032-5.8994751-5.4935913l-45.8838959-282.7124939l-1.2271423-7.5702209l-1.0476074-6.4564209
		l-1.0667572-6.6074219l-4.7762756-29.4124146l-0.7173767-4.4269714L178.3951263,222.6460114z"/>
	<path class="st8" d="M411.9037476,282.4903564l-0.7171631,4.4363708l-42.8634033,264.1551208l-3.0110474,18.5479736
		c-0.4622803,2.8317261-2.6902466,4.9933472-5.4556274,5.4274902c-0.1792908,0.0283813-0.3682556,0.0566406-0.5567627,0.0661011
		c-0.1700745,0.0188599-0.3401489,0.0283203-0.5097656,0.0283203H241.2059784c-0.1981812,0-0.4055939-0.0094604-0.5945587-0.0283203
		c-2.9640198-0.2642822-5.4086151-2.5108032-5.8994751-5.4935913l-3.0110474-18.5479736l-42.8726196-264.1645203
		l-1.2273712-7.5702209l-1.0476227-6.4564209l-1.0665131-6.6074219l-4.7762756-29.4124146l-0.7171478-4.4269714
		c10.9490662-4.2381897,25.1078186-6.9472198,44.1843414-6.9755707c24.4381256-0.037735,42.5615082,4.8894958,58.9192047,11.8933868
		c4.4932861,1.9161224,8.8542786,3.9927521,13.1770325,6.1732025c21.3800964,10.7512207,41.7969055,23.8527985,72.6631775,32.008194
		c0.3396606,0.0849609,0.6793518,0.1793518,1.0195007,0.2643127c0.565979,0.141571,1.1420898,0.2926331,1.7177429,0.4341736
		c3.1244202,0.7834778,6.3617859,1.5197449,9.722168,2.1805115c0.7365112,0.151001,1.4725647,0.2926025,2.2275085,0.4341431
		c0.5097656,0.1038208,1.0195007,0.1982422,1.5481567,0.2831726c0.5950317,0.1132813,1.1799011,0.2171326,1.7841492,0.3209534
		c0.8305359,0.151001,1.6610718,0.2926331,2.5109558,0.4247742c1.2176819,0.1981812,2.4538269,0.3869934,3.7092896,0.5757751
		c1.0858765,0.1604614,2.1805115,0.3115234,3.2848206,0.453064c0.6890259,0.0944214,1.3877563,0.1793518,2.0957031,0.2737732
		c1.415863,0.1698914,2.8409729,0.3398132,4.2946167,0.4908142c0.6323547,0.0660706,1.2743835,0.1321411,1.9164124,0.1982422
		c0.6037903,0.0566101,1.2080078,0.1132507,1.8214722,0.1698914c0.7365112,0.075531,1.4822388,0.1416016,2.2279663,0.1982422
		c0.7457275,0.0660706,1.5007019,0.1227112,2.2653198,0.1793518c0.2640991,0.0282898,0.528656,0.0471802,0.7927551,0.0660706
		H411.9037476z"/>
	<path class="st9" d="M422.5580139,216.6804504l-0.9720459,5.9844513l-1.0383911,6.3714447l-5.9939575,36.9260254
		l-1.1231995,6.9377747l-1.557373,9.59021l-0.7176208,4.4363708l-45.8744507,282.7030945
		c-0.490387,3.0110474-2.9732361,5.2670288-5.9842834,5.4935913c-0.1696167,0.0188599-0.3396912,0.0283203-0.5097656,0.0283203
		h-38.4645996l48.6117249-299.6086426l2.6054382-16.0371399l6.1257935-37.7755737l2.1427002-13.1675873
		C398.3936462,208.9875031,412.0426331,212.0930328,422.5580139,216.6804504z"/>
	<path class="st11" d="M420.5475769,229.0363464l-5.9939575,36.9260254l-1.1231995,6.9377747l-1.557373,9.59021
		l-0.7176208,4.4363708l-45.8744507,282.7030945c-0.490387,3.0110474-2.9732361,5.2670288-5.9842834,5.4935913
		c-0.1696167,0.0188599-0.3396912,0.0283203-0.5097656,0.0283203h-38.4645996l48.6117249-299.6086426l2.6054382-16.0371399
		l6.1257935-37.7755737C396.1661377,221.9380798,409.9003906,224.7414856,420.5475769,229.0363464z"/>
	<path class="st8" d="M414.5536194,265.9623718l-1.1231995,6.9377747l-1.557373,9.59021l-0.7176208,4.4363708
		l-45.8744507,282.7030945c-0.490387,3.0110474-2.9732361,5.2670288-5.9842834,5.4935913
		c-0.1696167,0.0188599-0.3396912,0.0283203-0.5097656,0.0283203h-38.4645996l48.6117249-299.6086426l2.6054382-16.0371399
		C383.9611206,262.6208496,398.072876,264.9145813,414.5536194,265.9623718z"/>
	<path class="st9" d="M411.8756409,282.4903564l-0.7171631,4.4363708l-42.8634033,264.1551208l-3.0110474,18.5479736
		c-0.4060669,2.4730225-2.1427002,4.4364014-4.4176941,5.1821289c-0.3304749,0.1132813-0.6701355,0.1887207-1.0098267,0.2453613
		c-0.1792908,0.0283813-0.3682556,0.0566406-0.5567627,0.0661011c-0.1700745,0.0188599-0.3401489,0.0283203-0.5097656,0.0283203
		h-38.4645996l3.9074707-24.0698853l44.7042542-275.5387573c0.3396606,0.0849609,0.6793518,0.1793518,1.0195007,0.2643127
		c0.565979,0.151001,1.1420898,0.2926331,1.7177429,0.4341736c3.1244202,0.7834778,6.3617859,1.5197449,9.722168,2.1805115
		c0.7365112,0.151001,1.4725647,0.2926025,2.2275085,0.4341431c0.5097656,0.1038208,1.0195007,0.1982422,1.5481567,0.2831726
		c0.5853577,0.1132813,1.1799011,0.2171326,1.7841492,0.3209534c0.8305359,0.151001,1.6610718,0.2926331,2.5109558,0.4247742
		c1.2176819,0.1981812,2.4538269,0.3964233,3.7092896,0.5757751c1.0858765,0.1604614,2.1805115,0.3115234,3.2848206,0.453064
		c0.6987305,0.0944214,1.3969727,0.1888123,2.0957031,0.2737732c1.415863,0.1698914,2.8409729,0.3398132,4.2946167,0.4908142
		c0.6323547,0.0660706,1.2743835,0.1321411,1.9164124,0.1982422c0.6037903,0.0660706,1.2080078,0.1227112,1.8214722,0.1698914
		c0.7365112,0.075531,1.4822388,0.1416016,2.2279663,0.1982422c0.7457275,0.0660706,1.5007019,0.1321106,2.2653198,0.1793518
		C411.3469849,282.4525757,411.6115417,282.4714661,411.8756409,282.4903564z"/>
	<circle class="st9" cx="245.1961365" cy="278.7618713" r="29.2614193"/>
	<circle class="st9" cx="299.9432983" cy="309.4391785" r="15.1026688"/>
	<circle class="st9" cx="261.2820435" cy="341.9649658" r="9.4784899"/>
	<circle class="st9" cx="336.2841187" cy="463.9269104" r="29.2614193"/>
	<circle class="st9" cx="265.2089844" cy="483.2305908" r="15.1026688"/>
	<circle class="st9" cx="266.2436829" cy="432.8937378" r="9.4784899"/>
	<path class="st9" d="M368.3231812,551.0818481l-3.0110474,18.5479736
		c-0.4622803,2.8317261-2.6902466,4.9933472-5.4556274,5.4274902c-0.1792908,0.0283813-0.3682556,0.0566406-0.5567627,0.0661011
		c-0.1700745,0.0188599-0.3401489,0.0283203-0.5097656,0.0283203H241.2059784c-0.1981812,0-0.4055939-0.0094604-0.5945587-0.0283203
		c-2.9640198-0.2642822-5.4086151-2.5108032-5.8994751-5.4935913l-3.0110474-18.5479736H368.3231812z"/>
	<path class="st11" d="M368.3231812,551.0818481l-3.0110474,18.5479736
		c-0.4055786,2.4824829-2.1615906,4.4458618-4.4458008,5.1821289c-0.3304749,0.1132813-0.6701355,0.1887207-1.0098267,0.2453613
		c-0.1792908,0.0283813-0.3682556,0.0566406-0.5567627,0.0661011c-0.1700745,0.0188599-0.3401489,0.0283203-0.5097656,0.0283203
		h-38.4645996l3.9074707-24.0698853H368.3231812z"/>
</g>
</svg>
