<?xml version="1.0" encoding="utf-8"?>
<!-- Generator: Adobe Illustrator 22.1.0, SVG Export Plug-In . SVG Version: 6.00 Build 0)  -->
<svg version="1.1" id="Layer_1" xmlns="http://www.w3.org/2000/svg" xmlns:xlink="http://www.w3.org/1999/xlink" x="0px" y="0px"
	 viewBox="0 0 600 600" style="enable-background:new 0 0 600 600;" xml:space="preserve">
<style type="text/css">
	.st0{fill:#DDEEDB;}
	.st1{fill:#F3F7DE;}
	.st2{fill:#C4E5DC;}
	.st3{fill:#AADCD9;}
	.st4{fill:#9ED3D7;}
	.st5{fill:#5E5EE5;}
	.st6{fill:#4F3DD3;}
	.st7{fill:#7979F2;}
	.st8{fill:#3131AF;}
	.st9{opacity:0.3;fill:#FFFFFF;enable-background:new    ;}
	.st10{fill:#FFDD9D;}
	.st11{fill:#FFC98F;}
	.st12{fill:#E7EAD0;}
</style>
<g>
	<path class="st0" d="M475.4755249,258.2207642c-0.1096802,0.6678162-0.2376404,1.3447571-0.3658447,2.0125122
		L412.585144,576.5147095c-2.2686157,11.4803467-12.3400269,19.7498779-24.0399475,19.7498779H211.4549408
		c-11.6999359,0-21.7715454-8.2695313-24.0401611-19.7498779l-62.5245514-316.2814331
		c-0.1371231-0.6677551-0.2559357-1.344696-0.3658142-2.0125122c-4.4090271-26.3727417,8.4890747-52.6449432,31.5686798-66.1560516
		l43.3691254-25.4031525c12.367691-7.2541199,23.0157318-16.8409271,31.4407196-28.1017456
		c8.4158325-11.2608032,14.5996857-24.1773376,18.0483856-38.1001053H351.048584
		c3.4487,13.9227676,9.632782,26.8393021,18.0486145,38.1001053c5.9640808,7.9768219,13.0446167,15.1120148,21.0671692,21.1677704
		c3.3021851,2.5064697,6.7600403,4.8117065,10.3733215,6.9339752l30.3338928,17.764801l11.7088623,6.8607635l1.3265991,0.7775879
		C466.9866638,205.5758209,479.8847656,231.8480225,475.4755249,258.2207642z"/>
	<path class="st1" d="M390.3242798,188.598938c-0.1371765,0.8049927-0.2744141,1.6100006-0.4390564,2.4149933
		L314.1057129,572.802002c-2.5247803,12.7335815-13.0628662,22.164856-25.7415466,23.4638062h-76.9046631
		c-11.7090912,0-21.7806549-8.2694702-24.0401611-19.7498779l-62.5335999-316.2814331
		c-0.1280823-0.6677551-0.2470093-1.3446655-0.3567734-2.0124512c-4.4091949-26.3728027,8.4890823-52.6450043,31.5686874-66.1560974
		l43.3600769-25.4031677c7.6108398-4.4640656,14.5814362-9.8154449,20.7652283-15.8895264
		c2.9455719-2.8906555,5.7082062-5.9459991,8.2969513-9.1476898c0.8141632-1.0062256,1.6100006-2.0307617,2.3875427-3.0644531
		c3.6499786-4.884903,6.8790741-10.08078,9.6508484-15.5328217c3.6132965-7.1260376,6.4491119-14.6820374,8.397583-22.5673447
		h102.0882111c1.9576111,7.8853073,4.793396,15.4413071,8.4067383,22.5673447
		c2.771759,5.4520416,6.000885,10.6479187,9.6507874,15.5328217c0.7684326,1.0336914,1.5643005,2.0582275,2.3784485,3.0644531
		c2.5796509,3.2108459,5.3513794,6.2570343,8.2969666,9.1476898c3.2565613,3.2016907,6.7143555,6.1838379,10.3917542,8.9555664
		C391.6598816,169.9833984,391.7696533,179.9544067,390.3242798,188.598938z"/>
	<path class="st2" d="M475.4755249,258.2207642c-0.1096802,0.6678162-0.2376404,1.3447571-0.3658447,2.0125122
		L412.585144,576.5147095c-2.2686157,11.4803467-12.3400269,19.7498779-24.0399475,19.7498779h-47.6229248
		c6.3026428-0.6494751,12.0748901-3.3023071,16.6029663-7.3822021c4.4275513-3.979248,7.665863-9.3306274,9.0105591-15.4869995
		h22.1648254c0.7776489,0,1.4543457-0.5488892,1.6008606-1.3172607l32.3554993-163.6522522l7.4094849-37.4780579
		l8.0866394-40.8901978l2.3141785-11.6998901l9.5686646-48.4278564l2.7626343-13.9319763l0.0364075-0.2012329
		c0.1098633-0.5488892,0.2103577-1.1068878,0.2927856-1.6557312c0.8417358-5.2965393-10.135498-23.4638519-22.6405334-37.9080353
		l0.100708-0.5214233c0.1645813-0.8049927,0.3108826-1.6100006,0.4390564-2.4149933
		c1.4454346-8.6445923,1.3355408-18.6155396-0.155426-28.8701172l11.7088623,6.8607635l1.3265991,0.7775879
		C466.9866638,205.5758209,479.8847656,231.8480225,475.4755249,258.2207642z"/>
	<path class="st3" d="M452.9768066,254.1421661c-0.0914307,0.5488434-0.1828918,1.1068878-0.3018188,1.6557312l-0.0366211,0.2012787
		l-2.7625732,13.9319153l-9.568512,48.427887l-2.3052368,11.6998596l-8.0865173,40.8901978l-7.409668,37.4780579
		l-32.3553772,163.6522522c-0.1554871,0.7684326-0.832428,1.3172607-1.6008606,1.3172607H211.4595032
		c-0.6311951,0-1.2075043-0.3659668-1.4636536-0.9147949c-0.0640411-0.1188965-0.1097717-0.2561646-0.1371918-0.4024658
		l-32.0078125-161.9141541l-16.5847168-83.8660278l-2.3235474-11.763916l-8.1505737-41.2103882l-2.7351532-13.8404236
		l-0.722702-3.6865387c-0.1097717-0.5488434-0.2195282-1.1068878-0.2927246-1.6557312
		c-2.6985321-16.8683472,5.6807251-33.5994568,20.4176483-42.2348785l39.069809-22.8783875l4.4915009-2.6345367
		c14.9656525-8.7817688,27.8090057-20.2621613,38.2007599-34.1300354c2.5796661-3.4487,4.9671936-6.9980011,7.162674-10.6387634
		c3.5401306-5.8636475,6.5954895-11.9651947,9.1476746-18.2953873h68.9461365
		c2.5521851,6.3301926,5.6075439,12.4317398,9.1477051,18.2953873c2.1954651,3.6407623,4.5830078,7.1900635,7.1535034,10.6296082
		c10.3643494,13.8770294,23.2168579,25.3665314,38.2007751,34.1391907l1.5368042,0.9056091l42.0061646,24.6073151
		C447.277832,220.5427094,455.6662292,237.2646637,452.9768066,254.1421661z"/>
	<path class="st2" d="M282.7977905,572.4805908h-72.7974091c-0.0730286-0.1188965-0.1188202-0.2561646-0.146286-0.4024658
		l-32.0077667-161.9141541l-16.5757141-83.8660278l-2.3235626-11.7639771l-8.1505127-41.2103577l-2.7351379-13.8404541
		l-0.7316437-3.6864929c-0.1098785-0.5488892-0.2106018-1.1068878-0.2927856-1.6557312
		c-2.6985321-16.8683319,5.6806793-33.5995026,20.4177094-42.2349243l39.0697479-22.8783264L282.7977905,572.4805908z"/>
	<path class="st4" d="M452.9729919,254.1419983c-0.0823059,0.5488434-0.1828918,1.1068268-0.2927856,1.6557312l-0.036499,0.2012177
		l-2.7626343,13.9319611l-9.5684509,48.427887l-2.3143921,11.6998901l-8.0865173,40.8901978l-1.0976868,5.5617981
		l-0.7959595,4.0066528l-5.5160828,27.9096069l-27.1319885,137.2245483l-1.4454041,7.3181152l-3.7778931,19.1095581
		c-0.1463928,0.7683716-0.8234253,1.3172607-1.6008301,1.3172607h-74.5536804l5.4977722-27.7449341l45.4090271-229.1039734
		l25.6135559-129.2477112l42.0153809,24.6073151C447.2739868,220.5425415,455.6623535,237.2644958,452.9729919,254.1419983z"/>
	<path class="st5" d="M452.6429138,255.9978943l-2.7626343,13.9319763l-9.5684509,48.4278564l-2.3141479,11.6998901
		l-15.4963684,78.3682556L390.1460571,572.078125c-0.1465149,0.7683716-0.8234253,1.3172607-1.6008606,1.3172607H211.4549408
		c-0.77742,0-1.4545593-0.5488892-1.6008453-1.3172607l-32.0077667-161.9141541l-16.5757141-83.8660278l-2.3235626-11.7639771
		l1.4911957-1.9301453c57.4109192-3.5036011,88.9063568-20.1157837,119.1395416-36.3163452
		c0.3019409-0.1646729,0.6128235-0.3293152,0.9147644-0.4939575c2.7443237-1.463623,5.4703064-2.9272766,8.1871338-4.3634644
		c2.0673828-1.0976868,4.1439514-2.1771545,6.2296448-3.2474365c23.4822693-12.0566406,48.4369812-22.4118347,84.3966064-23.9669647
		c2.9455261-0.1280212,5.9734802-0.1920624,9.0744324-0.2012177h0.4207764
		C414.5245667,244.0144348,435.4637451,247.9387817,452.6429138,255.9978943z"/>
	<path class="st6" d="M449.8802795,269.9298706l-9.5684509,48.4278564l-2.3141479,11.6998901l-15.4963684,78.3682556
		L390.1460571,572.078125c-0.1465149,0.7683716-0.8234253,1.3172607-1.6008606,1.3172607H211.4549408
		c-0.77742,0-1.4545593-0.5488892-1.6008453-1.3172607l-32.0077667-161.9141541l-16.5757141-83.8660278
		c66.3301392-4.0524292,100.3412018-25.0372314,133.8216095-42.7380676
		c5.0129395-2.6436768,10.0075378-5.2232971,15.1028748-7.6474304
		c18.9814453-9.0653381,39.2709656-16.1731262,66.4031677-17.8106079c3.7962036-0.237793,7.7297363-0.35672,11.8095703-0.3658752
		C416.6926575,257.6902466,435.8570251,262.6574402,449.8802795,269.9298706z"/>
	<path class="st7" d="M440.3118286,318.3577271l-2.3141479,11.6998901l-15.4963684,78.3682556L390.1460571,572.078125
		c-0.1465149,0.7683716-0.8234253,1.3172607-1.6008606,1.3172607H211.4549408c-0.77742,0-1.4545593-0.5488892-1.6008453-1.3172607
		l-32.0077667-161.9141541l-16.5757141-83.8660278l-2.3235626-11.7639771l-8.1505127-41.2103577l-2.7351379-13.8404541
		c16.7586212-7.3730316,36.9748993-10.9772339,61.6647186-11.0229492h0.4024506
		c36.636322,0,62.6159058,9.1202698,84.7807617,19.7224121c2.1497803,1.0336914,4.2627258,2.0673828,6.3484497,3.1193848
		c2.9821472,1.5001831,5.9734497,3.0552979,8.9373169,4.6104431c2.5430603,1.3355713,5.0678406,2.6802673,7.5559998,3.9975281
		c15.3040466,8.141449,30.8734436,16.4109497,49.87323,23.0613403
		c19.1369019,6.7052307,41.7684937,11.7547607,71.1324463,13.3830872L440.3118286,318.3577271z"/>
	<path class="st5" d="M437.99823,330.0586853l-8.0865173,40.8901978l-1.0976868,5.5617981l-0.7959595,4.0066528
		l-5.5160828,27.9096069l-27.1319885,137.2245483l-1.4454041,7.3181152l-3.7778931,19.1095581
		c-0.1463928,0.7683716-0.8234253,1.3172607-1.6008301,1.3172607H211.4556274c-0.7775269,0-1.4544525-0.5488892-1.6008453-1.3172607
		l-3.7779999-19.1095581l-1.4452972-7.3181152l-26.7844696-135.4864807l-16.5756073-83.8660278l-2.3234406-11.763916
		l-8.1507416-41.2103882c13.7673187-6.6320801,32.3005524-11.0961609,58.9569397-11.1418762
		c28.9707794-0.0457153,50.4403839,5.8088074,69.824295,14.1057129c5.2965393,2.2595215,10.4283752,4.7110901,15.5145569,7.2724304
		c21.368988,10.7485352,41.9238281,23.4821777,69.8059692,32.9865723
		C384.6397705,323.2893677,408.0395508,328.3937988,437.99823,330.0586853z"/>
	<path class="st6" d="M452.6429138,255.9978943l-2.7626343,13.9319763l-9.5684509,48.4278564l-2.3141479,11.6998901
		l-15.4963684,78.3682556L390.1460571,572.078125c-0.1465149,0.7683716-0.8234253,1.3172607-1.6008606,1.3172607h-74.4806519
		l5.4977722-27.7449951l59.7436218-301.4347534c2.9455261-0.1280212,5.9734802-0.1920624,9.0744324-0.2012177h0.4207764
		C414.5245667,244.0144348,435.4637451,247.9387817,452.6429138,255.9978943z"/>
	<path class="st8" d="M449.8802795,269.9298706l-9.1842957,46.4794006l-0.3841553,1.9484558l-2.3141479,11.6998901
		l-15.4963684,78.3682556L390.1460571,572.078125c-0.1465149,0.7683716-0.8234253,1.3172607-1.6008606,1.3172607H314.110321
		l5.4886169-27.7449951l48.0986328-242.6516724l8.9006958-44.8968811c3.7962036-0.237793,7.7297363-0.35672,11.8095703-0.3658752
		C416.6926575,257.6902466,435.8570251,262.6574402,449.8802795,269.9298706z"/>
	<path class="st5" d="M440.6959839,316.4092712l-0.3841553,1.9484558l-2.3141479,11.6998901l-15.4963684,78.3682556
		L390.1460571,572.078125c-0.1465149,0.7683716-0.8234253,1.3172607-1.6008606,1.3172607h-74.5170593l5.4975586-27.7449951
		l48.0986328-242.6790771c0.0274658,0.0091553,0.0457764,0.0182495,0.0732422,0.0274048
		C386.8070068,309.6856995,411.4052734,314.7809753,440.6959839,316.4092712z"/>
	<path class="st6" d="M437.99823,330.0586853l-8.0865173,40.8901978l-1.0976868,5.5617981l-6.3120422,31.9162598
		l-27.1319885,137.2245483l-1.4454041,7.3181152l-3.7778931,19.1095581
		c-0.1463928,0.7683716-0.8234253,1.3172607-1.6008301,1.3172607h-74.5536804l4.0432129-20.4268188l1.4545593-7.3181152
		l45.4090271-229.1039734C384.6397705,323.2893677,408.0395508,328.3937988,437.99823,330.0586853z"/>
	<path class="st6" d="M393.9239197,552.9685669l-3.7778625,19.1095581
		c-0.1465149,0.7683716-0.8234253,1.3172607-1.6008606,1.3172607H211.4549408c-0.77742,0-1.4545593-0.5488892-1.6008453-1.3172607
		l-3.7781067-19.1095581H393.9239197z"/>
	<path class="st8" d="M393.9239197,552.9685669l-3.7778625,19.1095581
		c-0.1465149,0.7683716-0.8234253,1.3172607-1.6008606,1.3172607h-74.5536804l4.0432129-20.4268188H393.9239197z"/>
	<circle class="st6" cx="225.8574829" cy="345.4099121" r="28.3578434"/>
	<circle class="st6" cx="281.0423279" cy="328.9154968" r="14.6363068"/>
	<path class="st9" d="M260.217041,211.9975128c-7.546814,6.2936249-15.6241913,11.9743042-24.2047272,17.0055237
		l-4.5280609,2.6528625l-34.5691681,20.2438354l10.4923859,53.0566254l11.61763,59.4142456l0.8233185,4.1164856
		l10.1904297,50.961731c1.4545593,7.2724304-3.2565308,14.3436279-10.529007,15.7980957
		c-0.8872986,0.1737976-1.7745972,0.2652588-2.6527405,0.2652588c-6.2662659,0-11.8645325-4.4091492-13.1452332-10.7942505
		l-11.2425385-56.230835l-3.3297729-16.6579895l-8.6536865-41.5487976l-11.6175232-58.7556
		c-0.0549469-0.2378387-0.091568-0.4391174-0.1190338-0.6311798l-0.0365143-0.2196045
		c-0.1006165-0.6402893-0.1647186-1.2897949-0.1921844-1.9301453c-0.3475037-7.0711517,3.5128021-14.0783081,10.0351105-17.8928833
		l0.6860657-0.4024963l38.374527-22.4758911l4.5098572-2.643631c7.2082825-4.2262878,13.9960175-8.9922028,20.3444672-14.2795868
		c3.8969269-3.238266,9.2208252-4.1530457,13.9319153-2.2869263
		C266.0350952,192.5860901,268.1755981,205.3562775,260.217041,211.9975128z"/>
	<circle class="st6" cx="276.8378601" cy="377.6979675" r="9.1857977"/>
	<circle class="st6" cx="330.5958252" cy="497.1973572" r="28.3578434"/>
	<circle class="st6" cx="263.4362793" cy="473.0296631" r="14.6363068"/>
	<circle class="st6" cx="305.9502563" cy="433.6376343" r="9.1857977"/>
	<g>
		<path class="st10" d="M364.318573,25.5565243l-7.8172302,43.3921356
			c0.0092773,5.7264099-1.8014526,10.9067993-4.7125549,14.5820541c-3.1698303,3.384964-7.6765137,5.5127945-12.6494141,5.5208359
			l-79.3086243,0.1283646c-9.5690613,0.0154877-17.4071198-7.7972336-17.4226227-17.3663788l-7.8208313-47.6208954
			c-1.094986-6.6673203,1.6001282-13.5101938,7.1890106-17.3070793c2.7742615-1.8847275,6.1157532-2.9906158,9.7042084-2.9964242
			l95.7329559-0.1549439c2.4863586-0.0040243,4.8579102,0.5222154,7.0054321,1.4712696
			c4.1937256,1.8533249,7.2955933,5.5019917,8.8855591,9.8024826c0.6918335,1.8712397,1.1702576,3.9049292,1.3932495,6.0448084
			C364.6541443,22.5536709,364.5861206,24.0713921,364.318573,25.5565243z"/>
		<path class="st11" d="M364.3267822,25.5108604l-7.8254395,43.4378014
			c0.0092773,5.7264099-1.8014526,10.9067993-4.7125549,14.5820541c-2.8475037,3.0399857-6.7623291,5.0591736-11.1318359,5.4430313
			c-0.4951172,0.0546036-1.0009155,0.076973-1.5175781,0.0778046l-21.3556519,0.0345612
			c8.2882385-0.0134125,15.0548706-9.0661011,15.0369873-20.0991211l8.1390686-45.1786575
			c-0.0178223-11.03302-6.8137207-20.0529881-15.1019592-20.0395737l21.3556519-0.0345643
			c2.4863586-0.0040243,4.8579102,0.522218,7.0054321,1.4712803c4.1939087,1.8534102,7.2958679,5.502317,8.8857727,9.8030167
			c0.7558289,2.044486,1.256897,4.282876,1.4484253,6.6418047C364.6578369,22.939743,364.5561523,24.2376633,364.3267822,25.5108604
			z"/>
		<circle class="st11" cx="283.8865967" cy="56.8748627" r="11.4549618"/>
		<circle class="st11" cx="284.1294556" cy="18.7163258" r="6.4103117"/>
		<circle class="st11" cx="259.1836548" cy="31.5849724" r="12.5419226"/>
		<circle class="st11" cx="322.7850952" cy="31.5849724" r="8.4820795"/>
	</g>
	<path class="st1" d="M389.5755615,68.9309769v43.6893845c0,5.8728027-5.0312195,10.6753387-11.1875916,10.6753387H220.5536499
		c-6.1563721,0-11.1876068-4.802536-11.1876068-10.6753387V68.9309769c0-5.87286,5.0312347-10.675396,11.1876068-10.675396
		H378.38797C384.544342,58.2555809,389.5755615,63.0581169,389.5755615,68.9309769z"/>
	<path class="st0" d="M389.5755615,68.9309769v43.6893845c0,5.8728027-5.0312195,10.6753387-11.1875916,10.6753387h-74.352478
		c-6.458252,0-11.727356-4.802536-11.727356-10.6753387V68.9309769c0-5.87286,5.269104-10.675396,11.727356-10.675396h74.352478
		C384.544342,58.2555809,389.5755615,63.0581169,389.5755615,68.9309769z"/>
	<path class="st9" d="M237.689682,459.2902832l6.5944824,34.3014832
		c1.3958893,7.2776489-3.3704834,14.3130188-10.6568756,15.7117004c-6.7327271,1.2971191-13.2580719-2.6920471-15.3108521-9.0562439
		c-0.078598-0.2436523-0.1485291-0.4902649-0.2097321-0.7396851l-0.0140228-0.0434875l-6.6191559-34.4667053
		c-1.3984833-7.286438,3.3678894-14.3217773,10.6542664-15.720459
		C229.1881256,447.9223328,236.0242615,452.3687134,237.689682,459.2902832z"/>
	<path class="st12" d="M371.480072,141.6255646H228.5199127c0.8141632-1.0062256,1.6100006-2.0307617,2.3875427-3.0644531
		c3.6499786-4.884903,6.8790741-10.08078,9.6508484-15.5328217h118.8925323
		c2.771759,5.4520416,6.000885,10.6479187,9.6507874,15.5328217
		C369.8700562,139.5948029,370.6659241,140.619339,371.480072,141.6255646z"/>
	<path class="st4" d="M343.6253357,141.6255646h-87.2415161c3.5401306-5.8636475,6.5954895-11.9651947,9.1476746-18.2953873
		h68.9461365C337.0298157,129.6603699,340.0851746,135.7619171,343.6253357,141.6255646z"/>
</g>
</svg>
