<?xml version="1.0" encoding="utf-8"?>
<!-- Generator: Adobe Illustrator 22.1.0, SVG Export Plug-In . SVG Version: 6.00 Build 0)  -->
<svg version="1.1" id="Layer_1" xmlns="http://www.w3.org/2000/svg" xmlns:xlink="http://www.w3.org/1999/xlink" x="0px" y="0px"
	 viewBox="0 0 600 600" style="enable-background:new 0 0 600 600;" xml:space="preserve">
<style type="text/css">
	.st0{fill:#F3F7DE;}
	.st1{fill:#E7EAD0;}
	.st2{fill:#9ED3D7;}
	.st3{fill:#AADCD9;}
	.st4{fill:#FFDD9D;}
	.st5{fill:#FFC98F;}
	.st6{fill:#DDEEDB;}
	.st7{fill:#93C9C7;}
	.st8{fill:#C4E5DC;}
	.st9{fill:#F487AE;}
	.st10{fill:#EA6E95;}
	.st11{fill:#ED759D;}
	.st12{fill:#DD5E8E;}
	.st13{fill:#FF99C3;}
	.st14{fill:#FFBDDB;}
</style>
<rect x="234" y="106.8" class="st0" width="132.1" height="94.1"/>
<path class="st0" d="M554.4,304.2c0,42.6-18.1,83.4-49.5,112.1l-0.3,0.3c0,0-110.3,110.3-141,141c-2.9,2.9-0.8,7.8,3.3,7.8h3.6
	c8,0,14.6,6.5,14.6,14.6v13.9c0,3-2.4,5.4-5.4,5.4H220.4c-3,0-5.4-2.4-5.4-5.4v-13.8c0-8,6.5-14.6,14.6-14.6h3.8c4,0,6-4.8,3.2-7.7
	C206.1,527.2,95.4,416.5,95.4,416.5l-0.3-0.3c-31.5-28.7-49.5-69.5-49.5-112.1c0-83.6,68-151.5,151.6-151.5
	c12.5,0,24.9,1.5,36.8,4.5c0,0,0,0,0.1,0c10,2.5,19.7,6,28.9,10.5c13.2,6.4,25.5,14.7,36.5,24.8c0.1,0.1,0.3,0.3,0.4,0.4l0.2,0.2
	l0.2-0.2c18.8-17.4,41.5-29.5,65.9-35.6c11.9-3,24.3-4.5,36.8-4.5C486.5,152.7,554.4,220.6,554.4,304.2z"/>
<rect x="234" y="110.1" class="st1" width="132.1" height="22.4"/>
<path class="st2" d="M530.3,304.2c0,4.4-0.2,8.8-0.7,13.1c-0.7,6.2-1.8,12.3-3.3,18.4c-0.3,1-0.5,2-0.8,3c-1.1,3.9-2.4,7.7-3.8,11.4
	c-4.1,10.6-9.6,20.7-16.5,29.9c-4.5,6.1-9.5,11.7-15.1,17c-0.5,0.5-1,1-1.5,1.4L488,399L339.5,547.5C329,558,315,563.8,300.2,563.8
	h-0.3c-14.9,0-28.8-5.8-39.4-16.3L124.6,411.5L112,399l-0.6-0.6c-3.7-3.4-7.1-6.9-10.4-10.6c-11-12.6-19.3-27.2-24.6-43
	c-1.3-4-2.5-8-3.4-12.1c-0.2-0.8-0.3-1.5-0.5-2.3c-0.5-2.2-0.9-4.4-1.2-6.6c-1-6.4-1.5-13-1.5-19.6c0-11.3,1.5-22.3,4.3-32.8
	c1.8-6.9,4.3-13.6,7.2-20c20.1-44,64.5-74.6,115.9-74.6c14.8,0,29.2,2.5,42.8,7.4c1-8.5,9.6-15.2,20-15.2c1,0,2,0,3,0.2v-62.5H337
	v62.5c1-0.1,2-0.2,3-0.2c10.5,0,19.1,6.7,20,15.2c13.6-4.9,28.1-7.4,42.8-7.4c47.9,0,89.7,26.5,111.4,65.7v0
	c3.6,6.4,6.6,13.2,9,20.2C527.8,275.7,530.3,289.7,530.3,304.2z"/>
<path class="st2" d="M530.3,304.2c0,4.4-0.2,8.8-0.7,13.1c-0.6,6.2-1.7,12.4-3.3,18.4c-0.3,1-0.5,2-0.8,3c-1.1,3.9-2.4,7.7-3.8,11.4
	c-4.1,10.6-9.6,20.7-16.4,29.9c-4.5,6.1-9.5,11.7-15.1,17c-0.5,0.5-1,1-1.5,1.4L488,399L339.5,547.5C329,558,315,563.7,300.2,563.7
	h-0.3c-14.9,0-28.8-5.8-39.3-16.3L124.6,411.5L112,399l-0.6-0.6c-3.7-3.4-7.2-6.9-10.4-10.6c-11-12.6-19.3-27.2-24.6-43
	c-1.3-4-2.5-8-3.4-12.1c-0.2-0.8-0.3-1.5-0.5-2.3c-0.5-2.2-0.9-4.4-1.2-6.6c-1-6.4-1.5-13-1.5-19.6c0-11.3,1.5-22.3,4.3-32.8
	c1.8-6.9,4.3-13.6,7.2-20c20.1-44,64.5-74.6,115.9-74.6c32.1,0,62.8,12,86.3,33.7l16.6,15.3l16.6-15.3
	c23.6-21.8,54.2-33.7,86.3-33.7c47.9,0,89.7,26.5,111.4,65.7v0c3.6,6.4,6.6,13.2,9,20.2C527.8,275.7,530.3,289.7,530.3,304.2z"/>
<path class="st3" d="M299.8,549.2c-11,0-21.3-4.3-29.1-12L122,388.4l-0.9-0.8c-23.4-21.3-36.8-51.8-36.8-83.4
	c0-62.2,50.6-112.9,112.9-112.9c28.4,0,55.6,10.6,76.5,29.9l26.4,24.3l26.4-24.3c20.9-19.3,48.1-29.9,76.5-29.9
	c62.3,0,112.9,50.6,112.9,112.9c0,31.7-13.4,62.1-36.8,83.4l-0.9,0.8L329.3,537.2c-7.8,7.8-18.1,12-29.1,12H299.8z"/>
<path class="st3" d="M299.8,549.2c-11,0-21.3-4.3-29.1-12L121.9,388.4l-0.9-0.8c-23.4-21.3-36.8-51.8-36.8-83.4
	c0-62.2,50.6-112.9,112.9-112.9c28.4,0,55.6,10.6,76.5,29.9l26.4,24.3l26.4-24.3c20.9-19.3,48.1-29.9,76.5-29.9
	c62.3,0,112.9,50.6,112.9,112.9c0,31.7-13.4,62.1-36.8,83.4l-0.9,0.8L329.2,537.2c-7.8,7.8-18.1,12-29.1,12H299.8z"/>
<g>
	<path class="st4" d="M368.6,24.6l-8.3,45.8c0,6.1-1.9,11.5-5,15.4c-3.3,3.6-8.1,5.8-13.4,5.8l-83.8,0.1c-10.1,0-18.4-8.2-18.4-18.3
		l-8.3-50.3c-1.2-7,1.7-14.3,7.6-18.3c2.9-2,6.5-3.2,10.3-3.2l101.1-0.2c2.6,0,5.1,0.6,7.4,1.6c4.4,2,7.7,5.8,9.4,10.4
		c0.7,2,1.2,4.1,1.5,6.4C368.9,21.4,368.9,23,368.6,24.6z"/>
	<path class="st5" d="M368.6,24.5l-8.3,45.9c0,6.1-1.9,11.5-5,15.4c-3,3.2-7.1,5.3-11.8,5.8c-0.5,0.1-1.1,0.1-1.6,0.1l-22.6,0
		c8.8,0,15.9-9.6,15.9-21.2l8.6-47.7c0-11.7-7.2-21.2-16-21.2l22.6,0c2.6,0,5.1,0.6,7.4,1.6c4.4,2,7.7,5.8,9.4,10.4
		c0.8,2.2,1.3,4.5,1.5,7C368.9,21.8,368.8,23.2,368.6,24.5z"/>
	<circle class="st5" cx="283.6" cy="57.6" r="12.1"/>
	<circle class="st5" cx="283.9" cy="17.3" r="6.8"/>
	<circle class="st5" cx="257.5" cy="30.9" r="13.3"/>
	<circle class="st5" cx="324.7" cy="30.9" r="9"/>
</g>
<path class="st0" d="M391,69.7v29.1c0,6.2-5.1,11.3-11.3,11.3H220.6c-6.2,0-11.3-5.1-11.3-11.3V69.7c0-6.2,5.1-11.3,11.3-11.3h159.1
	C385.9,58.4,391,63.5,391,69.7z"/>
<path class="st6" d="M391,69.7v29.1c0,6.2-5.1,11.3-11.3,11.3h-69.9c-6.2,0-11.3-5.1-11.3-11.3V69.7c0-6.2,5.1-11.3,11.3-11.3h69.9
	C385.9,58.4,391,63.5,391,69.7z"/>
<rect x="262.9" y="110.1" class="st7" width="74.1" height="22.4"/>
<circle class="st0" cx="353.8" cy="168.6" r="16.8"/>
<path class="st0" d="M262.9,168.6c0,9.3-7.5,16.8-16.8,16.8c-4.8,0-9.1-2-12.2-5.2c-2.9-3-4.6-7.1-4.6-11.5c0-4.4,1.7-8.5,4.6-11.5
	c0,0,0,0,0.1,0v-0.1c3.1-3.2,7.4-5.2,12.2-5.2c8.9,0,16.2,7,16.7,15.8C262.9,168,262.9,168.3,262.9,168.6z"/>
<path class="st8" d="M445,317.4c0,16.8-7.1,33-19.6,44.4l-0.5,0.4L315.5,471.6c-4.1,4.1-9.6,6.4-15.5,6.4h-0.2
	c-5.8,0-11.3-2.3-15.5-6.4l-79.3-79.3l-12.2-12.2l-17.8-17.8l-0.5-0.4c-12.5-11.4-19.6-27.5-19.6-44.4c0-5,0.6-9.8,1.8-14.4
	c6.5-26.2,30.2-45.6,58.3-45.6c15.1,0,29.6,5.6,40.7,15.9l44.1,43l44.3-43.2c11.1-10.3,25.6-15.9,40.7-15.9
	c26.2,0,48.5,16.9,56.7,40.3c1.6,4.6,2.7,9.5,3.1,14.5C444.9,313.9,445,315.7,445,317.4z"/>
<path class="st8" d="M445,317.4c0,16.8-7.1,33-19.6,44.4l-0.5,0.4L315.5,471.6c-4.1,4.1-9.6,6.4-15.5,6.4h-0.2
	c-5.8,0-11.3-2.3-15.5-6.4l-79.3-79.3c39.7-9.2,68.5-23.8,95.1-37.9c5.5-2.9,11-5.9,16.4-8.7c34.4-18,68.3-33.5,121.9-33.6
	c2.1,0,4.2,0,6.2,0.1C444.9,313.9,445,315.7,445,317.4z"/>
<path class="st9" d="M529.6,317.3c-0.6,6.2-1.7,12.4-3.3,18.4c-0.3,1-0.5,2-0.8,3c-1.1,3.9-2.4,7.7-3.8,11.4
	c-4.1,10.6-9.6,20.7-16.4,29.9c-4.5,6.1-9.5,11.7-15.1,17c-0.5,0.5-1,1-1.5,1.4L488,399L339.5,547.5C329,558,315,563.7,300.2,563.7
	h-0.3c-14.9,0-28.8-5.8-39.3-16.3L124.6,411.5L112,399l-0.6-0.6c-3.7-3.4-7.2-6.9-10.4-10.6l14.1-0.1c86-0.7,131.6-21.2,178.3-46
	c2.1-1.1,4.3-2.3,6.4-3.4c3.4-1.8,6.7-3.6,10.1-5.4c35.2-18.5,71.6-35.1,128.7-35.2h0.5C476.4,297.7,506.1,304.1,529.6,317.3z"/>
<path class="st10" d="M115.2,402.1l145.3,145.3c10.5,10.5,24.5,16.3,39.3,16.3h0.3c14.9,0,28.8-5.8,39.3-16.3l135.9-135.9L488,399
	l0.6-0.6c16.2-14.7,28.1-33.2,35-53.6c1.3-4,2.5-8,3.4-12.1c-18.9-11.9-45.7-20.6-88.5-20.5c-53.6,0.1-87.6,15.5-121.9,33.6
	c-5.4,2.9-10.9,5.8-16.4,8.7C256.8,377.4,207.9,401.4,115.2,402.1z"/>
<path class="st11" d="M529.6,317.3c-0.6,6.2-1.7,12.4-3.3,18.4c-0.3,1-0.5,2-0.8,3c-1.1,3.9-2.4,7.7-3.8,11.4
	c-4.1,10.6-9.6,20.7-16.4,29.9c-4.5,6.1-9.5,11.7-15.1,17c-0.5,0.5-1,1-1.5,1.4L488,399L339.5,547.5C329,558,315,563.7,300.2,563.7
	h-0.3c-14.9,0-28.8-5.8-39.3-16.3L124.6,411.5L112,399l-0.6-0.6c-3.7-3.4-7.2-6.9-10.4-10.6l14.1-0.1c2,0,4,0,5.9-0.1
	c0,0,0,0,0.1,0.1l0.9,0.8l13.2,13.2c80-3.7,124.9-25.9,165-47.2c5.5-2.9,11-5.9,16.4-8.7c34.4-18,68.3-33.5,121.9-33.6
	c33.6-0.1,57.4,5.3,75.2,13.4c1-4.9,1.6-9.9,1.9-15C520.5,312.6,525.1,314.8,529.6,317.3z"/>
<path class="st12" d="M527,332.7c-0.9,4.1-2.1,8.1-3.4,12.1c-6.9,20.4-18.8,38.9-35,53.6L488,399L339.5,547.5
	C329,558,315,563.7,300.2,563.7h-0.3c-14.9,0-28.8-5.8-39.3-16.3L115.2,402.1c6.9,0,13.5-0.2,19.9-0.5l135.6,135.6
	c7.8,7.8,18.1,12.1,29.1,12.1h0.3c11,0,21.3-4.3,29.1-12.1L478,388.4l0.9-0.8c18.1-16.5,30.2-38.4,34.8-62.1
	C518.6,327.7,523,330.1,527,332.7z"/>
<path class="st13" d="M445,317.4c0,16.8-7.1,33-19.6,44.4l-0.5,0.4L315.5,471.6c-4.1,4.1-9.6,6.4-15.5,6.4h-0.2
	c-5.8,0-11.3-2.3-15.5-6.4l-79.3-79.3l-12.2-12.2c0,0,0,0,0,0c40.5-8.3,70.3-22.5,100.5-38.5c2.1-1.1,4.3-2.3,6.4-3.4
	c3.4-1.8,6.7-3.6,10.1-5.4c35.2-18.5,71.6-35.1,128.7-35.2h0.5c0.9,0,1.7,0,2.6,0c1.6,4.6,2.7,9.5,3.1,14.5
	C444.9,313.9,445,315.7,445,317.4z"/>
<path class="st9" d="M444.8,312.2c0.1,1.7,0.2,3.5,0.2,5.2c0,16.8-7.1,33-19.6,44.4l-0.5,0.4L315.5,471.6c-4.1,4.1-9.6,6.4-15.5,6.4
	h-0.2c-5.8,0-11.3-2.3-15.5-6.4l-79.3-79.3c0,0,0,0,0,0c39.7-9.2,68.5-23.8,95.1-37.9c5.5-2.9,11-5.9,16.4-8.7
	c34.4-18,68.3-33.5,121.9-33.6C440.7,312.2,442.7,312.2,444.8,312.2z"/>
<path class="st13" d="M505.2,380c-4.5,6.1-9.5,11.7-15.1,17c-0.5,0.5-1,1-1.5,1.4L488,399L339.5,547.5
	C329,558,315,563.7,300.2,563.7h-0.3c-14.9,0-28.8-5.8-39.3-16.3L124.6,411.5L112,399l-0.6-0.6c-16.2-14.7-28.1-33.2-35-53.6
	c-1.3-4-2.5-8-3.4-12.1c-0.2-0.8-0.3-1.5-0.5-2.3c-0.5-2.2-0.9-4.4-1.2-6.6c24.9-13.9,56.3-20.7,95.9-20.8h0.5
	c61,0,99.2,17.5,139.3,38.7l3.9,2c35.5,18.7,89.1,47.1,138.6,47.1C481.3,390.7,488.6,384.3,505.2,380z"/>
<path class="st9" d="M74.5,338.7c1.1,3.9,2.4,7.7,3.8,11.4c7.1,18.3,18.3,34.9,33.1,48.3l0.6,0.6l148.5,148.5
	c10.5,10.5,24.5,16.3,39.3,16.3h0.3c14.9,0,28.8-5.8,39.3-16.3l148.2-148.2c-64.5,21.7-143.1-21.4-187.5-44.8
	c-37.7-19.9-74.3-37.1-133-37C122.8,317.5,94.6,326.4,74.5,338.7z"/>
<path class="st9" d="M487.7,399.3l-12.2,12.2L339.5,547.5C329,558,315,563.7,300.2,563.7h-0.3c-14.9,0-28.8-5.8-39.3-16.3
	L115.2,402.1L112,399l-0.6-0.6c-0.5-0.5-1-0.9-1.5-1.4c-0.5-0.5-1-0.9-1.5-1.4c-1.6-1.6-3.2-3.2-4.7-4.8c-0.1-0.1-0.3-0.3-0.4-0.4
	c-0.3-0.3-0.6-0.6-0.8-0.9c-0.1-0.1-0.2-0.2-0.3-0.3c-0.4-0.5-0.8-0.9-1.2-1.4l14.1-0.1c30.4-0.2,55.7-3,77.8-7.5
	c36.5-7.4,64.3-19.8,91.5-33.8c5.3,2.6,10.5,5.3,15.8,8.1c23.4,12.3,56.2,30.1,91.5,41C423.4,405.3,457.1,409.6,487.7,399.3z"/>
<path class="st9" d="M521.5,350.5c0.1-0.3,0.3-0.7,0.4-1c-0.1,0.2-0.2,0.4-0.3,0.7C521.6,350.2,521.6,350.3,521.5,350.5z"/>
<path class="st9" d="M525.5,338.8c0.2-0.8,0.4-1.5,0.6-2.3c-0.2,0.7-0.4,1.4-0.6,2.2C525.5,338.7,525.5,338.7,525.5,338.8z"/>
<path class="st10" d="M487.7,399.3l-12.2,12.2L339.5,547.5C329,558,315,563.7,300.2,563.7h-0.3c-14.9,0-28.8-5.8-39.3-16.3
	L115.2,402.1c35.8-0.3,65-4,89.9-9.8c39.7-9.3,68.5-23.8,95.1-37.9c23.4,12.3,56.2,30.1,91.5,41
	C423.4,405.3,457.1,409.6,487.7,399.3z"/>
<path class="st9" d="M505.2,380c-4.5,6.1-9.5,11.7-15.1,17c-0.5,0.5-1,1-1.5,1.4L488,399L339.5,547.5C329,558,315,563.7,300.2,563.7
	h-0.3c-14.9,0-28.8-5.8-39.3-16.3L124.6,411.5L112,399l-0.6-0.6c-16.2-14.7-28.1-33.2-35-53.6c-1.3-4-2.5-8-3.4-12.1
	c-0.2-0.8-0.3-1.5-0.5-2.3c-0.5-2.2-0.9-4.4-1.2-6.6c4.4-2.4,8.9-4.7,13.7-6.7c0.6,4.9,1.5,9.8,2.7,14.6c16.7-7.5,38.3-12.8,67.4-14
	c3.9-0.2,7.9-0.2,12.1-0.3c50.5-0.1,84.7,12.7,117.2,28.9c5.3,2.6,10.5,5.3,15.8,8.1c23.4,12.3,56.2,30.1,91.5,41
	c23,7.1,47,11.3,70.1,9.2l16.2-16.2l0.3-0.3C488.8,385.9,495.4,382.6,505.2,380z"/>
<path class="st9" d="M487.7,399.3L339.5,547.5C329,558,315,563.7,300.2,563.7h-0.3c-14.9,0-28.8-5.8-39.3-16.3L115.2,402.1L112,399
	l-0.6-0.6c-0.5-0.5-1-0.9-1.5-1.4c-0.5-0.5-1-0.9-1.5-1.4c-1.6-1.6-3.2-3.2-4.7-4.8c-0.1-0.1-0.3-0.3-0.4-0.4
	c-0.3-0.3-0.6-0.6-0.8-0.9c-0.1-0.1-0.2-0.2-0.3-0.3c-0.4-0.5-0.8-0.9-1.2-1.4c-9.7-11.2-17.4-23.9-22.7-37.7
	c-1.4-3.7-2.7-7.6-3.8-11.4c18.2-11.1,43.1-19.4,80.6-21c3.9-0.2,7.9-0.2,12.1-0.3c50.5-0.1,84.7,12.7,117.2,28.9
	c5.3,2.6,10.5,5.3,15.8,8.1c23.4,12.3,56.2,30.1,91.5,41C423.4,405.3,457.1,409.6,487.7,399.3C487.7,399.3,487.7,399.3,487.7,399.3z
	"/>
<path class="st11" d="M487.7,399.3L339.5,547.5C329,558,315,563.7,300.2,563.7h-0.3c-14.9,0-28.8-5.8-39.3-16.3L115.2,402.1L112,399
	l-0.6-0.6c-0.5-0.5-1-0.9-1.5-1.4c-0.5-0.5-1-0.9-1.5-1.4c-1.6-1.6-3.2-3.2-4.7-4.8c-0.1-0.1-0.3-0.3-0.4-0.4
	c-0.3-0.3-0.6-0.6-0.8-0.9c-0.1-0.1-0.2-0.2-0.3-0.3c-0.4-0.5-0.8-0.9-1.2-1.4c-9.7-11.2-17.4-23.9-22.7-37.7
	c-1.4-3.7-2.7-7.6-3.8-11.4c4-2.5,8.4-4.8,13.1-6.9c5.4,21.3,16.9,40.9,33.4,55.9l0.9,0.8l148.8,148.8c7.8,7.8,18.1,12.1,29.1,12.1
	h0.3c11,0,21.3-4.3,29.1-12.1l132.6-132.5C470.6,403.9,479.2,402.1,487.7,399.3C487.7,399.3,487.7,399.3,487.7,399.3z"/>
<path class="st10" d="M526.1,336.3c0.2-0.6,0.3-1.3,0.5-2c-0.1,0.4-0.2,0.9-0.3,1.3C526.2,335.9,526.2,336.1,526.1,336.3z"/>
<path class="st10" d="M527,332.7c0,0.2-0.1,0.4-0.2,0.7C526.9,333.1,527,332.9,527,332.7C527,332.7,527,332.7,527,332.7z"/>
<path class="st14" d="M403.3,383.8l-87.8,87.8c-4.1,4.1-9.6,6.4-15.5,6.4h-0.2c-5.8,0-11.3-2.3-15.5-6.4L175.1,362.4l-0.5-0.4
	c-12.5-11.4-19.6-27.5-19.6-44.4c0-5,0.6-9.8,1.8-14.4h0c3.4-0.1,6.8-0.2,10.4-0.2h0.5c57.5,0,94.7,15.6,132.4,35.1
	c2.3,1.2,4.5,2.4,6.8,3.6l3.9,2c1.6,0.8,3.2,1.7,4.8,2.6C339.7,358.9,370.9,374.8,403.3,383.8z"/>
<path class="st13" d="M391.7,395.5l-76.2,76.2c-4.1,4.1-9.6,6.4-15.5,6.4h-0.2c-5.8,0-11.3-2.3-15.5-6.4l-8-8l-72.8-72.8l-28.4-28.4
	l-0.5-0.4c-1.8-1.7-3.6-3.5-5.2-5.4c-9.2-10.8-14.4-24.6-14.4-38.9c3.9-0.2,7.9-0.2,12.1-0.3c50.5-0.1,84.7,12.7,117.2,28.9
	c5.3,2.6,10.5,5.3,15.8,8.1C323.6,366.8,356.4,384.6,391.7,395.5z"/>
<circle class="st10" cx="186.1" cy="374.1" r="24.2"/>
<circle class="st10" cx="197.4" cy="426.8" r="11.8"/>
<circle class="st9" cx="233.1" cy="390.8" r="7.5"/>
<path class="st9" d="M203.6,390.8l-28.4-28.4l-0.5-0.4c-1.8-1.7-3.6-3.5-5.2-5.4c9.5-9,24.4-8.8,33.7,0.4
	C212.5,366.4,212.6,381.4,203.6,390.8z"/>
<circle class="st10" cx="197.4" cy="426.8" r="11.8"/>
<circle class="st10" cx="346.2" cy="440.9" r="17.1"/>
<path class="st9" d="M358.3,428.8L334.2,453c-4.7-4.6-6.4-11.8-3.9-18.3c3.4-8.8,13.3-13.1,22.1-9.7
	C354.7,425.9,356.7,427.2,358.3,428.8z"/>
<circle class="st10" cx="300.2" cy="477.2" r="27.3"/>
<path class="st9" d="M323.6,463.5l-8.1,8.1c-4.1,4.1-9.6,6.4-15.5,6.4h-0.2c-5.8,0-11.3-2.3-15.5-6.4l-8-8
	c6.6-11.5,20.8-16.8,33.5-11.9C315.9,454.1,320.6,458.3,323.6,463.5z"/>
<circle class="st9" cx="321.9" cy="405.5" r="8.8"/>
</svg>
