<?xml version="1.0" encoding="utf-8"?>
<!-- Generator: Adobe Illustrator 22.1.0, SVG Export Plug-In . SVG Version: 6.00 Build 0)  -->
<svg version="1.1" id="Layer_1" xmlns="http://www.w3.org/2000/svg" xmlns:xlink="http://www.w3.org/1999/xlink" x="0px" y="0px"
	 viewBox="0 0 600 600" style="enable-background:new 0 0 600 600;" xml:space="preserve">
<style type="text/css">
	.st0{fill:#C4E5DC;}
	.st1{fill:#DDEEDB;}
	.st2{fill:#F3F7DE;}
	.st3{fill:#AADCD9;}
	.st4{fill:#9ED3D7;}
	.st5{opacity:0.2;fill:#FFFFFF;}
	.st6{fill:#2D2D2D;}
	.st7{fill:#1E1E1E;}
	.st8{fill:#373737;}
	.st9{fill:#141414;}
	.st10{fill:#F1F5D7;}
	.st11{fill:#D6EBD4;}
	.st12{fill:#B8E0D5;}
	.st13{opacity:0.25;fill:#FFFFFF;mix-blend-mode:soft-light;}
</style>
<g>
	<path class="st0" d="M499.8309631,279.296875l-85.2053528,294.0631104C410.4148865,587.8711548,396.9338989,598,381.8262024,598
		H218.1736908c-15.1072388,0-28.5882568-10.1288452-32.7989807-24.6400146L100.1689453,279.296875
		c-3.2255478-11.1497803-1.7074127-23.284729,4.1745377-33.29599l62.3547592-106.1409149
		c6.6412354-11.3035126,18.9204559-18.3332291,32.0308685-18.3332291h202.5416718
		c13.1104126,0,25.3900757,7.020668,32.031311,18.3332291l62.3543091,106.1409149
		C501.5387878,256.012146,503.056488,268.1470947,499.8309631,279.296875z"/>
	<path class="st1" d="M442.9067993,279.296875l-85.2053223,294.0631104C353.4907532,587.8711548,340.0097351,598,324.9020691,598
		H218.1736908c-15.1072388,0-28.5882568-10.1288452-32.7989807-24.6400146L100.1689453,279.296875
		c-3.2255478-11.1497803-1.7074127-23.284729,4.1745377-33.29599l62.3547592-106.1409149
		c6.6412354-11.3035126,18.9204559-18.3332291,32.0308685-18.3332291h145.6175385
		c13.1104126,0,25.3900452,7.020668,32.0312805,18.3332291l62.3543396,106.1409149
		C444.6146545,256.012146,446.1323547,268.1470947,442.9067993,279.296875z"/>
	<path class="st2" d="M401.6413879,279.296875l-85.20578,294.0631104C312.2341614,587.8711548,298.7443237,598,283.6366272,598
		h-65.4629364c-15.1072388,0-28.5882568-10.1288452-32.7989807-24.6400146L100.1689453,279.296875
		c-3.2255478-11.1497803-1.7074127-23.284729,4.1745377-33.29599l62.3547592-106.1409149
		c6.6412354-11.3035126,18.9204559-18.3332291,32.0308685-18.3332291h104.3520966
		c13.1196899,0,25.3900757,7.020668,32.031311,18.3332291l62.3631592,106.1409149
		C403.3487854,256.012146,404.8761902,268.1470947,401.6413879,279.296875z"/>
	<path class="st3" d="M478.1274719,273.0081482l-10.933136,37.7325745l-4.0386658,13.9418335L392.9216919,567.071228
		c-1.4272461,4.9421997-5.9542847,8.3398438-11.0954895,8.3398438H218.1736908
		c-5.1411896,0-9.6678009-3.397644-11.0954895-8.3398438l-68.5437775-236.5786438l-6.4788818-22.3630371l-10.1826782-35.1213989
		c-1.5181351-5.2316589-0.8135529-10.8608093,1.9425583-15.5592651l3.2343674-5.5027313l10.2104645-17.3753967
		l48.9187469-83.2718201c2.6109772-4.4454346,7.3908234-7.1832428,12.5501099-7.1832428h202.5416718
		c5.1592712,0,9.9391479,2.7378082,12.5505371,7.1832428l44.5364075,75.8086395l9.5592651,16.2728577l8.2679138,14.0684509
		C478.9405823,262.1473389,479.6455994,267.7764893,478.1274719,273.0081482z"/>
	<path class="st4" d="M478.1403809,273.0081482L392.9350281,567.071228c-0.0361633,0.135437-0.081604,0.270874-0.135437,0.397522
		c-0.0092773,0.0449829-0.0273438,0.0811768-0.0454407,0.1265869c-0.0630798,0.2347412-0.1535339,0.4606323-0.2528076,0.6776733
		c-0.0361633,0.0993042-0.081604,0.1985474-0.1177979,0.2890015c-0.0718994,0.1809082-0.1623535,0.3525391-0.2528076,0.5241089
		c-0.1989746,0.397522-0.4248657,0.7862549-0.6776428,1.1563721c-0.0812073,0.1447144-0.1897278,0.2894287-0.2982483,0.4337158
		c-0.2170715,0.2982178-0.4517822,0.5876465-0.7045898,0.8673706c-0.0997009,0.1177979-0.1989746,0.2258911-0.3075256,0.343689
		c-0.2077942,0.2166138-0.4336853,0.4244385-0.6595764,0.6322021c-0.1716003,0.1535645-0.3613281,0.3163452-0.5510254,0.4517822
		c-1.9787598,1.5450439-4.4547119,2.4398193-7.1018677,2.4398193h-66.0589905
		c0.2435608-0.6776733,0.4694519-1.3553467,0.6684265-2.0510864l74.2091064-256.0956116l3.7677612-12.993042l7.2377319-24.9744568
		c3.2348022-11.1497803,1.6985779-23.284729-4.1745605-33.29599l-5.0057373-8.5204926l-7.5536194-12.857605l-47.292511-80.5070953
		h63.6470032c5.1680908,0,9.9391174,2.7378082,12.5593567,7.1832428l44.5271301,75.8086395l9.5597229,16.2728577
		l8.2674561,14.0684509c0.3344421,0.5783997,0.6419373,1.1656494,0.9216614,1.7711792
		c0.4610291,1.0028076,0.8404541,2.0329895,1.1206055,3.0900879
		C479.1793823,265.7887268,479.1612854,269.4843445,478.1403809,273.0081482z"/>
	<path class="st5" d="M121.8344345,273.0081482l85.2057724,294.0630798
		c1.4365082,4.9421997,5.9542999,8.3398438,11.1047668,8.3398438h66.0589752
		c-0.2439575-0.6776733-0.4698486-1.3553467-0.668396-2.0510864L198.3209534,279.296875
		c-3.2348022-11.1497803-1.6985779-23.284729,4.1745453-33.29599l59.8514557-101.8851929h-63.6465759
		c-5.1685333,0-9.9391327,2.7378082-12.5593567,7.1832428l-62.3547668,106.1499481
		C121.0213165,262.1473389,120.3167343,267.7764893,121.8344345,273.0081482z"/>
	<path class="st6" d="M478.1274719,273.0081482l-10.933136,37.7325745l-4.0386658,13.9418335L392.9216919,567.071228
		c-1.4272461,4.9421997-5.9542847,8.3398438-11.0954895,8.3398438H218.1736908
		c-5.1411896,0-9.6678009-3.397644-11.0954895-8.3398438l-68.5437775-236.5786438l-6.4788818-22.3630371l3.9579163-0.307312
		c68.8420258-5.2587585,107.1982269-25.8054199,144.2798462-45.6837158
		c3.4156799-1.8251953,6.7947693-3.6323242,10.1742859-5.4213257c2.1503601-1.1387177,4.2014465-2.2048645,6.1621094-3.2167358
		c6.975647-3.6051788,12.8757019-6.496521,18.5860291-9.0988922c21.6853943-9.8939056,52.3613586-21.2607422,97.4761658-21.3419189
		h0.3886719c16.815094,0,31.7599792,1.3279877,45.2771606,4.0479279l9.5592651,16.2728577l8.2679138,14.0684509
		C478.9405823,262.1473389,479.6455994,267.7764893,478.1274719,273.0081482z"/>
	<path class="st7" d="M478.1274719,273.0081482l-14.9718018,51.674408L392.9216919,567.071228
		c-1.4272461,4.9421997-5.9542847,8.3398438-11.0954895,8.3398438H218.1736908
		c-5.1411896,0-9.6678009-3.397644-11.0954895-8.3398438l-68.5437775-236.5786438l-1.4907837-9.1529236
		c78.1753998-5.9726257,119.2784729-31.2451172,159.7576904-52.64151
		c7.9515686-4.2014465,15.8757935-8.2403259,24.0439758-11.9721375
		c25.4169922-11.5924988,53.2825623-20.040863,91.8735046-20.1129913
		c22.6793823-0.027359,40.6331787,2.5297852,55.1981812,6.7674103l8.2679138,14.0684509
		C478.9405823,262.1473389,479.6455994,267.7764893,478.1274719,273.0081482z"/>
	<path class="st8" d="M467.1943359,310.7407227l-4.0386658,13.9418335L392.9216919,567.071228
		c-1.4272461,4.9421997-5.9542847,8.3398438-11.0954895,8.3398438H218.1736908
		c-5.1411896,0-9.6678009-3.397644-11.0954895-8.3398438l-68.5437775-236.5786438l-6.4788818-22.3630371l-10.1826782-35.1213989
		c-1.5181351-5.2316589-0.8135529-10.8608093,1.9425583-15.5592651l3.2343674-5.5027313l10.2104645-17.3753967
		c15.6044617-3.9846191,33.2688446-5.9543152,53.5358124-5.9814453h0.4879608
		c33.2781067,0,61.4869385,5.7286377,91.4852295,18.5772095c4.3730774,1.8611603,8.953949,3.9574738,13.8604431,6.3339386
		c2.0329895,0.9759216,4.1202698,2.0149231,6.2706299,3.0991516c10.056488,5.0509644,19.6523743,10.8879089,29.8085938,17.0681152
		c30.910675,18.7850037,62.8696289,38.22052,112.5741272,38.22052c5.4394531,0,11.0778503-0.2349243,16.7431946-0.713623
		L467.1943359,310.7407227z"/>
	<path class="st6" d="M463.1593018,324.6825562l-66.6735535,230.1002197l-3.559967,12.2884521
		c-1.4277039,4.9421997-5.9543152,8.3398438-11.09552,8.3398438H218.1777649c-5.1411896,0-9.6682434-3.397644-11.0955048-8.3398438
		l-3.5603943-12.2884521l-64.9838257-224.2901917l-16.6615448-57.484436
		c-1.5181351-5.2316589-0.813118-10.8608093,1.9425583-15.5592651l3.2348099-5.5027313
		c15.9296112-5.9723969,36.413208-9.7673035,63.7643585-9.8034668c35.9252472-0.063324,62.5713806,7.1832275,86.6149445,17.4837189
		c6.6050415,2.8101501,13.0111389,5.8642883,19.3722229,9.0717468
		C340.176178,290.5101624,381.1795349,331.5225525,463.1593018,324.6825562z"/>
	<circle class="st7" cx="245.7181854" cy="505.76474" r="19.2759018"/>
	<circle class="st7" cx="285.5500488" cy="525.7936401" r="9.4873581"/>
	<path class="st7" d="M478.1311035,273.0081482l-10.9327087,37.7325745l-4.039093,13.9418335L392.9257813,567.071228
		c-0.0361938,0.135437-0.0811768,0.262085-0.1261902,0.397522c-0.0092773,0.0449829-0.0273438,0.0811768-0.0454407,0.1265869
		c-0.0723572,0.2258911-0.1535339,0.4606323-0.2528076,0.6776733c-0.0361633,0.0993042-0.081604,0.1985474-0.1177979,0.2890015
		c-0.0811768,0.1809082-0.1623535,0.3525391-0.2528076,0.5241089c-0.1989746,0.397522-0.4248657,0.7862549-0.6776428,1.1563721
		c-0.0904541,0.1535645-0.1897278,0.2894287-0.2982483,0.4337158c-0.2170715,0.2982178-0.4517822,0.5876465-0.7045898,0.8673706
		c-0.0997009,0.1177979-0.1989746,0.2258911-0.3075256,0.343689c-0.2077942,0.2166138-0.4336853,0.4244385-0.6595764,0.6322021
		c-0.1716003,0.1535645-0.3613281,0.3163452-0.5510254,0.4517822c-1.9787598,1.5450439-4.4547119,2.4398193-7.1018677,2.4398193
		h-66.0589905c0.2435608-0.6776733,0.4694519-1.3553467,0.6684265-2.0510864l74.2091064-256.0956116l3.7677612-12.993042
		l7.2377319-24.9744568c3.2348022-11.1497803,1.6985779-23.284729-4.1745605-33.29599l-5.0057373-8.5204926l-7.5536194-12.857605
		c8.5926208-0.9759064,17.8359985-1.5450439,27.7751465-1.5631409h0.3886719c16.815094,0,31.7599792,1.3279877,45.2771606,4.0479279
		l9.5597229,16.2728577l8.2674561,14.0684509c0.3344421,0.5783997,0.6419373,1.1656494,0.9216614,1.7711792
		c0.4610291,1.0028076,0.8312073,2.0329895,1.1206055,3.0900879
		C479.1705627,265.7887268,479.1524658,269.4843445,478.1311035,273.0081482z"/>
	<circle class="st7" cx="180.6044464" cy="328.6106262" r="28.9138527"/>
	<circle class="st7" cx="225.4347534" cy="280.4792786" r="14.758112"/>
	<path class="st9" d="M478.1311035,273.0081482l-10.9327087,37.7325745l-4.039093,13.9418335L392.9257813,567.071228
		c-0.0361938,0.135437-0.0811768,0.262085-0.1261902,0.397522c-0.0092773,0.0449829-0.0273438,0.0811768-0.0454407,0.1265869
		c-0.0723572,0.2258911-0.1535339,0.4606323-0.2528076,0.6776733c-0.0361633,0.0993042-0.081604,0.1985474-0.1177979,0.2890015
		c-0.0811768,0.1809082-0.1623535,0.3525391-0.2528076,0.5241089c-0.1989746,0.397522-0.4248657,0.7862549-0.6776428,1.1563721
		c-0.0904541,0.1535645-0.1897278,0.2894287-0.2982483,0.4337158c-0.2170715,0.2982178-0.4517822,0.5876465-0.7045898,0.8673706
		c-0.0997009,0.1177979-0.1989746,0.2258911-0.3075256,0.343689c-0.2077942,0.2166138-0.4336853,0.4244385-0.6595764,0.6322021
		c-0.1716003,0.1535645-0.3613281,0.3163452-0.5510254,0.4517822c-1.9787598,1.5450439-4.4547119,2.4398193-7.1018677,2.4398193
		h-66.0589905c0.2435608-0.6776733,0.4694519-1.3553467,0.6684265-2.0510864l74.2091064-256.0956116l3.7677612-12.993042
		l7.2377319-24.9744568c3.2348022-11.1497803,1.6985779-23.284729-4.1745605-33.29599l-5.0057373-8.5204926
		c6.4246216-0.5603027,13.1558533-0.858551,20.2488708-0.8673706c22.6793823-0.027359,40.6327515,2.5297852,55.1982117,6.7674103
		l8.2674561,14.0684509c0.3344421,0.5783997,0.6419373,1.1656494,0.9216614,1.7711792
		c0.4610291,1.0028076,0.8312073,2.0329895,1.1206055,3.0900879
		C479.1705627,265.7887268,479.1524658,269.4843445,478.1311035,273.0081482z"/>
	<path class="st6" d="M467.1983948,310.7407227l-4.039093,13.9418335L392.9257813,567.071228
		c-0.0361938,0.135437-0.0811768,0.262085-0.1261902,0.397522c-0.0092773,0.0449829-0.0273438,0.0811768-0.0454407,0.1265869
		c-0.0723572,0.2258911-0.1535339,0.4606323-0.2528076,0.6776733c-0.0361633,0.0993042-0.081604,0.1985474-0.1177979,0.2890015
		c-0.0811768,0.1809082-0.1623535,0.3525391-0.2528076,0.5241089c-0.1989746,0.397522-0.4248657,0.7862549-0.6776428,1.1563721
		c-0.0904541,0.1535645-0.1897278,0.2894287-0.2982483,0.4337158c-0.2170715,0.2982178-0.4517822,0.5876465-0.7045898,0.8673706
		c-0.0997009,0.1177979-0.1989746,0.2258911-0.3075256,0.343689c-0.2077942,0.2166138-0.4336853,0.4244385-0.6595764,0.6322021
		c-0.1716003,0.1535645-0.3613281,0.3163452-0.5510254,0.4517822c-1.9787598,1.5450439-4.4547119,2.4398193-7.1018677,2.4398193
		h-66.0589905c0.2435608-0.6776733,0.4694519-1.3553467,0.6684265-2.0510864l74.2091064-256.0956116l3.7677612-12.993042
		c14.9360352,4.6803589,31.5702515,7.6169128,50.870575,7.6169128c5.4394226,0,11.0773926-0.2349243,16.7427368-0.713623
		L467.1983948,310.7407227z"/>
	<path class="st7" d="M463.1593018,324.6825562l-66.6735535,230.1002197l-3.559967,12.2884521
		c-0.0361938,0.135437-0.0811768,0.262085-0.1261902,0.397522c-0.0092773,0.0449829-0.0273438,0.0811768-0.0454407,0.1265869
		c-0.0723572,0.2258911-0.1535339,0.4606323-0.2528076,0.6776733c-0.0361633,0.0993042-0.081604,0.1985474-0.1177979,0.2890015
		c-0.0811768,0.1809082-0.1623535,0.3525391-0.2528076,0.5241089c-0.1989746,0.397522-0.4248657,0.7862549-0.6776428,1.1563721
		c-0.0904541,0.1535645-0.1897278,0.2894287-0.2982483,0.4337158c-0.2170715,0.2982178-0.4517822,0.5876465-0.7045898,0.8673706
		c-0.0997009,0.1177979-0.1989746,0.2258911-0.3075256,0.343689c-0.2077942,0.2166138-0.4336853,0.4244385-0.6595764,0.6322021
		c-0.1716003,0.1535645-0.3613281,0.3163452-0.5510254,0.4517822c-1.9787598,1.5450439-4.4547119,2.4398193-7.1018677,2.4398193
		h-66.0589905c0.2435608-0.6776733,0.4694519-1.3553467,0.6684265-2.0510864l5.3851624-18.5772095l68.8239441-237.5184021
		C411.0692749,323.6525879,434.6341553,327.059021,463.1593018,324.6825562z"/>
	<g>
		<polygon class="st10" points="375.747467,121.5308685 347.1228333,121.5939636 301.6557312,121.6934509 293.1080933,121.7115402
			210.2790222,121.8472061 210.3301239,95.0729675 380.2111206,95.0831223 		"/>
		<path class="st11" d="M373.8862,95.2147064l0.0541687,26.5678787l-8.7463989,0.06353l-57.2133484,0.100174
			c-2.7994995,0-4.9424133-3.7030334-4.9514771-7.54245l-0.0271301-11.7690277
			c-0.0090332-4.2214737,2.5752258-7.5547562,5.7738647-7.5547562c0,0,48.7301636-0.0070877,48.846283-0.0070877
			C357.6221619,95.1308517,373.8862,95.2147064,373.8862,95.2147064z"/>
		<path class="st12" d="M389.3008423,121.7927551l-40.3709106,0.0630875c-2.6745911,0-4.6082153-3.7406311-4.617157-7.3729477
			l-0.0271301-11.8095627c0-4.0386581,2.3838196-7.5897293,5.4754944-7.5897293
			c0.0999146,0,39.4855347-0.0091171,39.4855347-0.0091171L389.3008423,121.7927551z"/>
	</g>
	<g>
		<path class="st10" d="M379.3917847,9.5386906v19.5710945c0,4.1382542-4.0660095,7.526598-9.0355835,7.526598H229.9976654
			c-4.969574,0-9.0355835-3.3883438-9.0355835-7.526598V9.5386906c0-4.1473002,4.0660095-7.5356426,9.0355835-7.5356426h140.3585358
			C375.3257751,2.0030482,379.3917847,5.3913903,379.3917847,9.5386906z"/>
		<path class="st12" d="M379.3917847,9.5386906v19.5710945c0,4.1382542-4.0660095,7.526598-9.0355835,7.526598h-33.5505676
			c-4.969574,0-9.0355835-3.3883438-9.0355835-7.526598V9.5386906c0-4.1473002,4.0660095-7.5356426,9.0355835-7.5356426h33.5505676
			C375.3257751,2.0030482,379.3917847,5.3913903,379.3917847,9.5386906z"/>
		<path class="st11" d="M350.4795227,9.5357523v19.5709839c0,4.1383648-4.0660095,7.5267086-9.0355835,7.5267086h-40.515625
			c4.969574,0,9.0355835-3.3883438,9.0355835-7.5267086V9.5357523C309.9638977,5.3883419,305.8978882,2,300.9283142,2h40.515625
			C346.4135132,2,350.4795227,5.3883419,350.4795227,9.5357523z"/>
		<path class="st2" d="M413.0870972,80.5236359c0.0090332,3.8851166-1.500061,7.5445709-4.237854,10.29142
			c-2.7376099,2.7468567-6.3880005,4.2647705-10.2733459,4.2738113H190.5859528c-2.683548,0-4.9967041-0.695755-6.8761749-1.9335098
			c-1.3010712-0.8492966-2.3943329-1.951828-3.2617188-3.2619476c-1.6264496-2.4214706-2.484787-5.5296555-2.4940491-8.9722672
			l-0.0721283-46.7138977c-0.0090485-3.7768097,1.4095917-7.3279514,4.011734-10.0386238
			c0.0723572-0.0811806,0.1444855-0.1625805,0.2258911-0.2439785c0.1175842-0.1173573,0.2349396-0.2349339,0.361557-0.3432465
			l0.1625824-0.1627998c2.665451-2.4666958,6.0990143-4.0748348,9.7403717-4.0840988h206.7700653
			c7.7706604,0.3434658,13.8425598,6.7045498,13.851593,14.4750156L413.0870972,80.5236359z"/>
		<path class="st0" d="M422.1181335,80.5273895c0.0090332,3.8851166-1.499939,7.5445709-4.2376404,10.29142
			c-2.737793,2.7468567-6.3882141,4.2647705-10.2735596,4.2738113h-95.2529907c0.2801514,0,0.5601807-0.0090408,0.8402405-0.0271301
			h0.0361633c0.2801514-0.0180893,0.551178-0.0361786,0.8221741-0.0811768c0.0090332,0.0088196,0.0271301,0.0088196,0.0361633,0
			c3.225769-0.3886871,6.2166138-1.8344727,8.5386963-4.1655045c2.7377014-2.7468491,4.2466736-6.4063034,4.2377319-10.29142
			l-0.0090332-7.7435532v-0.0723572l-0.0542603-30.6126595V42.017643l-0.0090637-8.2043762
			c-0.0090332-7.7706871-6.0899658-14.1315498-13.8606567-14.4750156h95.2532349
			c7.7704773,0.3434658,13.8514099,6.7043285,13.8604431,14.4750156L422.1181335,80.5273895z"/>
		<path class="st1" d="M363.8735046,80.5235367c0.0090637,3.885231-1.4998169,7.5445786-4.2376404,10.2914276
			c-2.737793,2.7468491-6.38797,4.2647705-10.2733154,4.2738113h-40.13797
			c3.8853149-0.0090408,7.5357361-1.5269623,10.2735596-4.2738113c2.737793-2.7468491,4.1743164-6.4061966,4.1652527-10.2914276
			V33.8095284c-0.0088196-7.7705765-6.0897522-14.1316605-13.8604126-14.4750156h40.1377258
			c7.7706909,0.3433552,13.8516235,6.7044392,13.8606567,14.4750156L363.8735046,80.5235367z"/>
		<path class="st3" d="M390.5159912,66.5453949c0,3.3342972-2.6925659,6.0449753-6.0357056,6.0540161l-60.8094788,0.1173553
			l-19.3812561,0.0271378h-2.5750122l-95.1989594,0.1537552c-3.3431244,0.0088196-6.044754-2.6928101-6.0538025-6.0359268
			l-0.0271301-18.6041183c-0.0090485-3.3342972,2.6925812-6.0449677,6.0266571-6.0540123l84.4555359-0.1354485l13.3727112-0.0180855
			l19.3812561-0.0271339l60.7642822-0.1175766c2.3312378-0.0088272,4.3551941,1.3103333,5.3582458,3.2438507
			c0.09021,0.1625786,0.1716309,0.3344231,0.243988,0.5150909c0.072113,0.1535339,0.1264038,0.3070679,0.1806641,0.4789124
			c0.1716309,0.5691338,0.2711182,1.1746674,0.2711182,1.798069L390.5159912,66.5453949z"/>
		<path class="st4" d="M390.5159912,66.5453949c0,3.3342972-2.6925659,6.0449753-6.0357056,6.0540161l-60.8152161,0.1173553
			l-0.002655-30.6938324l60.7726746-0.1175766c2.3312378-0.0088272,4.3551941,1.3103333,5.3582458,3.2438507
			c0.09021,0.1625786,0.1716309,0.3344231,0.243988,0.5150909c0.072113,0.1535339,0.1264038,0.3070679,0.1806641,0.4789124
			c0.1716309,0.5691338,0.2711182,1.1746674,0.2711182,1.798069L390.5159912,66.5453949z"/>
	</g>
	<path class="st7" d="M396.4857483,554.7827759l-3.559967,12.2884521c-1.4277039,4.9421997-5.9543152,8.3398438-11.09552,8.3398438
		H218.1777649c-5.1411896,0-9.6682434-3.397644-11.0955048-8.3398438l-3.5603943-12.2884521H396.4857483z"/>
	<path class="st9" d="M396.4857483,554.7827759l-3.559967,12.2884521c-0.0361938,0.135437-0.0811768,0.262085-0.1261902,0.397522
		c-0.0092773,0.0449829-0.0273438,0.0811768-0.0454407,0.1265869c-0.0723572,0.2258911-0.1535339,0.4606323-0.2528076,0.6776733
		c-0.0361633,0.0993042-0.081604,0.1985474-0.1177979,0.2890015c-0.0811768,0.1809082-0.1623535,0.3525391-0.2528076,0.5241089
		c-0.1989746,0.397522-0.4248657,0.7862549-0.6776428,1.1563721c-0.0904541,0.1535645-0.1897278,0.2894287-0.2982483,0.4337158
		c-0.2170715,0.2982178-0.4517822,0.5876465-0.7045898,0.8673706c-0.0997009,0.1177979-0.1989746,0.2258911-0.3075256,0.343689
		c-0.2077942,0.2166138-0.4336853,0.4244385-0.6595764,0.6322021c-0.1716003,0.1535645-0.3613281,0.3163452-0.5510254,0.4517822
		c-1.9787598,1.5450439-4.4547119,2.4398193-7.1018677,2.4398193h-66.0589905
		c0.2435608-0.6776733,0.4694519-1.3553467,0.6684265-2.0510864l5.3851624-18.5772095H396.4857483z"/>
	<path class="st13" d="M163.1859589,268.5860291h0.0000305c7.0373535-2.0287781,14.3869019,2.0314636,16.4156952,9.0688171
		l49.7653046,172.6229553c2.0287781,7.0373535-2.0314484,14.3869019-9.0688019,16.4157104h-0.0000305
		c-7.0373535,2.0287781-14.3869019-2.0314636-16.4156952-9.0688171l-49.7652893-172.6229553
		C152.0883789,277.964386,156.1486206,270.6148376,163.1859589,268.5860291z"/>
	<path class="st13" d="M240.3873444,488.5602112l9.5600891,33.1506042
		c2.0251312,7.0337524-2.0330811,14.3812866-9.0751801,16.4099731c-6.5065918,1.8790894-13.2828064-1.4602661-15.8722687-7.5366211
		c-0.0991516-0.232666-0.1900177-0.4689331-0.272583-0.7088013l-0.0176849-0.0415039l-9.5991364-33.3109131
		c-2.0284882-7.0422058,2.0297394-14.3897095,9.0718231-16.418396
		C231.0061035,478.1395569,238.1289978,481.9008484,240.3873444,488.5602112z"/>
	<circle class="st7" cx="334.5680542" cy="361.9484558" r="28.9138527"/>
	<circle class="st7" cx="360.4700317" cy="425.1975098" r="19.2759018"/>
	<circle class="st7" cx="317.4004517" cy="459.8338928" r="11.4450665"/>
</g>
</svg>
