<?xml version="1.0" encoding="utf-8"?>
<!-- Generator: Adobe Illustrator 22.1.0, SVG Export Plug-In . SVG Version: 6.00 Build 0)  -->
<svg version="1.1" id="Layer_1" xmlns="http://www.w3.org/2000/svg" xmlns:xlink="http://www.w3.org/1999/xlink" x="0px" y="0px"
	 viewBox="0 0 600 600" style="enable-background:new 0 0 600 600;" xml:space="preserve">
<style type="text/css">
	.st0{fill:#F1F5D7;}
	.st1{fill:#D6EBD4;}
	.st2{fill:#B8E0D5;}
	.st3{fill:#F3F7DE;}
	.st4{fill:#DDEEDB;}
	.st5{fill:#C4E5DC;}
	.st6{fill:#AADCD9;}
	.st7{fill:#9ED3D7;}
	.st8{fill:#FFB957;}
	.st9{fill:#F7914F;}
	.st10{fill:#FFD889;}
	.st11{fill:#F26F51;}
	.st12{fill:#FEC763;}
	.st13{opacity:0.5;fill:#FFFFFF;mix-blend-mode:soft-light;}
	.st14{fill:#F99D5C;}
</style>
<g>
	<polygon class="st0" points="366.8277588,128.6131134 275.3005981,128.8089447 198.574234,128.9656219 198.5242157,104.2051239
		366.7677002,103.8525391 366.7677002,104.0093079 	"/>
	<path class="st1" d="M366.4114685,128.7167206l-80.7047424,0.1690674
		c-3.5409241,0.0075989-6.4162292-3.7465744-6.4224548-8.3855438l-0.0375061-7.983757
		c-0.0062256-4.6397324,2.8599243-8.4074326,6.4014282-8.4150391l80.7047119-0.1690674
		c3.5409546-0.0076065,6.4162598,3.7465744,6.4224548,8.3855438l0.0375366,7.9837494
		C372.8191223,124.9414139,369.9529724,128.7091064,366.4114685,128.7167206z"/>
	<path class="st2" d="M401.5049133,128.8542175h-65.0936279c-3.5307007,0-6.3943176-3.7310791-6.3994751-8.3379898
		l-0.0314026-8.0740814c-0.0051575-4.6109924,2.8549805-8.35466,6.3887939-8.3623505l65.1087036-0.1158447
		c0,0.8525467-0.0137634,7.2609558-0.0137634,8.3380127L401.5049133,128.8542175z"/>
	<path class="st3" d="M492.3917236,579.833313H107.6192703c-24.8282852,0-43.9724693-21.8659058-40.7000427-46.4740601
		l49.1561966-368.9808044c2.7119522-20.3949738,20.1148682-35.626236,40.6897888-35.626236h284.6889648
		c20.9154968,0,38.4884644,15.7316284,40.7999878,36.5167847l50.9375,368.980957
		C535.883606,558.567749,516.8496094,579.833313,492.3917236,579.833313z"/>
	<path class="st4" d="M492.0112915,579.833313H327.8908386c17.1226501,0,31.5832214-10.4275513,37.79776-25.0183716
		c2.6618652-6.2545776,3.8128357-13.2697144,3.0021973-20.5650024l-40.9299622-368.980957
		c-0.4502563-4.0529022-1.4810486-7.9157104-3.012207-11.4984283c-6.2746277-14.820816-20.9455566-25.0183563-37.7877502-25.0183563
		h154.1131287c20.9152527,0,38.4882202,15.7316284,40.7999878,36.5167847l50.9372864,368.980957
		C535.503418,558.567749,516.4694214,579.833313,492.0112915,579.833313z"/>
	<path class="st5" d="M492.3917236,579.833313H377.7575073c17.1226807,0,31.583252-10.4275513,37.79776-25.0183716
		c2.6618652-6.2545776,3.8128662-13.2697144,3.0021973-20.5650024l-40.9301758-368.980957
		c-0.4502869-4.0529022-1.4810791-7.9157104-3.0119629-11.4984283
		c-6.2746277-14.820816-20.9455566-25.0183563-37.7879944-25.0183563h104.6268311
		c20.9154968,0,38.4884644,15.7316284,40.7999878,36.5167847l50.9375,368.980957
		C535.883606,558.567749,516.8496094,579.833313,492.3917236,579.833313z"/>
	<path class="st6" d="M106.4880142,554.8120117c-6.3269119,0-10.2731705-3.4273071-12.0625687-5.4707642
		c-1.7884216-2.0435181-4.665535-6.40802-3.8299561-12.6792603l49.152298-368.9798584
		c1.056427-7.9325714,7.8885956-13.914505,15.8915405-13.914505l284.6855469-0.0009766
		c8.1817932,0,15.0325317,6.132431,15.9345703,14.2643738l40.9294434,368.9798279
		c0.6870422,6.1969604-2.2047424,10.4676514-3.9892578,12.4613037c-1.7854919,1.9936523-5.7102356,5.3388672-11.945282,5.3388672
		L106.4880142,554.8120117z"/>
	<path class="st6" d="M503.1994324,549.4710693c-1.7810669,1.9915771-5.7041321,5.3438721-11.9386902,5.3438721H106.4883118
		c-6.3347321,0-10.277565-3.4324341-12.0689163-5.473938c-1.7810974-2.0415649-4.6633377-6.4046021-3.8226318-12.6792603
		l24.5079803-184.0151978l2.031517-15.2311401l1.3508453-10.1673889l7.7056122-57.8124695l2.1517181-16.1218109
		l1.4109497-10.6177826l0.9806976-7.3755341l1.0107574-7.615448l1.2709503-9.5169983l6.7249146-50.5070496
		c1.0608368-7.9358673,7.88591-13.9103546,15.8917847-13.9103546h284.6889648
		c8.1759338,0,15.0310669,6.1246185,15.9316101,14.2604675l50.937561,368.9809265
		C507.8830566,543.206604,504.9908142,547.4796143,503.1994324,549.4710693z"/>
	<path class="st7" d="M503.1994324,549.4710693c-1.7810669,1.9915771-5.7041321,5.3438721-11.9386902,5.3438721H365.6885986
		c2.6618652-6.2545776,3.8128357-13.2697144,3.0021973-20.5650024l-40.9299622-368.980957
		c-0.4502563-4.0529022-1.4810486-7.9157104-3.012207-11.4984283h115.5748291
		c8.1759338,0,15.0310669,6.1246185,15.9316101,14.2604675l11.7686462,85.252655l2.2316284,16.1418457l9.3870239,68.0098877
		l2.1013794,15.2411804l25.4488831,184.3353577C507.8830566,543.206604,504.9908142,547.4796143,503.1994324,549.4710693z"/>
	<path class="st7" d="M503.3296814,549.4710693c-1.6711731,1.8713989-5.2238159,4.9337158-10.7979736,5.3039551
		c-0.3300781,0.0299072-0.6704102,0.039917-1.0207825,0.039917H365.8188171
		c2.6618652-6.2545776,3.8128662-13.2697144,3.0021973-20.5650024l-24.4578857-220.4418335l-1.9816895-17.893158
		l-2.5817261-23.2570496l-1.6813965-15.1911011l-10.227478-92.1977997
		c-0.4502869-4.0529022-1.4810791-7.9157104-3.0122375-11.4984283h115.5748291
		c8.176178,0,15.0310669,6.1246185,15.9318542,14.2604675l11.7686768,85.2225952l2.2215881,16.1418457l9.3967896,68.0299377
		l2.1016541,15.2411499l25.4486084,184.3453979C508.013031,543.206604,505.1210327,547.4796143,503.3296814,549.4710693z"/>
	<path class="st5" d="M194.1663818,153.7705688c-8.0058746,0-14.8309631,5.9744873-15.8917999,13.9103546l-49.1459351,368.980835
		c-0.8407135,6.2746582,2.0415344,10.6376953,3.8226318,12.6792603c1.7913513,2.0415039,5.7341919,5.473938,12.0689087,5.473938
		h-38.5282745c-6.3347321,0-10.277565-3.4324341-12.0689163-5.473938
		c-1.7810974-2.0415649-4.6633377-6.4046021-3.8226318-12.6792603l49.1459427-368.980835
		c1.0608368-7.9358673,7.88591-13.9103546,15.8917847-13.9103546H194.1663818z"/>
	<path class="st3" d="M445.450592,88.0856705c0.0100098,4.3032074-1.661377,8.3562317-4.693634,11.3984985
		c-3.0320129,3.0421524-7.0750122,4.7234421-11.3782349,4.7334595h-260.381073
		c-8.8465729,0-13.970459-6.8350983-13.9902496-15.6915741l-0.0801239-51.7379303
		c-0.010025-4.3032074,1.6611176-8.3460922,4.6933746-11.3883648s7.0652466-5.0737934,11.368454-5.0838108H430.019104
		c8.6064148,0.3804073,15.3413391,7.4254951,15.3513489,16.0317879L445.450592,88.0856705z"/>
	<path class="st5" d="M445.450592,88.0856705c0.0100098,4.3032074-1.661377,8.3562317-4.693634,11.3984985
		c-3.0320129,3.0421524-7.0750122,4.7234421-11.3782349,4.7334595H313.8740234
		c4.3032227-0.0100174,8.3459778-1.6913071,11.3782349-4.7334595c3.0322571-3.0422668,4.7033997-7.0952911,4.6933899-11.3984985
		l-0.0097961-8.5762482l-0.0600891-33.9849052l-0.0100098-9.1767807
		c-0.0100098-8.6062927-6.7449341-15.6513805-15.3513794-16.0317879H430.019104
		c8.6064148,0.3804073,15.3413391,7.4254951,15.3513489,16.0317879L445.450592,88.0856705z"/>
	<path class="st4" d="M366.4343567,88.0823441c0.0100098,4.3030853-1.6611328,8.3559875-4.6933899,11.3982544
		c-3.0322571,3.0422745-7.0750122,4.7234421-11.3782349,4.7334595h-61.4672546
		c4.3032227-0.0100174,8.3462219-1.691185,11.378479-4.7334595c3.0322571-3.0422668,4.7033997-7.0951691,4.6933899-11.3982544
		l-0.0801392-51.7380562c-0.0097656-8.6062927-6.7446899-15.6515045-15.3511047-16.0317879h61.4670105
		c8.6064148,0.3802834,15.3413391,7.4254951,15.3513489,16.0317879L366.4343567,88.0823441z"/>
	<path class="st6" d="M420.4622803,72.604332c0,3.6927719-2.9821777,6.6949768-6.6850891,6.7049942l-108.829895,0.1601563
		h-2.8519287l-115.4448547,0.1700439c-3.7026672,0.0100174-6.6948547-2.9821701-6.7048798-6.6848373l-0.0300446-20.605217
		c-0.010025-3.6926498,2.9821625-6.6948547,6.6748199-6.7048721l103.5462189-0.150135l14.8106689-0.0199127l108.7800598-0.1602707
		c2.5817261-0.0100174,4.8233643,1.4511375,5.9342957,3.5927238c0.0999146,0.1800652,0.1900635,0.370266,0.2702026,0.570488
		c0.079895,0.1700439,0.1400146,0.3400917,0.2001038,0.5302963c0.190094,0.6304665,0.3002625,1.3008804,0.3002625,1.9914513
		L420.4622803,72.604332z"/>
	<path class="st8" d="M503.3297119,549.4710693c-1.7818298,1.9915771-5.7064209,5.3438721-11.9434814,5.3438721H106.4597626
		c-6.337265,0-10.2816772-3.4324341-12.0737534-5.473938c-1.7817993-2.0415649-4.6651993-6.4046021-3.8241577-12.6792603
		l24.5177917-184.0151978l2.0323334-15.2311401c70.8303146-6.174469,111.2760849-27.6602173,150.4005432-48.4555054
		c4.4549866-2.3618469,8.9901733-4.7735291,13.5651855-7.1552734c3.5039673-1.8212891,7.0181885-3.6226501,10.5422058-5.3739319
		c2.2923889-1.1408691,4.5148926-2.2216187,6.6875305-3.2624207c8.5895691-4.1029968,16.3483582-7.4353943,24.0072021-10.337677
		c8.469574-3.2123108,16.9090576-5.9142456,25.4387512-8.1158142c20.0427551-5.1838531,40.5760498-7.6457367,63.0314331-7.6457367
		h0.4507141c21.5444336,0.0400696,40.2355652,2.071579,56.9043579,6.2146454l2.2325134,16.1418457l9.3907776,68.0098877
		l2.1022339,15.2411804l25.4590454,184.3353577C508.0151978,543.206604,505.1217651,547.4796143,503.3297119,549.4710693z"/>
	<path class="st9" d="M503.3297119,549.4710693c-1.7818298,1.9915771-5.7064209,5.3438721-11.9434814,5.3438721H106.4597626
		c-6.337265,0-10.2816772-3.4324341-12.0737534-5.473938c-1.7817993-2.0415649-4.6651993-6.4046021-3.8241577-12.6792603
		l24.5177917-184.0151978c91.0030899-7.2352905,135.2632446-38.9084473,183.2277832-62.776062
		c5.6663208-2.8120117,11.3727417-5.5240784,17.2294922-8.0558472c3.964447-1.741272,7.9890442-3.3925171,12.1038208-4.9537048
		c6.967865-2.6418457,14.1960144-5.0237122,21.7947388-7.0651245c17.9402466-4.8234863,37.9729614-7.7557068,61.7799988-7.7157593
		c24.247467,0.0400696,43.5093079,2.7921143,59.1569214,7.3454895l36.9520569,267.5864258
		C508.0151978,543.206604,505.1217651,547.4796143,503.3297119,549.4710693z"/>
	<path class="st9" d="M506.8225403,543.2766113c-0.1602783,0.5202637-0.3303223,1.0206299-0.5204163,1.4910889
		c-0.1001587,0.2301025-0.2001038,0.4602661-0.3002625,0.680542c-0.2101135,0.4502563-0.4202271,0.8704834-0.6503906,1.2609253
		c-0.6706543,1.1707764-1.4011841,2.0913696-2.0014648,2.7619019c-1.6813965,1.8814087-5.283905,4.9737549-10.9281921,5.3039551
		c-0.3300781,0.0299072-0.6704102,0.039917-1.020752,0.039917H365.7089233
		c2.6618652-6.2545776,3.8128662-13.2697144,3.0021973-20.5650024l-24.4578857-220.4418335l-1.9816895-17.893158
		l-2.5817261-23.2570496l-1.6813965-15.1911011c3.2426147-0.9906921,6.4949951-1.9114227,9.7571716-2.7520142
		c20.0447388-5.1838531,40.579834-7.6457367,63.036499-7.6457367h0.4502869
		c21.4957581,0.0400696,40.1493225,2.0615692,56.791687,6.1845856c0.0398254,0.010025,0.0698547,0.0200348,0.1099243,0.0300598
		l2.2316284,16.1418457l9.3970337,68.0098877l2.1014099,15.2411804l25.4586182,184.3353577
		C507.6031189,539.383728,507.3426819,541.4852295,506.8225403,543.2766113z"/>
	<path class="st10" d="M503.3390808,549.4710693c-1.7817993,1.9915771-5.7064209,5.3438721-11.9434814,5.3438721H106.4691467
		c-6.337265,0-10.2816772-3.4324341-12.0737457-5.473938c-1.7818069-2.0415649-4.6652069-6.4046021-3.8241653-12.6792603
		l24.5177917-184.0151978l2.0323334-15.2311401l1.351387-10.1673889l7.7086945-57.8124695l2.1525879-16.1218109
		c16.6988678-4.1630859,35.440094-6.2046204,57.0446625-6.2446899h0.4504547
		c32.0263062,0,60.1382599,5.0036621,88.4804535,15.7615509c7.6585999,2.9022827,15.4173889,6.2346802,24.0072021,10.337677
		c2.1723938,1.040802,4.3948975,2.1215515,6.6875305,3.2624207c3.5240173,1.7512817,7.0480347,3.5626526,10.5419922,5.3839417
		c4.5752563,2.3717346,9.1101685,4.7834167,13.5553894,7.1452637c7.8186951,4.1629639,15.6977234,8.3460999,23.8471069,12.4290466
		c32.7070313,16.3721313,69.9992981,31.1229553,126.823761,36.0464783l27.5612793,199.5765381
		C508.0245667,543.206604,505.1311646,547.4796143,503.3390808,549.4710693z"/>
	<path class="st8" d="M503.3296814,549.4710693c-1.7813416,1.9915771-5.7041626,5.3438721-11.9387207,5.3438721H106.4582596
		c-6.3344879,0-10.2773209-3.4324341-12.0686722-5.473938c-1.7813416-2.0415649-4.6635818-6.4046021-3.822876-12.6792603
		l1.1407318-8.5363159l34.4652405-258.6898804c15.6616364-4.5533752,34.9358063-7.3154297,59.2136383-7.3554993
		c33.8947449-0.0499573,60.164032,5.8944702,83.5913696,14.7808838c4.1128845,1.5611877,8.1358643,3.2124329,12.0987549,4.9436951
		c5.8644104,2.5417786,11.5685425,5.2538452,17.2328491,8.0658569c18.463501,9.1867981,36.3565369,19.5243225,56.5913391,29.1814575
		c32.4139404,15.4714355,70.7919617,29.1914673,126.9633179,33.6246643l22.8468628,165.4414978l0.1800537,1.2809448
		l1.2008362,8.7263794l1.230896,8.8865356C508.013031,543.206604,505.1210327,547.4796143,503.3296814,549.4710693z"/>
	<circle class="st9" cx="224.192276" cy="327.9031372" r="31.0486603"/>
	<circle class="st9" cx="166.4072723" cy="372.8470154" r="19.9324741"/>
	<circle class="st9" cx="203.4736176" cy="418.1937866" r="11.3078451"/>
	<path class="st11" d="M506.8068237,543.2766113c-0.1602783,0.5202637-0.3303223,1.0206299-0.5203857,1.4910889
		c-0.1001892,0.2301025-0.2001038,0.4602661-0.300293,0.680542c-0.2101135,0.4502563-0.4202271,0.8704834-0.6503601,1.2609253
		c-0.6706543,1.1707764-1.4011841,2.0913696-2.0014648,2.7619019c-1.681427,1.8814087-5.283905,4.9737549-10.9281921,5.3039551
		c-0.3300781,0.0299072-0.6704102,0.039917-1.0207825,0.039917H365.6932373
		c2.6618652-6.2545776,3.8128662-13.2697144,3.0021973-20.5650024l-24.4578857-220.4418335l-1.9816895-17.893158
		l-2.5817261-23.2570496c3.1822815-1.0107422,6.4346619-1.9714355,9.7571716-2.8620911
		c17.9430847-4.8234863,37.9778137-7.7557068,61.7853394-7.7157593c24.1876831,0.0400696,43.4117432,2.782074,59.0333252,7.3154297
		c0.0400696,0.0100403,0.0801392,0.02005,0.1199646,0.0300598l9.3970337,68.0098877l2.1013794,15.2411804l25.4586487,184.3353577
		C507.5874329,539.383728,507.3269958,541.4852295,506.8068237,543.2766113z"/>
	<circle class="st9" cx="310.7293091" cy="428.1539612" r="20.3256798"/>
	<circle class="st9" cx="269.3432007" cy="471.4122925" r="11.5309143"/>
	<path class="st12" d="M506.7832947,543.2766113c-0.1502686,0.5202637-0.3303223,1.0206299-0.5204163,1.4910889
		c-0.1001587,0.2301025-0.2001038,0.4602661-0.3002625,0.680542c-0.2001038,0.4502563-0.4202271,0.8704834-0.6503906,1.2609253
		c-0.6706543,1.1707764-1.4011536,2.0913696-2.0014648,2.7619019c-1.6813965,1.8814087-5.283905,4.9737549-10.9281921,5.3039551
		c-0.3300781,0.0299072-0.6704102,0.039917-1.020752,0.039917H365.6696777
		c2.6618652-6.2545776,3.8128662-13.2697144,3.0021973-20.5650024l-24.4578857-220.4418335l-1.9816895-17.893158
		c3.5226135,1.8314209,7.0752869,3.6627197,10.6880493,5.473999
		c32.6838989,16.3620911,69.9412231,31.1029053,126.7028503,36.0364685c0.0400696,0,0.0801392,0.0100098,0.1202087,0.0100098
		h0.0100098l27.5602722,199.5765381C507.5736694,539.383728,507.3136902,541.4852295,506.7832947,543.2766113z"/>
	<circle class="st9" cx="362.3609924" cy="473.4870605" r="31.6611557"/>
	<path class="st9" d="M507.42276,538.8833618c0,0.3203125-0.0100098,0.6405029-0.0300598,0.9406128
		c-0.0100098,0.2702026-0.0400696,0.5304565-0.0700989,0.7806396c-0.0300598,0.3902588-0.0899048,0.7705688-0.1600342,1.1307983
		c-0.0500793,0.2501831-0.1001892,0.5003662-0.1502686,0.7305298c-0.0698547,0.2802124-0.1399841,0.5504761-0.2101135,0.8106689
		c-0.3901672,1.3008423-0.9105835,2.4517212-1.4710388,3.4325562c-0.110199,0.1900635-0.2201538,0.380188-0.340332,0.5603638
		c-0.1400146,0.2301025-0.2902527,0.4502563-0.4402771,0.6605225c-0.1700439,0.2401733-0.3303223,0.4702759-0.5003662,0.6804199
		c-0.2501831,0.3203125-0.4903564,0.6104126-0.7204895,0.8605957c-0.5204163,0.5903931-1.230896,1.2910156-2.1414795,1.9915771
		c-0.1802979,0.1400146-0.3703918,0.2901611-0.5704956,0.4202271c-0.1900635,0.1401367-0.4004211,0.2802734-0.6105347,0.4202271
		c-0.2101135,0.130249-0.4302673,0.2702026-0.6604004,0.4004517c-0.2301636,0.1300049-0.4602966,0.2601929-0.70047,0.380188
		c-0.2401733,0.130188-0.4903564,0.2501831-0.7505493,0.3603516c-0.2601929,0.1199341-0.5204163,0.2301636-0.8006287,0.3302002
		c-0.5404358,0.210083-1.120697,0.3903198-1.7312622,0.550354c-0.6105652,0.1500854-1.2509155,0.2702026-1.9215698,0.3603516
		c-0.0198059,0.0100098-0.0398254,0.0100098-0.0698853,0.0100098c-0.3102722,0.0299072-0.6405945,0.0599976-0.9706726,0.0800171
		c-0.0601196,0.0100098-0.1202087,0.0198975-0.1800842,0.0100098c-0.2702026,0.0198975-0.5404358,0.0299072-0.8206482,0.0299072
		H365.6885986c2.6618652-6.2545776,3.8128357-13.2697144,3.0021973-20.5650024l-1.7913513-16.1318359l-22.6665344-204.3099976
		c3.4925537,1.7612915,7.0451965,3.5125732,10.6677246,5.2438354
		c32.3838806,15.4614258,70.7418823,29.1714172,126.8431091,33.614624c0.0400696,0,0.0801392,0.0100403,0.1202087,0.0100403
		l22.8468628,165.4414978l0.1800537,1.2809448l2.4317322,17.612915
		C507.3927002,537.6524658,507.42276,538.2828369,507.42276,538.8833618z"/>
	<path class="st13" d="M176.6990509,186.3626556h0.0000305c8.0326996,1.1289215,13.6293182,8.5558777,12.5003967,16.588562
		l-27.691864,197.0383148c-1.1289215,8.0327148-8.5558777,13.6293335-16.5885773,12.5003967h-0.0000305
		c-8.0326843-1.1289063-13.629303-8.5558777-12.5003815-16.588562l27.691864-197.0383301
		C161.2394104,190.8303528,168.6663666,185.2337341,176.6990509,186.3626556z"/>
	<path class="st13" d="M155.3502045,443.6792603l-5.3148041,37.8407593
		c-1.1309814,8.0274353-8.5549774,13.6228943-16.5924225,12.4917297
		c-7.4283752-1.0404053-12.7710114-7.4793701-12.6433334-14.7936707c0.0048828-0.2800903,0.0197906-0.5600891,0.0447159-0.8399353
		l0.0008698-0.0499573l5.3477478-38.0205078c1.1314087-8.0374451,8.5554047-13.6329041,16.5928497-12.5017395
		C150.5736389,428.9028015,156.0761719,435.9250488,155.3502045,443.6792603z"/>
	<path class="st7" d="M420.4622803,72.604332c0,3.6927719-2.9821777,6.6949768-6.6850891,6.7049942l-108.888092,0.1601563
		V45.4745522l108.8382568-0.1602707c2.5817261-0.0100174,4.8233643,1.4511375,5.9342957,3.5927238
		c0.0999146,0.1800652,0.1900635,0.370266,0.2702026,0.570488c0.079895,0.1700439,0.1400146,0.3400917,0.2001038,0.5302963
		c0.190094,0.6304665,0.3002625,1.3008804,0.3002625,1.9914513L420.4622803,72.604332z"/>
	<path class="st9" d="M503.3571472,549.4710693c-1.7813416,1.9915771-5.7041321,5.3438721-11.9386902,5.3438721H106.485733
		c-6.3344879,0-10.2773209-3.4324341-12.0686798-5.473938c-1.7813339-2.0415649-4.6635742-6.4046021-3.8228683-12.6792603
		l1.1407242-8.5363159h414.3842773l1.230896,8.8865356C508.0404968,543.206604,505.1484985,547.4796143,503.3571472,549.4710693z"/>
	<path class="st14" d="M368.4706726,532.0783081l-0.4502869-3.902771
		C368.0604553,528.4556274,368.2905884,529.9067993,368.4706726,532.0783081z"/>
	<path class="st11" d="M503.3597107,549.4710693c-1.7813416,1.9915771-5.7041321,5.3438721-11.9386902,5.3438721H365.7787476
		c3.372345-7.4353638,3.1522217-17.3126221,2.691925-22.7166138c0-0.0100098,0-0.0200195,0-0.0200195
		c-0.1800842-2.1715088-0.4102173-3.6226807-0.4502869-3.902771c-0.0100098-0.0300293-0.0100098-0.0501099-0.0100098-0.0501099
		h138.1113892l1.2308655,8.8865356C508.0430908,543.206604,505.151062,547.4796143,503.3597107,549.4710693z"/>
</g>
</svg>
