<?xml version="1.0" encoding="utf-8"?>
<!-- Generator: Adobe Illustrator 22.1.0, SVG Export Plug-In . SVG Version: 6.00 Build 0)  -->
<svg version="1.1" id="Layer_1" xmlns="http://www.w3.org/2000/svg" xmlns:xlink="http://www.w3.org/1999/xlink" x="0px" y="0px"
	 viewBox="0 0 600 600" style="enable-background:new 0 0 600 600;" xml:space="preserve">
<style type="text/css">
	.st0{fill:#F1F5D7;}
	.st1{fill:#D6EBD4;}
	.st2{fill:#B8E0D5;}
	.st3{fill:#F3F7DE;}
	.st4{fill:#DDEEDB;}
	.st5{fill:#C4E5DC;}
	.st6{fill:#AADCD9;}
	.st7{fill:#9ED3D7;}
	.st8{fill:#FFB957;}
	.st9{fill:#F7914F;}
	.st10{fill:#FFD889;}
	.st11{fill:#F26F51;}
	.st12{fill:#FEC763;}
	.st13{opacity:0.3;fill:#FFFFFF;enable-background:new    ;}
	.st14{fill:#F99D5C;}
</style>
<g>
	<polygon class="st0" points="366.7786865,128.6660767 275.3187256,128.8617554 198.6486969,129.0183105 198.5987091,104.276001 
		366.718689,103.9236755 366.718689,104.0803223 	"/>
	<path class="st1" d="M366.3627319,128.7695923l-80.6455078,0.1689453
		c-3.5383301,0.0075989-6.4115295-3.7438354-6.4177246-8.3793945l-0.0375061-7.97789
		c-0.0062256-4.6363373,2.8578186-8.4012604,6.3967285-8.4088593l80.6454773-0.1689453
		c3.5383301-0.0075989,6.4115295,3.7438202,6.4177551,8.3793945l0.0375061,7.9778748
		C372.7656555,124.9970551,369.9016418,128.7619934,366.3627319,128.7695923z"/>
	<path class="st2" d="M401.4304199,128.9069824H336.384552c-3.5280762,0-6.3896179-3.7283325-6.3947754-8.3318481
		l-0.0314026-8.068161c-0.005127-4.6076202,2.8529053-8.348526,6.3841248-8.3562164l65.0609131-0.1157684
		c0,0.8519287-0.0137329,7.2556305-0.0137329,8.3318939L401.4304199,128.9069824z"/>
	<path class="st3" d="M492.2504883,579.5550537H107.7604828c-24.8100586,0-43.9401817-21.8498535-40.670166-46.4399414
		l49.1201172-368.7099609c2.7099609-20.3800049,20.1000977-35.6000977,40.6599121-35.6000977h284.4799805
		c20.9001465,0,38.4602051,15.7200928,40.7700195,36.4899902l50.9001465,368.710083
		C535.7104492,558.3050537,516.6904297,579.5550537,492.2504883,579.5550537z"/>
	<path class="st4" d="M491.8703613,579.5550537h-164c17.1101074,0,31.5600586-10.4199219,37.7700195-25
		c2.6599121-6.25,3.8100586-13.2600098,3-20.5499268l-40.8999023-368.710083
		c-0.4499512-4.0499268-1.4799805-7.9099121-3.0100098-11.4899902c-6.2700195-14.8099365-20.9301758-25-37.7600098-25h154
		c20.8999023,0,38.4599609,15.7200928,40.7700195,36.4899902l50.8999023,368.710083
		C535.3305664,558.3050537,516.3105469,579.5550537,491.8703613,579.5550537z"/>
	<path class="st5" d="M492.2504883,579.5550537H377.7004395c17.1101074,0,31.5600586-10.4199219,37.7700195-25
		c2.6599121-6.25,3.8100586-13.2600098,3-20.5499268l-40.9001465-368.710083
		c-0.4499512-4.0499268-1.4799805-7.9099121-3.0097656-11.4899902c-6.2700195-14.8099365-20.9301758-25-37.7602539-25h104.5500488
		c20.9001465,0,38.4602051,15.7200928,40.7700195,36.4899902l50.9001465,368.710083
		C535.7104492,558.3050537,516.6904297,579.5550537,492.2504883,579.5550537z"/>
	<path class="st6" d="M106.6300583,554.552124c-6.3222656,0-10.265625-3.4248047-12.0537109-5.4667969
		c-1.7871094-2.0419922-4.6621094-6.4033203-3.8271484-12.6699219l49.1162186-368.7089844
		c1.0556641-7.9267578,7.8828125-13.9042969,15.8798828-13.9042969l284.4765625-0.0009766
		c8.1757813,0,15.0214844,6.1279297,15.9228516,14.2539063l40.8994141,368.7089844
		c0.6865234,6.1923828-2.203125,10.4599609-3.9863281,12.4521484c-1.7841797,1.9921875-5.7060547,5.3349609-11.9365234,5.3349609
		L106.6300583,554.552124z"/>
	<path class="st6" d="M503.050293,549.2150879c-1.7797852,1.9901123-5.6999512,5.3399658-11.9299316,5.3399658H106.6303558
		c-6.3300781,0-10.2700195-3.4299316-12.0600586-5.4699707c-1.7797852-2.0400391-4.6599121-6.3999023-3.8198242-12.6699219
		l24.4899902-183.880127l2.0300293-15.2199707l1.3498535-10.1599121l7.6999512-57.7700195l2.1501465-16.1099854
		l1.4099121-10.6099854l0.9799805-7.3701172l1.0100098-7.6098633l1.2700195-9.5100098l6.7199707-50.4699707
		c1.0600586-7.9300537,7.880127-13.9001465,15.880127-13.9001465H440.220459c8.1699219,0,15.0200195,6.1201172,15.9199219,14.25
		l50.9001465,368.710083C507.7304688,542.9552002,504.840332,547.2250977,503.050293,549.2150879z"/>
	<path class="st7" d="M503.050293,549.2150879c-1.7797852,1.9901123-5.6999512,5.3399658-11.9299316,5.3399658H365.6403809
		c2.6599121-6.25,3.8100586-13.2600098,3-20.5499268l-40.8999023-368.710083
		c-0.4499512-4.0499268-1.4799805-7.9099121-3.0100098-11.4899902H440.220459c8.1699219,0,15.0200195,6.1201172,15.9199219,14.25
		l11.7600098,85.1900635l2.2299805,16.1300049l9.380127,67.9599609l2.0998535,15.2299805l25.4301758,184.2000732
		C507.7304688,542.9552002,504.840332,547.2250977,503.050293,549.2150879z"/>
	<path class="st7" d="M503.1804199,549.2150879c-1.6699219,1.8699951-5.2199707,4.9300537-10.7900391,5.3000488
		c-0.329834,0.0299072-0.6699219,0.039917-1.0200195,0.039917H365.7705078c2.6599121-6.25,3.8100586-13.2600098,3-20.5499268
		l-24.4399414-220.2800293l-1.9802246-17.8800049l-2.579834-23.2399902l-1.6801758-15.1799316l-10.2199707-92.130127
		c-0.4499512-4.0499268-1.4799805-7.9099121-3.0100098-11.4899902h115.4899902c8.170166,0,15.0200195,6.1201172,15.920166,14.25
		l11.7600098,85.1600342l2.2199707,16.1300049l9.3898926,67.9799805l2.1000977,15.2299805l25.4299316,184.210083
		C507.8603516,542.9552002,504.970459,547.2250977,503.1804199,549.2150879z"/>
	<path class="st5" d="M194.2440643,153.8050537c-8,0-14.8200684,5.9700928-15.880127,13.9001465l-49.1098633,368.7099609
		c-0.8400879,6.2700195,2.0400391,10.6298828,3.8198242,12.6699219c1.7900391,2.0400391,5.7299805,5.4699707,12.0600586,5.4699707
		h-38.5c-6.3300781,0-10.2700195-3.4299316-12.0600586-5.4699707c-1.7797852-2.0400391-4.6599121-6.3999023-3.8198242-12.6699219
		l49.1098633-368.7099609c1.0600586-7.9300537,7.880127-13.9001465,15.880127-13.9001465H194.2440643z"/>
	<path class="st3" d="M445.343811,88.1683655c0.0100098,4.3000488-1.6601563,8.3500977-4.6901855,11.3901367
		c-3.0297852,3.039917-7.0698242,4.7199707-11.369873,4.7299805H169.0938263
		c-8.8400879,0-13.9602051-6.8300781-13.9799805-15.6800537l-0.0800781-51.6999512
		c-0.0100098-4.3000488,1.6599121-8.3399658,4.6899414-11.3800049s7.0600586-5.0700684,11.3601074-5.0800781H429.923645
		c8.6000977,0.380127,15.3300781,7.4200439,15.3400879,16.0200195L445.343811,88.1683655z"/>
	<path class="st5" d="M445.343811,88.1683655c0.0100098,4.3000488-1.6601563,8.3500977-4.6901855,11.3901367
		c-3.0297852,3.039917-7.0698242,4.7199707-11.369873,4.7299805H313.8638306
		c4.3000488-0.0100098,8.3398438-1.6900635,11.369873-4.7299805c3.0300293-3.0400391,4.6999512-7.0900879,4.6899414-11.3901367
		l-0.0097656-8.5699463l-0.0600586-33.9599609l-0.0100098-9.1700439
		c-0.0100098-8.5999756-6.7399902-15.6398926-15.3400879-16.0200195H429.923645
		c8.6000977,0.380127,15.3300781,7.4200439,15.3400879,16.0200195L445.343811,88.1683655z"/>
	<path class="st4" d="M366.3855896,88.1650391c0.0100098,4.2999268-1.6599121,8.3498535-4.6899414,11.3898926
		s-7.0698242,4.7199707-11.369873,4.7299805h-61.4221497c4.3000488-0.0100098,8.3400879-1.6899414,11.3701172-4.7299805
		s4.6999512-7.0899658,4.6899414-11.3898926l-0.0800781-51.7000732c-0.0097656-8.5999756-6.7397461-15.640007-15.3398438-16.0200195
		h61.4219055c8.6000977,0.3800049,15.3300781,7.4200439,15.3400879,16.0200195L366.3855896,88.1650391z"/>
	<path class="st6" d="M420.3738403,72.6983948c0,3.6900635-2.9799805,6.6900635-6.6801758,6.7000732l-108.75,0.1600342h-2.8498535
		l-115.3600922,0.1699219c-3.6999512,0.0100098-6.6899414-2.9799805-6.6999512-6.6799316l-0.0300293-20.5900879
		c-0.0100098-3.6899414,2.9799805-6.6899414,6.6699219-6.6999512l103.4701996-0.1500244l14.7998047-0.0198975l108.7001953-0.1601563
		c2.579834-0.0100098,4.8198242,1.4500732,5.9299316,3.5900879c0.0998535,0.1799316,0.1899414,0.3699951,0.2700195,0.5700684
		c0.079834,0.1699219,0.1398926,0.3398438,0.1999512,0.5299072c0.1899414,0.6300049,0.3000488,1.2999268,0.3000488,1.9899902
		L420.3738403,72.6983948z"/>
	<path class="st8" d="M503.1804504,549.2150879c-1.7805176,1.9901123-5.70224,5.3399658-11.9347229,5.3399658H106.6018295
		c-6.3326111,0-10.2741318-3.4299316-12.064888-5.4699707c-1.7804947-2.0400391-4.6617813-6.3999023-3.8213577-12.6699219
		l24.499794-183.880127l2.0308456-15.2199707c70.7783279-6.1699219,111.1944046-27.6398926,150.2901306-48.4199219
		c4.4517212-2.3601074,8.9835815-4.7700195,13.5552368-7.1500244c3.5014038-1.8199463,7.0130615-3.6199951,10.5344849-5.3699951
		c2.2907104-1.1400146,4.5115662-2.2199707,6.6826172-3.2600098c8.583252-4.0999756,16.3363647-7.4299316,23.989563-10.3300781
		c8.4633484-3.2099609,16.8966675-5.9099121,25.4200745-8.1098633c20.0280457-5.1800537,40.5462646-7.6401367,62.9851685-7.6401367
		h0.4503784c21.5286255,0.0400391,40.2060242,2.0700684,56.8626099,6.210083l2.2308655,16.1300049l9.3838806,67.9599609
		l2.100708,15.2299805l25.4403381,184.2000732C507.8624878,542.9552002,504.9711914,547.2250977,503.1804504,549.2150879z"/>
	<path class="st9" d="M503.1804504,549.2150879c-1.7805176,1.9901123-5.70224,5.3399658-11.9347229,5.3399658H106.6018295
		c-6.3326111,0-10.2741318-3.4299316-12.064888-5.4699707c-1.7804947-2.0400391-4.6617813-6.3999023-3.8213577-12.6699219
		l24.499794-183.880127c90.9362946-7.2299805,135.1639557-38.8798828,183.0933075-62.7299805
		c5.6621704-2.8099365,11.3644104-5.5200195,17.2168274-8.0499268c3.9615479-1.7399902,7.9831848-3.3900146,12.0949402-4.9500732
		c6.962738-2.6398926,14.1856079-5.0200195,21.778717-7.0599365c17.9270935-4.8199463,37.9451294-7.75,61.7346802-7.710083
		c24.2296753,0.0400391,43.477356,2.7900391,59.1134949,7.3400879l36.9249268,267.3900146
		C507.8624878,542.9552002,504.9711914,547.2250977,503.1804504,549.2150879z"/>
	<path class="st9" d="M506.6707153,543.0251465c-0.1601563,0.5198975-0.3300781,1.0198975-0.5200195,1.4899902
		c-0.1000977,0.2299805-0.1999512,0.4599609-0.3000488,0.6800537c-0.2099609,0.4499512-0.4199219,0.869873-0.6499023,1.2600098
		c-0.670166,1.1699219-1.4001465,2.0898438-2,2.7598877c-1.6801758,1.8800049-5.2800293,4.9700928-10.920166,5.3000488
		c-0.329834,0.0299072-0.6699219,0.039917-1.0200195,0.039917H365.6607056c2.6599121-6.25,3.8100586-13.2600098,3-20.5499268
		l-24.4399414-220.2800293l-1.9802246-17.8800049l-2.579834-23.2399902l-1.6801758-15.1799316
		c3.2402344-0.9899902,6.4902344-1.9100342,9.75-2.75c20.0300293-5.1800537,40.5500488-7.6401367,62.9902344-7.6401367h0.4499512
		c21.4799805,0.0400391,40.119873,2.0600586,56.75,6.1800537c0.0397949,0.0100098,0.0698242,0.0200195,0.1098633,0.0300293
		l2.2299805,16.1300049l9.3901367,67.9599609l2.0998535,15.2299805l25.4399414,184.2000732
		C507.4507446,539.1351318,507.1904907,541.2351074,506.6707153,543.0251465z"/>
	<path class="st10" d="M503.1898193,549.2150879c-1.7804871,1.9901123-5.70224,5.3399658-11.9346924,5.3399658H106.6112061
		c-6.3326111,0-10.2741318-3.4299316-12.064888-5.4699707c-1.7804947-2.0400391-4.6617737-6.3999023-3.8213501-12.6699219
		l24.499794-183.880127l2.030838-15.2199707l1.3503952-10.1599121l7.7030334-57.7700195l2.1510086-16.1099854
		c16.686615-4.1600342,35.4140778-6.2000732,57.0027924-6.2401123h0.4501343c32.0027924,0,60.0941162,5,88.4154968,15.75
		c7.6529846,2.9001465,15.4060669,6.2301025,23.9895935,10.3300781c2.1707764,1.0400391,4.3916321,2.1199951,6.6825867,3.2600098
		c3.5214539,1.75,7.0428772,3.5600586,10.5342712,5.3800049c4.5718994,2.3699951,9.1034851,4.7799072,13.5454407,7.1400146
		c7.8129578,4.1599121,15.6862183,8.3399658,23.8296204,12.4199219
		c32.6829834,16.3601074,69.9479065,31.1000977,126.7306213,36.0200195l27.5410461,199.4300537
		C507.8718567,542.9552002,504.9805908,547.2250977,503.1898193,549.2150879z"/>
	<path class="st8" d="M503.1804199,549.2150879c-1.7800293,1.9901123-5.6999512,5.3399658-11.9299316,5.3399658H106.6003265
		c-6.329834,0-10.2697754-3.4299316-12.0598145-5.4699707c-1.7800293-2.0400391-4.6601563-6.3999023-3.8200684-12.6699219
		l1.1398926-8.5300293l34.4399414-258.5c15.6501465-4.5500488,34.9101563-7.3100586,59.170166-7.3500977
		c33.869873-0.0499268,60.119873,5.8901367,83.5300446,14.7700195c4.1098633,1.5600586,8.1298828,3.210083,12.0898438,4.9400635
		c5.8601074,2.539917,11.5600586,5.25,17.2202148,8.0599365c18.4499512,9.1800537,36.329834,19.5100098,56.5498047,29.1600342
		c32.3901367,15.460083,70.7399902,29.1700439,126.8701172,33.5999756l22.8300781,165.3200684l0.1799316,1.2800293
		l1.1999512,8.7199707l1.2299805,8.8800049C507.8603516,542.9552002,504.970459,547.2250977,503.1804199,549.2150879z"/>
	<circle class="st9" cx="224.2479248" cy="327.8097839" r="31.0258789"/>
	<circle class="st9" cx="166.5053406" cy="372.7207031" r="19.9178467"/>
	<circle class="st9" cx="203.5444794" cy="418.0341492" r="11.2995377"/>
	<path class="st11" d="M506.6550293,543.0251465c-0.1601563,0.5198975-0.3300781,1.0198975-0.5200195,1.4899902
		c-0.1000977,0.2299805-0.1999512,0.4599609-0.3000488,0.6800537c-0.2099609,0.4499512-0.4199219,0.869873-0.6499023,1.2600098
		c-0.670166,1.1699219-1.4001465,2.0898438-2,2.7598877c-1.6801758,1.8800049-5.2800293,4.9700928-10.920166,5.3000488
		c-0.329834,0.0299072-0.6699219,0.039917-1.0200195,0.039917H365.6450195c2.6599121-6.25,3.8100586-13.2600098,3-20.5499268
		l-24.4399414-220.2800293l-1.9802246-17.8800049l-2.579834-23.2399902c3.1799316-1.0100098,6.4299316-1.9699707,9.75-2.8599854
		c17.9299316-4.8199463,37.9499512-7.75,61.7399902-7.710083c24.1699219,0.0400391,43.3798828,2.7800293,58.9899902,7.3100586
		c0.0400391,0.0100098,0.0800781,0.0200195,0.119873,0.0300293l9.3901367,67.9599609l2.0998535,15.2299805l25.4399414,184.2000732
		C507.4350586,539.1351318,507.1748047,541.2351074,506.6550293,543.0251465z"/>
	<circle class="st9" cx="362.3152161" cy="473.2868652" r="31.6379242"/>
	<circle class="st9" cx="311.3430176" cy="428.9547119" r="20.3107719"/>
	<circle class="st9" cx="274.4901428" cy="476.0789795" r="11.5224609"/>
	<path class="st12" d="M506.6315002,543.0251465c-0.1501465,0.5198975-0.3300781,1.0198975-0.5200195,1.4899902
		c-0.1000977,0.2299805-0.1999512,0.4599609-0.3000488,0.6800537c-0.1999512,0.4499512-0.4199219,0.869873-0.6499023,1.2600098
		c-0.670166,1.1699219-1.4001465,2.0898438-2,2.7598877c-1.6801758,1.8800049-5.2800293,4.9700928-10.920166,5.3000488
		c-0.329834,0.0299072-0.6699219,0.039917-1.0200195,0.039917H365.6214905c2.6599121-6.25,3.8100586-13.2600098,3-20.5499268
		l-24.4399414-220.2800293l-1.9802246-17.8800049c3.5200195,1.8300781,7.0700684,3.6600342,10.6801758,5.4699707
		c32.6599121,16.3500977,69.8898926,31.0800781,126.6098633,36.0100098c0.0400391,0,0.0800781,0.0100098,0.1201172,0.0100098
		h0.0100098l27.5400391,199.4300537C507.4212952,539.1351318,507.1615295,541.2351074,506.6315002,543.0251465z"/>
	<path class="st9" d="M507.2705078,538.6351318c0,0.3200684-0.0100098,0.6400146-0.0300293,0.9399414
		c-0.0100098,0.2700195-0.0400391,0.5300293-0.0700684,0.7800293c-0.0300293,0.3900146-0.0898438,0.7700195-0.1599121,1.1300049
		c-0.0500488,0.25-0.1000977,0.5-0.1501465,0.7299805c-0.0698242,0.2800293-0.1398926,0.5500488-0.2099609,0.8100586
		c-0.3898926,1.2999268-0.9099121,2.4499512-1.4699707,3.4300537c-0.1101074,0.1899414-0.2199707,0.3798828-0.3400879,0.5599365
		c-0.1398926,0.2299805-0.2900391,0.4499512-0.4399414,0.6600342c-0.1699219,0.2399902-0.3300781,0.4699707-0.5,0.6799316
		c-0.25,0.3200684-0.4899902,0.6099854-0.7199707,0.8599854c-0.5200195,0.5899658-1.2299805,1.2900391-2.1398926,1.9901123
		c-0.1801758,0.1398926-0.3701172,0.289917-0.5700684,0.4199219c-0.1899414,0.1400146-0.4001465,0.2800293-0.6101074,0.4199219
		c-0.2099609,0.130127-0.4299316,0.2700195-0.6599121,0.4001465c-0.2299805,0.1298828-0.4599609,0.2600098-0.6999512,0.3798828
		c-0.2399902,0.130127-0.4899902,0.25-0.75,0.3601074c-0.2600098,0.119873-0.5200195,0.2299805-0.8000488,0.3299561
		c-0.5400391,0.2099609-1.119873,0.3900146-1.7299805,0.5499268c-0.6101074,0.1500244-1.25,0.2700195-1.920166,0.3601074
		c-0.0197754,0.0100098-0.0397949,0.0100098-0.0698242,0.0100098c-0.3100586,0.0299072-0.6401367,0.0599365-0.9699707,0.0799561
		c-0.0600586,0.0100098-0.1201172,0.0198975-0.1799316,0.0100098c-0.2700195,0.0198975-0.5400391,0.0299072-0.8200684,0.0299072
		H365.6403809c2.6599121-6.25,3.8100586-13.2600098,3-20.5499268l-1.7900391-16.1199951l-22.6499023-204.1600342
		c3.4899902,1.7600098,7.0400391,3.5100098,10.6599121,5.2399902c32.3601074,15.4500732,70.6899414,29.1500244,126.75,33.5899658
		c0.0400391,0,0.0800781,0.0100098,0.1201172,0.0100098l22.8300781,165.3200684l0.1799316,1.2800293l2.4299316,17.5999756
		C507.2404785,537.4051514,507.2705078,538.0350342,507.2705078,538.6351318z"/>
	<path class="st13" d="M176.789566,186.37323h0.0000305c8.0267944,1.1280518,13.6193085,8.5495605,12.4912109,16.576355
		l-27.6715393,196.8937073c-1.1280823,8.0267944-8.5495911,13.6192932-16.5763855,12.4912109h-0.0000305
		c-8.0267944-1.1281128-13.6193085-8.5495911-12.4912109-16.5763855l27.6715393-196.8936768
		C161.3412628,190.8376465,168.7627716,185.2451172,176.789566,186.37323z"/>
	<path class="st13" d="M155.4563904,443.5009766l-5.3108978,37.8129272
		c-1.1301575,8.0215454-8.5487061,13.612854-16.580246,12.4825439c-7.4229355-1.0396118-12.7616501-7.4738159-12.6340637-14.7827759
		c0.0048828-0.2799072,0.0197754-0.5596924,0.0446854-0.8393555l0.0008698-0.0499268l5.3438187-37.9925537
		c1.1305847-8.0315552,8.5491333-13.6229248,16.5806732-12.4925842
		C150.6833344,428.735321,156.1818237,435.7524414,155.4563904,443.5009766z"/>
	<path class="st7" d="M420.3738403,72.6983948c0,3.6900635-2.9799805,6.6900635-6.6801758,6.7000732l-108.808136,0.1600342
		V45.5885315l108.7583313-0.1601563c2.579834-0.0100098,4.8198242,1.4500732,5.9299316,3.5900879
		c0.0998535,0.1799316,0.1899414,0.3699951,0.2700195,0.5700684c0.079834,0.1699219,0.1398926,0.3398438,0.1999512,0.5299072
		c0.1899414,0.6300049,0.3000488,1.2999268,0.3000488,1.9899902L420.3738403,72.6983948z"/>
	<path class="st9" d="M503.2078552,549.2150879c-1.7800293,1.9901123-5.6999512,5.3399658-11.9299316,5.3399658H106.6277771
		c-6.329834,0-10.2697754-3.4299316-12.0598145-5.4699707c-1.7800293-2.0400391-4.6601563-6.3999023-3.8200684-12.6699219
		l1.1398926-8.5300293H505.967865l1.2299805,8.8800049C507.8877869,542.9552002,504.9978943,547.2250977,503.2078552,549.2150879z"
		/>
	<path class="st14" d="M368.4204102,531.835083l-0.4499512-3.8999023
		C368.010498,528.2150879,368.2404785,529.6651611,368.4204102,531.835083z"/>
	<path class="st11" d="M503.2104492,549.2150879c-1.7800293,1.9901123-5.6999512,5.3399658-11.9299316,5.3399658H365.7304688
		c3.369873-7.4299316,3.1499023-17.2999268,2.6899414-22.6999512c0-0.0100098,0-0.0200195,0-0.0200195
		c-0.1799316-2.1699219-0.4099121-3.6199951-0.4499512-3.8999023c-0.0100098-0.0300293-0.0100098-0.0500488-0.0100098-0.0500488
		H505.970459l1.2299805,8.8800049C507.8903809,542.9552002,505.0004883,547.2250977,503.2104492,549.2150879z"/>
</g>
</svg>
