<?xml version="1.0" encoding="utf-8"?>
<!-- Generator: Adobe Illustrator 22.1.0, SVG Export Plug-In . SVG Version: 6.00 Build 0)  -->
<svg version="1.1" id="Layer_1" xmlns="http://www.w3.org/2000/svg" xmlns:xlink="http://www.w3.org/1999/xlink" x="0px" y="0px"
	 viewBox="0 0 600 600" style="enable-background:new 0 0 600 600;" xml:space="preserve">
<style type="text/css">
	.st0{fill:#AADCD9;}
	.st1{fill:#F3F7DE;}
	.st2{fill:#9ED3D7;}
	.st3{fill:#FFDD9D;}
	.st4{fill:#FFC98F;}
	.st5{fill:#C4E5DC;}
	.st6{fill:#DA1A48;}
	.st7{fill:#CB1749;}
	.st8{fill:#E63B66;}
	.st9{fill:#E22955;}
	.st10{fill:#D83232;}
	.st11{fill:#D81A48;}
	.st12{fill:#EB526F;}
	.st13{fill:none;}
	.st14{fill:#DDEEDB;}
	.st15{fill:#B71547;}
	.st16{fill:#E7EAD0;}
	.st17{fill:#81C6CB;}
</style>
<g>
	<path class="st0" d="M300,521.7631836c-75.0335083,0-138.9940033-56.0451355-148.7778625-130.3665161
		c-0.6429749-4.8690186-1.0459747-9.8543701-1.1994019-14.8223267c-0.058609-1.593689-0.0870056-3.2038879-0.0870056-4.8754272
		c0-9.6620483,0.9255371-19.3126221,2.7509613-28.6829529c1.4489899-7.4313049,3.4768372-14.8040161,6.0267487-21.9115295
		C180.0887146,261.6108704,236.8679504,221.6346283,300,221.6346283c63.7315063,0,120.6824951,40.463974,141.7156677,100.6893463
		c2.008606,5.7354736,3.6801453,11.6646729,4.9707031,17.6355591c2.2412415,10.3732605,3.3778992,21.0524292,3.3778992,31.7393799
		c0,1.6669617-0.0210571,3.0335083-0.0659485,4.3011475l-0.0091553,0.3068237
		c-0.1841125,6.2172852-0.7611389,12.4674988-1.7164307,18.5812683
		c-4.5612793,29.2911072-17.6598511,56.379425-37.8806152,78.3450317
		c-19.9716187,21.6962891-45.4992065,36.9115601-73.8551636,44.0300598l-0.6246643,0.1529541
		C324.2123413,520.3004761,312.1295166,521.7631836,300,521.7631836z"/>
	<rect x="235.9008942" y="138.1609955" class="st1" width="128.1808624" height="91.2927094"/>
	<circle class="st1" cx="300" cy="371.6989136" r="192.2698517"/>
	<path class="st2" d="M464.1331787,371.6989136c0,1.6131592-0.0187683,3.2076111-0.0750427,4.8020325v0.0187988
		c-0.1969299,6.8747559-0.815979,13.627655-1.8476563,20.2680359c-0.0093689,0.09375-0.0187683,0.1781921-0.0374756,0.2719727
		c-10.1669006,65.2779846-58.9471741,117.9505005-122.1710815,133.838562h-0.0093994
		c-0.2344666,0.0562744-0.4689636,0.1219482-0.7034302,0.1782227h-0.0093994
		c-12.5960083,3.1044312-25.7453918,4.755188-39.2792969,4.755188c-83.2106323,0-152.1463928-62.2298279-162.7259521-142.5986328
		c-0.0093994-0.0562744-0.0187836-0.1219482-0.0187836-0.1781921c-0.6940308-5.2616272-1.1254272-10.607666-1.2942505-16.0193481
		v-0.0281372c-0.0656586-1.7632751-0.0938263-3.5358582-0.0938263-5.3085022c0-9.7166443,0.8441315-19.2269897,2.4666901-28.4747009
		c0.1782074-0.9660645,0.3563995-1.9321289,0.5439911-2.8981323c1.3974762-7.1749573,3.2638855-14.1810608,5.5617523-20.9902344
		c0.3282471-1.0035706,0.6752625-1.9977417,1.0316772-2.9825134
		c22.7628937-63.3552551,83.4357452-108.7872162,154.5287018-108.7872162
		c71.5994263,0,132.6286926,46.0697174,154.9976196,110.1190033c0.1782227,0.5065002,0.3564148,1.0223389,0.525238,1.5287781
		c1.9602356,5.7868347,3.6015625,11.714386,4.9145813,17.7732544c0.0938416,0.4314575,0.1875916,0.8534546,0.2720337,1.2849121
		C462.951416,349.0767212,464.1331787,360.2565002,464.1331787,371.6989136z"/>
	<path class="st0" d="M300,521.7631836c-75.0335083,0-138.9940033-56.0451355-148.7778625-130.3665161
		c-0.6429749-4.8690186-1.0459747-9.8543701-1.1994019-14.8223267c-0.058609-1.593689-0.0870056-3.2038879-0.0870056-4.8754272
		c0-9.6620483,0.9255371-19.3126221,2.7509613-28.6829529c1.4489899-7.4313049,3.4768372-14.8040161,6.0267487-21.9115295
		C180.0887146,261.6108704,236.8679504,221.6346283,300,221.6346283c63.7315063,0,120.6824951,40.463974,141.7156677,100.6893463
		c2.008606,5.7354736,3.6801453,11.6646729,4.9707031,17.6355591c2.2412415,10.3732605,3.3778992,21.0524292,3.3778992,31.7393799
		c0,1.6669617-0.0210571,3.0335083-0.0659485,4.3011475l-0.0091553,0.3068237
		c-0.1841125,6.2172852-0.7611389,12.4674988-1.7164307,18.5812683
		c-4.5612793,29.2911072-17.6598511,56.379425-37.8806152,78.3450317
		c-19.9716187,21.6962891-45.4992065,36.9115601-73.8551636,44.0300598l-0.6246643,0.1529541
		C324.2123413,520.3004761,312.1295166,521.7631836,300,521.7631836z"/>
	<g>
		<path class="st3" d="M366.1624451,58.4054413l-8.0149231,44.4894333
			c0.0095215,5.8712234-1.8470154,11.1826096-4.8317261,14.9508057c-3.25,3.4705582-7.8706055,5.6521912-12.9692993,5.6604385
			l-81.3141479,0.1316071c-9.8110657,0.0158844-17.8473206-7.9944077-17.863205-17.8055344l-8.0186157-48.8251228
			c-1.1226654-6.8359184,1.6405945-13.8518372,7.3708191-17.7447357c2.8444214-1.9323883,6.2703857-3.0662422,9.9496002-3.072197
			l98.1538391-0.1588631c2.5492554-0.0041237,4.9807434,0.5354195,7.1825867,1.5084763
			c4.2997742,1.9001923,7.4801025,5.6411247,9.11026,10.0503616c0.7093201,1.9185638,1.1998291,4.0036774,1.4284973,6.19767
			C366.5065002,55.3266487,366.4367371,56.8827515,366.1624451,58.4054413z"/>
		<path class="st4" d="M366.1708679,58.3586235l-8.0233459,44.5362511
			c0.0095215,5.8712234-1.8470154,11.1826096-4.8317261,14.9508057c-2.9194946,3.1168594-6.9333191,5.1871033-11.4133606,5.5806656
			c-0.5075989,0.0559845-1.0262146,0.0789185-1.5559387,0.0797729l-21.8956909,0.0354385
			c8.4978333-0.0137482,15.4355774-9.2953644,15.4172668-20.6073837l8.3448792-46.3211327
			c-0.0183105-11.3120193-6.9860229-20.5600815-15.4838562-20.5463295l21.8956909-0.0354385
			c2.5492554-0.0041237,4.9807434,0.5354233,7.1825867,1.5084877c4.2999573,1.9002762,7.4803467,5.6414566,9.1104736,10.0509109
			c0.7749329,2.0961876,1.2886658,4.3911819,1.4850464,6.809761
			C366.5102539,55.7224884,366.4060364,57.0532303,366.1708679,58.3586235z"/>
		<circle class="st4" cx="283.6965027" cy="90.5157547" r="11.744626"/>
		<circle class="st4" cx="283.9454956" cy="51.3922691" r="6.5724182"/>
		<circle class="st4" cx="258.368866" cy="64.5863342" r="12.8590794"/>
		<circle class="st4" cx="323.5786743" cy="64.5863342" r="8.6965761"/>
	</g>
	<circle class="st5" cx="300.0097656" cy="371.5903015" r="98.4492188"/>
	<path class="st6" d="M464.1331787,371.6989136c0,1.6131592-0.0187683,3.2076111-0.0750427,4.8020325v0.0187988
		c-0.1969299,6.8747559-0.815979,13.627655-1.8476563,20.2680359c-0.0093689,0.09375-0.0187683,0.1781921-0.0374756,0.2719727
		c-10.1669006,65.2779846-58.9471741,117.9505005-122.1710815,133.838562h-0.0093994
		c-0.2344666,0.0562744-0.4689636,0.1219482-0.7034302,0.1782227h-0.0093994
		c-12.5960083,3.1044312-25.7453918,4.755188-39.2792969,4.755188c-83.2106323,0-152.1463928-62.2298279-162.7259521-142.5986328
		c-0.0093994-0.0562744-0.0187836-0.1219482-0.0187836-0.1781921c-0.6940308-5.2616272-1.1254272-10.607666-1.2942505-16.0193481
		c142.1952667-0.6096497,153.9377594-70.8397217,255.221817-71.0085449
		c29.8908997-0.046875,49.8400269,5.3554382,64.3400269,13.1868896c1.9602356,5.7868347,3.6015625,11.714386,4.9145813,17.7732544
		c0.0938416,0.4314575,0.1875916,0.8534546,0.2720337,1.2849121
		C462.951416,349.0767212,464.1331787,360.2565002,464.1331787,371.6989136z"/>
	<path class="st7" d="M464.1331787,371.6989136c0,1.6131592-0.0187683,3.2076111-0.0750427,4.8020325v0.0187988
		c-0.1969299,6.8747559-0.815979,13.627655-1.8476563,20.2680359c-0.0093689,0.09375-0.0187683,0.1781921-0.0374756,0.2719727
		c-10.1669006,65.2779846-58.9471741,117.9505005-122.1710815,133.838562
		c-0.2344971,0.0562744-0.478363,0.1219482-0.7128296,0.1782227h-0.0093994
		c-12.5960083,3.1044312-25.7453918,4.755188-39.2792969,4.755188c-83.2106323,0-152.1463928-62.2298279-162.7259521-142.5986328
		c-0.0093994-0.0562744-0.0187836-0.1219482-0.0187836-0.1781921
		c82.2071075-0.5908508,120.5767059-24.5917664,158.2802887-44.5221863
		c26.9552917-14.2373352,53.5823364-26.401947,95.6753845-26.4769287
		c33.605011-0.0562744,54.6515503,6.7903748,69.4985352,16.2162781
		C462.951416,349.0767212,464.1331787,360.2565002,464.1331787,371.6989136z"/>
	<path class="st8" d="M464.058136,376.5197449c-0.1969299,6.8747559-0.815979,13.627655-1.8476563,20.2680359
		c-0.0093689,0.09375-0.0187683,0.1781921-0.0374756,0.2719727
		c-10.1669006,65.2779846-58.9471741,117.9505005-122.1710815,133.838562
		c-0.2344971,0.0562744-0.478363,0.1219482-0.7128296,0.1782227h-0.0093994
		c-12.5960083,3.1044312-25.7453918,4.755188-39.2792969,4.755188c-83.2106323,0-152.1463928-62.2298279-162.7259521-142.5986328
		c-0.7034302-5.3272705-1.1442108-10.7389221-1.3130341-16.2256775c-0.0656586-1.7632751-0.0938263-3.5358582-0.0938263-5.3085022
		c0-9.7166443,0.8441315-19.2269897,2.4666901-28.4747009c0.1782074-0.9660645,0.3563995-1.9321289,0.5439911-2.8981323
		c1.3974762-7.1749573,3.2638855-14.1810608,5.5617523-20.9902344c8.1222076-4.3237305,17.9420624-7.8877258,30.2285614-10.1762085
		c0.0187683,0,0.0562744-0.0187988,0.0750427-0.0187988c9.500946-1.772644,20.474411-2.7949219,33.2673492-2.8136902
		C309.4356689,306.1677246,321.3001404,376.5572205,464.058136,376.5197449z"/>
	<path class="st9" d="M462.2104797,396.7877808c-0.0093689,0.09375-0.0187683,0.1781921-0.0374756,0.2719727
		c-10.1669006,65.2779846-58.9471741,117.9505005-122.1710815,133.838562
		c-0.2344971,0.0562744-0.478363,0.1219482-0.7128296,0.1782227h-0.0093994
		c-12.5960083,3.1044312-25.7453918,4.755188-39.2792969,4.755188c-83.2106323,0-152.1463928-62.2298279-162.7259521-142.5986328
		c-0.7034302-5.3272705-1.1442108-10.7389221-1.3130341-16.2256775c-0.0656586-1.7632751-0.0938263-3.5358582-0.0938263-5.3085022
		c0-9.7166443,0.8441315-19.2269897,2.4666901-28.4747009c14.8282166-9.5665894,35.9029083-16.5539856,69.7048645-16.61026
		C309.0229797,326.4451599,321.2156982,396.2250061,462.2104797,396.7877808z"/>
	<circle class="st10" cx="286.1459351" cy="397.3911438" r="12.0267"/>
	<circle class="st11" cx="214.496109" cy="400.0444641" r="33.3627396"/>
	<circle class="st11" cx="263.4716187" cy="460.0423889" r="21.0439396"/>
	<path class="st8" d="M398.4612732,371.6989136c0,6.4058228-0.6095886,12.6616516-1.7819824,18.720459
		c-8.7412415,45.4413757-48.7145996,79.7592163-96.6976929,79.7592163c-5.8993835,0-11.6674194-0.5158386-17.2855225-1.5100098
		c-14.2467346-2.5229492-27.4429474-8.1128845-38.8666382-16.0569458
		c-8.0847015-5.6180115-15.2877808-12.4271851-21.3653717-20.1554871
		c-10.2418671-13.0555725-17.2574158-28.7654419-19.8553619-45.9290161
		c-0.7315979-4.8302307-1.106781-9.7823181-1.106781-14.8282166c0-0.3283081,0-0.6565552,0.0093994-0.9754639
		c5.6555634-1.1723633,11.0297241-2.4760132,16.16008-3.8922424c24.8637238-6.865448,44.0907135-16.3570251,61.9108429-25.7922974
		c6.8279419-3.6203003,13.440155-7.2312622,20.0805054-10.6827393
		c21.7311707-11.2829285,43.7624817-20.8963928,74.3662109-23.5788574
		c4.1736755,4.7457886,7.8877869,9.8948669,11.0765991,15.3816223c8.3098755,14.2373352,13.1400146,30.7350464,13.346405,48.3582153
		C398.4612732,370.9110413,398.4612732,371.3049316,398.4612732,371.6989136z"/>
	<path class="st9" d="M398.4612732,371.6989136c0,6.4058228-0.6095886,12.6616516-1.7819824,18.720459
		c-8.7412415,45.4413757-48.7145996,79.7592163-96.6976929,79.7592163c-5.8993835,0-11.6674194-0.5158386-17.2855225-1.5100098
		c-14.2467346-2.5229492-27.4429474-8.1128845-38.8666382-16.0569458
		c-8.0847015-5.6180115-15.2877808-12.4271851-21.3653717-20.1554871
		c-10.2418671-13.0555725-17.2574158-28.7654419-19.8553619-45.9290161
		c13.1306152-2.7762146,24.7605743-6.2839661,35.3682404-10.2325439
		c22.2657623-8.2723083,40.0015106-18.4672852,57.5965729-27.7618713
		c6.5559082-3.4608459,13.0930786-6.8091736,19.8459778-9.8761292
		c19.6115417-8.9381714,40.9769287-15.6160278,69.6860657-16.4976501
		c8.3098755,14.2373352,13.1400146,30.7350464,13.346405,48.3582153
		C398.4612732,370.9110413,398.4612732,371.3049316,398.4612732,371.6989136z"/>
	<path class="st12" d="M398.4612732,371.6989136c0,6.4058228-0.6095886,12.6616516-1.7819824,18.720459
		c-8.7412415,45.4413757-48.7145996,79.7592163-96.6976929,79.7592163c-5.8993835,0-11.6674194-0.5158386-17.2855225-1.5100098
		c-14.2467346-2.5229492-27.4429474-8.1128845-38.8666382-16.0569458
		c-8.0847015-5.6180115-15.2877808-12.4271851-21.3653717-20.1554871
		c-10.2418671-13.0555725-17.2574158-28.7654419-19.8553619-45.9290161
		c-0.7315979-4.8302307-1.106781-9.7823181-1.106781-14.8282166c0-0.3283081,0-0.6565552,0.0093994-0.9754639
		c0-0.4689636,0.0093842-0.9378967,0.0187683-1.3974609c0.365799-15.3534546,4.2393341-29.8346558,10.8609161-42.67453
		c3.6390686-7.0717468,8.1128235-13.6464539,13.2900543-19.5927734
		c30.3786621,2.6355591,52.3255005,12.1271057,73.9816895,23.2974854c5.2335205,2.6917725,10.4482422,5.4773865,15.7567444,8.300415
		c22.8379211,12.1177368,47.4765625,24.6855774,83.0324707,31.8605652
		C398.4612732,370.9110413,398.4612732,371.3049316,398.4612732,371.6989136z"/>
	<path class="st8" d="M396.6792908,390.4193726c-8.7412415,45.4413757-48.7145996,79.7592163-96.6976929,79.7592163
		c-5.8993835,0-11.6674194-0.5158386-17.2855225-1.5100098c-14.2467346-2.5229492-27.4429474-8.1128845-38.8666382-16.0569458
		c-8.0847015-5.6180115-15.2877808-12.4271851-21.3653717-20.1554871
		c-10.2418671-13.0555725-17.2574158-28.7654419-19.8553619-45.9290161
		c-0.7315979-4.8302307-1.106781-9.7823181-1.106781-14.8282166c0-0.3283081,0-0.6565552,0.0093994-0.9754639
		c0-0.4689636,0.0093842-0.9378967,0.0187683-1.3974609c0.365799-15.3534546,4.2393341-29.8346558,10.8609161-42.67453
		c27.4992828,0.5065002,48.3113251,6.3121033,67.1912384,14.3874512c5.4585876,2.3353577,10.7483826,4.8583069,15.991272,7.4938049
		C324.3952026,363.0327148,351.7725525,381.0403748,396.6792908,390.4193726z"/>
	<circle class="st9" cx="286.1849976" cy="397.3911438" r="12.0267"/>
	<path class="st9" d="M245.6677399,412.0286865c-4.0798492,10.5982666-12.9618073,17.9138794-23.2036743,20.4274597
		c-10.2418671-13.0555725-17.2574158-28.7654419-19.8553619-45.9290161
		c-0.7315979-4.8302307-1.106781-9.7823181-1.106781-14.8282166c0-0.3283081,0-0.6565552,0.0093994-0.9754639
		c0-0.4689636,0.0093842-0.9378967,0.0187683-1.3974609c5.0177612-2.1289978,10.560791-3.0294189,16.1413116-2.4947815
		c2.9637451,0.2719421,5.9462585,0.956604,8.8537903,2.0820923c4.4268646,1.6976013,8.2816315,4.2487183,11.4517517,7.3812866
		C247.1214752,385.3265991,250.5823364,399.263855,245.6677399,412.0286865z"/>
	<path class="st9" d="M283.1463013,467.5993652c-0.140686,0.3657837-0.290741,0.7221375-0.4502258,1.0692139
		c-14.2467346-2.5229492-27.4429474-8.1128845-38.8666382-16.0569458c0.0093842-0.046875,0.0281677-0.0843811,0.046936-0.1312561
		c4.1736145-10.8421326,16.3476257-16.2538452,27.1991577-12.0801697
		C281.9176636,444.5832214,287.3293152,456.7572021,283.1463013,467.5993652z"/>
	<path class="st13" d="M300,207.0971527"/>
	<rect x="264.0351563" y="138.1609955" class="st2" width="71.9040833" height="79.0978928"/>
	<path class="st1" d="M389.1104431,102.2116013v28.2870865c0,6.0213776-4.9240112,10.9453583-10.9453125,10.9453583H223.7302094
		c-6.0213165,0-10.9452972-4.9239807-10.9452972-10.9453583v-28.2870865c0-6.0213165,4.9239807-10.9452972,10.9452972-10.9452972
		h154.4349213C384.1864319,91.266304,389.1104431,96.1902847,389.1104431,102.2116013z"/>
	<path class="st14" d="M389.1104431,102.2116013v28.2870865c0,6.0213776-4.9240112,10.9453583-10.9453125,10.9453583h-67.8290405
		c-6.0213318,0-10.9547119-4.9239807-10.9547119-10.9453583v-28.2870865c0-6.0213165,4.9333801-10.9452972,10.9547119-10.9452972
		h67.8290405C384.1864319,91.266304,389.1104431,96.1902847,389.1104431,102.2116013z"/>
	<line class="st13" x1="300.4787292" y1="189.2770233" x2="300.4787292" y2="391.3948364"/>
	<polyline class="st13" points="450.139679,372.0084229 397.9829712,372.0084229 300.0097656,372.0084229 201.9802856,372.0084229 	
		"/>
	<g>
		<path class="st7" d="M464.1318054,371.6896057c0,1.6132202-0.0187988,3.2076721-0.0751343,4.8020325v0.0187988
			c-0.1968994,6.8748169-0.8158264,13.6277161-1.8476257,20.2680359c-0.0093994,0.093811-0.0187683,0.1781921-0.037323,0.2720337
			c-10.1669312,65.2779236-58.9472046,117.95047-122.1713257,133.8385315
			c-0.2344666,0.0562744-0.4780884,0.1218872-0.7125854,0.1781616h-0.009613
			c-12.5959473,3.1044922-25.7453308,4.755188-39.2792053,4.755188c-83.2106018,0-152.1463776-62.2297363-162.7259369-142.5985413
			c-0.0093842-0.0562744-0.0187836-0.1219482-0.0187836-0.1782227c-0.1687469-1.2755127-0.3187408-2.5511169-0.4595642-3.8360291
			c0-0.0375061-0.0093842-0.0749817-0.0093842-0.1219177c-0.1218109-1.1536255-0.2344666-2.3072205-0.3283539-3.4608154
			c-0.2436371-2.8418579-0.4032288-5.711853-0.4968872-8.6005859c4.8394928-0.0187378,9.5196075-0.1219482,14.0685272-0.3001404
			c0.1593628,4.9052429,0.5626068,9.8479614,1.1911469,14.6593933c0.0561066,0.4408569,0.1218262,0.8816223,0.1781464,1.3130798
			c10.3638611,73.6627808,74.0097504,129.0552368,148.6010895,129.0552368c12.1270142,0,24.2166748-1.4630737,35.9122925-4.3518066
			l0.6283264-0.1500854c28.3527527-7.1186523,53.8826294-22.3314514,73.8503723-44.025116
			c19.8555298-21.5623474,32.8453369-48.0768433,37.6193237-76.757843c0.0939026-0.5252075,0.1781616-1.0598145,0.2626343-1.5944214
			c0.9566956-6.1151428,1.5286865-12.3615417,1.716217-18.579834v-0.0187988l0.0093994-0.290741
			c0.046936-1.2661438,0.0657043-2.6260986,0.0657043-4.2955933c0-10.6920471-1.1348267-21.365387-3.3765259-31.7385559
			c-0.7125854-3.3108215-1.5474548-6.6028748-2.494751-9.8573608c-0.7503662-2.6261292-1.575592-5.2241211-2.4759521-7.7845764
			c-1.2380981-3.5452881-2.6073914-7.0342712-4.0987549-10.4388428c6.8091736,2.0352173,12.7086182,4.5299988,17.9046326,7.3343811
			c1.9602966,5.7868347,3.6016235,11.714386,4.9146118,17.7731934c0.0938721,0.4314575,0.1875305,0.8535156,0.2720032,1.2849731
			C462.9500122,349.0674133,464.1318054,360.2471924,464.1318054,371.6896057z"/>
		<path class="st15" d="M464.1318054,371.6896057c0,1.6132202-0.0187988,3.2076721-0.0751343,4.8020325v0.0187988
			c-0.1968994,6.8748169-0.8158264,13.6277161-1.8476257,20.2680359c-0.0093994,0.093811-0.0187683,0.1781921-0.037323,0.2720337
			c-10.1669312,65.2779236-58.9472046,117.95047-122.1713257,133.8385315
			c-0.2344666,0.0562744-0.4780884,0.1218872-0.7125854,0.1781616h-0.009613
			c-12.5959473,3.1044922-25.7453308,4.755188-39.2792053,4.755188c-83.2106018,0-152.1463776-62.2297363-162.7259369-142.5985413
			c-0.0093842-0.0562744-0.0187836-0.1219482-0.0187836-0.1782227c4.8676605-0.0374756,9.575943-0.1500244,14.143631-0.3470154
			c10.3638611,73.6627808,74.0097504,129.0552368,148.6010895,129.0552368c12.1270142,0,24.2166748-1.4630737,35.9122925-4.3518066
			l0.6283264-0.1500854c28.3527527-7.1186523,53.8826294-22.3314514,73.8503723-44.025116
			c19.8555298-21.5623474,32.8453369-48.0768433,37.6193237-76.757843c0.0939026-0.5252075,0.1781616-1.0598145,0.2626343-1.5944214
			c0.9566956-6.1151428,1.5286865-12.3615417,1.716217-18.579834v-0.0187988l0.0093994-0.290741
			c0.046936-1.2661438,0.0657043-2.6260986,0.0657043-4.2955933c0-10.6920471-1.1348267-21.365387-3.3765259-31.7385559
			c-0.7125854-3.3108215-1.5474548-6.6028748-2.494751-9.8573608c6.2933044,2.354126,11.7237854,5.1302795,16.5165405,8.1691284
			C462.9500122,349.0674133,464.1318054,360.2471924,464.1318054,371.6896057z"/>
		<path class="st9" d="M464.0566711,376.510437c-0.1968994,6.8748169-0.8158264,13.6277161-1.8476257,20.2680359
			c-0.0093994,0.093811-0.0187683,0.1781921-0.037323,0.2720337
			c-10.1669312,65.2779236-58.9472046,117.95047-122.1713257,133.8385315
			c-0.2344666,0.0562744-0.4780884,0.1218872-0.7125854,0.1781616h-0.009613
			c-12.5959473,3.1044922-25.7453308,4.755188-39.2792053,4.755188c-83.2106018,0-152.1463776-62.2297363-162.7259369-142.5985413
			c-0.0093842-0.0562744-0.0187836-0.1219482-0.0187836-0.1782227c-0.1687469-1.2755127-0.3187408-2.5511169-0.4595642-3.8360291
			c0-0.0375061-0.0093842-0.0749817-0.0093842-0.1219177c-0.1218109-1.1536255-0.2344666-2.3072205-0.3283539-3.4608154
			c-0.2436371-2.8418579-0.4032288-5.711853-0.4968872-8.6005859v-0.0281067
			c-0.0657196-1.7632751-0.0938873-3.5359192-0.0938873-5.3085632c0-9.7166443,0.8440247-19.2269897,2.4665833-28.4747009
			c0.1783752-0.9660034,0.3565216-1.9320679,0.5440521-2.8981323c1.3974609-7.1748962,3.2638855-14.1810608,5.5619202-20.9901733
			c5.1864014-2.7574463,11.0670624-5.2147522,17.838913-7.2124634c-1.2850342,2.9356384-2.4668121,5.9274902-3.5640717,8.975647
			c-1.6413269,4.5676575-3.0575714,9.2383728-4.2487335,13.974762c-0.665863,2.635498-1.2662506,5.2803955-1.7821503,7.9440613
			c-1.8194733,9.3696289-2.7479858,19.0206299-2.7479858,28.6809998c0,1.6694946,0.0281677,3.2826538,0.0845032,4.8771057
			c0,0.0562744,0,0.1031494,0.0093842,0.1594238c0.1593628,4.9052429,0.5626068,9.8479614,1.1911469,14.6593933
			c0.0561066,0.4408569,0.1218262,0.8816223,0.1781464,1.3130798
			c10.3638611,73.6627808,74.0097504,129.0552368,148.6010895,129.0552368c12.1270142,0,24.2166748-1.4630737,35.9122925-4.3518066
			l0.6283264-0.1500854c28.3527527-7.1186523,53.8826294-22.3314514,73.8503723-44.025116
			c19.8555298-21.5623474,32.8453369-48.0768433,37.6193237-76.757843c0.0939026-0.5252075,0.1781616-1.0598145,0.2626343-1.5944214
			c0.9566956-6.1151428,1.5286865-12.3615417,1.716217-18.579834v-0.0187988
			C454.5276794,376.4353943,459.2171936,376.510437,464.0566711,376.510437z"/>
		<path class="st11" d="M462.2090454,396.7784729c-0.0093994,0.093811-0.0187683,0.1781921-0.037323,0.2720337
			c-10.1669312,65.2779236-58.9472046,117.95047-122.1713257,133.8385315
			c-0.2344666,0.0562744-0.4780884,0.1218872-0.7125854,0.1781616h-0.009613
			c-12.5959473,3.1044922-25.7453308,4.755188-39.2792053,4.755188c-83.2106018,0-152.1463776-62.2297363-162.7259369-142.5985413
			c-0.0093842-0.0562744-0.0187836-0.1219482-0.0187836-0.1782227c-0.1687469-1.2755127-0.3187408-2.5511169-0.4595642-3.8360291
			c0-0.0375061-0.0093842-0.0749817-0.0093842-0.1219177c-0.1218109-1.1536255-0.2344666-2.3072205-0.3283539-3.4608154
			c-0.2436371-2.8418579-0.4032288-5.711853-0.4968872-8.6005859v-0.0281067
			c-0.0657196-1.7632751-0.0938873-3.5359192-0.0938873-5.3085632c0-9.7166443,0.8440247-19.2269897,2.4665833-28.4747009
			c4.6894989-3.019989,9.9981689-5.7868347,16.1320801-8.1503601c-0.665863,2.635498-1.2662506,5.2803955-1.7821503,7.9440613
			c-1.8194733,9.3696289-2.7479858,19.0206299-2.7479858,28.6809998c0,1.6694946,0.0281677,3.2826538,0.0845032,4.8771057
			c0,0.0562744,0,0.1031494,0.0093842,0.1594238c0.1593628,4.9052429,0.5626068,9.8479614,1.1911469,14.6593933
			c0.0561066,0.4408569,0.1218262,0.8816223,0.1781464,1.3130798
			c10.3638611,73.6627808,74.0097504,129.0552368,148.6010895,129.0552368c12.1270142,0,24.2166748-1.4630737,35.9122925-4.3518066
			l0.6283264-0.1500854c28.3527527-7.1186523,53.8826294-22.3314514,73.8503723-44.025116
			c19.8555298-21.5623474,32.8453369-48.0768433,37.6193237-76.757843
			C452.5955505,396.6565247,457.3226013,396.7597351,462.2090454,396.7784729z"/>
	</g>
	<rect x="235.9008942" y="141.4416351" class="st16" width="128.1808624" height="25.873991"/>
	<rect x="264.0351563" y="141.4325409" class="st17" width="71.9040833" height="25.873991"/>
	<path class="st2" d="M274.8805237,205.6459198v16.7152252h-16.976532v-8.8638153
		c0-0.2789459,0.1953735-0.5110016,0.4655457-0.5803986c3.2361755-0.8311768,5.6642456-3.7685089,5.6642456-7.2710114H274.8805237z"
		/>
	<path class="st2" d="M325.0918884,205.6459198v16.7152252h16.9765625v-8.8638153
		c0-0.2789459-0.1953735-0.5110016-0.4655457-0.5803986c-3.2362061-0.8311768-5.6642456-3.7685089-5.6642456-7.2710114H325.0918884z
		"/>
</g>
</svg>
