<?xml version="1.0" encoding="utf-8"?>
<!-- Generator: Adobe Illustrator 22.1.0, SVG Export Plug-In . SVG Version: 6.00 Build 0)  -->
<svg version="1.1" id="Layer_1" xmlns="http://www.w3.org/2000/svg" xmlns:xlink="http://www.w3.org/1999/xlink" x="0px" y="0px"
	 viewBox="0 0 600 600" style="enable-background:new 0 0 600 600;" xml:space="preserve">
<style type="text/css">
	.st0{fill:#F3F7DE;}
	.st1{fill:#E7EAD0;}
	.st2{fill:#9ED3D7;}
	.st3{fill:#AADCD9;}
	.st4{fill:#AF45B6;}
	.st5{fill:#C4E5DC;}
	.st6{fill:#9735A5;}
	.st7{fill:#BD4EC6;}
	.st8{fill:#842E93;}
	.st9{fill:#93C9C7;}
	.st10{fill:#FFDD9D;}
	.st11{fill:#FFC98F;}
	.st12{fill:#DDEEDB;}
	.st13{fill:#CC60D8;}
</style>
<path class="st0" d="M490.5,567.5H109.5c-38.1,0-61.9-41.2-42.8-74.2l158.4-274.4c4.1-7.1,6.2-15.1,6.2-23.2v-74.8h137.3v74.8
	c0,8.2,2.2,16.2,6.2,23.2l158.4,274.4C552.3,526.3,528.5,567.5,490.5,567.5z"/>
<rect x="231.3" y="145.9" class="st1" width="137.3" height="24.6"/>
<path class="st2" d="M511.7,530.2c-2.1,3.7-8.4,12.2-21.2,12.2H109.5c-12.7,0-19.1-8.5-21.2-12.2s-6.4-13.4,0-24.5l67.9-117.6
	l8.3-14.4l0.6-1l0.8-1.4l4.9-8.5l23.2-40.2l9-15.6l0.1-0.2l43.6-75.5c6.3-10.8,9.6-23.2,9.6-35.7v-49.8h87.3v49.8
	c0,12.5,3.3,24.9,9.6,35.7l43.6,75.5l0.1,0.2l9,15.6l23.2,40.2l4.9,8.5l0.8,1.4l0.6,1l8.3,14.4l67.9,117.6
	C518,516.8,513.8,526.6,511.7,530.2z"/>
<path class="st3" d="M109.5,527.5c-3.6,0-6.4-1.6-8.2-4.7c-1.8-3.1-1.8-6.3,0-9.5l77.6-134.4l4.9-8.5l75.9-131.4
	c7.6-13.1,11.6-28.1,11.6-43.2v-34.8h57.3v34.8c0,15.2,4,30.1,11.6,43.2l75.9,131.5l6.3,10.9l76.2,132c1.8,3.1,1.8,6.3,0,9.5
	c-1.8,3.1-4.6,4.7-8.2,4.7H109.5z"/>
<path class="st4" d="M511.7,530.2c-2.1,3.7-8.4,12.2-21.2,12.2H109.5c-12.7,0-19.1-8.5-21.2-12.2c-2.1-3.7-6.4-13.4,0-24.5
	l67.9-117.6l8.3-14.4l0.6-1c25.4-1.4,45.6-5.5,62.8-10.9c4.7-1.5,9.1-3.1,13.3-4.7c15.1-5.9,28-12.8,40.7-19.5
	c3.6-1.9,7.3-3.9,11-5.8c2.3-1.2,4.6-2.4,6.9-3.5c10.7-5.3,22-10.3,35.1-14.2c3-0.9,6.1-1.7,9.4-2.4c12.5-2.9,26.5-4.7,42.8-4.7h0.4
	c3.1,0,6.2,0.1,9.2,0.2l9,15.6l23.2,40.2l4.9,8.5l0.8,1.4l0.6,1l8.3,14.4l67.9,117.6C518,516.8,513.8,526.6,511.7,530.2z"/>
<path class="st5" d="M275.8,279.1L176,452c-11.1,19.2,2.8,43.3,25,43.3h199.6c22.2,0,36.1-24,25-43.3l-99.8-172.9
	C314.6,259.9,286.9,259.9,275.8,279.1z"/>
<path class="st6" d="M511.7,530.2c-2.1,3.7-8.4,12.2-21.2,12.2H109.5c-12.7,0-19.1-8.5-21.2-12.2c-2.1-3.7-6.4-13.4,0-24.5
	l67.9-117.6c23.9-0.7,43.7-3.5,60.8-7.7c4.4-1.1,8.6-2.2,12.7-3.5c28.7-8.7,49.4-21.1,70.2-31.9c13.5-7,27-13.3,42.8-17.6
	c3-0.8,6.2-1.6,9.4-2.2c10.6-2.2,22.2-3.4,35.4-3.4c6.6,0,12.7,0.3,18.3,0.8l23.2,40.2l4.9,8.5l1.4,2.4l8.3,14.4l67.9,117.6
	C518,516.8,513.8,526.6,511.7,530.2z"/>
<path class="st7" d="M400.5,495.2H200.9c-22.2,0-36.1-24-25-43.3l52-90.1c4.7-1.5,9.1-3.1,13.3-4.7c15.1-5.9,28-12.8,40.7-19.5
	c3.6-1.9,7.3-3.9,11-5.8c2.3-1.2,4.6-2.4,6.9-3.5c10.7-5.3,22-10.3,35.1-14.2c3-0.9,6.1-1.7,9.4-2.4l81,140.4
	C436.6,471.2,422.7,495.2,400.5,495.2z"/>
<path class="st4" d="M400.5,495.2H200.9c-22.2,0-36.1-24-25-43.3l41.3-71.5c4.4-1.1,8.6-2.2,12.7-3.5c28.7-8.7,49.4-21.1,70.2-31.9
	c13.5-7,27-13.3,42.8-17.6c3-0.8,6.2-1.6,9.4-2.2L425.5,452C436.6,471.2,422.7,495.2,400.5,495.2z"/>
<path class="st7" d="M511.7,530.2c-2.1,3.7-8.4,12.2-21.2,12.2H109.5c-12.7,0-19.1-8.5-21.2-12.2c-2.1-3.7-6.4-13.4,0-24.5
	l67.9-117.6l8.3-14.4l0.6-1l0.8-1.4l4.9-8.5l23.2-40.2l9-15.6c3-0.1,6.1-0.2,9.2-0.2h0.4c16.8,0,31.3,1.9,44.1,5
	c2.9,0.7,5.8,1.5,8.6,2.3c12.9,3.8,24.1,8.8,34.6,14c2.3,1.2,4.6,2.3,6.9,3.5c3.7,1.9,7.4,3.9,11,5.8c13,6.9,26.1,13.9,41.6,19.9
	c4.6,1.8,9.3,3.4,14.3,5c16.8,5.2,36.5,9,61.1,10.4l0.6,1l8.3,14.4l67.9,117.6C518,516.8,513.8,526.6,511.7,530.2z"/>
<path class="st4" d="M511.7,530.2c-2.1,3.7-8.4,12.2-21.2,12.2H109.5c-12.7,0-19.1-8.5-21.2-12.2c-2.1-3.7-6.4-13.4,0-24.5
	l67.9-117.6l8.3-14.4l1.4-2.4l4.9-8.5l23.2-40.2c5.6-0.5,11.7-0.8,18.3-0.8c13.7,0,25.7,1.3,36.6,3.6c3,0.6,5.9,1.4,8.8,2.1
	c15.6,4.3,29,10.5,42.3,17.4c21.1,10.9,41.9,23.4,70.9,32.1c4.3,1.3,8.8,2.5,13.5,3.6c0,0,0,0,0,0c16.7,4,36.1,6.7,59.3,7.3
	l67.9,117.6C518,516.8,513.8,526.6,511.7,530.2z"/>
<path class="st6" d="M511.7,530.2c-2.1,3.7-8.4,12.2-21.2,12.2H109.5c-12.7,0-19.1-8.5-21.2-12.2c-2.1-3.7-6.4-13.4,0-24.5
	l67.9-117.6l8.3-14.4l0.6-1c6.4-0.3,12.5-0.9,18.2-1.6l-4.4,7.6l-4.8,8.3l-72.8,126.1c-1.8,3.1-1.8,6.3,0,9.5
	c1.8,3.1,4.6,4.7,8.2,4.7h380.9c3.6,0,6.4-1.6,8.2-4.7c1.8-3.2,1.8-6.3,0-9.5l-72.8-126.1l-3.4-5.9l-5.8-10l-0.5-0.9l-28-48.5
	l-8.6-14.9c2.5-0.1,5.1-0.1,7.7-0.1h0.4c3.1,0,6.2,0.1,9.2,0.2l9,15.6l23.2,40.2l4.9,8.5l0.8,1.4l0.6,1l8.3,14.4l67.9,117.6
	C518,516.8,513.8,526.6,511.7,530.2z"/>
<path class="st8" d="M511.7,530.2c-2.1,3.7-8.4,12.2-21.2,12.2H109.5c-12.7,0-19.1-8.5-21.2-12.2c-2.1-3.7-6.4-13.4,0-24.5
	l67.9-117.6c6.3-0.2,12.2-0.5,17.9-1l-72.8,126.1c-1.8,3.1-1.8,6.3,0,9.5c1.8,3.1,4.6,4.7,8.2,4.7h380.9c3.6,0,6.4-1.6,8.2-4.7
	c1.8-3.2,1.8-6.3,0-9.5l-72.8-126.1l-3.4-5.9l-5.8-10l-0.5-0.9l-28-48.5c6.4,0,12.3,0.3,17.8,0.8l23.2,40.2l4.9,8.5l0.8,1.4l0.6,1
	l8.3,14.4l67.9,117.6C518,516.8,513.8,526.6,511.7,530.2z"/>
<path class="st4" d="M511.7,530.2c-2.1,3.7-8.4,12.2-21.2,12.2H109.5c-12.7,0-19.1-8.5-21.2-12.2c-2.1-3.7-6.4-13.4,0-24.5
	l67.9-117.6l8.3-14.4l0.6-1l0.8-1.4l4.9-8.5l23.2-40.2l9-15.6c3-0.1,6.1-0.2,9.2-0.2h0.4c2.6,0,5.2,0.1,7.8,0.1l-8.6,14.9l-28,48.5
	l-0.5,0.9l-4.4,7.6l-4.8,8.3l-72.8,126.1c-1.8,3.1-1.8,6.3,0,9.5c1.8,3.1,4.6,4.7,8.2,4.7h380.9c3.6,0,6.4-1.6,8.2-4.7
	c1.8-3.2,1.8-6.3,0-9.5l-72.8-126.1l-3.4-5.9l-5.8-10c5.7,0.7,11.8,1.2,18.2,1.5l0.6,1l8.3,14.4l67.9,117.6
	C518,516.8,513.8,526.6,511.7,530.2z"/>
<path class="st6" d="M511.7,530.2c-2.1,3.7-8.4,12.2-21.2,12.2H109.5c-12.7,0-19.1-8.5-21.2-12.2c-2.1-3.7-6.4-13.4,0-24.5
	l67.9-117.6l37.8-65.5c5.5-0.5,11.4-0.8,17.8-0.8L101.4,513.3c-1.8,3.1-1.8,6.3,0,9.5c1.8,3.1,4.6,4.7,8.2,4.7h380.9
	c3.6,0,6.4-1.6,8.2-4.7c1.8-3.2,1.8-6.3,0-9.5l-72.8-126.1c5.7,0.5,11.6,0.8,17.8,1l67.9,117.6C518,516.8,513.8,526.6,511.7,530.2z"
	/>
<path class="st2" d="M336.5,154.9l-0.2,76.8l-1.5-3c-15.4-26.7-53.9-26.7-69.3,0l-3.3,5.7v-79.5H336.5z"/>
<rect x="256.3" y="145.9" class="st9" width="87.3" height="24.6"/>
<g>
	<g>
		<path class="st10" d="M372.6,57.4l-8.9,49.5c0,6.5-2.1,12.4-5.4,16.6c-3.6,3.9-8.8,6.3-14.4,6.3l-90.5,0.1
			c-10.9,0-19.9-8.9-19.9-19.8l-8.9-54.3c-1.2-7.6,1.8-15.4,8.2-19.7c3.2-2.2,7-3.4,11.1-3.4l109.2-0.2c2.8,0,5.5,0.6,8,1.7
			c4.8,2.1,8.3,6.3,10.1,11.2c0.8,2.1,1.3,4.5,1.6,6.9C373,54,372.9,55.7,372.6,57.4z"/>
		<path class="st11" d="M372.6,57.4l-8.9,49.6c0,6.5-2.1,12.4-5.4,16.6c-3.2,3.5-7.7,5.8-12.7,6.2c-0.6,0.1-1.1,0.1-1.7,0.1l-24.4,0
			c9.5,0,17.2-10.3,17.2-22.9l9.3-51.6c0-12.6-7.8-22.9-17.2-22.9l24.4,0c2.8,0,5.5,0.6,8,1.7c4.8,2.1,8.3,6.3,10.1,11.2
			c0.9,2.3,1.4,4.9,1.7,7.6C373,54.4,372.9,55.9,372.6,57.4z"/>
		<circle class="st11" cx="280.8" cy="93.2" r="13.1"/>
		<circle class="st11" cx="281.1" cy="49.6" r="7.3"/>
		
			<ellipse transform="matrix(0.1966 -0.9805 0.9805 0.1966 139.9015 299.3509)" class="st11" cx="252.6" cy="64.3" rx="14.3" ry="14.3"/>
		<circle class="st11" cx="325.2" cy="64.3" r="9.7"/>
	</g>
	<path class="st0" d="M398.1,106.2v31.5c0,6.7-5.5,12.2-12.2,12.2H214.1c-6.7,0-12.2-5.5-12.2-12.2v-31.5c0-6.7,5.5-12.2,12.2-12.2
		h171.9C392.6,94,398.1,99.5,398.1,106.2z"/>
	<path class="st12" d="M398.1,106.2v31.5c0,6.7-5.5,12.2-12.2,12.2h-75.5c-6.7,0-12.2-5.5-12.2-12.2v-31.5c0-6.7,5.5-12.2,12.2-12.2
		h75.5C392.6,94,398.1,99.5,398.1,106.2z"/>
</g>
<path class="st13" d="M400.5,495.2H200.9c-22.2,0-36.1-24-25-43.3l80.9-140.1c2.9,0.7,5.8,1.5,8.6,2.3c12.9,3.8,24.1,8.8,34.6,14
	c2.3,1.2,4.6,2.3,6.9,3.5c3.7,1.9,7.4,3.9,11,5.8c13,6.9,26.1,13.9,41.6,19.9c4.6,1.8,9.3,3.4,14.3,5l51.7,89.6
	C436.6,471.2,422.7,495.2,400.5,495.2z"/>
<path class="st7" d="M403.8,495.1c-1.1,0.1-2.2,0.2-3.3,0.2H200.9c-22.2,0-36.1-24-25-43.3l31.6-54.7l23.6-40.9l17.8-30.8
	c3,0.6,5.9,1.4,8.8,2.1c15.6,4.3,29,10.5,42.3,17.4c21.1,10.9,41.9,23.4,70.9,32.1c4.3,1.3,8.8,2.5,13.5,3.6c0,0,0,0,0,0l17.3,30
	l10.4,17.9v0l13.4,23.2c1.4,2.5,2.4,5,3.1,7.6C432.6,476,421.3,493.1,403.8,495.1z"/>
<circle class="st6" cx="219.4" cy="376.9" r="23.6"/>
<circle class="st4" cx="267.7" cy="401.1" r="16.6"/>
<circle class="st4" cx="238.9" cy="438.4" r="10.8"/>
<circle class="st6" cx="423.9" cy="482.7" r="23.6"/>
<circle class="st4" cx="375.7" cy="458.5" r="16.6"/>
<circle class="st6" cx="404.4" cy="421.2" r="10.8"/>
<path class="st4" d="M243.1,376.9c0,13.1-10.6,23.6-23.6,23.6c-4.4,0-8.4-1.2-11.9-3.3l23.6-40.9
	C238.3,360.4,243.1,368.1,243.1,376.9z"/>
<path class="st4" d="M403.8,495.1c-2.2-3.6-3.5-7.8-3.5-12.3c0-13,10.6-23.6,23.6-23.6c1.6,0,3.1,0.2,4.6,0.4
	C432.6,476,421.3,493.1,403.8,495.1z"/>
<path class="st4" d="M412.1,428.8L412.1,428.8c-1.9,2-4.6,3.2-7.6,3.2c-5.9,0-10.8-4.8-10.8-10.7c0-5,3.4-9.2,8-10.4L412.1,428.8z"
	/>
</svg>
