<?xml version="1.0" encoding="utf-8"?>
<!-- Generator: Adobe Illustrator 22.1.0, SVG Export Plug-In . SVG Version: 6.00 Build 0)  -->
<svg version="1.1" id="Layer_1" xmlns="http://www.w3.org/2000/svg" xmlns:xlink="http://www.w3.org/1999/xlink" x="0px" y="0px"
	 viewBox="0 0 600 600" style="enable-background:new 0 0 600 600;" xml:space="preserve">
<style type="text/css">
	.st0{fill:#F3F7DE;}
	.st1{fill:#DDEEDB;}
	.st2{fill:#C4E5DC;}
	.st3{fill:#AADCD9;}
	.st4{fill:#9ED3D7;}
	.st5{fill:#F1F5D7;}
	.st6{fill:#D6EBD4;}
	.st7{fill:#B8E0D5;}
	.st8{fill:#4EE88E;}
	.st9{fill:#3CD67B;}
	.st10{fill:#24BC61;}
	.st11{fill:#79F7AC;}
	.st12{opacity:0.3;fill:#FFFFFF;enable-background:new    ;}
</style>
<g>
	<path class="st0" d="M435.0299377,90.736351v0.369873c0.0100098,4.3100586-1.6499634,8.3500977-4.6799927,11.3898926
		c-2.8399658,2.8500977-6.5700073,4.5-10.5700073,4.7102051c-0.2599487,0.0100098-0.5299683,0.0197754-0.7999878,0.0197754
		H183.1199646c-8.8499756,0-16.0499878-6.8198242-16.0700073-15.6799316l-0.0800171-51.6899414
		c0-4.3000488,1.6600342-8.3498535,4.6900024-11.3898926c3.0300293-3.0400391,7.0700073-5.0700684,11.3600464-5.0800781
		c0,0,52.4099731,0,107.8899536,0h128.7200317c0.1199951,0.0100098,0.2299805,0.0100098,0.3499756,0.0300293
		c8.4100342,0.5400391,14.960022,7.5100098,14.9700317,16L435.0299377,90.736351z"/>
	<path class="st1" d="M409.5299377,90.8095016c0.0100098,6.1900635-2.0499878,11.9001465-5.5099487,16.420166H290.2599792
		c0.2699585,0,0.539978-0.0100098,0.7999878-0.0200195c4-0.210083,7.7299805-1.8601074,10.5700073-4.710083
		c3.0299683-3.039917,4.6900024-7.0799561,4.6799927-11.3900146L306.22995,39.4196091
		c-0.0100098-8.4899902-6.5599976-15.4599609-14.9699707-16c-0.1199951-0.0200195-0.2300415-0.0200195-0.3500366-0.0300293
		h114.2800293c2.6799927,4.1799316,4.2399902,9.1799316,4.25,14.5500488L409.5299377,90.8095016z"/>
	<path class="st2" d="M435.0299377,90.736351v0.369873c0.0100098,4.3100586-1.6499634,8.3500977-4.6799927,11.3898926
		c-2.8399658,2.8500977-6.5700073,4.5-10.5700073,4.7102051c-0.2599487,0.0100098-0.5299683,0.0197754-0.7999878,0.0197754
		H350.019989c0.8699951,0,1.7199707-0.0698242,2.5599976-0.2197266c3.3099976-0.5900879,6.3899536-2.1201172,8.7699585-4.5102539
		c5.2300415-5.2597656,4.6799927-12.579834,4.6700439-19.4199219c-0.0100098-5.8598633-0.0200195-11.7199707-0.0300293-17.5800781
		c-0.0100098-8.6899414-0.0299683-17.3798828-0.039978-26.079834c-0.0100098-8.4899902-6.5599976-15.4599609-14.9700317-16
		c-0.1199951-0.0200195-0.2299805-0.0200195-0.3499756-0.0300293h69c0.1199951,0.0100098,0.2299805,0.0100098,0.3499756,0.0300293
		c8.4100342,0.5400391,14.960022,7.5100098,14.9700317,16L435.0299377,90.736351z"/>
	<path class="st3" d="M410.0599976,75.6068497c0,1.3898926-0.4199829,2.6799316-1.1399536,3.75
		c-0.2400513,0.3498535-0.5100098,0.6799316-0.8200073,0.9899902c-1.2000122,1.2099609-2.8699951,1.9599609-4.710022,1.9599609
		l-97.0999756,0.1601563L198.6700439,82.636879c-3.6900024,0.0100098-6.6900024-2.9799805-6.6900024-6.6801758
		l-0.0400391-20.5898438c0-3.6899414,2.9899902-6.6899414,6.6799927-6.6999512L306.25,48.4967422l96.960022-0.1599121h0.1199951
		c0.7000122,0,1.3800049,0.0998535,2.0100098,0.3100586c0.4199829,0.1298828,0.8200073,0.3000488,1.2000122,0.5100098
		c0.289978,0.1499023,0.5699463,0.3300781,0.8299561,0.5498047c1.6100464,1.2001953,2.6500244,3.130127,2.6600342,5.3100586
		L410.0599976,75.6068497z"/>
	<path class="st2" d="M223.3988037,82.6113815l-24.7286682,0.023819c-3.690567,0.0059814-6.687088-2.9808502-6.6930695-6.671524
		l-0.033371-20.5960541c-0.0059662-3.6906586,2.9808655-6.6871033,6.6714478-6.6930695l24.7286682-0.023819
		c-3.6906738,0.0059662-6.6775055,3.0023956-6.671524,6.6930695l0.033371,20.5960541
		C216.7116241,79.6305161,219.7081451,82.617363,223.3988037,82.6113815z"/>
	<path class="st4" d="M410.0599976,75.6068497c0,1.3898926-0.4199829,2.6799316-1.1399536,3.75
		c-0.2400513,0.3601074-0.5100098,0.6899414-0.8200073,0.9899902c-1.2000122,1.2099609-2.8699951,1.9599609-4.710022,1.9599609
		l-97.0999756,0.1601563L306.25,48.4967422l96.960022-0.1599121l0.1300049,0.0100098c0.7000122,0,1.3699951,0.1000977,2,0.3000488
		c0.4199829,0.1298828,0.8200073,0.3000488,1.2000122,0.5100098c0.289978,0.1499023,0.5699463,0.3300781,0.8299561,0.5498047
		c1.6100464,1.2001953,2.6500244,3.130127,2.6600342,5.3100586L410.0599976,75.6068497z"/>
	<path class="st0" d="M469.2499695,523.2437744c0.0299683,14.0600586-5.4799805,27.3400879-15.4899902,37.3800049
		c-10.0100098,10.0499268-23.2700195,15.5899658-37.3300171,15.6099854l-24.7600098,0.0400391l-26.2099609,0.0400391
		l-60.0100098,0.0998535l-121.1600342,0.2000732c-29.1300049,0-52.8699951-23.6900635-52.9099731-52.8199463l-0.6300049-338.8301086
		c-0.039978-29.1599121,23.6599731-52.9399414,52.8300171-52.9899902l121.5299683-0.1899414l59.9899902-0.1000977
		l25.8000488-0.039917l24.7399902-0.0400391c0.5,0,1.0100098,0.0100098,1.5199585,0.0200195h0.1400146
		c28.2800293,0.8399658,51.2900391,24.5,51.3300171,52.7999268L469.2499695,523.2437744z"/>
	<path class="st0" d="M469.2499695,523.2437744c0.0299683,14.0600586-5.4799805,27.3400879-15.4899902,37.3800049
		c-10.0100098,10.0499268-23.2700195,15.5899658-37.3300171,15.6099854l-24.7600098,0.0400391l-26.2099609,0.0400391
		l-60.0100098,0.0998535l-121.1600342,0.2000732c-29.1300049,0-52.8699951-23.6900635-52.9099731-52.8199463l-0.6300049-338.8301086
		c-0.039978-29.1599121,23.6599731-52.9399414,52.8300171-52.9899902l121.5299683-0.1899414l59.9899902-0.1000977
		l25.8000488-0.039917l24.7399902-0.0400391c0.5,0,1.0100098,0.0100098,1.5199585,0.0200195h0.1400146
		c28.2800293,0.8399658,51.2900391,24.5,51.3300171,52.7999268L469.2499695,523.2437744z"/>
	<path class="st0" d="M392.059967,540.9337158c1.6500244-5.6298828,2.539978-11.5699463,2.5300293-17.7099609
		l-0.6300049-338.8199768c-0.0100098-5.8100586-0.8099976-11.4400635-2.3200073-16.7900391
		c1.8200073,5.2999268,2.8099976,10.9500732,2.8200073,16.8099365l0.6199951,338.8200989
		C395.0899963,529.3537598,394.059967,535.3138428,392.059967,540.9337158z"/>
	<polygon class="st1" points="335.1199646,121.7337418 331.8399963,121.7337418 339.5999451,121.723732 	"/>
	<path class="st1" d="M420.6368713,523.3138428c0.0299683,22.1398926-11.5300293,41.7199707-28.9200439,52.9599609
		l-26.2099609,0.0400391l-60.0100098,0.0998535c0.039978-0.0299072,0.0799561-0.0499268,0.1199951-0.079834l-46.6199951,0.079834
		c0.0700073-0.0499268,0.1400146-0.0898438,0.2099609-0.1398926l23.2700195-0.0400391
		c14.0599976-0.0200195,27.3200073-5.5600586,37.3300171-15.6099854c4.1199951-4.1300049,7.4799805-8.8099365,10-13.8699951
		c3.6099854-7.2299805,5.5100098-15.2399902,5.4899902-23.5100098l-0.6199951-338.8200989
		c-0.0100098-8.3299561-2.0100098-16.2600098-5.5499878-23.3199463c0-0.0100098-0.0100098-0.0100098-0.0100098-0.0198975
		c-8.1900024-16.3000488-24.5700073-27.9901123-43.6000366-29.3400879l33.1300049-0.0600586h46.5l25.8000488-0.039917
		c17.4199829,11.1900635,29.0299683,30.7199707,29.0599976,52.8499756L420.6368713,523.3138428z"/>
	<path class="st1" d="M330.0699768,546.7537842c2.9199829-7.25,4.5299683-15.1699219,4.5200195-23.4399414l-0.6300049-338.8200989
		c-0.0100098-8.2600098-1.6300049-16.1599121-4.5700073-23.3900146c3.539978,7.0599365,5.539978,14.9899902,5.5499878,23.3199463
		l0.6199951,338.8200989C335.5799866,531.5137939,333.6799622,539.5238037,330.0699768,546.7537842z"/>
	<path class="st2" d="M392.059967,540.9337158c1.6500244-5.6298828,2.539978-11.5699463,2.5300293-17.7099609
		l-0.6300049-338.8199768c-0.0100098-5.8100586-0.8099976-11.4400635-2.3200073-16.7900391
		c1.8200073,5.2999268,2.8099976,10.9500732,2.8200073,16.8099365l0.6199951,338.8200989
		C395.0899963,529.3537598,394.059967,535.3138428,392.059967,540.9337158z"/>
	<path class="st2" d="M469.2499695,523.2437744c0.0299683,14.0600586-5.4799805,27.3400879-15.4899902,37.3800049
		c-10.0100098,10.0499268-23.2700195,15.5899658-37.3300171,15.6099854l-24.7600098,0.0400391l-26.2099609,0.0400391
		c0.0099487-0.0100098,0.0299683-0.0200195,0.039978-0.0200195l-19.210022,0.0599365
		c0.2300415-0.0299072,0.5-0.0799561,0.7900391-0.1300049c13.7699585-0.2099609,26.7299805-5.7299805,36.5599976-15.5999756
		c10.0100098-10.039917,15.5100098-23.3199463,15.4899902-37.3800049l-0.6199951-338.8200989
		c-0.0400391-27.8598633-22.3400269-51.2199707-50.0100098-52.7399902l26.9000244-0.039917l24.7399902-0.0400391
		c0.5,0,1.0100098,0.0100098,1.5199585,0.0200195h0.1900024l13.7900391-0.0200195c0.5,0,1.0100098,0.0100098,1.5199585,0.0200195
		h0.1400146c28.2800293,0.8399658,51.2900391,24.5,51.3300171,52.7999268L469.2499695,523.2437744z"/>
	<path class="st2" d="M392.059967,540.9337158c1.6500244-5.6298828,2.539978-11.5699463,2.5300293-17.7099609
		l-0.6300049-338.8199768c-0.0100098-5.8100586-0.8099976-11.4400635-2.3200073-16.7900391
		c1.8200073,5.2999268,2.8099976,10.9500732,2.8200073,16.8099365l0.6199951,338.8200989
		C395.0899963,529.3537598,394.059967,535.3138428,392.059967,540.9337158z"/>
	<polygon class="st5" points="385.0299377,131.7373962 354.5499573,131.7732849 352.8399963,131.7732849 305.769989,131.8308411 
		216.9099426,131.8308411 216.8599548,107.2872391 289.4099426,107.2009964 347.6099548,107.1362534 384.9699402,107.1362534 
		384.9699402,107.1794205 	"/>
	<path class="st6" d="M375.019989,127.116127c0.0099487,2.5586166-2.8500366,4.6283798-6.3900146,4.635582l-15.0900269,0.0143738
		h-0.75l-47.0199585,0.0647583h-16.2300415c-3.3299561-0.1580811-5.9699707-2.1560974-5.9799805-4.5996933l-0.0300293-15.416153
		c-0.0099487-2.3716583,2.4700317-4.3265839,5.6500244-4.5924225c0.0800171-0.0143738,0.1500244-0.0143738,0.2299805-0.0215759
		l58.2000122-0.064743h21.8200073c0.0599976,0.0071869,0.1099854,0.014389,0.1699829,0.0215759
		c0.0599976,0,0.1199951,0.0072021,0.1799927,0.0215912c2.960022,0.3953094,5.2000122,2.2783051,5.210022,4.527832
		L375.019989,127.116127z"/>
	<path class="st7" d="M385.0299377,131.7373962v0.0143127l-30.4799805,0.0359802h-1.4699707
		c-0.0599976,0-0.1100464,0-0.1600342-0.0072021c-0.0100098,0-0.0199585,0-0.0199585,0
		c-0.0200195,0-0.0400391,0-0.0599976-0.0072021c-0.0200195,0-0.0300293,0-0.0500488-0.0072021
		c-3.1300049-0.2945862-5.5299683-2.2207336-5.5299683-4.5421219l-0.0400391-15.4592438
		c0-2.4291992,2.6300049-4.4272156,5.960022-4.5852966h31.789978L385.0299377,131.7373962z"/>
	<path class="st3" d="M443.6880798,184.4667969L444.301239,523.28479
		c0.0249634,15.4195557-12.4945068,27.9796753-27.9141541,28.0046387l-232.0630646,0.3756104
		c-15.4196625,0.0249634-27.9797058-12.4945679-28.0046692-27.9141846l-0.6131592-338.8179626
		c-0.0249634-15.4196472,12.4944916-27.9796753,27.9141541-28.0046387l232.0630646-0.3756104
		C431.1030579,156.52771,443.6631165,169.0471497,443.6880798,184.4667969z"/>
	<path class="st4" d="M443.6880798,184.4667969L444.301239,523.28479
		c0.0249634,15.4195557-12.4945068,27.9796753-27.9141541,28.0046387l-87.6806641,0.1419067
		c4.2081909-8.4365845,6.569397-17.9326782,6.5531311-27.9700928L334.6463928,184.64328
		c-0.0162354-10.0374146-2.4081726-19.5258179-6.6436462-27.9487l87.6806641-0.1419373
		C431.1030579,156.52771,443.6631165,169.0471497,443.6880798,184.4667969z"/>
	<path class="st2" d="M219.2732697,551.6084595l-34.9492493,0.0565796
		c-15.4196625,0.0249634-27.9797058-12.4945679-28.0046692-27.9141846l-0.6131592-338.8179626
		c-0.0249634-15.4196472,12.4944916-27.9796753,27.9141541-28.0046387l34.9492493-0.0565796
		c-15.4196472,0.0249634-27.9391022,12.585022-27.9141541,28.0046692l0.6131744,338.8179932
		C191.2935791,539.1138916,203.8536224,551.6334229,219.2732697,551.6084595z"/>
	<path class="st8" d="M155.9333038,286.6271362l0.3837738,237.1237793
		c0.0249634,15.4195557,12.5850067,27.9390869,28.0046692,27.9141235l232.0630798-0.3756104
		c15.4196472-0.0249634,27.9390869-12.585083,27.9141541-28.0046387l-0.4567871-282.22229
		c-13.1141968-9.3871155-32.0682373-16.486145-64.0538025-16.4343872
		C291.1151428,224.771637,281.0516357,286.4246216,155.9333038,286.6271362z"/>
	<path class="st9" d="M443.8421936,241.0625l0.4567871,282.22229c0.0249329,15.4195557-12.4945068,27.9796753-27.9141541,28.0046387
		l-87.6806641,0.1419067c2.7033691-5.4285278,4.651062-11.3031616,5.6895447-17.4838867
		c0.2767944-1.6779785,0.4977722-3.3699341,0.6347961-5.0756226c0.1508789-1.7757568,0.2317505-3.5792236,0.2287903-5.4105225
		l-0.4733276-292.4414673c12.9109497-3.9073181,27.4181213-6.3632507,45.0045166-6.3917236
		C411.7740479,224.576355,430.7281494,231.6753845,443.8421936,241.0625z"/>
	<path class="st9" d="M443.8648376,255.0562134l0.4341431,268.2285767
		c0.0249329,15.4195557-12.4945068,27.9796753-27.9141541,28.0046387l-232.0630798,0.3756104
		c-15.4196625,0.0249634-27.9797058-12.4945679-28.0046692-27.9141235l-0.3611298-223.1300659
		c73.2536774-0.1185608,107.0782623-21.3107605,140.321579-38.881134
		c23.5357971-12.4381104,46.7808228-23.0584106,83.5335083-23.1178894
		C411.7966309,238.5700378,430.7506409,245.6690063,443.8648376,255.0562134z"/>
	<path class="st10" d="M443.8648376,255.0562134l0.4341431,268.2285767
		c0.0249329,15.4195557-12.4945068,27.9796753-27.9141541,28.0046387l-87.6806641,0.1419067
		c2.7033691-5.4285278,4.651062-11.3031616,5.6895447-17.4838867c0.2767944-1.6779785,0.4977722-3.3699341,0.6347961-5.0756226
		c0.1508789-1.7757568,0.2317505-3.5792236,0.2287903-5.4105225l-0.4507141-278.4617615
		c12.9109497-3.9073181,27.4041443-6.3492432,45.0045471-6.3777161
		C411.7966919,238.5700378,430.7507935,245.6690063,443.8648376,255.0562134z"/>
	<path class="st11" d="M444.3009644,523.2866211c0.0199585,15.4199829-12.5,27.9800415-27.9200439,28.0100098
		l-197.0199738,0.3099976h-0.1900024l-34.7600098,0.0599976h-0.1300049c-0.4500122,0-0.9000244-0.0100098-1.3499756-0.039978
		c-0.4700317-0.0200195-0.9400024-0.0599976-1.4100342-0.1000366c-0.5100098-0.039978-1.0100098-0.0999756-1.5100098-0.1799927
		c-13.3800049-2.0499878-23.6699829-13.6300049-23.6900024-27.5899658l-0.4599609-282.2301025
		c0.0100098-0.0099487,0.0199585-0.0099487,0.0299683-0.0199585c8.5-6.1199951,19.460022-11.2800293,34.8599854-14.1500244
		c0.0200195,0,0.0500488-0.0100098,0.0700073-0.0100098c8.2900391-1.5499878,17.8699951-2.4400024,29.0400391-2.4599609
		c88.6699982-0.1400146,98.9400177,61.4799805,224.0500031,61.2799683L444.3009644,523.2866211z"/>
	<path class="st8" d="M443.9197388,286.1610413l0.3837891,237.1237488
		c0.0249329,15.4195557-12.4945068,27.9796753-27.9141541,28.0046387l-87.6806641,0.1419067
		c2.7033691-5.4285278,4.651062-11.3031616,5.6895447-17.4838867c0.2767944-1.6780396,0.4977722-3.3699341,0.6347961-5.0756836
		c0.1508789-1.7756958,0.2317505-3.5791626,0.2287903-5.4105225l-0.420166-259.6031189
		C360.8077698,275.9924927,392.768219,286.2438354,443.9197388,286.1610413z"/>
	<path class="st9" d="M443.9438477,303.873291l0.3551331,219.411499
		c0.0249329,15.4195557-12.4945068,27.9796753-27.9141541,28.0046387l-232.0630798,0.3756104
		c-15.4196625,0.0249634-27.9797058-12.4945679-28.0046692-27.9141235l-0.4281006-264.5100403
		c13.0837402-9.4295349,32.014679-16.5898743,64.0002441-16.6416626
		c33.006073-0.0534058,55.1497803,8.4524231,76.3883057,19.1405029
		C332.1088867,279.7575073,365.3919067,304.0004272,443.9438477,303.873291z"/>
	<path class="st8" d="M443.9438477,303.873291l0.3268433,201.9368591
		c0.0249634,15.4195862-12.4945068,27.9797058-27.9141541,28.0046692l-232.0630798,0.3756104
		c-15.4196472,0.0249634-27.9797058-12.4946289-28.0046539-27.9142151l-0.399826-247.0353394
		c13.0837402-9.4295349,32.014679-16.5898743,64.0002441-16.6416626
		C308.5624695,242.455719,318.8255005,304.0758057,443.9438477,303.873291z"/>
	<path class="st10" d="M443.9483948,303.873291l0.3551331,219.411499
		c0.0249329,15.4195557-12.4945068,27.9796753-27.9141541,28.0046387l-87.6806641,0.1419067
		c2.7033691-5.4285278,4.651062-11.3031616,5.6895447-17.4838867c0.2767944-1.6780396,0.4977722-3.3699341,0.6347961-5.0756836
		c0.1508789-1.7756958,0.2317505-3.5791626,0.2287903-5.4105225l-0.3915405-241.9048462
		C360.8364563,293.7047424,392.796875,303.9560852,443.9483948,303.873291z"/>
	<path class="st9" d="M443.9483948,303.873291l0.3268433,201.9368591
		c0.0249634,15.4195862-12.4945068,27.9797058-27.9141541,28.0046692l-81.9628296,0.1326294
		c0.2767944-1.6780396,0.4977722-3.3699341,0.6347961-5.0756836c0.1508789-1.7756958,0.2317505-3.5791626,0.2287903-5.4105225
		l-0.3915405-241.9048462C360.8364563,293.7047424,392.796875,303.9560852,443.9483948,303.873291z"/>
	<circle class="st9" cx="273.9362183" cy="318.6468811" r="10.5828552"/>
	<circle class="st9" cx="210.8882294" cy="320.9816284" r="29.3574142"/>
	<circle class="st9" cx="253.5328827" cy="373.0238342" r="18.3729172"/>
	<circle class="st9" cx="336.7955322" cy="491.1647034" r="20.8690186"/>
	<circle class="st9" cx="287.6550598" cy="465.191864" r="15.124649"/>
	<circle class="st9" cx="257.8217163" cy="495.025177" r="9.2485981"/>
	<path class="st12" d="M190.6193542,187.9161072h0.0000305c8.1056824,0,14.6766357,6.5709534,14.6766357,14.6766357v198.8286438
		c0,8.1056824-6.5709534,14.6766357-14.6766357,14.6766357h-0.0000305c-8.1056824,0-14.6766357-6.5709534-14.6766357-14.6766357
		V202.5927429C175.9427185,194.4870605,182.5136719,187.9161072,190.6193542,187.9161072z"/>
	<path class="st12" d="M191.2115784,431.0980225h0.0000153c8.1056824,0,14.6766357,6.5709534,14.6766357,14.6766663v28.8225098
		c0,8.1056519-6.5709534,14.6766357-14.6766357,14.6766357h-0.0000153c-8.1056824,0-14.6766357-6.5709839-14.6766357-14.6766357
		v-28.8225098C176.5349426,437.6689758,183.105896,431.0980225,191.2115784,431.0980225z"/>
</g>
</svg>
