<?xml version="1.0" encoding="utf-8"?>
<!-- Generator: Adobe Illustrator 22.1.0, SVG Export Plug-In . SVG Version: 6.00 Build 0)  -->
<svg version="1.1" id="Layer_1" xmlns="http://www.w3.org/2000/svg" xmlns:xlink="http://www.w3.org/1999/xlink" x="0px" y="0px"
	 viewBox="0 0 600 600" style="enable-background:new 0 0 600 600;" xml:space="preserve">
<style type="text/css">
	.st0{fill:#C4E5DC;}
	.st1{fill:#DDEEDB;}
	.st2{fill:#F3F7DE;}
	.st3{fill:#AADCD9;}
	.st4{fill:#9ED3D7;}
	.st5{opacity:0.2;fill:#FFFFFF;enable-background:new    ;}
	.st6{fill:#2D2D2D;}
	.st7{fill:#1E1E1E;}
	.st8{fill:#373737;}
	.st9{fill:#141414;}
	.st10{fill:#F1F5D7;}
	.st11{fill:#D6EBD4;}
	.st12{fill:#B8E0D5;}
	.st13{opacity:0.15;fill:#FFFFFF;enable-background:new    ;}
</style>
<g>
	<path class="st0" d="M499.9985962,279.5295105l-85.276825,294.3097839
		C410.5075378,588.3626709,397.0151978,598.5,381.8948364,598.5H218.1050415
		c-15.1199188,0-28.6122437-10.1373291-32.8264923-24.6607056l-85.2772446-294.3097839
		c-3.2282486-11.1591187-1.7088394-23.3042603,4.1780472-33.3239288l62.4070587-106.2299652
		c6.6468048-11.3129883,18.9363251-18.3486023,32.0577393-18.3486023h202.7115936
		c13.1213989,0,25.411377,7.0265503,32.0581665,18.3486023l62.4066467,106.2299652
		C501.7078857,256.2252502,503.2268372,268.3703918,499.9985962,279.5295105z"/>
	<path class="st1" d="M443.0267029,279.5295105l-85.276825,294.3097839C353.535614,588.3626709,340.0433044,598.5,324.9229431,598.5
		H218.1050415c-15.1199188,0-28.6122437-10.1373291-32.8264923-24.6607056l-85.2772446-294.3097839
		c-3.2282486-11.1591187-1.7088394-23.3042603,4.1780472-33.3239288l62.4070587-106.2299652
		c6.6468048-11.3129883,18.9363251-18.3486023,32.0577393-18.3486023h145.7397003
		c13.1213989,0,25.4113464,7.0265503,32.0581665,18.3486023l62.4066162,106.2299652
		C444.7359619,256.2252502,446.2549438,268.3703918,443.0267029,279.5295105z"/>
	<path class="st2" d="M401.7266541,279.5295105l-85.2772522,294.3097839
		C312.2444153,588.3626709,298.7432556,598.5,283.6228943,598.5h-65.5178528
		c-15.1199188,0-28.6122437-10.1373291-32.8264923-24.6607056l-85.2772446-294.3097839
		c-3.2282486-11.1591187-1.7088394-23.3042603,4.1780472-33.3239288l62.4070587-106.2299652
		c6.6468048-11.3129883,18.9363251-18.3486023,32.0577393-18.3486023h104.4396515
		c13.1306763,0,25.411377,7.0265503,32.0581665,18.3486023l62.4154663,106.2299652
		C403.4354858,256.2252502,404.9641724,268.3703918,401.7266541,279.5295105z"/>
	<path class="st3" d="M478.2769165,273.2355042l-10.9423218,37.7642212l-4.0420532,13.9535522l-70.2928772,242.5920105
		c-1.4284668,4.9463501-5.9593201,8.3468018-11.1048279,8.3468018H218.1050415
		c-5.1455078,0-9.6759186-3.4004517-11.1047974-8.3468018l-68.6012878-236.7770996l-6.484314-22.3818359l-10.1912155-35.1508484
		c-1.5194092-5.2360229-0.8142319-10.8699036,1.944191-15.5722961l3.2370834-5.50737l10.2190323-17.3899841l48.9597778-83.3416748
		c2.6131592-4.4491577,7.3970337-7.18927,12.5606384-7.18927h202.7115936c5.1636047,0,9.9474792,2.7401123,12.5610657,7.18927
		l44.573761,75.8722382l9.5672913,16.2865143l8.2748413,14.0802765
		C479.0906982,262.3656006,479.7963257,267.9994812,478.2769165,273.2355042z"/>
	<path class="st4" d="M478.2898254,273.2355042l-85.276825,294.3097839
		c-0.0361938,0.1355591-0.081665,0.2711182-0.1355591,0.3978271c-0.0092773,0.0450439-0.0273743,0.0812378-0.0454712,0.12677
		c-0.0631409,0.2348633-0.153656,0.4609375-0.2530212,0.6782227c-0.0361938,0.0993652-0.0816956,0.1986694-0.1178894,0.2891846
		c-0.0719604,0.1810913-0.1625061,0.3528442-0.2530212,0.5245972c-0.1991272,0.3978271-0.4252014,0.7868652-0.6782227,1.1573486
		c-0.0812683,0.1448364-0.1898804,0.2896729-0.2984924,0.434021c-0.2172546,0.2985229-0.452179,0.5881958-0.7051697,0.868103
		c-0.0997925,0.1179199-0.1991577,0.2260742-0.3077698,0.3439941c-0.2079773,0.2167969-0.4340515,0.4248047-0.6601563,0.6327515
		c-0.1717529,0.1536865-0.3616333,0.3165894-0.5514832,0.4521484c-1.9804077,1.5463867-4.4584351,2.4418335-7.1078186,2.4418335
		h-66.1144104c0.2437439-0.6782227,0.4698181-1.3564453,0.6689758-2.0527954l74.2713623-256.3104248l3.7709045-13.0039673
		l7.2438049-24.9953918c3.2375183-11.1591187,1.7000122-23.3042603-4.1780396-33.3239288l-5.0099487-8.5276337l-7.559967-12.8683929
		l-47.3321838-80.574646h63.7004089c5.1724243,0,9.9474792,2.7401123,12.5698853,7.18927l44.5645142,75.8722382
		l9.5677185,16.2865143l8.2744141,14.0802765c0.3346863,0.5788879,0.6424561,1.1665955,0.9224243,1.772644
		c0.4614258,1.0036621,0.841156,2.0346985,1.1215515,3.0926819
		C479.3297119,266.0100098,479.3115845,269.7087402,478.2898254,273.2355042z"/>
	<path class="st5" d="M121.684967,273.2355042l85.2772522,294.3097839
		c1.4377289,4.9463501,5.9593048,8.3468018,11.1140747,8.3468018h66.1144104
		c-0.2442017-0.6782227-0.4702759-1.3564453-0.6689758-2.0527954l-85.2860718-294.3097839
		c-3.2375183-11.1591187-1.6999969-23.3042603,4.1780548-33.3239288l59.9016266-101.9706726h-63.6999359
		c-5.1728821,0-9.9474792,2.7401123-12.5699005,7.18927l-62.407074,106.2390289
		C120.87117,262.3656006,120.1660004,267.9994812,121.684967,273.2355042z"/>
	<path class="st6" d="M478.2769165,273.2355042l-10.9423218,37.7642212l-4.0420532,13.9535522l-70.2928772,242.5920105
		c-1.4284668,4.9463501-5.9593201,8.3468018-11.1048279,8.3468018H218.1050415
		c-5.1455078,0-9.6759186-3.4004517-11.1047974-8.3468018l-68.6012878-236.7770996l-6.484314-22.3818359l3.9612427-0.3075562
		c68.899765-5.2631531,107.2881622-25.8270874,144.4008789-45.7220154c3.4185486-1.8267517,6.8004761-3.635376,10.1828308-5.4259033
		c2.1521606-1.139679,4.2049866-2.2067108,6.1672668-3.2194214c6.9815063-3.6082153,12.8865051-6.5019836,18.6016235-9.1065216
		c21.7035828-9.9022217,52.4052734-21.2785797,97.5579224-21.3598328h0.3890381
		c16.8291931,0,31.7865906,1.3291016,45.3151245,4.0513153l9.5672913,16.2865143l8.2748413,14.0802765
		C479.0906982,262.3656006,479.7963257,267.9994812,478.2769165,273.2355042z"/>
	<path class="st7" d="M478.2769165,273.2355042l-14.984375,51.7177734l-70.2928772,242.5920105
		c-1.4284668,4.9463501-5.9593201,8.3468018-11.1048279,8.3468018H218.1050415
		c-5.1455078,0-9.6759186-3.4004517-11.1047974-8.3468018l-68.6012878-236.7770996l-1.4920197-9.160614
		c78.2409821-5.9776306,119.3785248-31.2713318,159.8917084-52.6856995
		c7.9582214-4.2049561,15.8890991-8.2472229,24.0641479-11.9821777
		c25.4382935-11.6022186,53.3272705-20.057663,91.9505615-20.1298523
		c22.6984253-0.0273743,40.6672668,2.5319061,55.2445068,6.7730865l8.2748413,14.0802765
		C479.0906982,262.3656006,479.7963257,267.9994812,478.2769165,273.2355042z"/>
	<path class="st8" d="M467.3345947,310.9997253l-4.0420532,13.9535522l-70.2928772,242.5920105
		c-1.4284668,4.9463501-5.9593201,8.3468018-11.1048279,8.3468018H218.1050415
		c-5.1455078,0-9.6759186-3.4004517-11.1047974-8.3468018l-68.6012878-236.7770996l-6.484314-22.3818359l-10.1912155-35.1508484
		c-1.5194092-5.2360229-0.8142319-10.8699036,1.944191-15.5722961l3.2370834-5.50737l10.2190323-17.3899841
		c15.6175537-3.9879456,33.2967529-5.9592896,53.580719-5.9864502h0.4883575
		c33.3060303,0,61.5385284,5.7334442,91.5619812,18.5927887c4.37677,1.8627167,8.9614868,3.9608002,13.8720703,6.3392639
		c2.0346985,0.9767303,4.1237488,2.0166016,6.2759094,3.1017456c10.0649109,5.0552063,19.6688538,10.8970337,29.8335876,17.082428
		c30.936615,18.8007507,62.9223633,38.252594,112.6685791,38.252594c5.4440002,0,11.0871277-0.2351074,16.7572327-0.7142029
		L467.3345947,310.9997253z"/>
	<path class="st6" d="M463.2962036,324.9532776L396.5666809,555.246521l-3.5629578,12.2987671
		c-1.4288635,4.9463501-5.9592896,8.3468018-11.1047974,8.3468018H218.1091309
		c-5.1455078,0-9.6763611-3.4004517-11.1048126-8.3468018l-3.563385-12.2987671l-65.0383453-224.4783325l-16.6755295-57.5326843
		c-1.5194092-5.2360229-0.813797-10.8699036,1.944191-15.5722961l3.2375259-5.50737
		c15.9429855-5.9774017,36.4437637-9.7754822,63.8178635-9.8116913
		c35.9553833-0.0633698,62.6238708,7.1892548,86.6876068,17.4983826c6.6105957,2.8125,13.0220642,5.8692017,19.3884583,9.0793457
		C340.2098694,290.7521973,381.2476196,331.7990112,463.2962036,324.9532776z"/>
	
		<ellipse transform="matrix(0.070889 -0.9974842 0.9974842 0.070889 -275.7546692 714.5186768)" class="st7" cx="245.6726685" cy="505.2830505" rx="19.2920551" ry="19.292078"/>
	<circle class="st7" cx="288.7030029" cy="528.4938354" r="9.4953175"/>
	<path class="st7" d="M478.2805481,273.2355042l-10.941864,37.7642212l-4.0424805,13.9535522l-70.2924805,242.5920105
		c-0.0361938,0.1355591-0.0812378,0.2622681-0.1262817,0.3978271c-0.0092773,0.0450439-0.0273743,0.0812378-0.0454712,0.12677
		c-0.0724182,0.2260742-0.153656,0.4609375-0.2530212,0.6782227c-0.0361938,0.0993652-0.0816956,0.1986694-0.1178894,0.2891846
		c-0.0812378,0.1810913-0.1625061,0.3528442-0.2530212,0.5245972c-0.1991272,0.3978271-0.4252014,0.7868652-0.6782227,1.1573486
		c-0.0905151,0.1536255-0.1898804,0.2896729-0.2984924,0.434021c-0.2172546,0.2985229-0.452179,0.5881958-0.7051697,0.868103
		c-0.0997925,0.1179199-0.1991577,0.2260742-0.3077698,0.3439941c-0.2079773,0.2167969-0.4340515,0.4248047-0.6601563,0.6327515
		c-0.1717529,0.1536865-0.3616333,0.3165894-0.5514832,0.4521484c-1.9804077,1.5463867-4.4584351,2.4418335-7.1078186,2.4418335
		h-66.1144104c0.2437439-0.6782227,0.4698181-1.3564453,0.6689758-2.0527954l74.2713623-256.3104248l3.7709045-13.0039673
		l7.2438049-24.9953918c3.2375183-11.1591187,1.7000122-23.3042603-4.1780396-33.3239288l-5.0099487-8.5276337l-7.559967-12.8683929
		c8.5998535-0.9767303,17.8509827-1.5463409,27.7984619-1.5644531h0.3890076c16.8291931,0,31.7866211,1.3291016,45.315155,4.0513153
		l9.5677185,16.2865143l8.2744141,14.0802765c0.3346863,0.5788879,0.6424561,1.1665955,0.9224243,1.772644
		c0.4614258,1.0036621,0.8318787,2.0346985,1.1215515,3.0926819
		C479.3208618,266.0100098,479.3027649,269.7087402,478.2805481,273.2355042z"/>
	<circle class="st7" cx="181.8607483" cy="328.8846436" r="28.9381084"/>
	<circle class="st7" cx="226.7286835" cy="280.7128906" r="14.7704954"/>
	<path class="st9" d="M478.2805481,273.2355042l-10.941864,37.7642212l-4.0424805,13.9535522l-70.2924805,242.5920105
		c-0.0361938,0.1355591-0.0812378,0.2622681-0.1262817,0.3978271c-0.0092773,0.0450439-0.0273743,0.0812378-0.0454712,0.12677
		c-0.0724182,0.2260742-0.153656,0.4609375-0.2530212,0.6782227c-0.0361938,0.0993652-0.0816956,0.1986694-0.1178894,0.2891846
		c-0.0812378,0.1810913-0.1625061,0.3528442-0.2530212,0.5245972c-0.1991272,0.3978271-0.4252014,0.7868652-0.6782227,1.1573486
		c-0.0905151,0.1536255-0.1898804,0.2896729-0.2984924,0.434021c-0.2172546,0.2985229-0.452179,0.5881958-0.7051697,0.868103
		c-0.0997925,0.1179199-0.1991577,0.2260742-0.3077698,0.3439941c-0.2079773,0.2167969-0.4340515,0.4248047-0.6601563,0.6327515
		c-0.1717529,0.1536865-0.3616333,0.3165894-0.5514832,0.4521484c-1.9804077,1.5463867-4.4584351,2.4418335-7.1078186,2.4418335
		h-66.1144104c0.2437439-0.6782227,0.4698181-1.3564453,0.6689758-2.0527954l74.2713623-256.3104248l3.7709045-13.0039673
		l7.2438049-24.9953918c3.2375183-11.1591187,1.7000122-23.3042603-4.1780396-33.3239288l-5.0099487-8.5276337
		c6.4300232-0.5607758,13.1669006-0.8592682,20.2658691-0.868103c22.6984253-0.0273743,40.6668396,2.5319061,55.2445068,6.7730865
		l8.2744141,14.0802765c0.3346863,0.5788879,0.6424561,1.1665955,0.9224243,1.772644
		c0.4614258,1.0036621,0.8318787,2.0346985,1.1215515,3.0926819
		C479.3208618,266.0100098,479.3027649,269.7087402,478.2805481,273.2355042z"/>
	<path class="st6" d="M467.3386841,310.9997253l-4.0424805,13.9535522l-70.2924805,242.5920105
		c-0.0361938,0.1355591-0.0812378,0.2622681-0.1262817,0.3978271c-0.0092773,0.0450439-0.0273743,0.0812378-0.0454712,0.12677
		c-0.0724182,0.2260742-0.153656,0.4609375-0.2530212,0.6782227c-0.0361938,0.0993652-0.0816956,0.1986694-0.1178894,0.2891846
		c-0.0812378,0.1810913-0.1625061,0.3528442-0.2530212,0.5245972c-0.1991272,0.3978271-0.4252014,0.7868652-0.6782227,1.1573486
		c-0.0905151,0.1536255-0.1898804,0.2896729-0.2984924,0.434021c-0.2172546,0.2985229-0.452179,0.5881958-0.7051697,0.868103
		c-0.0997925,0.1179199-0.1991577,0.2260742-0.3077698,0.3439941c-0.2079773,0.2167969-0.4340515,0.4248047-0.6601563,0.6327515
		c-0.1717529,0.1536865-0.3616333,0.3165894-0.5514832,0.4521484c-1.9804077,1.5463867-4.4584351,2.4418335-7.1078186,2.4418335
		h-66.1144104c0.2437439-0.6782227,0.4698181-1.3564453,0.6689758-2.0527954l74.2713623-256.3104248l3.7709045-13.0039673
		c14.9486084,4.6842957,31.5967712,7.6233215,50.913269,7.6233215c5.4440002,0,11.0867004-0.2351074,16.7567749-0.7142029
		L467.3386841,310.9997253z"/>
	<path class="st7" d="M463.2962036,324.9532776L396.5666809,555.246521l-3.5629578,12.2987671
		c-0.0361938,0.1355591-0.0812378,0.2622681-0.1262817,0.3978271c-0.0092773,0.0450439-0.0273743,0.0812378-0.0454712,0.12677
		c-0.0724182,0.2260742-0.153656,0.4609375-0.2530212,0.6782227c-0.0361938,0.0993652-0.0816956,0.1986694-0.1178894,0.2891846
		c-0.0812378,0.1810913-0.1625061,0.3528442-0.2530212,0.5245972c-0.1991272,0.3978271-0.4252014,0.7868652-0.6782227,1.1573486
		c-0.0905151,0.1536255-0.1898804,0.2896729-0.2984924,0.434021c-0.2172546,0.2985229-0.452179,0.5881958-0.7051697,0.868103
		c-0.0997925,0.1179199-0.1991577,0.2260742-0.3077698,0.3439941c-0.2079773,0.2167969-0.4340515,0.4248047-0.6601563,0.6327515
		c-0.1717529,0.1536865-0.3616333,0.3165894-0.5514832,0.4521484c-1.9804077,1.5463867-4.4584351,2.4418335-7.1078186,2.4418335
		h-66.1144104c0.2437439-0.6782227,0.4698181-1.3564453,0.6689758-2.0527954l5.389679-18.5927734l68.8816833-237.7176514
		C411.1624756,323.9224548,434.7471008,327.3317261,463.2962036,324.9532776z"/>
	<g>
		<polygon class="st10" points="375.8110352,121.6311417 347.1623535,121.6942902 301.657135,121.7938614 293.1023254,121.8119659 
			210.2037659,121.9477386 210.2549133,95.1510468 380.2784119,95.1612091 		"/>
		<path class="st11" d="M373.9481812,95.2929077l0.0541992,26.5901566l-8.7536926,0.063591l-57.2613525,0.1002579
			c-2.8018799,0-4.9465942-3.7061386-4.9556274-7.5487823l-0.0271606-11.7789001
			c-0.0090637-4.2250061,2.5773926-7.5610886,5.7786865-7.5610886c0,0,48.7710571-0.0070953,48.8872681-0.0070953
			C357.6705017,95.2089844,373.9481812,95.2929077,373.9481812,95.2929077z"/>
		<path class="st12" d="M389.3757629,121.8932495l-40.4047852,0.0631409c-2.6768494,0-4.6120911-3.7437668-4.6210327-7.3791351
			l-0.0271606-11.8194733c0-4.0420456,2.3858337-7.5960922,5.4801025-7.5960922
			c0.0999756,0,39.5186768-0.0091248,39.5186768-0.0091248L389.3757629,121.8932495z"/>
	</g>
	<g>
		<path class="st10" d="M379.4584045,9.5450153v19.587513c0,4.1417255-4.0694275,7.5329113-9.0431519,7.5329113H229.9389343
			c-4.9737396,0-9.0431671-3.3911858-9.0431671-7.5329113V9.5450153c0-4.1507792,4.0694275-7.5419641,9.0431671-7.5419641
			h140.4763184C375.3889771,2.0030513,379.4584045,5.3942361,379.4584045,9.5450153z"/>
		<path class="st12" d="M379.4584045,9.5450153v19.587513c0,4.1417255-4.0694275,7.5329113-9.0431519,7.5329113h-33.5787354
			c-4.9737244,0-9.0431519-3.3911858-9.0431519-7.5329113V9.5450153c0-4.1507792,4.0694275-7.5419641,9.0431519-7.5419641
			h33.5787354C375.3889771,2.0030513,379.4584045,5.3942361,379.4584045,9.5450153z"/>
		<path class="st11" d="M350.5218506,9.5420742v19.5874043c0,4.1418381-4.069397,7.5330238-9.0431519,7.5330238h-40.5495911
			c4.9737244,0,9.0431519-3.3911858,9.0431519-7.5330238V9.5420742C309.9722595,5.3911848,305.902832,2,300.9291077,2h40.5495911
			C346.4524536,2.0000005,350.5218506,5.3911848,350.5218506,9.5420742z"/>
		<path class="st2" d="M413.1819458,80.5895081c0.0090637,3.888382-1.5013123,7.5509033-4.241394,10.3000641
			c-2.7398987,2.7491531-6.3933716,4.2683411-10.2819824,4.2773972H190.4941711
			c-2.685791,0-5.0009003-0.6963425-6.8819427-1.9351425c-1.3021698-0.8500061-2.396347-1.9534607-3.2644653-3.264679
			c-1.6278076-2.4235001-2.4868622-5.5342941-2.4961395-8.9797897l-0.0721893-46.7530937
			c-0.0090485-3.7799778,1.4107819-7.3340969,4.0151062-10.0470467c0.0724182-0.0812473,0.1446075-0.1627159,0.2260742-0.2441826
			c0.1176758-0.1174564,0.2351379-0.2351322,0.3618622-0.3435345l0.1627197-0.1629353
			c2.6676941-2.4687653,6.104126-4.0782528,9.7485504-4.0875263h206.9434967
			c7.7772217,0.3437557,13.854187,6.7101765,13.8632507,14.4871616L413.1819458,80.5895081z"/>
		<path class="st0" d="M422.2205811,80.5932617c0.0090637,3.888382-1.5011902,7.5509033-4.2411804,10.3000641
			c-2.7401123,2.7491531-6.3935852,4.2683411-10.282196,4.2773972h-95.3329163c0.2803955,0,0.5606995-0.0090561,0.8409729-0.0271606
			h0.0361938c0.2803955-0.0181046,0.5516357-0.0362091,0.8228455-0.0812454c0.0090637,0.0088348,0.0271606,0.0088348,0.0362244,0
			c3.2284546-0.3890152,6.2218018-1.8360062,8.5458374-4.1689911c2.7399902-2.7491608,4.2502441-6.4116821,4.2413025-10.3000641
			l-0.0090637-7.7500458v-0.0724182l-0.0542908-30.6383362v-0.0812454l-0.0090637-8.2112617
			c-0.0090332-7.7772026-6.0950623-14.1434021-13.8722839-14.4871578h95.3331299
			c7.7769775,0.3437557,13.8630066,6.7099552,13.8720703,14.4871578L422.2205811,80.5932617z"/>
		<path class="st1" d="M363.9270935,80.5894089c0.0090332,3.8884964-1.5010986,7.5509109-4.2411804,10.3000641
			c-2.7401123,2.7491531-6.3933716,4.2683487-10.2819824,4.2773972h-40.1716309
			c3.8886108-0.0090485,7.5420837-1.528244,10.282196-4.2773972s4.1778259-6.4115677,4.1687622-10.3000641V33.8362122
			c-0.0088196-7.7770939-6.0948486-14.1435127-13.8720703-14.4871578h40.1714172
			c7.7772217,0.3436451,13.8632507,6.7100639,13.8722839,14.4871578L363.9270935,80.5894089z"/>
		<path class="st3" d="M390.5919189,66.5995483c0,3.3370895-2.6948242,6.0500412-6.040741,6.0590897l-60.8605042,0.1174545
			l-19.3975525,0.0271606h-2.5771484l-95.2788239,0.1538849c-3.3459167,0.0088272-6.0498199-2.6950684-6.0588684-6.0409927
			L200.35112,48.2964211c-0.0090485-3.3370934,2.6948395-6.0500412,6.031723-6.0590897l84.5263672-0.1355591l13.3839111-0.0181046
			l19.3975525-0.0271568l60.8152161-0.1176758c2.3332214-0.008831,4.3588867,1.3114357,5.3627625,3.2465744
			c0.0903015,0.1627121,0.1717834,0.3347015,0.2442017,0.515522c0.0721741,0.1536598,0.1264954,0.3073235,0.1808167,0.4793129
			c0.1717529,0.5696144,0.2713318,1.1756554,0.2713318,1.7995796L390.5919189,66.5995483z"/>
		<path class="st4" d="M390.5919189,66.5995483c0,3.3370895-2.6948242,6.0500412-6.040741,6.0590897l-60.866272,0.1174545
			l-0.0026245-30.7195816l60.8236084-0.1176758c2.3332214-0.008831,4.3588867,1.3114357,5.3627625,3.2465744
			c0.0903015,0.1627121,0.1717834,0.3347015,0.2442017,0.515522c0.0721741,0.1536598,0.1264954,0.3073235,0.1808167,0.4793129
			c0.1717529,0.5696144,0.2713318,1.1756554,0.2713318,1.7995796L390.5919189,66.5995483z"/>
	</g>
	<path class="st7" d="M396.5666809,555.246521l-3.5629578,12.2987671
		c-1.4288635,4.9463501-5.9592896,8.3468018-11.1047974,8.3468018H218.1091309
		c-5.1455078,0-9.6763611-3.4004517-11.1048126-8.3468018l-3.563385-12.2987671H396.5666809z"/>
	<path class="st9" d="M396.5666809,555.246521l-3.5629578,12.2987671c-0.0361938,0.1355591-0.0812378,0.2622681-0.1262817,0.3978271
		c-0.0092773,0.0450439-0.0273743,0.0812378-0.0454712,0.12677c-0.0724182,0.2260742-0.153656,0.4609375-0.2530212,0.6782227
		c-0.0361938,0.0993652-0.0816956,0.1986694-0.1178894,0.2891846c-0.0812378,0.1810913-0.1625061,0.3528442-0.2530212,0.5245972
		c-0.1991272,0.3978271-0.4252014,0.7868652-0.6782227,1.1573486c-0.0905151,0.1536255-0.1898804,0.2896729-0.2984924,0.434021
		c-0.2172546,0.2985229-0.452179,0.5881958-0.7051697,0.868103c-0.0997925,0.1179199-0.1991577,0.2260742-0.3077698,0.3439941
		c-0.2079773,0.2167969-0.4340515,0.4248047-0.6601563,0.6327515c-0.1717529,0.1536865-0.3616333,0.3165894-0.5514832,0.4521484
		c-1.9804077,1.5463867-4.4584351,2.4418335-7.1078186,2.4418335h-66.1144104
		c0.2437439-0.6782227,0.4698181-1.3564453,0.6689758-2.0527954l5.389679-18.5927734H396.5666809z"/>
	<path class="st13" d="M163.0711975,268.8096619h0.0000153c7.0432587-2.0304871,14.3989716,2.0331726,16.4294586,9.076416
		l49.8070526,172.7677917c2.0305023,7.0432434-2.0331573,14.3989868-9.0764008,16.4294434l-0.0000305,0.000061
		c-7.0432434,2.0304565-14.3989716-2.0331726-16.4294739-9.076416l-49.8070374-172.7678223
		C151.9642944,278.1958923,156.0279388,270.8401794,163.0711975,268.8096619z"/>
	<path class="st13" d="M240.3373413,488.9683838l9.5680847,33.1784058
		c2.0268555,7.0396729-2.0347748,14.3933716-9.0827789,16.4237061c-6.5120392,1.8807373-13.2939453-1.4614868-15.8855743-7.5428467
		c-0.0992432-0.2329102-0.1901855-0.4694214-0.2728119-0.7094727l-0.0177002-0.0415039l-9.6072083-33.3388367
		c-2.0301819-7.0481567,2.0314484-14.4017944,9.0794525-16.4321899
		C230.9482117,478.5390015,238.0770874,482.3034668,240.3373413,488.9683838z"/>
	<circle class="st7" cx="331.4319458" cy="362.2504272" r="28.9381084"/>
	<circle class="st7" cx="357.3556824" cy="425.5525208" r="19.2920818"/>
	<circle class="st7" cx="314.249939" cy="460.2179871" r="11.454669"/>
</g>
</svg>
