<?xml version="1.0" encoding="utf-8"?>
<!-- Generator: Adobe Illustrator 22.1.0, SVG Export Plug-In . SVG Version: 6.00 Build 0)  -->
<svg version="1.1" id="Layer_1" xmlns="http://www.w3.org/2000/svg" xmlns:xlink="http://www.w3.org/1999/xlink" x="0px" y="0px"
	 viewBox="0 0 600 600" style="enable-background:new 0 0 600 600;" xml:space="preserve">
<style type="text/css">
	.st0{fill:#0000FF;}
	.st1{fill:#F3F7DE;}
	.st2{fill:#C4E5DC;}
	.st3{fill:#DDEEDB;}
	.st4{fill:#AADCD9;}
	.st5{fill:#9ED3D7;}
	.st6{fill:#D6EBD4;}
	.st7{fill:#B8E0D5;}
	.st8{fill:#F1F5D7;}
	.st9{fill:#313177;}
	.st10{fill:#232360;}
	.st11{fill:#444484;}
	.st12{fill:#1E1E5E;}
	.st13{fill:#1C1C51;}
	.st14{opacity:0.14;fill:#FFFFFF;enable-background:new    ;}
</style>
<g>
	<g>
		<path class="st0" d="M367.0022888,134.1702576h-0.5v-0.0698242
			C366.6722107,134.110199,366.8318787,134.1302185,367.0022888,134.1702576z"/>
		<g>
			<path class="st1" d="M445.124176,118.1881104c0.0100098,4.3000488-1.6601563,8.3500977-4.6901855,11.3901367
				c-3.0297852,3.039917-7.0698242,4.7199707-11.369873,4.7299805H168.8742065
				c-8.8400879,0-13.9602051-6.8300781-13.9799805-15.6800537l-0.0800781-51.6999512
				c-0.0100098-4.3000488,1.6599121-8.3399658,4.6899414-11.3800049s7.0600586-5.0700684,11.3601074-5.0800781H429.70401
				c8.6000977,0.380127,15.3300781,7.4200439,15.3400879,16.0200195L445.124176,118.1881104z"/>
			<path class="st2" d="M445.124176,118.1881104c0.0100098,4.3000488-1.6601563,8.3500977-4.6901855,11.3901367
				c-3.0297852,3.039917-7.0698242,4.7199707-11.369873,4.7299805H313.6441956
				c4.3000488-0.0100098,8.3398438-1.6900635,11.369873-4.7299805c3.0300293-3.0400391,4.6999512-7.0900879,4.6899414-11.3901367
				l-0.0097656-8.5699463l-0.0600586-33.9599609l-0.0100098-9.1700439
				c-0.0100098-8.5999756-6.7399902-15.6398926-15.3400879-16.0200195H429.70401
				c8.6000977,0.380127,15.3300781,7.4200439,15.3400879,16.0200195L445.124176,118.1881104z"/>
			<path class="st3" d="M372.8518982,118.1896057c0.0102539,4.3000488-1.659668,8.3400879-4.6899414,11.380127
				c-3.0297852,3.0500488-7.0698242,4.7199707-11.3696289,4.7299805H244.1018982
				c-4.2998047-0.0100098-8.3398438-1.6799316-11.3701172-4.7299805c-3.0297852-3.0400391-4.699707-7.0800781-4.6894531-11.380127
				l0.0795898-51.6999512c0.0102539-8.5998535,6.7402344-15.6499023,15.340332-16.0300293h113.9697266
				c8.6000977,0.380127,15.3300781,7.4301758,15.3398438,16.0300293L372.8518982,118.1896057z"/>
			<path class="st4" d="M420.1527405,102.7210693c0,0.4599609-0.0498047,0.9101563-0.1401367,1.3500977
				c-0.6196289,3.0400391-3.2998047,5.3398438-6.5395508,5.3500977h-0.4301758l-40.25,0.0600586l-68.0698242,0.0996094h-2.8500977
				l-73.7700043,0.1103516l-41.590332,0.0600586c-3.699707,0.0097656-6.6894531-2.9799805-6.699707-6.6801758l-0.0297852-20.5898438
				c-0.0102539-3.6904297,2.9794922-7.0200195,6.6699219-7.0302734H413.42276
				c2.25-0.0097656,4.2402344,1.1000977,5.4501953,2.800293c0,0,0.0097656,0.0097656,0.0097656,0.0200195
				c0.1801758,0.25,0.3300781,0.5,0.4702148,0.7695313c0.1000977,0.1801758,0.1899414,0.3701172,0.2700195,0.5703125
				c0.0800781,0.1699219,0.1396484,0.3398438,0.2001953,0.5297852c0.0996094,0.3203125,0.1699219,0.6401367,0.2197266,0.9702148
				s0.0800781,0.6699219,0.0800781,1.0200195L420.1527405,102.7210693z"/>
			<path class="st5" d="M420.1521912,102.719635c0,0.4602051-0.050293,0.9099121-0.1401367,1.3500977
				c-0.6499023,3.0400391-3.4399414,5.3400879-6.8100586,5.3498535h-0.159668l-40.25,0.0600586V75.5096741l40.6298828-0.0600586
				c2.25-0.0100098,4.2397461,1.1000977,5.449707,2.8000488c0,0,0.0102539,0.0100098,0.0102539,0.0200195
				c0.1601563,0.2700195,0.3100586,0.5300293,0.4399414,0.7700195c0.1000977,0.1799316,0.199707,0.3701172,0.2797852,0.5700684
				c0.0800781,0.1699219,0.1503906,0.3398438,0.2099609,0.5300293c0.1000977,0.3198242,0.1801758,0.6398926,0.2304688,0.9699707
				c0.0498047,0.329834,0.0795898,0.6699219,0.0795898,1.0197754L420.1521912,102.719635z"/>
			<path class="st2" d="M228.102951,75.4510498v34.2402344l-41.590332,0.0600586
				c-3.699707,0.0097656-6.6894531-2.9799805-6.699707-6.6801758l-0.0297852-20.5898438
				c-0.0102539-3.6904297,2.9794922-7.0200195,6.6699219-7.0302734H228.102951z"/>
		</g>
		<polygon class="st6" points="361.8555298,134.315033 361.8555298,179.065033 237.5222168,179.0700684 237.5222168,134.3200684 
			304.1629944,134.210083 		"/>
		<path class="st7" d="M401.3555298,190.9602966l-45.4601746-0.0134888
			c-2.6916199-0.0007935-4.8731689-2.1830139-4.8731689-4.8746338v-46.6838074c0-2.8127747,2.2755127-5.095459,5.0882874-5.1043243
			l24.2980042-0.0639801l20.9137573,0.0949707v0.1600342L401.3555298,190.9602966z"/>
		<path class="st8" d="M244.7067719,192.4365234H198.355545v-58.1394348h46.3512268
			c2.8403473,0,5.1428986,2.3025513,5.1428986,5.1428833v47.8536377
			C249.8496704,190.1339722,247.5471191,192.4365234,244.7067719,192.4365234z"/>
		<path class="st3" d="M541.2522583,256.3702087l-63.320282,274.1201477
			c-2.5800781,11.1398926-12.5,19.0300293-23.9296875,19.0300293H145.9422302
			c-11.4399414,0-21.3603592-7.8901367-23.9301834-19.0300293L58.6922264,256.3702087
			c-2.7802734-12.0100098,3.6499023-24.2399902,15.1196251-28.7600098l205.8603516-71.1499023
			c11.409668-4.5,23.949707-5.0600586,35.6396484-1.6899414l0.1103516,0.0297852
			c1.6396484,0.4802246,3.25,1.0302734,4.8496094,1.6601563l205.8500671,71.1499023
			C537.5921021,232.1302185,544.0217896,244.360199,541.2522583,256.3702087z"/>
		<path class="st2" d="M383.4319763,525.3902588l-1.1796875,5.1000977c-0.1801758,0.7600098-0.3803711,1.5-0.6303711,2.2199707
			L383.4319763,525.3902588z"/>
		<path class="st1" d="M242.1018982,549.5203857l-33.5200195,0.0200195v-0.0200195h-62.6396484
			c-11.4301758,0-21.3501053-7.8901367-23.9301834-19.0300293L58.6922264,256.3702087
			c-2.7700195-12.0100098,3.659668-24.2399902,15.129879-28.7600098l144.3598633-49.8898926l31.3500977-10.8400879
			c-9.8798828,3.5600586-16.3398438,13-16.2299805,23.3601074c0,0.7700195,0.0498047,1.5300293,0.1298828,2.3098145
			l0.5498047,5.2001953l0.0703125,0.7800293l-7.7802734,2.6699219L89.6219101,248.2102966
			c-3.8295898,1.5100098-5.9697266,5.5898438-5.0498047,9.5898438l5.9599609,25.8200684l0.2099609,0.9001465l3.1899414,13.7700195
			l0.2001953,0.8798828l16.2700195,70.4301758l2.3999023,10.3898926l1.0600586,4.6101074l2.3398438,10.0998535
			L144.7019958,518.09021c0.8701172,3.7602539,4.2202148,6.4301758,8.090332,6.4301758h63.9897461l0.2099609,0.869873
			l1.1801758,5.1000977c0.1796875,0.75,0.3701172,1.4799805,0.6201172,2.1899414
			c0,0.0100098,0.0097656,0.0200195,0.0097656,0.0300293C222.1018982,542.6602783,231.4519958,549.5203857,242.1018982,549.5203857z
			"/>
		<path class="st2" d="M541.3118286,256.3702087l-63.3197937,274.1201477
			c-2.5800781,11.1398926-12.5,19.0300293-23.9301758,19.0300293h-62.2197266v0.0200195l-33.5200195-0.0200195
			c10.6499023,0,20-6.8601074,23.2998047-16.8100586c0.25-0.7199707,0.4501953-1.4599609,0.6303711-2.2199707l1.1796875-5.1000977
			l0.2099609-0.869873h63.5703125c3.8696289,0,7.2197266-2.6699219,8.0898438-6.4301758l28.5-123.3899231l2.3398438-10.0998535
			l1.0600586-4.6101074l2.3999023-10.3898926l16.2700195-70.4301758l0.2001953-0.8798828l3.1899414-13.7700195l0.2099609-0.9001465
			l5.9599304-25.8200684c0.9199219-4-1.2197266-8.079834-5.0497742-9.5898438L374.322113,201.4102478l-0.300293-0.0998535
			l-7.4897461-2.5800781l0.0698242-0.7299805l0.550293-5.2001953c0.0795898-0.7797852,0.1298828-1.5397949,0.1298828-2.3098145
			c0.0698242-6.5100098-2.4599609-12.6599121-6.800293-17.2099609c-0.3095703-0.3400879-0.6396484-0.6601563-0.9794922-0.9802246
			c-1.8803711-1.8198242-4.0600586-3.3498535-6.4902344-4.5l22.6601563,7.7900391l6.449707,2.2299805l0.300293,0.1000977
			l143.7597351,49.6899414C537.6521606,232.1302185,544.0818481,244.360199,541.3118286,256.3702087z"/>
		<path class="st1" d="M218.7923279,532.6802979c-0.25-0.7099609-0.4404297-1.4399414-0.6201172-2.1899414l-1.1801758-5.1000977
			L218.7923279,532.6802979z"/>
		<path class="st4" d="M515.2620239,257.8001404l-5.9599304,25.8200684l-0.2099609,0.9001465l-3.1899414,13.7700195
			l-0.2001953,0.8798828l-16.2700195,70.4301758l-2.3999023,10.3898926l-1.0600586,4.6101074l-2.3398438,10.0998535
			l-28.5,123.3899231c-0.8701172,3.7602539-4.2202148,6.4301758-8.0898438,6.4301758H152.8919373
			c-3.8598633,0-7.2197266-2.6699219-8.0898438-6.4301758l-28.8901443-125.059845l-1.8100586-7.8300781l-1.5698242-6.8100586
			l-1.8598633-8.0598145l-17.6201172-76.25l-0.1401367-0.6000977l-3.2397461-14.0200195l-0.1401367-0.6000977l-4.8598633-21.0600586
			c-0.9199219-4,1.2299805-8.079834,5.0498047-9.5898438l199.1201172-68.4899902
			c3.5600586-1.4001465,7.2998047-2.1101074,11.1298828-2.1101074c3.8203125,0,7.5703125,0.7099609,11.1298828,2.1101074
			l199.1103516,68.4899902C514.0422974,249.7203064,516.1819458,253.8001404,515.2620239,257.8001404z"/>
		<path class="st5" d="M515.2620239,257.8001404l-5.9599304,25.8200684l-0.2099609,0.9001465l-3.1899414,13.7700195
			l-0.2001953,0.8798828l-16.2700195,70.4301758l-2.3999023,10.3898926l-1.0600586,4.6101074l-2.3398438,10.0998535
			l-28.5,123.3899231c-0.8701172,3.7602539-4.2202148,6.4301758-8.0898438,6.4301758h-63.4003906l68.6699219-296.230011
			l57.9003906,19.9199219C514.0422974,249.7203064,516.1819458,253.8001404,515.2620239,257.8001404z"/>
		<path class="st5" d="M515.2620239,257.8001404l-5.9599304,25.8200684l-0.2099609,0.9001465l-3.1899414,13.7700195
			l-0.2001953,0.8798828l-16.2700195,70.4301758l-2.3999023,10.3898926l-1.0600586,4.6101074l-2.3398438,10.0998535
			l-28.5,123.3899231c-0.3798828,1.6501465-1.2299805,3.0800781-2.4003906,4.1801758c-1.5,1.4099121-3.5097656,2.25-5.6796875,2.25
			h-63.4101563l33.5800781-144.8601379l3.3901367-14.6298828l17.5698242-75.7800293l3.4799805-15l10.6499023-45.9599609
			l57.9003906,19.9199219C514.0422974,249.7203064,516.1819458,253.8001404,515.2620239,257.8001404z"/>
		<path class="st2" d="M84.6660461,257.8001404l5.9599609,25.8200684l0.2099609,0.9001465l3.1899414,13.7700195l0.2001953,0.8798828
			l16.2700195,70.4301758l2.3999023,10.3898926l1.0600586,4.6101074l2.3398438,10.0998535l28.5,123.3899231
			c0.8701172,3.7602539,4.2202148,6.4301758,8.0898438,6.4301758h63.4003906l-68.6699219-296.230011l-57.9003906,19.9199219
			C85.8857727,249.7203064,83.7461243,253.8001404,84.6660461,257.8001404z"/>
		<path class="st9" d="M509.3020935,283.6202087l-0.2099609,0.9001465l-3.1899414,13.7700195l-0.2001953,0.8798828
			l-16.2700195,70.4301758l-2.3999023,10.3898926l-1.0600586,4.6101074l-2.3398438,10.0998535l-28.5,123.3899231
			c-0.8701172,3.7602539-4.2202148,6.4301758-8.0898438,6.4301758H152.8919373
			c-3.8598633,0-7.2197266-2.6699219-8.0898438-6.4301758l-28.8901443-125.059845l-1.8100586-7.8300781l-1.5698242-6.8100586
			l-1.8598633-8.0598145c88.8896561-3.3701172,135.2998047-28.2202148,180.1796875-52.2602539
			c3.840332-2.0598145,7.6503906-4.0998535,11.4501953-6.1098633l3.2900391-1.7399902h0.0200195
			c0.9301758-0.4799805,1.8598633-0.9699707,2.7797852-1.4499512c5.800293-3.0100098,11.0102539-5.6201172,15.9399414-7.9501953
			c27.4702148-13.0898438,62.6303711-26.4897461,114.9399414-26.579834h0.5800781
			C466.8020935,274.2403259,489.5520935,277.3103943,509.3020935,283.6202087z"/>
		<path class="st10" d="M505.9021912,298.2903748l-0.2001953,0.8798828l-16.2700195,70.4301758l-2.3999023,10.3898926
			l-1.0600586,4.6101074l-2.3398438,10.0998535l-28.5,123.3899231c-0.8701172,3.7602539-4.2202148,6.4301758-8.0898438,6.4301758
			H152.8919373c-3.8598633,0-7.2197266-2.6699219-8.0898438-6.4301758l-28.8901443-125.059845l-1.8100586-7.8300781
			c98.240242-4.2600098,147.1201172-34.5700684,195.2099609-59.9799805h0.0102539
			c2-1.0500488,3.9897461-2.1000977,5.9799805-3.130127c5.1201172-2.6599121,10.2597656-5.25,15.4599609-7.7299805
			c30.0302734-14.2998047,62.4599609-25.0400391,108.5400391-25.119873
			C467.231781,289.2002869,488.7718201,292.6602478,505.9021912,298.2903748z"/>
		<path class="st11" d="M489.4319763,369.6004333l-2.3999023,10.3898926l-1.0600586,4.6101074l-2.3398438,10.0998535
			l-28.5,123.3899231c-0.8701172,3.7602539-4.2202148,6.4301758-8.0898438,6.4301758H152.8919373
			c-3.8598633,0-7.2197266-2.6699219-8.0898438-6.4301758l-28.8901443-125.059845l-3.3798828-14.6401367l-19.4799805-84.3098145
			l-0.1401367-0.6000977l-3.2397461-14.0200195l-0.1401367-0.6000977c15.0297852-3.0297852,32.0800781-4.579834,50.7099686-4.619873
			h0.4501953c52.3896484,0,87.7597656,13.4499512,115.4399414,26.6101074c3.0600586,1.4599609,6.25,3.0197754,9.7597656,4.7797852
			c2.050293,1.0400391,4.0703125,2.0700684,6.1000977,3.1101074c5.6298828,2.9099121,11.3198242,5.9299316,16.8100586,8.8498535
			c47.9599609,25.4902344,97.5400391,51.8400879,198.1899414,52.0102539H489.4319763z"/>
		<path class="st9" d="M485.9720154,384.6004333l-2.3398438,10.0998535L458.782074,502.2903748l-3.6499023,15.7998352
			c-0.8701172,3.7602539-4.2202148,6.4301758-8.0898438,6.4301758H152.8919373
			c-3.8598633,0-7.2197266-2.6699219-8.0898438-6.4301758l-3.6499023-15.7998352l-25.240242-109.2600098l-3.3798828-14.6401367
			l-19.4799805-84.3098145l-0.1401367-0.6000977c13.3999023-2.6699219,29-4.1999512,47.3598709-4.2399902
			c46.4902344-0.0600586,79.1303711,10.7600098,109.4204102,25.1499023
			c3.1699219,1.5200195,6.3198242,3.0600586,9.4599609,4.6401367c2,1.0100098,3.9799805,2.0300293,5.9799805,3.0598145
			C318.2718201,349.5003357,370.2019958,384.2102966,485.9720154,384.6004333z"/>
		<path class="st12" d="M509.3118591,283.6202087l-0.2099609,0.9001465l-3.1899414,13.7700195l-0.199707,0.8798828
			l-16.2700195,70.4301758l-2.3999023,10.3898926l-1.0605469,4.6101074l-2.3398438,10.0998535l-28.5,123.3899231
			c-0.3896484,1.6501465-1.2397461,3.0900879-2.4101563,4.1801758c-1.5,1.4099121-3.5097656,2.25-5.6796875,2.25h-63.4101563
			l33.5800781-144.8601379l3.3901367-14.6298828l17.5698242-75.7800293l3.4799805-15
			c26.1601563,0.1298828,48.3300781,3.1999512,67.6401367,9.369873H509.3118591z"/>
		<path class="st13" d="M505.9119568,298.2903748l-0.199707,0.8798828l-16.2700195,70.4301758l-2.3999023,10.3898926
			l-1.0605469,4.6101074l-2.3398438,10.0998535l-28.5,123.3899231c-0.3896484,1.6501465-1.2397461,3.0900879-2.4101563,4.1801758
			c-1.5,1.4099121-3.5097656,2.25-5.6796875,2.25h-63.4101563l33.5800781-144.8601379l3.3901367-14.6298828l17.5698242-75.7800293
			c0.3798828-0.0100098,0.75-0.0100098,1.1298828-0.0100098c27.9199219-0.0400391,49.4599609,3.4199219,66.590332,9.0500488
			H505.9119568z"/>
		<path class="st9" d="M489.4422302,369.6004333l-2.3999023,10.3898926l-1.0605469,4.6101074l-2.3398438,10.0998535
			l-28.5,123.3899231c-0.3896484,1.6501465-1.2397461,3.0900879-2.4101563,4.1801758c-1.5,1.4099121-3.5097656,2.25-5.6796875,2.25
			h-63.4101563l33.5800781-144.8601379l3.3901367-14.6298828c19.4799805,2.869873,41.3500977,4.5300293,66.3901367,4.5700684
			H489.4422302z"/>
		<path class="st10" d="M485.981781,384.6004333l-2.3398438,10.0998535l-24.8496094,107.5900879l-3.6503906,15.7998352
			c-0.3896484,1.6501465-1.2397461,3.0900879-2.4101563,4.1801758c-1.5,1.4099121-3.5097656,2.25-5.6796875,2.25h-63.4101563
			l5.1503906-22.230011l28.4296875-122.630127c20.2099609,3.0500488,42.8901367,4.8500977,68.75,4.9401855H485.981781z"/>
		<circle class="st10" cx="169.2620544" cy="345.9602966" r="25.3333359"/>
		<circle class="st10" cx="212.4287262" cy="380.4602966" r="13.1666565"/>
		<circle class="st10" cx="205.3533325" cy="468.3858948" r="13.1666794"/>
		<circle class="st10" cx="399.4114075" cy="460.2024841" r="25.3333588"/>
		<circle class="st10" cx="375.1651001" cy="410.5464172" r="13.1666679"/>
		<circle class="st10" cx="329.7971191" cy="426.127594" r="7.3333282"/>
		<circle class="st10" cx="176.1873779" cy="480.304657" r="7.3333206"/>
		<path class="st10" d="M458.782074,502.2903748l-3.6499023,15.7998352
			c-0.8701172,3.7602539-4.2202148,6.4301758-8.0898438,6.4301758H152.8919373
			c-3.8598633,0-7.2197266-2.6699219-8.0898438-6.4301758l-3.6499023-15.7998352H458.782074z"/>
		<path class="st13" d="M458.7923279,502.2903748l-3.6503906,15.7998352
			c-0.3896484,1.6501465-1.2397461,3.0900879-2.4101563,4.1801758c-1.5,1.4099121-3.5097656,2.25-5.6796875,2.25h-63.4101563
			l5.1503906-22.230011H458.7923279z"/>
		<path class="st14" d="M238.9119568,248.8404236c0,6.0898438-3.8100586,11.7797852-9.8999023,13.869873l-74.1365051,25.4483643
			c-1.4059296,0.4841309-2.2193756,1.9516907-1.8848419,3.4005127l24.271347,102.3010254
			c1.8203125,7.8901367-3.1000977,15.7700195-11,17.6000977c-7.8999023,1.8200684-15.7797852-3.1000977-17.6000977-11
			l-25.8855591-109.3153381c-2.7934113-12.0989075,3.9996185-24.3540955,15.7403107-28.396759l80.9352875-27.7879028
			c7.6699219-2.6398926,16.0200195,1.4299316,18.6601563,9.0998535
			C238.6619568,245.6402283,238.9119568,247.2503357,238.9119568,248.8404236z"/>
		<path class="st14" d="M161.2535095,449.2209167l-1.8993073-8.3198242
			c-1.1336975-5.0770264,0.5252075-10.4311523,4.3540802-13.9643555c1.881424-1.736084,4.194519-2.9453735,6.6940765-3.5101318
			c7.8626862-1.7718506,15.7026978,3.1854248,17.4745178,11.0481567l1.8851776,8.3189087
			c1.1478424,5.0775146-0.5176849,10.4244995-4.3465576,13.9576416c-1.881424,1.736145-4.1945343,2.9454346-6.6940765,3.5102539
			c-3.806488,0.8591919-7.7212219,0.1851807-11.0200043-1.9003296
			C164.4024658,456.2755432,162.1125641,453.0271912,161.2535095,449.2209167z"/>
		<path class="st2" d="M375.6722107,175.5901794l-22.6601563-7.7900391
			c-0.1098633-0.0498047-0.2299805-0.1098633-0.3398438-0.1599121L375.6722107,175.5901794z"/>
		<polygon class="st1" points="249.532074,166.8802185 218.1819763,177.7203064 218.1619568,177.6602478 		"/>
		<path class="st2" d="M353.0120544,167.8001404c2.4301758,1.1501465,4.6098633,2.6801758,6.4902344,4.5
			c-1.9101563-1.7897949-4.1201172-3.2897949-6.5800781-4.4099121c-0.6103516-0.2800293-1.2299805-0.5300293-1.8701172-0.7600098
			L353.0120544,167.8001404z"/>
		<polygon class="st2" points="382.4222107,177.9102478 382.4222107,177.9202576 382.1219177,177.8201599 375.6722107,175.5901794 
					"/>
	</g>
</g>
</svg>
