<?xml version="1.0" encoding="utf-8"?>
<!-- Generator: Adobe Illustrator 22.1.0, SVG Export Plug-In . SVG Version: 6.00 Build 0)  -->
<svg version="1.1" id="Layer_1" xmlns="http://www.w3.org/2000/svg" xmlns:xlink="http://www.w3.org/1999/xlink" x="0px" y="0px"
	 viewBox="0 0 600 600" style="enable-background:new 0 0 600 600;" xml:space="preserve">
<style type="text/css">
	.st0{fill:#0E121E;}
	.st1{fill:#DDEEDB;}
	.st2{fill:#F3F7DE;}
	.st3{fill:#C4E5DC;}
	.st4{fill:#E7EAD0;}
	.st5{fill:#AADCD9;}
	.st6{fill:#9ED3D7;}
	.st7{fill:#5E5EE5;}
	.st8{fill:#4F3DD3;}
	.st9{fill:#7979F2;}
	.st10{fill:#3131AF;}
	.st11{opacity:0.5;fill:#FFFFFF;mix-blend-mode:soft-light;}
	.st12{fill:#FFDD9D;}
	.st13{fill:#FFC98F;}
	.st14{fill:#81C6CB;}
</style>
<g>
	<path class="st0" d="M424.5474243,244.4054871L424.52005,244.59758c-0.0274658,0.2012024-0.0639648,0.4116211-0.1097412,0.6128235
		l-2.808136,14.1683197l-11.8816223,60.1307068l-44.6087036,225.6229553H221.4347076l-36.157135-182.9349976h27.9707336
		l30.7331696,155.494751h98.5837097l40.2365417-203.4969482l11.8816223-60.1490021l1.6738281-8.4150085l-37.6572266-22.0528107
		l-1.4268188-0.8415375c-20.6899414-12.1102905-38.4529724-27.9890442-52.8133545-47.2063751
		c-2.2043762-2.9543762-4.3265076-5.9819489-6.3479004-9.0735626h-9.6772156
		c-2.0397034,3.1098633-4.1800232,6.1649017-6.40271,9.1376038c-3.8782349,5.1861877-8.0125732,10.1254578-12.3846436,14.817749
		l-27.7787781-11.0218353c6.6222382-6.146637,12.7140045-12.9060974,18.2020569-20.2417603
		c4.7746887-6.3844757,9.027832-13.1164703,12.7139893-20.1320038h40.9775085
		c3.677002,6.9972229,7.92099,13.7201233,12.6864319,20.104538c12.1469116,16.2537994,27.1842041,29.6812134,44.6911011,39.9438477
		l1.4908142,0.8689575l42.065918,24.6413422C421.8125305,228.7462463,425.7731628,236.713089,424.5474243,244.4054871z"/>
	<path class="st1" d="M475.4574585,258.2251282c-0.1096191,0.6677551-0.2375793,1.3446045-0.3657532,2.0122986
		l-62.518158,316.2489624c-2.2683716,11.479126-12.3387146,19.7478638-24.0374451,19.7478638h-177.072052
		c-11.6987305,0-21.7693024-8.2687378-24.0376892-19.7478638l-62.5181274-316.2489624
		c-0.1371155-0.6676941-0.2559128-1.3445435-0.3657837-2.0122986c-4.408577-26.3700256,8.488205-52.6395264,31.5654449-66.1492462
		l43.3646698-25.4005432c12.3664246-7.2533722,23.0133667-16.8392029,31.4374847-28.0988464
		c8.414978-11.2596512,14.5981903-24.1748581,18.046524-38.0961914H351.043335
		c3.4483643,13.9213333,9.6317749,26.8365402,18.0467529,38.0961914
		c5.9634705,7.9759979,13.0432739,15.1104431,21.0650024,21.1655884c3.3018494,2.5062103,6.7593384,4.811203,10.3722534,6.9332581
		l30.33078,17.76297l11.7076721,6.8600616l1.3264465,0.7775116
		C466.9694824,205.5856018,479.866272,231.8551025,475.4574585,258.2251282z"/>
	<path class="st2" d="M390.311676,188.6103058c-0.1281738,0.8049164-0.2744446,1.6098328-0.4390259,2.4147491
		l-75.771759,381.7488098c-2.5245056,12.7322998-13.0615845,22.1625366-25.7388611,23.4614258h-76.8968048
		c-11.6987305,0-21.7693024-8.2686768-24.0376892-19.7478027l-62.5181274-316.2489319
		c-0.1371155-0.6676941-0.2559128-1.3445435-0.3657837-2.0123596c-4.4087982-26.3700256,8.488205-52.6394653,31.5654449-66.1492462
		l43.3646698-25.4005432c7.5094452-4.4087982,14.3972015-9.6773376,20.5163269-15.6592255
		c0.0821686-0.0731354,0.155426-0.1555481,0.2378235-0.2286682c3.8690491-3.795929,7.436203-7.8845062,10.6833344-12.2108917
		c3.6495514-4.8844452,6.8783875-10.0797424,9.6498718-15.5311737c0.0183105-0.0274658,0.0274658-0.0640869,0.0457764-0.0915527
		c3.5946198-7.0978928,6.4116669-14.6256485,8.3508759-22.4735184h102.0867767
		c1.939209,7.8478699,4.7564697,15.3756256,8.3511047,22.4735184c0.0183105,0.0274658,0.0274658,0.0640869,0.0457764,0.0915527
		c2.7714844,5.4514313,6.0003052,10.6467285,9.6498718,15.5311737c3.2377625,4.3355408,6.8051147,8.4149628,10.6741638,12.2108917
		c0.0823975,0.0731201,0.155426,0.1555328,0.2378235,0.2286682c3.183075,3.1190643,6.5764771,6.0185089,10.1529846,8.7259216
		C391.6470642,169.9966888,391.7569275,179.9666595,390.311676,188.6103058z"/>
	<path class="st3" d="M475.4574585,258.2251282c-0.1096191,0.6677551-0.2375793,1.3446045-0.3657532,2.0122986
		l-62.518158,316.2489624c-2.2683716,11.479126-12.3387146,19.7478638-24.0374451,19.7478638h-47.618042
		c6.302002-0.6494751,12.0736694-3.302002,16.6012573-7.3814697c4.4270935-3.9788818,7.6651001-9.3297119,9.0096436-15.4854126
		h22.1625671c0.7775574,0,1.4541931-0.5488892,1.6006775-1.3171387l32.3521729-163.635437l7.4087219-37.4742126
		l8.0858154-40.8859863l2.3139343-11.6986694l9.567688-48.4229126l2.7623291-13.930542l0.0364075-0.2011871
		c0.1098633-0.5488434,0.2103577-1.106781,0.2927551-1.6555634c0.8416443-5.2960052-10.1344604-23.461441-22.6382141-37.904129
		l0.100708-0.5213776c0.1645813-0.8049164,0.3108521-1.6098328,0.4390259-2.4147644
		c1.4452515-8.6436768,1.3353882-18.6136017-0.155426-28.8671417l11.7076721,6.8600616l1.3264465,0.7775116
		C466.9694824,205.5856018,479.866272,231.8551025,475.4574585,258.2251282z"/>
	<path class="st4" d="M380.0032654,151.0171814H219.9900665c0.0821686-0.0731354,0.155426-0.1555481,0.2378235-0.2286682
		c3.8690491-3.795929,7.436203-7.8845062,10.6833344-12.2108917c3.6495514-4.8844452,6.8783875-10.0797424,9.6498718-15.5311737
		c0.0183105-0.0274658,0.0274658-0.0640869,0.0457764-0.0915527h118.7887573
		c0.0183105,0.0274658,0.0274658,0.0640869,0.0457764,0.0915527c2.7714844,5.4514313,6.0003052,10.6467285,9.6498718,15.5311737
		c3.2377625,4.3355408,6.8051147,8.4149628,10.6741638,12.2108917
		C379.8478394,150.8616333,379.9208679,150.944046,380.0032654,151.0171814z"/>
	<path class="st5" d="M452.9577637,254.1467896c-0.0823975,0.5487823-0.1828918,1.10672-0.2927551,1.6555176l-0.0366211,0.2012024
		l-2.7623291,13.930603l-9.5674744,48.4229431l-2.3141479,11.6986084l-8.0855713,40.8860474l-7.4089661,37.4742126
		l-32.3519592,163.6352844c-0.1464844,0.7684326-0.8233337,1.3171997-1.6006775,1.3171997H211.4652252
		c-0.631073,0-1.1982727-0.3659058-1.4544067-0.9146729c-0.0730286-0.1188965-0.1188049-0.2561035-0.1462708-0.4025269
		L177.8600769,410.153717l-16.5740204-83.8573303l-2.3233185-11.7627258l-8.1496735-41.2061462l-2.7348633-13.8390503
		l-0.731781-3.6861572c-0.1096497-0.5487976-0.2103577-1.1067352-0.2925415-1.6555176
		c-2.6982422-16.8666687,5.6800995-33.595993,20.41539-42.2305908l39.0659637-22.8760223l4.4909668-2.6341553
		c14.973114-8.7809753,27.8152008-20.2601929,38.1968384-34.1265869c0.3108521-0.4207153,0.631073-0.8415375,0.9329987-1.2714081
		c6.2928467-8.6254425,11.4242859-17.8818359,15.3757324-27.6597748h68.9389648
		c3.9514465,9.7870941,9.0917969,19.0343323,15.3757324,27.6597748c0.3016968,0.4208221,0.6127625,0.8415375,0.9238281,1.2622528
		c10.3722839,13.8755493,23.2235107,25.3639221,38.1968384,34.1357422l1.5365906,0.9055176l42.0109863,24.60466
		C447.2593689,220.5507965,455.6468506,237.2709656,452.9577637,254.1467896z"/>
	<path class="st3" d="M282.7995605,572.4526978h-72.789917c-0.0730286-0.1189575-0.1188049-0.2561646-0.1462708-0.4024658
		L177.858902,410.15271l-16.5740204-83.8573914l-2.3233185-11.7627869l-8.1496735-41.2060852l-2.7348633-13.8390503
		l-0.7315674-3.6861115c-0.1098633-0.5488434-0.2105713-1.106781-0.2927551-1.6555634
		c-2.6982422-16.8666077,5.6800995-33.5960541,20.4156036-42.2305908l39.0657501-22.8759766L282.7995605,572.4526978z"/>
	<path class="st6" d="M452.9572754,254.1467896c-0.0822754,0.5487823-0.1828918,1.10672-0.2927551,1.6555634l-0.036499,0.2012177
		l-2.7623596,13.930542l-9.5674438,48.4228821l-2.3141785,11.6986694l-8.0856934,40.8859863l-1.0975647,5.5612488
		l-0.7958679,4.0062256l-5.5155334,27.9067688L395.360199,545.6262817l-1.4452515,7.3174438l-3.7774963,19.1075439
		c-0.1463928,0.7683105-0.8233337,1.3171387-1.6006775,1.3171387h-74.5460205l5.4971924-27.7421265l45.4043884-229.0803833
		l25.6185303-129.2272644l42.0034485,24.5976257C447.2588806,220.5507965,455.6463623,237.2710266,452.9572754,254.1467896z"/>
	<path class="st7" d="M452.6272278,256.0024719l-2.7623596,13.930542l-9.5674438,48.4229126l-2.3139343,11.6986694
		l-15.4947815,78.360199l-32.3519287,163.635437c-0.1464844,0.7682495-0.8233337,1.3171387-1.6006775,1.3171387h-177.072052
		c-0.7773438,0-1.4544067-0.5488892-1.6006775-1.3171387L177.858902,410.15271l-16.5740204-83.8573914l-2.3233185-11.7627869
		l1.4910431-1.9299316c57.405014-3.5032349,88.8972168-20.1137085,119.1272888-36.3126221
		c0.3019104-0.1646423,0.6127625-0.3292847,0.9146729-0.4938965c2.7440186-1.4634705,5.4697266-2.9269714,8.1862793-4.3630371
		c2.0671997-1.0975647,4.1435242-2.1769104,6.2290039-3.2470703c23.4798584-12.0554199,48.4320068-22.4095459,84.3879395-23.9645081
		c2.9452209-0.128006,5.9728394-0.1920471,9.0734863-0.2012024h0.4207153
		C414.5127869,244.0202637,435.4498291,247.9441986,452.6272278,256.0024719z"/>
	<path class="st8" d="M449.8648682,269.9330139l-9.5674438,48.4229126l-2.3139343,11.6986694l-15.4947815,78.360199
		l-32.3519287,163.635437c-0.1464844,0.7682495-0.8233337,1.3171387-1.6006775,1.3171387h-177.072052
		c-0.7773438,0-1.4544067-0.5488892-1.6006775-1.3171387L177.858902,410.15271l-16.5740204-83.8573914
		c66.3233185-4.0520325,100.3308716-25.034668,133.8078613-42.7336731
		c5.0123901-2.6434326,10.0065002-5.2227478,15.1012878-7.6466675
		c18.9795227-9.0643921,39.2669373-16.1714478,66.3963623-17.8087463c3.7958069-0.2377625,7.7289429-0.3566895,11.8083496-0.3658447
		C416.6806641,257.6946716,435.8430786,262.6613464,449.8648682,269.9330139z"/>
	<path class="st9" d="M440.2974243,318.3559265l-2.3139343,11.6986694l-15.4947815,78.360199l-32.3519287,163.635437
		c-0.1464844,0.7682495-0.8233337,1.3171387-1.6006775,1.3171387h-177.072052c-0.7773438,0-1.4544067-0.5488892-1.6006775-1.3171387
		L177.858902,410.15271l-16.5740204-83.8573914l-2.3233185-11.7627869l-8.1496735-41.2060852l-2.7348633-13.8390503
		c16.7569122-7.3722839,36.9710999-10.9761047,61.6583862-11.0218201h0.4024048
		c36.6325684,0,62.6094666,9.1193237,84.7720337,19.7203979c2.1495667,1.0335693,4.2622986,2.0671692,6.3477783,3.1190796
		c2.9818726,1.5,5.9728699,3.0549622,8.9364014,4.6099243c2.5428162,1.3354492,5.0673523,2.6799927,7.5552368,3.9971313
		c15.3024902,8.140625,30.8702698,16.4092712,49.868103,23.0589905c19.1349182,6.7045288,41.7641907,11.75354,71.1251526,13.3816833
		L440.2974243,318.3559265z"/>
	<path class="st7" d="M437.9840393,330.0556641l-8.0856934,40.8859863l-1.0975647,5.5612488l-0.7958679,4.0062256
		l-5.5155334,27.9067688L395.360199,545.6262817l-1.4452515,7.3174438l-3.7774963,19.1075439
		c-0.1463928,0.7683105-0.8233337,1.3171387-1.6006775,1.3171387H211.4647369c-0.7774506,0-1.4543152-0.5488281-1.6006927-1.3171387
		l-3.7776031-19.1075439l-1.4451447-7.3174438l-26.781723-135.4725037l-16.5739136-83.8573914l-2.3231964-11.7627258
		l-8.1498871-41.2061462c13.7658997-6.6314087,32.297226-11.0950317,58.9508667-11.1407471
		c28.967804-0.0457153,50.4351959,5.8082275,69.8171234,14.1042786c5.29599,2.2592773,10.4273071,4.7106018,15.51297,7.2716675
		c21.3667908,10.7474365,41.9195251,23.4797668,69.7987976,32.9831848
		C384.6311035,323.2870483,408.0284424,328.3909607,437.9840393,330.0556641z"/>
	<path class="st8" d="M452.6272278,256.0024719l-2.7623596,13.930542l-9.5674438,48.4229126l-2.3139343,11.6986694
		l-15.4947815,78.360199l-32.3519287,163.635437c-0.1464844,0.7682495-0.8233337,1.3171387-1.6006775,1.3171387h-74.4730225
		l5.4972229-27.7421265l59.7374878-301.4037781c2.9452209-0.128006,5.9728394-0.1920471,9.0734863-0.2012024h0.4207153
		C414.5127869,244.0202637,435.4498291,247.9441986,452.6272278,256.0024719z"/>
	<path class="st10" d="M449.8648682,269.9330139l-9.1833496,46.4746399l-0.3840942,1.9482727l-2.3139343,11.6986694
		l-15.4947815,78.360199l-32.3519287,163.635437c-0.1464844,0.7682495-0.8233337,1.3171387-1.6006775,1.3171387h-74.4272461
		l5.4880676-27.7421265l48.093689-242.6267395l8.8997803-44.8922729c3.7958069-0.2377625,7.7289429-0.3566895,11.8083496-0.3658447
		C416.6806641,257.6946716,435.8430786,262.6613464,449.8648682,269.9330139z"/>
	<path class="st7" d="M440.6815186,316.4076538l-0.3840942,1.9482727l-2.3139343,11.6986694l-15.4947815,78.360199
		l-32.3519287,163.635437c-0.1464844,0.7682495-0.8233337,1.3171387-1.6006775,1.3171387h-74.5093994l5.4969788-27.7421265
		l48.093689-242.6541443c0.0274658,0.0091553,0.0457764,0.0182495,0.0732422,0.0274048
		C386.7980652,309.6847839,411.3938293,314.7795105,440.6815186,316.4076538z"/>
	<path class="st8" d="M437.9840393,330.0556641l-8.0856934,40.8859863l-1.0975647,5.5612488l-6.3114014,31.9129944
		L395.360199,545.6262817l-1.4452515,7.3174438l-3.7774963,19.1075439
		c-0.1463928,0.7683105-0.8233337,1.3171387-1.6006775,1.3171387h-74.5460205l4.0427856-20.4246826l1.4544067-7.3174438
		l45.4043884-229.0803833C384.6311035,323.2870483,408.0284424,328.3909607,437.9840393,330.0556641z"/>
	<path class="st8" d="M393.9142761,552.942627l-3.7774963,19.107605c-0.1464844,0.7682495-0.8233337,1.3171387-1.6006775,1.3171387
		h-177.072052c-0.7773438,0-1.4544067-0.5488892-1.6006775-1.3171387l-3.7777252-19.107605H393.9142761z"/>
	<path class="st10" d="M393.9142761,552.942627l-3.7774963,19.107605c-0.1464844,0.7682495-0.8233337,1.3171387-1.6006775,1.3171387
		h-74.5460205l4.0427856-20.4247437H393.9142761z"/>
	<circle class="st8" cx="224.1501007" cy="329.055481" r="28.354929"/>
	<circle class="st8" cx="274.5271912" cy="363.0223694" r="14.6348019"/>
	<path class="st11" d="M260.2211609,212.0066376c-18.5233307,15.4573059-40.5284729,26.676239-61.3438873,38.7603302
		c-1.1699066,0.679184-1.7753754,2.0291595-1.5130157,3.3562317l32.681778,165.313446
		c1.454422,7.2716675-3.2561798,14.3421326-10.5279236,15.7964478c-0.887207,0.1737976-1.7744141,0.2652283-2.6524658,0.2652283
		c-6.2656097,0-11.8633118-4.4086914-13.1438751-10.7931519c0,0-35.4368134-173.7669525-35.1651917-177.9202118
		c0.2567596-3.9258423,1.7874756-7.7187805,4.2156067-10.8027039c3.0993195-3.9364014,7.4883118-6.1372375,11.7529755-8.5717773
		c9.8379669-5.6161194,19.8122559-10.9939728,29.5494385-16.7859344
		c9.6920929-5.765152,19.1763611-11.9483337,27.8842163-19.1347504c0.1728973-0.1427002,0.3454742-0.2857666,0.5177307-0.429245
		c3.8965302-3.2379303,9.2198944-4.1526031,13.9304962-2.2866821
		C266.0386047,192.5971985,268.178894,205.3660736,260.2211609,212.0066376z"/>
	<circle class="st8" cx="250.7338867" cy="394.1923218" r="9.1848631"/>
	<circle class="st8" cx="281.9008484" cy="464.8518677" r="25.0899773"/>
	<circle class="st8" cx="335.2505493" cy="476.65271" r="12.9496651"/>
	<circle class="st8" cx="306.6332092" cy="505.8739929" r="8.127264"/>
	<path class="st11" d="M237.6960907,459.2739868l6.593811,34.2979736c1.395752,7.2769165-3.3701477,14.3115234-10.655777,15.710083
		c-6.7320404,1.2969666-13.2567139-2.691803-15.3092804-9.0552979c-0.078598-0.2436523-0.1485138-0.4902344-0.2097168-0.739624
		l-0.0140228-0.043457l-6.6184692-34.4631958c-1.3983459-7.2857056,3.3675385-14.3203125,10.6531677-15.7188721
		C229.1954193,447.9072266,236.0308533,452.3531189,237.6960907,459.2739868z"/>
	<g>
		<g>
			<path class="st12" d="M364.841095,25.584816l-7.8164063,43.3876801
				c0.0092468,5.7258224-1.8012695,10.9056778-4.7120972,14.5805511c-3.1694946,3.384613-7.6756897,5.5122223-12.6481018,5.5202713
				l-79.3004761,0.1283493c-9.5680847,0.01548-17.4053345-7.7964401-17.4208221-17.3645935l-7.8200226-47.6160011
				c-1.0948792-6.6666355,1.5999451-13.5088053,7.1882782-17.3052998c2.7739716-1.8845339,6.115097-2.9903088,9.7032013-2.9961162
				l95.723114-0.154928c2.4861145-0.0040238,4.8573914,0.5221612,7.0046997,1.4711182
				c4.1932983,1.8531346,7.2948608,5.5014253,8.8846741,9.8014736c0.6917419,1.8710489,1.1701355,3.9045267,1.3930969,6.0441885
				C365.1766357,22.5822678,365.1086121,24.0998344,364.841095,25.584816z"/>
			<path class="st13" d="M364.8493347,25.5391541l-7.824646,43.433342
				c0.0092468,5.7258224-1.8012695,10.9056778-4.7120972,14.5805511c-2.847168,3.0396729-6.7615967,5.0586548-11.1307068,5.4424667
				c-0.4950256,0.0546036-1.0007935,0.0769653-1.517395,0.0778046l-21.3534546,0.0345612
				c8.287384-0.0134125,15.0533142-9.0651779,15.0354614-20.0970612l8.1382141-45.1740189
				c-0.0178528-11.0318832-6.8130188-20.0509262-15.1004028-20.0375118l21.3534546-0.0345607
				c2.4861145-0.0040238,4.8574219,0.5221636,7.0047302,1.4711292c4.1934509,1.853219,7.295105,5.5017509,8.8848267,9.8020086
				c0.7557678,2.0442753,1.2567749,4.2824345,1.4483032,6.6411209
				C365.1802979,22.9683018,365.0786743,24.2660904,364.8493347,25.5391541z"/>
			<circle class="st13" cx="284.4173889" cy="56.8999329" r="11.4537773"/>
			<circle class="st13" cx="284.6602173" cy="18.7453194" r="6.4096565"/>
			<circle class="st13" cx="259.71698" cy="31.6126423" r="12.5406322"/>
			<circle class="st13" cx="323.3119202" cy="31.6126423" r="8.4812107"/>
		</g>
		<path class="st2" d="M390.0954895,68.9548035v43.6848984c0,5.8721924-5.0307007,10.6742401-11.1864624,10.6742401H221.0909576
			c-6.1557465,0-11.1864624-4.8020477-11.1864624-10.6742401V68.9548035c0-5.8722534,5.0307159-10.6742973,11.1864624-10.6742973
			h157.8180695C385.0647888,58.2805061,390.0954895,63.08255,390.0954895,68.9548035z"/>
		<path class="st1" d="M390.0954895,68.9548035v43.6848984c0,5.8721924-5.0307007,10.6742401-11.1864624,10.6742401H304.564209
			c-6.4575806,0-11.7261353-4.8020477-11.7261353-10.6742401V68.9548035c0-5.8722534,5.2685547-10.6742973,11.7261353-10.6742973
			h74.3448181C385.0647888,58.2805061,390.0954895,63.08255,390.0954895,68.9548035z"/>
	</g>
	<path class="st14" d="M349.8464661,151.0080261h-99.6904297c6.2928467-8.6254425,11.4242859-17.8818359,15.3757324-27.6597748
		h68.9389648C338.4221802,133.1353455,343.5625305,142.3825836,349.8464661,151.0080261z"/>
</g>
</svg>
