<?xml version="1.0" encoding="utf-8"?>
<!-- Generator: Adobe Illustrator 22.1.0, SVG Export Plug-In . SVG Version: 6.00 Build 0)  -->
<svg version="1.1" id="Layer_1" xmlns="http://www.w3.org/2000/svg" xmlns:xlink="http://www.w3.org/1999/xlink" x="0px" y="0px"
	 viewBox="0 0 600 600" style="enable-background:new 0 0 600 600;" xml:space="preserve">
<style type="text/css">
	.st0{fill:#F3F7DE;}
	.st1{fill:#9ED3D7;}
	.st2{fill:#AADCD9;}
	.st3{fill:#FFDD9D;}
	.st4{fill:#FFC98F;}
	.st5{fill:#DDEEDB;}
	.st6{fill:#C4E5DC;}
	.st7{fill:#F487AE;}
	.st8{fill:#EA6E95;}
	.st9{fill:#ED759D;}
	.st10{fill:#DD5E8E;}
	.st11{fill:#FF99C3;}
	.st12{fill:#FFBDDB;}
	.st13{fill:#E7EAD0;}
	.st14{fill:#81C6CB;}
</style>
<g>
	<rect x="234.0202789" y="106.5758972" class="st0" width="131.976059" height="93.987236"/>
	<path class="st0" d="M554.2182617,303.850708c0,42.5274658-18.0384521,83.3358154-49.4898071,111.9772949l-0.2993469,0.2607422
		c0,0-110.1811829,110.1812744-140.8600464,140.8502197c-2.8969727,2.8969727-0.8401184,7.8412476,3.2542419,7.8412476h3.6212158
		c8.0342407,0,14.5427551,6.5082397,14.5427551,14.5428467v13.84729c0,2.9837646-2.4141541,5.4077759-5.4076538,5.4077759
		h-159.130249c-2.993515,0-5.4173126-2.4240112-5.4173126-5.4077759v-13.8378906
		c0-8.0340576,6.5181732-14.5522461,14.5524292-14.5522461h3.8336182c4.0074921,0,6.0160675-4.8381958,3.1867065-7.6672363
		c-30.4374542-30.4280396-141.033905-141.024231-141.033905-141.024231l-0.2993546-0.2607422
		c-31.4513168-28.6414795-49.4897957-69.4498291-49.4897957-111.9772949c0-83.4810181,67.9241638-151.405014,151.4243011-151.405014
		c12.5052338,0,24.8366699,1.5352478,36.7528076,4.5001068c0.0193329,0.0094299,0.0386658,0.0094299,0.0579987,0.0188599
		c9.9654999,2.4914551,19.6510468,5.9966736,28.8923798,10.4581146
		c13.1907959,6.3639832,25.4836426,14.6587982,36.501709,24.7496033c0.1448975,0.1259003,0.2800293,0.2612305,0.4248962,0.3866425
		L300,192.7132111l0.1834717-0.1735229c18.8110046-17.362442,41.4266052-29.4911194,65.8093872-35.5750275
		c11.9258118-2.9837189,24.2765808-4.5189667,36.8010864-4.5189667
		C486.2941284,152.445694,554.2182617,220.3696899,554.2182617,303.850708z"/>
	<path class="st1" d="M530.0706787,303.8495178c0,4.4034424-0.2317505,8.7875366-0.6856079,13.1329956
		c-0.6469727,6.2091064-1.7478638,12.3408508-3.2928467,18.3474426c-0.2510986,0.9944153-0.5214844,1.9794006-0.7918701,2.964386
		c-1.0911865,3.8722839-2.3562012,7.6865845-3.8046875,11.4237671c-4.1040039,10.6221924-9.627533,20.6842346-16.4354553,29.8772888
		c-4.4709778,6.0546875-9.5020142,11.732605-15.0448608,16.9475403c-0.5118103,0.4828186-1.0235901,0.9557495-1.5450745,1.4286804
		l-0.6372986,0.5700378L339.4697876,546.9049683c-10.4966736,10.4963379-24.4504089,16.2808228-39.3021545,16.2808228h-0.3379822
		c-14.8517456,0-28.815155-5.7844849-39.3117981-16.2808228L112.1546555,398.5416565l-0.6373062-0.5700378
		c-3.6888046-3.3505554-7.1458664-6.9041138-10.3807831-10.6316528
		c-10.9505539-12.6114807-19.2648239-27.2217407-24.5565948-42.9136353
		c-1.3326035-3.9786072-2.4817352-8.0149841-3.4280624-12.118988c-0.1738052-0.7629089-0.3380127-1.5255737-0.5021591-2.2884827
		c-0.4634933-2.1826477-0.8594437-4.3841248-1.2070694-6.6051636c-1.0139236-6.4311829-1.5257492-12.978363-1.5257492-19.5641785
		c0-11.336792,1.4871445-22.3260498,4.2778473-32.7839355c1.844429-6.8948975,4.2489014-13.5578308,7.1651993-19.9409027
		c20.0856018-43.9372864,64.4574356-74.5388184,115.8398819-74.5388184c14.745575,0,29.1917877,2.5301208,42.7785492,7.3871613
		c0.9559937-8.5169067,9.5502777-15.1703949,20.0083466-15.1703949c1.0042419,0,1.9989014,0.0579987,2.9645691,0.1834106v-62.410141
		h74.0367126v62.410141c0.9753113-0.125412,1.9699707-0.1834106,2.9838867-0.1834106
		c10.4580078,0,19.0523682,6.6631622,20.0083313,15.1802979c13.5964355-4.8575134,28.0522766-7.3970642,42.8074951-7.3970642
		c47.8288574,0,89.5838013,26.5071716,111.3302917,65.6065063v0.0096741
		c3.5632935,6.4024048,6.5857544,13.1426544,9.0095825,20.1533356
		C527.6275635,275.3627014,530.0706787,289.3260193,530.0706787,303.8495178z"/>
	<path class="st1" d="M530.0778809,303.850708c0,4.4034424-0.2317505,8.7870789-0.6856689,13.1325378
		c-0.6469727,6.2093201-1.7478027,12.3413391-3.2928467,18.3474426c-0.2510986,0.994873-0.5214233,1.9798584-0.7918091,2.9648438
		c-1.0912476,3.8720703-2.3562012,7.6865845-3.8046875,11.4237671
		c-4.1040649,10.6222229-9.6275635,20.6842651-16.4354858,29.8773193c-4.4709167,6.054657-9.5020142,11.732605-15.0448608,16.947052
		c-0.5118103,0.4828186-1.0235901,0.9562073-1.5450745,1.4291382l-0.6372986,0.5700684L339.4769592,546.9057007
		c-10.4966736,10.4967651-24.4503784,16.28125-39.3021545,16.28125h-0.3379517
		c-14.8517761,0-28.815155-5.7844849-39.3118286-16.28125L124.7250137,411.1058044l-12.563118-12.5629272l-0.6373672-0.5700684
		c-3.6888046-3.3505554-7.1458054-6.9043274-10.3807831-10.6316223
		c-10.9504929-12.6115112-19.2648239-27.2217407-24.5565948-42.9136353
		c-1.3326035-3.9786072-2.4817352-8.0152283-3.4280624-12.1192627c-0.1738052-0.7629089-0.3380127-1.5257874-0.5021591-2.2886963
		c-0.4634933-2.1821594-0.8594437-4.3836365-1.2070618-6.60495c-1.0139313-6.4313965-1.5257568-12.9783325-1.5257568-19.5639343
		c0-11.3370056,1.4871521-22.3260498,4.2779083-32.7841492c1.844368-6.8948975,4.2488403-13.5578308,7.1651382-19.9406738
		c20.0856018-43.9372864,64.4574432-74.5388184,115.8398895-74.5388184c32.0597382,0,62.6999969,11.9740143,86.2522736,33.7111511
		l16.5416565,15.2378235l16.541687-15.2378235c23.5523376-21.7371368,54.1925354-33.7111511,86.2522583-33.7111511
		c47.8289185,0,89.5838013,26.5069275,111.3303223,65.6065063v0.0094299
		c3.5632324,6.4026489,6.5857544,13.1428986,9.0095825,20.1533203
		C527.6347656,275.3639221,530.0778809,289.32724,530.0778809,303.850708z"/>
	<path class="st2" d="M299.8369141,548.7016602c-10.9824524,0-21.3061829-4.2756348-29.0700684-12.0385742L122.1163788,388.0126038
		l-0.8892746-0.7949524c-23.4001465-21.3302307-36.8179398-51.7115784-36.8179398-83.3669434
		c0-62.1866302,50.6006775-112.7788239,112.797699-112.7788239c28.4141998,0,55.5572052,10.6080475,76.4286346,29.8711548
		l26.3654785,24.2865906l26.3551331-24.2780914c20.8818054-19.2716064,48.0248108-29.8796539,76.4389954-29.8796539
		c62.1970215,0,112.7977295,50.5921936,112.7977295,112.7788239c0,31.655365-13.4178162,62.0367126-36.8179626,83.3669434
		l-0.8892822,0.7949524L329.2346802,536.6640015c-7.7634277,7.7620239-18.0871582,12.0376587-29.0696106,12.0376587H299.8369141z"/>
	<path class="st2" d="M299.8218079,548.7016602c-10.9824219,0-21.3061523-4.2756348-29.0700684-12.0385742L122.1012878,388.0126038
		l-0.889267-0.7949524c-23.4001541-21.3302307-36.8179398-51.7115784-36.8179398-83.3669434
		c0-62.1866302,50.6006851-112.7788239,112.7977066-112.7788239c28.4141846,0,55.5571899,10.6080475,76.4286346,29.8711548
		l26.3654785,24.2865906l26.3551025-24.2780914c20.8818054-19.2716064,48.0248108-29.8796539,76.4390259-29.8796539
		c62.1970215,0,112.7976685,50.5921936,112.7976685,112.7788239c0,31.655365-13.4177551,62.0367126-36.8179016,83.3669434
		l-0.8892822,0.7949524L329.219574,536.6640015c-7.7634277,7.7620239-18.0871582,12.0376587-29.0695801,12.0376587H299.8218079z"/>
	<g>
		<path class="st3" d="M368.5190125,24.4581299l-8.2520447,45.8058929
			c0.0097656,6.0449524-1.9016724,11.5135117-4.9747314,15.3932037c-3.3461609,3.5732574-8.1034851,5.8194427-13.3530579,5.8279419
			l-83.7202759,0.135498c-10.1013641,0.0163498-18.3754272-8.2309723-18.3917847-18.3324051l-8.2558746-50.2698822
			c-1.155899-7.0382004,1.6891327-14.2617197,7.588913-18.2698135c2.9285889-1.9895685,6.4559326-3.1569734,10.2440186-3.1631045
			l101.0582581-0.163563c2.6246643-0.004248,5.1281128,0.5512639,7.3951111,1.5531112
			c4.427002,1.956419,7.7014465,5.8080468,9.3798523,10.3477592c0.7303162,1.9753323,1.2353516,4.1221466,1.4707642,6.3810616
			C368.8732605,21.2882347,368.8014526,22.8903828,368.5190125,24.4581299z"/>
		<path class="st4" d="M368.52771,24.4099236l-8.2607422,45.8540993c0.0097656,6.0449524-1.9016724,11.5135117-4.9747314,15.3932037
			c-3.0058594,3.2090912-7.1384583,5.3405991-11.7510681,5.7458038c-0.5226135,0.0576401-1.0565796,0.0812531-1.6019897,0.0821381
			l-22.5435791,0.0364838c8.7492676-0.0141602,15.8923035-9.5704269,15.8734436-21.2171707l8.5918274-47.6917877
			c-0.0188599-11.6467476-7.192749-21.1684666-15.9420166-21.1543064l22.5435791-0.0364869
			c2.6246948-0.004248,5.1281433,0.5512667,7.3951416,1.5531226c4.4271545,1.9565086,7.7016907,5.8083911,9.3800354,10.3483238
			c0.7978516,2.1582136,1.3268127,4.5211153,1.5289917,7.0112638
			C368.8771362,21.6957855,368.7698364,23.0659046,368.52771,24.4099236z"/>
		<circle class="st4" cx="283.6128845" cy="57.5186005" r="12.0921545"/>
		<circle class="st4" cx="283.8692627" cy="17.2374344" r="6.7668991"/>
		<circle class="st4" cx="257.5357971" cy="30.8219166" r="13.2395849"/>
		<circle class="st4" cx="324.6752014" cy="30.8219166" r="8.9539118"/>
	</g>
	<path class="st0" d="M390.9389954,69.5605316v29.124115c0,6.1995468-5.0697021,11.2692337-11.269165,11.2692337H220.6651001
		c-6.1994934,0-11.2691803-5.0696869-11.2691803-11.2692337v-29.124115c0-6.1994896,5.0696869-11.2691765,11.2691803-11.2691765
		h159.0047302C385.8692932,58.2913551,390.9389954,63.361042,390.9389954,69.5605316z"/>
	<path class="st5" d="M390.9389954,69.5605316v29.124115c0,6.1995468-5.0697021,11.2692337-11.269165,11.2692337h-69.8361511
		c-6.1994934,0-11.2788391-5.0696869-11.2788391-11.2692337v-29.124115c0-6.1994896,5.0793457-11.2691765,11.2788391-11.2691765
		h69.8361511C385.8692932,58.2913551,390.9389954,63.361042,390.9389954,69.5605316z"/>
	<circle class="st0" cx="353.7758789" cy="168.4154205" r="16.755024"/>
	<path class="st0" d="M262.9391479,168.4176636c0,9.2604675-7.5030823,16.7636261-16.7637329,16.7636261
		c-4.7896729,0-9.1061249-2.0086365-12.1575623-5.2243347c-2.8583527-3.0124969-4.6061859-7.0684204-4.6061859-11.5392914
		c0-4.4421082,1.7285004-8.478714,4.5481873-11.4718628c0.0193329,0.0094299,0.0386658,0.0094299,0.0579987,0.0188599v-0.0768585
		c3.0514374-3.2157135,7.3678894-5.22435,12.1575623-5.22435c8.9226379,0,16.2133179,6.9722443,16.7348022,15.7593231
		C262.9295044,167.7514191,262.9391479,168.0795898,262.9391479,168.4176636z"/>
	<path class="st6" d="M444.8491821,317.0704651c0,16.831543-7.1362,32.9963379-19.5834351,44.342804l-0.473175,0.4248352
		L315.4707947,471.1598206c-4.1330261,4.1233521-9.6179504,6.4021606-15.460144,6.4021606h-0.1737976
		c-5.8421936,0-11.336792-2.2788086-15.4698181-6.4021606l-79.2319489-79.231781l-12.1479492-12.1480103l-17.7680054-17.7679443
		l-0.4731598-0.4248352c-12.4473114-11.3464355-19.5835114-27.5117188-19.5835114-44.3526917
		c0-4.9730225,0.6083679-9.8111877,1.7575073-14.4367371c6.4795532-26.1306458,30.138092-45.5498352,58.2386169-45.5498352
		c15.1221313,0,29.5586853,5.63974,40.6637115,15.8851929l44.1014709,42.9909668l44.2655945-43.1550293
		c11.105011-10.2553711,25.5415649-15.8946533,40.6636963-15.8946533c26.1789551,0,48.4952087,16.8504028,56.6646118,40.2774048
		c1.6126709,4.6156311,2.6748657,9.4731445,3.109436,14.5234985
		C444.7719727,313.5845947,444.8491821,315.3225708,444.8491821,317.0704651z"/>
	<path class="st6" d="M444.8878479,317.0704651c0,16.831543-7.1362,32.9963379-19.5834961,44.342804l-0.473175,0.4248352
		L315.5093994,471.1598206c-4.1329651,4.1233521-9.6178894,6.4021606-15.460144,6.4021606h-0.1737976
		c-5.8421936,0-11.336792-2.2788086-15.4697571-6.4021606l-79.2416077-79.2416992
		c39.6883698-9.2411194,68.4069214-23.7353821,95.0300293-37.8632507
		c5.5332031-2.9356384,10.9698181-5.8519287,16.3968201-8.7102356
		c34.329071-18.0286865,68.2331848-33.4310913,121.8366699-33.5272522c2.1147766,0,4.2005615,0.0193176,6.2380981,0.0579834
		C444.8105774,313.5845947,444.8878479,315.3225708,444.8878479,317.0704651z"/>
	<path class="st7" d="M529.3922119,316.9832458c-0.6469727,6.2093201-1.7478027,12.3413391-3.2928467,18.3474426
		c-0.2510986,0.994873-0.5214233,1.9798584-0.7918091,2.9648438c-1.0912476,3.8720703-2.3562012,7.6865845-3.8046875,11.4237671
		c-4.1040649,10.6222229-9.6275635,20.6842651-16.4354858,29.8773193c-4.4709167,6.054657-9.5020142,11.732605-15.0448608,16.947052
		c-0.5118103,0.4828186-1.0235901,0.9562073-1.5450745,1.4291382l-0.6372986,0.5700684L339.4769592,546.9057007
		c-10.4966736,10.4967651-24.4503784,16.28125-39.3021545,16.28125h-0.3379517
		c-14.8517761,0-28.815155-5.7844849-39.3118286-16.28125L124.7250137,411.1058044l-12.563118-12.5629272l-0.6373672-0.5700684
		c-3.6888046-3.3505554-7.1458054-6.9043274-10.3807831-10.6316223l14.0889282-0.1065674
		c85.8949203-0.6756897,131.5028381-21.2151794,178.1536255-45.9747009
		c2.1340332-1.1297302,4.2488403-2.2594604,6.3540039-3.3797913c3.3797913-1.7959595,6.7305908-3.5825195,10.0814514-5.349762
		c35.2173767-18.4921875,71.5356445-35.0917358,128.5671997-35.1978149h0.5214844
		C476.2136841,297.33255,505.8882446,303.7733765,529.3922119,316.9832458z"/>
	<path class="st8" d="M115.3424759,401.7194214l145.1862183,145.1862793
		c10.4966431,10.4967651,24.4600525,16.28125,39.3117676,16.28125h0.3283386c14.8517761,0,28.815155-5.7844849,39.3118286-16.28125
		l135.7999878-135.7998962l12.5631409-12.5629272l0.6373596-0.5700684
		c16.1457214-14.696991,28.0812683-33.2085266,34.9373474-53.5452576c1.3326416-3.9786072,2.4817505-8.0152283,3.4281006-12.1192627
		c-18.9075623-11.9065857-45.6947937-20.5588074-88.4346924-20.4909058
		c-53.6034241,0.0961609-87.5075989,15.4985657-121.8366089,33.5272522
		c-5.4269714,2.8583069-10.8636169,5.7745972-16.3967896,8.7102356
		C256.8495483,377.0471497,207.9777679,400.9952087,115.3424759,401.7194214z"/>
	<path class="st9" d="M529.3922119,316.9832458c-0.6469727,6.2093201-1.7478027,12.3413391-3.2928467,18.3474426
		c-0.2510986,0.994873-0.5214233,1.9798584-0.7918091,2.9648438c-1.0912476,3.8720703-2.3562012,7.6865845-3.8046875,11.4237671
		c-4.1040649,10.6222229-9.6275635,20.6842651-16.4354858,29.8773193c-4.4709167,6.054657-9.5020142,11.732605-15.0448608,16.947052
		c-0.5118103,0.4828186-1.0235901,0.9562073-1.5450745,1.4291382l-0.6372986,0.5700684L339.4769592,546.9057007
		c-10.4966736,10.4967651-24.4503784,16.28125-39.3021545,16.28125h-0.3379517
		c-14.8517761,0-28.815155-5.7844849-39.3118286-16.28125L124.7250137,411.1058044l-12.563118-12.5629272l-0.6373672-0.5700684
		c-3.6888046-3.3505554-7.1458054-6.9043274-10.3807831-10.6316223l14.0889282-0.1065674
		c1.9892426-0.0188599,3.9591599-0.038208,5.9097977-0.0867615c0.0192719,0.0292358,0.0482712,0.0485535,0.0676041,0.0679016
		l0.888382,0.8010864l13.1715469,13.1716614c79.9368591-3.7466125,124.7915192-25.8505859,164.9048004-47.1336365
		c5.5332336-2.9356384,10.9698792-5.8519287,16.3968506-8.7102356
		c34.32901-18.0286865,68.2331238-33.4310913,121.8366394-33.5272522
		c33.5854187-0.0580139,57.321228,5.2818604,75.1182556,13.3451538c0.9559937-4.9150085,1.5836792-9.9073792,1.8637085-14.9483032
		C520.2861328,312.2322998,524.9502563,314.4823608,529.3922119,316.9832458z"/>
	<path class="st10" d="M526.8429565,332.3082886c-0.9464111,4.1040344-2.09552,8.1406555-3.4281006,12.1192627
		c-6.8561401,20.336731-18.791626,38.8482666-34.9374084,53.5452576l-0.6372986,0.5700684L339.4769592,546.9057007
		c-10.4966736,10.4967651-24.4600525,16.28125-39.3117676,16.28125h-0.3283386
		c-14.8517761,0-28.815155-5.7844849-39.3118286-16.28125L115.3388748,401.7194214
		c6.8754578-0.0480652,13.5191727-0.2315063,19.9311295-0.5309143l135.4813385,135.4717102
		c7.7638245,7.763916,18.0866699,12.0419312,29.0661621,12.0419312h0.3283691
		c10.9891357,0,21.3119812-4.2780151,29.0758362-12.0419312l148.6528625-148.6433716l0.8883972-0.8010864
		c18.0770874-16.4840393,30.1960449-38.3560181,34.7635803-62.0532227
		C518.3837891,327.3546143,522.796875,329.7593079,526.8429565,332.3082886z"/>
	<path class="st11" d="M444.8491821,317.0704651c0,16.831543-7.1362,32.9963379-19.5834351,44.342804l-0.473175,0.4248352
		L315.4707947,471.1598206c-4.1330261,4.1233521-9.6179504,6.4021606-15.460144,6.4021606h-0.1737976
		c-5.8421936,0-11.336792-2.2788086-15.4698181-6.4021606l-79.2319489-79.231781l-12.1479492-12.1480103
		c0.0096741-0.0094299,0.0193329-0.0094299,0.029007-0.0094299c40.4802246-8.2467346,70.2223816-22.5000305,100.3894653-38.5106812
		c2.1340637-1.1297302,4.2488403-2.2594604,6.3539734-3.3797913c3.3797913-1.7959595,6.7306519-3.5825195,10.0814209-5.349762
		c35.2174683-18.4921875,71.5357056-35.0917358,128.5672913-35.1978149h0.5214233c0.8691101,0,1.7285461,0,2.5879517,0.0193176
		c1.6126709,4.6156311,2.6748657,9.4731445,3.109436,14.5234985
		C444.7719727,313.5845947,444.8491821,315.3225708,444.8491821,317.0704651z"/>
	<path class="st7" d="M444.6271057,311.8753662c0.1448669,1.7092285,0.2220764,3.4472046,0.2220764,5.1950989
		c0,16.831543-7.1362,32.9963379-19.5834351,44.342804l-0.473175,0.4248352L315.4707947,471.1598206
		c-4.1330261,4.1233521-9.6179504,6.4021606-15.460144,6.4021606h-0.1737976c-5.8421936,0-11.336792-2.2788086-15.4698181-6.4021606
		l-79.2319489-79.231781c0.0096741-0.0099182,0.0193329-0.0099182,0.029007-0.0099182
		c39.6883698-9.2411194,68.4069214-23.7353821,95.0300293-37.8632507
		c5.5332031-2.9356384,10.9698181-5.8519287,16.3968201-8.7102356
		c34.329071-18.0286865,68.2331848-33.4310913,121.8366699-33.5272522
		C440.5327454,311.8173828,442.5992432,311.8367004,444.6271057,311.8753662z"/>
	<path class="st11" d="M505.0673828,379.5966187c-4.4709167,6.054657-9.5020142,11.732605-15.0448608,16.947052
		c-0.5118103,0.4828186-1.0235901,0.9562073-1.5450745,1.4291382l-0.6372986,0.5700684L339.4769592,546.9057007
		c-10.4966736,10.4967651-24.4503784,16.28125-39.3021545,16.28125h-0.3379517
		c-14.8517761,0-28.815155-5.7844849-39.3118286-16.28125L124.7250137,411.1058044l-12.563118-12.5629272l-0.6373672-0.5700684
		c-16.1457138-14.696991-28.0812531-33.2085266-34.9373779-53.5452576
		c-1.3326035-3.9786072-2.4817352-8.0152283-3.4280624-12.1192627c-0.1738052-0.7629089-0.3380127-1.5257874-0.5021591-2.2886963
		c-0.4634933-2.1821594-0.8594437-4.3836365-1.2070618-6.60495c24.8559341-13.9246521,56.2687073-20.7229004,95.8412247-20.8002319
		h0.5118103c60.9424591,0,99.0664825,17.4977722,139.131485,38.6261902l3.881958,2.0473022
		c35.4395142,18.7241821,89.004364,47.0176697,138.5231628,47.0176697
		C481.1819458,390.3055725,488.4581909,383.9128113,505.0673828,379.5966187z"/>
	<path class="st7" d="M74.6981049,338.2955322c1.0911942,3.8720703,2.3562012,7.6865845,3.8046799,11.4237671
		c7.0589371,18.2507935,18.2894974,34.8409119,33.0253983,48.2535095l0.6373062,0.5700684l148.3631897,148.3628235
		c10.4966431,10.4967651,24.4600525,16.28125,39.3117676,16.28125h0.3283386c14.8517761,0,28.815155-5.7844849,39.3118286-16.28125
		l148.0873413-148.0539856c-64.4574585,21.7272339-142.988739-21.3891602-187.3894958-44.7968445
		c-37.6219482-19.8440247-74.2588806-37.0518188-132.8644562-36.9556274
		C123.0001678,317.1765747,94.7547684,326.0027771,74.6981049,338.2955322z"/>
	<path class="st7" d="M487.5118103,398.8710327l-12.2348328,12.2347717L339.4769592,546.9057007
		c-10.4966736,10.4967651-24.4600525,16.28125-39.3117676,16.28125h-0.3283386
		c-14.8517761,0-28.815155-5.7844849-39.3118286-16.28125L115.3388748,401.7194214l-3.1769791-3.1765442l-0.6373672-0.5700684
		c-0.5021591-0.4535828-1.0042572-0.9170837-1.4967499-1.3904724c-0.5021591-0.463501-0.9946518-0.9364319-1.477478-1.4098206
		c-1.6029663-1.5545959-3.1576538-3.1478271-4.6640701-4.7797241c-0.1255417-0.125885-0.2510834-0.2612-0.3669586-0.3960571
		c-0.2800751-0.299408-0.5600967-0.6082458-0.8401108-0.917572c-0.1062698-0.1159973-0.2124786-0.2315063-0.309021-0.3475037
		c-0.4152222-0.463501-0.8208389-0.9269714-1.2263947-1.3904724l14.0889282-0.1065674
		c30.3505173-0.2414246,55.6699448-2.9544983,77.7737961-7.4640198c36.4727936-7.43573,64.2160339-19.7384033,91.4281616-33.8177185
		c5.272522,2.6268005,10.4966736,5.340332,15.7401733,8.1019897c23.3688354,12.321991,56.1817627,30.0899353,91.4281616,41.0016479
		C423.315094,404.8776245,456.9874573,409.1358337,487.5118103,398.8710327z"/>
	<path class="st7" d="M521.3483887,350.0955811c0.1447754-0.3475037,0.2703247-0.6950073,0.4055176-1.042511
		c-0.0772705,0.2220764-0.1641235,0.4441528-0.2510376,0.6662292
		C521.4545898,349.8447266,521.406311,349.9701538,521.3483887,350.0955811z"/>
	<path class="st7" d="M525.2689209,338.4115295c0.2221069-0.7629089,0.4248657-1.5258179,0.6276245-2.2886963
		c-0.1930542,0.7242432-0.3862305,1.4484558-0.5889893,2.172699
		C525.2978516,338.334198,525.288208,338.3728638,525.2689209,338.4115295z"/>
	<path class="st8" d="M487.5118103,398.8710327l-12.2348328,12.2347717L339.4769592,546.9057007
		c-10.4966736,10.4967651-24.4600525,16.28125-39.3117676,16.28125h-0.3283386
		c-14.8517761,0-28.815155-5.7844849-39.3118286-16.28125L115.3388748,401.7194214
		c35.7195511-0.2796021,64.9306107-4.0073547,89.8155441-9.8013c39.6787262-9.2505493,68.3972778-23.7353821,95.0203857-37.8632507
		c23.3688354,12.321991,56.1817627,30.0899353,91.4281616,41.0016479
		C423.315094,404.8776245,456.9874573,409.1358337,487.5118103,398.8710327z"/>
	<path class="st7" d="M505.0673828,379.5966187c-4.4709167,6.054657-9.5020142,11.732605-15.0448608,16.947052
		c-0.5118103,0.4828186-1.0235901,0.9562073-1.5450745,1.4291382l-0.6372986,0.5700684L339.4769592,546.9057007
		c-10.4966736,10.4967651-24.4503784,16.28125-39.3021545,16.28125h-0.3379517
		c-14.8517761,0-28.815155-5.7844849-39.3118286-16.28125L124.7250137,411.1058044l-12.563118-12.5629272l-0.6373672-0.5700684
		c-16.1457138-14.696991-28.0812531-33.2085266-34.9373779-53.5452576
		c-1.3326035-3.9786072-2.4817352-8.0152283-3.4280624-12.1192627c-0.1738052-0.7629089-0.3380127-1.5257874-0.5021591-2.2886963
		c-0.4634933-2.1821594-0.8594437-4.3836365-1.2070618-6.60495c4.3551102-2.4428711,8.9226379-4.6641846,13.6929703-6.6629028
		c0.5600967,4.9442444,1.4581528,9.8206177,2.674881,14.6102295c16.6864853-7.5418091,38.2206268-12.8236694,67.3737488-14.0114136
		c3.9012146-0.1546631,7.9376526-0.2414246,12.1189423-0.2513123c50.4361267-0.0867615,84.6009979,12.650177,117.1242218,28.8536377
		c5.272522,2.6268005,10.4966736,5.340332,15.7401733,8.1019897c23.3688354,12.321991,56.1817627,30.0899353,91.4281616,41.0016479
		c22.9729614,7.1169739,46.9694519,11.3077698,70.048645,9.1737061l16.2133179-16.2133789l0.3283386-0.299408
		C488.6126709,385.467865,495.1887512,382.164917,505.0673828,379.5966187z"/>
	<path class="st7" d="M487.5697327,398.8517151L339.4769592,546.9057007
		c-10.4966736,10.4967651-24.4600525,16.28125-39.3117676,16.28125h-0.3283386
		c-14.8517761,0-28.815155-5.7844849-39.3118286-16.28125L115.3388748,401.7194214l-3.1769791-3.1765442l-0.6373672-0.5700684
		c-0.5021591-0.4535828-1.0042572-0.9170837-1.4967499-1.3904724c-0.5021591-0.463501-0.9946518-0.9364319-1.477478-1.4098206
		c-1.6029663-1.5545959-3.1576538-3.1478271-4.6640701-4.7797241c-0.1255417-0.125885-0.2510834-0.2612-0.3669586-0.3960571
		c-0.2800751-0.299408-0.5600967-0.6082458-0.8401108-0.917572c-0.1062698-0.1159973-0.2124786-0.2315063-0.309021-0.3475037
		c-0.4152222-0.463501-0.8208389-0.9269714-1.2263947-1.3904724c-9.7048187-11.182373-17.3527908-23.9291992-22.6446152-37.6218872
		c-1.4484787-3.7371826-2.7134857-7.5516968-3.8046799-11.4237671
		c18.1639633-11.1342468,43.0488968-19.4191589,80.4970169-20.9449768
		c3.9012146-0.1546631,7.9376526-0.2414246,12.1189423-0.2513123c50.4361267-0.0867615,84.6009979,12.650177,117.1242218,28.8536377
		c5.272522,2.6268005,10.4966736,5.340332,15.7401733,8.1019897c23.3688354,12.321991,56.1817627,30.0899353,91.4281616,41.0016479
		c31.7121277,9.821106,65.384491,14.0793152,95.908844,3.8145142
		C487.5311279,398.861145,487.5504456,398.861145,487.5697327,398.8517151z"/>
	<path class="st9" d="M487.5697327,398.8517151L339.4769592,546.9057007
		c-10.4966736,10.4967651-24.4600525,16.28125-39.3117676,16.28125h-0.3283386
		c-14.8517761,0-28.815155-5.7844849-39.3118286-16.28125L115.3388748,401.7194214l-3.1769791-3.1765442l-0.6373672-0.5700684
		c-0.5021591-0.4535828-1.0042572-0.9170837-1.4967499-1.3904724c-0.5021591-0.463501-0.9946518-0.9364319-1.477478-1.4098206
		c-1.6029663-1.5545959-3.1576538-3.1478271-4.6640701-4.7797241c-0.1255417-0.125885-0.2510834-0.2612-0.3669586-0.3960571
		c-0.2800751-0.299408-0.5600967-0.6082458-0.8401108-0.917572c-0.1062698-0.1159973-0.2124786-0.2315063-0.309021-0.3475037
		c-0.4152222-0.463501-0.8208389-0.9269714-1.2263947-1.3904724c-9.7048187-11.182373-17.3527908-23.9291992-22.6446152-37.6218872
		c-1.4484787-3.7371826-2.7134857-7.5516968-3.8046799-11.4237671c4.026825-2.4721069,8.3722687-4.7994995,13.1232681-6.9335632
		c5.3690414,21.3023987,16.8989563,40.8182373,33.3923569,55.8537903l0.888382,0.8010864l148.643219,148.6433716
		c7.763855,7.763916,18.096344,12.0419312,29.0758362,12.0419312h0.3283691
		c10.9794617,0,21.3023376-4.2780151,29.0661621-12.0419312l132.4395752-132.4299927
		c8.7874146-0.8010864,17.4396973-2.5296631,25.860199-5.3591919
		C487.5311279,398.861145,487.5504456,398.861145,487.5697327,398.8517151z"/>
	<path class="st8" d="M525.9352417,335.9587402c0.1738281-0.6469116,0.3475952-1.2943115,0.4924927-1.9506531
		c-0.1062622,0.4441833-0.2124634,0.8883362-0.3283691,1.3226013
		C526.0414429,335.533905,525.9931641,335.7460938,525.9352417,335.9587402z"/>
	<path class="st8" d="M526.8429565,332.3082886c-0.0483398,0.2220764-0.1062622,0.4441833-0.1641846,0.6568298
		c0.0579224-0.2220764,0.1062622-0.4441833,0.15448-0.6662598
		C526.833252,332.3082886,526.8429565,332.3082886,526.8429565,332.3082886z"/>
	<path class="st12" d="M403.2294922,383.4012451l-87.7586975,87.7585754
		c-4.1330261,4.1233521-9.6179504,6.4021606-15.460144,6.4021606h-0.1737976c-5.8421936,0-11.336792-2.2788086-15.4698181-6.4021606
		L175.2191315,362.012085l-0.4731598-0.4248352c-12.4473114-11.3464355-19.5835114-27.5117188-19.5835114-44.3526917
		c0-4.9730225,0.6083679-9.8111877,1.7575073-14.4367371h0.0289307c3.3797913-0.115509,6.8271942-0.1734924,10.3421936-0.1834106
		h0.5118103c57.4757233,0,94.6534271,15.5664673,132.3139496,35.0629883
		c2.2693481,1.168396,4.5386047,2.3660278,6.8175354,3.5632019l3.881958,2.0473022
		c1.5740051,0.8303223,3.1769714,1.6804504,4.8186035,2.549469
		C339.6411133,358.4875183,370.8510742,374.449585,403.2294922,383.4012451z"/>
	<path class="st11" d="M391.6029663,395.0565186l-76.103241,76.103302c-4.123291,4.1233521-9.6178589,6.4021606-15.460083,6.4021606
		h-0.1738586c-5.8421936,0-11.3367615-2.2788086-15.4697571-6.4021606l-7.9763184-7.9761047l-72.7620392-72.762146
		l-28.4096069-28.4094849l-0.4731598-0.4248352c-1.8443756-1.680481-3.5825958-3.4764404-5.1758881-5.3596802
		c-9.212326-10.7669373-14.3786163-24.5756226-14.407547-38.8770142c3.9012146-0.1546631,7.9376526-0.2414246,12.1189423-0.2513123
		c50.4361267-0.0867615,84.6009979,12.650177,117.1242218,28.8536377c5.272522,2.6268005,10.4966736,5.340332,15.7401733,8.1019897
		C323.5436401,366.3768616,356.3565674,384.1448059,391.6029663,395.0565186z"/>
	<circle class="st8" cx="186.2018433" cy="373.7446899" r="24.1413651"/>
	<circle class="st8" cx="197.468399" cy="426.3218994" r="11.8292694"/>
	<circle class="st7" cx="233.2026825" cy="390.3599854" r="7.4838233"/>
	<path class="st7" d="M203.6576691,390.4215698l-28.4096069-28.4094849l-0.4731598-0.4248352
		c-1.8443756-1.680481-3.5825958-3.4764404-5.1758881-5.3596802c9.4537354-8.9803772,24.4021149-8.8262024,33.6723633,0.4441833
		C212.5706482,365.9807739,212.6961823,380.9677734,203.6576691,390.4215698z"/>
	<circle class="st8" cx="197.468399" cy="426.3218994" r="11.8292694"/>
	<circle class="st8" cx="346.1915283" cy="440.4553833" r="17.0495892"/>
	<path class="st7" d="M358.2613831,428.3982849l-24.1124268,24.1126099
		c-4.65448-4.635437-6.3926392-11.7524109-3.8626099-18.2606812c3.418457-8.7776489,13.2970581-13.1231079,22.0748291-9.7145386
		C354.6498413,425.4239807,356.629425,426.7564697,358.2613831,428.3982849z"/>
	<circle class="st8" cx="300.1619873" cy="476.7127991" r="27.2343311"/>
	<path class="st7" d="M323.6209106,463.0385132l-8.1211853,8.1213074c-4.123291,4.1233521-9.6178589,6.4021606-15.460083,6.4021606
		h-0.1738586c-5.8421936,0-11.3367615-2.2788086-15.4697571-6.4021606l-7.9763184-7.9761047
		c6.5761108-11.5298462,20.7712402-16.8027649,33.5082397-11.85849
		C315.9246216,453.6526184,320.6177368,457.8726196,323.6209106,463.0385132z"/>
	<circle class="st7" cx="321.914093" cy="405.0443726" r="8.8331661"/>
	<rect x="234.0202789" y="109.9556885" class="st13" width="131.976059" height="28.5641384"/>
	<rect x="262.9513245" y="109.9556885" class="st14" width="74.0367203" height="28.5641384"/>
</g>
</svg>
