<?xml version="1.0" encoding="utf-8"?>
<!-- Generator: Adobe Illustrator 22.1.0, SVG Export Plug-In . SVG Version: 6.00 Build 0)  -->
<svg version="1.1" id="Layer_1" xmlns="http://www.w3.org/2000/svg" xmlns:xlink="http://www.w3.org/1999/xlink" x="0px" y="0px"
	 viewBox="0 0 600 600" style="enable-background:new 0 0 600 600;" xml:space="preserve">
<style type="text/css">
	.st0{fill:#F3F7DE;}
	.st1{fill:#DDEEDB;}
	.st2{fill:#C4E5DC;}
	.st3{fill:#AADCD9;}
	.st4{fill:#9ED3D7;}
	.st5{fill:#F1F5D7;}
	.st6{fill:#D6EBD4;}
	.st7{fill:#B8E0D5;}
	.st8{fill:#4EE88E;}
	.st9{fill:#3CD67B;}
	.st10{fill:#24BC61;}
	.st11{fill:#79F7AC;}
	.st12{opacity:0.5;fill:#FFFFFF;mix-blend-mode:soft-light;}
</style>
<g>
	<path class="st0" d="M469.1567993,522.9880371c0.0299683,14.0521851-5.4768982,27.3247681-15.4812927,37.3590698
		c-10.0043945,10.0443115-23.2569885,15.5812378-37.309082,15.6011963l-24.7461243,0.0400391l-26.195282,0.0400391
		l-59.9763489,0.0997925l-121.0921021,0.1999512c-29.1136627,0-52.8403473-23.6767578-52.8802948-52.7903442l-0.6296539-338.6400757
		c-0.0399628-29.1435699,23.646698-52.9102631,52.8003845-52.9602814l121.4618225-0.1898346l59.9563599-0.1000519
		l25.7855835-0.0398865l24.7261047-0.0400238c0.4997253,0,1.0094604,0.0100098,1.519104,0.0200195h0.1399536
		c28.2641602,0.8394928,51.261261,24.4862518,51.301239,52.7703094L469.1567993,522.9880371z"/>
	<path class="st0" d="M469.1533203,522.9874268c0.0302429,14.052124-5.4769287,27.324646-15.4810791,37.3590698
		c-10.0046387,10.0443115-23.256958,15.5812378-37.3091431,15.6011963l-24.7461243,0.039978l-26.1952515,0.0400391
		l-13.6922607,0.0198975l-5.4171448,0.0100098l-40.8171692,0.0700073h-0.0498047l-121.0922089,0.1998901
		c-29.1135406,0-52.8402252-23.6767578-52.8802338-52.7904053l-0.629776-338.6400146
		c-0.0397797-29.1436157,23.6468811-52.9103241,52.8004608-52.9602814l102.6523743-0.1598816l18.8095093-0.030014
		l43.7554626-0.0699615l16.2008667-0.029953h0.0500488l25.785553-0.0400238l10.7039795-0.0199432h0.1898193l13.7823181-0.0200043
		c0.4997253,0,1.0094299,0.0099945,1.519165,0.0200043h0.139801c28.2641907,0.8394928,51.2612915,24.4862671,51.3013,52.7703857
		L469.1533203,522.9874268z"/>
	<path class="st0" d="M392.0100708,540.6680908c1.6491089-5.626709,2.5385742-11.5634766,2.5286255-17.7000122
		l-0.6296387-338.6300049c-0.0100098-5.8067932-0.8095703-11.4336395-2.3187256-16.7806244
		c1.8190002,5.2969513,2.8084412,10.9439392,2.8184204,16.8005066l0.6196594,338.6300659
		C395.0384216,529.0946045,394.0089722,535.0513306,392.0100708,540.6680908z"/>
	<path class="st1" d="M420.5707092,523.0574341c0.0299988,22.1275024-11.5235596,41.6965332-28.903717,52.9302368
		l-26.1952515,0.0400391l-59.976593,0.0999146c0.0400085-0.0300293,0.0800171-0.0499878,0.1200256-0.0800171l-46.5939636,0.0800171
		c0.0700378-0.0499878,0.1400452-0.0899658,0.210083-0.1399536l23.2569885-0.039978
		c14.0519104-0.0199585,27.3045044-5.5568848,37.3088989-15.6011963c4.1177979-4.1276855,7.475769-8.8050537,9.9943848-13.8623047
		c3.6080933-7.2258911,5.5069275-15.2314453,5.486908-23.4967651l-0.6195374-338.6300049
		c-0.0099792-8.3253479-2.0088806-16.2509003-5.546936-23.3069305c0-0.0100098-0.0099792-0.0100098-0.0099792-0.0200195
		c-8.0755615-16.0709991-24.1163635-27.6544647-42.8060608-29.25354l18.8095093-0.030014l59.9563293-0.0999146h0.0500488
		l25.785553-0.0400238c17.4101563,11.1837311,29.0137634,30.7028046,29.0437927,52.8204041L420.5707092,523.0574341z"/>
	<path class="st1" d="M330.0548706,546.4848633c2.918335-7.2459106,4.5274048-15.161377,4.5174561-23.4267578L333.942688,184.428009
		c-0.0100098-8.2553864-1.6290894-16.1508484-4.5674438-23.3769073c3.5379944,7.0559845,5.5368652,14.9815826,5.546875,23.3068695
		l0.6196594,338.6300659C335.5617676,531.253418,333.6628113,539.2589722,330.0548706,546.4848633z"/>
	<path class="st2" d="M392.0100708,540.6680908c1.6491089-5.626709,2.5385742-11.5634766,2.5286255-17.7000122
		l-0.6296387-338.6300049c-0.0100098-5.8067932-0.8095703-11.4336395-2.3187256-16.7806244
		c1.8190002,5.2969513,2.8084412,10.9439392,2.8184204,16.8005066l0.6196594,338.6300659
		C395.0384216,529.0946045,394.0089722,535.0513306,392.0100708,540.6680908z"/>
	<path class="st2" d="M469.1533203,522.9874268c0.0302429,14.052124-5.4769287,27.324646-15.4810791,37.3590698
		c-10.0046387,10.0443115-23.256958,15.5812378-37.3091431,15.6011963l-24.7461243,0.039978l-26.1952515,0.0400391
		c0.0100098-0.0100098,0.0299988-0.0200195,0.0397644-0.0200195l-13.7320251,0.039917l-5.4671631,0.0200195
		c0.0200195,0,0.0300293,0,0.0500183-0.0100098c0.2198486-0.0299072,0.4697266-0.0699463,0.7395935-0.1199341
		c13.7622986-0.2098999,26.7149658-5.7267456,36.5395508-15.5911865
		c10.0043945-10.0344238,15.5013123-23.3069458,15.4812927-37.3590698l-0.6195068-338.6300049
		c-0.0400391-27.7144928-22.1177368-50.971405-49.5923157-52.6804657l16.2008667-0.029953h0.0500488l25.785553-0.0400238
		l10.7039795-0.0199432h0.1898193l13.7823181-0.0200043c0.4997253,0,1.0094299,0.0099945,1.519165,0.0200043h0.139801
		c28.2641907,0.8394928,51.2612915,24.4862671,51.3013,52.7703857L469.1533203,522.9874268z"/>
	<path class="st2" d="M392.0100708,540.6680908c1.6491089-5.626709,2.5385742-11.5634766,2.5286255-17.7000122
		l-0.6296387-338.6300049c-0.0100098-5.8067932-0.8095703-11.4336395-2.3187256-16.7806244
		c1.8190002,5.2969513,2.8084412,10.9439392,2.8184204,16.8005066l0.6196594,338.6300659
		C395.0384216,529.0946045,394.0089722,535.0513306,392.0100708,540.6680908z"/>
	<g>
		<g>
			<path class="st0" d="M434.9559631,90.9844513v0.3696671c0.0100098,4.3076401-1.6490479,8.3454132-4.6773682,11.3835068
				c-2.8383789,2.8484955-6.5663147,4.4974747-10.5640869,4.7075577c-0.2597961,0.0100098-0.5296631,0.0197678-0.79953,0.0197678
				H183.1872406c-8.8450165,0-16.0409851-6.8160019-16.0609894-15.6711426l-0.0799713-51.6609535
				c0-4.2976379,1.6591034-8.345171,4.6873627-11.3835068c3.0283356-3.0383339,7.0660553-5.0672245,11.3536835-5.0772285
				c0,0,52.3805847,0,107.8294525,0h128.6478577c0.1199341,0.010004,0.2298584,0.010004,0.349762,0.0300121
				c8.4053345,0.5397358,14.9516602,7.5057983,14.9616394,15.9910297L434.9559631,90.9844513z"/>
			<path class="st1" d="M409.4702454,91.0539932c0.0100098,6.1865921-2.0488281,11.8934708-5.5068359,16.4109573h-113.696228
				c0.2698059,0,0.5396729-0.0100021,0.79953-0.0200119c3.9977722-0.2099609,7.725647-1.8590622,10.5640869-4.7074356
				c3.0282593-3.0382156,4.6873779-7.0759888,4.6773682-11.3836288l-0.0799561-51.6609573
				c-0.0100098-8.4852314-6.5563354-15.4512939-14.9615784-15.9910297
				c-0.1199341-0.0200081-0.2299194-0.0200081-0.3498535-0.0300121h114.2159424
				c2.6784973,4.1775875,4.2376099,9.1747856,4.2476196,14.5418892L409.4702454,91.0539932z"/>
			<path class="st2" d="M434.9559631,90.9844513v0.3696671c0.0100098,4.3076401-1.6490479,8.3454132-4.6773682,11.3835068
				c-2.8383789,2.8484955-6.5663147,4.4974747-10.5640869,4.7075577c-0.2597961,0.0100098-0.5296631,0.0197678-0.79953,0.0197678
				h-68.9212952c0.8695068,0,1.7189941-0.0697861,2.5585632-0.2196045c3.308136-0.5897522,6.3863525-2.118927,8.7650452-4.5077209
				c5.2271118-5.2568207,4.6773682-12.5727844,4.6674194-19.4090347c-0.0100098-5.856575-0.0200195-11.7134018-0.0299988-17.5702209
				c-0.0100098-8.68507-0.0299683-17.3701363-0.039978-26.0652084c-0.0100098-8.4852314-6.5563049-15.4512939-14.9616394-15.9910297
				c-0.1199036-0.0200081-0.2298279-0.0200081-0.349762-0.0300121h68.9613037
				c0.1199341,0.010004,0.2298584,0.010004,0.349762,0.0300121c8.4053345,0.5397358,14.9516602,7.5057983,14.9616394,15.9910297
				L434.9559631,90.9844513z"/>
			<path class="st3" d="M410.0000305,75.8598633c0,1.3891144-0.4197388,2.6784286-1.1393127,3.7479019
				c-0.2399292,0.3496552-0.5097351,0.6795502-0.8195496,0.9894333c-1.1993408,1.2092819-2.8683777,1.9588623-4.7073975,1.9588623
				l-97.0455017,0.1600647l-107.5596619,0.1698227c-3.6879272,0.0100098-6.6862488-2.978302-6.6862488-6.6764297
				l-0.0400238-20.5782928c0-3.6878738,2.988327-6.6861916,6.6762543-6.6961975L306.24823,48.7649574l96.9056702-0.1598206
				h0.1199341c0.6996155,0,1.3792114,0.0997963,2.0088806,0.3098831c0.4197388,0.1298103,0.8195496,0.299881,1.1993408,0.5097237
				c0.2897949,0.1498184,0.5696106,0.329895,0.8294678,0.5494995c1.6091614,1.1995201,2.6485596,3.1283684,2.6585388,5.3070793
				L410.0000305,75.8598633z"/>
			<path class="st2" d="M223.443512,82.8604736l-24.7148132,0.0238113
				c-3.6885071,0.0059662-6.6833344-2.9791946-6.6893158-6.6677856l-0.0333405-20.5845108
				c-0.0059814-3.6885948,2.979187-6.6833458,6.6676941-6.6893158l24.714798-0.0238113
				c-3.6885986,0.00597-6.6737518,3.000721-6.6677856,6.6893158l0.0333557,20.5845108
				C216.7600708,79.881279,219.7549133,82.8664398,223.443512,82.8604736z"/>
			<path class="st4" d="M410.0000305,75.8598633c0,1.3891144-0.4197388,2.6784286-1.1393127,3.7479019
				c-0.2399292,0.3599014-0.5097351,0.6895523-0.8195496,0.9894333c-1.1993408,1.2092819-2.8683777,1.9588623-4.7073975,1.9588623
				l-97.0455017,0.1600647L306.24823,48.7649574l96.9056702-0.1598206l0.1299133,0.0100021
				c0.699646,0,1.3692322,0.1000443,1.9989014,0.299881c0.4197388,0.1298103,0.8195496,0.299881,1.1993408,0.5097237
				c0.2897949,0.1498184,0.5696106,0.329895,0.8294678,0.5494995c1.6091614,1.1995201,2.6485596,3.1283684,2.6585388,5.3070793
				L410.0000305,75.8598633z"/>
		</g>
		<polygon class="st5" points="384.9840088,132.1438904 354.5211182,132.1438904 352.8121033,132.1438904 305.7684937,132.1438904
			216.9582672,132.1438904 216.9083099,107.4631424 289.4176331,107.4631424 347.5849915,107.4631424 384.9240417,107.4631424
			384.9240417,107.4631424 		"/>
		<path class="st6" d="M374.9796753,127.4318161c0.0099182,2.5571823-2.8484497,4.7048874-6.3864441,4.7120743h-15.0815735
			h-0.7495728h-46.9935913h-16.2209473c-3.3280945-0.1580048-5.9666138-2.154892-5.9766235-4.5971222l-0.0299988-15.4075089
			c-0.0099487-2.3703232,2.4686279-4.4104385,5.6468506-4.6761169c0.0799561-0.0143814,0.1499329,0.0071869,0.2298584,0h58.1673584
			h21.8077698c0.059967,0.0071869,0.1099243-0.0071869,0.1698914,0c0.059967,0,0.1199341-0.0143814,0.1799011,0
			c2.9583435,0.3950958,5.1970825,2.3201752,5.2070923,4.5684433L374.9796753,127.4318161z"/>
		<path class="st7" d="M384.9840088,132.1438904L384.9840088,132.1438904h-30.4628906h-1.4691467
			c-0.059967,0-0.1099854,0.0071869-0.1599426,0c-0.0100098,0-0.0199585,0-0.0199585,0c-0.0200195,0-0.0400085,0.0071869-0.059967,0
			c-0.0200195,0-0.0299988,0.0071869-0.0500183,0c-3.1282349-0.2944489-5.5268555-2.2842255-5.5268555-4.6043091
			l-0.0400391-15.4505615c0-2.4278488,2.62854-4.4678726,5.9566956-4.6258774h31.7721558L384.9840088,132.1438904z"/>
	</g>
	<path class="st3" d="M443.6092529,184.4010925l0.6128235,338.6279602
		c0.0249329,15.4109497-12.4874878,27.9639893-27.8984985,27.9889526l-231.9329529,0.3753662
		c-15.4110107,0.0249634-27.9640198-12.4875488-27.9889526-27.8984985l-0.6128235-338.6279297
		c-0.0249481-15.4110107,12.4874878-27.9640198,27.8984985-27.9889679l231.9329529-0.3753815
		C431.031311,156.4776459,443.5842896,168.9900818,443.6092529,184.4010925z"/>
	<path class="st4" d="M443.6092529,184.4010925l0.6128235,338.6279602
		c0.0249329,15.4109497-12.4874878,27.9639893-27.8984985,27.9889526l-87.6315002,0.1418457
		c4.2058105-8.4319458,6.5657043-17.9226074,6.549469-27.9544067l-0.612854-338.6279907
		c-0.0162354-10.0317841-2.4067993-19.5148926-6.6398926-27.9330597l87.6315002-0.1418304
		C431.031311,156.4776459,443.5842896,168.9900818,443.6092529,184.4010925z"/>
	<path class="st2" d="M219.320282,551.336853l-34.929657,0.0565186
		c-15.4110107,0.0249634-27.9640198-12.4875488-27.9889526-27.8984985l-0.6128235-338.6279297
		c-0.0249481-15.4110107,12.4874878-27.9640198,27.8984985-27.9889679l34.929657-0.0565338
		c-15.4110107,0.0249481-27.9234467,12.5779572-27.8984985,27.9889679l0.6128235,338.6279602
		C191.3562775,538.8493042,203.9092712,551.3618164,219.320282,551.336853z"/>
	<path class="st8" d="M156.0158234,286.5041504l0.3835754,236.9907227
		c0.0249329,15.4109497,12.5779419,27.9234619,27.9889526,27.8984985l231.9329376-0.3753662
		c15.4110107-0.0249634,27.9234619-12.5780029,27.8984985-27.9889526l-0.4565125-282.0639954
		c-13.106842-9.3818512-32.0502319-16.4769135-64.0178833-16.4251709
		C291.1218872,224.6833191,281.0639954,286.3017578,156.0158234,286.5041504z"/>
	<path class="st9" d="M443.7632751,240.9650574l0.4565125,282.0639954
		c0.0249634,15.4109497-12.4874878,27.9639893-27.8984985,27.9889526l-87.6314697,0.1418457
		c2.7018433-5.4254761,4.6484375-11.296875,5.6863403-17.4740601c0.2766418-1.677124,0.4974976-3.368103,0.6344299-5.072876
		c0.1508179-1.7746582,0.2316284-3.5771484,0.2286682-5.4074707l-0.473053-292.2774353
		c12.903717-3.9051056,27.4027405-6.3596802,44.9792786-6.3881226
		C411.7131348,224.4881439,430.6565857,231.5832062,443.7632751,240.9650574z"/>
	<path class="st9" d="M443.7859192,254.9508972l0.4338684,268.0781555
		c0.0249634,15.4109497-12.4874878,27.9639893-27.8984985,27.9889526l-231.9329376,0.3753662
		c-15.4110107,0.0249634-27.9640198-12.4875488-27.9889526-27.8984985l-0.3609314-223.0048828
		c73.2126007-0.1184998,107.0182343-21.2987976,140.2429047-38.859314
		c23.522583-12.4311523,46.7545776-23.0454865,83.4866638-23.1049347
		C411.7356873,238.473999,430.6790771,245.5689697,443.7859192,254.9508972z"/>
	<path class="st10" d="M443.7859192,254.9508972l0.4338684,268.0781555
		c0.0249634,15.4109497-12.4874878,27.9639893-27.8984985,27.9889526l-87.6314697,0.1418457
		c2.7018433-5.4254761,4.6484375-11.296875,5.6863403-17.4740601c0.2766418-1.677124,0.4974976-3.368103,0.6344299-5.072876
		c0.1508179-1.7746582,0.2316284-3.5771484,0.2286682-5.4074707l-0.4504395-278.3055725
		c12.903717-3.9051056,27.3887634-6.3456726,44.9793091-6.3741302
		C411.7357483,238.473999,430.6792297,245.5689697,443.7859192,254.9508972z"/>
	<path class="st11" d="M444.2217712,523.0308838c0.0199585,15.4113159-12.492981,27.9643555-27.9043579,27.9942627
		l-196.9095001,0.3098145h-0.1898956l-34.740509,0.0599976h-0.1299438c-0.4497528,0-0.8995209-0.0100098-1.3492126-0.039978
		c-0.4697723-0.0200195-0.9394836-0.0599365-1.4092407-0.0999756c-0.5097198-0.039917-1.0094452-0.0999146-1.5091705-0.1798706
		c-13.3724976-2.0488281-23.6567078-13.6223755-23.676712-27.5745239l-0.4597015-282.0717773
		c0.0099945-0.0099487,0.0199432-0.0099487,0.029953-0.0199585c8.495224-6.1165619,19.4490967-11.2736969,34.8404388-14.1420898
		c0.0200043,0,0.0500183-0.0099945,0.0699615-0.0099945c8.2853851-1.549118,17.8599701-2.4386292,29.0237579-2.4585876
		c88.6202545-0.1399384,98.8845062,61.4454956,223.9243622,61.2456055L444.2217712,523.0308838z"/>
	<path class="st8" d="M443.8407898,286.0382996l0.3835449,236.9907532
		c0.0249634,15.4108887-12.4874878,27.9639893-27.8984985,27.9889526l-87.6314697,0.1418457
		c2.7018433-5.4254761,4.6484375-11.296875,5.6863403-17.4741211c0.2766418-1.677063,0.4974976-3.368042,0.6344299-5.0728149
		c0.1508179-1.7747192,0.2316284-3.5771484,0.2286682-5.4074707l-0.4199219-259.45755
		C360.7754211,275.8754578,392.7179565,286.1210327,443.8407898,286.0382996z"/>
	<path class="st9" d="M444.2173462,522.3078003v0.7895508c0,0.4797363-0.0100098,0.9494629-0.0397644,1.4191895
		c-0.0102539,0.3398438-0.0400085,0.6796265-0.0700378,1.0094604c-0.0500183,0.5996094-0.1200562,1.1893311-0.2098389,1.769043
		c-0.0299988,0.2098389-0.0600281,0.409729-0.1000366,0.6096191c-0.0400085,0.2698364-0.0900269,0.5296631-0.1498108,0.7995605
		c-0.1200562,0.5696411-0.2498779,1.1393433-0.4099426,1.6990356c-0.0797729,0.3098145-0.1698303,0.6196289-0.2698669,0.9194946
		c-0.0197449,0.0799561-0.0397644,0.1499023-0.0697937,0.2199097c-0.0900269,0.3198242-0.1998291,0.6395874-0.3198853,0.9494019
		c-0.1100464,0.3198242-0.2398376,0.6396484-0.3598938,0.9494629c-0.0100098,0.0200195-0.0197754,0.0499878-0.0299988,0.0699463
		c-4.127594,10.2342529-14.1619873,17.4902344-25.865387,17.5101929l-231.9299316,0.369812
		c-11.7033997,0.0200195-21.7678223-7.1959839-25.9253998-17.4202271c-1.3193207-3.1981812-2.0488892-6.696228-2.0689087-10.3641968
		l-0.4296875-264.4715881c13.0827484-9.4246979,32.0020599-16.580719,63.9641113-16.6306763
		c0.9294128,0,1.8490601,0,2.7584686,0.0200043c0.3599091,0,0.7195587,0.0099487,1.069458,0.0099487
		c0.8593903,0.0200043,1.7090149,0.0400085,2.5483856,0.0699615c1.0594635,0.030014,2.1089172,0.0799713,3.1383667,0.1299286
		c0.8894043,0.0400238,1.7790375,0.0999908,2.6484222,0.1599426h0.0700226
		c0.8396301,0.059967,1.6689911,0.1199341,2.4886017,0.1898956c0.5497437,0.0399628,1.0894775,0.08992,1.6289673,0.1398773
		c0.9196472,0.0899811,1.8290558,0.1799011,2.7286987,0.2798767c2.0088806,0.2198486,3.9777374,0.4797058,5.9065857,0.7695923
		c0.5797577,0.0899048,1.1592712,0.1798859,1.7290192,0.2698059c0.9894409,0.1599426,1.9688721,0.329834,2.9382935,0.5097198
		c0.2200928,0.0399628,0.4396973,0.0799713,0.65979,0.1199341c0.4997101,0.0899658,0.9894257,0.1898956,1.4791412,0.2898712
		c0.4897156,0.08992,0.9694366,0.1898346,1.4391327,0.2898102c0.6197815,0.1299438,1.2393036,0.2598724,1.8490601,0.3997498
		c0.2796326,0.0600128,0.5494995,0.1199799,0.8193665,0.1898956c0.7198029,0.1599426,1.4391327,0.329834,2.148941,0.5097198
		c0.9294128,0.2199097,1.8388062,0.4597626,2.7384644,0.6996155c0.6295166,0.1698914,1.2492981,0.3398438,1.8688049,0.5097198
		c4.747345,1.3292847,9.2848511,2.8683929,13.6625061,4.5574493c0.5895081,0.2298431,1.169281,0.4597626,1.7490234,0.6896057
		c0.6995544,0.2798157,1.3991089,0.5596924,2.0886841,0.8495026c0.6997986,0.2798767,1.3893433,0.5696869,2.0788879,0.8695068
		c0.6895752,0.2898865,1.3693542,0.5897064,2.0489197,0.8895264c2.4385681,1.0694122,4.8371277,2.1787567,7.2159119,3.3281403
		c0.449707,0.2098999,0.8994141,0.4297485,1.3493347,0.6495972c0.8894043,0.4397583,1.7788086,0.8795166,2.6684265,1.3192749
		c0.2798767,0.1399231,0.5494995,0.2698669,0.8296204,0.4197998c0.5595093,0.2798157,1.1192322,0.5596924,1.6689758,0.8495178
		c2.7884827,1.399231,5.5569458,2.8583679,8.3451843,4.3375854c1.2593079,0.6696167,2.528595,1.3392029,3.7979126,2.0088196
		c1.5391846,0.8095398,3.0683594,1.6290894,4.6175232,2.4586487c0.569519,0.2998047,1.1392517,0.5996399,1.6990051,0.8995056
		c7.8557129,4.1276855,16.0010376,8.2953491,24.9059448,12.1731567c0.9494324,0.4197693,1.9190979,0.8295593,2.8885193,1.2393188
		c0.4897156,0.2098999,0.9794312,0.409729,1.4691467,0.6096191c0.6395264,0.2698669,1.2893066,0.5397339,1.9488525,0.7995605
		c1.0794678,0.4298096,2.1586914,0.8595581,3.2581787,1.2792969c0.5497437,0.2098999,1.0994873,0.4197388,1.6589966,0.6296692
		c2.8284912,1.0593872,5.7367554,2.0887756,8.7450867,3.0682678c1.1194763,0.3697815,2.258728,0.7295837,3.4082336,1.0893555
		c1.8188171,0.5596924,3.6678772,1.0994263,5.546936,1.6290894c0.6295471,0.1799011,1.2590637,0.3498535,1.8988342,0.5197449
		c1.908844,0.5197144,3.8576965,1.0094299,5.8468323,1.4891357c0.6595459,0.1598816,1.329071,0.3198242,1.9988708,0.4697876
		c0.6695557,0.1598816,1.3490906,0.3098145,2.028656,0.4596863c0.2098389,0.0499573,0.4199219,0.0899963,0.6297607,0.1399536
		c0.5595093,0.1199036,1.1292725,0.2398376,1.6990051,0.3597717c0.7896118,0.1698914,1.5892029,0.329834,2.3887939,0.4897156
		c3.4179993,0.6795959,6.9658203,1.3092651,10.6339417,1.8689575c0.6395264,0.0999756,1.2893066,0.1898804,1.9388428,0.2798462
		c0.5197144,0.0799866,1.049469,0.1599121,1.5791931,0.2298584c0.7295837,0.0999756,1.459137,0.1999207,2.2087097,0.2898865
		c1.8390808,0.2398682,3.7078857,0.469696,5.6167297,0.6696167c0.6097717,0.0699463,1.2292786,0.1399231,1.8490601,0.1998901
		s1.2492981,0.1199341,1.8788452,0.1799011c2.8785095,0.2698059,5.8267822,0.5097046,8.8551331,0.6996155
		c0.719574,0.0499573,1.4391174,0.0999146,2.1586914,0.1398621c0.7796021,0.0400085,1.5591736,0.0799866,2.3487854,0.1199341
		c2.0088806,0.0999756,4.0577698,0.1898804,6.1366882,0.2498474c1.4091187,0.0500183,2.8382568,0.0899963,4.2773743,0.1099854
		c1.1195068,0.0199585,2.2587585,0.039978,3.3982544,0.0499573c1.18927,0.0100098,2.3885498,0.0200195,3.5978394,0.0200195h0.65979
		l0.2098389,131.8059998l0.0100098,3.1682739L444.2173462,522.3078003z"/>
	<path class="st8" d="M444.2173462,522.3078003v1.0194092c0,0.3997803-0.0197449,0.7995605-0.0397644,1.1893311
		c-0.0102539,0.3398438-0.0400085,0.6796265-0.0700378,1.0094604c-0.0500183,0.5996094-0.1200562,1.1893311-0.2098389,1.769043
		c-0.0299988,0.2098389-0.0600281,0.409729-0.1000366,0.6096191c-0.0400085,0.2698364-0.0900269,0.5296631-0.1498108,0.7995605
		c-0.1200562,0.5696411-0.2498779,1.1393433-0.4099426,1.6990356c-0.0797729,0.3098145-0.1698303,0.6196289-0.2698669,0.9194946
		c-0.0197449,0.0799561-0.0397644,0.1499023-0.0697937,0.2199097c-0.0900269,0.3198242-0.1998291,0.6395874-0.3198853,0.9494019
		c-0.1100464,0.3198242-0.2398376,0.6396484-0.3598938,0.9494629c-0.0100098,0.0200195-0.0197754,0.0499878-0.0299988,0.0699463
		l-29.2336121,0.0499878l-254.4871063,0.40979c-1.3193207-3.1981812-2.0488892-6.696228-2.0689087-10.3641968
		l-0.4296875-264.4715881c13.0827484-9.4246979,32.0020599-16.580719,63.9642029-16.6306763
		c8.3537598,0,16.7218475,0.5270691,24.9858856,1.7690277c0.5797577,0.0899048,1.1592712,0.1798859,1.7290192,0.2698059
		c0.9894409,0.1599426,1.9688721,0.329834,2.9382935,0.5097198c0.2200928,0.0399628,0.4396973,0.0799713,0.65979,0.1199341
		c0.4997101,0.0899658,0.9894257,0.1898956,1.4791412,0.2898712c0.4897156,0.08992,0.9694366,0.1898346,1.4391327,0.2898102
		c0.6197815,0.1299438,1.2393036,0.2598724,1.8490601,0.3997498c0.2796326,0.0600128,0.5494995,0.1199799,0.8193665,0.1898956
		c0.7198029,0.1599426,1.4391327,0.329834,2.148941,0.5097198c0.9294128,0.2199097,1.8388062,0.4597626,2.7384644,0.6996155
		c0.6295166,0.1698914,1.2492981,0.3398438,1.8688049,0.5097198c4.747345,1.3292847,9.2848511,2.8683929,13.6625061,4.5574493
		c0.5895081,0.2298431,1.169281,0.4597626,1.7490234,0.6896057c0.6995544,0.2798157,1.3991089,0.5596924,2.0886841,0.8495026
		c0.6997986,0.2798767,1.3893433,0.5696869,2.0788879,0.8695068c0.6895752,0.2898865,1.3693542,0.5897064,2.0489197,0.8895264
		c2.4385681,1.0694122,4.8371277,2.1787567,7.2159119,3.3281403c0.449707,0.2098999,0.8994141,0.4297485,1.3493347,0.6495972
		c0.8894043,0.4397583,1.7788086,0.8795166,2.6684265,1.3192749c0.2798767,0.1399231,0.5494995,0.2698669,0.8296204,0.4197998
		c0.5595093,0.2798157,1.1192322,0.5596924,1.6689758,0.8495178c2.7884827,1.399231,5.5569458,2.8583679,8.3451843,4.3375854
		c1.2593079,0.6696167,2.528595,1.3392029,3.7979126,2.0088196c1.5391846,0.8095398,3.0683594,1.6290894,4.6175232,2.4586487
		c0.569519,0.2998047,1.1392517,0.5996399,1.6990051,0.8995056c7.8557129,4.1276855,16.0010376,8.2953491,24.9059448,12.1731567
		c0.9594116,0.4197693,1.9190979,0.8295593,2.8885193,1.2393188c0.4897156,0.2098999,0.9794312,0.409729,1.4691467,0.6096191
		c0.6495361,0.2698669,1.2990723,0.5297546,1.9488525,0.7995605c1.0794678,0.4298096,2.1586914,0.8595581,3.2581787,1.2792969
		c0.5497437,0.2098999,1.0994873,0.4197388,1.6589966,0.6296692c2.8284912,1.0593872,5.7367554,2.0887756,8.7450867,3.0682678
		c1.1194763,0.3697815,2.258728,0.7295837,3.4082336,1.0893555c1.8188171,0.5596924,3.6678772,1.0994263,5.546936,1.6290894
		c0.6295471,0.1698914,1.2590637,0.3498535,1.8988342,0.5197449c1.908844,0.5197144,3.8576965,1.0094299,5.8468323,1.4891357
		c0.6595459,0.1598816,1.329071,0.3198242,1.9988708,0.4697876c0.6695557,0.1598816,1.3490906,0.3098145,2.028656,0.4596863
		c0.2098389,0.0499573,0.4199219,0.0899963,0.6297607,0.1399536c0.5595093,0.1199036,1.1292725,0.2398376,1.6990051,0.3597717
		c0.7896118,0.1698914,1.5791931,0.329834,2.3887939,0.4897156c3.4179993,0.6795959,6.9658203,1.3092651,10.6339417,1.8689575
		c0.6395264,0.0899658,1.2893066,0.1898804,1.9388428,0.2798462c0.5197144,0.0799866,1.049469,0.1599121,1.5791931,0.2298584
		c0.7295837,0.0999756,1.4691467,0.1999207,2.2087097,0.2898865c1.8390808,0.2398682,3.7078857,0.469696,5.6167297,0.6696167
		c0.6097717,0.0699463,1.2292786,0.1299133,1.8490601,0.1998901c0.6197815,0.059967,1.2492981,0.1199341,1.8788452,0.1799011
		c2.8785095,0.2698059,5.8267822,0.5097046,8.8551331,0.6996155c0.7095642,0.0499573,1.4291077,0.0999146,2.1586914,0.1398621
		c0.7796021,0.0400085,1.5591736,0.0799866,2.3487854,0.1199341c2.0088806,0.0999756,4.0577698,0.1898804,6.1366882,0.2498474
		c1.4091187,0.0500183,2.8382568,0.0899963,4.2773743,0.1099854c1.1195068,0.0199585,2.2587585,0.039978,3.3982544,0.0499573
		c1.18927,0.0100098,2.3885498,0.0200195,3.5978394,0.0200195h0.65979l0.2098389,131.8059998l0.0100098,3.1682739
		l0.1100464,66.8525085v0.0399475L444.2173462,522.3078003z"/>
	<path class="st10" d="M444.227356,523.0274048c0,3.7279053-0.719574,7.2759399-2.0588989,10.5340576
		c-4.1375732,10.2142944-14.1519775,17.4402466-25.8453674,17.4602051l-89.1699524,0.1399536
		c2.7084656-5.427002,4.6573181-11.2937012,5.6867676-17.4802246c0.0700378-0.409729,0.139801-0.8295288,0.1998291-1.2493286
		c0.1898499-1.2692261,0.329895-2.5385132,0.4396973-3.8178101c0.1500549-1.7689819,0.2301025-3.5780029,0.2301025-5.4069824
		l1.1392517-241.7743225c25.9554138,12.143158,57.8974609,22.3874207,109.0189209,22.3074951l0.2198486,131.8059998
		l0.1100464,70.0207825v0.0399475L444.227356,523.0274048z"/>
	<path class="st9" d="M444.2173462,523.3272095c-0.0299988,3.5980225-0.739563,7.026062-2.0288696,10.1842651
		c-0.0097656,0.0200195-0.0097656,0.0300293-0.0200195,0.0499878l-109.3185425,0.1299438
		c0.0700073-0.4197388,0.1297913-0.8395386,0.1898193-1.2593384c0.1898499-1.2692261,0.329895-2.5385132,0.4396973-3.8178101
		c0.1500549-1.7689819,0.2301025-3.5780029,0.2301025-5.4069824l1.1392517-241.7743225
		c25.9554138,12.143158,57.8974609,22.3874207,109.0189209,22.3074951l0.2198486,131.8059998
		C444.0875549,435.5464478,444.227356,523.2272949,444.2173462,523.3272095z"/>
	<circle class="st9" cx="273.9525757" cy="318.5059204" r="10.5769148"/>
	<circle class="st9" cx="210.9399414" cy="320.839386" r="29.3409538"/>
	<circle class="st9" cx="253.5606842" cy="372.8523865" r="18.3626137"/>
	<circle class="st9" cx="333.7137451" cy="492.6473694" r="20.8573265"/>
	<circle class="st9" cx="300.4941711" cy="453.2012939" r="15.1161814"/>
	<circle class="st9" cx="269.1820984" cy="481.4433594" r="9.2434206"/>
	<path class="st12" d="M190.6824341,187.8484497h0.0000305c8.1011353,0,14.6684113,6.5672607,14.6684113,14.6684113v198.7171478
		c0,8.1011353-6.567276,14.6684265-14.6684113,14.6684265h-0.0000305c-8.1011353,0-14.668396-6.5672913-14.668396-14.6684265
		V202.516861C176.0140381,194.4157104,182.5812988,187.8484497,190.6824341,187.8484497z"/>
	<path class="st12" d="M191.2743225,430.8940125h0.0000305c8.1011353,0,14.668396,6.5672607,14.668396,14.668396v28.806366
		c0,8.1011353-6.5672607,14.668396-14.668396,14.668396h-0.0000305c-8.1011353,0-14.6684113-6.5672607-14.6684113-14.668396
		v-28.806366C176.6059113,437.4612732,183.1731873,430.8940125,191.2743225,430.8940125z"/>
</g>
</svg>
